%FSTAX23Y23*%
%MOIN*%
%SFA1B1*%

%IPPOS*%
%ADD13C,0.010000*%
%ADD21R,0.059060X0.059060*%
%ADD22C,0.059060*%
%ADD23C,0.070870*%
%ADD24R,0.070870X0.070870*%
%ADD25C,0.070000*%
%ADD26R,0.070000X0.070000*%
%ADD27C,0.050000*%
%LNeeprom_programmer-1*%
%LPD*%
G36*
X0435Y01645D02*
X02695D01*
Y03425*
X0435*
Y01645*
G37*
%LNeeprom_programmer-2*%
%LPC*%
G36*
X042Y03404D02*
X03077D01*
X03071Y03403*
X03066Y034*
X03057Y03391*
X0305Y03393*
X03041*
X03032Y0339*
X03024Y03386*
X03017Y03379*
X03013Y03371*
X0301Y03362*
Y03353*
X03013Y03344*
X03017Y03336*
X03024Y03329*
X03032Y03325*
X03041Y03323*
X0305*
X03059Y03325*
X03067Y03329*
X03073Y03336*
X03078Y03344*
X0308Y03353*
Y03362*
X03078Y03369*
X03083Y03374*
X03285*
X03286Y03369*
X03247Y0333*
X0324Y03332*
X03231*
X03222Y03329*
X03214Y03325*
X03207Y03318*
X03203Y0331*
X03201Y03301*
Y03292*
X03203Y03283*
X03207Y03276*
X03205Y03271*
X02781*
X02775Y0327*
X0277Y03267*
X0272Y03216*
X02716Y03211*
X02715Y03206*
Y02644*
X02716Y02638*
X0272Y02633*
X0274Y02613*
X02739Y02611*
X02736Y02599*
Y02587*
X02739Y02576*
X02745Y02565*
X02753Y02557*
X02763Y02551*
X02775Y02548*
X02787*
X02799Y02551*
X02809Y02557*
X02817Y02565*
X02823Y02576*
X02826Y02587*
Y02599*
X02823Y02611*
X02817Y02621*
X02809Y0263*
X02799Y02636*
X02787Y02639*
X02775*
X02763Y02636*
X02761Y02635*
X02746Y0265*
Y02658*
X0275Y0266*
X02753Y02657*
X02763Y02651*
X02775Y02648*
X02787*
X02799Y02651*
X02809Y02657*
X02817Y02665*
X02823Y02676*
X02826Y02687*
Y02699*
X02823Y02711*
X02822Y02713*
X03038Y02929*
X03042Y02934*
X03043Y0294*
Y02976*
X03131Y03063*
X03136Y03061*
Y03057*
X03138Y03048*
X03142Y0304*
X03149Y03033*
X03157Y03029*
X03166Y03027*
X03175*
X03184Y03029*
X03192Y03033*
X03199Y0304*
X03203Y03048*
X03206Y03057*
Y03066*
X03203Y03075*
X03199Y03083*
X03198Y03083*
X03222Y03107*
X03227Y03105*
Y03099*
X03229Y0309*
X03233Y03082*
X0324Y03075*
X03248Y03071*
X03257Y03069*
X03266*
X03275Y03071*
X03283Y03075*
X0329Y03082*
X03293Y03088*
X0336*
Y03087*
X03363Y03076*
X03369Y03065*
X03377Y03057*
X03387Y03051*
X03399Y03048*
X03411*
X03422Y03051*
X03433Y03057*
X03441Y03065*
X03447Y03076*
X03449Y03083*
X03454Y03082*
Y03004*
X03449Y03004*
X03447Y03011*
X03441Y03021*
X03433Y0303*
X03422Y03036*
X03411Y03039*
X03399*
X03387Y03036*
X03377Y0303*
X03369Y03021*
X03363Y03011*
X0336Y02999*
Y02987*
X03363Y02976*
X03364Y02974*
X03313Y02923*
X03309Y02918*
X03308Y02912*
Y01759*
X03309Y01753*
X03313Y01748*
X03349Y01712*
X03354Y01708*
X0336Y01707*
X03683*
X03688Y01708*
X03693Y01712*
X03721Y01739*
X03726Y01737*
X03725Y01735*
Y01724*
X03728Y01714*
X03733Y01705*
X03736Y01702*
X03734Y01697*
X03294*
X0329Y01701*
X03292Y01706*
Y01715*
X03289Y01724*
X03285Y01732*
X03278Y01739*
X0327Y01743*
X03261Y01746*
X03252*
X03243Y01743*
X03235Y01739*
X03228Y01732*
X03224Y01724*
X03222Y01715*
Y01706*
X03224Y01697*
X03228Y01689*
X03235Y01682*
X03243Y01678*
X03252Y01676*
X03261*
X03268Y01677*
X03275Y01671*
X0328Y01667*
X03286Y01666*
X03817*
X03822Y01667*
X03827Y01671*
X04049Y01893*
X04059Y0189*
X0407*
X0408Y01893*
X04089Y01898*
X04096Y01905*
X04101Y01914*
X04104Y01924*
Y01935*
X04101Y01945*
X04097Y01952*
X04101Y01955*
X04143Y01913*
Y01841*
X04144Y01835*
X04148Y0183*
X04179Y01799*
X04178Y01797*
X04175Y01785*
Y01774*
X04178Y01762*
X04183Y01752*
X04192Y01743*
X04202Y01738*
X04214Y01735*
X04225*
X04237Y01738*
X04247Y01743*
X04256Y01752*
X04261Y01762*
X04265Y01774*
Y01785*
X04261Y01797*
X04256Y01807*
X04247Y01816*
X04237Y01821*
X04225Y01825*
X04214*
X04202Y01821*
X042Y0182*
X04191Y0183*
X04193Y01835*
X04265*
Y01925*
X04175*
X04171Y01928*
X04169Y0193*
X04114Y01985*
X04109Y01989*
X04104Y0199*
X04085*
X04083Y01995*
X04089Y01998*
X04096Y02005*
X04101Y02014*
X04104Y02024*
Y02035*
X04101Y02045*
X04096Y02054*
X04089Y02061*
X0408Y02066*
X0407Y02069*
X04059*
X04049Y02066*
X0404Y02061*
X04033Y02054*
X04028Y02045*
X04025Y02035*
Y02024*
X04028Y02014*
X04033Y02005*
X0404Y01998*
X04046Y01995*
X04044Y0199*
X0401*
X04004Y01989*
X03999Y01985*
X03803Y0179*
X03785*
X03783Y01795*
X03789Y01798*
X03796Y01805*
X03801Y01814*
X03804Y01824*
Y01835*
X03801Y01845*
X03796Y01854*
X03791Y01859*
X03793Y01864*
X03815*
X0382Y01865*
X03825Y01869*
X04049Y02093*
X04059Y0209*
X0407*
X0408Y02093*
X04089Y02098*
X04096Y02105*
X04101Y02114*
X04104Y02124*
Y02135*
X04101Y02145*
X04096Y02154*
X04089Y02161*
X0408Y02166*
X0407Y02169*
X04059*
X04049Y02166*
X0404Y02161*
X04033Y02154*
X04028Y02145*
X04025Y02135*
Y02124*
X04028Y02114*
X03963Y0205*
X03959Y02053*
X03959Y02053*
X03962Y02062*
Y02071*
X03959Y0208*
X03955Y02088*
X03948Y02095*
X03942Y02098*
Y02188*
X03941Y02193*
X03937Y02198*
X0385Y02285*
X03845Y02289*
X0384Y0229*
X03785*
X03783Y02295*
X03789Y02298*
X03796Y02305*
X03801Y02314*
X03804Y02324*
Y02335*
X03801Y02345*
X03796Y02354*
X03791Y02359*
X03793Y02364*
X03925*
X03971Y02319*
X03976Y02315*
X03982Y02314*
X04028*
X04033Y02305*
X0404Y02298*
X04049Y02293*
X04059Y0229*
X0407*
X0408Y02293*
X04089Y02298*
X04096Y02305*
X04101Y02314*
X04104Y02324*
Y02335*
X04101Y02345*
X04096Y02354*
X04089Y02361*
X0408Y02366*
X0407Y02369*
X04059*
X04049Y02366*
X0404Y02361*
X04033Y02354*
X04028Y02345*
X0402*
X04019Y0235*
X04022Y02351*
X04029Y02358*
X04033Y02366*
X04036Y02375*
Y02384*
X04033Y02393*
X04029Y02401*
X04022Y02408*
X04014Y02412*
X04005Y02415*
X03996*
X03989Y02413*
X03898Y02503*
X03893Y02507*
X03888Y02508*
X0377*
X03762Y02515*
X03764Y0252*
X03976*
X03981Y02521*
X03986Y02525*
X04047Y02585*
X04104*
Y02664*
X04025*
Y02607*
X03969Y02551*
X03765*
X03675Y0264*
X0367Y02644*
X03665Y02645*
X03655*
X03653Y02649*
X03656Y02652*
X03661Y02662*
X03665Y02674*
Y02685*
X03661Y02697*
X03656Y02707*
X03653Y0271*
X03655Y02714*
X03675*
X0368Y02715*
X03685Y02719*
X03726Y02759*
X03736*
X03738Y02754*
X03733Y02749*
X03728Y0274*
X03725Y0273*
Y02719*
X03728Y02709*
X03733Y027*
X0374Y02693*
X03749Y02688*
X03759Y02685*
X0377*
X0378Y02688*
X03789Y02693*
X03796Y027*
X03801Y02709*
X03804Y02719*
Y0273*
X03801Y0274*
X03796Y02749*
X03791Y02754*
X03793Y02759*
X03815*
X0382Y0276*
X03825Y02764*
X04049Y02988*
X04059Y02985*
X0407*
X0408Y02988*
X04089Y02993*
X0409Y02994*
X04094Y02992*
Y02976*
X0408Y02961*
X0407Y02964*
X04059*
X04049Y02961*
X0404Y02956*
X04033Y02949*
X04028Y0294*
X04025Y0293*
Y02919*
X04028Y02909*
X04033Y029*
X04034Y02899*
X04032Y02895*
X0402*
X04014Y02894*
X04009Y0289*
X0378Y02661*
X0377Y02664*
X03759*
X03749Y02661*
X0374Y02656*
X03733Y02649*
X03728Y0264*
X03725Y0263*
Y02619*
X03728Y02609*
X03733Y026*
X0374Y02593*
X03749Y02588*
X03759Y02585*
X0377*
X0378Y02588*
X03789Y02593*
X03796Y026*
X03801Y02609*
X03804Y02619*
Y0263*
X03801Y0264*
X04026Y02864*
X04044*
X04046Y02859*
X0404Y02856*
X04033Y02849*
X04028Y0284*
X04025Y0283*
Y02819*
X04028Y02809*
X04033Y028*
X0404Y02793*
X04049Y02788*
X04059Y02785*
X0407*
X0408Y02788*
X04089Y02793*
X04096Y028*
X04101Y02809*
X04119*
X04124Y0281*
X04129Y02814*
X0413Y02814*
X04184*
X04186Y0281*
X04183Y02807*
X04178Y02797*
X04175Y02785*
Y02774*
X04178Y02762*
X04183Y02752*
X04192Y02743*
X04202Y02738*
X04214Y02735*
X04225*
X04237Y02738*
X04247Y02743*
X04256Y02752*
X04261Y02762*
X04265Y02774*
Y02785*
X04261Y02797*
X04256Y02807*
X04253Y0281*
X04255Y02814*
X0427*
X0427Y02814*
X04274Y02811*
Y02666*
X04263Y02654*
X04259Y02657*
X04261Y02662*
X04265Y02674*
Y02685*
X04261Y02697*
X04256Y02707*
X04247Y02716*
X04237Y02721*
X04225Y02725*
X04214*
X04202Y02721*
X04192Y02716*
X04183Y02707*
X04178Y02697*
X04175Y02685*
Y02674*
X04178Y02662*
X04183Y02652*
X04186Y02649*
X04184Y02645*
X0417*
X04167Y02644*
X04164Y02644*
X04164Y02644*
X04164*
X04161Y02642*
X04159Y0264*
Y0264*
X04159Y0264*
X04157Y02638*
X04155Y02635*
Y02635*
X04155Y02635*
X04155Y02632*
X04154Y0263*
X04154Y0234*
X0408Y02266*
X0407Y02269*
X04059*
X04049Y02266*
X0404Y02261*
X04033Y02254*
X04028Y02245*
X04025Y02235*
Y02224*
X04028Y02214*
X04033Y02205*
X0404Y02198*
X04049Y02193*
X04059Y0219*
X0407*
X0408Y02193*
X04089Y02198*
X04096Y02205*
X04101Y02214*
X04104Y02224*
Y02235*
X04101Y02245*
X0418Y02323*
X04181Y02326*
X04183Y02328*
Y02328*
X04183Y02328*
X04184Y02331*
X04184Y02334*
X04184Y02344*
X04189Y02346*
X04192Y02343*
X04202Y02338*
X04214Y02335*
X04225*
X04237Y02338*
X04247Y02343*
X04256Y02352*
X04261Y02362*
X04265Y02374*
Y02385*
X04261Y02397*
X04256Y02407*
X04247Y02416*
X04237Y02421*
X04225Y02425*
X04214*
X04202Y02421*
X04192Y02416*
X04189Y02413*
X04184Y02415*
X04184Y02435*
X04265*
Y02525*
X04188*
X04185Y02528*
X04185Y02535*
X04265*
Y02615*
X04265Y02615*
X0427Y02619*
X043Y02649*
X04304Y02654*
X04305Y0266*
Y033*
X04304Y03305*
X043Y0331*
X04211Y034*
X04206Y03403*
X042Y03404*
G37*
G36*
X0407Y02764D02*
X04059D01*
X04049Y02761*
X0404Y02756*
X04033Y02749*
X04028Y0274*
X04025Y0273*
Y02719*
X04028Y02709*
X04033Y027*
X0404Y02693*
X04049Y02688*
X04059Y02685*
X0407*
X0408Y02688*
X04089Y02693*
X04096Y027*
X04101Y02709*
X04104Y02719*
Y0273*
X04101Y0274*
X04096Y02749*
X04089Y02756*
X0408Y02761*
X0407Y02764*
G37*
G36*
X02787Y02539D02*
X02775D01*
X02763Y02536*
X02753Y0253*
X02745Y02521*
X02739Y02511*
X02736Y02499*
Y02487*
X02739Y02476*
X02745Y02465*
X02753Y02457*
X02763Y02451*
X02775Y02448*
X02787*
X02799Y02451*
X02809Y02457*
X02817Y02465*
X02823Y02476*
X02826Y02487*
Y02499*
X02823Y02511*
X02817Y02521*
X02809Y0253*
X02799Y02536*
X02787Y02539*
G37*
G36*
X0407Y02469D02*
X0407D01*
Y02435*
X04104*
Y02435*
X04101Y02445*
X04096Y02454*
X04089Y02461*
X0408Y02466*
X0407Y02469*
G37*
G36*
X0406D02*
X04059D01*
X04049Y02466*
X0404Y02461*
X04033Y02454*
X04028Y02445*
X04025Y02435*
Y02435*
X0406*
Y02469*
G37*
G36*
X04104Y02425D02*
X0407D01*
Y0239*
X0407*
X0408Y02393*
X04089Y02398*
X04096Y02405*
X04101Y02414*
X04104Y02424*
Y02425*
G37*
G36*
X0406D02*
X04025D01*
Y02424*
X04028Y02414*
X04033Y02405*
X0404Y02398*
X04049Y02393*
X04059Y0239*
X0406*
Y02425*
G37*
G36*
X02787Y02439D02*
X02775D01*
X02763Y02436*
X02753Y0243*
X02745Y02421*
X02739Y02411*
X02736Y02399*
Y02387*
X02739Y02376*
X02745Y02365*
X02753Y02357*
X02763Y02351*
X02775Y02348*
X02787*
X02799Y02351*
X02809Y02357*
X02817Y02365*
X02823Y02376*
X02826Y02387*
Y02399*
X02823Y02411*
X02817Y02421*
X02809Y0243*
X02799Y02436*
X02787Y02439*
G37*
G36*
Y02339D02*
X02775D01*
X02763Y02336*
X02753Y0233*
X02745Y02321*
X02739Y02311*
X02736Y02299*
Y02287*
X02739Y02276*
X02745Y02265*
X02753Y02257*
X02763Y02251*
X02775Y02248*
X02787*
X02799Y02251*
X02809Y02257*
X02817Y02265*
X02823Y02276*
X02826Y02287*
Y02299*
X02823Y02311*
X02817Y02321*
X02809Y0233*
X02799Y02336*
X02787Y02339*
G37*
G36*
X04225Y02325D02*
X04214D01*
X04202Y02321*
X04192Y02316*
X04183Y02307*
X04178Y02297*
X04175Y02285*
Y02274*
X04178Y02262*
X04183Y02252*
X04192Y02243*
X04202Y02238*
X04214Y02235*
X04225*
X04237Y02238*
X04247Y02243*
X04256Y02252*
X04261Y02262*
X04265Y02274*
Y02285*
X04261Y02297*
X04256Y02307*
X04247Y02316*
X04237Y02321*
X04225Y02325*
G37*
G36*
X02787Y02239D02*
X02775D01*
X02763Y02236*
X02753Y0223*
X02745Y02221*
X02739Y02211*
X02736Y02199*
Y02187*
X02739Y02176*
X02745Y02165*
X02753Y02157*
X02763Y02151*
X02775Y02148*
X02787*
X02799Y02151*
X02809Y02157*
X02817Y02165*
X02823Y02176*
X02826Y02187*
Y02199*
X02823Y02211*
X02817Y02221*
X02809Y0223*
X02799Y02236*
X02787Y02239*
G37*
G36*
X04225Y02225D02*
X04214D01*
X04202Y02221*
X04192Y02216*
X04183Y02207*
X04178Y02197*
X04175Y02185*
Y02174*
X04178Y02162*
X04183Y02152*
X04192Y02143*
X04202Y02138*
X04214Y02135*
X04225*
X04237Y02138*
X04247Y02143*
X04256Y02152*
X04261Y02162*
X04265Y02174*
Y02185*
X04261Y02197*
X04256Y02207*
X04247Y02216*
X04237Y02221*
X04225Y02225*
G37*
G36*
X02787Y02139D02*
X02775D01*
X02763Y02136*
X02753Y0213*
X02745Y02121*
X02739Y02111*
X02736Y02099*
Y02087*
X02739Y02076*
X02745Y02065*
X02753Y02057*
X02763Y02051*
X02775Y02048*
X02787*
X02799Y02051*
X02809Y02057*
X02817Y02065*
X02823Y02076*
X02826Y02087*
Y02099*
X02823Y02111*
X02817Y02121*
X02809Y0213*
X02799Y02136*
X02787Y02139*
G37*
G36*
X04265Y02125D02*
X04175D01*
Y02035*
X04265*
Y02125*
G37*
G36*
X02787Y02039D02*
X02775D01*
X02763Y02036*
X02753Y0203*
X02745Y02021*
X02739Y02011*
X02736Y01999*
Y01987*
X02739Y01976*
X02745Y01965*
X02753Y01957*
X02763Y01951*
X02775Y01948*
X02787*
X02799Y01951*
X02809Y01957*
X02817Y01965*
X02823Y01976*
X02826Y01987*
Y01999*
X02823Y02011*
X02817Y02021*
X02809Y0203*
X02799Y02036*
X02787Y02039*
G37*
G36*
X04225Y02025D02*
X04214D01*
X04202Y02021*
X04192Y02016*
X04183Y02007*
X04178Y01997*
X04175Y01985*
Y01974*
X04178Y01962*
X04183Y01952*
X04192Y01943*
X04202Y01938*
X04214Y01935*
X04225*
X04237Y01938*
X04247Y01943*
X04256Y01952*
X04261Y01962*
X04265Y01974*
Y01985*
X04261Y01997*
X04256Y02007*
X04247Y02016*
X04237Y02021*
X04225Y02025*
G37*
G36*
X02787Y01939D02*
X02775D01*
X02763Y01936*
X02753Y0193*
X02745Y01921*
X02739Y01911*
X02736Y01899*
Y01887*
X02739Y01876*
X02745Y01865*
X02753Y01857*
X02763Y01851*
X02775Y01848*
X02787*
X02799Y01851*
X02809Y01857*
X02817Y01865*
X02823Y01876*
X02826Y01887*
Y01899*
X02823Y01911*
X02817Y01921*
X02809Y0193*
X02799Y01936*
X02787Y01939*
G37*
G36*
Y01839D02*
X02786D01*
Y01798*
X02826*
Y01799*
X02823Y01811*
X02817Y01821*
X02809Y0183*
X02799Y01836*
X02787Y01839*
G37*
G36*
X02776D02*
X02775D01*
X02763Y01836*
X02753Y0183*
X02745Y01821*
X02739Y01811*
X02736Y01799*
Y01798*
X02776*
Y01839*
G37*
G36*
X0407Y01869D02*
X04059D01*
X04049Y01866*
X0404Y01861*
X04033Y01854*
X04028Y01845*
X04025Y01835*
Y01824*
X04028Y01814*
X04033Y01805*
X0404Y01798*
X04049Y01793*
X04059Y0179*
X0407*
X0408Y01793*
X04089Y01798*
X04096Y01805*
X04101Y01814*
X04104Y01824*
Y01835*
X04101Y01845*
X04096Y01854*
X04089Y01861*
X0408Y01866*
X0407Y01869*
G37*
G36*
X02826Y01788D02*
X02786D01*
Y01748*
X02787*
X02799Y01751*
X02809Y01757*
X02817Y01765*
X02823Y01776*
X02826Y01787*
Y01788*
G37*
G36*
X02776D02*
X02736D01*
Y01787*
X02739Y01776*
X02745Y01765*
X02753Y01757*
X02763Y01751*
X02775Y01748*
X02776*
Y01788*
G37*
G36*
X04104Y01769D02*
X04025D01*
Y0169*
X04104*
Y01769*
G37*
%LNeeprom_programmer-3*%
%LPD*%
G36*
X04228Y03229D02*
X04226Y03225D01*
X04225Y03225*
X04214*
X04202Y03221*
X04192Y03216*
X04183Y03207*
X04178Y03197*
X04175Y03185*
Y03174*
X04178Y03162*
X04183Y03152*
X04192Y03143*
X04202Y03138*
X04214Y03135*
X04225*
X04237Y03138*
X04247Y03143*
X0425Y03146*
X04254Y03144*
Y03125*
X04225*
Y0308*
Y03035*
X04254*
Y03015*
X0425Y03013*
X04247Y03016*
X04237Y03021*
X04225Y03025*
X04214*
X04202Y03021*
X04192Y03016*
X04183Y03007*
X04178Y02997*
X04175Y02985*
Y02974*
X04178Y02962*
X04183Y02952*
X04192Y02943*
X04202Y02938*
X04214Y02935*
X04225*
X04237Y02938*
X04247Y02943*
X0425Y02946*
X04254Y02944*
Y02925*
X04175*
Y02895*
X04097*
X04095Y02899*
X04096Y029*
X04101Y02909*
X04104Y02919*
Y0293*
X04101Y0294*
X0412Y02959*
X04124Y02964*
X04125Y0297*
Y03245*
X04124Y0325*
X0412Y03255*
X0409Y03285*
X04088Y03287*
X04088Y03293*
X04089Y03293*
X04096Y033*
X04101Y03309*
X04104Y03319*
Y0332*
X04065*
X04025*
Y03319*
X04028Y03309*
X04033Y033*
X04038Y03295*
X04036Y0329*
X03793*
X03791Y03295*
X03796Y033*
X03801Y03309*
X03804Y03319*
Y0333*
X03801Y0334*
X03796Y03349*
X03796Y03349*
X03798Y03354*
X04031*
X04033Y03349*
X04033Y03349*
X04028Y0334*
X04025Y0333*
Y0333*
X04065*
X04104*
Y0333*
X04101Y0334*
X04096Y03349*
X04096Y03349*
X04098Y03354*
X04103*
X04228Y03229*
G37*
G36*
X03733Y03349D02*
X03733Y03349D01*
X03728Y0334*
X03725Y0333*
Y03319*
X03728Y03309*
X03733Y033*
X03738Y03295*
X03736Y0329*
X03275*
X03275Y0329*
X03274Y0329*
X03271Y03294*
Y03301*
X03269Y03308*
X03314Y03354*
X03731*
X03733Y03349*
G37*
G36*
X04274Y03293D02*
Y03232D01*
X0427Y03231*
X04131Y03369*
X04133Y03374*
X04194*
X04274Y03293*
G37*
G36*
X04038Y03254D02*
X04033Y03249D01*
X04028Y0324*
X04025Y0323*
Y03219*
X04028Y03209*
X04013Y03195*
X03797*
X03795Y03199*
X03796Y032*
X03801Y03209*
X03804Y03219*
Y0323*
X03801Y0324*
X03796Y03249*
X03791Y03254*
X03793Y03259*
X04036*
X04038Y03254*
G37*
G36*
X03738D02*
X03733Y03249D01*
X03728Y0324*
X03725Y0323*
Y03219*
X03728Y03209*
X03733Y032*
X03734Y03199*
X03732Y03195*
X03726*
X0368Y0324*
X03675Y03244*
X0367Y03245*
X03274*
X03272Y0325*
X03282Y03259*
X03736*
X03738Y03254*
G37*
G36*
X03575Y03135D02*
X03665D01*
Y03206*
X03669Y03208*
X03709Y03169*
X03714Y03165*
X0372Y03164*
X03744*
X03746Y03159*
X0374Y03156*
X03733Y03149*
X03728Y0314*
X03725Y0313*
Y03119*
X03728Y03109*
X03733Y031*
X0374Y03093*
X03749Y03088*
X03759Y03085*
X0377*
X0378Y03088*
X03789Y03093*
X03796Y031*
X03801Y03109*
X03804Y03119*
Y0313*
X03801Y0314*
X03796Y03149*
X03789Y03156*
X03783Y03159*
X03785Y03164*
X0402*
X04025Y03165*
X0403Y03169*
X04049Y03188*
X04059Y03185*
X0407*
X0408Y03188*
X04089Y03193*
X0409Y03194*
X04094Y03192*
Y03157*
X0409Y03155*
X04089Y03156*
X0408Y03161*
X0407Y03164*
X04059*
X04049Y03161*
X0404Y03156*
X04033Y03149*
X04028Y0314*
X04025Y0313*
Y03119*
X04028Y03109*
X03938Y0302*
X03934Y03022*
Y03023*
X03931Y03032*
X03927Y0304*
X0392Y03047*
X03912Y03051*
X03903Y03054*
X03894*
X03885Y03051*
X03877Y03047*
X0387Y0304*
X0387Y0304*
X03801*
X03796Y03049*
X03789Y03056*
X0378Y03061*
X0377Y03064*
X03759*
X03749Y03061*
X0374Y03056*
X03733Y03049*
X03728Y0304*
X03725Y0303*
Y03019*
X03728Y03009*
X03663Y02945*
X03655*
X03653Y02949*
X03656Y02952*
X03661Y02962*
X03665Y02974*
Y02985*
X03661Y02997*
X03656Y03007*
X03647Y03016*
X03637Y03021*
X03625Y03025*
X03614*
X03602Y03021*
X03592Y03016*
X03583Y03007*
X03578Y02997*
X03575Y02985*
Y02974*
X03578Y02962*
X03583Y02953*
X03582Y0295*
X03581Y02947*
X0358Y02947*
X03578Y02951*
X03571Y02958*
X03563Y02962*
X03554Y02965*
X03545*
X03536Y02962*
X0353Y02959*
X03525Y02961*
Y03175*
X03524Y03181*
X0352Y03186*
X03508Y03198*
X03503Y03202*
X03497Y03203*
X03175*
X03169Y03202*
X03164Y03198*
X02801Y02835*
X02799Y02836*
X02787Y02839*
X02775*
X02763Y02836*
X02753Y0283*
X0275Y02827*
X02746Y02829*
Y02858*
X0275Y0286*
X02753Y02857*
X02763Y02851*
X02775Y02848*
X02787*
X02799Y02851*
X02809Y02857*
X02817Y02865*
X02823Y02876*
X02826Y02887*
Y02899*
X02823Y02911*
X02822Y02913*
X03123Y03214*
X03575*
Y03135*
G37*
G36*
X04094Y03092D02*
Y03057D01*
X0409Y03055*
X04089Y03056*
X0408Y03061*
X0407Y03064*
X04059*
X04049Y03061*
X0404Y03056*
X04033Y03049*
X04028Y0304*
X04025Y0303*
Y03019*
X04028Y03009*
X03808Y0279*
X03793*
X03791Y02795*
X03796Y028*
X03801Y02809*
X03804Y02819*
Y0283*
X03801Y0284*
X03796Y02849*
X03795Y0285*
X03797Y02854*
X0381*
X03815Y02855*
X0382Y02859*
X04049Y03088*
X04059Y03085*
X0407*
X0408Y03088*
X04089Y03093*
X0409Y03094*
X04094Y03092*
G37*
G36*
X03866Y03005D02*
X0387Y02997D01*
X03877Y0299*
X03885Y02986*
X03894Y02984*
X03895*
X03897Y02979*
X03803Y02885*
X03785*
X03783Y0289*
X03789Y02893*
X03796Y029*
X03801Y02909*
X03804Y02919*
Y0292*
X03765*
Y02925*
X0376*
Y02964*
X03759*
X03749Y02961*
X0374Y02956*
X03733Y02949*
X03728Y0294*
X03715*
X03709Y02939*
X03705Y02936*
X03701Y0294*
X03749Y02988*
X03759Y02985*
X0377*
X0378Y02988*
X03789Y02993*
X03796Y03*
X03801Y03009*
X03865*
X03866Y03005*
G37*
G36*
X03454Y02982D02*
Y02904D01*
X03449Y02904*
X03447Y02911*
X03441Y02921*
X03433Y0293*
X03422Y02936*
X03411Y02939*
X03399*
X03387Y02936*
X03377Y0293*
X03369Y02921*
X03363Y02911*
X0336Y02899*
Y02887*
X03363Y02876*
X03364Y02874*
X03344Y02854*
X03343Y02854*
X03339Y02855*
Y02906*
X03385Y02952*
X03387Y02951*
X03399Y02948*
X03411*
X03422Y02951*
X03433Y02957*
X03441Y02965*
X03447Y02976*
X03449Y02983*
X03454Y02982*
G37*
G36*
X03102Y03236D02*
X02801Y02935D01*
X02799Y02936*
X02787Y02939*
X02775*
X02763Y02936*
X02753Y0293*
X0275Y02927*
X02746Y02929*
Y02958*
X0275Y0296*
X02753Y02957*
X02763Y02951*
X02775Y02948*
X02787*
X02799Y02951*
X02809Y02957*
X02817Y02965*
X02823Y02976*
X02826Y02987*
Y02999*
X02823Y03011*
X02817Y03021*
X02809Y0303*
X02799Y03036*
X02787Y03039*
X02775*
X02763Y03036*
X02753Y0303*
X0275Y03027*
X02746Y03029*
Y03048*
X02826*
Y03139*
X02746*
Y03199*
X02787Y03241*
X031*
X03102Y03236*
G37*
G36*
X03192Y03168D02*
X03017Y02993D01*
X03013Y02988*
X03012Y02982*
Y02946*
X02801Y02735*
X02799Y02736*
X02787Y02739*
X02775*
X02763Y02736*
X02753Y0273*
X0275Y02727*
X02746Y02729*
Y02758*
X0275Y0276*
X02753Y02757*
X02763Y02751*
X02775Y02748*
X02787*
X02799Y02751*
X02809Y02757*
X02817Y02765*
X02823Y02776*
X02826Y02787*
Y02799*
X02823Y02811*
X02822Y02813*
X03182Y03172*
X0319*
X03192Y03168*
G37*
G36*
X03588Y02719D02*
X03588Y02719D01*
X03588Y02712*
X03583Y02707*
X03578Y02697*
X03575Y02685*
Y02674*
X03578Y02662*
X03583Y02652*
X03586Y02649*
X03584Y02645*
X03504*
X03485Y02664*
Y02815*
X03489Y02817*
X03588Y02719*
G37*
G36*
X03377Y02657D02*
X03387Y02651D01*
X03399Y02648*
X03411*
X03422Y02651*
X03425Y02652*
X03558Y02519*
X03563Y02515*
X03569Y02514*
X03584*
X03586Y0251*
X03583Y02507*
X03578Y02497*
X03575Y02485*
Y02474*
X03578Y02462*
X03583Y02452*
X03586Y02449*
X03584Y02445*
X03475*
X03446Y02474*
X03447Y02476*
X0345Y02487*
Y02499*
X03447Y02511*
X03441Y02521*
X03433Y0253*
X03422Y02536*
X03411Y02539*
X03399*
X03387Y02536*
X03377Y0253*
X03374Y02527*
X0337Y02529*
Y02558*
X03374Y0256*
X03377Y02557*
X03387Y02551*
X03399Y02548*
X03411*
X03422Y02551*
X03433Y02557*
X03441Y02565*
X03447Y02576*
X0345Y02587*
Y02599*
X03447Y02611*
X03441Y02621*
X03433Y0263*
X03422Y02636*
X03411Y02639*
X03399*
X03387Y02636*
X03377Y0263*
X03374Y02627*
X0337Y02629*
Y02658*
X03374Y0266*
X03377Y02657*
G37*
G36*
X03586Y0261D02*
X03583Y02607D01*
X03578Y02597*
X03575Y02585*
Y02574*
X03578Y02562*
X03583Y02552*
X03586Y02549*
X03584Y02545*
X03575*
X0351Y0261*
X03512Y02614*
X03584*
X03586Y0261*
G37*
G36*
X03753Y02482D02*
X03758Y02478D01*
X03764Y02477*
X03881*
X03967Y02391*
X03966Y02384*
Y02375*
X03966Y02374*
X03961Y02371*
X03942Y0239*
X03937Y02394*
X03932Y02395*
X03793*
X03791Y024*
X03796Y02405*
X03801Y02414*
X03804Y02424*
Y02435*
X03801Y02445*
X03796Y02454*
X03789Y02461*
X0378Y02466*
X0377Y02469*
X03759*
X03749Y02466*
X0374Y02461*
X03733Y02454*
X03728Y02445*
X03725Y02435*
Y02428*
X0372Y02426*
X03705Y0244*
X037Y02444*
X03695Y02445*
X03655*
X03653Y02449*
X03656Y02452*
X03661Y02462*
X03665Y02474*
Y02485*
X03661Y02497*
X03656Y02507*
X03653Y0251*
X03655Y02514*
X0372*
X03753Y02482*
G37*
G36*
X03377Y02457D02*
X03387Y02451D01*
X03399Y02448*
X03411*
X03422Y02451*
X03425Y02452*
X03458Y02419*
X03463Y02415*
X03469Y02414*
X03584*
X03586Y0241*
X03583Y02407*
X03578Y02397*
X03575Y02385*
Y02374*
X03578Y02362*
X03583Y02352*
X03586Y02349*
X03584Y02345*
X03475*
X03446Y02374*
X03447Y02376*
X0345Y02387*
Y02399*
X03447Y02411*
X03441Y02421*
X03433Y0243*
X03422Y02436*
X03411Y02439*
X03399*
X03387Y02436*
X03377Y0243*
X03374Y02427*
X0337Y02429*
Y02458*
X03374Y0246*
X03377Y02457*
G37*
G36*
X03734Y02369D02*
X03738Y02366D01*
X03739Y02364*
X03739Y0236*
X03733Y02354*
X03728Y02345*
X03725Y02335*
Y02324*
X03728Y02314*
X03733Y02305*
X0374Y02298*
X03746Y02295*
X03744Y0229*
X03721*
X0367Y0234*
X03665Y02344*
X0366Y02345*
X03655*
X03653Y02349*
X03656Y02352*
X03661Y02362*
X03665Y02374*
Y02385*
X03661Y02397*
X03656Y02407*
X03653Y0241*
X03655Y02414*
X03688*
X03734Y02369*
G37*
G36*
X03377Y02357D02*
X03387Y02351D01*
X03399Y02348*
X03411*
X03422Y02351*
X03425Y02352*
X03458Y02319*
X03463Y02315*
X03469Y02314*
X03584*
X03586Y0231*
X03583Y02307*
X03578Y02297*
X03575Y02285*
Y02274*
X03578Y02262*
X03583Y02252*
X03586Y02249*
X03584Y02245*
X03475*
X03446Y02274*
X03447Y02276*
X0345Y02287*
Y02288*
X0341*
Y02248*
X03411*
X03422Y02251*
X03425Y02252*
X03458Y02219*
X03463Y02215*
X03469Y02214*
X03482*
X03483Y02209*
X0348Y02208*
X03473Y02201*
X03469Y02193*
X03467Y02184*
Y02175*
X03469Y02166*
X03473Y02158*
X0348Y02151*
X03483Y0215*
X03482Y02145*
X03441*
X03435Y02144*
X0343Y0214*
X03425Y02135*
X03422Y02136*
X03411Y02139*
X03399*
X03387Y02136*
X03377Y0213*
X03374Y02127*
X0337Y02129*
Y02158*
X03374Y0216*
X03377Y02157*
X03387Y02151*
X03399Y02148*
X03411*
X03422Y02151*
X03433Y02157*
X03441Y02165*
X03447Y02176*
X0345Y02187*
Y02199*
X03447Y02211*
X03441Y02221*
X03433Y0223*
X03422Y02236*
X03411Y02239*
X03399*
X03387Y02236*
X03377Y0223*
X03374Y02227*
X0337Y02229*
Y02258*
X03374Y0226*
X03377Y02257*
X03387Y02251*
X03399Y02248*
X034*
Y02293*
Y02339*
X03399*
X03387Y02336*
X03377Y0233*
X03374Y02327*
X0337Y02329*
Y02358*
X03374Y0236*
X03377Y02357*
G37*
G36*
X03704Y02264D02*
X03709Y0226D01*
X03715Y02259*
X03732*
X03734Y02255*
X03733Y02254*
X03728Y02245*
X03725Y02235*
Y02224*
X03728Y02214*
X03733Y02205*
X0374Y02198*
X03749Y02193*
X03759Y0219*
X0377*
X0378Y02193*
X03789Y02198*
X03796Y02205*
X03801Y02214*
X03804Y02224*
Y02235*
X03801Y02245*
X03796Y02254*
X03795Y02255*
X03797Y02259*
X03833*
X03911Y02181*
Y02098*
X03905Y02095*
X03898Y02088*
X03894Y0208*
X03892Y02071*
Y02062*
X03894Y02053*
X03898Y02045*
X03905Y02038*
X03913Y02034*
X03922Y02032*
X03931*
X0394Y02034*
X0394Y02034*
X03943Y0203*
X03808Y01895*
X03793*
X03791Y019*
X03796Y01905*
X03801Y01914*
X03804Y01924*
Y01935*
X03801Y01945*
X03796Y01954*
X03789Y01961*
X0378Y01966*
X0377Y01969*
X03759*
X03749Y01966*
X0374Y01961*
X03733Y01954*
X03728Y01945*
X03725Y01935*
Y01924*
X03728Y01914*
X03733Y01905*
X03738Y019*
X03736Y01895*
X03721*
X03715Y01894*
X0371Y0189*
X03664Y01845*
X03655*
X03653Y01849*
X03656Y01852*
X03661Y01862*
X03665Y01874*
Y01885*
X03661Y01897*
X0366Y01899*
X03691Y0193*
X03695Y01935*
X03696Y01941*
Y02109*
X03695Y02114*
X03691Y02119*
X0367Y0214*
X03665Y02144*
X0366Y02145*
X03655*
X03653Y02149*
X03656Y02152*
X03661Y02162*
X03665Y02174*
Y02185*
X03661Y02197*
X03656Y02207*
X03653Y0221*
X03655Y02214*
X03673*
X03704Y02183*
Y02075*
X03705Y02069*
X03709Y02064*
X03728Y02045*
X03725Y02035*
Y02035*
X0376*
Y02069*
X03759*
X03749Y02066*
X03735Y02081*
Y02097*
X03739Y02099*
X0374Y02098*
X03749Y02093*
X03759Y0209*
X0377*
X0378Y02093*
X03789Y02098*
X03796Y02105*
X03801Y02114*
X03804Y02124*
Y02135*
X03801Y02145*
X03796Y02154*
X03789Y02161*
X0378Y02166*
X0377Y02169*
X03759*
X03749Y02166*
X0374Y02161*
X03739Y0216*
X03735Y02162*
Y0219*
X03734Y02195*
X0373Y022*
X0369Y0224*
X03685Y02244*
X0368Y02245*
X03655*
X03653Y02249*
X03656Y02252*
X03661Y02262*
X03665Y02274*
Y02285*
X03661Y02297*
X03659Y02302*
X03663Y02305*
X03704Y02264*
G37*
G36*
X03586Y0211D02*
X03583Y02107D01*
X03578Y02097*
X03577Y02095*
X03496*
X0349Y02094*
X03485Y0209*
X03473Y02079*
X03466Y02081*
X03457*
X03453Y0208*
X03449Y02084*
X0345Y02087*
Y02099*
X03448Y02109*
X0345Y02113*
X03451Y02114*
X03584*
X03586Y0211*
G37*
G36*
X03578Y02062D02*
X03583Y02052D01*
X03592Y02043*
X03602Y02038*
X03614Y02035*
X03625*
X03637Y02038*
X03647Y02043*
X03656Y02052*
X0366Y0206*
X03665Y02059*
Y02*
X0366Y01999*
X03656Y02007*
X03647Y02016*
X03637Y02021*
X03625Y02025*
X03614*
X03602Y02021*
X03592Y02016*
X03583Y02007*
X03578Y01997*
X03577Y01995*
X03525*
X03515Y02004*
X0351Y02007*
X03505Y02009*
X03478*
X03476Y02014*
X03483Y02017*
X0349Y02024*
X03494Y02032*
X03497Y02041*
Y0205*
X03495Y02057*
X03502Y02064*
X03577*
X03578Y02062*
G37*
G36*
X03508Y01969D02*
X03512Y01965D01*
X03518Y01964*
X03577*
X03578Y01962*
X03583Y01952*
X03592Y01943*
X03602Y01938*
X03614Y01935*
X03625*
X03637Y01938*
X03647Y01943*
X03656Y01952*
X0366Y0196*
X03665Y01959*
Y01947*
X03639Y0192*
X03637Y01921*
X03625Y01925*
X03614*
X03602Y01921*
X03592Y01916*
X03583Y01907*
X03578Y01897*
X03575Y01885*
Y01874*
X03578Y01862*
X03583Y01852*
X03586Y01849*
X03584Y01845*
X03536*
X0353Y01844*
X03525Y0184*
X03445Y0176*
X03443Y0176*
X03442Y01764*
X03442Y01766*
X03447Y01776*
X0345Y01787*
Y01799*
X03447Y01811*
X03441Y01821*
X03433Y0183*
X03422Y01836*
X03411Y01839*
X03399*
X03387Y01836*
X03377Y0183*
X03374Y01827*
X0337Y01829*
Y01858*
X03374Y0186*
X03377Y01857*
X03387Y01851*
X03399Y01848*
X03411*
X03422Y01851*
X03433Y01857*
X03441Y01865*
X03447Y01876*
X0345Y01887*
Y01899*
X03447Y01911*
X03441Y01921*
X03433Y0193*
X03422Y01936*
X03411Y01939*
X03399*
X03387Y01936*
X03377Y0193*
X03374Y01927*
X0337Y01929*
Y01958*
X03374Y0196*
X03377Y01957*
X03387Y01951*
X03399Y01948*
X03411*
X03422Y01951*
X03433Y01957*
X03441Y01965*
X03447Y01976*
X03448Y01978*
X03498*
X03508Y01969*
G37*
G36*
X03738Y01859D02*
X03733Y01854D01*
X03728Y01845*
X03725Y01835*
Y01824*
X03728Y01814*
X03733Y01805*
X0374Y01798*
X03746Y01795*
X03744Y0179*
X03735*
X03729Y01789*
X03724Y01785*
X03676Y01738*
X03647*
X03646Y01743*
X03647Y01743*
X03656Y01752*
X03661Y01762*
X03665Y01774*
Y01785*
X03661Y01797*
X03656Y01807*
X03653Y0181*
X03655Y01814*
X03671*
X03676Y01815*
X03681Y01819*
X03727Y01864*
X03736*
X03738Y01859*
G37*
G36*
X03586Y0181D02*
X03583Y01807D01*
X03578Y01797*
X03575Y01785*
Y01774*
X03578Y01762*
X03583Y01752*
X03592Y01743*
X03593Y01743*
X03592Y01738*
X03472*
X0347Y01742*
X03542Y01814*
X03584*
X03586Y0181*
G37*
G36*
X04034Y01955D02*
X04033Y01954D01*
X04028Y01945*
X04025Y01935*
Y01924*
X04028Y01914*
X0381Y01697*
X03795*
X03793Y01702*
X03796Y01705*
X03801Y01714*
X03804Y01724*
Y01735*
X03801Y01745*
X03796Y01754*
X03795Y01755*
X03797Y01759*
X0381*
X03815Y0176*
X0382Y01764*
X04016Y01959*
X04032*
X04034Y01955*
G37*
%LNeeprom_programmer-4*%
%LPC*%
G36*
X04215Y03125D02*
X04175D01*
Y03085*
X04215*
Y03125*
G37*
G36*
Y03075D02*
X04175D01*
Y03035*
X04215*
Y03075*
G37*
G36*
X03665Y03125D02*
X03575D01*
Y03035*
X03665*
Y03125*
G37*
G36*
X0377Y02964D02*
X0377D01*
Y0293*
X03804*
Y0293*
X03801Y0294*
X03796Y02949*
X03789Y02956*
X0378Y02961*
X0377Y02964*
G37*
G36*
X03411Y02339D02*
X0341D01*
Y02298*
X0345*
Y02299*
X03447Y02311*
X03441Y02321*
X03433Y0233*
X03422Y02336*
X03411Y02339*
G37*
G36*
X0377Y02069D02*
X0377D01*
Y02035*
X03804*
Y02035*
X03801Y02045*
X03796Y02054*
X03789Y02061*
X0378Y02066*
X0377Y02069*
G37*
G36*
X03804Y02025D02*
X0377D01*
Y0199*
X0377*
X0378Y01993*
X03789Y01998*
X03796Y02005*
X03801Y02014*
X03804Y02024*
Y02025*
G37*
G36*
X0376D02*
X03725D01*
Y02024*
X03728Y02014*
X03733Y02005*
X0374Y01998*
X03749Y01993*
X03759Y0199*
X0376*
Y02025*
G37*
%LNeeprom_programmer-5*%
%LPD*%
G54D13*
X03976Y02536D02*
X04065Y02625D01*
X03759Y02536D02*
X03976D01*
X03665Y0263D02*
X03759Y02536D01*
X03498Y0263D02*
X03665D01*
X0347Y02658D02*
X03498Y0263D01*
X0347Y02658D02*
Y0311D01*
X03435Y03144D02*
X0347Y0311D01*
X03237Y03144D02*
X03435D01*
X03171Y03078D02*
X03237Y03144D01*
X03171Y03062D02*
Y03078D01*
X03893Y03025D02*
X03899Y03019D01*
X03765Y03025D02*
X03893D01*
X0355Y0293D02*
X0367D01*
X03765Y03025*
X03045Y03358D02*
X03077Y03389D01*
X042*
X0429Y033*
Y0266D02*
Y033D01*
X0426Y0263D02*
X0429Y0266D01*
X0417Y0263D02*
X0426D01*
X04169Y02334D02*
X0417Y0263D01*
X04065Y0223D02*
X04169Y02334D01*
X02781Y02893D02*
X03117Y0323D01*
X0367*
X0372Y0318*
X0402*
X04065Y03225*
X02781Y02793D02*
X03175Y03188D01*
X03497*
X0351Y03175*
Y0289D02*
Y03175D01*
Y0289D02*
X0357Y0283D01*
X0367*
X0371Y0287*
X0381*
X04065Y03125*
X03405Y02393D02*
X03469Y0233D01*
X0366*
X03715Y02275*
X0384*
X03927Y02188*
Y02067D02*
Y02188D01*
X03257Y01711D02*
X03286Y01682D01*
X03817*
X04065Y0193*
X03888Y02493D02*
X04001Y0238D01*
X03764Y02493D02*
X03888D01*
X03727Y0253D02*
X03764Y02493D01*
X03569Y0253D02*
X03727D01*
X03405Y02693D02*
X03569Y0253D01*
X03815Y0188D02*
X04065Y0213D01*
X03721Y0188D02*
X03815D01*
X03671Y0183D02*
X03721Y0188D01*
X03536Y0183D02*
X03671D01*
X03449Y01743D02*
X03536Y0183D01*
X0338Y01743D02*
X03449D01*
X03355Y01768D02*
X0338Y01743D01*
X03355Y01768D02*
Y02843D01*
X03405Y02893*
X02731Y02644D02*
X02781Y02593D01*
X02731Y02644D02*
Y03206D01*
X02781Y03256*
X03257*
X03275Y03275*
X0408*
X0411Y03245*
Y0297D02*
Y03245D01*
X04065Y02925D02*
X0411Y0297D01*
X04065Y02825D02*
X04119D01*
X04124Y0283*
X0427*
Y03209*
X0411Y03369D02*
X0427Y03209D01*
X03308Y03369D02*
X0411D01*
X03236Y03297D02*
X03308Y03369D01*
X04159Y01841D02*
X0422Y0178D01*
X04159Y01841D02*
Y0192D01*
X04104Y01975D02*
X04159Y0192D01*
X0401Y01975D02*
X04104D01*
X0381Y01775D02*
X0401Y01975D01*
X03735Y01775D02*
X0381D01*
X03683Y01723D02*
X03735Y01775D01*
X0336Y01723D02*
X03683D01*
X03324Y01759D02*
X0336Y01723D01*
X03324Y01759D02*
Y02912D01*
X03405Y02993*
X02781Y02693D02*
X03028Y0294D01*
Y02982*
X03213Y03168*
X03477*
X0349Y03156*
Y02839D02*
Y03156D01*
Y02839D02*
X03599Y0273D01*
X03675*
X0372Y02775*
X03815*
X04065Y03025*
X03262Y03104D02*
X03395D01*
X03405Y03093*
X03715Y02925D02*
X03765D01*
X0367Y0288D02*
X03715Y02925D01*
X0362Y0288D02*
X0367D01*
X03405Y02093D02*
X03441Y0213D01*
X0366*
X03681Y02109*
Y01941D02*
Y02109D01*
X0362Y0188D02*
X03681Y01941D01*
X03502Y0218D02*
X0362D01*
X03462Y02046D02*
X03496Y0208D01*
X0362*
X0372Y02075D02*
X03765Y0203D01*
X0372Y02075D02*
Y0219D01*
X0368Y0223D02*
X0372Y0219D01*
X03469Y0223D02*
X0368D01*
X03405Y02293D02*
X03469Y0223D01*
X0402Y0288D02*
X0422D01*
X03765Y02625D02*
X0402Y0288D01*
X03982Y0233D02*
X04065D01*
X03932Y0238D02*
X03982Y0233D01*
X03745Y0238D02*
X03932D01*
X03695Y0243D02*
X03745Y0238D01*
X03469Y0243D02*
X03695D01*
X03405Y02493D02*
X03469Y0243D01*
X03518Y0198D02*
X0362D01*
X03505Y01993D02*
X03518Y0198D01*
X03405Y01993D02*
X03505D01*
X03715Y02825D02*
X03765D01*
X0367Y0278D02*
X03715Y02825D01*
X0362Y0278D02*
X0367D01*
G54D21*
X04065Y0173D03*
Y02625D03*
G54D22*
X04065Y0183D03*
Y0193D03*
Y0203D03*
Y0213D03*
Y0223D03*
Y0233D03*
Y0243D03*
X03765Y0173D03*
Y0183D03*
Y0193D03*
Y0203D03*
Y0213D03*
Y0223D03*
Y0233D03*
Y0243D03*
X04065Y02725D03*
Y02825D03*
Y02925D03*
Y03025D03*
Y03125D03*
Y03225D03*
Y03325D03*
X03765Y02625D03*
Y02725D03*
Y02825D03*
Y02925D03*
Y03025D03*
Y03125D03*
Y03225D03*
Y03325D03*
G54D23*
X03405Y03093D03*
Y02993D03*
Y02893D03*
Y02793D03*
Y02693D03*
Y02593D03*
Y02493D03*
Y02393D03*
Y02293D03*
Y02193D03*
Y02093D03*
Y01993D03*
Y01893D03*
Y01793D03*
X02781D03*
Y01893D03*
Y01993D03*
Y02093D03*
Y02193D03*
Y02293D03*
Y02393D03*
Y02593D03*
Y02693D03*
Y02793D03*
Y02893D03*
Y02993D03*
Y02493D03*
G54D24*
X02781Y03093D03*
G54D25*
X0422Y0178D03*
Y0198D03*
Y0218D03*
Y0228D03*
Y0238D03*
Y0268D03*
Y0278D03*
Y0298D03*
Y0318D03*
X0362Y0178D03*
Y0188D03*
Y0198D03*
Y0208D03*
Y0218D03*
Y0228D03*
Y0238D03*
Y0248D03*
Y0258D03*
Y0268D03*
Y0278D03*
Y0298D03*
G54D26*
X0422Y0188D03*
Y0208D03*
Y0248D03*
Y0258D03*
Y0288D03*
Y0308D03*
X0362Y0288D03*
Y0308D03*
Y0318D03*
G54D27*
X03171Y03062D03*
X03899Y03019D03*
X0355Y0293D03*
X03045Y03358D03*
X03927Y02067D03*
X03257Y01711D03*
X04001Y0238D03*
X03236Y03297D03*
X03262Y03104D03*
X03502Y0218D03*
X03462Y02046D03*
M02*