%FSTAX23Y23*%
%MOIN*%
%SFA1B1*%

%IPPOS*%
%ADD13C,0.010000*%
%ADD21R,0.059060X0.059060*%
%ADD22C,0.059060*%
%ADD23C,0.070870*%
%ADD24R,0.070870X0.070870*%
%ADD25C,0.070000*%
%ADD26R,0.070000X0.070000*%
%ADD27C,0.050000*%
%LNeeprom_programmer-1*%
%LPD*%
G36*
X0435Y01645D02*
X02695D01*
Y03425*
X0435*
Y01645*
G37*
%LNeeprom_programmer-2*%
%LPC*%
G36*
X0407Y03264D02*
X04059D01*
X04049Y03261*
X0404Y03256*
X04033Y03249*
X04028Y0324*
X04025Y0323*
Y03219*
X04028Y03209*
X04033Y032*
X0404Y03193*
X04049Y03188*
X04059Y03185*
X0407*
X0408Y03188*
X04089Y03193*
X04096Y032*
X04101Y03209*
X04104Y03219*
Y0323*
X04101Y0324*
X04096Y03249*
X04089Y03256*
X0408Y03261*
X0407Y03264*
G37*
G36*
X04225Y03225D02*
X04214D01*
X04202Y03221*
X04192Y03216*
X04183Y03207*
X04178Y03197*
X04175Y03185*
Y03174*
X04178Y03162*
X04183Y03152*
X04192Y03143*
X04202Y03138*
X04214Y03135*
X04225*
X04237Y03138*
X04247Y03143*
X04256Y03152*
X04261Y03162*
X04265Y03174*
Y03185*
X04261Y03197*
X04256Y03207*
X04247Y03216*
X04237Y03221*
X04225Y03225*
G37*
G36*
X0407Y03164D02*
X04059D01*
X04049Y03161*
X0404Y03156*
X04033Y03149*
X04028Y0314*
X04025Y0313*
Y03119*
X04028Y03109*
X04033Y031*
X0404Y03093*
X04049Y03088*
X04059Y03085*
X0407*
X0408Y03088*
X04089Y03093*
X04096Y031*
X04101Y03109*
X04104Y03119*
Y0313*
X04101Y0314*
X04096Y03149*
X04089Y03156*
X0408Y03161*
X0407Y03164*
G37*
G36*
Y03364D02*
X04059D01*
X04049Y03361*
X0404Y03356*
X04033Y03349*
X04028Y0334*
X04025Y0333*
Y03319*
X04028Y03309*
X04033Y033*
X0404Y03293*
X04049Y03288*
X04059Y03285*
X0407*
X0408Y03288*
X04123Y03244*
Y03161*
X04124Y03155*
X04128Y0315*
X04175Y03103*
Y03035*
X04265*
Y03125*
X04196*
X04154Y03167*
Y03251*
X04153Y03256*
X04149Y03261*
X04101Y03309*
X04104Y03319*
Y0333*
X04101Y0334*
X04096Y03349*
X04089Y03356*
X0408Y03361*
X0407Y03364*
G37*
G36*
Y03064D02*
X04059D01*
X04049Y03061*
X0404Y03056*
X04033Y03049*
X04028Y0304*
X04025Y0303*
Y03019*
X04028Y03009*
X04033Y03*
X0404Y02993*
X04049Y02988*
X04059Y02985*
X0407*
X0408Y02988*
X04089Y02993*
X04096Y03*
X04101Y03009*
X04104Y03019*
Y0303*
X04101Y0304*
X04096Y03049*
X04089Y03056*
X0408Y03061*
X0407Y03064*
G37*
G36*
X04225Y03025D02*
X04214D01*
X04202Y03021*
X04192Y03016*
X04183Y03007*
X04178Y02997*
X04175Y02985*
Y02974*
X04178Y02962*
X04183Y02952*
X04192Y02943*
X04202Y02938*
X04214Y02935*
X04225*
X04237Y02938*
X04247Y02943*
X04256Y02952*
X04261Y02962*
X04265Y02974*
Y02985*
X04261Y02997*
X04256Y03007*
X04247Y03016*
X04237Y03021*
X04225Y03025*
G37*
G36*
X0407Y02964D02*
X04059D01*
X04049Y02961*
X0404Y02956*
X04033Y02949*
X04028Y0294*
X04025Y0293*
Y02919*
X04028Y02909*
X04033Y029*
X0404Y02893*
X04049Y02888*
X04059Y02885*
X0407*
X0408Y02888*
X04089Y02893*
X04096Y029*
X04101Y02909*
X04104Y02919*
Y0293*
X04101Y0294*
X04096Y02949*
X04089Y02956*
X0408Y02961*
X0407Y02964*
G37*
G36*
Y02864D02*
X04059D01*
X04049Y02861*
X0404Y02856*
X04033Y02849*
X04028Y0284*
X04025Y0283*
Y02819*
X04028Y02809*
X04033Y028*
X0404Y02793*
X04049Y02788*
X04059Y02785*
X0407*
X0408Y02788*
X04089Y02793*
X04096Y028*
X04101Y02809*
X04104Y02819*
Y0283*
X04101Y0284*
X04096Y02849*
X04089Y02856*
X0408Y02861*
X0407Y02864*
G37*
G36*
X0392Y03413D02*
X02915D01*
X02909Y03412*
X02904Y03408*
X0272Y03224*
X02716Y03219*
X02715Y03213*
Y02444*
X02716Y02438*
X0272Y02433*
X0274Y02413*
X02739Y02411*
X02736Y02399*
Y02387*
X02739Y02376*
X02745Y02365*
X02753Y02357*
X02763Y02351*
X02775Y02348*
X02787*
X02799Y02351*
X02809Y02357*
X02817Y02365*
X02823Y02376*
X02826Y02387*
Y02399*
X02823Y02411*
X02817Y02421*
X02809Y0243*
X02799Y02436*
X02787Y02439*
X02775*
X02763Y02436*
X02761Y02435*
X02746Y0245*
Y02458*
X0275Y0246*
X02753Y02457*
X02763Y02451*
X02775Y02448*
X02787*
X02799Y02451*
X02809Y02457*
X02817Y02465*
X02823Y02476*
X02826Y02487*
Y02499*
X02823Y02511*
X02822Y02513*
X02831Y02522*
X02836Y0252*
Y0237*
X02801Y02335*
X02799Y02336*
X02787Y02339*
X02775*
X02763Y02336*
X02753Y0233*
X02745Y02321*
X02739Y02311*
X02736Y02299*
Y02287*
X02739Y02276*
X02745Y02265*
X02753Y02257*
X02763Y02251*
X02775Y02248*
X02787*
X02799Y02251*
X02809Y02257*
X02817Y02265*
X02823Y02276*
X02826Y02287*
Y02299*
X02823Y02311*
X02822Y02313*
X02862Y02353*
X02866Y02358*
X02867Y02364*
Y02736*
X03159Y03028*
X03166Y03027*
X03175*
X03184Y03029*
X03192Y03033*
X03199Y0304*
X03203Y03048*
X03206Y03057*
Y03066*
X03203Y03075*
X03199Y03083*
X03192Y0309*
X03184Y03094*
X03175Y03097*
X03166*
X03157Y03094*
X03149Y0309*
X03142Y03083*
X03138Y03075*
X03136Y03066*
Y03057*
X03137Y0305*
X02851Y02764*
X02847Y02766*
Y02857*
X03246Y03257*
X0325Y03262*
X0325Y03265*
X03257Y03268*
X03264Y03275*
X03268Y03283*
X03271Y03292*
Y03301*
X03268Y0331*
X03264Y03318*
X03257Y03325*
X03249Y03329*
X0324Y03332*
X03231*
X03222Y03329*
X03214Y03325*
X03207Y03318*
X03203Y0331*
X03201Y03301*
Y03292*
X03203Y03283*
X03207Y03275*
X03214Y03268*
X03214Y03268*
X02831Y02884*
X02826Y02887*
X02826Y02887*
Y02899*
X02823Y02911*
X02817Y02921*
X02809Y0293*
X02799Y02936*
X02787Y02939*
X02775*
X02763Y02936*
X02753Y0293*
X0275Y02927*
X02746Y02929*
Y02958*
X0275Y0296*
X02753Y02957*
X02763Y02951*
X02775Y02948*
X02787*
X02799Y02951*
X02809Y02957*
X02817Y02965*
X02823Y02976*
X02826Y02987*
Y02999*
X02823Y03011*
X02822Y03013*
X03169Y0336*
X03738*
X03739Y03355*
X03733Y03349*
X03728Y0334*
X03725Y0333*
Y03319*
X03728Y03309*
X03733Y033*
X0374Y03293*
X03749Y03288*
X03759Y03285*
X0377*
X0378Y03288*
X03835Y03232*
Y03201*
X03832Y032*
X0383Y032*
X03825Y03203*
X0382Y03204*
X03806*
X03801Y03209*
X03804Y03219*
Y0323*
X03801Y0324*
X03796Y03249*
X03789Y03256*
X0378Y03261*
X03779Y03262*
X03779Y03263*
X03775Y03268*
X0377Y03272*
X03765Y03273*
X0332*
X03314Y03272*
X03309Y03268*
X03251Y0321*
X03247Y03205*
X03246Y032*
Y03135*
X0324Y03132*
X03233Y03125*
X03229Y03117*
X03227Y03108*
Y03099*
X03229Y0309*
X03233Y03082*
X0324Y03075*
X03248Y03071*
X03257Y03069*
X03266*
X03273Y0307*
X03275Y03066*
X02899Y02689*
X02895Y02684*
X02894Y02679*
Y02328*
X02801Y02235*
X02799Y02236*
X02787Y02239*
X02775*
X02763Y02236*
X02753Y0223*
X02745Y02221*
X02739Y02211*
X02736Y02199*
Y02187*
X02739Y02176*
X02745Y02165*
X02753Y02157*
X02763Y02151*
X02775Y02148*
X02787*
X02799Y02151*
X02809Y02157*
X02817Y02165*
X02823Y02176*
X02826Y02187*
Y02199*
X02823Y02211*
X02822Y02213*
X0292Y02311*
X02924Y02316*
X02925Y02322*
Y02672*
X02946Y02693*
X0295Y02691*
Y02284*
X02801Y02135*
X02799Y02136*
X02787Y02139*
X02775*
X02763Y02136*
X02753Y0213*
X02745Y02121*
X02739Y02111*
X02736Y02099*
Y02087*
X02739Y02076*
X02745Y02065*
X02753Y02057*
X02763Y02051*
X02775Y02048*
X02787*
X02799Y02051*
X02809Y02057*
X02817Y02065*
X02823Y02076*
X02826Y02087*
Y02099*
X02823Y02111*
X02822Y02113*
X02976Y02267*
X0298Y02272*
X02981Y02278*
Y02695*
X03335Y03049*
X03339Y03047*
Y03028*
X03193Y02881*
X03189Y02876*
X03188Y0287*
Y02422*
X02801Y02035*
X02799Y02036*
X02787Y02039*
X02775*
X02763Y02036*
X02753Y0203*
X02745Y02021*
X02739Y02011*
X02736Y01999*
Y01987*
X02739Y01976*
X02745Y01965*
X02753Y01957*
X02763Y01951*
X02775Y01948*
X02787*
X02799Y01951*
X02809Y01957*
X02817Y01965*
X02823Y01976*
X02826Y01987*
Y01999*
X02823Y02011*
X02822Y02013*
X03214Y02405*
X03218Y0241*
X03219Y02416*
Y02864*
X03355Y03*
X0336Y02998*
Y02987*
X03363Y02976*
X03369Y02965*
X03377Y02957*
X03387Y02951*
X03399Y02948*
X03411*
X03422Y02951*
X03433Y02957*
X03435Y0296*
X0344Y02958*
Y02929*
X03435Y02927*
X03433Y0293*
X03422Y02936*
X03411Y02939*
X03399*
X03387Y02936*
X03377Y0293*
X03369Y02921*
X03363Y02911*
X0336Y02899*
Y02887*
X03363Y02876*
X03369Y02865*
X03377Y02857*
X03387Y02851*
X03399Y02848*
X03411*
X03422Y02851*
X03433Y02857*
X03435Y0286*
X0344Y02858*
Y02829*
X03435Y02827*
X03433Y0283*
X03422Y02836*
X03411Y02839*
X03399*
X03387Y02836*
X03377Y0283*
X03369Y02821*
X03363Y02811*
X0336Y02799*
Y02787*
X03363Y02776*
X03369Y02765*
X03377Y02757*
X03387Y02751*
X03399Y02748*
X03411*
X03422Y02751*
X03425Y02752*
X03514Y02662*
Y0238*
X03515Y02374*
X03519Y02369*
X03569Y02319*
X03574Y02315*
X0358Y02314*
X03584*
X03586Y0231*
X03583Y02307*
X03578Y02297*
X03575Y02285*
Y02274*
X03578Y02262*
X03583Y02252*
X03592Y02243*
X03602Y02238*
X03614Y02235*
X03625*
X03637Y02238*
X03639Y02239*
X03654Y02223*
Y02215*
X0365Y02213*
X03647Y02216*
X03637Y02221*
X03625Y02225*
X03614*
X03602Y02221*
X03592Y02216*
X03583Y02207*
X03578Y02197*
X03575Y02185*
Y02174*
X03578Y02162*
X03583Y02152*
X03592Y02143*
X03602Y02138*
X03614Y02135*
X03625*
X03637Y02138*
X03647Y02143*
X0365Y02146*
X03654Y02144*
Y02115*
X0365Y02113*
X03647Y02116*
X03637Y02121*
X03625Y02125*
X03614*
X03602Y02121*
X03592Y02116*
X03583Y02107*
X03578Y02097*
X03575Y02085*
Y02074*
X03578Y02062*
X03583Y02052*
X03592Y02043*
X03602Y02038*
X03614Y02035*
X03625*
X03637Y02038*
X03647Y02043*
X0365Y02046*
X03654Y02044*
Y02015*
X0365Y02013*
X03647Y02016*
X03637Y02021*
X03625Y02025*
X03614*
X03602Y02021*
X03592Y02016*
X03583Y02007*
X03578Y01997*
X03575Y01985*
Y01974*
X03578Y01962*
X03583Y01952*
X03592Y01943*
X03602Y01938*
X03614Y01935*
X03625*
X03637Y01938*
X03647Y01943*
X0365Y01946*
X03654Y01944*
Y01915*
X0365Y01913*
X03647Y01916*
X03637Y01921*
X03625Y01925*
X03614*
X03602Y01921*
X03592Y01916*
X03583Y01907*
X03578Y01897*
X03575Y01885*
Y01874*
X03578Y01862*
X03583Y01852*
X03592Y01843*
X03602Y01838*
X03614Y01835*
X03625*
X03637Y01838*
X03647Y01843*
X0365Y01846*
X03654Y01844*
Y01815*
X0365Y01813*
X03647Y01816*
X03637Y01821*
X03625Y01825*
X03614*
X03602Y01821*
X03592Y01816*
X03583Y01807*
X03578Y01797*
X03575Y01785*
Y01774*
X03578Y01762*
X03579Y0176*
X03546Y01728*
X03406*
X03388Y01746*
X03391Y0175*
X03399Y01748*
X03411*
X03422Y01751*
X03433Y01757*
X03441Y01765*
X03447Y01776*
X0345Y01787*
Y01799*
X03447Y01811*
X03446Y01813*
X03512Y01879*
X03516Y01884*
X03517Y0189*
Y02148*
X03523Y02151*
X0353Y02158*
X03534Y02166*
X03537Y02175*
Y02184*
X03534Y02193*
X0353Y02201*
X03523Y02208*
X03515Y02212*
X03506Y02215*
X03497*
X03488Y02212*
X0348Y02208*
X03473Y02201*
X03469Y02193*
X03467Y02184*
Y02175*
X03469Y02166*
X03473Y02158*
X0348Y02151*
X03486Y02148*
Y02077*
X03481Y02075*
X03475Y02078*
X03466Y02081*
X03457*
X03453Y0208*
X03449Y02084*
X0345Y02087*
Y02099*
X03447Y02111*
X03441Y02121*
X03433Y0213*
X03422Y02136*
X03411Y02139*
X03399*
X03387Y02136*
X03377Y0213*
X03374Y02127*
X0337Y02129*
Y02137*
X03385Y02152*
X03387Y02151*
X03399Y02148*
X03411*
X03422Y02151*
X03433Y02157*
X03441Y02165*
X03447Y02176*
X0345Y02187*
Y02199*
X03447Y02211*
X03441Y02221*
X03433Y0223*
X03422Y02236*
X03411Y02239*
X03399*
X03387Y02236*
X03377Y0223*
X03369Y02221*
X03363Y02211*
X0336Y02199*
Y02187*
X03363Y02176*
X03364Y02174*
X03344Y02154*
X0334Y02149*
X03339Y02143*
Y01758*
X0334Y01752*
X03344Y01747*
X03389Y01702*
X03394Y01698*
X034Y01697*
X03553*
X03558Y01698*
X03563Y01702*
X036Y01739*
X03602Y01738*
X03614Y01735*
X03625*
X03631Y01736*
X03634Y01732*
X03588Y01686*
X03288*
X03286Y01691*
X03289Y01697*
X03292Y01706*
Y01715*
X03289Y01724*
X03285Y01732*
X03278Y01739*
X03272Y01742*
Y02439*
X03385Y02552*
X03387Y02551*
X03399Y02548*
X03411*
X03422Y02551*
X03433Y02557*
X03441Y02565*
X03447Y02576*
X0345Y02587*
Y02599*
X03447Y02611*
X03441Y02621*
X03433Y0263*
X03422Y02636*
X03411Y02639*
X03399*
X03387Y02636*
X03377Y0263*
X03369Y02621*
X03363Y02611*
X0336Y02599*
Y02587*
X03363Y02576*
X03364Y02574*
X03246Y02456*
X03242Y02451*
X03241Y02445*
Y01742*
X03235Y01739*
X03228Y01732*
X03224Y01724*
X03222Y01715*
Y01706*
X03224Y01697*
X03227Y01691*
X03225Y01686*
X0301*
X02822Y01874*
X02823Y01876*
X02826Y01887*
Y01899*
X02823Y01911*
X02817Y01921*
X02809Y0193*
X02799Y01936*
X02787Y01939*
X02775*
X02763Y01936*
X02753Y0193*
X02745Y01921*
X02739Y01911*
X02736Y01899*
Y01887*
X02739Y01876*
X02745Y01865*
X02753Y01857*
X02763Y01851*
X02775Y01848*
X02787*
X02799Y01851*
X02801Y01852*
X02993Y0166*
X02998Y01656*
X03004Y01655*
X03595*
X036Y01656*
X03605Y0166*
X0367Y01724*
X03674Y01722*
Y01712*
X03675Y01706*
X03679Y01701*
X03709Y01671*
X03714Y01667*
X0372Y01666*
X0378*
X03785Y01667*
X0379Y01671*
X0382Y01701*
X03824Y01706*
X03825Y01712*
Y01785*
X03824Y0179*
X0382Y01795*
X03801Y01814*
X03804Y01824*
Y01832*
X03809Y01834*
X03989Y01654*
X03994Y01651*
X04Y0165*
X0412*
X04125Y01651*
X0413Y01654*
X0418Y01704*
X04184Y01709*
X04185Y01715*
Y01744*
X04189Y01746*
X04192Y01743*
X04202Y01738*
X04214Y01735*
X04225*
X04237Y01738*
X04247Y01743*
X04256Y01752*
X04261Y01762*
X04265Y01774*
Y01785*
X04261Y01797*
X04256Y01807*
X04247Y01816*
X04237Y01821*
X04225Y01825*
X04214*
X04202Y01821*
X04192Y01816*
X04189Y01813*
X04185Y01815*
Y01835*
X04265*
Y01925*
X04185*
Y01944*
X04189Y01946*
X04192Y01943*
X04202Y01938*
X04214Y01935*
X04225*
X04237Y01938*
X04247Y01943*
X04256Y01952*
X04261Y01962*
X04265Y01974*
Y01985*
X04261Y01997*
X04256Y02007*
X04247Y02016*
X04237Y02021*
X04225Y02025*
X04214*
X04202Y02021*
X04192Y02016*
X04189Y02013*
X04185Y02015*
Y02035*
X04265*
Y02125*
X04185*
Y02144*
X04189Y02146*
X04192Y02143*
X04202Y02138*
X04214Y02135*
X04225*
X04237Y02138*
X04247Y02143*
X04256Y02152*
X04261Y02162*
X04265Y02174*
Y02185*
X04261Y02197*
X04256Y02207*
X04247Y02216*
X04237Y02221*
X04225Y02225*
X04214*
X04202Y02221*
X04192Y02216*
X04189Y02213*
X04185Y02215*
Y02244*
X04189Y02246*
X04192Y02243*
X04202Y02238*
X04214Y02235*
X04225*
X04237Y02238*
X04247Y02243*
X04256Y02252*
X04261Y02262*
X04265Y02274*
Y02285*
X04261Y02297*
X04256Y02307*
X04247Y02316*
X04237Y02321*
X04225Y02325*
X04214*
X04202Y02321*
X04192Y02316*
X04189Y02313*
X04185Y02315*
Y02344*
X04189Y02346*
X04192Y02343*
X04202Y02338*
X04214Y02335*
X04225*
X04237Y02338*
X04247Y02343*
X04256Y02352*
X04261Y02362*
X04265Y02374*
Y02385*
X04261Y02397*
X04256Y02407*
X04247Y02416*
X04237Y02421*
X04225Y02425*
X04214*
X04202Y02421*
X04192Y02416*
X04189Y02413*
X04185Y02415*
Y02435*
X04265*
Y02525*
X04185*
Y02535*
X04265*
Y02625*
X04185*
Y02644*
X04189Y02646*
X04192Y02643*
X04202Y02638*
X04214Y02635*
X04225*
X04237Y02638*
X04247Y02643*
X04256Y02652*
X04261Y02662*
X04265Y02674*
Y02685*
X04261Y02697*
X04256Y02707*
X04247Y02716*
X04237Y02721*
X04225Y02725*
X04214*
X04202Y02721*
X04192Y02716*
X04189Y02713*
X04185Y02715*
Y02744*
X04189Y02746*
X04192Y02743*
X04202Y02738*
X04214Y02735*
X04225*
X04237Y02738*
X04247Y02743*
X04256Y02752*
X04261Y02762*
X04265Y02774*
Y02785*
X04261Y02797*
X04256Y02807*
X04247Y02816*
X04237Y02821*
X04225Y02825*
X04214*
X04202Y02821*
X04192Y02816*
X04189Y02813*
X04185Y02815*
Y02823*
X04196Y02835*
X04265*
Y02925*
X04175*
Y02856*
X04159Y0284*
X04155Y02835*
X04154Y0283*
Y01721*
X04129Y01696*
X04124Y01698*
X04125Y01784*
Y01784*
Y01785*
X04124Y01787*
X04124Y0179*
X04124Y0179*
X04124Y0179*
X04122Y01793*
X0412Y01795*
X0412Y01795*
X0412Y01795*
X04101Y01814*
X04104Y01824*
Y01835*
X04101Y01845*
X04096Y01854*
X04089Y01861*
X0408Y01866*
X0407Y01869*
X04059*
X04049Y01866*
X0404Y01861*
X04033Y01854*
X04028Y01845*
X04025Y01835*
Y01824*
X04028Y01814*
X04033Y01805*
X0404Y01798*
X04049Y01793*
X04059Y0179*
X0407*
X0408Y01793*
X04094Y01778*
X04094Y01769*
X04047*
X04016Y018*
Y02348*
X04022Y02351*
X04029Y02358*
X04033Y02366*
X04036Y02375*
Y02384*
X04033Y02393*
X04029Y02401*
X04022Y02408*
X04019Y02409*
X0402Y02414*
X04028*
X04033Y02405*
X0404Y02398*
X04049Y02393*
X04059Y0239*
X0407*
X0408Y02393*
X04089Y02398*
X0409Y02399*
X04094Y02397*
Y02362*
X0409Y0236*
X04089Y02361*
X0408Y02366*
X0407Y02369*
X04059*
X04049Y02366*
X0404Y02361*
X04033Y02354*
X04028Y02345*
X04025Y02335*
Y02324*
X04028Y02314*
X04033Y02305*
X0404Y02298*
X04049Y02293*
X04059Y0229*
X0407*
X0408Y02293*
X04089Y02298*
X0409Y02299*
X04094Y02297*
Y02262*
X0409Y0226*
X04089Y02261*
X0408Y02266*
X0407Y02269*
X04059*
X04049Y02266*
X0404Y02261*
X04033Y02254*
X04028Y02245*
X04025Y02235*
Y02224*
X04028Y02214*
X04033Y02205*
X0404Y02198*
X04049Y02193*
X04059Y0219*
X0407*
X0408Y02193*
X04089Y02198*
X0409Y02199*
X04094Y02197*
Y02162*
X0409Y0216*
X04089Y02161*
X0408Y02166*
X0407Y02169*
X04059*
X04049Y02166*
X0404Y02161*
X04033Y02154*
X04028Y02145*
X04025Y02135*
Y02124*
X04028Y02114*
X04033Y02105*
X0404Y02098*
X04049Y02093*
X04059Y0209*
X0407*
X0408Y02093*
X04089Y02098*
X0409Y02099*
X04094Y02097*
Y02081*
X0408Y02066*
X0407Y02069*
X04059*
X04049Y02066*
X0404Y02061*
X04033Y02054*
X04028Y02045*
X04025Y02035*
Y02024*
X04028Y02014*
X04033Y02005*
X0404Y01998*
X04049Y01993*
X04059Y0199*
X0407*
X0408Y01993*
X04089Y01998*
X04096Y02005*
X04101Y02014*
X04104Y02024*
Y02035*
X04101Y02045*
X0412Y02064*
X04124Y02069*
X04125Y02075*
Y0248*
X04124Y02485*
X0412Y0249*
X0403Y0258*
X04032Y02585*
X04104*
Y02664*
X04025*
Y02592*
X0402Y0259*
X03954Y02657*
Y03278*
X03953Y03283*
X03949Y03288*
X0386Y03378*
X03862Y03382*
X03913*
X03979Y03316*
Y02795*
X0398Y02789*
X03984Y02784*
X04028Y0274*
X04025Y0273*
Y02719*
X04028Y02709*
X04033Y027*
X0404Y02693*
X04049Y02688*
X04059Y02685*
X0407*
X0408Y02688*
X04089Y02693*
X04096Y027*
X04101Y02709*
X04104Y02719*
Y0273*
X04101Y0274*
X04096Y02749*
X04089Y02756*
X0408Y02761*
X0407Y02764*
X04059*
X04049Y02761*
X0401Y02801*
Y03323*
X04009Y03328*
X04005Y03333*
X0393Y03408*
X03925Y03412*
X0392Y03413*
G37*
G36*
X03411Y02739D02*
X03399D01*
X03387Y02736*
X03377Y0273*
X03369Y02721*
X03363Y02711*
X0336Y02699*
Y02687*
X03363Y02676*
X03369Y02665*
X03377Y02657*
X03387Y02651*
X03399Y02648*
X03411*
X03422Y02651*
X03433Y02657*
X03441Y02665*
X03447Y02676*
X0345Y02687*
Y02699*
X03447Y02711*
X03441Y02721*
X03433Y0273*
X03422Y02736*
X03411Y02739*
G37*
G36*
Y02539D02*
X03399D01*
X03387Y02536*
X03377Y0253*
X03369Y02521*
X03363Y02511*
X0336Y02499*
Y02487*
X03363Y02476*
X03369Y02465*
X03377Y02457*
X03387Y02451*
X03399Y02448*
X03411*
X03422Y02451*
X03433Y02457*
X03441Y02465*
X03447Y02476*
X0345Y02487*
Y02499*
X03447Y02511*
X03441Y02521*
X03433Y0253*
X03422Y02536*
X03411Y02539*
G37*
G36*
Y02439D02*
X03399D01*
X03387Y02436*
X03377Y0243*
X03369Y02421*
X03363Y02411*
X0336Y02399*
Y02387*
X03363Y02376*
X03369Y02365*
X03377Y02357*
X03387Y02351*
X03399Y02348*
X03411*
X03422Y02351*
X03433Y02357*
X03441Y02365*
X03447Y02376*
X0345Y02387*
Y02399*
X03447Y02411*
X03441Y02421*
X03433Y0243*
X03422Y02436*
X03411Y02439*
G37*
G36*
Y02339D02*
X03399D01*
X03387Y02336*
X03377Y0233*
X03369Y02321*
X03363Y02311*
X0336Y02299*
Y02287*
X03363Y02276*
X03369Y02265*
X03377Y02257*
X03387Y02251*
X03399Y02248*
X03411*
X03422Y02251*
X03433Y02257*
X03441Y02265*
X03447Y02276*
X0345Y02287*
Y02299*
X03447Y02311*
X03441Y02321*
X03433Y0233*
X03422Y02336*
X03411Y02339*
G37*
G36*
X0407Y01969D02*
X04059D01*
X04049Y01966*
X0404Y01961*
X04033Y01954*
X04028Y01945*
X04025Y01935*
Y01924*
X04028Y01914*
X04033Y01905*
X0404Y01898*
X04049Y01893*
X04059Y0189*
X0407*
X0408Y01893*
X04089Y01898*
X04096Y01905*
X04101Y01914*
X04104Y01924*
Y01935*
X04101Y01945*
X04096Y01954*
X04089Y01961*
X0408Y01966*
X0407Y01969*
G37*
G36*
X02787Y01839D02*
X02775D01*
X02763Y01836*
X02753Y0183*
X02745Y01821*
X02739Y01811*
X02736Y01799*
Y01787*
X02739Y01776*
X02745Y01765*
X02753Y01757*
X02763Y01751*
X02775Y01748*
X02787*
X02799Y01751*
X02809Y01757*
X02817Y01765*
X02823Y01776*
X02826Y01787*
Y01799*
X02823Y01811*
X02817Y01821*
X02809Y0183*
X02799Y01836*
X02787Y01839*
G37*
%LNeeprom_programmer-3*%
%LPD*%
G36*
X03144Y03378D02*
X02831Y03065D01*
X02826Y03067*
Y03117*
X03034Y03324*
X03041Y03323*
X0305*
X03059Y03325*
X03067Y03329*
X03073Y03336*
X03078Y03344*
X0308Y03353*
Y03362*
X03078Y03371*
X03074Y03377*
X03077Y03382*
X03142*
X03144Y03378*
G37*
G36*
X03016Y03377D02*
X03013Y03371D01*
X0301Y03362*
Y03353*
X03012Y03346*
X02805Y03139*
X02746*
Y03207*
X02921Y03382*
X03014*
X03016Y03377*
G37*
G36*
X03741Y03161D02*
X0374Y03156D01*
X0374Y03156*
X03733Y03149*
X03728Y0314*
X03725Y0313*
Y03119*
X03728Y03109*
X03709Y0309*
X03705Y03085*
X03704Y0308*
Y03033*
X03704Y03033*
X03699Y03031*
X0369Y0304*
X03685Y03044*
X0368Y03045*
X03665*
Y03125*
X03575*
Y03112*
X0357Y0311*
X03505Y03175*
X035Y03178*
X03495Y03179*
X03359*
X03353Y03178*
X03348Y03175*
X03324Y0315*
X03323Y03149*
X03318Y0315*
Y03171*
X03361Y03214*
X03575*
Y03135*
X03665*
Y03214*
X03688*
X03741Y03161*
G37*
G36*
X03923Y03271D02*
Y0305D01*
X03918Y03048*
X03912Y03051*
X03903Y03054*
X03894*
X03885Y03051*
X03877Y03047*
X03871Y0304*
X03869Y0304*
X03866Y03042*
Y03239*
X03865Y03244*
X03861Y03249*
X03801Y03309*
X03804Y03319*
Y0333*
X03801Y0334*
X03796Y03349*
X0379Y03355*
X03791Y0336*
X03834*
X03923Y03271*
G37*
G36*
X03554Y03082D02*
Y0303D01*
X03555Y03024*
X03559Y03019*
X03564Y03015*
X0357Y03014*
X03584*
X03586Y0301*
X03583Y03007*
X03578Y02997*
X03575Y02985*
Y02974*
X03578Y02962*
X03583Y02952*
X03592Y02943*
X03602Y02938*
X03614Y02935*
X03625*
X03637Y02938*
X03647Y02943*
X03656Y02952*
X03661Y02962*
X03665Y02974*
Y02985*
X03661Y02997*
X03656Y03007*
X03653Y0301*
X03655Y03014*
X03673*
X03674Y03013*
Y02743*
X03669Y02741*
X03665Y02744*
X0366Y02745*
X03655*
X03653Y02749*
X03656Y02752*
X03661Y02762*
X03665Y02774*
Y02785*
X03661Y02797*
X03656Y02807*
X03647Y02816*
X03637Y02821*
X03625Y02825*
X03614*
X03602Y02821*
X03592Y02816*
X03583Y02807*
X03578Y02797*
X03575Y02785*
Y02774*
X03578Y02762*
X0358Y02757*
X03576Y02754*
X03565Y02766*
Y02898*
X0357Y02901*
X03575Y02898*
Y02835*
X03665*
Y02925*
X03585*
X03585Y02925*
Y02934*
X03582Y02943*
X03578Y02951*
X03571Y02958*
X03563Y02962*
X03554Y02965*
X03545*
X03536Y02962*
X03528Y02958*
X03521Y02951*
X03517Y02943*
X03515Y02934*
Y02925*
X03517Y02916*
X03521Y02908*
X03528Y02901*
X03534Y02898*
Y0276*
X03535Y02754*
X03538Y0275*
X03534Y02746*
X03471Y0281*
Y0312*
X0347Y03125*
X03466Y0313*
X03453Y03144*
X03455Y03148*
X03488*
X03554Y03082*
G37*
G36*
X03923Y02987D02*
Y02651D01*
X03924Y02645*
X03928Y0264*
X04094Y02473*
Y02462*
X0409Y0246*
X04089Y02461*
X0408Y02466*
X0407Y02469*
X04059*
X04049Y02466*
X0404Y02461*
X04033Y02454*
X04028Y02445*
X0399*
X03984Y02444*
X03979Y0244*
X03949Y0241*
X03946Y02405*
X03945Y024*
Y02231*
X0378Y02066*
X0377Y02069*
X03759*
X03749Y02066*
X0374Y02061*
X0374Y02061*
X03735Y02063*
Y02096*
X0374Y02098*
X0374Y02098*
X03749Y02093*
X03759Y0209*
X0377*
X0378Y02093*
X03789Y02098*
X03796Y02105*
X03801Y02114*
X03802Y02115*
X03803Y02115*
X03808Y02119*
X03909Y0222*
X03913Y02225*
X03914Y02231*
Y02987*
X03918Y02989*
X03923Y02987*
G37*
G36*
X0374Y02593D02*
X03749Y02588D01*
X03759Y02585*
X0377*
X0378Y02588*
X03794Y02573*
Y02462*
X0379Y0246*
X03789Y02461*
X0378Y02466*
X0377Y02469*
X03759*
X03749Y02466*
X0374Y02461*
X03739Y0246*
X03735Y02462*
Y02592*
X03739Y02594*
X0374Y02593*
G37*
G36*
X03704Y02536D02*
X03704Y02536D01*
Y02414*
X037Y02412*
X03671Y0244*
X03666Y02444*
X03661Y02445*
X03655*
X03653Y02449*
X03656Y02452*
X03661Y02462*
X03665Y02474*
Y02485*
X03661Y02497*
X0366Y02499*
X03699Y02538*
X03704Y02536*
G37*
G36*
X03704Y02364D02*
Y02313D01*
X03704Y02313*
X03699Y02311*
X0367Y0234*
X03665Y02344*
X0366Y02345*
X03655*
X03653Y02349*
X03656Y02352*
X03661Y02362*
X03665Y02374*
Y02385*
X03661Y02397*
X03657Y02404*
X03661Y02407*
X03704Y02364*
G37*
G36*
X03835Y02667D02*
Y02247D01*
X03808Y0222*
X03804Y02223*
X03804Y02224*
Y02235*
X03801Y02245*
X03796Y02254*
X03789Y02261*
X0378Y02266*
X0377Y02269*
X03759*
X03749Y02266*
X03735Y02281*
Y02297*
X03739Y02299*
X0374Y02298*
X03749Y02293*
X03759Y0229*
X0377*
X0378Y02293*
X03789Y02298*
X03796Y02305*
X03801Y02314*
X03804Y02324*
Y02335*
X03801Y02345*
X0382Y02364*
X03824Y02369*
X03825Y02375*
Y0258*
X03824Y02585*
X0382Y0259*
X03801Y02609*
X03804Y02619*
Y0263*
X03801Y0264*
X03831Y02669*
X03835Y02667*
G37*
G36*
X03877Y0299D02*
X03883Y02987D01*
Y02237*
X03801Y02154*
X03795Y02155*
X03789Y02161*
X03783Y02164*
X03785Y02169*
X03794*
X038Y0217*
X03805Y02174*
X03861Y0223*
X03865Y02235*
X03866Y02241*
Y02995*
X03869Y02997*
X03871Y02997*
X03877Y0299*
G37*
G36*
X03985Y02348D02*
Y02034D01*
X03983Y02033*
X0398Y02033*
X03977Y02037*
X0396Y02055*
X03962Y02062*
Y02071*
X03959Y0208*
X03955Y02088*
X03948Y02095*
X0394Y02099*
X03931Y02102*
X03922*
X03913Y02099*
X03905Y02095*
X03898Y02088*
X03894Y0208*
X03892Y02071*
Y02062*
X03894Y02053*
X03898Y02045*
X03905Y02038*
X03913Y02034*
X03922Y02032*
X03931*
X03938Y02033*
X03951Y0202*
Y01742*
X03946Y0174*
X03801Y01885*
X03796Y01889*
X0379Y0189*
X03785*
X03783Y01895*
X03789Y01898*
X03796Y01905*
X03801Y01914*
X03804Y01924*
Y01935*
X03801Y01945*
X03796Y01954*
X03789Y01961*
X0378Y01966*
X0377Y01969*
X03759*
X03749Y01966*
X03735Y0198*
Y01996*
X0374Y01998*
X0374Y01998*
X03749Y01993*
X03759Y0199*
X0377*
X0378Y01993*
X03789Y01998*
X03796Y02005*
X03801Y02014*
X03804Y02024*
Y02035*
X03801Y02045*
X03971Y02214*
X03974Y02219*
X03975Y02225*
Y02349*
X0398Y02351*
X03985Y02348*
G37*
G36*
X03486Y02014D02*
Y01896D01*
X03425Y01835*
X03422Y01836*
X03411Y01839*
X03399*
X03387Y01836*
X03377Y0183*
X03374Y01827*
X0337Y01829*
Y01858*
X03374Y0186*
X03377Y01857*
X03387Y01851*
X03399Y01848*
X03411*
X03422Y01851*
X03433Y01857*
X03441Y01865*
X03447Y01876*
X0345Y01887*
Y01899*
X03447Y01911*
X03446Y01913*
X03472Y01939*
X03476Y01944*
X03477Y0195*
Y02014*
X03481Y02016*
X03486Y02014*
G37*
G54D13*
X0332Y03258D02*
X03765D01*
X0372Y02371D02*
Y0308D01*
Y02275D02*
Y02371D01*
Y01775D02*
X03765Y0173D01*
X0372Y01775D02*
Y01855D01*
X0374Y01875*
X0379*
X04Y01665*
X0412*
X0417Y01715*
Y0283*
X0422Y0288*
X03765Y0233D02*
X0381Y02375D01*
Y0258*
X03765Y02625D02*
X0381Y0258D01*
X02781Y02093D02*
X02966Y02278D01*
Y02702*
X03335Y03071*
Y0314*
X03359Y03164*
X03495*
X0357Y03089*
Y0303D02*
Y03089D01*
Y0303D02*
X0368D01*
X0369Y0302*
Y0255D02*
Y0302D01*
X0362Y0248D02*
X0369Y0255D01*
X02781Y01893D02*
X03004Y01671D01*
X03595*
X0367Y01746*
Y0223*
X0362Y0228D02*
X0367Y0223D01*
X0399Y0243D02*
X04065D01*
X0396Y024D02*
X0399Y0243D01*
X0396Y02225D02*
Y024D01*
X03765Y0203D02*
X0396Y02225D01*
X02851Y02742D02*
X03171Y03062D01*
X02851Y02364D02*
Y02742D01*
X02781Y02293D02*
X02851Y02364D01*
X03765Y03325D02*
X03851Y03239D01*
Y02241D02*
Y03239D01*
X03794Y02185D02*
X03851Y02241D01*
X03745Y02185D02*
X03794D01*
X0372Y0216D02*
X03745Y02185D01*
X0372Y01974D02*
Y0216D01*
Y01974D02*
X03765Y0193D01*
Y0183D02*
X0381Y01785D01*
Y01712D02*
Y01785D01*
X0378Y01682D02*
X0381Y01712D01*
X0372Y01682D02*
X0378D01*
X0369Y01712D02*
X0372Y01682D01*
X0369Y01712D02*
Y023D01*
X0366Y0233D02*
X0369Y023D01*
X0358Y0233D02*
X0366D01*
X0353Y0238D02*
X0358Y0233D01*
X0353Y0238D02*
Y02669D01*
X03405Y02793D02*
X0353Y02669D01*
X03765Y0213D02*
X03798D01*
X03899Y02231*
Y03019*
X0362Y0258D02*
X0367Y0263D01*
Y0272*
X0366Y0273D02*
X0367Y0272D01*
X0358Y0273D02*
X0366D01*
X0355Y0276D02*
X0358Y0273D01*
X0355Y0276D02*
Y0293D01*
X0372Y0308D02*
X03765Y03125D01*
X0372Y02275D02*
X03765Y0223D01*
X02781Y03093D02*
X03045Y03358D01*
X04065Y0203D02*
X0411Y02075D01*
Y0248*
X03939Y02651D02*
X0411Y0248D01*
X03939Y02651D02*
Y03278D01*
X03841Y03376D02*
X03939Y03278D01*
X03163Y03376D02*
X03841D01*
X02781Y02993D02*
X03163Y03376D01*
X03927Y02067D02*
X03967Y02027D01*
Y01738D02*
Y02027D01*
Y01738D02*
X0402Y01685D01*
X04109*
X0411Y01785*
X04065Y0183D02*
X0411Y01785D01*
X03257Y02445D02*
X03405Y02593D01*
X03257Y01711D02*
Y02445D01*
X04001Y01794D02*
X04065Y0173D01*
X04001Y01794D02*
Y0238D01*
X03236Y03268D02*
Y03297D01*
X02831Y02864D02*
X03236Y03268D01*
X02831Y02544D02*
Y02864D01*
X02781Y02493D02*
X02831Y02544D01*
X02731Y02444D02*
X02781Y02393D01*
X02731Y02444D02*
Y03213D01*
X02915Y03398*
X0392*
X03995Y03323*
Y02795D02*
Y03323D01*
Y02795D02*
X04065Y02725D01*
X03553Y01713D02*
X0362Y0178D01*
X034Y01713D02*
X03553D01*
X03355Y01758D02*
X034Y01713D01*
X03355Y01758D02*
Y02143D01*
X03405Y02193*
X03765Y02725D02*
X0381Y0277D01*
Y03159*
X038Y03169D02*
X0381Y03159D01*
X03755Y03169D02*
X038D01*
X03695Y0323D02*
X03755Y03169D01*
X03355Y0323D02*
X03695D01*
X03302Y03177D02*
X03355Y0323D01*
X03302Y03071D02*
Y03177D01*
X0291Y02679D02*
X03302Y03071D01*
X0291Y02322D02*
Y02679D01*
X02781Y02193D02*
X0291Y02322D01*
X03765Y03225D02*
Y03258D01*
X03262Y032D02*
X0332Y03258D01*
X03262Y03104D02*
Y032D01*
X0357Y0263D02*
X0362Y0268D01*
X0357Y0244D02*
Y0263D01*
Y0244D02*
X0358Y0243D01*
X03661*
X0372Y02371*
X0359Y0241D02*
X0362Y0238D01*
X0356Y0241D02*
X0359D01*
X0355Y0242D02*
X0356Y0241D01*
X0355Y0242D02*
Y0271D01*
X03455Y02804D02*
X0355Y0271D01*
X03455Y02804D02*
Y0312D01*
X03431Y03144D02*
X03455Y0312D01*
X03384Y03144D02*
X03431D01*
X03355Y03114D02*
X03384Y03144D01*
X03355Y03021D02*
Y03114D01*
X03204Y0287D02*
X03355Y03021D01*
X03204Y02416D02*
Y0287D01*
X02781Y01993D02*
X03204Y02416D01*
X03765Y02625D02*
X0383Y0269D01*
Y03179*
X0382Y03189D02*
X0383Y03179D01*
X038Y03189D02*
X0382D01*
X03765Y03225D02*
X038Y03189D01*
X03502Y0189D02*
Y0218D01*
X03405Y01793D02*
X03502Y0189D01*
X03405Y01893D02*
X03462Y0195D01*
Y02046*
X04139Y03161D02*
X0422Y0308D01*
X04139Y03161D02*
Y03251D01*
X04065Y03325D02*
X04139Y03251D01*
G54D21*
X04065Y0173D03*
Y02625D03*
G54D22*
X04065Y0183D03*
Y0193D03*
Y0203D03*
Y0213D03*
Y0223D03*
Y0233D03*
Y0243D03*
X03765Y0173D03*
Y0183D03*
Y0193D03*
Y0203D03*
Y0213D03*
Y0223D03*
Y0233D03*
Y0243D03*
X04065Y02725D03*
Y02825D03*
Y02925D03*
Y03025D03*
Y03125D03*
Y03225D03*
Y03325D03*
X03765Y02625D03*
Y02725D03*
Y02825D03*
Y02925D03*
Y03025D03*
Y03125D03*
Y03225D03*
Y03325D03*
G54D23*
X03405Y03093D03*
Y02993D03*
Y02893D03*
Y02793D03*
Y02693D03*
Y02593D03*
Y02493D03*
Y02393D03*
Y02293D03*
Y02193D03*
Y02093D03*
Y01993D03*
Y01893D03*
Y01793D03*
X02781D03*
Y01893D03*
Y01993D03*
Y02093D03*
Y02193D03*
Y02293D03*
Y02393D03*
Y02593D03*
Y02693D03*
Y02793D03*
Y02893D03*
Y02993D03*
Y02493D03*
G54D24*
X02781Y03093D03*
G54D25*
X0422Y0178D03*
Y0198D03*
Y0218D03*
Y0228D03*
Y0238D03*
Y0268D03*
Y0278D03*
Y0298D03*
Y0318D03*
X0362Y0178D03*
Y0188D03*
Y0198D03*
Y0208D03*
Y0218D03*
Y0228D03*
Y0238D03*
Y0248D03*
Y0258D03*
Y0268D03*
Y0278D03*
Y0298D03*
G54D26*
X0422Y0188D03*
Y0208D03*
Y0248D03*
Y0258D03*
Y0288D03*
Y0308D03*
X0362Y0288D03*
Y0308D03*
Y0318D03*
G54D27*
X03171Y03062D03*
X03899Y03019D03*
X0355Y0293D03*
X03045Y03358D03*
X03927Y02067D03*
X03257Y01711D03*
X04001Y0238D03*
X03236Y03297D03*
X03262Y03104D03*
X03502Y0218D03*
X03462Y02046D03*
M02*