%FSTAX23Y23*%
%MOIN*%
%SFA1B1*%

%IPPOS*%
%ADD10C,0.009840*%
%ADD11C,0.010000*%
%ADD12C,0.003940*%
%LNeeprom_programmer-1*%
%LPD*%
G54D10*
X02759Y03155D02*
D01*
D01*
G75*
G03X0275I-00004J0D01*
G74*G01*
D01*
G75*
G03X02759I00004J0D01*
G74*G01*
G54D11*
X03015Y03172D02*
D01*
D01*
G75*
G03X03173I00078J0D01*
G74*G01*
X02902Y03117D02*
D01*
D01*
G75*
G03X02852I-00025J0D01*
G74*G01*
D01*
G75*
G03X02902I00025J0D01*
G74*G01*
X0283Y01715D02*
Y03172D01*
Y01715D02*
X03356D01*
Y03172*
X03173D02*
X03356D01*
X0283D02*
X03015D01*
X03765Y01555D02*
Y0192D01*
Y01555D02*
X04072D01*
Y0192*
X03765D02*
X04072D01*
X03565Y01608D02*
Y0338D01*
Y01608D02*
X04273D01*
Y0338*
X03565D02*
X04273D01*
X03768Y01607D02*
X04068D01*
X03985Y01995D02*
X03945D01*
X03925Y02014*
X03945Y02034*
X03985*
X03955*
Y01995*
X03985Y02054D02*
X03925D01*
Y02084*
X03935Y02094*
X03955*
X03965Y02084*
Y02054*
Y02074D02*
X03985Y02094D01*
X03925Y02114D02*
X03985D01*
Y02144*
X03975Y02154*
X03935*
X03925Y02144*
Y02114*
Y02174D02*
X03975D01*
X03985Y02184*
Y02204*
X03975Y02214*
X03925*
Y02234D02*
Y02254D01*
Y02244*
X03985*
Y02234*
Y02254*
Y02284D02*
X03925D01*
X03985Y02324*
X03925*
Y02374D02*
Y02354D01*
X03935Y02344*
X03975*
X03985Y02354*
Y02374*
X03975Y02384*
X03935*
X03925Y02374*
X03985Y02464D02*
X03925D01*
X03985Y02504*
X03925*
X03985Y02524D02*
X03945D01*
X03925Y02544*
X03945Y02564*
X03985*
X03955*
Y02524*
X03985Y02584D02*
X03925D01*
X03985Y02624*
X03925*
Y02674D02*
Y02654D01*
X03935Y02644*
X03975*
X03985Y02654*
Y02674*
X03975Y02684*
X03935*
X03925Y02674*
X03045Y02129D02*
Y02109D01*
Y02119*
X03095*
X03105Y02109*
Y021*
X03095Y0209*
X03045Y02149D02*
X03105D01*
Y02189*
X03055Y02249D02*
X03045Y02239D01*
Y02219*
X03055Y02209*
X03095*
X03105Y02219*
Y02239*
X03095Y02249*
X03045Y02309D02*
Y02289D01*
Y02299*
X03095*
X03105Y02289*
Y02279*
X03095Y02269*
X03045Y02329D02*
X03105D01*
Y02369*
X03055Y02429D02*
X03045Y02419D01*
Y02399*
X03055Y02389*
X03095*
X03105Y02399*
Y02419*
X03095Y02429*
X03045Y02489D02*
Y02469D01*
Y02479*
X03095*
X03105Y02469*
Y02459*
X03095Y02449*
X03045Y02509D02*
X03105D01*
Y02549*
X03055Y02609D02*
X03045Y02599D01*
Y02579*
X03055Y02569*
X03095*
X03105Y02579*
Y02599*
X03095Y02609*
X03045Y02669D02*
Y02649D01*
Y02659*
X03095*
X03105Y02649*
Y02639*
X03095Y02629*
X03045Y02689D02*
X03105D01*
Y02729*
X03055Y02789D02*
X03045Y02779D01*
Y02759*
X03055Y02749*
X03095*
X03105Y02759*
Y02779*
X03095Y02789*
X02765Y03314D02*
Y03265D01*
X02775Y03255*
X02795*
X02805Y03265*
Y03314*
X02824Y03255D02*
X02844D01*
X02834*
Y03314*
X02824Y03304*
X0339Y03315D02*
Y03374D01*
X0341Y03355*
X0343Y03374*
Y03315*
X0345Y03374D02*
Y03315D01*
X03479*
X03489Y03325*
Y03364*
X03479Y03374*
X0345*
X03509Y03315D02*
X03529D01*
X03519*
Y03374*
X03509Y03364*
G54D12*
X0412Y0216D02*
Y02176D01*
X04127Y02183*
X04135Y02176*
Y0216*
Y02172*
X0412*
X04143Y0216D02*
X04151D01*
X04147*
Y02183*
X04143Y02179*
X04115Y02509D02*
X04111Y02513D01*
X04103*
X041Y02509*
Y02506*
X04103Y02502*
X04111*
X04115Y02498*
Y02494*
X04111Y0249*
X04103*
X041Y02494*
X04123Y02513D02*
Y0249D01*
X04135*
X04139Y02494*
Y02509*
X04135Y02513*
X04123*
X04147Y0249D02*
Y02506D01*
X04155Y02513*
X04162Y02506*
Y0249*
Y02502*
X04147*
X04115Y02609D02*
X04111Y02613D01*
X04103*
X041Y02609*
Y02606*
X04103Y02602*
X04111*
X04115Y02598*
Y02594*
X04111Y0259*
X04103*
X041Y02594*
X04139Y02609D02*
X04135Y02613D01*
X04127*
X04123Y02609*
Y02594*
X04127Y0259*
X04135*
X04139Y02594*
X04147Y02613D02*
Y0259D01*
X04162*
X04103Y01792D02*
Y01768D01*
X04115*
X04119Y01772*
Y01788*
X04115Y01792*
X04103*
X04127Y01768D02*
X04135D01*
X04131*
Y01792*
X04127Y01788*
X04147D02*
X04151Y01792D01*
X04159*
X04162Y01788*
Y01784*
X04159Y0178*
X04155*
X04159*
X04162Y01776*
Y01772*
X04159Y01768*
X04151*
X04147Y01772*
X04098Y01883D02*
X04102Y01887D01*
X0411*
X04114Y01883*
Y01879*
X0411Y01875*
X04106*
X0411*
X04114Y01871*
Y01867*
X0411Y01863*
X04102*
X04098Y01867*
X04122Y01887D02*
Y01871D01*
X0413Y01863*
X04138Y01871*
Y01887*
X04146Y01883D02*
X0415Y01887D01*
X04157*
X04161Y01883*
Y01879*
X04157Y01875*
X04154*
X04157*
X04161Y01871*
Y01867*
X04157Y01863*
X0415*
X04146Y01867*
X04098Y01968D02*
Y01992D01*
X0411*
X04114Y01988*
Y0198*
X0411Y01976*
X04098*
X04106D02*
X04114Y01968D01*
X04138Y01992D02*
X04122D01*
Y01968*
X04138*
X04122Y0198D02*
X0413D01*
X04161Y01992D02*
X04146D01*
Y0198*
X04154*
X04146*
Y01968*
X0412Y0207D02*
Y02086D01*
X04127Y02093*
X04135Y02086*
Y0207*
Y02082*
X0412*
X04143Y02089D02*
X04147Y02093D01*
X04155*
X04159Y02089*
Y02074*
X04155Y0207*
X04147*
X04143Y02074*
Y02089*
X0412Y0226D02*
Y02276D01*
X04127Y02283*
X04135Y02276*
Y0226*
Y02272*
X0412*
X04159Y0226D02*
X04143D01*
X04159Y02276*
Y02279*
X04155Y02283*
X04147*
X04143Y02279*
X0412Y0236D02*
Y02376D01*
X04127Y02383*
X04135Y02376*
Y0236*
Y02372*
X0412*
X04143Y02379D02*
X04147Y02383D01*
X04155*
X04159Y02379*
Y02376*
X04155Y02372*
X04151*
X04155*
X04159Y02368*
Y02364*
X04155Y0236*
X04147*
X04143Y02364*
X04118Y02448D02*
Y02464D01*
X04126Y02472*
X04134Y02464*
Y02448*
Y0246*
X04118*
X04154Y02448D02*
Y02472D01*
X04142Y0246*
X04158*
X04118Y02548D02*
Y02564D01*
X04126Y02572*
X04134Y02564*
Y02548*
Y0256*
X04118*
X04158Y02572D02*
X04142D01*
Y0256*
X0415Y02564*
X04154*
X04158Y0256*
Y02552*
X04154Y02548*
X04146*
X04142Y02552*
X0412Y0267D02*
Y02686D01*
X04127Y02693*
X04135Y02686*
Y0267*
Y02682*
X0412*
X04159Y02693D02*
X04151Y02689D01*
X04143Y02682*
Y02674*
X04147Y0267*
X04155*
X04159Y02674*
Y02678*
X04155Y02682*
X04143*
X0412Y0276D02*
Y02776D01*
X04127Y02783*
X04135Y02776*
Y0276*
Y02772*
X0412*
X04143Y02783D02*
X04159D01*
Y02779*
X04143Y02764*
Y0276*
X04129Y02892D02*
X04113D01*
Y0288*
X04121Y02884*
X04125*
X04129Y0288*
Y02872*
X04125Y02868*
X04117*
X04113Y02872*
X04137Y02892D02*
Y02876D01*
X04145Y02868*
X04153Y02876*
Y02892*
X04088Y02968D02*
Y02992D01*
X041*
X04104Y02988*
Y0298*
X041Y02976*
X04088*
X04096D02*
X04104Y02968D01*
X04128Y02988D02*
X04124Y02992D01*
X04116*
X04112Y02988*
Y02984*
X04116Y0298*
X04124*
X04128Y02976*
Y02972*
X04124Y02968*
X04116*
X04112Y02972*
X04136Y02992D02*
X04151D01*
X04144*
Y02968*
X04104Y03083D02*
X041Y03087D01*
X04092*
X04088Y03083*
Y03067*
X04092Y03063*
X041*
X04104Y03067*
Y03075*
X04096*
X04112Y03063D02*
Y03087D01*
X04128Y03063*
Y03087*
X04136D02*
Y03063D01*
X04147*
X04151Y03067*
Y03083*
X04147Y03087*
X04136*
X04087Y03192D02*
X04088Y03176D01*
X04096Y03169*
X04104Y03177*
X04103Y03193*
X04112Y03169D02*
X0412Y0317D01*
X04116Y0317*
X04115Y03185*
X04111Y03185*
X04132Y0317D02*
X04131Y03186D01*
X04143Y03186*
X04147Y03182*
X04147Y03171*
X0368Y01791D02*
Y01768D01*
X03691*
X03695Y01772*
Y01787*
X03691Y01791*
X0368*
X03703Y01768D02*
X03711D01*
X03707*
Y01791*
X03703Y01787*
X03739Y01768D02*
X03723D01*
X03739Y01783*
Y01787*
X03735Y01791*
X03727*
X03723Y01787*
X0368Y01891D02*
Y01868D01*
X03691*
X03695Y01872*
Y01887*
X03691Y01891*
X0368*
X03703Y01868D02*
X03711D01*
X03707*
Y01891*
X03703Y01887*
X03723Y01868D02*
X03731D01*
X03727*
Y01891*
X03723Y01887*
X0368Y01991D02*
Y01968D01*
X03691*
X03695Y01972*
Y01987*
X03691Y01991*
X0368*
X03703Y01968D02*
X03711D01*
X03707*
Y01991*
X03703Y01987*
X03723D02*
X03727Y01991D01*
X03735*
X03739Y01987*
Y01972*
X03735Y01968*
X03727*
X03723Y01972*
Y01987*
X0368Y02091D02*
Y02068D01*
X03691*
X03695Y02072*
Y02087*
X03691Y02091*
X0368*
X03703Y02072D02*
X03707Y02068D01*
X03715*
X03719Y02072*
Y02087*
X03715Y02091*
X03707*
X03703Y02087*
Y02083*
X03707Y0208*
X03719*
X0368Y02191D02*
Y02168D01*
X03691*
X03695Y02172*
Y02187*
X03691Y02191*
X0368*
X03703Y02187D02*
X03707Y02191D01*
X03715*
X03719Y02187*
Y02183*
X03715Y0218*
X03719Y02176*
Y02172*
X03715Y02168*
X03707*
X03703Y02172*
Y02176*
X03707Y0218*
X03703Y02183*
Y02187*
X03707Y0218D02*
X03715D01*
X0368Y02281D02*
Y02258D01*
X03691*
X03695Y02262*
Y02277*
X03691Y02281*
X0368*
X03703D02*
X03719D01*
Y02277*
X03703Y02262*
Y02258*
X0368Y02381D02*
Y02358D01*
X03691*
X03695Y02362*
Y02377*
X03691Y02381*
X0368*
X03719D02*
X03711Y02377D01*
X03703Y0237*
Y02362*
X03707Y02358*
X03715*
X03719Y02362*
Y02366*
X03715Y0237*
X03703*
X0368Y02491D02*
Y02468D01*
X03691*
X03695Y02472*
Y02487*
X03691Y02491*
X0368*
X03719D02*
X03703D01*
Y0248*
X03711Y02483*
X03715*
X03719Y0248*
Y02472*
X03715Y02468*
X03707*
X03703Y02472*
X0368Y02591D02*
Y02568D01*
X03691*
X03695Y02572*
Y02587*
X03691Y02591*
X0368*
X03715Y02568D02*
Y02591D01*
X03703Y0258*
X03719*
X0368Y02691D02*
Y02668D01*
X03691*
X03695Y02672*
Y02687*
X03691Y02691*
X0368*
X03703Y02687D02*
X03707Y02691D01*
X03715*
X03719Y02687*
Y02683*
X03715Y0268*
X03711*
X03715*
X03719Y02676*
Y02672*
X03715Y02668*
X03707*
X03703Y02672*
X0368Y02781D02*
Y02758D01*
X03691*
X03695Y02762*
Y02777*
X03691Y02781*
X0368*
X03719Y02758D02*
X03703D01*
X03719Y02773*
Y02777*
X03715Y02781*
X03707*
X03703Y02777*
X03694Y02883D02*
X0369Y02887D01*
X03682*
X03678Y02883*
Y02867*
X03682Y02863*
X0369*
X03694Y02867*
Y02875*
X03686*
X03702Y02863D02*
Y02887D01*
X03718Y02863*
Y02887*
X03726D02*
Y02863D01*
X03737*
X03741Y02867*
Y02883*
X03737Y02887*
X03726*
X03678Y02968D02*
Y02992D01*
X0369*
X03694Y02988*
Y0298*
X0369Y02976*
X03678*
X03686D02*
X03694Y02968D01*
X03718Y02988D02*
X03714Y02992D01*
X03706*
X03702Y02988*
Y02984*
X03706Y0298*
X03714*
X03718Y02976*
Y02972*
X03714Y02968*
X03706*
X03702Y02972*
X03726Y02992D02*
X03741D01*
X03734*
Y02968*
X03678Y03192D02*
X03694D01*
X03686*
Y03168*
X03702Y03192D02*
X03718Y03168D01*
Y03192D02*
X03702Y03168D01*
X03678Y03068D02*
Y03092D01*
X0369*
X03694Y03088*
Y0308*
X0369Y03076*
X03678*
X03686D02*
X03694Y03068D01*
X03702Y03092D02*
X03718Y03068D01*
Y03092D02*
X03702Y03068D01*
M02*