%FSTAX23Y23*%
%MOIN*%
%SFA1B1*%

%IPPOS*%
%ADD9500C,0.027560*%
%ADD9501C,0.028000*%
%ADD9502C,0.029530*%
%ADD9503C,0.035430*%
%ADD9504C,0.043310*%
%ADD9505C,0.047000*%
%ADD9506C,0.118110*%
%ADD9507C,0.126000*%
%LN6502_vga-1*%
%LPD*%
G54D9500*
X09035Y01515D03*
X09335D03*
Y01815D03*
X09035D03*
G54D9501*
X07944Y01609D03*
X08094Y0182D03*
X08293Y01713D03*
X08046Y02306D03*
X07938Y02375D03*
X08721Y02351D03*
X08842Y02341D03*
X08907Y02327D03*
X08893Y0218D03*
X08946Y0208D03*
X09054Y02813D03*
X09287Y02673D03*
X08576Y02917D03*
X08066Y03123D03*
X07695Y01629D03*
X07373Y01637D03*
X06994Y01675D03*
X07015Y02049D03*
X06713Y02283D03*
X06568Y02171D03*
X06247Y01938D03*
X0624Y0176D03*
X06145Y0175D03*
X05793Y03625D03*
X06575Y0388D03*
X08005Y03875D03*
X08451Y03265D03*
X0852Y03138D03*
X09361Y03316D03*
G54D9502*
X08203Y0198D03*
Y0208D03*
Y0218D03*
Y0228D03*
Y0238D03*
Y0248D03*
Y0258D03*
Y0268D03*
Y0278D03*
Y0288D03*
X08516D03*
Y0278D03*
Y0268D03*
Y0258D03*
Y0248D03*
Y0238D03*
Y0228D03*
Y0218D03*
Y0208D03*
Y0198D03*
X08997Y02745D03*
Y02845D03*
Y02945D03*
Y03045D03*
X0931D03*
Y02945D03*
Y02845D03*
Y02745D03*
X07901Y0306D03*
X07588D03*
Y0316D03*
Y0326D03*
Y0336D03*
Y0346D03*
Y0356D03*
Y0366D03*
Y0376D03*
Y0386D03*
Y0396D03*
X07901D03*
Y0386D03*
Y0376D03*
Y0366D03*
Y0356D03*
Y0346D03*
Y0336D03*
Y0326D03*
Y0316D03*
X08997Y03145D03*
Y03245D03*
Y03345D03*
Y03445D03*
Y03545D03*
Y03645D03*
X0931D03*
Y03545D03*
Y03445D03*
Y03345D03*
Y03245D03*
Y03145D03*
G54D9503*
X0553Y0153D03*
X0563D03*
X0573D03*
X0583D03*
X0593D03*
X0603D03*
X0613D03*
X0623D03*
X06455D03*
X06555D03*
X06655D03*
X06755D03*
X06855D03*
X06955D03*
X07055D03*
X0733D03*
X0743D03*
X0753D03*
X0763D03*
X0773D03*
X0783D03*
X0793D03*
X0818D03*
X0828D03*
X0838D03*
X0848D03*
X0858D03*
X0868D03*
X0878D03*
Y0183D03*
X0868D03*
X0858D03*
X0848D03*
X0838D03*
X0828D03*
X0818D03*
X0811Y02D03*
Y021D03*
Y022D03*
Y023D03*
Y024D03*
Y025D03*
Y026D03*
X0793Y0183D03*
X0783D03*
X0773D03*
X0763D03*
X0753D03*
X0743D03*
X0733D03*
X07365Y01935D03*
X07265D03*
X07165D03*
X07065D03*
X06965D03*
X06955Y0183D03*
X06855D03*
X06755D03*
X06655D03*
X06555D03*
X06455D03*
X06475Y02025D03*
Y02125D03*
Y02225D03*
Y02325D03*
Y02425D03*
Y02525D03*
Y02625D03*
X063Y02675D03*
Y02575D03*
Y02475D03*
Y02375D03*
Y02275D03*
Y02175D03*
Y02075D03*
Y01975D03*
X06775Y02025D03*
Y02125D03*
Y02225D03*
Y02325D03*
Y02425D03*
Y02525D03*
Y02625D03*
X06965Y02675D03*
X07065D03*
X07165D03*
X07265D03*
X07365D03*
X07465D03*
X07565D03*
Y02375D03*
X07465D03*
X07365D03*
X07265D03*
X07165D03*
X07065D03*
X06965D03*
Y02235D03*
X07065D03*
X07165D03*
X07265D03*
X07365D03*
X07465D03*
X07565D03*
X0781Y022D03*
Y021D03*
Y02D03*
Y023D03*
Y024D03*
Y025D03*
Y026D03*
X07565Y01935D03*
X07465D03*
X07055Y0183D03*
X0707Y02918D03*
X0697D03*
X0687D03*
X0677D03*
X0667D03*
X0657D03*
X0628Y02958D03*
Y02858D03*
Y03058D03*
X0717Y02918D03*
X0598Y02958D03*
Y02858D03*
X05835D03*
Y02958D03*
Y03058D03*
X0598D03*
X06Y02675D03*
Y02575D03*
Y02475D03*
Y02375D03*
Y02275D03*
Y02175D03*
Y02075D03*
Y01975D03*
X0603Y0183D03*
X0613D03*
X0623D03*
X0593D03*
X0583D03*
X0573D03*
X0563D03*
X0553D03*
X05525Y01975D03*
Y02075D03*
Y02175D03*
Y02275D03*
Y02375D03*
Y02475D03*
Y02575D03*
Y02675D03*
X05535Y02858D03*
Y02958D03*
Y03058D03*
X05825Y02675D03*
Y02575D03*
Y02475D03*
Y02375D03*
Y02275D03*
Y02175D03*
Y02075D03*
Y01975D03*
X05835Y03158D03*
Y03258D03*
Y03358D03*
Y03458D03*
Y03558D03*
X0598D03*
Y03458D03*
Y03358D03*
Y03258D03*
Y03158D03*
X05535D03*
Y03258D03*
Y03358D03*
Y03458D03*
Y03558D03*
Y03783D03*
Y03883D03*
Y03983D03*
Y04083D03*
Y04183D03*
Y04283D03*
Y04383D03*
Y04483D03*
X05835D03*
Y04383D03*
Y04283D03*
Y04183D03*
Y04083D03*
Y03983D03*
Y03883D03*
Y03783D03*
X0598Y03833D03*
Y03933D03*
Y04033D03*
Y04133D03*
Y04233D03*
Y04333D03*
Y04433D03*
X0628D03*
Y04333D03*
Y04233D03*
Y04133D03*
Y04033D03*
Y03933D03*
Y03833D03*
Y03558D03*
Y03458D03*
Y03358D03*
Y03258D03*
Y03158D03*
X0657Y03218D03*
X0667D03*
X0677D03*
X0687D03*
X0697D03*
X0707D03*
X0717D03*
Y0335D03*
X0707D03*
X0697D03*
X0687D03*
X0677D03*
X0667D03*
X0657D03*
Y0365D03*
X0667D03*
X0677D03*
X0687D03*
X0697D03*
X0707D03*
X0717D03*
Y03781D03*
X0707D03*
X0697D03*
X0687D03*
X0677D03*
X0667D03*
X0657D03*
Y04081D03*
X0667D03*
X0677D03*
X0687D03*
X0697D03*
X0707D03*
X0717D03*
Y04213D03*
X0707D03*
X0697D03*
X0687D03*
X0677D03*
X0667D03*
X0657D03*
Y04513D03*
X0667D03*
X0677D03*
X0687D03*
X0697D03*
X0707D03*
X0717D03*
X07415Y04505D03*
X07515D03*
X07615D03*
X07715D03*
Y04205D03*
X07615D03*
X07515D03*
X07415D03*
X07815D03*
X07915D03*
X08015D03*
Y04505D03*
X07915D03*
X07815D03*
X0905Y0452D03*
Y0442D03*
Y0432D03*
Y0422D03*
Y0412D03*
Y0402D03*
Y0392D03*
X0935D03*
Y0402D03*
Y0412D03*
Y0422D03*
Y0432D03*
Y0442D03*
Y0452D03*
X09495Y04525D03*
Y04425D03*
Y04325D03*
Y04225D03*
Y04125D03*
Y04025D03*
Y03925D03*
X09795D03*
Y04025D03*
Y04125D03*
Y04225D03*
Y04325D03*
Y04425D03*
Y04525D03*
G54D9504*
X0866Y02415D03*
X0876D03*
Y02515D03*
Y02615D03*
Y02715D03*
X0866D03*
Y02615D03*
Y02515D03*
Y02815D03*
X0876D03*
Y02915D03*
Y03015D03*
X0866D03*
Y02915D03*
Y03115D03*
X0876D03*
Y03215D03*
X0866D03*
Y03315D03*
Y03415D03*
Y03515D03*
X0876D03*
Y03415D03*
Y03315D03*
Y03615D03*
Y03715D03*
X0866D03*
Y03615D03*
Y03815D03*
Y03915D03*
X0876D03*
Y03815D03*
Y04015D03*
Y04115D03*
X0866D03*
Y04215D03*
Y04315D03*
X0876D03*
Y04215D03*
X0866Y04015D03*
G54D9505*
X09565Y02224D03*
Y02315D03*
Y02405D03*
Y02495D03*
Y02585D03*
X09665Y02618D03*
Y02528D03*
Y02438D03*
Y02348D03*
Y02258D03*
X09765Y02224D03*
Y02315D03*
Y02405D03*
Y02495D03*
Y02585D03*
G54D9506*
X0554Y01395D03*
X08695Y01394D03*
X09995Y01395D03*
X0554Y04645D03*
X08695Y04644D03*
X09995Y04645D03*
G54D9507*
X09665Y01921D03*
Y02905D03*
M02*