%FSTAX23Y23*%
%MOIN*%
%SFA1B1*%

%IPPOS*%
%ADD28C,0.049210*%
%ADD29R,0.049210X0.049210*%
%ADD34O,0.062000X0.090000*%
%ADD35R,0.062000X0.090000*%
%ADD36C,0.157480*%
%ADD37C,0.059060*%
%ADD38R,0.059060X0.059060*%
%ADD39R,0.059060X0.059060*%
%ADD40C,0.062700*%
%ADD41C,0.141700*%
%ADD42C,0.064960*%
%ADD43R,0.064960X0.064960*%
%LN6502_vga-1*%
%LPD*%
G54D28*
X0931Y03645D03*
Y03545D03*
Y03445D03*
Y03345D03*
Y03245D03*
Y03145D03*
Y03045D03*
Y02945D03*
Y02845D03*
Y02745D03*
X08997D03*
Y02845D03*
Y02945D03*
Y03045D03*
Y03145D03*
Y03245D03*
Y03345D03*
Y03445D03*
Y03545D03*
X08516Y0288D03*
Y0278D03*
Y0268D03*
Y0258D03*
Y0248D03*
Y0238D03*
Y0228D03*
Y0218D03*
Y0208D03*
Y0198D03*
X08203D03*
Y0208D03*
Y0218D03*
Y0228D03*
Y0238D03*
Y0248D03*
Y0258D03*
Y0268D03*
Y0278D03*
X07901Y0396D03*
Y0386D03*
Y0376D03*
Y0366D03*
Y0356D03*
Y0346D03*
Y0336D03*
Y0326D03*
Y0316D03*
Y0306D03*
X07588D03*
Y0316D03*
Y0326D03*
Y0336D03*
Y0346D03*
Y0356D03*
Y0366D03*
Y0376D03*
Y0386D03*
G54D29*
X08997Y03645D03*
X08203Y0288D03*
X07588Y0396D03*
G54D34*
X09035Y01815D03*
X09335D03*
Y01515D03*
G54D35*
X09035Y01515D03*
G54D36*
X0554Y04645D03*
Y01395D03*
X09995D03*
X08695Y01394D03*
X09995Y04645D03*
X08695Y04644D03*
G54D37*
X0811Y02D03*
Y021D03*
Y022D03*
Y023D03*
Y024D03*
Y025D03*
Y026D03*
X0781Y02D03*
Y021D03*
Y022D03*
Y023D03*
Y024D03*
Y025D03*
X0657Y02918D03*
X0667D03*
X0677D03*
X0687D03*
X0697D03*
X0707D03*
X0717D03*
X0657Y03218D03*
X0667D03*
X0677D03*
X0687D03*
X0697D03*
X0707D03*
X0657Y04213D03*
X0667D03*
X0677D03*
X0687D03*
X0697D03*
X0707D03*
X0717D03*
X0657Y04513D03*
X0667D03*
X0677D03*
X0687D03*
X0697D03*
X0707D03*
X0657Y03781D03*
X0667D03*
X0677D03*
X0687D03*
X0697D03*
X0707D03*
X0717D03*
X0657Y04081D03*
X0667D03*
X0677D03*
X0687D03*
X0697D03*
X0707D03*
X0657Y0335D03*
X0667D03*
X0677D03*
X0687D03*
X0697D03*
X0707D03*
X0717D03*
X0657Y0365D03*
X0667D03*
X0677D03*
X0687D03*
X0697D03*
X0707D03*
X06455Y0153D03*
X06555D03*
X06655D03*
X06755D03*
X06855D03*
X06955D03*
X07055D03*
X06455Y0183D03*
X06555D03*
X06655D03*
X06755D03*
X06855D03*
X06955D03*
X0613D03*
X0603D03*
X0593D03*
X0583D03*
X0573D03*
X0563D03*
X0553D03*
X0623Y0153D03*
X0613D03*
X0603D03*
X0593D03*
X0583D03*
X0573D03*
X0563D03*
X0553D03*
X06Y02575D03*
Y02475D03*
Y02375D03*
Y02275D03*
Y02175D03*
Y02075D03*
Y01975D03*
X063Y02675D03*
Y02575D03*
Y02475D03*
Y02375D03*
Y02275D03*
Y02175D03*
Y02075D03*
Y01975D03*
X05525Y02575D03*
Y02475D03*
Y02375D03*
Y02275D03*
Y02175D03*
Y02075D03*
Y01975D03*
X05825Y02675D03*
Y02575D03*
Y02475D03*
Y02375D03*
Y02275D03*
Y02175D03*
Y02075D03*
Y01975D03*
X0628Y02858D03*
Y02958D03*
Y03058D03*
Y03158D03*
Y03258D03*
Y03358D03*
Y03458D03*
Y03558D03*
X0598Y02858D03*
Y02958D03*
Y03058D03*
Y03158D03*
Y03258D03*
Y03358D03*
Y03458D03*
X05835Y02858D03*
Y02958D03*
Y03058D03*
Y03158D03*
Y03258D03*
Y03358D03*
Y03458D03*
Y03558D03*
X05535Y02858D03*
Y02958D03*
Y03058D03*
Y03158D03*
Y03258D03*
Y03358D03*
Y03458D03*
X05835Y03783D03*
Y03883D03*
Y03983D03*
Y04083D03*
Y04183D03*
Y04283D03*
Y04383D03*
Y04483D03*
X05535Y03783D03*
Y03883D03*
Y03983D03*
Y04083D03*
Y04183D03*
Y04283D03*
Y04383D03*
X0628Y03833D03*
Y03933D03*
Y04033D03*
Y04133D03*
Y04233D03*
Y04333D03*
Y04433D03*
X0598Y03833D03*
Y03933D03*
Y04033D03*
Y04133D03*
Y04233D03*
Y04333D03*
X09795Y03925D03*
Y04025D03*
Y04125D03*
Y04225D03*
Y04325D03*
Y04425D03*
Y04525D03*
X09495Y03925D03*
Y04025D03*
Y04125D03*
Y04225D03*
Y04325D03*
Y04425D03*
X0935Y0392D03*
Y0402D03*
Y0412D03*
Y0422D03*
Y0432D03*
Y0442D03*
Y0452D03*
X0905Y0392D03*
Y0402D03*
Y0412D03*
Y0422D03*
Y0432D03*
Y0442D03*
X07415Y04205D03*
X07515D03*
X07615D03*
X07715D03*
X07815D03*
X07915D03*
X08015D03*
X07415Y04505D03*
X07515D03*
X07615D03*
X07715D03*
X07815D03*
X07915D03*
X06965Y02375D03*
X07065D03*
X07165D03*
X07265D03*
X07365D03*
X07465D03*
X07565D03*
X06965Y02675D03*
X07065D03*
X07165D03*
X07265D03*
X07365D03*
X07465D03*
X06965Y01935D03*
X07065D03*
X07165D03*
X07265D03*
X07365D03*
X07465D03*
X07565D03*
X06965Y02235D03*
X07065D03*
X07165D03*
X07265D03*
X07365D03*
X07465D03*
X0733Y0153D03*
X0743D03*
X0753D03*
X0763D03*
X0773D03*
X0783D03*
X0793D03*
X0733Y0183D03*
X0743D03*
X0753D03*
X0763D03*
X0773D03*
X0783D03*
X0818Y0153D03*
X0828D03*
X0838D03*
X0848D03*
X0858D03*
X0868D03*
X0878D03*
X0818Y0183D03*
X0828D03*
X0838D03*
X0848D03*
X0858D03*
X0868D03*
X06775Y02025D03*
Y02125D03*
Y02225D03*
Y02325D03*
Y02425D03*
Y02525D03*
Y02625D03*
X06475Y02025D03*
Y02125D03*
Y02225D03*
Y02325D03*
Y02425D03*
Y02525D03*
G54D38*
X0781Y026D03*
X06Y02675D03*
X05525D03*
X0598Y03558D03*
X05535D03*
Y04483D03*
X0598Y04433D03*
X09495Y04525D03*
X0905Y0452D03*
X06475Y02625D03*
G54D39*
X0717Y03218D03*
Y04513D03*
Y04081D03*
Y0365D03*
X07055Y0183D03*
X0623D03*
X08015Y04505D03*
X07565Y02675D03*
Y02235D03*
X0793Y0183D03*
X0878D03*
G54D40*
X09765Y02585D03*
Y02495D03*
Y02405D03*
Y02315D03*
Y02224D03*
X09665Y02618D03*
Y02528D03*
Y02438D03*
Y02348D03*
Y02258D03*
X09565Y02585D03*
Y02495D03*
Y02405D03*
Y02315D03*
Y02224D03*
G54D41*
X09665Y02905D03*
Y01921D03*
G54D42*
X0866Y04315D03*
Y04215D03*
Y04115D03*
X0876Y04315D03*
Y04215D03*
Y04115D03*
X0866Y03915D03*
X0876D03*
X0866Y03715D03*
X0876D03*
X0866Y03515D03*
X0876D03*
X0866Y03415D03*
X0876D03*
X0866Y03215D03*
X0876D03*
X0866Y03015D03*
X0876D03*
X0866Y02715D03*
X0876D03*
X0866Y02615D03*
X0876D03*
X0866Y02415D03*
X0876Y02515D03*
X0866D03*
X0876Y02815D03*
X0866D03*
X0876Y02915D03*
X0866D03*
X0876Y03115D03*
X0866D03*
X0876Y03315D03*
X0866D03*
X0876Y03615D03*
X0866D03*
X0876Y03815D03*
X0866D03*
X0876Y04015D03*
X0866D03*
G54D43*
X0876Y02415D03*
M02*