%FSTAX23Y23*%
%MOIN*%
%SFA1B1*%

%IPPOS*%
%ADD19C,0.002360*%
%ADD20C,0.004720*%
%ADD21C,0.002700*%
%ADD22R,0.057090X0.037400*%
%ADD26R,0.037400X0.057090*%
%ADD34R,0.039500X0.039500*%
%ADD35R,0.090680X0.063120*%
%ADD36R,0.049340X0.065090*%
%ADD37R,0.053280X0.019810*%
%ADD38R,0.039500X0.039500*%
%ADD39R,0.086740X0.086740*%
%ADD40R,0.063120X0.067060*%
%ADD41R,0.065090X0.049340*%
%ADD42R,0.067060X0.063120*%
%ADD43R,0.063120X0.055240*%
%ADD44O,0.070000X0.098000*%
%ADD45R,0.070000X0.098000*%
%ADD46C,0.128000*%
%ADD47R,0.082000X0.082000*%
%ADD48C,0.082000*%
%ADD49C,0.068000*%
%ADD50R,0.078870X0.078870*%
%ADD51C,0.078870*%
%ADD52O,0.094610X0.047370*%
%ADD53O,0.078870X0.047370*%
%ADD54C,0.072960*%
%ADD55R,0.072960X0.072960*%
%ADD56C,0.067060*%
%ADD57R,0.067060X0.067060*%
%ADD58C,0.070990*%
%ADD59C,0.165480*%
%ADD60R,0.070990X0.070990*%
%ADD61C,0.070990*%
%ADD62R,0.078870X0.078870*%
%ADD63O,0.126110X0.086740*%
%ADD64O,0.059180X0.070990*%
%ADD65C,0.047240*%
%ADD66R,0.047240X0.047240*%
%ADD67R,0.067060X0.067060*%
%ADD68R,0.047240X0.047240*%
%LN6502_carrier-1*%
%LPD*%
G36*
X08434Y03953D02*
Y03952D01*
Y03951*
Y03949*
Y03948*
Y03946*
X08412*
Y03948*
Y03949*
Y03951*
Y03952*
Y03953*
Y03955*
X08434*
Y03953*
G37*
G36*
X08377D02*
Y03952D01*
Y03951*
Y03949*
Y03948*
Y03946*
X08369*
Y03948*
Y03949*
Y03951*
Y03952*
Y03953*
Y03955*
X08377*
Y03953*
G37*
G36*
X08463Y03939D02*
Y03938D01*
Y03936*
Y03935*
Y03934*
Y03932*
X0844*
Y03934*
Y03935*
Y03936*
Y03938*
Y03939*
Y03941*
X08463*
Y03939*
G37*
G36*
X08306Y03925D02*
Y03924D01*
Y03922*
Y03921*
Y03919*
Y03918*
X08298*
Y03919*
Y03921*
Y03922*
Y03924*
Y03925*
Y03926*
X08306*
Y03925*
G37*
G36*
X08448Y03897D02*
Y03895D01*
Y03894*
Y03892*
Y03891*
Y0389*
X08426*
Y03891*
Y03892*
Y03894*
Y03895*
Y03897*
Y03898*
X08448*
Y03897*
G37*
G36*
X0842Y03882D02*
Y03881D01*
Y0388*
Y03878*
Y03877*
Y03875*
X08412*
Y03877*
Y03878*
Y0388*
Y03881*
Y03882*
Y03884*
X0842*
Y03882*
G37*
G36*
X08306D02*
Y03881D01*
Y0388*
Y03878*
Y03877*
Y03875*
X08298*
Y03877*
Y03878*
Y0388*
Y03881*
Y03882*
Y03884*
X08306*
Y03882*
G37*
G36*
X08576Y03953D02*
Y03952D01*
Y03951*
Y03949*
Y03948*
Y03946*
Y03945*
Y03944*
Y03942*
Y03941*
Y03939*
Y03938*
Y03936*
Y03935*
Y03934*
Y03932*
Y03931*
Y03929*
Y03928*
Y03926*
Y03925*
Y03924*
Y03922*
Y03921*
Y03919*
Y03918*
Y03917*
Y03915*
Y03914*
Y03912*
Y03911*
Y03909*
Y03908*
Y03907*
Y03905*
Y03904*
Y03902*
Y03901*
Y03899*
Y03898*
Y03897*
Y03895*
Y03894*
Y03892*
Y03891*
Y0389*
Y03888*
Y03887*
Y03885*
Y03884*
Y03882*
Y03881*
Y0388*
Y03878*
Y03877*
Y03875*
Y03874*
Y03872*
Y03871*
Y0387*
Y03868*
Y03867*
Y03865*
Y03864*
Y03862*
Y03861*
X08483*
Y03862*
Y03864*
Y03865*
Y03867*
Y03868*
Y0387*
Y03871*
Y03872*
Y03874*
Y03875*
Y03877*
Y03878*
Y0388*
Y03881*
Y03882*
Y03884*
Y03885*
Y03887*
Y03888*
Y0389*
Y03891*
Y03892*
Y03894*
Y03895*
Y03897*
Y03898*
Y03899*
Y03901*
Y03902*
Y03904*
Y03905*
Y03907*
Y03908*
Y03909*
Y03911*
Y03912*
Y03914*
Y03915*
Y03917*
Y03918*
Y03919*
Y03921*
Y03922*
Y03924*
Y03925*
Y03926*
Y03928*
Y03929*
Y03931*
Y03932*
Y03934*
Y03935*
Y03936*
Y03938*
Y03939*
Y03941*
Y03942*
Y03944*
Y03945*
Y03946*
Y03948*
Y03949*
Y03951*
Y03952*
Y03953*
Y03955*
X08576*
Y03953*
G37*
G36*
X08463Y03882D02*
Y03881D01*
Y0388*
Y03878*
Y03877*
Y03875*
Y03874*
Y03872*
Y03871*
Y0387*
Y03868*
Y03867*
Y03865*
Y03864*
Y03862*
Y03861*
X08454*
Y03862*
Y03864*
Y03865*
Y03867*
Y03868*
Y0387*
Y03871*
Y03872*
Y03874*
Y03875*
Y03877*
Y03878*
Y0388*
Y03881*
Y03882*
Y03884*
X08463*
Y03882*
G37*
G36*
X08434Y03868D02*
Y03867D01*
Y03865*
Y03864*
Y03862*
Y03861*
X08426*
Y03862*
Y03864*
Y03865*
Y03867*
Y03868*
Y0387*
X08434*
Y03868*
G37*
G36*
X08335Y03953D02*
Y03952D01*
Y03951*
Y03949*
Y03948*
Y03946*
Y03945*
Y03944*
Y03942*
Y03941*
X08349*
Y03939*
Y03938*
Y03936*
Y03935*
Y03934*
Y03932*
X08335*
Y03931*
Y03929*
Y03928*
Y03926*
Y03925*
Y03924*
Y03922*
Y03921*
Y03919*
Y03918*
Y03917*
Y03915*
Y03914*
Y03912*
Y03911*
Y03909*
Y03908*
Y03907*
Y03905*
Y03904*
Y03902*
Y03901*
Y03899*
Y03898*
X08355*
Y03899*
Y03901*
Y03902*
Y03904*
Y03905*
Y03907*
Y03908*
Y03909*
Y03911*
Y03912*
Y03914*
Y03915*
Y03917*
Y03918*
Y03919*
Y03921*
Y03922*
Y03924*
Y03925*
Y03926*
X08377*
Y03925*
Y03924*
Y03922*
Y03921*
Y03919*
Y03918*
X08363*
Y03917*
Y03915*
Y03914*
Y03912*
Y03911*
Y03909*
Y03908*
Y03907*
Y03905*
Y03904*
Y03902*
Y03901*
Y03899*
Y03898*
X08397*
Y03899*
Y03901*
Y03902*
Y03904*
Y03905*
Y03907*
Y03908*
Y03909*
Y03911*
Y03912*
Y03914*
Y03915*
Y03917*
Y03918*
Y03919*
Y03921*
Y03922*
Y03924*
Y03925*
Y03926*
Y03928*
Y03929*
Y03931*
Y03932*
Y03934*
Y03935*
Y03936*
Y03938*
Y03939*
Y03941*
X08406*
Y03939*
Y03938*
Y03936*
Y03935*
Y03934*
Y03932*
Y03931*
Y03929*
Y03928*
Y03926*
Y03925*
Y03924*
Y03922*
Y03921*
Y03919*
Y03918*
Y03917*
Y03915*
Y03914*
Y03912*
X0842*
Y03911*
Y03909*
Y03908*
Y03907*
Y03905*
Y03904*
X08406*
Y03902*
Y03901*
Y03899*
Y03898*
Y03897*
Y03895*
Y03894*
Y03892*
Y03891*
Y0389*
X08377*
Y03888*
Y03887*
Y03885*
Y03884*
Y03882*
Y03881*
Y0388*
Y03878*
Y03877*
Y03875*
Y03874*
Y03872*
Y03871*
Y0387*
Y03868*
Y03867*
Y03865*
Y03864*
Y03862*
Y03861*
X08369*
Y03862*
Y03864*
Y03865*
Y03867*
Y03868*
Y0387*
Y03871*
Y03872*
Y03874*
Y03875*
Y03877*
Y03878*
Y0388*
Y03881*
Y03882*
Y03884*
Y03885*
Y03887*
Y03888*
Y0389*
X08335*
Y03888*
Y03887*
Y03885*
Y03884*
Y03882*
Y03881*
Y0388*
Y03878*
Y03877*
Y03875*
X08326*
Y03877*
Y03878*
Y0388*
Y03881*
Y03882*
Y03884*
Y03885*
Y03887*
Y03888*
Y0389*
X08312*
Y03891*
Y03892*
Y03894*
Y03895*
Y03897*
Y03898*
Y03899*
Y03901*
Y03902*
Y03904*
Y03905*
Y03907*
Y03908*
Y03909*
Y03911*
Y03912*
X08326*
Y03914*
Y03915*
Y03917*
Y03918*
Y03919*
Y03921*
Y03922*
Y03924*
Y03925*
Y03926*
Y03928*
Y03929*
Y03931*
Y03932*
Y03934*
Y03935*
Y03936*
Y03938*
Y03939*
Y03941*
Y03942*
Y03944*
Y03945*
Y03946*
X08284*
Y03948*
Y03949*
Y03951*
Y03952*
Y03953*
Y03955*
X08335*
Y03953*
G37*
G36*
X08321Y03868D02*
Y03867D01*
Y03865*
Y03864*
Y03862*
Y03861*
X08312*
Y03862*
Y03864*
Y03865*
Y03867*
Y03868*
Y0387*
X08321*
Y03868*
G37*
G36*
X08264Y03953D02*
Y03952D01*
Y03951*
Y03949*
Y03948*
Y03946*
Y03945*
Y03944*
Y03942*
Y03941*
Y03939*
Y03938*
Y03936*
Y03935*
Y03934*
Y03932*
Y03931*
Y03929*
Y03928*
Y03926*
Y03925*
Y03924*
Y03922*
Y03921*
Y03919*
Y03918*
Y03917*
Y03915*
Y03914*
Y03912*
Y03911*
Y03909*
Y03908*
Y03907*
Y03905*
Y03904*
Y03902*
Y03901*
Y03899*
Y03898*
Y03897*
Y03895*
Y03894*
Y03892*
Y03891*
Y0389*
Y03888*
Y03887*
Y03885*
Y03884*
Y03882*
Y03881*
Y0388*
Y03878*
Y03877*
Y03875*
Y03874*
Y03872*
Y03871*
Y0387*
Y03868*
Y03867*
Y03865*
Y03864*
Y03862*
Y03861*
X0817*
Y03862*
Y03864*
Y03865*
Y03867*
Y03868*
Y0387*
Y03871*
Y03872*
Y03874*
Y03875*
Y03877*
Y03878*
Y0388*
Y03881*
Y03882*
Y03884*
Y03885*
Y03887*
Y03888*
Y0389*
Y03891*
Y03892*
Y03894*
Y03895*
Y03897*
Y03898*
Y03899*
Y03901*
Y03902*
Y03904*
Y03905*
Y03907*
Y03908*
Y03909*
Y03911*
Y03912*
Y03914*
Y03915*
Y03917*
Y03918*
Y03919*
Y03921*
Y03922*
Y03924*
Y03925*
Y03926*
Y03928*
Y03929*
Y03931*
Y03932*
Y03934*
Y03935*
Y03936*
Y03938*
Y03939*
Y03941*
Y03942*
Y03944*
Y03945*
Y03946*
Y03948*
Y03949*
Y03951*
Y03952*
Y03953*
Y03955*
X08264*
Y03953*
G37*
G36*
X08576Y0384D02*
Y03838D01*
Y03837*
Y03835*
Y03834*
Y03833*
X08568*
Y03834*
Y03835*
Y03837*
Y03838*
Y0384*
Y03841*
X08576*
Y0384*
G37*
G36*
X08491D02*
Y03838D01*
Y03837*
Y03835*
Y03834*
Y03833*
X08483*
Y03834*
Y03835*
Y03837*
Y03838*
Y0384*
Y03841*
X08491*
Y0384*
G37*
G36*
X08377D02*
Y03838D01*
Y03837*
Y03835*
Y03834*
Y03833*
X08369*
Y03834*
Y03835*
Y03837*
Y03838*
Y0384*
Y03841*
X08377*
Y0384*
G37*
G36*
X08349Y03868D02*
Y03867D01*
Y03865*
Y03864*
Y03862*
Y03861*
Y0386*
Y03858*
Y03857*
Y03855*
X08363*
Y03854*
Y03853*
Y03851*
Y0385*
Y03848*
Y03847*
X08349*
Y03845*
Y03844*
Y03843*
Y03841*
Y0384*
Y03838*
Y03837*
Y03835*
Y03834*
Y03833*
X0834*
Y03834*
Y03835*
Y03837*
Y03838*
Y0384*
Y03841*
Y03843*
Y03844*
Y03845*
Y03847*
Y03848*
Y0385*
Y03851*
Y03853*
Y03854*
Y03855*
Y03857*
Y03858*
Y0386*
Y03861*
Y03862*
Y03864*
Y03865*
Y03867*
Y03868*
Y0387*
X08349*
Y03868*
G37*
G36*
X08292D02*
Y03867D01*
Y03865*
Y03864*
Y03862*
Y03861*
Y0386*
Y03858*
Y03857*
Y03855*
X08306*
Y03854*
Y03853*
Y03851*
Y0385*
Y03848*
Y03847*
Y03845*
Y03844*
Y03843*
Y03841*
Y0384*
Y03838*
Y03837*
Y03835*
Y03834*
Y03833*
X08298*
Y03834*
Y03835*
Y03837*
Y03838*
Y0384*
Y03841*
Y03843*
Y03844*
Y03845*
Y03847*
X08284*
Y03848*
Y0385*
Y03851*
Y03853*
Y03854*
Y03855*
Y03857*
Y03858*
Y0386*
Y03861*
Y03862*
Y03864*
Y03865*
Y03867*
Y03868*
Y0387*
X08292*
Y03868*
G37*
G36*
X08264Y0384D02*
Y03838D01*
Y03837*
Y03835*
Y03834*
Y03833*
X08255*
Y03834*
Y03835*
Y03837*
Y03838*
Y0384*
Y03841*
X08264*
Y0384*
G37*
G36*
X08477Y03826D02*
Y03824D01*
Y03823*
Y03821*
Y0382*
Y03818*
X08468*
Y0382*
Y03821*
Y03823*
Y03824*
Y03826*
Y03827*
X08477*
Y03826*
G37*
G36*
X08448Y03854D02*
Y03853D01*
Y03851*
Y0385*
Y03848*
Y03847*
Y03845*
Y03844*
Y03843*
Y03841*
Y0384*
Y03838*
Y03837*
Y03835*
Y03834*
Y03833*
Y03831*
Y0383*
Y03828*
Y03827*
Y03826*
Y03824*
Y03823*
Y03821*
Y0382*
Y03818*
X0844*
Y0382*
Y03821*
Y03823*
Y03824*
Y03826*
Y03827*
Y03828*
Y0383*
Y03831*
Y03833*
Y03834*
Y03835*
Y03837*
Y03838*
Y0384*
Y03841*
Y03843*
Y03844*
Y03845*
Y03847*
Y03848*
Y0385*
Y03851*
Y03853*
Y03854*
Y03855*
X08448*
Y03854*
G37*
G36*
X08321Y03826D02*
Y03824D01*
Y03823*
Y03821*
Y0382*
Y03818*
X08312*
Y0382*
Y03821*
Y03823*
Y03824*
Y03826*
Y03827*
X08321*
Y03826*
G37*
G36*
X08235Y0384D02*
Y03838D01*
Y03837*
Y03835*
Y03834*
Y03833*
Y03831*
Y0383*
Y03828*
Y03827*
Y03826*
Y03824*
Y03823*
Y03821*
Y0382*
Y03818*
Y03817*
Y03816*
Y03814*
Y03813*
Y03811*
Y0381*
Y03808*
Y03807*
Y03806*
Y03804*
X08207*
Y03803*
Y03801*
Y038*
Y03799*
Y03797*
Y03796*
Y03794*
Y03793*
Y03791*
Y0379*
X08198*
Y03791*
Y03793*
Y03794*
Y03796*
Y03797*
Y03799*
Y038*
Y03801*
Y03803*
Y03804*
X08184*
Y03806*
Y03807*
Y03808*
Y0381*
Y03811*
Y03813*
Y03814*
Y03816*
Y03817*
Y03818*
Y0382*
Y03821*
Y03823*
Y03824*
Y03826*
Y03827*
Y03828*
Y0383*
Y03831*
Y03833*
X0817*
Y03834*
Y03835*
Y03837*
Y03838*
Y0384*
Y03841*
X08193*
Y0384*
Y03838*
Y03837*
Y03835*
Y03834*
Y03833*
Y03831*
Y0383*
Y03828*
Y03827*
X08207*
Y03826*
Y03824*
Y03823*
Y03821*
Y0382*
Y03818*
Y03817*
Y03816*
Y03814*
Y03813*
X08227*
Y03814*
Y03816*
Y03817*
Y03818*
Y0382*
Y03821*
Y03823*
Y03824*
Y03826*
Y03827*
Y03828*
Y0383*
Y03831*
Y03833*
X08213*
Y03834*
Y03835*
Y03837*
Y03838*
Y0384*
Y03841*
X08235*
Y0384*
G37*
G36*
X08562Y03826D02*
Y03824D01*
Y03823*
Y03821*
Y0382*
Y03818*
X08548*
Y03817*
Y03816*
Y03814*
Y03813*
Y03811*
Y0381*
Y03808*
Y03807*
Y03806*
Y03804*
X08539*
Y03806*
Y03807*
Y03808*
Y0381*
Y03811*
Y03813*
Y03814*
Y03816*
Y03817*
Y03818*
Y0382*
Y03821*
Y03823*
Y03824*
Y03826*
Y03827*
X08562*
Y03826*
G37*
G36*
X08463Y03811D02*
Y0381D01*
Y03808*
Y03807*
Y03806*
Y03804*
X08454*
Y03806*
Y03807*
Y03808*
Y0381*
Y03811*
Y03813*
X08463*
Y03811*
G37*
G36*
X08349D02*
Y0381D01*
Y03808*
Y03807*
Y03806*
Y03804*
X0834*
Y03806*
Y03807*
Y03808*
Y0381*
Y03811*
Y03813*
X08349*
Y03811*
G37*
G36*
X08306D02*
Y0381D01*
Y03808*
Y03807*
Y03806*
Y03804*
X08284*
Y03806*
Y03807*
Y03808*
Y0381*
Y03811*
Y03813*
X08306*
Y03811*
G37*
G36*
X08264D02*
Y0381D01*
Y03808*
Y03807*
Y03806*
Y03804*
X08255*
Y03806*
Y03807*
Y03808*
Y0381*
Y03811*
Y03813*
X08264*
Y03811*
G37*
G36*
X08534Y03797D02*
Y03796D01*
Y03794*
Y03793*
Y03791*
Y0379*
X08525*
Y03791*
Y03793*
Y03794*
Y03796*
Y03797*
Y03799*
X08534*
Y03797*
G37*
G36*
X08448D02*
Y03796D01*
Y03794*
Y03793*
Y03791*
Y0379*
X0844*
Y03791*
Y03793*
Y03794*
Y03796*
Y03797*
Y03799*
X08448*
Y03797*
G37*
G36*
X08278D02*
Y03796D01*
Y03794*
Y03793*
Y03791*
Y0379*
X08269*
Y03791*
Y03793*
Y03794*
Y03796*
Y03797*
Y03799*
X08278*
Y03797*
G37*
G36*
X08463Y03783D02*
Y03781D01*
Y0378*
Y03779*
Y03777*
Y03776*
X08454*
Y03777*
Y03779*
Y0378*
Y03781*
Y03783*
Y03784*
X08463*
Y03783*
G37*
G36*
X08264D02*
Y03781D01*
Y0378*
Y03779*
Y03777*
Y03776*
X0825*
Y03774*
Y03773*
Y03772*
Y0377*
Y03769*
Y03767*
Y03766*
Y03764*
Y03763*
Y03762*
X08241*
Y03763*
Y03764*
Y03766*
Y03767*
Y03769*
Y0377*
Y03772*
Y03773*
Y03774*
Y03776*
Y03777*
Y03779*
Y0378*
Y03781*
Y03783*
Y03784*
X08264*
Y03783*
G37*
G36*
X08178Y03769D02*
Y03767D01*
Y03766*
Y03764*
Y03763*
Y03762*
X0817*
Y03763*
Y03764*
Y03766*
Y03767*
Y03769*
Y0377*
X08178*
Y03769*
G37*
G36*
X08406Y03868D02*
Y03867D01*
Y03865*
Y03864*
Y03862*
Y03861*
Y0386*
Y03858*
Y03857*
Y03855*
Y03854*
Y03853*
Y03851*
Y0385*
Y03848*
Y03847*
Y03845*
Y03844*
Y03843*
Y03841*
X0842*
Y0384*
Y03838*
Y03837*
Y03835*
Y03834*
Y03833*
Y03831*
Y0383*
Y03828*
Y03827*
Y03826*
Y03824*
Y03823*
Y03821*
Y0382*
Y03818*
Y03817*
Y03816*
Y03814*
Y03813*
X08434*
Y03811*
Y0381*
Y03808*
Y03807*
Y03806*
Y03804*
X0842*
Y03803*
Y03801*
Y038*
Y03799*
Y03797*
Y03796*
Y03794*
Y03793*
Y03791*
Y0379*
X08392*
Y03789*
Y03787*
Y03786*
Y03784*
Y03783*
Y03781*
Y0378*
Y03779*
Y03777*
Y03776*
Y03774*
Y03773*
Y03772*
Y0377*
Y03769*
Y03767*
Y03766*
Y03764*
Y03763*
Y03762*
Y0376*
Y03759*
Y03757*
Y03756*
X08483*
Y03757*
Y03759*
Y0376*
Y03762*
Y03763*
Y03764*
Y03766*
Y03767*
Y03769*
Y0377*
Y03772*
Y03773*
Y03774*
Y03776*
Y03777*
Y03779*
Y0378*
Y03781*
Y03783*
Y03784*
Y03786*
Y03787*
Y03789*
Y0379*
X08468*
Y03791*
Y03793*
Y03794*
Y03796*
Y03797*
Y03799*
X08497*
Y038*
Y03801*
Y03803*
Y03804*
Y03806*
Y03807*
Y03808*
Y0381*
Y03811*
Y03813*
Y03814*
Y03816*
Y03817*
Y03818*
Y0382*
Y03821*
Y03823*
Y03824*
Y03826*
Y03827*
X0852*
Y03826*
Y03824*
Y03823*
Y03821*
Y0382*
Y03818*
Y03817*
Y03816*
Y03814*
Y03813*
Y03811*
Y0381*
Y03808*
Y03807*
Y03806*
Y03804*
X08505*
Y03803*
Y03801*
Y038*
Y03799*
Y03797*
Y03796*
Y03794*
Y03793*
Y03791*
Y0379*
Y03789*
Y03787*
Y03786*
Y03784*
Y03783*
Y03781*
Y0378*
Y03779*
Y03777*
Y03776*
Y03774*
Y03773*
Y03772*
Y0377*
X08568*
Y03772*
Y03773*
Y03774*
Y03776*
Y03777*
Y03779*
Y0378*
Y03781*
Y03783*
Y03784*
Y03786*
Y03787*
Y03789*
Y0379*
Y03791*
Y03793*
Y03794*
Y03796*
Y03797*
Y03799*
X08576*
Y03797*
Y03796*
Y03794*
Y03793*
Y03791*
Y0379*
Y03789*
Y03787*
Y03786*
Y03784*
Y03783*
Y03781*
Y0378*
Y03779*
Y03777*
Y03776*
Y03774*
Y03773*
Y03772*
Y0377*
Y03769*
Y03767*
Y03766*
Y03764*
Y03763*
Y03762*
Y0376*
Y03759*
Y03757*
Y03756*
Y03754*
Y03753*
Y03752*
Y0375*
Y03749*
Y03747*
Y03746*
Y03745*
Y03743*
Y03742*
Y0374*
Y03739*
Y03737*
Y03736*
Y03735*
Y03733*
X08568*
Y03735*
Y03736*
Y03737*
Y03739*
Y0374*
Y03742*
Y03743*
Y03745*
Y03746*
Y03747*
Y03749*
Y0375*
Y03752*
Y03753*
Y03754*
Y03756*
Y03757*
Y03759*
Y0376*
Y03762*
X08548*
Y0376*
Y03759*
Y03757*
Y03756*
Y03754*
Y03753*
Y03752*
Y0375*
Y03749*
Y03747*
Y03746*
Y03745*
Y03743*
Y03742*
Y0374*
Y03739*
Y03737*
Y03736*
Y03735*
Y03733*
X08539*
Y03735*
Y03736*
Y03737*
Y03739*
Y0374*
Y03742*
Y03743*
Y03745*
Y03746*
Y03747*
Y03749*
Y0375*
Y03752*
Y03753*
Y03754*
Y03756*
Y03757*
Y03759*
Y0376*
Y03762*
X0852*
Y0376*
Y03759*
Y03757*
Y03756*
Y03754*
Y03753*
Y03752*
Y0375*
Y03749*
Y03747*
Y03746*
Y03745*
Y03743*
Y03742*
Y0374*
Y03739*
Y03737*
Y03736*
Y03735*
Y03733*
X08497*
Y03735*
Y03736*
Y03737*
Y03739*
Y0374*
Y03742*
X08511*
Y03743*
Y03745*
Y03746*
Y03747*
Y03749*
Y0375*
Y03752*
Y03753*
Y03754*
Y03756*
Y03757*
Y03759*
Y0376*
Y03762*
X08491*
Y0376*
Y03759*
Y03757*
Y03756*
Y03754*
Y03753*
Y03752*
Y0375*
Y03749*
Y03747*
X08448*
Y03746*
Y03745*
Y03743*
Y03742*
Y0374*
Y03739*
Y03737*
Y03736*
Y03735*
Y03733*
Y03732*
Y0373*
Y03729*
Y03727*
X08477*
Y03726*
Y03725*
Y03723*
Y03722*
Y0372*
Y03719*
X08448*
Y03718*
Y03716*
Y03715*
Y03713*
Y03712*
Y0371*
Y03709*
Y03708*
Y03706*
Y03705*
Y03703*
Y03702*
Y037*
Y03699*
Y03698*
Y03696*
Y03695*
Y03693*
Y03692*
Y03691*
Y03689*
Y03688*
Y03686*
Y03685*
Y03683*
Y03682*
Y03681*
Y03679*
Y03678*
Y03676*
X0844*
Y03678*
Y03679*
Y03681*
Y03682*
Y03683*
Y03685*
Y03686*
Y03688*
Y03689*
Y03691*
Y03692*
Y03693*
Y03695*
Y03696*
Y03698*
Y03699*
Y037*
Y03702*
Y03703*
Y03705*
X0842*
Y03703*
Y03702*
Y037*
Y03699*
Y03698*
Y03696*
Y03695*
Y03693*
Y03692*
Y03691*
X08412*
Y03692*
Y03693*
Y03695*
Y03696*
Y03698*
Y03699*
Y037*
Y03702*
Y03703*
Y03705*
X08392*
Y03703*
Y03702*
Y037*
Y03699*
Y03698*
Y03696*
Y03695*
Y03693*
Y03692*
Y03691*
X08383*
Y03692*
Y03693*
Y03695*
Y03696*
Y03698*
Y03699*
Y037*
Y03702*
Y03703*
Y03705*
X08369*
Y03706*
Y03708*
Y03709*
Y0371*
Y03712*
Y03713*
X08383*
Y03715*
Y03716*
Y03718*
Y03719*
Y0372*
Y03722*
Y03723*
Y03725*
Y03726*
Y03727*
X08397*
Y03729*
Y0373*
Y03732*
Y03733*
Y03735*
Y03736*
Y03737*
Y03739*
Y0374*
Y03742*
Y03743*
Y03745*
Y03746*
Y03747*
X08355*
Y03749*
Y0375*
Y03752*
Y03753*
Y03754*
Y03756*
Y03757*
Y03759*
Y0376*
Y03762*
X0834*
Y03763*
Y03764*
Y03766*
Y03767*
Y03769*
Y0377*
X08363*
Y03769*
Y03767*
Y03766*
Y03764*
Y03763*
Y03762*
Y0376*
Y03759*
Y03757*
Y03756*
X08383*
Y03757*
Y03759*
Y0376*
Y03762*
Y03763*
Y03764*
Y03766*
Y03767*
Y03769*
Y0377*
Y03772*
Y03773*
Y03774*
Y03776*
Y03777*
Y03779*
Y0378*
Y03781*
Y03783*
Y03784*
Y03786*
Y03787*
Y03789*
Y0379*
Y03791*
Y03793*
Y03794*
Y03796*
Y03797*
Y03799*
Y038*
Y03801*
Y03803*
Y03804*
X08369*
Y03806*
Y03807*
Y03808*
Y0381*
Y03811*
Y03813*
X08383*
Y03814*
Y03816*
Y03817*
Y03818*
Y0382*
Y03821*
Y03823*
Y03824*
Y03826*
Y03827*
X08397*
Y03828*
Y0383*
Y03831*
Y03833*
Y03834*
Y03835*
Y03837*
Y03838*
Y0384*
Y03841*
Y03843*
Y03844*
Y03845*
Y03847*
Y03848*
Y0385*
Y03851*
Y03853*
Y03854*
Y03855*
Y03857*
Y03858*
Y0386*
Y03861*
Y03862*
Y03864*
Y03865*
Y03867*
Y03868*
Y0387*
X08406*
Y03868*
G37*
G36*
X08321Y03783D02*
Y03781D01*
Y0378*
Y03779*
Y03777*
Y03776*
Y03774*
Y03773*
Y03772*
Y0377*
Y03769*
Y03767*
Y03766*
Y03764*
Y03763*
Y03762*
Y0376*
Y03759*
Y03757*
Y03756*
Y03754*
Y03753*
Y03752*
Y0375*
Y03749*
Y03747*
X08312*
Y03749*
Y0375*
Y03752*
Y03753*
Y03754*
Y03756*
Y03757*
Y03759*
Y0376*
Y03762*
Y03763*
Y03764*
Y03766*
Y03767*
Y03769*
Y0377*
Y03772*
Y03773*
Y03774*
Y03776*
X08292*
Y03774*
Y03773*
Y03772*
Y0377*
Y03769*
Y03767*
Y03766*
Y03764*
Y03763*
Y03762*
Y0376*
Y03759*
Y03757*
Y03756*
Y03754*
Y03753*
Y03752*
Y0375*
Y03749*
Y03747*
Y03746*
Y03745*
Y03743*
Y03742*
Y0374*
Y03739*
Y03737*
Y03736*
Y03735*
Y03733*
X08284*
Y03735*
Y03736*
Y03737*
Y03739*
Y0374*
Y03742*
Y03743*
Y03745*
Y03746*
Y03747*
X08255*
Y03749*
Y0375*
Y03752*
Y03753*
Y03754*
Y03756*
X08269*
Y03757*
Y03759*
Y0376*
Y03762*
Y03763*
Y03764*
Y03766*
Y03767*
Y03769*
Y0377*
X08284*
Y03772*
Y03773*
Y03774*
Y03776*
Y03777*
Y03779*
Y0378*
Y03781*
Y03783*
Y03784*
X08321*
Y03783*
G37*
G36*
X08534Y03726D02*
Y03725D01*
Y03723*
Y03722*
Y0372*
Y03719*
X08525*
Y0372*
Y03722*
Y03723*
Y03725*
Y03726*
Y03727*
X08534*
Y03726*
G37*
G36*
X08562Y03712D02*
Y0371D01*
Y03709*
Y03708*
Y03706*
Y03705*
X08539*
Y03706*
Y03708*
Y03709*
Y0371*
Y03712*
Y03713*
X08562*
Y03712*
G37*
G36*
X08221Y03783D02*
Y03781D01*
Y0378*
Y03779*
Y03777*
Y03776*
Y03774*
Y03773*
Y03772*
Y0377*
Y03769*
Y03767*
Y03766*
Y03764*
Y03763*
Y03762*
Y0376*
Y03759*
Y03757*
Y03756*
X08235*
Y03754*
Y03753*
Y03752*
Y0375*
Y03749*
Y03747*
Y03746*
Y03745*
Y03743*
Y03742*
Y0374*
Y03739*
Y03737*
Y03736*
Y03735*
Y03733*
Y03732*
Y0373*
Y03729*
Y03727*
X08278*
Y03726*
Y03725*
Y03723*
Y03722*
Y0372*
Y03719*
Y03718*
Y03716*
Y03715*
Y03713*
Y03712*
Y0371*
Y03709*
Y03708*
Y03706*
Y03705*
Y03703*
Y03702*
Y037*
Y03699*
X08292*
Y03698*
Y03696*
Y03695*
Y03693*
Y03692*
Y03691*
Y03689*
Y03688*
Y03686*
Y03685*
Y03683*
Y03682*
Y03681*
Y03679*
Y03678*
Y03676*
Y03675*
Y03673*
Y03672*
Y03671*
Y03669*
Y03668*
Y03666*
Y03665*
Y03664*
Y03662*
Y03661*
Y03659*
Y03658*
Y03656*
X08306*
Y03655*
Y03654*
Y03652*
Y03651*
Y03649*
Y03648*
Y03646*
Y03645*
Y03644*
Y03642*
Y03641*
Y03639*
Y03638*
Y03637*
Y03635*
Y03634*
X08298*
Y03635*
Y03637*
Y03638*
Y03639*
Y03641*
Y03642*
Y03644*
Y03645*
Y03646*
Y03648*
X08284*
Y03649*
Y03651*
Y03652*
Y03654*
Y03655*
Y03656*
Y03658*
Y03659*
Y03661*
Y03662*
X08241*
Y03664*
Y03665*
Y03666*
Y03668*
Y03669*
Y03671*
X08284*
Y03672*
Y03673*
Y03675*
Y03676*
Y03678*
Y03679*
Y03681*
Y03682*
Y03683*
Y03685*
Y03686*
Y03688*
Y03689*
Y03691*
X08235*
Y03689*
Y03688*
Y03686*
Y03685*
Y03683*
Y03682*
Y03681*
Y03679*
Y03678*
Y03676*
X08213*
Y03678*
Y03679*
Y03681*
Y03682*
Y03683*
Y03685*
Y03686*
Y03688*
Y03689*
Y03691*
X08193*
Y03689*
Y03688*
Y03686*
Y03685*
Y03683*
Y03682*
Y03681*
Y03679*
Y03678*
Y03676*
Y03675*
Y03673*
Y03672*
Y03671*
X08207*
Y03669*
Y03668*
Y03666*
Y03665*
Y03664*
Y03662*
X0817*
Y03664*
Y03665*
Y03666*
Y03668*
Y03669*
Y03671*
Y03672*
Y03673*
Y03675*
Y03676*
Y03678*
Y03679*
Y03681*
Y03682*
Y03683*
Y03685*
Y03686*
Y03688*
Y03689*
Y03691*
Y03692*
Y03693*
Y03695*
Y03696*
Y03698*
Y03699*
Y037*
Y03702*
Y03703*
Y03705*
Y03706*
Y03708*
Y03709*
Y0371*
Y03712*
Y03713*
X08178*
Y03712*
Y0371*
Y03709*
Y03708*
Y03706*
Y03705*
Y03703*
Y03702*
Y037*
Y03699*
X08198*
Y037*
Y03702*
Y03703*
Y03705*
Y03706*
Y03708*
Y03709*
Y0371*
Y03712*
Y03713*
Y03715*
Y03716*
Y03718*
Y03719*
X08184*
Y0372*
Y03722*
Y03723*
Y03725*
Y03726*
Y03727*
X08198*
Y03729*
Y0373*
Y03732*
Y03733*
Y03735*
Y03736*
Y03737*
Y03739*
Y0374*
Y03742*
Y03743*
Y03745*
Y03746*
Y03747*
X08184*
Y03749*
Y0375*
Y03752*
Y03753*
Y03754*
Y03756*
X08198*
Y03757*
Y03759*
Y0376*
Y03762*
Y03763*
Y03764*
Y03766*
Y03767*
Y03769*
Y0377*
X08213*
Y03772*
Y03773*
Y03774*
Y03776*
Y03777*
Y03779*
Y0378*
Y03781*
Y03783*
Y03784*
X08221*
Y03783*
G37*
G36*
X08576Y03698D02*
Y03696D01*
Y03695*
Y03693*
Y03692*
Y03691*
X08568*
Y03692*
Y03693*
Y03695*
Y03696*
Y03698*
Y03699*
X08576*
Y03698*
G37*
G36*
X08349Y0374D02*
Y03739D01*
Y03737*
Y03736*
Y03735*
Y03733*
Y03732*
Y0373*
Y03729*
Y03727*
X08363*
Y03726*
Y03725*
Y03723*
Y03722*
Y0372*
Y03719*
X08335*
Y03718*
Y03716*
Y03715*
Y03713*
Y03712*
Y0371*
Y03709*
Y03708*
Y03706*
Y03705*
X08321*
Y03703*
Y03702*
Y037*
Y03699*
Y03698*
Y03696*
Y03695*
Y03693*
Y03692*
Y03691*
X08312*
Y03692*
Y03693*
Y03695*
Y03696*
Y03698*
Y03699*
Y037*
Y03702*
Y03703*
Y03705*
X08298*
Y03706*
Y03708*
Y03709*
Y0371*
Y03712*
Y03713*
X08326*
Y03715*
Y03716*
Y03718*
Y03719*
Y0372*
Y03722*
Y03723*
Y03725*
Y03726*
Y03727*
X0834*
Y03729*
Y0373*
Y03732*
Y03733*
Y03735*
Y03736*
Y03737*
Y03739*
Y0374*
Y03742*
X08349*
Y0374*
G37*
G36*
X08406Y03683D02*
Y03682D01*
Y03681*
Y03679*
Y03678*
Y03676*
X08397*
Y03678*
Y03679*
Y03681*
Y03682*
Y03683*
Y03685*
X08406*
Y03683*
G37*
G36*
X0852Y03712D02*
Y0371D01*
Y03709*
Y03708*
Y03706*
Y03705*
Y03703*
Y03702*
Y037*
Y03699*
X08534*
Y03698*
Y03696*
Y03695*
Y03693*
Y03692*
Y03691*
Y03689*
Y03688*
Y03686*
Y03685*
X08548*
Y03683*
Y03682*
Y03681*
Y03679*
Y03678*
Y03676*
Y03675*
Y03673*
Y03672*
Y03671*
X08562*
Y03669*
Y03668*
Y03666*
Y03665*
Y03664*
Y03662*
X08534*
Y03661*
Y03659*
Y03658*
Y03656*
Y03655*
Y03654*
Y03652*
Y03651*
Y03649*
Y03648*
Y03646*
Y03645*
Y03644*
Y03642*
Y03641*
Y03639*
Y03638*
Y03637*
Y03635*
Y03634*
X0852*
Y03632*
Y03631*
Y03629*
Y03628*
Y03627*
Y03625*
Y03624*
Y03622*
Y03621*
Y03619*
Y03618*
Y03617*
Y03615*
Y03614*
X08534*
Y03612*
Y03611*
Y0361*
Y03608*
Y03607*
Y03605*
X08477*
Y03604*
Y03602*
Y03601*
Y036*
Y03598*
Y03597*
Y03595*
Y03594*
Y03592*
Y03591*
Y0359*
Y03588*
Y03587*
Y03585*
Y03584*
Y03582*
Y03581*
Y0358*
Y03578*
Y03577*
X08454*
Y03578*
Y0358*
Y03581*
Y03582*
Y03584*
Y03585*
X08468*
Y03587*
Y03588*
Y0359*
Y03591*
Y03592*
Y03594*
Y03595*
Y03597*
Y03598*
Y036*
Y03601*
Y03602*
Y03604*
Y03605*
X08426*
Y03607*
Y03608*
Y0361*
Y03611*
Y03612*
Y03614*
X0844*
Y03615*
Y03617*
Y03618*
Y03619*
Y03621*
Y03622*
Y03624*
Y03625*
Y03627*
Y03628*
Y03629*
Y03631*
Y03632*
Y03634*
Y03635*
Y03637*
Y03638*
Y03639*
Y03641*
Y03642*
X08454*
Y03644*
Y03645*
Y03646*
Y03648*
Y03649*
Y03651*
Y03652*
Y03654*
Y03655*
Y03656*
Y03658*
Y03659*
Y03661*
Y03662*
Y03664*
Y03665*
Y03666*
Y03668*
Y03669*
Y03671*
X08483*
Y03672*
Y03673*
Y03675*
Y03676*
Y03678*
Y03679*
Y03681*
Y03682*
Y03683*
Y03685*
X08491*
Y03683*
Y03682*
Y03681*
Y03679*
Y03678*
Y03676*
Y03675*
Y03673*
Y03672*
Y03671*
X08525*
Y03672*
Y03673*
Y03675*
Y03676*
Y03678*
Y03679*
Y03681*
Y03682*
Y03683*
Y03685*
Y03686*
Y03688*
Y03689*
Y03691*
X08511*
Y03692*
Y03693*
Y03695*
Y03696*
Y03698*
Y03699*
Y037*
Y03702*
Y03703*
Y03705*
Y03706*
Y03708*
Y03709*
Y0371*
Y03712*
Y03713*
X0852*
Y03712*
G37*
G36*
X0842Y03669D02*
Y03668D01*
Y03666*
Y03665*
Y03664*
Y03662*
X08412*
Y03664*
Y03665*
Y03666*
Y03668*
Y03669*
Y03671*
X0842*
Y03669*
G37*
G36*
X08335Y03683D02*
Y03682D01*
Y03681*
Y03679*
Y03678*
Y03676*
Y03675*
Y03673*
Y03672*
Y03671*
Y03669*
Y03668*
Y03666*
Y03665*
Y03664*
Y03662*
X08312*
Y03664*
Y03665*
Y03666*
Y03668*
Y03669*
Y03671*
X08326*
Y03672*
Y03673*
Y03675*
Y03676*
Y03678*
Y03679*
Y03681*
Y03682*
Y03683*
Y03685*
X08335*
Y03683*
G37*
G36*
X08434Y03655D02*
Y03654D01*
Y03652*
Y03651*
Y03649*
Y03648*
X08426*
Y03649*
Y03651*
Y03652*
Y03654*
Y03655*
Y03656*
X08434*
Y03655*
G37*
G36*
X08349D02*
Y03654D01*
Y03652*
Y03651*
Y03649*
Y03648*
X0834*
Y03649*
Y03651*
Y03652*
Y03654*
Y03655*
Y03656*
X08349*
Y03655*
G37*
G36*
X0842Y03641D02*
Y03639D01*
Y03638*
Y03637*
Y03635*
Y03634*
Y03632*
Y03631*
Y03629*
Y03628*
Y03627*
Y03625*
Y03624*
Y03622*
Y03621*
Y03619*
X08412*
Y03621*
Y03622*
Y03624*
Y03625*
Y03627*
Y03628*
Y03629*
Y03631*
Y03632*
Y03634*
Y03635*
Y03637*
Y03638*
Y03639*
Y03641*
Y03642*
X0842*
Y03641*
G37*
G36*
X08562Y03627D02*
Y03625D01*
Y03624*
Y03622*
Y03621*
Y03619*
Y03618*
Y03617*
Y03615*
Y03614*
Y03612*
Y03611*
Y0361*
Y03608*
Y03607*
Y03605*
X08554*
Y03607*
Y03608*
Y0361*
Y03611*
Y03612*
Y03614*
Y03615*
Y03617*
Y03618*
Y03619*
Y03621*
Y03622*
Y03624*
Y03625*
Y03627*
Y03628*
X08562*
Y03627*
G37*
G36*
X08363Y03598D02*
Y03597D01*
Y03595*
Y03594*
Y03592*
Y03591*
X08355*
Y03592*
Y03594*
Y03595*
Y03597*
Y03598*
Y036*
X08363*
Y03598*
G37*
G36*
X08335Y03641D02*
Y03639D01*
Y03638*
Y03637*
Y03635*
Y03634*
Y03632*
Y03631*
Y03629*
Y03628*
X08349*
Y03627*
Y03625*
Y03624*
Y03622*
Y03621*
Y03619*
Y03618*
Y03617*
Y03615*
Y03614*
Y03612*
Y03611*
Y0361*
Y03608*
Y03607*
Y03605*
X08321*
Y03604*
Y03602*
Y03601*
Y036*
Y03598*
Y03597*
Y03595*
Y03594*
Y03592*
Y03591*
X08284*
Y03592*
Y03594*
Y03595*
Y03597*
Y03598*
Y036*
Y03601*
Y03602*
Y03604*
Y03605*
Y03607*
Y03608*
Y0361*
Y03611*
Y03612*
Y03614*
X08312*
Y03615*
Y03617*
Y03618*
Y03619*
Y03621*
Y03622*
Y03624*
Y03625*
Y03627*
Y03628*
X08326*
Y03629*
Y03631*
Y03632*
Y03634*
Y03635*
Y03637*
Y03638*
Y03639*
Y03641*
Y03642*
X08335*
Y03641*
G37*
G36*
X08576Y03598D02*
Y03597D01*
Y03595*
Y03594*
Y03592*
Y03591*
Y0359*
Y03588*
Y03587*
Y03585*
Y03584*
Y03582*
Y03581*
Y0358*
Y03578*
Y03577*
Y03575*
Y03574*
Y03573*
Y03571*
Y0357*
Y03568*
Y03567*
Y03565*
Y03564*
Y03563*
X08568*
Y03564*
Y03565*
Y03567*
Y03568*
Y0357*
Y03571*
Y03573*
Y03574*
Y03575*
Y03577*
X08548*
Y03575*
Y03574*
Y03573*
Y03571*
Y0357*
Y03568*
Y03567*
Y03565*
Y03564*
Y03563*
X08525*
Y03564*
Y03565*
Y03567*
Y03568*
Y0357*
Y03571*
X08539*
Y03573*
Y03574*
Y03575*
Y03577*
Y03578*
Y0358*
Y03581*
Y03582*
Y03584*
Y03585*
X08568*
Y03587*
Y03588*
Y0359*
Y03591*
Y03592*
Y03594*
Y03595*
Y03597*
Y03598*
Y036*
X08576*
Y03598*
G37*
G36*
X08349Y03584D02*
Y03582D01*
Y03581*
Y0358*
Y03578*
Y03577*
X08335*
Y03575*
Y03574*
Y03573*
Y03571*
Y0357*
Y03568*
Y03567*
Y03565*
Y03564*
Y03563*
X08321*
Y03561*
Y0356*
Y03558*
Y03557*
Y03555*
Y03554*
Y03553*
Y03551*
Y0355*
Y03548*
X08284*
Y0355*
Y03551*
Y03553*
Y03554*
Y03555*
Y03557*
Y03558*
Y0356*
Y03561*
Y03563*
Y03564*
Y03565*
Y03567*
Y03568*
Y0357*
Y03571*
X08292*
Y0357*
Y03568*
Y03567*
Y03565*
Y03564*
Y03563*
Y03561*
Y0356*
Y03558*
Y03557*
X08312*
Y03558*
Y0356*
Y03561*
Y03563*
Y03564*
Y03565*
Y03567*
Y03568*
Y0357*
Y03571*
X08326*
Y03573*
Y03574*
Y03575*
Y03577*
Y03578*
Y0358*
Y03581*
Y03582*
Y03584*
Y03585*
X08349*
Y03584*
G37*
G36*
X0852Y03555D02*
Y03554D01*
Y03553*
Y03551*
Y0355*
Y03548*
X08511*
Y0355*
Y03551*
Y03553*
Y03554*
Y03555*
Y03557*
X0852*
Y03555*
G37*
G36*
Y03584D02*
Y03582D01*
Y03581*
Y0358*
Y03578*
Y03577*
X08505*
Y03575*
Y03574*
Y03573*
Y03571*
Y0357*
Y03568*
Y03567*
Y03565*
Y03564*
Y03563*
X08491*
Y03561*
Y0356*
Y03558*
Y03557*
Y03555*
Y03554*
Y03553*
Y03551*
Y0355*
Y03548*
X08483*
Y0355*
Y03551*
Y03553*
Y03554*
Y03555*
Y03557*
Y03558*
Y0356*
Y03561*
Y03563*
Y03564*
Y03565*
Y03567*
Y03568*
Y0357*
Y03571*
X08497*
Y03573*
Y03574*
Y03575*
Y03577*
Y03578*
Y0358*
Y03581*
Y03582*
Y03584*
Y03585*
X0852*
Y03584*
G37*
G36*
X08434D02*
Y03582D01*
Y03581*
Y0358*
Y03578*
Y03577*
Y03575*
Y03574*
Y03573*
Y03571*
Y0357*
Y03568*
Y03567*
Y03565*
Y03564*
Y03563*
Y03561*
Y0356*
Y03558*
Y03557*
X08463*
Y03555*
Y03554*
Y03553*
Y03551*
Y0355*
Y03548*
X08426*
Y0355*
Y03551*
Y03553*
Y03554*
Y03555*
Y03557*
Y03558*
Y0356*
Y03561*
Y03563*
Y03564*
Y03565*
Y03567*
Y03568*
Y0357*
Y03571*
Y03573*
Y03574*
Y03575*
Y03577*
X08412*
Y03578*
Y0358*
Y03581*
Y03582*
Y03584*
Y03585*
X08434*
Y03584*
G37*
G36*
X08363Y03698D02*
Y03696D01*
Y03695*
Y03693*
Y03692*
Y03691*
Y03689*
Y03688*
Y03686*
Y03685*
X08377*
Y03683*
Y03682*
Y03681*
Y03679*
Y03678*
Y03676*
Y03675*
Y03673*
Y03672*
Y03671*
X08392*
Y03669*
Y03668*
Y03666*
Y03665*
Y03664*
Y03662*
Y03661*
Y03659*
Y03658*
Y03656*
X08406*
Y03655*
Y03654*
Y03652*
Y03651*
Y03649*
Y03648*
X08392*
Y03646*
Y03645*
Y03644*
Y03642*
Y03641*
Y03639*
Y03638*
Y03637*
Y03635*
Y03634*
Y03632*
Y03631*
Y03629*
Y03628*
Y03627*
Y03625*
Y03624*
Y03622*
Y03621*
Y03619*
Y03618*
Y03617*
Y03615*
Y03614*
Y03612*
Y03611*
Y0361*
Y03608*
Y03607*
Y03605*
Y03604*
Y03602*
Y03601*
Y036*
Y03598*
Y03597*
Y03595*
Y03594*
Y03592*
Y03591*
Y0359*
Y03588*
Y03587*
Y03585*
Y03584*
Y03582*
Y03581*
Y0358*
Y03578*
Y03577*
Y03575*
Y03574*
Y03573*
Y03571*
Y0357*
Y03568*
Y03567*
Y03565*
Y03564*
Y03563*
X08377*
Y03561*
Y0356*
Y03558*
Y03557*
Y03555*
Y03554*
Y03553*
Y03551*
Y0355*
Y03548*
X08369*
Y0355*
Y03551*
Y03553*
Y03554*
Y03555*
Y03557*
Y03558*
Y0356*
Y03561*
Y03563*
Y03564*
Y03565*
Y03567*
Y03568*
Y0357*
Y03571*
X08383*
Y03573*
Y03574*
Y03575*
Y03577*
Y03578*
Y0358*
Y03581*
Y03582*
Y03584*
Y03585*
Y03587*
Y03588*
Y0359*
Y03591*
Y03592*
Y03594*
Y03595*
Y03597*
Y03598*
Y036*
Y03601*
Y03602*
Y03604*
Y03605*
Y03607*
Y03608*
Y0361*
Y03611*
Y03612*
Y03614*
Y03615*
Y03617*
Y03618*
Y03619*
X08369*
Y03621*
Y03622*
Y03624*
Y03625*
Y03627*
Y03628*
X08383*
Y03629*
Y03631*
Y03632*
Y03634*
Y03635*
Y03637*
Y03638*
Y03639*
Y03641*
Y03642*
Y03644*
Y03645*
Y03646*
Y03648*
X08369*
Y03649*
Y03651*
Y03652*
Y03654*
Y03655*
Y03656*
Y03658*
Y03659*
Y03661*
Y03662*
Y03664*
Y03665*
Y03666*
Y03668*
Y03669*
Y03671*
Y03672*
Y03673*
Y03675*
Y03676*
X08355*
Y03678*
Y03679*
Y03681*
Y03682*
Y03683*
Y03685*
Y03686*
Y03688*
Y03689*
Y03691*
X0834*
Y03692*
Y03693*
Y03695*
Y03696*
Y03698*
Y03699*
X08363*
Y03698*
G37*
G36*
X08349Y03555D02*
Y03554D01*
Y03553*
Y03551*
Y0355*
Y03548*
X0834*
Y0355*
Y03551*
Y03553*
Y03554*
Y03555*
Y03557*
X08349*
Y03555*
G37*
G36*
X08264Y03641D02*
Y03639D01*
Y03638*
Y03637*
Y03635*
Y03634*
Y03632*
Y03631*
Y03629*
Y03628*
Y03627*
Y03625*
Y03624*
Y03622*
Y03621*
Y03619*
Y03618*
Y03617*
Y03615*
Y03614*
Y03612*
Y03611*
Y0361*
Y03608*
Y03607*
Y03605*
Y03604*
Y03602*
Y03601*
Y036*
Y03598*
Y03597*
Y03595*
Y03594*
Y03592*
Y03591*
Y0359*
Y03588*
Y03587*
Y03585*
Y03584*
Y03582*
Y03581*
Y0358*
Y03578*
Y03577*
Y03575*
Y03574*
Y03573*
Y03571*
Y0357*
Y03568*
Y03567*
Y03565*
Y03564*
Y03563*
Y03561*
Y0356*
Y03558*
Y03557*
Y03555*
Y03554*
Y03553*
Y03551*
Y0355*
Y03548*
X0817*
Y0355*
Y03551*
Y03553*
Y03554*
Y03555*
Y03557*
Y03558*
Y0356*
Y03561*
Y03563*
Y03564*
Y03565*
Y03567*
Y03568*
Y0357*
Y03571*
Y03573*
Y03574*
Y03575*
Y03577*
Y03578*
Y0358*
Y03581*
Y03582*
Y03584*
Y03585*
Y03587*
Y03588*
Y0359*
Y03591*
Y03592*
Y03594*
Y03595*
Y03597*
Y03598*
Y036*
Y03601*
Y03602*
Y03604*
Y03605*
Y03607*
Y03608*
Y0361*
Y03611*
Y03612*
Y03614*
Y03615*
Y03617*
Y03618*
Y03619*
Y03621*
Y03622*
Y03624*
Y03625*
Y03627*
Y03628*
Y03629*
Y03631*
Y03632*
Y03634*
Y03635*
Y03637*
Y03638*
Y03639*
Y03641*
Y03642*
X08264*
Y03641*
G37*
%LN6502_carrier-2*%
%LPC*%
G36*
X08568Y03946D02*
X08491D01*
Y03945*
Y03944*
Y03942*
Y03941*
Y03939*
Y03938*
Y03936*
Y03935*
Y03934*
Y03932*
Y03931*
Y03929*
Y03928*
Y03926*
Y03925*
Y03924*
Y03922*
Y03921*
Y03919*
Y03918*
Y03917*
Y03915*
Y03914*
Y03912*
Y03911*
Y03909*
Y03908*
Y03907*
Y03905*
Y03904*
Y03902*
Y03901*
Y03899*
Y03898*
Y03897*
Y03895*
Y03894*
Y03892*
Y03891*
Y0389*
Y03888*
Y03887*
Y03885*
Y03884*
Y03882*
Y03881*
Y0388*
Y03878*
Y03877*
Y03875*
Y03874*
Y03872*
Y03871*
Y0387*
X08568*
Y03871*
Y03872*
Y03874*
Y03875*
Y03877*
Y03878*
Y0388*
Y03881*
Y03882*
Y03884*
Y03885*
Y03887*
Y03888*
Y0389*
Y03891*
Y03892*
Y03894*
Y03895*
Y03897*
Y03898*
Y03899*
Y03901*
Y03902*
Y03904*
Y03905*
Y03907*
Y03908*
Y03909*
Y03911*
Y03912*
Y03914*
Y03915*
Y03917*
Y03918*
Y03919*
Y03921*
Y03922*
Y03924*
Y03925*
Y03926*
Y03928*
Y03929*
Y03931*
Y03932*
Y03934*
Y03935*
Y03936*
Y03938*
Y03939*
Y03941*
Y03942*
Y03944*
Y03945*
Y03946*
G37*
G36*
X08255D02*
X08178D01*
Y03945*
Y03944*
Y03942*
Y03941*
Y03939*
Y03938*
Y03936*
Y03935*
Y03934*
Y03932*
Y03931*
Y03929*
Y03928*
Y03926*
Y03925*
Y03924*
Y03922*
Y03921*
Y03919*
Y03918*
Y03917*
Y03915*
Y03914*
Y03912*
Y03911*
Y03909*
Y03908*
Y03907*
Y03905*
Y03904*
Y03902*
Y03901*
Y03899*
Y03898*
Y03897*
Y03895*
Y03894*
Y03892*
Y03891*
Y0389*
Y03888*
Y03887*
Y03885*
Y03884*
Y03882*
Y03881*
Y0388*
Y03878*
Y03877*
Y03875*
Y03874*
Y03872*
Y03871*
Y0387*
X08255*
Y03871*
Y03872*
Y03874*
Y03875*
Y03877*
Y03878*
Y0388*
Y03881*
Y03882*
Y03884*
Y03885*
Y03887*
Y03888*
Y0389*
Y03891*
Y03892*
Y03894*
Y03895*
Y03897*
Y03898*
Y03899*
Y03901*
Y03902*
Y03904*
Y03905*
Y03907*
Y03908*
Y03909*
Y03911*
Y03912*
Y03914*
Y03915*
Y03917*
Y03918*
Y03919*
Y03921*
Y03922*
Y03924*
Y03925*
Y03926*
Y03928*
Y03929*
Y03931*
Y03932*
Y03934*
Y03935*
Y03936*
Y03938*
Y03939*
Y03941*
Y03942*
Y03944*
Y03945*
Y03946*
G37*
G36*
X08412Y03818D02*
X08392D01*
Y03817*
Y03816*
Y03814*
Y03813*
Y03811*
Y0381*
Y03808*
Y03807*
Y03806*
Y03804*
Y03803*
Y03801*
Y038*
Y03799*
X08412*
Y038*
Y03801*
Y03803*
Y03804*
Y03806*
Y03807*
Y03808*
Y0381*
Y03811*
Y03813*
Y03814*
Y03816*
Y03817*
Y03818*
G37*
G36*
X0844Y03747D02*
X08406D01*
Y03746*
Y03745*
Y03743*
Y03742*
Y0374*
Y03739*
Y03737*
Y03736*
Y03735*
Y03733*
Y03732*
Y0373*
Y03729*
Y03727*
Y03726*
Y03725*
Y03723*
Y03722*
Y0372*
Y03719*
Y03718*
Y03716*
Y03715*
Y03713*
X0844*
Y03715*
Y03716*
Y03718*
Y03719*
Y0372*
Y03722*
Y03723*
Y03725*
Y03726*
Y03727*
Y03729*
Y0373*
Y03732*
Y03733*
Y03735*
Y03736*
Y03737*
Y03739*
Y0374*
Y03742*
Y03743*
Y03745*
Y03746*
Y03747*
G37*
G36*
X08269Y03719D02*
X0825D01*
Y03718*
Y03716*
Y03715*
Y03713*
Y03712*
Y0371*
Y03709*
Y03708*
Y03706*
Y03705*
Y03703*
Y03702*
Y037*
Y03699*
X08269*
Y037*
Y03702*
Y03703*
Y03705*
Y03706*
Y03708*
Y03709*
Y0371*
Y03712*
Y03713*
Y03715*
Y03716*
Y03718*
Y03719*
G37*
G36*
X08241D02*
X08207D01*
Y03718*
Y03716*
Y03715*
Y03713*
Y03712*
Y0371*
Y03709*
Y03708*
Y03706*
Y03705*
Y03703*
Y03702*
Y037*
Y03699*
X08241*
Y037*
Y03702*
Y03703*
Y03705*
Y03706*
Y03708*
Y03709*
Y0371*
Y03712*
Y03713*
Y03715*
Y03716*
Y03718*
Y03719*
G37*
G36*
X08511Y03662D02*
X08463D01*
Y03661*
Y03659*
Y03658*
Y03656*
Y03655*
Y03654*
Y03652*
Y03651*
Y03649*
Y03648*
Y03646*
Y03645*
Y03644*
Y03642*
Y03641*
Y03639*
Y03638*
Y03637*
Y03635*
Y03634*
Y03632*
Y03631*
Y03629*
Y03628*
Y03627*
Y03625*
Y03624*
Y03622*
Y03621*
Y03619*
Y03618*
Y03617*
Y03615*
Y03614*
X08511*
Y03615*
Y03617*
Y03618*
Y03619*
Y03621*
Y03622*
Y03624*
Y03625*
Y03627*
Y03628*
Y03629*
Y03631*
Y03632*
Y03634*
Y03635*
Y03637*
Y03638*
Y03639*
Y03641*
Y03642*
Y03644*
Y03645*
Y03646*
Y03648*
Y03649*
Y03651*
Y03652*
Y03654*
Y03655*
Y03656*
Y03658*
Y03659*
Y03661*
Y03662*
G37*
G36*
X08255Y03634D02*
X08178D01*
Y03632*
Y03631*
Y03629*
Y03628*
Y03627*
Y03625*
Y03624*
Y03622*
Y03621*
Y03619*
Y03618*
Y03617*
Y03615*
Y03614*
Y03612*
Y03611*
Y0361*
Y03608*
Y03607*
Y03605*
Y03604*
Y03602*
Y03601*
Y036*
Y03598*
Y03597*
Y03595*
Y03594*
Y03592*
Y03591*
Y0359*
Y03588*
Y03587*
Y03585*
Y03584*
Y03582*
Y03581*
Y0358*
Y03578*
Y03577*
Y03575*
Y03574*
Y03573*
Y03571*
Y0357*
Y03568*
Y03567*
Y03565*
Y03564*
Y03563*
Y03561*
Y0356*
Y03558*
Y03557*
X08255*
Y03558*
Y0356*
Y03561*
Y03563*
Y03564*
Y03565*
Y03567*
Y03568*
Y0357*
Y03571*
Y03573*
Y03574*
Y03575*
Y03577*
Y03578*
Y0358*
Y03581*
Y03582*
Y03584*
Y03585*
Y03587*
Y03588*
Y0359*
Y03591*
Y03592*
Y03594*
Y03595*
Y03597*
Y03598*
Y036*
Y03601*
Y03602*
Y03604*
Y03605*
Y03607*
Y03608*
Y0361*
Y03611*
Y03612*
Y03614*
Y03615*
Y03617*
Y03618*
Y03619*
Y03621*
Y03622*
Y03624*
Y03625*
Y03627*
Y03628*
Y03629*
Y03631*
Y03632*
Y03634*
G37*
%LN6502_carrier-3*%
%LPD*%
G36*
X08548Y03925D02*
Y03924D01*
Y03922*
Y03921*
Y03919*
Y03918*
Y03917*
Y03915*
Y03914*
Y03912*
Y03911*
Y03909*
Y03908*
Y03907*
Y03905*
Y03904*
Y03902*
Y03901*
Y03899*
Y03898*
Y03897*
Y03895*
Y03894*
Y03892*
Y03891*
Y0389*
X08511*
Y03891*
Y03892*
Y03894*
Y03895*
Y03897*
Y03898*
Y03899*
Y03901*
Y03902*
Y03904*
Y03905*
Y03907*
Y03908*
Y03909*
Y03911*
Y03912*
Y03914*
Y03915*
Y03917*
Y03918*
Y03919*
Y03921*
Y03922*
Y03924*
Y03925*
Y03926*
X08548*
Y03925*
G37*
G36*
X08235D02*
Y03924D01*
Y03922*
Y03921*
Y03919*
Y03918*
Y03917*
Y03915*
Y03914*
Y03912*
Y03911*
Y03909*
Y03908*
Y03907*
Y03905*
Y03904*
Y03902*
Y03901*
Y03899*
Y03898*
Y03897*
Y03895*
Y03894*
Y03892*
Y03891*
Y0389*
X08198*
Y03891*
Y03892*
Y03894*
Y03895*
Y03897*
Y03898*
Y03899*
Y03901*
Y03902*
Y03904*
Y03905*
Y03907*
Y03908*
Y03909*
Y03911*
Y03912*
Y03914*
Y03915*
Y03917*
Y03918*
Y03919*
Y03921*
Y03922*
Y03924*
Y03925*
Y03926*
X08235*
Y03925*
G37*
G36*
X08491Y03641D02*
Y03639D01*
Y03638*
Y03637*
Y03635*
Y03634*
X08483*
Y03635*
Y03637*
Y03638*
Y03639*
Y03641*
Y03642*
X08491*
Y03641*
G37*
G36*
X08235Y03612D02*
Y03611D01*
Y0361*
Y03608*
Y03607*
Y03605*
Y03604*
Y03602*
Y03601*
Y036*
Y03598*
Y03597*
Y03595*
Y03594*
Y03592*
Y03591*
Y0359*
Y03588*
Y03587*
Y03585*
Y03584*
Y03582*
Y03581*
Y0358*
Y03578*
Y03577*
X08198*
Y03578*
Y0358*
Y03581*
Y03582*
Y03584*
Y03585*
Y03587*
Y03588*
Y0359*
Y03591*
Y03592*
Y03594*
Y03595*
Y03597*
Y03598*
Y036*
Y03601*
Y03602*
Y03604*
Y03605*
Y03607*
Y03608*
Y0361*
Y03611*
Y03612*
Y03614*
X08235*
Y03612*
G37*
G54D19*
X06814Y04405D02*
D01*
X06814Y04405*
X06814Y04405*
X06814Y04405*
X06814Y04405*
X06814Y04405*
X06814Y04405*
X06814Y04405*
X06814Y04406*
X06814Y04406*
X06814Y04406*
X06814Y04406*
X06814Y04406*
X06814Y04406*
X06814Y04406*
X06813Y04406*
X06813Y04406*
X06813Y04406*
X06813Y04406*
X06813Y04406*
X06813Y04406*
X06813Y04406*
X06813Y04406*
X06813*
X06813Y04406*
X06813Y04406*
X06813Y04406*
X06812Y04406*
X06812Y04406*
X06812Y04406*
X06812Y04406*
X06812Y04406*
X06812Y04406*
X06812Y04406*
X06812Y04406*
X06812Y04406*
X06812Y04406*
X06812Y04406*
X06812Y04405*
X06812Y04405*
X06812Y04405*
X06812Y04405*
X06812Y04405*
X06812Y04405*
X06812Y04405*
X06812Y04405*
X06812Y04405*
X06812Y04405*
X06812Y04405*
X06812Y04405*
X06812Y04405*
X06812Y04404*
X06812Y04404*
X06812Y04404*
X06812Y04404*
X06812Y04404*
X06812Y04404*
X06812Y04404*
X06812Y04404*
X06812Y04404*
X06812Y04404*
X06812Y04404*
X06812Y04404*
X06812Y04404*
X06813Y04404*
X06813Y04404*
X06813Y04404*
X06813Y04404*
X06813*
X06813Y04404*
X06813Y04404*
X06813Y04404*
X06813Y04404*
X06813Y04404*
X06813Y04404*
X06813Y04404*
X06814Y04404*
X06814Y04404*
X06814Y04404*
X06814Y04404*
X06814Y04404*
X06814Y04404*
X06814Y04404*
X06814Y04404*
X06814Y04404*
X06814Y04405*
X06814Y04405*
X06814Y04405*
X06814Y04405*
X06814Y04405*
X06814Y04405*
X0815Y03507D02*
D01*
X0815Y03507*
X0815Y03507*
X0815Y03507*
X0815Y03507*
X08149Y03507*
X08149Y03507*
X08149Y03507*
X08149Y03507*
X08149Y03507*
X08149Y03507*
X08149Y03508*
X08149Y03508*
X08149Y03508*
X08149Y03508*
X08149Y03508*
X08149Y03508*
X08149Y03508*
X08149Y03508*
X08149Y03508*
X08149Y03508*
X08149Y03508*
X08148Y03508*
X08148*
X08148Y03508*
X08148Y03508*
X08148Y03508*
X08148Y03508*
X08148Y03508*
X08148Y03508*
X08148Y03508*
X08148Y03508*
X08148Y03508*
X08148Y03508*
X08148Y03508*
X08147Y03507*
X08147Y03507*
X08147Y03507*
X08147Y03507*
X08147Y03507*
X08147Y03507*
X08147Y03507*
X08147Y03507*
X08147Y03507*
X08147Y03507*
X08147Y03507*
X08147Y03507*
X08147Y03507*
X08147Y03506*
X08147Y03506*
X08147Y03506*
X08147Y03506*
X08147Y03506*
X08147Y03506*
X08147Y03506*
X08147Y03506*
X08148Y03506*
X08148Y03506*
X08148Y03506*
X08148Y03506*
X08148Y03506*
X08148Y03506*
X08148Y03506*
X08148Y03506*
X08148Y03506*
X08148Y03506*
X08148Y03506*
X08148Y03506*
X08148*
X08149Y03506*
X08149Y03506*
X08149Y03506*
X08149Y03506*
X08149Y03506*
X08149Y03506*
X08149Y03506*
X08149Y03506*
X08149Y03506*
X08149Y03506*
X08149Y03506*
X08149Y03506*
X08149Y03506*
X08149Y03506*
X08149Y03506*
X08149Y03506*
X08149Y03506*
X0815Y03506*
X0815Y03506*
X0815Y03507*
X0815Y03507*
X0815Y03507*
X05169Y04404D02*
D01*
X05169Y04404*
X05169Y04404*
X05169Y04404*
X05169Y04404*
X05169Y04404*
X05169Y04404*
X05169Y04404*
X05169Y04405*
X05169Y04405*
X05169Y04405*
X05169Y04405*
X05169Y04405*
X05169Y04405*
X05169Y04405*
X05168Y04405*
X05168Y04405*
X05168Y04405*
X05168Y04405*
X05168Y04405*
X05168Y04405*
X05168Y04405*
X05168Y04405*
X05168*
X05168Y04405*
X05168Y04405*
X05168Y04405*
X05167Y04405*
X05167Y04405*
X05167Y04405*
X05167Y04405*
X05167Y04405*
X05167Y04405*
X05167Y04405*
X05167Y04405*
X05167Y04405*
X05167Y04405*
X05167Y04405*
X05167Y04404*
X05167Y04404*
X05167Y04404*
X05167Y04404*
X05167Y04404*
X05167Y04404*
X05167Y04404*
X05167Y04404*
X05167Y04404*
X05167Y04404*
X05167Y04404*
X05167Y04404*
X05167Y04404*
X05167Y04403*
X05167Y04403*
X05167Y04403*
X05167Y04403*
X05167Y04403*
X05167Y04403*
X05167Y04403*
X05167Y04403*
X05167Y04403*
X05167Y04403*
X05167Y04403*
X05167Y04403*
X05167Y04403*
X05168Y04403*
X05168Y04403*
X05168Y04403*
X05168Y04403*
X05168*
X05168Y04403*
X05168Y04403*
X05168Y04403*
X05168Y04403*
X05168Y04403*
X05168Y04403*
X05168Y04403*
X05169Y04403*
X05169Y04403*
X05169Y04403*
X05169Y04403*
X05169Y04403*
X05169Y04403*
X05169Y04403*
X05169Y04403*
X05169Y04403*
X05169Y04404*
X05169Y04404*
X05169Y04404*
X05169Y04404*
X05169Y04404*
X05169Y04404*
X01856Y02834D02*
D01*
X01856Y02834*
X01856Y02834*
X01856Y02834*
X01856Y02834*
X01856Y02834*
X01856Y02835*
X01856Y02835*
X01856Y02835*
X01855Y02835*
X01855Y02835*
X01855Y02835*
X01855Y02835*
X01855Y02835*
X01855Y02835*
X01855Y02835*
X01855Y02835*
X01855Y02835*
X01855Y02835*
X01855Y02835*
X01855Y02835*
X01855Y02835*
X01855Y02835*
X01854*
X01854Y02835*
X01854Y02835*
X01854Y02835*
X01854Y02835*
X01854Y02835*
X01854Y02835*
X01854Y02835*
X01854Y02835*
X01854Y02835*
X01854Y02835*
X01854Y02835*
X01854Y02835*
X01854Y02835*
X01853Y02835*
X01853Y02835*
X01853Y02835*
X01853Y02834*
X01853Y02834*
X01853Y02834*
X01853Y02834*
X01853Y02834*
X01853Y02834*
X01853Y02834*
X01853Y02834*
X01853Y02834*
X01853Y02834*
X01853Y02834*
X01853Y02834*
X01853Y02834*
X01853Y02833*
X01854Y02833*
X01854Y02833*
X01854Y02833*
X01854Y02833*
X01854Y02833*
X01854Y02833*
X01854Y02833*
X01854Y02833*
X01854Y02833*
X01854Y02833*
X01854Y02833*
X01854Y02833*
X01854Y02833*
X01854Y02833*
X01855*
X01855Y02833*
X01855Y02833*
X01855Y02833*
X01855Y02833*
X01855Y02833*
X01855Y02833*
X01855Y02833*
X01855Y02833*
X01855Y02833*
X01855Y02833*
X01855Y02833*
X01855Y02833*
X01855Y02833*
X01856Y02833*
X01856Y02834*
X01856Y02834*
X01856Y02834*
X01856Y02834*
X01856Y02834*
X01856Y02834*
X01856Y02834*
X01856Y02834*
X04171Y02844D02*
D01*
X04171Y02844*
X04171Y02844*
X04171Y02844*
X04171Y02844*
X04171Y02844*
X04171Y02845*
X04171Y02845*
X04171Y02845*
X0417Y02845*
X0417Y02845*
X0417Y02845*
X0417Y02845*
X0417Y02845*
X0417Y02845*
X0417Y02845*
X0417Y02845*
X0417Y02845*
X0417Y02845*
X0417Y02845*
X0417Y02845*
X0417Y02845*
X0417Y02845*
X04169*
X04169Y02845*
X04169Y02845*
X04169Y02845*
X04169Y02845*
X04169Y02845*
X04169Y02845*
X04169Y02845*
X04169Y02845*
X04169Y02845*
X04169Y02845*
X04169Y02845*
X04169Y02845*
X04169Y02845*
X04168Y02845*
X04168Y02845*
X04168Y02845*
X04168Y02844*
X04168Y02844*
X04168Y02844*
X04168Y02844*
X04168Y02844*
X04168Y02844*
X04168Y02844*
X04168Y02844*
X04168Y02844*
X04168Y02844*
X04168Y02844*
X04168Y02844*
X04168Y02844*
X04168Y02843*
X04169Y02843*
X04169Y02843*
X04169Y02843*
X04169Y02843*
X04169Y02843*
X04169Y02843*
X04169Y02843*
X04169Y02843*
X04169Y02843*
X04169Y02843*
X04169Y02843*
X04169Y02843*
X04169Y02843*
X04169Y02843*
X0417*
X0417Y02843*
X0417Y02843*
X0417Y02843*
X0417Y02843*
X0417Y02843*
X0417Y02843*
X0417Y02843*
X0417Y02843*
X0417Y02843*
X0417Y02843*
X0417Y02843*
X0417Y02843*
X0417Y02843*
X04171Y02843*
X04171Y02844*
X04171Y02844*
X04171Y02844*
X04171Y02844*
X04171Y02844*
X04171Y02844*
X04171Y02844*
X04171Y02844*
X03426Y01495D02*
D01*
X03426Y01495*
X03426Y01495*
X03426Y01495*
X03426Y01495*
X03426Y01495*
X03426Y01496*
X03426Y01496*
X03426Y01496*
X03425Y01496*
X03425Y01496*
X03425Y01496*
X03425Y01496*
X03425Y01496*
X03425Y01496*
X03425Y01496*
X03425Y01496*
X03425Y01496*
X03425Y01496*
X03425Y01496*
X03425Y01496*
X03425Y01496*
X03425Y01496*
X03424*
X03424Y01496*
X03424Y01496*
X03424Y01496*
X03424Y01496*
X03424Y01496*
X03424Y01496*
X03424Y01496*
X03424Y01496*
X03424Y01496*
X03424Y01496*
X03424Y01496*
X03424Y01496*
X03424Y01496*
X03423Y01496*
X03423Y01496*
X03423Y01496*
X03423Y01495*
X03423Y01495*
X03423Y01495*
X03423Y01495*
X03423Y01495*
X03423Y01495*
X03423Y01495*
X03423Y01495*
X03423Y01495*
X03423Y01495*
X03423Y01495*
X03423Y01495*
X03423Y01494*
X03423Y01494*
X03424Y01494*
X03424Y01494*
X03424Y01494*
X03424Y01494*
X03424Y01494*
X03424Y01494*
X03424Y01494*
X03424Y01494*
X03424Y01494*
X03424Y01494*
X03424Y01494*
X03424Y01494*
X03424Y01494*
X03424Y01494*
X03425*
X03425Y01494*
X03425Y01494*
X03425Y01494*
X03425Y01494*
X03425Y01494*
X03425Y01494*
X03425Y01494*
X03425Y01494*
X03425Y01494*
X03425Y01494*
X03425Y01494*
X03425Y01494*
X03425Y01494*
X03426Y01494*
X03426Y01494*
X03426Y01495*
X03426Y01495*
X03426Y01495*
X03426Y01495*
X03426Y01495*
X03426Y01495*
X03426Y01495*
G54D20*
X0433Y01832D02*
D01*
X0433Y01832*
X0433Y01833*
X0433Y01833*
X04329Y01833*
X04329Y01833*
X04329Y01833*
X04329Y01833*
X04329Y01833*
X04329Y01834*
X04329Y01834*
X04329Y01834*
X04329Y01834*
X04329Y01834*
X04329Y01834*
X04328Y01834*
X04328Y01834*
X04328Y01834*
X04328Y01834*
X04328Y01834*
X04328Y01835*
X04327Y01835*
X04327Y01835*
X04327*
X04327Y01835*
X04327Y01835*
X04327Y01834*
X04326Y01834*
X04326Y01834*
X04326Y01834*
X04326Y01834*
X04326Y01834*
X04326Y01834*
X04326Y01834*
X04326Y01834*
X04325Y01834*
X04325Y01834*
X04325Y01833*
X04325Y01833*
X04325Y01833*
X04325Y01833*
X04325Y01833*
X04325Y01833*
X04325Y01833*
X04325Y01832*
X04325Y01832*
X04325Y01832*
X04325Y01832*
X04325Y01832*
X04325Y01832*
X04325Y01831*
X04325Y01831*
X04325Y01831*
X04325Y01831*
X04325Y01831*
X04325Y01831*
X04326Y01831*
X04326Y0183*
X04326Y0183*
X04326Y0183*
X04326Y0183*
X04326Y0183*
X04326Y0183*
X04326Y0183*
X04327Y0183*
X04327Y0183*
X04327Y0183*
X04327Y0183*
X04327*
X04327Y0183*
X04328Y0183*
X04328Y0183*
X04328Y0183*
X04328Y0183*
X04328Y0183*
X04328Y0183*
X04329Y0183*
X04329Y0183*
X04329Y0183*
X04329Y01831*
X04329Y01831*
X04329Y01831*
X04329Y01831*
X04329Y01831*
X04329Y01831*
X04329Y01831*
X04329Y01832*
X0433Y01832*
X0433Y01832*
X0433Y01832*
X0433Y01832*
G54D21*
X0867Y0107D02*
Y04555D01*
X0171D02*
X0867D01*
X0171Y0107D02*
Y04555D01*
Y0107D02*
X0867D01*
G54D22*
X01985Y01316D03*
Y01393D03*
G54D26*
X06683Y0349D03*
X0676D03*
X06683Y03365D03*
X0676D03*
X06683Y0324D03*
X0676D03*
X06683Y03115D03*
X0676D03*
X06683Y0299D03*
X0676D03*
X06683Y02865D03*
X0676D03*
X06683Y0274D03*
X0676D03*
X06683Y02615D03*
X0676D03*
X07875Y0438D03*
X07798D03*
X07875Y04259D03*
X07798D03*
X07875Y04138D03*
X07798D03*
X07875Y04018D03*
X07798D03*
X07875Y03897D03*
X07798D03*
X07875Y03777D03*
X07798D03*
X07875Y03656D03*
X07798D03*
X07875Y03536D03*
X07798D03*
X07875Y03415D03*
X07798D03*
X07875Y03294D03*
X07798D03*
X07875Y03174D03*
X07798D03*
X07875Y03053D03*
X07798D03*
X07875Y02933D03*
X07798D03*
X07875Y02812D03*
X07798D03*
X07875Y02692D03*
X07798D03*
X07875Y02571D03*
X07798D03*
G54D34*
X01985Y01211D03*
Y01152D03*
G54D35*
X075Y01693D03*
X07858D03*
X075Y0187D03*
X07858D03*
X075Y01243D03*
X07858D03*
X075Y0142D03*
X07858D03*
X08015Y01693D03*
X08373D03*
X08015Y0187D03*
X08373D03*
X075Y02168D03*
X07858D03*
X075Y02345D03*
X07858D03*
X0697Y01693D03*
X07328D03*
X0697Y0187D03*
X07328D03*
X02474Y01378D03*
X02115D03*
X02474Y01201D03*
X02115D03*
X021Y02396D03*
X02459D03*
X021Y02573D03*
X02459D03*
G54D36*
X08178Y0235D03*
X08251D03*
X08178Y0225D03*
X08251D03*
X07715Y01605D03*
X07643D03*
X07715Y01141D03*
X07643D03*
X08235Y01605D03*
X08163D03*
X07715Y02061D03*
X07643D03*
X07175Y01605D03*
X07103D03*
X04671Y01785D03*
X04598D03*
X01878Y0241D03*
X01951D03*
X02698Y01135D03*
X02625D03*
X02698Y01335D03*
X02625D03*
X02383Y01875D03*
X0231D03*
X02026Y0149D03*
X01953D03*
X02146Y04375D03*
X02073D03*
G54D37*
X08392Y02226D03*
Y02245D03*
Y02175D03*
Y02163D03*
X08392Y02206D03*
Y02194D03*
Y02395D03*
Y02383D03*
X08392Y02265D03*
Y02285D03*
Y02305D03*
Y02324D03*
Y02344D03*
Y02364D03*
Y02415D03*
Y02427D03*
G54D38*
X06961Y0349D03*
X06902D03*
X06961Y03365D03*
X06902D03*
X06961Y0324D03*
X06902D03*
X06961Y03115D03*
X06902D03*
X06961Y0299D03*
X06902D03*
X06961Y02866D03*
X06902D03*
X06961Y02741D03*
X06902D03*
X06961Y02616D03*
X06902D03*
X07597Y04385D03*
X07656D03*
X07597Y04264D03*
X07656D03*
X07597Y04143D03*
X07656D03*
X07597Y04022D03*
X07656D03*
X07597Y03901D03*
X07656D03*
X07597Y0378D03*
X07656D03*
X07597Y03659D03*
X07656D03*
X07597Y03538D03*
X07656D03*
X07597Y03417D03*
X07656D03*
X07597Y03296D03*
X07656D03*
X07597Y03175D03*
X07656D03*
X07597Y03054D03*
X07656D03*
X07597Y02933D03*
X07656D03*
X07597Y02812D03*
X07656D03*
X07597Y02691D03*
X07656D03*
X07597Y0257D03*
X07656D03*
G54D39*
X04319Y01785D03*
X045D03*
G54D40*
X04197Y01785D03*
X04122D03*
X06127Y02745D03*
X06202D03*
X01872Y0257D03*
X01947D03*
X02312Y02005D03*
X02387D03*
X05467Y01765D03*
X05542D03*
X02309Y0165D03*
X02384D03*
X02309Y01765D03*
X02384D03*
X06732Y03625D03*
X06807D03*
X02642Y0274D03*
X02717D03*
G54D41*
X03261Y01961D03*
Y01888D03*
G54D42*
X03266Y01152D03*
Y01227D03*
Y01657D03*
Y01582D03*
G54D43*
X02681Y01968D03*
Y01901D03*
G54D44*
X0306Y04195D03*
X0336D03*
Y03895D03*
G54D45*
X0306Y03895D03*
G54D46*
X06745Y01235D03*
Y02455D03*
X03785Y01235D03*
Y02455D03*
G54D47*
X04Y02455D03*
G54D48*
X041Y02455D03*
X042D03*
X043D03*
X044D03*
X045D03*
X046D03*
X047D03*
X048D03*
X049D03*
X05D03*
X051D03*
X052D03*
X053D03*
X054D03*
X055D03*
G54D49*
X07245Y01179D03*
Y04429D03*
X0182Y0118D03*
X08545Y0443D03*
X0182D03*
X08545Y0118D03*
G54D50*
X0673Y0437D03*
X05085Y04369D03*
G54D51*
X0613Y0437D03*
X0663D03*
X0653D03*
X0643D03*
X0633D03*
X0623D03*
X0603D03*
X0593D03*
X0583D03*
X0573D03*
X0563D03*
X0553D03*
X0543D03*
Y03746D03*
X0553D03*
X0563D03*
X0573D03*
X0583D03*
X0593D03*
X0603D03*
X0613D03*
X0623D03*
X0633D03*
X0643D03*
X0653D03*
X0663D03*
X0673D03*
X05085Y03745D03*
X04985D03*
X04885D03*
X04785D03*
X04685D03*
X04585D03*
X04485D03*
X04385D03*
X04285D03*
X04185D03*
X04085D03*
X03985D03*
X03885D03*
X03785D03*
Y04368D03*
X03885D03*
X03985D03*
X04085D03*
X04185D03*
X04285D03*
X04385D03*
X04585D03*
X04685D03*
X04785D03*
X04885D03*
X04985D03*
X04485D03*
X0191Y0347D03*
X0201D03*
X0211D03*
X0221D03*
X0231D03*
X0241D03*
X0251D03*
X0261D03*
X0271D03*
X0281D03*
X0291D03*
X0301D03*
X0311D03*
X0321D03*
X0331D03*
X0341D03*
X0351D03*
X0361D03*
X0371D03*
X0381D03*
Y0287D03*
X0371D03*
X0361D03*
X0351D03*
X0341D03*
X0331D03*
X0321D03*
X0311D03*
X0301D03*
X0291D03*
X0281D03*
X0271D03*
X0261D03*
X0251D03*
X0241D03*
X0231D03*
X0221D03*
X0211D03*
X0201D03*
X04225Y0348D03*
X04325D03*
X04425D03*
X04525D03*
X04625D03*
X04725D03*
X04825D03*
X04925D03*
X05025D03*
X05125D03*
X05225D03*
X05325D03*
X05425D03*
X05525D03*
X05625D03*
X05725D03*
X05825D03*
X05925D03*
X06025D03*
X06125D03*
Y0288D03*
X06025D03*
X05925D03*
X05825D03*
X05725D03*
X05625D03*
X05525D03*
X05425D03*
X05325D03*
X05225D03*
X05125D03*
X05025D03*
X04925D03*
X04825D03*
X04725D03*
X04625D03*
X04525D03*
X04425D03*
X04325D03*
G54D52*
X08572Y02464D03*
Y02124D03*
G54D53*
X08415Y02464D03*
Y02124D03*
G54D54*
X0721Y038D03*
X0731D03*
X0721Y036D03*
X0731D03*
X0721Y034D03*
X0731D03*
X0721Y031D03*
X0731D03*
X0721Y029D03*
X0731D03*
X0721Y027D03*
X0731D03*
X0721Y026D03*
X0731D03*
X0721Y023D03*
X0731D03*
X0721Y022D03*
X0731Y024D03*
X0721D03*
X0731Y025D03*
X0721D03*
X0731Y028D03*
X0721D03*
X0731Y03D03*
X0721D03*
X0731Y032D03*
X0721D03*
X0731Y033D03*
X0721D03*
X0731Y035D03*
X0721D03*
X0731Y037D03*
X0721D03*
X0731Y039D03*
Y04D03*
Y041D03*
X0721Y039D03*
Y04D03*
Y041D03*
X0243Y0391D03*
X0253Y0401D03*
Y0411D03*
X0243Y0401D03*
Y0411D03*
X02152Y0391D03*
X02252Y0401D03*
Y0411D03*
X02152Y0401D03*
Y0411D03*
X01875Y0391D03*
X01975Y0401D03*
Y0411D03*
X01875Y0401D03*
Y0411D03*
G54D55*
X0731Y022D03*
X0253Y0391D03*
X02252D03*
X01975D03*
G54D56*
X05532Y02215D03*
X05432D03*
X05332D03*
X05232D03*
X05132D03*
X05032D03*
X04932D03*
X04832D03*
X05532Y01915D03*
X05432D03*
X05332D03*
X05232D03*
X05132D03*
X05032D03*
X04932D03*
X05685D03*
X05785D03*
X05885D03*
X05985D03*
X06085D03*
X06185D03*
X06285D03*
X06385D03*
X05685Y02215D03*
X05785D03*
X05885D03*
X05985D03*
X06085D03*
X06185D03*
X06285D03*
X0399Y01915D03*
X0409D03*
X0419D03*
X0429D03*
X0439D03*
X0449D03*
X0459D03*
X0399Y02215D03*
X0409D03*
X0419D03*
X0429D03*
X0439D03*
X0449D03*
X06345Y0158D03*
X06245D03*
X06145D03*
X06045D03*
X05945D03*
X05845D03*
X05745D03*
X06345Y0128D03*
X06245D03*
X06145D03*
X06045D03*
X05945D03*
X05845D03*
X0547Y0158D03*
X0537D03*
X0527D03*
X0517D03*
X0507D03*
X0497D03*
X0487D03*
X0547Y0128D03*
X0537D03*
X0527D03*
X0517D03*
X0507D03*
X0497D03*
X04585Y01585D03*
X04485D03*
X04385D03*
X04285D03*
X04185D03*
X04085D03*
X03985D03*
X04585Y01285D03*
X04485D03*
X04385D03*
X04285D03*
X04185D03*
X04085D03*
X02835Y0134D03*
Y0124D03*
Y0114D03*
X03135Y0144D03*
Y0134D03*
Y0124D03*
Y0114D03*
X01885Y01875D03*
Y01775D03*
Y01675D03*
X02185Y01975D03*
Y01875D03*
Y01775D03*
Y01675D03*
X0283Y0188D03*
Y0178D03*
Y0168D03*
X0313Y0198D03*
Y0188D03*
Y0178D03*
Y0168D03*
X02775Y0221D03*
X02875D03*
X02975D03*
X03075D03*
X03175D03*
X03275D03*
X02675Y0251D03*
X02775D03*
X02875D03*
X02975D03*
X03075D03*
X03175D03*
X03275D03*
G54D57*
X04832Y01915D03*
X06385Y02215D03*
X0459D03*
X05745Y0128D03*
X0487D03*
X03985Y01285D03*
X02675Y0221D03*
G54D58*
X0832Y0321D03*
Y03107D03*
X0832Y03292D03*
Y03024D03*
X08221Y03292D03*
Y03024D03*
G54D59*
X08488Y03158D03*
X08449Y02889D03*
Y03428D03*
G54D60*
X02735Y04115D03*
G54D61*
X02735Y04015D03*
Y03915D03*
G54D62*
X0191Y0287D03*
X04225Y0288D03*
G54D63*
X0352Y01456D03*
Y01133D03*
G54D64*
X0352Y01295D03*
Y01216D03*
Y01373D03*
G54D65*
X0353Y02275D03*
Y02375D03*
Y01715D03*
Y01815D03*
G54D66*
X0353Y02475D03*
G54D67*
X02835Y0144D03*
X01885Y01975D03*
X0283Y0198D03*
G54D68*
X0353Y01915D03*
M02*