%FSTAX23Y23*%
%MOIN*%
%SFA1B1*%

%IPPOS*%
%ADD19C,0.002360*%
%ADD20C,0.004720*%
%ADD21C,0.002700*%
%ADD99C,0.003940*%
%LN6502_carrier-1*%
%LPD*%
G54D19*
X06814Y04405D02*
D01*
X06814Y04405*
X06814Y04405*
X06814Y04405*
X06814Y04405*
X06814Y04405*
X06814Y04405*
X06814Y04405*
X06814Y04406*
X06814Y04406*
X06814Y04406*
X06814Y04406*
X06814Y04406*
X06814Y04406*
X06814Y04406*
X06813Y04406*
X06813Y04406*
X06813Y04406*
X06813Y04406*
X06813Y04406*
X06813Y04406*
X06813Y04406*
X06813Y04406*
X06813*
X06813Y04406*
X06813Y04406*
X06813Y04406*
X06812Y04406*
X06812Y04406*
X06812Y04406*
X06812Y04406*
X06812Y04406*
X06812Y04406*
X06812Y04406*
X06812Y04406*
X06812Y04406*
X06812Y04406*
X06812Y04406*
X06812Y04405*
X06812Y04405*
X06812Y04405*
X06812Y04405*
X06812Y04405*
X06812Y04405*
X06812Y04405*
X06812Y04405*
X06812Y04405*
X06812Y04405*
X06812Y04405*
X06812Y04405*
X06812Y04405*
X06812Y04404*
X06812Y04404*
X06812Y04404*
X06812Y04404*
X06812Y04404*
X06812Y04404*
X06812Y04404*
X06812Y04404*
X06812Y04404*
X06812Y04404*
X06812Y04404*
X06812Y04404*
X06812Y04404*
X06813Y04404*
X06813Y04404*
X06813Y04404*
X06813Y04404*
X06813*
X06813Y04404*
X06813Y04404*
X06813Y04404*
X06813Y04404*
X06813Y04404*
X06813Y04404*
X06813Y04404*
X06814Y04404*
X06814Y04404*
X06814Y04404*
X06814Y04404*
X06814Y04404*
X06814Y04404*
X06814Y04404*
X06814Y04404*
X06814Y04404*
X06814Y04405*
X06814Y04405*
X06814Y04405*
X06814Y04405*
X06814Y04405*
X06814Y04405*
X0815Y03507D02*
D01*
X0815Y03507*
X0815Y03507*
X0815Y03507*
X0815Y03507*
X08149Y03507*
X08149Y03507*
X08149Y03507*
X08149Y03507*
X08149Y03507*
X08149Y03507*
X08149Y03508*
X08149Y03508*
X08149Y03508*
X08149Y03508*
X08149Y03508*
X08149Y03508*
X08149Y03508*
X08149Y03508*
X08149Y03508*
X08149Y03508*
X08149Y03508*
X08148Y03508*
X08148*
X08148Y03508*
X08148Y03508*
X08148Y03508*
X08148Y03508*
X08148Y03508*
X08148Y03508*
X08148Y03508*
X08148Y03508*
X08148Y03508*
X08148Y03508*
X08148Y03508*
X08147Y03507*
X08147Y03507*
X08147Y03507*
X08147Y03507*
X08147Y03507*
X08147Y03507*
X08147Y03507*
X08147Y03507*
X08147Y03507*
X08147Y03507*
X08147Y03507*
X08147Y03507*
X08147Y03507*
X08147Y03506*
X08147Y03506*
X08147Y03506*
X08147Y03506*
X08147Y03506*
X08147Y03506*
X08147Y03506*
X08147Y03506*
X08148Y03506*
X08148Y03506*
X08148Y03506*
X08148Y03506*
X08148Y03506*
X08148Y03506*
X08148Y03506*
X08148Y03506*
X08148Y03506*
X08148Y03506*
X08148Y03506*
X08148Y03506*
X08148*
X08149Y03506*
X08149Y03506*
X08149Y03506*
X08149Y03506*
X08149Y03506*
X08149Y03506*
X08149Y03506*
X08149Y03506*
X08149Y03506*
X08149Y03506*
X08149Y03506*
X08149Y03506*
X08149Y03506*
X08149Y03506*
X08149Y03506*
X08149Y03506*
X08149Y03506*
X0815Y03506*
X0815Y03506*
X0815Y03507*
X0815Y03507*
X0815Y03507*
X05169Y04404D02*
D01*
X05169Y04404*
X05169Y04404*
X05169Y04404*
X05169Y04404*
X05169Y04404*
X05169Y04404*
X05169Y04404*
X05169Y04405*
X05169Y04405*
X05169Y04405*
X05169Y04405*
X05169Y04405*
X05169Y04405*
X05169Y04405*
X05168Y04405*
X05168Y04405*
X05168Y04405*
X05168Y04405*
X05168Y04405*
X05168Y04405*
X05168Y04405*
X05168Y04405*
X05168*
X05168Y04405*
X05168Y04405*
X05168Y04405*
X05167Y04405*
X05167Y04405*
X05167Y04405*
X05167Y04405*
X05167Y04405*
X05167Y04405*
X05167Y04405*
X05167Y04405*
X05167Y04405*
X05167Y04405*
X05167Y04405*
X05167Y04404*
X05167Y04404*
X05167Y04404*
X05167Y04404*
X05167Y04404*
X05167Y04404*
X05167Y04404*
X05167Y04404*
X05167Y04404*
X05167Y04404*
X05167Y04404*
X05167Y04404*
X05167Y04404*
X05167Y04403*
X05167Y04403*
X05167Y04403*
X05167Y04403*
X05167Y04403*
X05167Y04403*
X05167Y04403*
X05167Y04403*
X05167Y04403*
X05167Y04403*
X05167Y04403*
X05167Y04403*
X05167Y04403*
X05168Y04403*
X05168Y04403*
X05168Y04403*
X05168Y04403*
X05168*
X05168Y04403*
X05168Y04403*
X05168Y04403*
X05168Y04403*
X05168Y04403*
X05168Y04403*
X05168Y04403*
X05169Y04403*
X05169Y04403*
X05169Y04403*
X05169Y04403*
X05169Y04403*
X05169Y04403*
X05169Y04403*
X05169Y04403*
X05169Y04403*
X05169Y04404*
X05169Y04404*
X05169Y04404*
X05169Y04404*
X05169Y04404*
X05169Y04404*
X01856Y02834D02*
D01*
X01856Y02834*
X01856Y02834*
X01856Y02834*
X01856Y02834*
X01856Y02834*
X01856Y02835*
X01856Y02835*
X01856Y02835*
X01855Y02835*
X01855Y02835*
X01855Y02835*
X01855Y02835*
X01855Y02835*
X01855Y02835*
X01855Y02835*
X01855Y02835*
X01855Y02835*
X01855Y02835*
X01855Y02835*
X01855Y02835*
X01855Y02835*
X01855Y02835*
X01854*
X01854Y02835*
X01854Y02835*
X01854Y02835*
X01854Y02835*
X01854Y02835*
X01854Y02835*
X01854Y02835*
X01854Y02835*
X01854Y02835*
X01854Y02835*
X01854Y02835*
X01854Y02835*
X01854Y02835*
X01853Y02835*
X01853Y02835*
X01853Y02835*
X01853Y02834*
X01853Y02834*
X01853Y02834*
X01853Y02834*
X01853Y02834*
X01853Y02834*
X01853Y02834*
X01853Y02834*
X01853Y02834*
X01853Y02834*
X01853Y02834*
X01853Y02834*
X01853Y02834*
X01853Y02833*
X01854Y02833*
X01854Y02833*
X01854Y02833*
X01854Y02833*
X01854Y02833*
X01854Y02833*
X01854Y02833*
X01854Y02833*
X01854Y02833*
X01854Y02833*
X01854Y02833*
X01854Y02833*
X01854Y02833*
X01854Y02833*
X01855*
X01855Y02833*
X01855Y02833*
X01855Y02833*
X01855Y02833*
X01855Y02833*
X01855Y02833*
X01855Y02833*
X01855Y02833*
X01855Y02833*
X01855Y02833*
X01855Y02833*
X01855Y02833*
X01855Y02833*
X01856Y02833*
X01856Y02834*
X01856Y02834*
X01856Y02834*
X01856Y02834*
X01856Y02834*
X01856Y02834*
X01856Y02834*
X01856Y02834*
X04171Y02844D02*
D01*
X04171Y02844*
X04171Y02844*
X04171Y02844*
X04171Y02844*
X04171Y02844*
X04171Y02845*
X04171Y02845*
X04171Y02845*
X0417Y02845*
X0417Y02845*
X0417Y02845*
X0417Y02845*
X0417Y02845*
X0417Y02845*
X0417Y02845*
X0417Y02845*
X0417Y02845*
X0417Y02845*
X0417Y02845*
X0417Y02845*
X0417Y02845*
X0417Y02845*
X04169*
X04169Y02845*
X04169Y02845*
X04169Y02845*
X04169Y02845*
X04169Y02845*
X04169Y02845*
X04169Y02845*
X04169Y02845*
X04169Y02845*
X04169Y02845*
X04169Y02845*
X04169Y02845*
X04169Y02845*
X04168Y02845*
X04168Y02845*
X04168Y02845*
X04168Y02844*
X04168Y02844*
X04168Y02844*
X04168Y02844*
X04168Y02844*
X04168Y02844*
X04168Y02844*
X04168Y02844*
X04168Y02844*
X04168Y02844*
X04168Y02844*
X04168Y02844*
X04168Y02844*
X04168Y02843*
X04169Y02843*
X04169Y02843*
X04169Y02843*
X04169Y02843*
X04169Y02843*
X04169Y02843*
X04169Y02843*
X04169Y02843*
X04169Y02843*
X04169Y02843*
X04169Y02843*
X04169Y02843*
X04169Y02843*
X04169Y02843*
X0417*
X0417Y02843*
X0417Y02843*
X0417Y02843*
X0417Y02843*
X0417Y02843*
X0417Y02843*
X0417Y02843*
X0417Y02843*
X0417Y02843*
X0417Y02843*
X0417Y02843*
X0417Y02843*
X0417Y02843*
X04171Y02843*
X04171Y02844*
X04171Y02844*
X04171Y02844*
X04171Y02844*
X04171Y02844*
X04171Y02844*
X04171Y02844*
X04171Y02844*
X03426Y01495D02*
D01*
X03426Y01495*
X03426Y01495*
X03426Y01495*
X03426Y01495*
X03426Y01495*
X03426Y01496*
X03426Y01496*
X03426Y01496*
X03425Y01496*
X03425Y01496*
X03425Y01496*
X03425Y01496*
X03425Y01496*
X03425Y01496*
X03425Y01496*
X03425Y01496*
X03425Y01496*
X03425Y01496*
X03425Y01496*
X03425Y01496*
X03425Y01496*
X03425Y01496*
X03424*
X03424Y01496*
X03424Y01496*
X03424Y01496*
X03424Y01496*
X03424Y01496*
X03424Y01496*
X03424Y01496*
X03424Y01496*
X03424Y01496*
X03424Y01496*
X03424Y01496*
X03424Y01496*
X03424Y01496*
X03423Y01496*
X03423Y01496*
X03423Y01496*
X03423Y01495*
X03423Y01495*
X03423Y01495*
X03423Y01495*
X03423Y01495*
X03423Y01495*
X03423Y01495*
X03423Y01495*
X03423Y01495*
X03423Y01495*
X03423Y01495*
X03423Y01495*
X03423Y01494*
X03423Y01494*
X03424Y01494*
X03424Y01494*
X03424Y01494*
X03424Y01494*
X03424Y01494*
X03424Y01494*
X03424Y01494*
X03424Y01494*
X03424Y01494*
X03424Y01494*
X03424Y01494*
X03424Y01494*
X03424Y01494*
X03424Y01494*
X03425*
X03425Y01494*
X03425Y01494*
X03425Y01494*
X03425Y01494*
X03425Y01494*
X03425Y01494*
X03425Y01494*
X03425Y01494*
X03425Y01494*
X03425Y01494*
X03425Y01494*
X03425Y01494*
X03425Y01494*
X03426Y01494*
X03426Y01494*
X03426Y01495*
X03426Y01495*
X03426Y01495*
X03426Y01495*
X03426Y01495*
X03426Y01495*
X03426Y01495*
G54D20*
X0433Y01832D02*
D01*
X0433Y01832*
X0433Y01833*
X0433Y01833*
X04329Y01833*
X04329Y01833*
X04329Y01833*
X04329Y01833*
X04329Y01833*
X04329Y01834*
X04329Y01834*
X04329Y01834*
X04329Y01834*
X04329Y01834*
X04329Y01834*
X04328Y01834*
X04328Y01834*
X04328Y01834*
X04328Y01834*
X04328Y01834*
X04328Y01835*
X04327Y01835*
X04327Y01835*
X04327*
X04327Y01835*
X04327Y01835*
X04327Y01834*
X04326Y01834*
X04326Y01834*
X04326Y01834*
X04326Y01834*
X04326Y01834*
X04326Y01834*
X04326Y01834*
X04326Y01834*
X04325Y01834*
X04325Y01834*
X04325Y01833*
X04325Y01833*
X04325Y01833*
X04325Y01833*
X04325Y01833*
X04325Y01833*
X04325Y01833*
X04325Y01832*
X04325Y01832*
X04325Y01832*
X04325Y01832*
X04325Y01832*
X04325Y01832*
X04325Y01831*
X04325Y01831*
X04325Y01831*
X04325Y01831*
X04325Y01831*
X04325Y01831*
X04326Y01831*
X04326Y0183*
X04326Y0183*
X04326Y0183*
X04326Y0183*
X04326Y0183*
X04326Y0183*
X04326Y0183*
X04327Y0183*
X04327Y0183*
X04327Y0183*
X04327Y0183*
X04327*
X04327Y0183*
X04328Y0183*
X04328Y0183*
X04328Y0183*
X04328Y0183*
X04328Y0183*
X04328Y0183*
X04329Y0183*
X04329Y0183*
X04329Y0183*
X04329Y01831*
X04329Y01831*
X04329Y01831*
X04329Y01831*
X04329Y01831*
X04329Y01831*
X04329Y01831*
X04329Y01832*
X0433Y01832*
X0433Y01832*
X0433Y01832*
X0433Y01832*
G54D21*
X0867Y0107D02*
Y04555D01*
X0171D02*
X0867D01*
X0171Y0107D02*
Y04555D01*
Y0107D02*
X0867D01*
G54D99*
X04849Y0197D02*
D01*
X04849Y01971*
X04849Y01973*
X04849Y01974*
X04848Y01975*
X04848Y01977*
X04847Y01978*
X04847Y01979*
X04846Y0198*
X04845Y01982*
X04844Y01983*
X04843Y01984*
X04842Y01985*
X04841Y01986*
X0484Y01986*
X04839Y01987*
X04838Y01988*
X04837Y01988*
X04835Y01989*
X04834Y01989*
X04833Y01989*
X04831Y0199*
X0483Y0199*
X04829*
X04827Y0199*
X04826Y01989*
X04825Y01989*
X04823Y01989*
X04822Y01988*
X04821Y01988*
X04819Y01987*
X04818Y01986*
X04817Y01986*
X04816Y01985*
X04815Y01984*
X04814Y01983*
X04813Y01982*
X04813Y0198*
X04812Y01979*
X04811Y01978*
X04811Y01977*
X0481Y01975*
X0481Y01974*
X0481Y01973*
X0481Y01971*
X0481Y0197*
X0481Y01969*
X0481Y01967*
X0481Y01966*
X0481Y01965*
X04811Y01963*
X04811Y01962*
X04812Y01961*
X04813Y0196*
X04813Y01958*
X04814Y01957*
X04815Y01956*
X04816Y01955*
X04817Y01954*
X04818Y01954*
X04819Y01953*
X04821Y01952*
X04822Y01952*
X04823Y01951*
X04825Y01951*
X04826Y01951*
X04827Y0195*
X04829Y0195*
X0483*
X04831Y0195*
X04833Y01951*
X04834Y01951*
X04835Y01951*
X04837Y01952*
X04838Y01952*
X04839Y01953*
X0484Y01954*
X04841Y01954*
X04842Y01955*
X04843Y01956*
X04844Y01957*
X04845Y01958*
X04846Y0196*
X04847Y01961*
X04847Y01962*
X04848Y01963*
X04848Y01965*
X04849Y01966*
X04849Y01967*
X04849Y01969*
X04849Y0197*
X06407Y02159D02*
D01*
X06407Y0216*
X06407Y02162*
X06407Y02163*
X06406Y02164*
X06406Y02166*
X06406Y02167*
X06405Y02168*
X06404Y02169*
X06403Y02171*
X06403Y02172*
X06402Y02173*
X06401Y02174*
X064Y02175*
X06399Y02175*
X06397Y02176*
X06396Y02177*
X06395Y02177*
X06394Y02178*
X06392Y02178*
X06391Y02178*
X0639Y02179*
X06388Y02179*
X06387*
X06386Y02179*
X06384Y02178*
X06383Y02178*
X06381Y02178*
X0638Y02177*
X06379Y02177*
X06378Y02176*
X06377Y02175*
X06375Y02175*
X06374Y02174*
X06373Y02173*
X06372Y02172*
X06372Y02171*
X06371Y02169*
X0637Y02168*
X0637Y02167*
X06369Y02166*
X06369Y02164*
X06368Y02163*
X06368Y02162*
X06368Y0216*
X06368Y02159*
X06368Y02158*
X06368Y02156*
X06368Y02155*
X06369Y02154*
X06369Y02152*
X0637Y02151*
X0637Y0215*
X06371Y02149*
X06372Y02147*
X06372Y02146*
X06373Y02145*
X06374Y02144*
X06375Y02143*
X06377Y02143*
X06378Y02142*
X06379Y02141*
X0638Y02141*
X06381Y0214*
X06383Y0214*
X06384Y0214*
X06386Y02139*
X06387Y02139*
X06388*
X0639Y02139*
X06391Y0214*
X06392Y0214*
X06394Y0214*
X06395Y02141*
X06396Y02141*
X06397Y02142*
X06399Y02143*
X064Y02143*
X06401Y02144*
X06402Y02145*
X06403Y02146*
X06403Y02147*
X06404Y02149*
X06405Y0215*
X06406Y02151*
X06406Y02152*
X06406Y02154*
X06407Y02155*
X06407Y02156*
X06407Y02158*
X06407Y02159*
X04662D02*
D01*
X04662Y0216*
X04661Y02162*
X04661Y02163*
X04661Y02164*
X0466Y02166*
X0466Y02167*
X04659Y02168*
X04659Y02169*
X04658Y02171*
X04657Y02172*
X04656Y02173*
X04655Y02174*
X04654Y02175*
X04653Y02175*
X04652Y02176*
X0465Y02177*
X04649Y02177*
X04648Y02178*
X04647Y02178*
X04645Y02178*
X04644Y02179*
X04643Y02179*
X04641*
X0464Y02179*
X04638Y02178*
X04637Y02178*
X04636Y02178*
X04634Y02177*
X04633Y02177*
X04632Y02176*
X04631Y02175*
X0463Y02175*
X04629Y02174*
X04628Y02173*
X04627Y02172*
X04626Y02171*
X04625Y02169*
X04624Y02168*
X04624Y02167*
X04623Y02166*
X04623Y02164*
X04623Y02163*
X04622Y02162*
X04622Y0216*
X04622Y02159*
X04622Y02158*
X04622Y02156*
X04623Y02155*
X04623Y02154*
X04623Y02152*
X04624Y02151*
X04624Y0215*
X04625Y02149*
X04626Y02147*
X04627Y02146*
X04628Y02145*
X04629Y02144*
X0463Y02143*
X04631Y02143*
X04632Y02142*
X04633Y02141*
X04634Y02141*
X04636Y0214*
X04637Y0214*
X04638Y0214*
X0464Y02139*
X04641Y02139*
X04643*
X04644Y02139*
X04645Y0214*
X04647Y0214*
X04648Y0214*
X04649Y02141*
X0465Y02141*
X04652Y02142*
X04653Y02143*
X04654Y02143*
X04655Y02144*
X04656Y02145*
X04657Y02146*
X04658Y02147*
X04659Y02149*
X04659Y0215*
X0466Y02151*
X0466Y02152*
X04661Y02154*
X04661Y02155*
X04661Y02156*
X04662Y02158*
X04662Y02159*
X05712Y01335D02*
D01*
X05712Y01336*
X05712Y01338*
X05711Y01339*
X05711Y0134*
X05711Y01342*
X0571Y01343*
X0571Y01344*
X05709Y01345*
X05708Y01347*
X05707Y01348*
X05706Y01349*
X05705Y0135*
X05704Y01351*
X05703Y01351*
X05702Y01352*
X05701Y01353*
X057Y01353*
X05698Y01354*
X05697Y01354*
X05696Y01354*
X05694Y01355*
X05693Y01355*
X05691*
X0569Y01355*
X05689Y01354*
X05687Y01354*
X05686Y01354*
X05685Y01353*
X05683Y01353*
X05682Y01352*
X05681Y01351*
X0568Y01351*
X05679Y0135*
X05678Y01349*
X05677Y01348*
X05676Y01347*
X05675Y01345*
X05675Y01344*
X05674Y01343*
X05674Y01342*
X05673Y0134*
X05673Y01339*
X05673Y01338*
X05672Y01336*
X05672Y01335*
X05672Y01334*
X05673Y01332*
X05673Y01331*
X05673Y0133*
X05674Y01328*
X05674Y01327*
X05675Y01326*
X05675Y01325*
X05676Y01323*
X05677Y01322*
X05678Y01321*
X05679Y0132*
X0568Y01319*
X05681Y01319*
X05682Y01318*
X05683Y01317*
X05685Y01317*
X05686Y01316*
X05687Y01316*
X05689Y01316*
X0569Y01315*
X05691Y01315*
X05693*
X05694Y01315*
X05696Y01316*
X05697Y01316*
X05698Y01316*
X057Y01317*
X05701Y01317*
X05702Y01318*
X05703Y01319*
X05704Y01319*
X05705Y0132*
X05706Y01321*
X05707Y01322*
X05708Y01323*
X05709Y01325*
X0571Y01326*
X0571Y01327*
X05711Y01328*
X05711Y0133*
X05711Y01331*
X05712Y01332*
X05712Y01334*
X05712Y01335*
X04837D02*
D01*
X04837Y01336*
X04837Y01338*
X04836Y01339*
X04836Y0134*
X04836Y01342*
X04835Y01343*
X04835Y01344*
X04834Y01345*
X04833Y01347*
X04832Y01348*
X04831Y01349*
X0483Y0135*
X04829Y01351*
X04828Y01351*
X04827Y01352*
X04826Y01353*
X04825Y01353*
X04823Y01354*
X04822Y01354*
X04821Y01354*
X04819Y01355*
X04818Y01355*
X04816*
X04815Y01355*
X04814Y01354*
X04812Y01354*
X04811Y01354*
X0481Y01353*
X04808Y01353*
X04807Y01352*
X04806Y01351*
X04805Y01351*
X04804Y0135*
X04803Y01349*
X04802Y01348*
X04801Y01347*
X048Y01345*
X048Y01344*
X04799Y01343*
X04799Y01342*
X04798Y0134*
X04798Y01339*
X04798Y01338*
X04797Y01336*
X04797Y01335*
X04797Y01334*
X04798Y01332*
X04798Y01331*
X04798Y0133*
X04799Y01328*
X04799Y01327*
X048Y01326*
X048Y01325*
X04801Y01323*
X04802Y01322*
X04803Y01321*
X04804Y0132*
X04805Y01319*
X04806Y01319*
X04807Y01318*
X04808Y01317*
X0481Y01317*
X04811Y01316*
X04812Y01316*
X04814Y01316*
X04815Y01315*
X04816Y01315*
X04818*
X04819Y01315*
X04821Y01316*
X04822Y01316*
X04823Y01316*
X04825Y01317*
X04826Y01317*
X04827Y01318*
X04828Y01319*
X04829Y01319*
X0483Y0132*
X04831Y01321*
X04832Y01322*
X04833Y01323*
X04834Y01325*
X04835Y01326*
X04835Y01327*
X04836Y01328*
X04836Y0133*
X04836Y01331*
X04837Y01332*
X04837Y01334*
X04837Y01335*
X03952Y0134D02*
D01*
X03952Y01341*
X03952Y01343*
X03951Y01344*
X03951Y01345*
X03951Y01347*
X0395Y01348*
X0395Y01349*
X03949Y0135*
X03948Y01352*
X03947Y01353*
X03946Y01354*
X03945Y01355*
X03944Y01356*
X03943Y01356*
X03942Y01357*
X03941Y01358*
X0394Y01358*
X03938Y01359*
X03937Y01359*
X03936Y01359*
X03934Y0136*
X03933Y0136*
X03931*
X0393Y0136*
X03929Y01359*
X03927Y01359*
X03926Y01359*
X03925Y01358*
X03923Y01358*
X03922Y01357*
X03921Y01356*
X0392Y01356*
X03919Y01355*
X03918Y01354*
X03917Y01353*
X03916Y01352*
X03915Y0135*
X03915Y01349*
X03914Y01348*
X03914Y01347*
X03913Y01345*
X03913Y01344*
X03913Y01343*
X03912Y01341*
X03912Y0134*
X03912Y01339*
X03913Y01337*
X03913Y01336*
X03913Y01335*
X03914Y01333*
X03914Y01332*
X03915Y01331*
X03915Y0133*
X03916Y01328*
X03917Y01327*
X03918Y01326*
X03919Y01325*
X0392Y01324*
X03921Y01324*
X03922Y01323*
X03923Y01322*
X03925Y01322*
X03926Y01321*
X03927Y01321*
X03929Y01321*
X0393Y0132*
X03931Y0132*
X03933*
X03934Y0132*
X03936Y01321*
X03937Y01321*
X03938Y01321*
X0394Y01322*
X03941Y01322*
X03942Y01323*
X03943Y01324*
X03944Y01324*
X03945Y01325*
X03946Y01326*
X03947Y01327*
X03948Y01328*
X03949Y0133*
X0395Y01331*
X0395Y01332*
X03951Y01333*
X03951Y01335*
X03951Y01336*
X03952Y01337*
X03952Y01339*
X03952Y0134*
X02898Y01457D02*
D01*
X02898Y01458*
X02898Y0146*
X02897Y01461*
X02897Y01462*
X02897Y01464*
X02896Y01465*
X02896Y01466*
X02895Y01467*
X02894Y01468*
X02893Y01469*
X02892Y0147*
X02891Y01471*
X0289Y01472*
X02889Y01473*
X02888Y01474*
X02887Y01475*
X02886Y01475*
X02884Y01476*
X02883Y01476*
X02882Y01476*
X0288Y01476*
X02879Y01476*
X02878*
X02876Y01476*
X02875Y01476*
X02873Y01476*
X02872Y01476*
X02871Y01475*
X0287Y01475*
X02868Y01474*
X02867Y01473*
X02866Y01472*
X02865Y01471*
X02864Y0147*
X02863Y01469*
X02862Y01468*
X02862Y01467*
X02861Y01466*
X0286Y01465*
X0286Y01464*
X02859Y01462*
X02859Y01461*
X02859Y0146*
X02859Y01458*
X02859Y01457*
X02859Y01455*
X02859Y01454*
X02859Y01453*
X02859Y01451*
X0286Y0145*
X0286Y01449*
X02861Y01448*
X02862Y01446*
X02862Y01445*
X02863Y01444*
X02864Y01443*
X02865Y01442*
X02866Y01441*
X02867Y0144*
X02868Y0144*
X0287Y01439*
X02871Y01439*
X02872Y01438*
X02873Y01438*
X02875Y01437*
X02876Y01437*
X02878Y01437*
X02879*
X0288Y01437*
X02882Y01437*
X02883Y01438*
X02884Y01438*
X02886Y01439*
X02887Y01439*
X02888Y0144*
X02889Y0144*
X0289Y01441*
X02891Y01442*
X02892Y01443*
X02893Y01444*
X02894Y01445*
X02895Y01446*
X02896Y01448*
X02896Y01449*
X02897Y0145*
X02897Y01451*
X02897Y01453*
X02898Y01454*
X02898Y01455*
X02898Y01457*
X01948Y01992D02*
D01*
X01948Y01993*
X01948Y01995*
X01947Y01996*
X01947Y01997*
X01947Y01999*
X01946Y02*
X01946Y02001*
X01945Y02002*
X01944Y02003*
X01943Y02004*
X01942Y02005*
X01941Y02006*
X0194Y02007*
X01939Y02008*
X01938Y02009*
X01937Y0201*
X01936Y0201*
X01934Y02011*
X01933Y02011*
X01932Y02011*
X0193Y02011*
X01929Y02011*
X01928*
X01926Y02011*
X01925Y02011*
X01923Y02011*
X01922Y02011*
X01921Y0201*
X0192Y0201*
X01918Y02009*
X01917Y02008*
X01916Y02007*
X01915Y02006*
X01914Y02005*
X01913Y02004*
X01912Y02003*
X01912Y02002*
X01911Y02001*
X0191Y02*
X0191Y01999*
X01909Y01997*
X01909Y01996*
X01909Y01995*
X01909Y01993*
X01909Y01992*
X01909Y0199*
X01909Y01989*
X01909Y01988*
X01909Y01986*
X0191Y01985*
X0191Y01984*
X01911Y01983*
X01912Y01981*
X01912Y0198*
X01913Y01979*
X01914Y01978*
X01915Y01977*
X01916Y01976*
X01917Y01975*
X01918Y01975*
X0192Y01974*
X01921Y01974*
X01922Y01973*
X01923Y01973*
X01925Y01972*
X01926Y01972*
X01928Y01972*
X01929*
X0193Y01972*
X01932Y01972*
X01933Y01973*
X01934Y01973*
X01936Y01974*
X01937Y01974*
X01938Y01975*
X01939Y01975*
X0194Y01976*
X01941Y01977*
X01942Y01978*
X01943Y01979*
X01944Y0198*
X01945Y01981*
X01946Y01983*
X01946Y01984*
X01947Y01985*
X01947Y01986*
X01947Y01988*
X01948Y01989*
X01948Y0199*
X01948Y01992*
X02893Y01997D02*
D01*
X02893Y01998*
X02893Y02*
X02892Y02001*
X02892Y02002*
X02892Y02004*
X02891Y02005*
X02891Y02006*
X0289Y02007*
X02889Y02008*
X02888Y02009*
X02887Y0201*
X02886Y02011*
X02885Y02012*
X02884Y02013*
X02883Y02014*
X02882Y02015*
X02881Y02015*
X02879Y02016*
X02878Y02016*
X02877Y02016*
X02875Y02016*
X02874Y02016*
X02873*
X02871Y02016*
X0287Y02016*
X02868Y02016*
X02867Y02016*
X02866Y02015*
X02865Y02015*
X02863Y02014*
X02862Y02013*
X02861Y02012*
X0286Y02011*
X02859Y0201*
X02858Y02009*
X02857Y02008*
X02857Y02007*
X02856Y02006*
X02855Y02005*
X02855Y02004*
X02854Y02002*
X02854Y02001*
X02854Y02*
X02854Y01998*
X02854Y01997*
X02854Y01995*
X02854Y01994*
X02854Y01993*
X02854Y01991*
X02855Y0199*
X02855Y01989*
X02856Y01988*
X02857Y01986*
X02857Y01985*
X02858Y01984*
X02859Y01983*
X0286Y01982*
X02861Y01981*
X02862Y0198*
X02863Y0198*
X02865Y01979*
X02866Y01979*
X02867Y01978*
X02868Y01978*
X0287Y01977*
X02871Y01977*
X02873Y01977*
X02874*
X02875Y01977*
X02877Y01977*
X02878Y01978*
X02879Y01978*
X02881Y01979*
X02882Y01979*
X02883Y0198*
X02884Y0198*
X02885Y01981*
X02886Y01982*
X02887Y01983*
X02888Y01984*
X02889Y01985*
X0289Y01986*
X02891Y01988*
X02891Y01989*
X02892Y0199*
X02892Y01991*
X02892Y01993*
X02893Y01994*
X02893Y01995*
X02893Y01997*
X02646Y02267D02*
D01*
X02646Y02268*
X02646Y0227*
X02645Y02271*
X02645Y02272*
X02645Y02274*
X02644Y02275*
X02643Y02276*
X02643Y02277*
X02642Y02279*
X02641Y0228*
X0264Y02281*
X02639Y02282*
X02638Y02282*
X02637Y02283*
X02636Y02284*
X02635Y02285*
X02633Y02285*
X02632Y02286*
X02631Y02286*
X02629Y02286*
X02628Y02287*
X02627Y02287*
X02625*
X02624Y02287*
X02623Y02286*
X02621Y02286*
X0262Y02286*
X02619Y02285*
X02617Y02285*
X02616Y02284*
X02615Y02283*
X02614Y02282*
X02613Y02282*
X02612Y02281*
X02611Y0228*
X0261Y02279*
X02609Y02277*
X02609Y02276*
X02608Y02275*
X02608Y02274*
X02607Y02272*
X02607Y02271*
X02607Y0227*
X02606Y02268*
X02606Y02267*
X02606Y02266*
X02607Y02264*
X02607Y02263*
X02607Y02262*
X02608Y0226*
X02608Y02259*
X02609Y02258*
X02609Y02257*
X0261Y02255*
X02611Y02254*
X02612Y02253*
X02613Y02252*
X02614Y02251*
X02615Y02251*
X02616Y0225*
X02617Y02249*
X02619Y02249*
X0262Y02248*
X02621Y02248*
X02623Y02248*
X02624Y02247*
X02625Y02247*
X02627*
X02628Y02247*
X02629Y02248*
X02631Y02248*
X02632Y02248*
X02633Y02249*
X02635Y02249*
X02636Y0225*
X02637Y02251*
X02638Y02251*
X02639Y02252*
X0264Y02253*
X02641Y02254*
X02642Y02255*
X02643Y02257*
X02643Y02258*
X02644Y02259*
X02645Y0226*
X02645Y02262*
X02645Y02263*
X02646Y02264*
X02646Y02266*
X02646Y02267*
X01969Y0115D02*
Y01213D01*
Y0115D02*
X02D01*
Y01213*
X01969D02*
X02D01*
X07561Y01899D02*
X07797D01*
X07561Y01663D02*
X07797D01*
Y01899*
X07561Y01663D02*
Y01899D01*
Y01449D02*
X07797D01*
X07561Y01213D02*
X07797D01*
Y01449*
X07561Y01213D02*
Y01449D01*
X08076Y01899D02*
X08312D01*
X08076Y01663D02*
X08312D01*
Y01899*
X08076Y01663D02*
Y01899D01*
X07561Y02374D02*
X07797D01*
X07561Y02138D02*
X07797D01*
Y02374*
X07561Y02138D02*
Y02374D01*
X07031Y01899D02*
X07267D01*
X07031Y01663D02*
X07267D01*
Y01899*
X07031Y01663D02*
Y01899D01*
X08171Y02321D02*
Y02378D01*
X08258Y02321D02*
Y02378D01*
X08171D02*
X08258D01*
X08171Y02321D02*
X08258D01*
X08171Y02221D02*
Y02278D01*
X08258Y02221D02*
Y02278D01*
X08171D02*
X08258D01*
X08171Y02221D02*
X08258D01*
X07722Y01576D02*
Y01633D01*
X07636Y01576D02*
Y01633D01*
Y01576D02*
X07722D01*
X07636Y01633D02*
X07722D01*
Y01113D02*
Y0117D01*
X07636Y01113D02*
Y0117D01*
Y01113D02*
X07722D01*
X07636Y0117D02*
X07722D01*
X08242Y01576D02*
Y01633D01*
X08156Y01576D02*
Y01633D01*
Y01576D02*
X08242D01*
X08156Y01633D02*
X08242D01*
X07722Y02033D02*
Y0209D01*
X07636Y02033D02*
Y0209D01*
Y02033D02*
X07722D01*
X07636Y0209D02*
X07722D01*
X07182Y01576D02*
Y01633D01*
X07096Y01576D02*
Y01633D01*
Y01576D02*
X07182D01*
X07096Y01633D02*
X07182D01*
X069Y03474D02*
Y03505D01*
X06963*
Y03474D02*
Y03505D01*
X069Y03474D02*
X06963D01*
X069Y03349D02*
Y0338D01*
X06963*
Y03349D02*
Y0338D01*
X069Y03349D02*
X06963D01*
X069Y03224D02*
Y03256D01*
X06963*
Y03224D02*
Y03256D01*
X069Y03224D02*
X06963D01*
X069Y03099D02*
Y03131D01*
X06963*
Y03099D02*
Y03131D01*
X069Y03099D02*
X06963D01*
X069Y02975D02*
Y03006D01*
X06963*
Y02975D02*
Y03006D01*
X069Y02975D02*
X06963D01*
X069Y0285D02*
Y02881D01*
X06963*
Y0285D02*
Y02881D01*
X069Y0285D02*
X06963D01*
X069Y02725D02*
Y02757D01*
X06963*
Y02725D02*
Y02757D01*
X069Y02725D02*
X06963D01*
X069Y026D02*
Y02632D01*
X06963*
Y026D02*
Y02632D01*
X069Y026D02*
X06963D01*
X07658Y04369D02*
Y044D01*
X07595D02*
X07658D01*
X07595Y04369D02*
Y044D01*
Y04369D02*
X07658D01*
Y04248D02*
Y04279D01*
X07595D02*
X07658D01*
X07595Y04248D02*
Y04279D01*
Y04248D02*
X07658D01*
Y04127D02*
Y04158D01*
X07595D02*
X07658D01*
X07595Y04127D02*
Y04158D01*
Y04127D02*
X07658D01*
Y04006D02*
Y04037D01*
X07595D02*
X07658D01*
X07595Y04006D02*
Y04037D01*
Y04006D02*
X07658D01*
Y03885D02*
Y03916D01*
X07595D02*
X07658D01*
X07595Y03885D02*
Y03916D01*
Y03885D02*
X07658D01*
Y03764D02*
Y03795D01*
X07595D02*
X07658D01*
X07595Y03764D02*
Y03795D01*
Y03764D02*
X07658D01*
Y03643D02*
Y03674D01*
X07595D02*
X07658D01*
X07595Y03643D02*
Y03674D01*
Y03643D02*
X07658D01*
Y03522D02*
Y03553D01*
X07595D02*
X07658D01*
X07595Y03522D02*
Y03553D01*
Y03522D02*
X07658D01*
Y03401D02*
Y03432D01*
X07595D02*
X07658D01*
X07595Y03401D02*
Y03432D01*
Y03401D02*
X07658D01*
Y0328D02*
Y03311D01*
X07595D02*
X07658D01*
X07595Y0328D02*
Y03311D01*
Y0328D02*
X07658D01*
Y03159D02*
Y0319D01*
X07595D02*
X07658D01*
X07595Y03159D02*
Y0319D01*
Y03159D02*
X07658D01*
Y03038D02*
Y03069D01*
X07595D02*
X07658D01*
X07595Y03038D02*
Y03069D01*
Y03038D02*
X07658D01*
Y02917D02*
Y02948D01*
X07595D02*
X07658D01*
X07595Y02917D02*
Y02948D01*
Y02917D02*
X07658D01*
Y02796D02*
Y02827D01*
X07595D02*
X07658D01*
X07595Y02796D02*
Y02827D01*
Y02796D02*
X07658D01*
Y02675D02*
Y02706D01*
X07595D02*
X07658D01*
X07595Y02675D02*
Y02706D01*
Y02675D02*
X07658D01*
Y02554D02*
Y02585D01*
X07595D02*
X07658D01*
X07595Y02554D02*
Y02585D01*
Y02554D02*
X07658D01*
X04591Y01756D02*
X04678D01*
X04591Y01813D02*
X04678D01*
Y01756D02*
Y01813D01*
X04591Y01756D02*
Y01813D01*
X0716Y0215D02*
X0736D01*
Y0415*
X0716D02*
X0736D01*
X0716Y0215D02*
Y0415D01*
X05569Y01935D02*
Y02194D01*
X04794Y01935D02*
Y02194D01*
X05569*
X04794Y01935D02*
X05569D01*
X05647D02*
Y02194D01*
X06423Y01935D02*
Y02194D01*
X05647Y01935D02*
X06423D01*
X05647Y02194D02*
X06423D01*
X04201Y01758D02*
Y01811D01*
X04118Y01758D02*
Y01811D01*
Y01758D02*
X04201D01*
X04118Y01811D02*
X04201D01*
X03902Y01935D02*
Y02194D01*
X04677Y01935D02*
Y02194D01*
X03902Y01935D02*
X04677D01*
X03902Y02194D02*
X04677D01*
X02785Y03865D02*
Y04165D01*
X02685Y03865D02*
Y04165D01*
X02785*
X02685Y03865D02*
X02785D01*
X0238Y0386D02*
Y0416D01*
X0258*
Y0386D02*
Y0416D01*
X0238Y0386D02*
X0258D01*
X02102D02*
Y0416D01*
X02302*
Y0386D02*
Y0416D01*
X02102Y0386D02*
X02302D01*
X01825D02*
Y0416D01*
X02025*
Y0386D02*
Y0416D01*
X01825Y0386D02*
X02025D01*
X01871Y02381D02*
Y02438D01*
X01958Y02381D02*
Y02438D01*
X01871D02*
X01958D01*
X01871Y02381D02*
X01958D01*
X06123Y02718D02*
Y02771D01*
X06206Y02718D02*
Y02771D01*
X06123D02*
X06206D01*
X06123Y02718D02*
X06206D01*
X01868Y02543D02*
Y02596D01*
X01951Y02543D02*
Y02596D01*
X01868D02*
X01951D01*
X01868Y02543D02*
X01951D01*
X06432Y013D02*
Y01559D01*
X05657Y013D02*
Y01559D01*
X06432*
X05657Y013D02*
X06432D01*
X05557D02*
Y01559D01*
X04782Y013D02*
Y01559D01*
X05557*
X04782Y013D02*
X05557D01*
X04672Y01305D02*
Y01564D01*
X03897Y01305D02*
Y01564D01*
X04672*
X03897Y01305D02*
X04672D01*
X02308Y01978D02*
Y02031D01*
X02391Y01978D02*
Y02031D01*
X02308D02*
X02391D01*
X02308Y01978D02*
X02391D01*
X05463Y01738D02*
Y01791D01*
X05546Y01738D02*
Y01791D01*
X05463D02*
X05546D01*
X05463Y01738D02*
X05546D01*
X02176Y01171D02*
X02413D01*
X02176Y01408D02*
X02413D01*
X02176Y01171D02*
Y01408D01*
X02413Y01171D02*
Y01408D01*
X02704Y01106D02*
Y01163D01*
X02618Y01106D02*
Y01163D01*
Y01106D02*
X02704D01*
X02618Y01163D02*
X02704D01*
Y01306D02*
Y01363D01*
X02618Y01306D02*
Y01363D01*
Y01306D02*
X02704D01*
X02618Y01363D02*
X02704D01*
X02389Y01846D02*
Y01903D01*
X02303Y01846D02*
Y01903D01*
Y01846D02*
X02389D01*
X02303Y01903D02*
X02389D01*
X03233Y01968D02*
X0329D01*
X03233Y01881D02*
X0329D01*
Y01968*
X03233Y01881D02*
Y01968D01*
X02033Y01461D02*
Y01518D01*
X01946Y01461D02*
Y01518D01*
Y01461D02*
X02033D01*
X01946Y01518D02*
X02033D01*
X02843Y01087D02*
Y01492D01*
X03126Y01087D02*
Y01492D01*
X02843D02*
X03126D01*
X02843Y01087D02*
X03126D01*
X01893Y01622D02*
Y02027D01*
X02176Y01622D02*
Y02027D01*
X01893D02*
X02176D01*
X01893Y01622D02*
X02176D01*
X02838Y01627D02*
Y02032D01*
X03121Y01627D02*
Y02032D01*
X02838D02*
X03121D01*
X02838Y01627D02*
X03121D01*
X0324Y01148D02*
Y01231D01*
X03293Y01148D02*
Y01231D01*
X0324Y01148D02*
X03293D01*
X0324Y01231D02*
X03293D01*
X02305Y01676D02*
X02387D01*
X02305Y01623D02*
X02387D01*
X02305D02*
Y01676D01*
X02387Y01623D02*
Y01676D01*
X02305Y01738D02*
Y01791D01*
X02387Y01738D02*
Y01791D01*
X02305D02*
X02387D01*
X02305Y01738D02*
X02387D01*
X03293Y01578D02*
Y01661D01*
X0324Y01578D02*
Y01661D01*
X03293*
X0324Y01578D02*
X03293D01*
X02708Y01893D02*
Y01976D01*
X02655Y01893D02*
Y01976D01*
X02708*
X02655Y01893D02*
X02708D01*
X02153Y04346D02*
Y04403D01*
X02066Y04346D02*
Y04403D01*
Y04346D02*
X02153D01*
X02066Y04403D02*
X02153D01*
X02591Y02232D02*
X03358D01*
X02591Y02487D02*
X03358D01*
X02591Y02232D02*
Y02487D01*
X03358Y02232D02*
Y02487D01*
X02161Y02603D02*
X02398D01*
X02161Y02366D02*
X02398D01*
Y02603*
X02161Y02366D02*
Y02603D01*
X06728Y03598D02*
Y03651D01*
X06811Y03598D02*
Y03651D01*
X06728D02*
X06811D01*
X06728Y03598D02*
X06811D01*
X02638Y02713D02*
Y02766D01*
X02721Y02713D02*
Y02766D01*
X02638D02*
X02721D01*
X02638Y02713D02*
X02721D01*
M02*