%FSTAX23Y23*%
%MOIN*%
%SFA1B1*%

%IPPOS*%
%ADD19C,0.002360*%
%ADD20C,0.004720*%
%ADD21C,0.002700*%
%ADD22R,0.057090X0.037400*%
%ADD23R,0.031500X0.031500*%
%ADD24R,0.082680X0.055120*%
%ADD25R,0.041340X0.057090*%
%ADD26R,0.037400X0.057090*%
%ADD27R,0.045280X0.011810*%
%ADD28R,0.031500X0.031500*%
%ADD29R,0.078740X0.078740*%
%ADD30R,0.055120X0.059060*%
%ADD31R,0.057090X0.041340*%
%ADD32R,0.059060X0.055120*%
%ADD33R,0.055120X0.047240*%
%LN6502_carrier-1*%
%LPD*%
G54D19*
X06814Y04405D02*
D01*
X06814Y04405*
X06814Y04405*
X06814Y04405*
X06814Y04405*
X06814Y04405*
X06814Y04405*
X06814Y04405*
X06814Y04406*
X06814Y04406*
X06814Y04406*
X06814Y04406*
X06814Y04406*
X06814Y04406*
X06814Y04406*
X06813Y04406*
X06813Y04406*
X06813Y04406*
X06813Y04406*
X06813Y04406*
X06813Y04406*
X06813Y04406*
X06813Y04406*
X06813*
X06813Y04406*
X06813Y04406*
X06813Y04406*
X06812Y04406*
X06812Y04406*
X06812Y04406*
X06812Y04406*
X06812Y04406*
X06812Y04406*
X06812Y04406*
X06812Y04406*
X06812Y04406*
X06812Y04406*
X06812Y04406*
X06812Y04405*
X06812Y04405*
X06812Y04405*
X06812Y04405*
X06812Y04405*
X06812Y04405*
X06812Y04405*
X06812Y04405*
X06812Y04405*
X06812Y04405*
X06812Y04405*
X06812Y04405*
X06812Y04405*
X06812Y04404*
X06812Y04404*
X06812Y04404*
X06812Y04404*
X06812Y04404*
X06812Y04404*
X06812Y04404*
X06812Y04404*
X06812Y04404*
X06812Y04404*
X06812Y04404*
X06812Y04404*
X06812Y04404*
X06813Y04404*
X06813Y04404*
X06813Y04404*
X06813Y04404*
X06813*
X06813Y04404*
X06813Y04404*
X06813Y04404*
X06813Y04404*
X06813Y04404*
X06813Y04404*
X06813Y04404*
X06814Y04404*
X06814Y04404*
X06814Y04404*
X06814Y04404*
X06814Y04404*
X06814Y04404*
X06814Y04404*
X06814Y04404*
X06814Y04404*
X06814Y04405*
X06814Y04405*
X06814Y04405*
X06814Y04405*
X06814Y04405*
X06814Y04405*
X0815Y03507D02*
D01*
X0815Y03507*
X0815Y03507*
X0815Y03507*
X0815Y03507*
X08149Y03507*
X08149Y03507*
X08149Y03507*
X08149Y03507*
X08149Y03507*
X08149Y03507*
X08149Y03508*
X08149Y03508*
X08149Y03508*
X08149Y03508*
X08149Y03508*
X08149Y03508*
X08149Y03508*
X08149Y03508*
X08149Y03508*
X08149Y03508*
X08149Y03508*
X08148Y03508*
X08148*
X08148Y03508*
X08148Y03508*
X08148Y03508*
X08148Y03508*
X08148Y03508*
X08148Y03508*
X08148Y03508*
X08148Y03508*
X08148Y03508*
X08148Y03508*
X08148Y03508*
X08147Y03507*
X08147Y03507*
X08147Y03507*
X08147Y03507*
X08147Y03507*
X08147Y03507*
X08147Y03507*
X08147Y03507*
X08147Y03507*
X08147Y03507*
X08147Y03507*
X08147Y03507*
X08147Y03507*
X08147Y03506*
X08147Y03506*
X08147Y03506*
X08147Y03506*
X08147Y03506*
X08147Y03506*
X08147Y03506*
X08147Y03506*
X08148Y03506*
X08148Y03506*
X08148Y03506*
X08148Y03506*
X08148Y03506*
X08148Y03506*
X08148Y03506*
X08148Y03506*
X08148Y03506*
X08148Y03506*
X08148Y03506*
X08148Y03506*
X08148*
X08149Y03506*
X08149Y03506*
X08149Y03506*
X08149Y03506*
X08149Y03506*
X08149Y03506*
X08149Y03506*
X08149Y03506*
X08149Y03506*
X08149Y03506*
X08149Y03506*
X08149Y03506*
X08149Y03506*
X08149Y03506*
X08149Y03506*
X08149Y03506*
X08149Y03506*
X0815Y03506*
X0815Y03506*
X0815Y03507*
X0815Y03507*
X0815Y03507*
X05169Y04404D02*
D01*
X05169Y04404*
X05169Y04404*
X05169Y04404*
X05169Y04404*
X05169Y04404*
X05169Y04404*
X05169Y04404*
X05169Y04405*
X05169Y04405*
X05169Y04405*
X05169Y04405*
X05169Y04405*
X05169Y04405*
X05169Y04405*
X05168Y04405*
X05168Y04405*
X05168Y04405*
X05168Y04405*
X05168Y04405*
X05168Y04405*
X05168Y04405*
X05168Y04405*
X05168*
X05168Y04405*
X05168Y04405*
X05168Y04405*
X05167Y04405*
X05167Y04405*
X05167Y04405*
X05167Y04405*
X05167Y04405*
X05167Y04405*
X05167Y04405*
X05167Y04405*
X05167Y04405*
X05167Y04405*
X05167Y04405*
X05167Y04404*
X05167Y04404*
X05167Y04404*
X05167Y04404*
X05167Y04404*
X05167Y04404*
X05167Y04404*
X05167Y04404*
X05167Y04404*
X05167Y04404*
X05167Y04404*
X05167Y04404*
X05167Y04404*
X05167Y04403*
X05167Y04403*
X05167Y04403*
X05167Y04403*
X05167Y04403*
X05167Y04403*
X05167Y04403*
X05167Y04403*
X05167Y04403*
X05167Y04403*
X05167Y04403*
X05167Y04403*
X05167Y04403*
X05168Y04403*
X05168Y04403*
X05168Y04403*
X05168Y04403*
X05168*
X05168Y04403*
X05168Y04403*
X05168Y04403*
X05168Y04403*
X05168Y04403*
X05168Y04403*
X05168Y04403*
X05169Y04403*
X05169Y04403*
X05169Y04403*
X05169Y04403*
X05169Y04403*
X05169Y04403*
X05169Y04403*
X05169Y04403*
X05169Y04403*
X05169Y04404*
X05169Y04404*
X05169Y04404*
X05169Y04404*
X05169Y04404*
X05169Y04404*
X01856Y02834D02*
D01*
X01856Y02834*
X01856Y02834*
X01856Y02834*
X01856Y02834*
X01856Y02834*
X01856Y02835*
X01856Y02835*
X01856Y02835*
X01855Y02835*
X01855Y02835*
X01855Y02835*
X01855Y02835*
X01855Y02835*
X01855Y02835*
X01855Y02835*
X01855Y02835*
X01855Y02835*
X01855Y02835*
X01855Y02835*
X01855Y02835*
X01855Y02835*
X01855Y02835*
X01854*
X01854Y02835*
X01854Y02835*
X01854Y02835*
X01854Y02835*
X01854Y02835*
X01854Y02835*
X01854Y02835*
X01854Y02835*
X01854Y02835*
X01854Y02835*
X01854Y02835*
X01854Y02835*
X01854Y02835*
X01853Y02835*
X01853Y02835*
X01853Y02835*
X01853Y02834*
X01853Y02834*
X01853Y02834*
X01853Y02834*
X01853Y02834*
X01853Y02834*
X01853Y02834*
X01853Y02834*
X01853Y02834*
X01853Y02834*
X01853Y02834*
X01853Y02834*
X01853Y02834*
X01853Y02833*
X01854Y02833*
X01854Y02833*
X01854Y02833*
X01854Y02833*
X01854Y02833*
X01854Y02833*
X01854Y02833*
X01854Y02833*
X01854Y02833*
X01854Y02833*
X01854Y02833*
X01854Y02833*
X01854Y02833*
X01854Y02833*
X01855*
X01855Y02833*
X01855Y02833*
X01855Y02833*
X01855Y02833*
X01855Y02833*
X01855Y02833*
X01855Y02833*
X01855Y02833*
X01855Y02833*
X01855Y02833*
X01855Y02833*
X01855Y02833*
X01855Y02833*
X01856Y02833*
X01856Y02834*
X01856Y02834*
X01856Y02834*
X01856Y02834*
X01856Y02834*
X01856Y02834*
X01856Y02834*
X01856Y02834*
X04171Y02844D02*
D01*
X04171Y02844*
X04171Y02844*
X04171Y02844*
X04171Y02844*
X04171Y02844*
X04171Y02845*
X04171Y02845*
X04171Y02845*
X0417Y02845*
X0417Y02845*
X0417Y02845*
X0417Y02845*
X0417Y02845*
X0417Y02845*
X0417Y02845*
X0417Y02845*
X0417Y02845*
X0417Y02845*
X0417Y02845*
X0417Y02845*
X0417Y02845*
X0417Y02845*
X04169*
X04169Y02845*
X04169Y02845*
X04169Y02845*
X04169Y02845*
X04169Y02845*
X04169Y02845*
X04169Y02845*
X04169Y02845*
X04169Y02845*
X04169Y02845*
X04169Y02845*
X04169Y02845*
X04169Y02845*
X04168Y02845*
X04168Y02845*
X04168Y02845*
X04168Y02844*
X04168Y02844*
X04168Y02844*
X04168Y02844*
X04168Y02844*
X04168Y02844*
X04168Y02844*
X04168Y02844*
X04168Y02844*
X04168Y02844*
X04168Y02844*
X04168Y02844*
X04168Y02844*
X04168Y02843*
X04169Y02843*
X04169Y02843*
X04169Y02843*
X04169Y02843*
X04169Y02843*
X04169Y02843*
X04169Y02843*
X04169Y02843*
X04169Y02843*
X04169Y02843*
X04169Y02843*
X04169Y02843*
X04169Y02843*
X04169Y02843*
X0417*
X0417Y02843*
X0417Y02843*
X0417Y02843*
X0417Y02843*
X0417Y02843*
X0417Y02843*
X0417Y02843*
X0417Y02843*
X0417Y02843*
X0417Y02843*
X0417Y02843*
X0417Y02843*
X0417Y02843*
X04171Y02843*
X04171Y02844*
X04171Y02844*
X04171Y02844*
X04171Y02844*
X04171Y02844*
X04171Y02844*
X04171Y02844*
X04171Y02844*
X03426Y01495D02*
D01*
X03426Y01495*
X03426Y01495*
X03426Y01495*
X03426Y01495*
X03426Y01495*
X03426Y01496*
X03426Y01496*
X03426Y01496*
X03425Y01496*
X03425Y01496*
X03425Y01496*
X03425Y01496*
X03425Y01496*
X03425Y01496*
X03425Y01496*
X03425Y01496*
X03425Y01496*
X03425Y01496*
X03425Y01496*
X03425Y01496*
X03425Y01496*
X03425Y01496*
X03424*
X03424Y01496*
X03424Y01496*
X03424Y01496*
X03424Y01496*
X03424Y01496*
X03424Y01496*
X03424Y01496*
X03424Y01496*
X03424Y01496*
X03424Y01496*
X03424Y01496*
X03424Y01496*
X03424Y01496*
X03423Y01496*
X03423Y01496*
X03423Y01496*
X03423Y01495*
X03423Y01495*
X03423Y01495*
X03423Y01495*
X03423Y01495*
X03423Y01495*
X03423Y01495*
X03423Y01495*
X03423Y01495*
X03423Y01495*
X03423Y01495*
X03423Y01495*
X03423Y01494*
X03423Y01494*
X03424Y01494*
X03424Y01494*
X03424Y01494*
X03424Y01494*
X03424Y01494*
X03424Y01494*
X03424Y01494*
X03424Y01494*
X03424Y01494*
X03424Y01494*
X03424Y01494*
X03424Y01494*
X03424Y01494*
X03424Y01494*
X03425*
X03425Y01494*
X03425Y01494*
X03425Y01494*
X03425Y01494*
X03425Y01494*
X03425Y01494*
X03425Y01494*
X03425Y01494*
X03425Y01494*
X03425Y01494*
X03425Y01494*
X03425Y01494*
X03425Y01494*
X03426Y01494*
X03426Y01494*
X03426Y01495*
X03426Y01495*
X03426Y01495*
X03426Y01495*
X03426Y01495*
X03426Y01495*
X03426Y01495*
G54D20*
X0433Y01832D02*
D01*
X0433Y01832*
X0433Y01833*
X0433Y01833*
X04329Y01833*
X04329Y01833*
X04329Y01833*
X04329Y01833*
X04329Y01833*
X04329Y01834*
X04329Y01834*
X04329Y01834*
X04329Y01834*
X04329Y01834*
X04329Y01834*
X04328Y01834*
X04328Y01834*
X04328Y01834*
X04328Y01834*
X04328Y01834*
X04328Y01835*
X04327Y01835*
X04327Y01835*
X04327*
X04327Y01835*
X04327Y01835*
X04327Y01834*
X04326Y01834*
X04326Y01834*
X04326Y01834*
X04326Y01834*
X04326Y01834*
X04326Y01834*
X04326Y01834*
X04326Y01834*
X04325Y01834*
X04325Y01834*
X04325Y01833*
X04325Y01833*
X04325Y01833*
X04325Y01833*
X04325Y01833*
X04325Y01833*
X04325Y01833*
X04325Y01832*
X04325Y01832*
X04325Y01832*
X04325Y01832*
X04325Y01832*
X04325Y01832*
X04325Y01831*
X04325Y01831*
X04325Y01831*
X04325Y01831*
X04325Y01831*
X04325Y01831*
X04326Y01831*
X04326Y0183*
X04326Y0183*
X04326Y0183*
X04326Y0183*
X04326Y0183*
X04326Y0183*
X04326Y0183*
X04327Y0183*
X04327Y0183*
X04327Y0183*
X04327Y0183*
X04327*
X04327Y0183*
X04328Y0183*
X04328Y0183*
X04328Y0183*
X04328Y0183*
X04328Y0183*
X04328Y0183*
X04329Y0183*
X04329Y0183*
X04329Y0183*
X04329Y01831*
X04329Y01831*
X04329Y01831*
X04329Y01831*
X04329Y01831*
X04329Y01831*
X04329Y01831*
X04329Y01832*
X0433Y01832*
X0433Y01832*
X0433Y01832*
X0433Y01832*
G54D21*
X0867Y0107D02*
Y04555D01*
X0171D02*
X0867D01*
X0171Y0107D02*
Y04555D01*
Y0107D02*
X0867D01*
G54D22*
X01985Y01316D03*
Y01393D03*
G54D23*
X01985Y01211D03*
Y01152D03*
G54D24*
X075Y01693D03*
X07858D03*
X075Y0187D03*
X07858D03*
X075Y01243D03*
X07858D03*
X075Y0142D03*
X07858D03*
X08015Y01693D03*
X08373D03*
X08015Y0187D03*
X08373D03*
X075Y02168D03*
X07858D03*
X075Y02345D03*
X07858D03*
X0697Y01693D03*
X07328D03*
X0697Y0187D03*
X07328D03*
X02474Y01378D03*
X02115D03*
X02474Y01201D03*
X02115D03*
X021Y02396D03*
X02459D03*
X021Y02573D03*
X02459D03*
G54D25*
X08178Y0235D03*
X08251D03*
X08178Y0225D03*
X08251D03*
X07715Y01605D03*
X07643D03*
X07715Y01141D03*
X07643D03*
X08235Y01605D03*
X08163D03*
X07715Y02061D03*
X07643D03*
X07175Y01605D03*
X07103D03*
X04671Y01785D03*
X04598D03*
X01878Y0241D03*
X01951D03*
X02698Y01135D03*
X02625D03*
X02698Y01335D03*
X02625D03*
X02383Y01875D03*
X0231D03*
X02026Y0149D03*
X01953D03*
X02146Y04375D03*
X02073D03*
G54D26*
X06683Y0349D03*
X0676D03*
X06683Y03365D03*
X0676D03*
X06683Y0324D03*
X0676D03*
X06683Y03115D03*
X0676D03*
X06683Y0299D03*
X0676D03*
X06683Y02865D03*
X0676D03*
X06683Y0274D03*
X0676D03*
X06683Y02615D03*
X0676D03*
X07875Y0438D03*
X07798D03*
X07875Y04259D03*
X07798D03*
X07875Y04138D03*
X07798D03*
X07875Y04018D03*
X07798D03*
X07875Y03897D03*
X07798D03*
X07875Y03777D03*
X07798D03*
X07875Y03656D03*
X07798D03*
X07875Y03536D03*
X07798D03*
X07875Y03415D03*
X07798D03*
X07875Y03294D03*
X07798D03*
X07875Y03174D03*
X07798D03*
X07875Y03053D03*
X07798D03*
X07875Y02933D03*
X07798D03*
X07875Y02812D03*
X07798D03*
X07875Y02692D03*
X07798D03*
X07875Y02571D03*
X07798D03*
G54D27*
X08392Y02226D03*
Y02245D03*
Y02175D03*
Y02163D03*
X08392Y02206D03*
Y02194D03*
Y02395D03*
Y02383D03*
X08392Y02265D03*
Y02285D03*
Y02305D03*
Y02324D03*
Y02344D03*
Y02364D03*
Y02415D03*
Y02427D03*
G54D28*
X06961Y0349D03*
X06902D03*
X06961Y03365D03*
X06902D03*
X06961Y0324D03*
X06902D03*
X06961Y03115D03*
X06902D03*
X06961Y0299D03*
X06902D03*
X06961Y02866D03*
X06902D03*
X06961Y02741D03*
X06902D03*
X06961Y02616D03*
X06902D03*
X07597Y04385D03*
X07656D03*
X07597Y04264D03*
X07656D03*
X07597Y04143D03*
X07656D03*
X07597Y04022D03*
X07656D03*
X07597Y03901D03*
X07656D03*
X07597Y0378D03*
X07656D03*
X07597Y03659D03*
X07656D03*
X07597Y03538D03*
X07656D03*
X07597Y03417D03*
X07656D03*
X07597Y03296D03*
X07656D03*
X07597Y03175D03*
X07656D03*
X07597Y03054D03*
X07656D03*
X07597Y02933D03*
X07656D03*
X07597Y02812D03*
X07656D03*
X07597Y02691D03*
X07656D03*
X07597Y0257D03*
X07656D03*
G54D29*
X04319Y01785D03*
X045D03*
G54D30*
X04197Y01785D03*
X04122D03*
X06127Y02745D03*
X06202D03*
X01872Y0257D03*
X01947D03*
X02312Y02005D03*
X02387D03*
X05467Y01765D03*
X05542D03*
X02309Y0165D03*
X02384D03*
X02309Y01765D03*
X02384D03*
X06732Y03625D03*
X06807D03*
X02642Y0274D03*
X02717D03*
G54D31*
X03261Y01961D03*
Y01888D03*
G54D32*
X03266Y01152D03*
Y01227D03*
Y01657D03*
Y01582D03*
G54D33*
X02681Y01968D03*
Y01901D03*
M02*