%FSTAX23Y23*%
%MOIN*%
%SFA1B1*%

%IPPOS*%
%ADD10C,0.010000*%
%ADD11C,0.020000*%
%ADD12C,0.009840*%
%ADD13C,0.023620*%
%ADD14C,0.007870*%
%ADD15C,0.015750*%
%ADD16C,0.005000*%
%ADD17C,0.008000*%
%ADD18C,0.006000*%
%ADD19C,0.002360*%
%ADD20C,0.004720*%
%ADD21C,0.002700*%
%LN6502_carrier-1*%
%LPD*%
G54D10*
X0302Y03835D02*
D01*
X03019Y03836*
X03019Y03837*
X03019Y03839*
X03019Y0384*
X03018Y03841*
X03018Y03843*
X03017Y03844*
X03016Y03845*
X03016Y03846*
X03015Y03847*
X03014Y03848*
X03013Y03849*
X03012Y0385*
X03011Y03851*
X0301Y03852*
X03008Y03852*
X03007Y03853*
X03006Y03854*
X03004Y03854*
X03003Y03854*
X03002Y03854*
X03Y03854*
X02999*
X02997Y03854*
X02996Y03854*
X02995Y03854*
X02993Y03854*
X02992Y03853*
X02991Y03852*
X0299Y03852*
X02988Y03851*
X02987Y0385*
X02986Y03849*
X02985Y03848*
X02984Y03847*
X02983Y03846*
X02983Y03845*
X02982Y03844*
X02981Y03843*
X02981Y03841*
X0298Y0384*
X0298Y03839*
X0298Y03837*
X0298Y03836*
X0298Y03835*
X0298Y03833*
X0298Y03832*
X0298Y0383*
X0298Y03829*
X02981Y03828*
X02981Y03826*
X02982Y03825*
X02983Y03824*
X02983Y03823*
X02984Y03822*
X02985Y03821*
X02986Y0382*
X02987Y03819*
X02988Y03818*
X0299Y03817*
X02991Y03817*
X02992Y03816*
X02993Y03815*
X02995Y03815*
X02996Y03815*
X02997Y03815*
X02999Y03815*
X03*
X03002Y03815*
X03003Y03815*
X03004Y03815*
X03006Y03815*
X03007Y03816*
X03008Y03817*
X0301Y03817*
X03011Y03818*
X03012Y03819*
X03013Y0382*
X03014Y03821*
X03015Y03822*
X03016Y03823*
X03016Y03824*
X03017Y03825*
X03018Y03826*
X03018Y03828*
X03019Y03829*
X03019Y0383*
X03019Y03832*
X03019Y03833*
X0302Y03835*
X0338Y03795D02*
D01*
X03385Y03795*
X03391Y03796*
X03397Y03798*
X03403Y03799*
X03409Y03802*
X03414Y03804*
X03419Y03807*
X03424Y03811*
X03429Y03814*
X03433Y03818*
X03437Y03823*
X03441Y03827*
X03445Y03832*
X03448Y03837*
X03451Y03842*
X03453Y03848*
X03455Y03854*
X03457Y03859*
X03458Y03865*
X03459Y03871*
X0346Y03875*
Y04215D02*
D01*
X03459Y0422*
X03458Y04226*
X03456Y04232*
X03455Y04238*
X03452Y04244*
X0345Y04249*
X03447Y04254*
X03443Y04259*
X0344Y04264*
X03436Y04268*
X03431Y04272*
X03427Y04276*
X03422Y0428*
X03417Y04283*
X03412Y04286*
X03406Y04288*
X034Y0429*
X03395Y04292*
X03389Y04293*
X03383Y04294*
X0338Y04295*
X0304D02*
D01*
X03034Y04294*
X03028Y04293*
X03022Y04291*
X03016Y0429*
X0301Y04287*
X03005Y04285*
X03Y04282*
X02995Y04278*
X0299Y04275*
X02986Y04271*
X02982Y04266*
X02978Y04262*
X02974Y04257*
X02971Y04252*
X02968Y04247*
X02966Y04241*
X02964Y04235*
X02962Y0423*
X02961Y04224*
X0296Y04218*
X0296Y04215*
X08544Y04205D02*
D01*
X08544Y04218*
X08542Y04232*
X0854Y04245*
X08537Y04258*
X08532Y04271*
X08527Y04284*
X08521Y04296*
X08515Y04308*
X08507Y04319*
X08499Y0433*
X0849Y0434*
X0848Y04349*
X08469Y04358*
X08458Y04366*
X08447Y04373*
X08435Y0438*
X08422Y04385*
X0841Y0439*
X08397Y04393*
X08383Y04396*
X0837Y04398*
X08356Y04399*
X08343*
X08329Y04398*
X08316Y04396*
X08302Y04393*
X08289Y0439*
X08277Y04385*
X08264Y0438*
X08252Y04373*
X08241Y04366*
X0823Y04358*
X08219Y04349*
X08209Y0434*
X082Y0433*
X08192Y04319*
X08184Y04308*
X08178Y04296*
X08172Y04284*
X08167Y04271*
X08162Y04258*
X08159Y04245*
X08157Y04232*
X08155Y04218*
X08155Y04205*
X08155Y04191*
X08157Y04177*
X08159Y04164*
X08162Y04151*
X08167Y04138*
X08172Y04125*
X08178Y04113*
X08184Y04101*
X08192Y0409*
X082Y04079*
X08209Y04069*
X08219Y0406*
X0823Y04051*
X08241Y04043*
X08252Y04036*
X08264Y04029*
X08277Y04024*
X08289Y04019*
X08302Y04016*
X08316Y04013*
X08329Y04011*
X08343Y0401*
X08356*
X0837Y04011*
X08383Y04013*
X08397Y04016*
X0841Y04019*
X08422Y04024*
X08435Y04029*
X08447Y04036*
X08458Y04043*
X08469Y04051*
X0848Y0406*
X0849Y04069*
X08499Y04079*
X08507Y0409*
X08515Y04101*
X08521Y04113*
X08527Y04125*
X08532Y04138*
X08537Y04151*
X0854Y04164*
X08542Y04177*
X08544Y04191*
X08544Y04205*
X06778Y04273D02*
D01*
X06778Y04275*
X06777Y04277*
X06777Y04278*
X06777Y0428*
X06776Y04282*
X06776Y04283*
X06775Y04285*
X06774Y04286*
X06773Y04288*
X06772Y04289*
X06771Y0429*
X06769Y04292*
X06768Y04293*
X06767Y04294*
X06765Y04295*
X06764Y04296*
X06762Y04296*
X0676Y04297*
X06759Y04297*
X06757Y04298*
X06755Y04298*
X06754Y04298*
X06752*
X0675Y04298*
X06748Y04298*
X06747Y04297*
X06745Y04297*
X06743Y04296*
X06742Y04296*
X0674Y04295*
X06739Y04294*
X06737Y04293*
X06736Y04292*
X06735Y0429*
X06734Y04289*
X06733Y04288*
X06732Y04286*
X06731Y04285*
X0673Y04283*
X06729Y04282*
X06729Y0428*
X06728Y04278*
X06728Y04277*
X06728Y04275*
X06728Y04273*
X06728Y04271*
X06728Y0427*
X06728Y04268*
X06729Y04266*
X06729Y04264*
X0673Y04263*
X06731Y04261*
X06732Y0426*
X06733Y04258*
X06734Y04257*
X06735Y04256*
X06736Y04254*
X06737Y04253*
X06739Y04252*
X0674Y04251*
X06742Y04251*
X06743Y0425*
X06745Y04249*
X06747Y04249*
X06748Y04248*
X0675Y04248*
X06752Y04248*
X06754*
X06755Y04248*
X06757Y04248*
X06759Y04249*
X0676Y04249*
X06762Y0425*
X06764Y04251*
X06765Y04251*
X06767Y04252*
X06768Y04253*
X06769Y04254*
X06771Y04256*
X06772Y04257*
X06773Y04258*
X06774Y0426*
X06775Y04261*
X06776Y04263*
X06776Y04264*
X06777Y04266*
X06777Y04268*
X06777Y0427*
X06778Y04271*
X06778Y04273*
X06808Y04135D02*
D01*
X06802Y04135*
X06797Y04134*
X06791Y04134*
X06786Y04132*
X06781Y04131*
X06776Y04128*
X06771Y04126*
X06766Y04123*
X06762Y0412*
X06757Y04117*
X06753Y04113*
X06749Y04109*
X06746Y04105*
X06743Y04101*
X0674Y04096*
X06737Y04091*
X06735Y04086*
X06733Y04081*
X06731Y04076*
X0673Y0407*
X0673Y04065*
X06729Y04059*
Y04054*
X0673Y04048*
X0673Y04043*
X06731Y04037*
X06733Y04032*
X06735Y04027*
X06737Y04022*
X0674Y04017*
X06743Y04012*
X06746Y04008*
X06749Y04004*
X06753Y04*
X06757Y03996*
X06762Y03993*
X06766Y0399*
X06771Y03987*
X06776Y03985*
X06781Y03983*
X06786Y03981*
X06791Y03979*
X06797Y03979*
X06802Y03978*
X06808Y03978*
X05163Y04134D02*
D01*
X05157Y04134*
X05152Y04133*
X05146Y04133*
X05141Y04131*
X05136Y04129*
X05131Y04127*
X05126Y04125*
X05121Y04122*
X05117Y04119*
X05112Y04116*
X05108Y04112*
X05104Y04108*
X05101Y04104*
X05098Y041*
X05095Y04095*
X05092Y0409*
X0509Y04085*
X05088Y0408*
X05086Y04075*
X05085Y04069*
X05085Y04064*
X05084Y04058*
Y04053*
X05085Y04047*
X05085Y04042*
X05086Y04036*
X05088Y04031*
X0509Y04026*
X05092Y04021*
X05095Y04016*
X05098Y04011*
X05101Y04007*
X05104Y04003*
X05108Y03999*
X05112Y03995*
X05117Y03992*
X05121Y03989*
X05126Y03986*
X05131Y03984*
X05136Y03981*
X05141Y0398*
X05146Y03978*
X05152Y03978*
X05157Y03977*
X05163Y03977*
X05133Y04272D02*
D01*
X05133Y04274*
X05132Y04276*
X05132Y04277*
X05132Y04279*
X05131Y04281*
X05131Y04282*
X0513Y04284*
X05129Y04285*
X05128Y04287*
X05127Y04288*
X05126Y04289*
X05124Y04291*
X05123Y04292*
X05122Y04293*
X0512Y04294*
X05119Y04294*
X05117Y04295*
X05115Y04296*
X05114Y04296*
X05112Y04297*
X0511Y04297*
X05109Y04297*
X05107*
X05105Y04297*
X05103Y04297*
X05102Y04296*
X051Y04296*
X05098Y04295*
X05097Y04294*
X05095Y04294*
X05094Y04293*
X05092Y04292*
X05091Y04291*
X0509Y04289*
X05089Y04288*
X05088Y04287*
X05087Y04285*
X05086Y04284*
X05085Y04282*
X05084Y04281*
X05084Y04279*
X05083Y04277*
X05083Y04276*
X05083Y04274*
X05083Y04272*
X05083Y0427*
X05083Y04269*
X05083Y04267*
X05084Y04265*
X05084Y04263*
X05085Y04262*
X05086Y0426*
X05087Y04259*
X05088Y04257*
X05089Y04256*
X0509Y04255*
X05091Y04253*
X05092Y04252*
X05094Y04251*
X05095Y0425*
X05097Y0425*
X05098Y04249*
X051Y04248*
X05102Y04248*
X05103Y04247*
X05105Y04247*
X05107Y04247*
X05109*
X0511Y04247*
X05112Y04247*
X05114Y04248*
X05115Y04248*
X05117Y04249*
X05119Y0425*
X0512Y0425*
X05122Y04251*
X05123Y04252*
X05124Y04253*
X05126Y04255*
X05127Y04256*
X05128Y04257*
X05129Y04259*
X0513Y0426*
X05131Y04262*
X05131Y04263*
X05132Y04265*
X05132Y04267*
X05132Y04269*
X05133Y0427*
X05133Y04272*
X0186Y0312D02*
D01*
X01863Y0312*
X01866Y0312*
X0187Y03121*
X01873Y03121*
X01877Y03123*
X0188Y03124*
X01883Y03125*
X01886Y03127*
X01889Y03129*
X01892Y03131*
X01894Y03134*
X01897Y03136*
X01899Y03139*
X01901Y03142*
X01903Y03145*
X01904Y03148*
X01906Y03151*
X01907Y03154*
X01908Y03157*
X01909Y03161*
X01909Y03164*
X01909Y03168*
Y03171*
X01909Y03175*
X01909Y03178*
X01908Y03182*
X01907Y03185*
X01906Y03188*
X01904Y03191*
X01903Y03195*
X01901Y03197*
X01899Y032*
X01897Y03203*
X01894Y03205*
X01892Y03208*
X01889Y0321*
X01886Y03212*
X01883Y03214*
X0188Y03215*
X01877Y03217*
X01873Y03218*
X0187Y03218*
X01866Y03219*
X01863Y03219*
X0186Y0322*
X04175Y0313D02*
D01*
X04178Y0313*
X04181Y0313*
X04185Y03131*
X04188Y03131*
X04192Y03133*
X04195Y03134*
X04198Y03135*
X04201Y03137*
X04204Y03139*
X04207Y03141*
X04209Y03144*
X04212Y03146*
X04214Y03149*
X04216Y03152*
X04218Y03155*
X04219Y03158*
X04221Y03161*
X04222Y03164*
X04223Y03167*
X04224Y03171*
X04224Y03174*
X04224Y03178*
Y03181*
X04224Y03185*
X04224Y03188*
X04223Y03192*
X04222Y03195*
X04221Y03198*
X04219Y03201*
X04218Y03205*
X04216Y03207*
X04214Y0321*
X04212Y03213*
X04209Y03215*
X04207Y03218*
X04204Y0322*
X04201Y03222*
X04198Y03224*
X04195Y03225*
X04192Y03227*
X04188Y03228*
X04185Y03228*
X04181Y03229*
X04178Y03229*
X04175Y0323*
X01735Y0109D02*
X0365D01*
X01735Y02165D02*
X0365D01*
Y0109D02*
Y02165D01*
X01735Y0109D02*
Y02165D01*
X03856Y0182D02*
X06665D01*
X03856Y02363D02*
X06665D01*
Y0182D02*
Y02363D01*
X03856Y0182D02*
Y02363D01*
X0296Y03795D02*
Y04216D01*
X0346Y03869D02*
Y04215D01*
X0296Y03795D02*
X03381D01*
X03038Y04295D02*
X03381D01*
X03856Y01327D02*
X06664D01*
X03685Y02554D02*
X06835D01*
Y01136D02*
Y02554D01*
X03685Y01136D02*
X06835D01*
X03685D02*
Y02554D01*
X03856Y02363D02*
X06664D01*
Y01327D02*
Y02363D01*
X03856Y01327D02*
Y02363D01*
X06808Y04135D02*
Y04321D01*
Y03794D02*
Y03978D01*
X05351Y03794D02*
X06808D01*
X05351D02*
Y04321D01*
X06808*
X08465Y02472D02*
X08521D01*
X08623D02*
X08655D01*
X0846Y02118D02*
X08521D01*
X08623D02*
X08655D01*
Y02472*
X045Y0173D02*
Y01736D01*
Y01833D02*
Y0184D01*
X04319Y0173D02*
Y01736D01*
Y01833D02*
Y0184D01*
Y0173D02*
X045D01*
X04319Y0184D02*
X045D01*
X04374Y0173D02*
Y0184D01*
X08665Y02883D02*
Y03434D01*
X08153Y02883D02*
X08665D01*
X08153D02*
Y03434D01*
X08665*
X03706Y0432D02*
X05163D01*
X03706Y03793D02*
Y0432D01*
Y03793D02*
X05163D01*
Y03977*
Y04134D02*
Y0432D01*
X0186Y02925D02*
X0386D01*
X0186Y03415D02*
X0386D01*
X0186Y0322D02*
Y03415D01*
X0386Y02925D02*
Y03415D01*
X0186Y02925D02*
Y0312D01*
X04175Y02935D02*
X06175D01*
X04175Y03425D02*
X06175D01*
X04175Y0323D02*
Y03425D01*
X06175Y02935D02*
Y03425D01*
X04175Y02935D02*
Y0313D01*
X0343Y01456D02*
X0361D01*
X0343Y01294D02*
Y01454D01*
X0361Y01294D02*
Y01454D01*
X0343Y01133D02*
X0361D01*
Y01134D02*
Y01294D01*
X0343Y01134D02*
Y01294D01*
X08284Y04284D02*
X08264Y04274D01*
X08245Y04254*
Y04235*
X08255Y04225*
X08274*
X08284Y04235*
Y04244*
X08274Y04254*
X08245*
X08344Y04284D02*
X08304D01*
Y04254*
X08324Y04264*
X08334*
X08344Y04254*
Y04235*
X08334Y04225*
X08314*
X08304Y04235*
X08364Y04274D02*
X08374Y04284D01*
X08394*
X08404Y04274*
Y04235*
X08394Y04225*
X08374*
X08364Y04235*
Y04274*
X08464Y04225D02*
X08424D01*
X08464Y04264*
Y04274*
X08454Y04284*
X08434*
X08424Y04274*
X05839Y04089D02*
X05819Y04079D01*
X058Y04059*
Y0404*
X0581Y0403*
X05829*
X05839Y0404*
Y04049*
X05829Y04059*
X058*
X05899Y0403D02*
X05859D01*
X05899Y04069*
Y04079*
X05889Y04089*
X05869*
X05859Y04079*
X05959Y0403D02*
X05919D01*
X05959Y04069*
Y04079*
X05949Y04089*
X05929*
X05919Y04079*
X06019Y04089D02*
X05979D01*
Y04059*
X05999Y04069*
X06009*
X06019Y04059*
Y0404*
X06009Y0403*
X05989*
X05979Y0404*
X06079Y04089D02*
X06059Y04079D01*
X06039Y04059*
Y0404*
X06049Y0403*
X06069*
X06079Y0404*
Y04049*
X06069Y04059*
X06039*
X06159Y0403D02*
Y04089D01*
X06189*
X06199Y04079*
Y04059*
X06189Y04049*
X06159*
X06179D02*
X06199Y0403D01*
X06219D02*
Y04069D01*
X06239Y04089*
X06259Y04069*
Y0403*
Y04059*
X06219*
X06279Y0403D02*
Y04089D01*
X06299Y04069*
X06319Y04089*
Y0403*
X04064D02*
X04025D01*
X04064Y04069*
Y04079*
X04054Y04089*
X04035*
X04025Y04079*
X04084D02*
X04094Y04089D01*
X04114*
X04124Y04079*
Y04069*
X04114Y04059*
X04124Y04049*
Y0404*
X04114Y0403*
X04094*
X04084Y0404*
Y04049*
X04094Y04059*
X04084Y04069*
Y04079*
X04094Y04059D02*
X04114D01*
X04184Y04079D02*
X04174Y04089D01*
X04154*
X04144Y04079*
Y0404*
X04154Y0403*
X04174*
X04184Y0404*
X04244Y0403D02*
X04204D01*
X04244Y04069*
Y04079*
X04234Y04089*
X04214*
X04204Y04079*
X04304Y04089D02*
X04264D01*
Y04059*
X04284Y04069*
X04294*
X04304Y04059*
Y0404*
X04294Y0403*
X04274*
X04264Y0404*
X04364Y04089D02*
X04344Y04079D01*
X04324Y04059*
Y0404*
X04334Y0403*
X04354*
X04364Y0404*
Y04049*
X04354Y04059*
X04324*
X04484Y04089D02*
X04444D01*
Y0403*
X04484*
X04444Y04059D02*
X04464D01*
X04544Y04089D02*
X04504D01*
Y0403*
X04544*
X04504Y04059D02*
X04524D01*
X04564Y0403D02*
Y04089D01*
X04594*
X04604Y04079*
Y04059*
X04594Y04049*
X04564*
X04624Y0403D02*
Y04089D01*
X04654*
X04664Y04079*
Y04059*
X04654Y04049*
X04624*
X04644D02*
X04664Y0403D01*
X04714Y04089D02*
X04694D01*
X04684Y04079*
Y0404*
X04694Y0403*
X04714*
X04724Y0404*
Y04079*
X04714Y04089*
X04744Y0403D02*
Y04089D01*
X04764Y04069*
X04784Y04089*
Y0403*
X045Y03199D02*
Y0314D01*
X04519Y03159*
X04539Y0314*
Y03199*
X04599D02*
X04579Y03189D01*
X04559Y03169*
Y0315*
X04569Y0314*
X04589*
X04599Y0315*
Y03159*
X04589Y03169*
X04559*
X04659Y03199D02*
X04619D01*
Y03169*
X04639Y03179*
X04649*
X04659Y03169*
Y0315*
X04649Y0314*
X04629*
X04619Y0315*
X04719Y03189D02*
X04709Y03199D01*
X04689*
X04679Y03189*
Y0315*
X04689Y0314*
X04709*
X04719Y0315*
X04779Y0314D02*
X04739D01*
X04779Y03179*
Y03189*
X04769Y03199*
X04749*
X04739Y03189*
X04839Y0314D02*
X04799D01*
X04839Y03179*
Y03189*
X04829Y03199*
X04809*
X04799Y03189*
X04919Y03199D02*
X04939D01*
X04929*
Y0314*
X04919*
X04939*
X04969D02*
Y03199D01*
X05009Y0314*
Y03199*
X05029D02*
X05069D01*
X05049*
Y0314*
X05129Y03199D02*
X05089D01*
Y0314*
X05129*
X05089Y03169D02*
X05109D01*
X05149Y0314D02*
Y03199D01*
X05179*
X05189Y03189*
Y03169*
X05179Y03159*
X05149*
X05169D02*
X05189Y0314D01*
X05249Y03199D02*
X05209D01*
Y03169*
X05229*
X05209*
Y0314*
X05269D02*
Y03179D01*
X05289Y03199*
X05309Y03179*
Y0314*
Y03169*
X05269*
X05369Y03189D02*
X05359Y03199D01*
X05339*
X05329Y03189*
Y0315*
X05339Y0314*
X05359*
X05369Y0315*
X05429Y03199D02*
X05389D01*
Y0314*
X05429*
X05389Y03169D02*
X05409D01*
X05509Y0314D02*
Y03179D01*
X05529Y03199*
X05549Y03179*
Y0314*
Y03169*
X05509*
X05569Y03199D02*
Y0314D01*
X05599*
X05609Y0315*
Y03189*
X05599Y03199*
X05569*
X05629Y0314D02*
Y03179D01*
X05649Y03199*
X05669Y03179*
Y0314*
Y03169*
X05629*
X05689Y0314D02*
Y03199D01*
X05719*
X05729Y03189*
Y03169*
X05719Y03159*
X05689*
X05749Y03199D02*
X05789D01*
X05769*
Y0314*
X05849Y03199D02*
X05809D01*
Y0314*
X05849*
X05809Y03169D02*
X05829D01*
X05869Y0314D02*
Y03199D01*
X05899*
X05909Y03189*
Y03169*
X05899Y03159*
X05869*
X05889D02*
X05909Y0314D01*
X024Y03199D02*
Y0314D01*
X02419Y03159*
X02439Y0314*
Y03199*
X02499D02*
X02479Y03189D01*
X02459Y03169*
Y0315*
X02469Y0314*
X02489*
X02499Y0315*
Y03159*
X02489Y03169*
X02459*
X02559Y03199D02*
X02519D01*
Y03169*
X02539Y03179*
X02549*
X02559Y03169*
Y0315*
X02549Y0314*
X02529*
X02519Y0315*
X02619Y03189D02*
X02609Y03199D01*
X02589*
X02579Y03189*
Y0315*
X02589Y0314*
X02609*
X02619Y0315*
X02639Y03189D02*
X02649Y03199D01*
X02669*
X02679Y03189*
Y0315*
X02669Y0314*
X02649*
X02639Y0315*
Y03189*
X02739Y0314D02*
X02699D01*
X02739Y03179*
Y03189*
X02729Y03199*
X02709*
X02699Y03189*
X02819Y0314D02*
Y03199D01*
X02849*
X02859Y03189*
Y03169*
X02849Y03159*
X02819*
X02879Y0314D02*
Y03199D01*
X02909*
X02919Y03189*
Y03169*
X02909Y03159*
X02879*
X02899D02*
X02919Y0314D01*
X02969Y03199D02*
X02949D01*
X02939Y03189*
Y0315*
X02949Y0314*
X02969*
X02979Y0315*
Y03189*
X02969Y03199*
X03039Y03189D02*
X03029Y03199D01*
X03009*
X02999Y03189*
Y0315*
X03009Y0314*
X03029*
X03039Y0315*
X03099Y03199D02*
X03059D01*
Y0314*
X03099*
X03059Y03169D02*
X03079D01*
X03159Y03189D02*
X03149Y03199D01*
X03129*
X03119Y03189*
Y03179*
X03129Y03169*
X03149*
X03159Y03159*
Y0315*
X03149Y0314*
X03129*
X03119Y0315*
X03219Y03189D02*
X03209Y03199D01*
X03189*
X03179Y03189*
Y03179*
X03189Y03169*
X03209*
X03219Y03159*
Y0315*
X03209Y0314*
X03189*
X03179Y0315*
X03269Y03199D02*
X03249D01*
X03239Y03189*
Y0315*
X03249Y0314*
X03269*
X03279Y0315*
Y03189*
X03269Y03199*
X03299Y0314D02*
Y03199D01*
X03329*
X03339Y03189*
Y03169*
X03329Y03159*
X03299*
X03319D02*
X03339Y0314D01*
X05809Y01794D02*
X0577D01*
Y01764*
X05789Y01774*
X05799*
X05809Y01764*
Y01744*
X05799Y01734*
X0578*
X0577Y01744*
X05869Y01794D02*
X05829D01*
Y01764*
X05849Y01774*
X05859*
X05869Y01764*
Y01744*
X05859Y01734*
X05839*
X05829Y01744*
X05929Y01794D02*
X05889D01*
Y01764*
X05909Y01774*
X05919*
X05929Y01764*
Y01744*
X05919Y01734*
X05899*
X05889Y01744*
X06009Y01794D02*
Y01734D01*
X06049*
X06079D02*
X06099D01*
X06109Y01744*
Y01764*
X06099Y01774*
X06079*
X06069Y01764*
Y01744*
X06079Y01734*
X06149Y01715D02*
X06159D01*
X06169Y01725*
Y01774*
X06139*
X06129Y01764*
Y01744*
X06139Y01734*
X06169*
X06189D02*
X06209D01*
X06199*
Y01774*
X06189*
X06279D02*
X06249D01*
X06239Y01764*
Y01744*
X06249Y01734*
X06279*
X06399Y01784D02*
X06389Y01794D01*
X06369*
X06359Y01784*
Y01744*
X06369Y01734*
X06389*
X06399Y01744*
Y01764*
X06379*
X06429Y01774D02*
X06449D01*
X06459Y01764*
Y01734*
X06429*
X06419Y01744*
X06429Y01754*
X06459*
X06489Y01784D02*
Y01774D01*
X06479*
X06499*
X06489*
Y01744*
X06499Y01734*
X06559D02*
X06539D01*
X06529Y01744*
Y01764*
X06539Y01774*
X06559*
X06569Y01764*
Y01754*
X06529*
X06589Y01734D02*
X06619D01*
X06629Y01744*
X06619Y01754*
X06599*
X06589Y01764*
X06599Y01774*
X06629*
X05585Y02389D02*
Y02449D01*
X05614*
X05624Y02439*
Y02419*
X05614Y02409*
X05585*
X05684Y02439D02*
X05674Y02449D01*
X05654*
X05644Y02439*
Y02429*
X05654Y02419*
X05674*
X05684Y02409*
Y02399*
X05674Y02389*
X05654*
X05644Y02399*
X05744Y02389D02*
X05704D01*
X05744Y02429*
Y02439*
X05734Y02449*
X05714*
X05704Y02439*
X05864D02*
X05854Y02449D01*
X05834*
X05824Y02439*
Y02429*
X05834Y02419*
X05854*
X05864Y02409*
Y02399*
X05854Y02389*
X05834*
X05824Y02399*
X05884Y02449D02*
Y02389D01*
Y02419*
X05894Y02429*
X05914*
X05924Y02419*
Y02389*
X05944D02*
X05964D01*
X05954*
Y02429*
X05944*
X06004Y02389D02*
Y02439D01*
Y02419*
X05994*
X06014*
X06004*
Y02439*
X06014Y02449*
X06054Y02439D02*
Y02429D01*
X06044*
X06064*
X06054*
Y02399*
X06064Y02389*
X06154D02*
Y02449D01*
X06184*
X06194Y02439*
Y02419*
X06184Y02409*
X06154*
X06174D02*
X06194Y02389D01*
X06244D02*
X06224D01*
X06214Y02399*
Y02419*
X06224Y02429*
X06244*
X06254Y02419*
Y02409*
X06214*
X06294Y0237D02*
X06304D01*
X06314Y0238*
Y02429*
X06284*
X06274Y02419*
Y02399*
X06284Y02389*
X06314*
X06334D02*
X06354D01*
X06344*
Y02429*
X06334*
X06384Y02389D02*
X06414D01*
X06424Y02399*
X06414Y02409*
X06394*
X06384Y02419*
X06394Y02429*
X06424*
X06454Y02439D02*
Y02429D01*
X06444*
X06464*
X06454*
Y02399*
X06464Y02389*
X06524D02*
X06504D01*
X06494Y02399*
Y02419*
X06504Y02429*
X06524*
X06534Y02419*
Y02409*
X06494*
X06554Y02429D02*
Y02389D01*
Y02409*
X06564Y02419*
X06574Y02429*
X06584*
X06614Y02389D02*
X06644D01*
X06654Y02399*
X06644Y02409*
X06624*
X06614Y02419*
X06624Y02429*
X06654*
X01804Y02249D02*
X01765D01*
Y02219*
X01784Y02229*
X01794*
X01804Y02219*
Y022*
X01794Y0219*
X01775*
X01765Y022*
X01864Y02249D02*
X01824D01*
Y02219*
X01844Y02229*
X01854*
X01864Y02219*
Y022*
X01854Y0219*
X01834*
X01824Y022*
X01924Y02249D02*
X01884D01*
Y02219*
X01904Y02229*
X01914*
X01924Y02219*
Y022*
X01914Y0219*
X01894*
X01884Y022*
X02044Y02239D02*
X02034Y02249D01*
X02014*
X02004Y02239*
Y022*
X02014Y0219*
X02034*
X02044Y022*
X02064Y0219D02*
X02084D01*
X02074*
Y02249*
X02064*
X02124Y0219D02*
X02144D01*
X02154Y022*
Y02219*
X02144Y02229*
X02124*
X02114Y02219*
Y022*
X02124Y0219*
X02214Y02229D02*
X02184D01*
X02174Y02219*
Y022*
X02184Y0219*
X02214*
X02234D02*
Y02249D01*
Y02209D02*
X02264Y02229D01*
X02234Y02209D02*
X02264Y0219D01*
X08305Y0413D02*
Y04189D01*
X08324Y04169*
X08344Y04189*
Y0413*
X08404Y04189D02*
X08384D01*
X08394*
Y0414*
X08384Y0413*
X08374*
X08364Y0414*
X02965Y04389D02*
X03004Y0433D01*
Y04389D02*
X02965Y0433D01*
X03024D02*
X03044D01*
X03034*
Y04389*
X03024Y04379*
X03935Y02674D02*
Y02625D01*
X03945Y02615*
X03965*
X03975Y02625*
Y02674*
X04034D02*
X03995D01*
Y02645*
X04014Y02655*
X04024*
X04034Y02645*
Y02625*
X04024Y02615*
X04004*
X03995Y02625*
X04797Y02339D02*
Y0229D01*
X04807Y0228*
X04827*
X04837Y0229*
Y02339*
X04857Y0228D02*
X04877D01*
X04867*
Y02339*
X04857Y02329*
X04947Y02339D02*
X04907D01*
Y0231*
X04927Y0232*
X04937*
X04947Y0231*
Y0229*
X04937Y0228*
X04917*
X04907Y0229*
X05655Y02339D02*
Y0229D01*
X05665Y0228*
X05685*
X05695Y0229*
Y02339*
X05715Y0228D02*
X05735D01*
X05725*
Y02339*
X05715Y02329*
X05795Y0228D02*
Y02339D01*
X05765Y0231*
X05805*
X0391Y02339D02*
Y0229D01*
X0392Y0228*
X0394*
X0395Y0229*
Y02339*
X0397Y0228D02*
X0399D01*
X0398*
Y02339*
X0397Y02329*
X04019D02*
X04029Y02339D01*
X04049*
X04059Y02329*
Y0232*
X04049Y0231*
X04039*
X04049*
X04059Y023*
Y0229*
X04049Y0228*
X04029*
X04019Y0229*
X0838Y0359D02*
Y03649D01*
X0841*
X0842Y03639*
Y0362*
X0841Y0361*
X0838*
X08479Y03639D02*
X0847Y03649D01*
X0845*
X0844Y03639*
Y0363*
X0845Y0362*
X0847*
X08479Y0361*
Y036*
X0847Y0359*
X0845*
X0844Y036*
X08539Y0359D02*
X08499D01*
X08539Y0363*
Y03639*
X08529Y03649*
X08509*
X08499Y03639*
X0716Y0428D02*
Y04339D01*
X0719*
X072Y04329*
Y0431*
X0719Y043*
X0716*
X07259Y04339D02*
X07239Y04329D01*
X0722Y0431*
Y0429*
X07229Y0428*
X07249*
X07259Y0429*
Y043*
X07249Y0431*
X0722*
X02685Y0423D02*
Y04289D01*
X02715*
X02725Y04279*
Y0426*
X02715Y0425*
X02685*
X02784Y04289D02*
X02745D01*
Y0426*
X02764Y0427*
X02774*
X02784Y0426*
Y0424*
X02774Y0423*
X02754*
X02745Y0424*
X02101Y0424D02*
Y043D01*
X0213*
X0214Y0429*
Y0427*
X0213Y0426*
X02101*
X0219Y0424D02*
Y043D01*
X0216Y0427*
X022*
X02378Y0424D02*
Y043D01*
X02408*
X02418Y0429*
Y0427*
X02408Y0426*
X02378*
X02438Y0429D02*
X02448Y043D01*
X02468*
X02478Y0429*
Y0428*
X02468Y0427*
X02458*
X02468*
X02478Y0426*
Y0425*
X02468Y0424*
X02448*
X02438Y0425*
X07639Y01984D02*
X07629Y01994D01*
X07609*
X07599Y01984*
Y01975*
X07609Y01965*
X07629*
X07639Y01955*
Y01945*
X07629Y01935*
X07609*
X07599Y01945*
X07659Y01994D02*
Y01935D01*
X07679Y01955*
X07699Y01935*
Y01994*
X07719Y01984D02*
X07729Y01994D01*
X07749*
X07759Y01984*
Y01975*
X07749Y01965*
X07759Y01955*
Y01945*
X07749Y01935*
X07729*
X07719Y01945*
Y01955*
X07729Y01965*
X07719Y01975*
Y01984*
X07729Y01965D02*
X07749D01*
X07639Y01526D02*
X07629Y01536D01*
X07609*
X07599Y01526*
Y01516*
X07609Y01506*
X07629*
X07639Y01496*
Y01486*
X07629Y01476*
X07609*
X07599Y01486*
X07659Y01536D02*
Y01476D01*
X07679Y01496*
X07699Y01476*
Y01536*
X07719D02*
X07759D01*
Y01526*
X07719Y01486*
Y01476*
X08154Y01991D02*
X08144Y02001D01*
X08124*
X08114Y01991*
Y01981*
X08124Y01971*
X08144*
X08154Y01961*
Y01951*
X08144Y01941*
X08124*
X08114Y01951*
X08174Y02001D02*
Y01941D01*
X08194Y01961*
X08214Y01941*
Y02001*
X08274D02*
X08254Y01991D01*
X08234Y01971*
Y01951*
X08244Y01941*
X08264*
X08274Y01951*
Y01961*
X08264Y01971*
X08234*
X07639Y02461D02*
X07629Y02471D01*
X07609*
X07599Y02461*
Y02451*
X07609Y02441*
X07629*
X07639Y02431*
Y02421*
X07629Y02411*
X07609*
X07599Y02421*
X07659Y02471D02*
Y02411D01*
X07679Y02431*
X07699Y02411*
Y02471*
X07759D02*
X07719D01*
Y02441*
X07739Y02451*
X07749*
X07759Y02441*
Y02421*
X07749Y02411*
X07729*
X07719Y02421*
X07104Y01986D02*
X07094Y01996D01*
X07074*
X07064Y01986*
Y01976*
X07074Y01966*
X07094*
X07104Y01956*
Y01946*
X07094Y01936*
X07074*
X07064Y01946*
X07124Y01996D02*
Y01936D01*
X07144Y01956*
X07164Y01936*
Y01996*
X07214Y01936D02*
Y01996D01*
X07184Y01966*
X07224*
X01825Y04235D02*
Y04294D01*
X01855*
X01865Y04284*
Y04265*
X01855Y04255*
X01825*
X01884Y04235D02*
X01904D01*
X01894*
Y04294*
X01884Y04284*
X02595Y02644D02*
Y02595D01*
X02605Y02585*
X02625*
X02635Y02595*
Y02644*
X02694D02*
X02674Y02634D01*
X02655Y02615*
Y02595*
X02664Y02585*
X02684*
X02694Y02595*
Y02605*
X02684Y02615*
X02655*
X05351Y04516D02*
Y04466D01*
X05361Y04456*
X05381*
X05391Y04466*
Y04516*
X05411Y04506D02*
X05421Y04516D01*
X05441*
X05451Y04506*
Y04496*
X05441Y04486*
X05431*
X05441*
X05451Y04476*
Y04466*
X05441Y04456*
X05421*
X05411Y04466*
X01805Y03634D02*
Y03585D01*
X01815Y03575*
X01835*
X01845Y03585*
Y03634*
X01894Y03575D02*
Y03634D01*
X01865Y03605*
X01904*
X0414Y03634D02*
Y03585D01*
X0415Y03575*
X0417*
X0418Y03585*
Y03634*
X04199Y03575D02*
X04219D01*
X04209*
Y03634*
X04199Y03624*
X037Y04519D02*
Y0447D01*
X0371Y0446*
X0373*
X0374Y0447*
Y04519*
X03799Y0446D02*
X0376D01*
X03799Y045*
Y04509*
X03789Y04519*
X03769*
X0376Y04509*
X0566Y01714D02*
Y01665D01*
X0567Y01655*
X0569*
X057Y01665*
Y01714*
X0572Y01655D02*
X0574D01*
X0573*
Y01714*
X0572Y01704*
X05769Y01655D02*
X05789D01*
X05779*
Y01714*
X05769Y01704*
X01861Y02126D02*
Y02076D01*
X01871Y02066*
X01891*
X01901Y02076*
Y02126*
X01921Y02116D02*
X01931Y02126D01*
X01951*
X01961Y02116*
Y02106*
X01951Y02096*
X01961Y02086*
Y02076*
X01951Y02066*
X01931*
X01921Y02076*
Y02086*
X01931Y02096*
X01921Y02106*
Y02116*
X01931Y02096D02*
X01951D01*
X04785Y01704D02*
Y01655D01*
X04795Y01645*
X04815*
X04825Y01655*
Y01704*
X04845Y01645D02*
X04865D01*
X04855*
Y01704*
X04845Y01694*
X04934Y01645D02*
X04894D01*
X04934Y01685*
Y01694*
X04924Y01704*
X04904*
X04894Y01694*
X02806Y02131D02*
Y02081D01*
X02816Y02071*
X02836*
X02846Y02081*
Y02131*
X02866D02*
X02906D01*
Y02121*
X02866Y02081*
Y02071*
X02811Y01591D02*
Y01541D01*
X02821Y01531*
X02841*
X02851Y01541*
Y01591*
X02871Y01541D02*
X02881Y01531D01*
X02901*
X02911Y01541*
Y01581*
X02901Y01591*
X02881*
X02871Y01581*
Y01571*
X02881Y01561*
X02911*
X03895Y01704D02*
Y01655D01*
X03905Y01645*
X03925*
X03935Y01655*
Y01704*
X03955Y01645D02*
X03975D01*
X03965*
Y01704*
X03955Y01694*
X04004D02*
X04014Y01704D01*
X04034*
X04044Y01694*
Y01655*
X04034Y01645*
X04014*
X04004Y01655*
Y01694*
X0224Y02694D02*
X0223Y02704D01*
X0221*
X022Y02694*
Y02685*
X0221Y02675*
X0223*
X0224Y02665*
Y02655*
X0223Y02645*
X0221*
X022Y02655*
X0226Y02704D02*
Y02645D01*
X0228Y02665*
X02299Y02645*
Y02704*
X02319Y02645D02*
X02339D01*
X02329*
Y02704*
X02319Y02694*
X02255Y01509D02*
X02245Y01519D01*
X02225*
X02215Y01509*
Y015*
X02225Y0149*
X02245*
X02255Y0148*
Y0147*
X02245Y0146*
X02225*
X02215Y0147*
X02275Y01519D02*
Y0146D01*
X02295Y0148*
X02314Y0146*
Y01519*
X02374Y0146D02*
X02334D01*
X02374Y015*
Y01509*
X02364Y01519*
X02344*
X02334Y01509*
X0348Y01579D02*
X0347Y01589D01*
X0345*
X0344Y01579*
Y0157*
X0345Y0156*
X0347*
X0348Y0155*
Y0154*
X0347Y0153*
X0345*
X0344Y0154*
X035Y01589D02*
Y0153D01*
X0352Y0155*
X03539Y0153*
Y01589*
X03559Y01579D02*
X03569Y01589D01*
X03589*
X03599Y01579*
Y0157*
X03589Y0156*
X03579*
X03589*
X03599Y0155*
Y0154*
X03589Y0153*
X03569*
X03559Y0154*
X03435Y02615D02*
Y02674D01*
X03465*
X03475Y02664*
Y02645*
X03465Y02635*
X03435*
X03455D02*
X03475Y02615D01*
X03495Y02664D02*
X03504Y02674D01*
X03524*
X03534Y02664*
Y02655*
X03524Y02645*
X03514*
X03524*
X03534Y02635*
Y02625*
X03524Y02615*
X03504*
X03495Y02625*
X03435Y0206D02*
Y02119D01*
X03465*
X03475Y02109*
Y0209*
X03465Y0208*
X03435*
X03455D02*
X03475Y0206D01*
X03495Y0207D02*
X03504Y0206D01*
X03524*
X03534Y0207*
Y02109*
X03524Y02119*
X03504*
X03495Y02109*
Y021*
X03504Y0209*
X03534*
G54D11*
X03315Y0398D02*
D01*
X03314Y0398*
X03314Y03981*
X03314Y03982*
X03314Y03982*
X03314Y03983*
X03314Y03984*
X03313Y03984*
X03313Y03985*
X03313Y03985*
X03312Y03986*
X03312Y03986*
X03311Y03987*
X03311Y03987*
X0331Y03988*
X0331Y03988*
X03309Y03988*
X03308Y03989*
X03308Y03989*
X03307Y03989*
X03306Y03989*
X03306Y03989*
X03305Y03989*
X03304*
X03303Y03989*
X03303Y03989*
X03302Y03989*
X03301Y03989*
X03301Y03989*
X033Y03988*
X033Y03988*
X03299Y03988*
X03298Y03987*
X03298Y03987*
X03297Y03986*
X03297Y03986*
X03296Y03985*
X03296Y03985*
X03296Y03984*
X03295Y03984*
X03295Y03983*
X03295Y03982*
X03295Y03982*
X03295Y03981*
X03295Y0398*
X03295Y0398*
X03295Y03979*
X03295Y03978*
X03295Y03977*
X03295Y03977*
X03295Y03976*
X03295Y03975*
X03296Y03975*
X03296Y03974*
X03296Y03974*
X03297Y03973*
X03297Y03973*
X03298Y03972*
X03298Y03972*
X03299Y03971*
X033Y03971*
X033Y03971*
X03301Y0397*
X03301Y0397*
X03302Y0397*
X03303Y0397*
X03303Y0397*
X03304Y0397*
X03305*
X03306Y0397*
X03306Y0397*
X03307Y0397*
X03308Y0397*
X03308Y0397*
X03309Y03971*
X0331Y03971*
X0331Y03971*
X03311Y03972*
X03311Y03972*
X03312Y03973*
X03312Y03973*
X03313Y03974*
X03313Y03974*
X03313Y03975*
X03314Y03975*
X03314Y03976*
X03314Y03977*
X03314Y03977*
X03314Y03978*
X03314Y03979*
X03315Y0398*
X03145D02*
D01*
X03144Y0398*
X03144Y03981*
X03144Y03982*
X03144Y03982*
X03144Y03983*
X03144Y03984*
X03143Y03984*
X03143Y03985*
X03143Y03985*
X03142Y03986*
X03142Y03986*
X03141Y03987*
X03141Y03987*
X0314Y03988*
X0314Y03988*
X03139Y03988*
X03138Y03989*
X03138Y03989*
X03137Y03989*
X03136Y03989*
X03136Y03989*
X03135Y03989*
X03134*
X03133Y03989*
X03133Y03989*
X03132Y03989*
X03131Y03989*
X03131Y03989*
X0313Y03988*
X0313Y03988*
X03129Y03988*
X03128Y03987*
X03128Y03987*
X03127Y03986*
X03127Y03986*
X03126Y03985*
X03126Y03985*
X03126Y03984*
X03125Y03984*
X03125Y03983*
X03125Y03982*
X03125Y03982*
X03125Y03981*
X03125Y0398*
X03125Y0398*
X03125Y03979*
X03125Y03978*
X03125Y03977*
X03125Y03977*
X03125Y03976*
X03125Y03975*
X03126Y03975*
X03126Y03974*
X03126Y03974*
X03127Y03973*
X03127Y03973*
X03128Y03972*
X03128Y03972*
X03129Y03971*
X0313Y03971*
X0313Y03971*
X03131Y0397*
X03131Y0397*
X03132Y0397*
X03133Y0397*
X03133Y0397*
X03134Y0397*
X03135*
X03136Y0397*
X03136Y0397*
X03137Y0397*
X03138Y0397*
X03138Y0397*
X03139Y03971*
X0314Y03971*
X0314Y03971*
X03141Y03972*
X03141Y03972*
X03142Y03973*
X03142Y03973*
X03143Y03974*
X03143Y03974*
X03143Y03975*
X03144Y03975*
X03144Y03976*
X03144Y03977*
X03144Y03977*
X03144Y03978*
X03144Y03979*
X03145Y0398*
X03225Y0415D02*
D01*
X03224Y0415*
X03224Y04151*
X03224Y04152*
X03224Y04152*
X03224Y04153*
X03224Y04154*
X03223Y04154*
X03223Y04155*
X03223Y04155*
X03222Y04156*
X03222Y04156*
X03221Y04157*
X03221Y04157*
X0322Y04158*
X0322Y04158*
X03219Y04158*
X03218Y04159*
X03218Y04159*
X03217Y04159*
X03216Y04159*
X03216Y04159*
X03215Y04159*
X03214*
X03213Y04159*
X03213Y04159*
X03212Y04159*
X03211Y04159*
X03211Y04159*
X0321Y04158*
X0321Y04158*
X03209Y04158*
X03208Y04157*
X03208Y04157*
X03207Y04156*
X03207Y04156*
X03206Y04155*
X03206Y04155*
X03206Y04154*
X03205Y04154*
X03205Y04153*
X03205Y04152*
X03205Y04152*
X03205Y04151*
X03205Y0415*
X03205Y0415*
X03205Y04149*
X03205Y04148*
X03205Y04147*
X03205Y04147*
X03205Y04146*
X03205Y04145*
X03206Y04145*
X03206Y04144*
X03206Y04144*
X03207Y04143*
X03207Y04143*
X03208Y04142*
X03208Y04142*
X03209Y04141*
X0321Y04141*
X0321Y04141*
X03211Y0414*
X03211Y0414*
X03212Y0414*
X03213Y0414*
X03213Y0414*
X03214Y0414*
X03215*
X03216Y0414*
X03216Y0414*
X03217Y0414*
X03218Y0414*
X03218Y0414*
X03219Y04141*
X0322Y04141*
X0322Y04141*
X03221Y04142*
X03221Y04142*
X03222Y04143*
X03222Y04143*
X03223Y04144*
X03223Y04144*
X03223Y04145*
X03224Y04145*
X03224Y04146*
X03224Y04147*
X03224Y04147*
X03224Y04148*
X03224Y04149*
X03225Y0415*
G54D12*
X06796Y04396D02*
D01*
X06796Y04396*
X06796Y04397*
X06795Y04397*
X06795Y04397*
X06795Y04398*
X06795Y04398*
X06795Y04398*
X06795Y04399*
X06795Y04399*
X06794Y04399*
X06794Y04399*
X06794Y044*
X06794Y044*
X06793Y044*
X06793Y044*
X06793Y044*
X06793Y04401*
X06792Y04401*
X06792Y04401*
X06792Y04401*
X06791Y04401*
X06791Y04401*
X06791*
X0679Y04401*
X0679Y04401*
X06789Y04401*
X06789Y04401*
X06789Y04401*
X06789Y044*
X06788Y044*
X06788Y044*
X06788Y044*
X06787Y044*
X06787Y04399*
X06787Y04399*
X06787Y04399*
X06787Y04399*
X06786Y04398*
X06786Y04398*
X06786Y04398*
X06786Y04397*
X06786Y04397*
X06786Y04397*
X06786Y04396*
X06786Y04396*
X06786Y04396*
X06786Y04395*
X06786Y04395*
X06786Y04395*
X06786Y04394*
X06786Y04394*
X06786Y04394*
X06787Y04393*
X06787Y04393*
X06787Y04393*
X06787Y04393*
X06787Y04392*
X06788Y04392*
X06788Y04392*
X06788Y04392*
X06789Y04392*
X06789Y04391*
X06789Y04391*
X06789Y04391*
X0679Y04391*
X0679Y04391*
X06791Y04391*
X06791*
X06791Y04391*
X06792Y04391*
X06792Y04391*
X06792Y04391*
X06793Y04391*
X06793Y04392*
X06793Y04392*
X06793Y04392*
X06794Y04392*
X06794Y04392*
X06794Y04393*
X06794Y04393*
X06795Y04393*
X06795Y04393*
X06795Y04394*
X06795Y04394*
X06795Y04394*
X06795Y04395*
X06795Y04395*
X06796Y04395*
X06796Y04396*
X06796Y04396*
X07505Y01919D02*
D01*
X07505Y01919*
X07505Y0192*
X07505Y0192*
X07505Y0192*
X07505Y01921*
X07504Y01921*
X07504Y01921*
X07504Y01922*
X07504Y01922*
X07504Y01922*
X07503Y01922*
X07503Y01923*
X07503Y01923*
X07503Y01923*
X07502Y01923*
X07502Y01923*
X07502Y01924*
X07501Y01924*
X07501Y01924*
X07501Y01924*
X075Y01924*
X075Y01924*
X075*
X07499Y01924*
X07499Y01924*
X07499Y01924*
X07498Y01924*
X07498Y01924*
X07498Y01923*
X07497Y01923*
X07497Y01923*
X07497Y01923*
X07497Y01923*
X07496Y01922*
X07496Y01922*
X07496Y01922*
X07496Y01922*
X07496Y01921*
X07495Y01921*
X07495Y01921*
X07495Y0192*
X07495Y0192*
X07495Y0192*
X07495Y01919*
X07495Y01919*
X07495Y01919*
X07495Y01918*
X07495Y01918*
X07495Y01918*
X07495Y01917*
X07495Y01917*
X07496Y01917*
X07496Y01916*
X07496Y01916*
X07496Y01916*
X07496Y01916*
X07497Y01915*
X07497Y01915*
X07497Y01915*
X07497Y01915*
X07498Y01915*
X07498Y01915*
X07498Y01914*
X07499Y01914*
X07499Y01914*
X07499Y01914*
X075Y01914*
X075*
X075Y01914*
X07501Y01914*
X07501Y01914*
X07501Y01914*
X07502Y01915*
X07502Y01915*
X07502Y01915*
X07503Y01915*
X07503Y01915*
X07503Y01915*
X07503Y01916*
X07504Y01916*
X07504Y01916*
X07504Y01916*
X07504Y01917*
X07504Y01917*
X07505Y01917*
X07505Y01918*
X07505Y01918*
X07505Y01918*
X07505Y01919*
X07505Y01919*
Y01469D02*
D01*
X07505Y01469*
X07505Y0147*
X07505Y0147*
X07505Y0147*
X07505Y01471*
X07504Y01471*
X07504Y01471*
X07504Y01472*
X07504Y01472*
X07504Y01472*
X07503Y01472*
X07503Y01473*
X07503Y01473*
X07503Y01473*
X07502Y01473*
X07502Y01473*
X07502Y01474*
X07501Y01474*
X07501Y01474*
X07501Y01474*
X075Y01474*
X075Y01474*
X075*
X07499Y01474*
X07499Y01474*
X07499Y01474*
X07498Y01474*
X07498Y01474*
X07498Y01473*
X07497Y01473*
X07497Y01473*
X07497Y01473*
X07497Y01473*
X07496Y01472*
X07496Y01472*
X07496Y01472*
X07496Y01472*
X07496Y01471*
X07495Y01471*
X07495Y01471*
X07495Y0147*
X07495Y0147*
X07495Y0147*
X07495Y01469*
X07495Y01469*
X07495Y01469*
X07495Y01468*
X07495Y01468*
X07495Y01468*
X07495Y01467*
X07495Y01467*
X07496Y01467*
X07496Y01466*
X07496Y01466*
X07496Y01466*
X07496Y01466*
X07497Y01465*
X07497Y01465*
X07497Y01465*
X07497Y01465*
X07498Y01465*
X07498Y01465*
X07498Y01464*
X07499Y01464*
X07499Y01464*
X07499Y01464*
X075Y01464*
X075*
X075Y01464*
X07501Y01464*
X07501Y01464*
X07501Y01464*
X07502Y01465*
X07502Y01465*
X07502Y01465*
X07503Y01465*
X07503Y01465*
X07503Y01465*
X07503Y01466*
X07504Y01466*
X07504Y01466*
X07504Y01466*
X07504Y01467*
X07504Y01467*
X07505Y01467*
X07505Y01468*
X07505Y01468*
X07505Y01468*
X07505Y01469*
X07505Y01469*
X0802Y01919D02*
D01*
X0802Y01919*
X0802Y0192*
X0802Y0192*
X0802Y0192*
X0802Y01921*
X08019Y01921*
X08019Y01921*
X08019Y01922*
X08019Y01922*
X08019Y01922*
X08018Y01922*
X08018Y01923*
X08018Y01923*
X08018Y01923*
X08017Y01923*
X08017Y01923*
X08017Y01924*
X08016Y01924*
X08016Y01924*
X08016Y01924*
X08015Y01924*
X08015Y01924*
X08015*
X08014Y01924*
X08014Y01924*
X08014Y01924*
X08013Y01924*
X08013Y01924*
X08013Y01923*
X08012Y01923*
X08012Y01923*
X08012Y01923*
X08012Y01923*
X08011Y01922*
X08011Y01922*
X08011Y01922*
X08011Y01922*
X08011Y01921*
X0801Y01921*
X0801Y01921*
X0801Y0192*
X0801Y0192*
X0801Y0192*
X0801Y01919*
X0801Y01919*
X0801Y01919*
X0801Y01918*
X0801Y01918*
X0801Y01918*
X0801Y01917*
X0801Y01917*
X08011Y01917*
X08011Y01916*
X08011Y01916*
X08011Y01916*
X08011Y01916*
X08012Y01915*
X08012Y01915*
X08012Y01915*
X08012Y01915*
X08013Y01915*
X08013Y01915*
X08013Y01914*
X08014Y01914*
X08014Y01914*
X08014Y01914*
X08015Y01914*
X08015*
X08015Y01914*
X08016Y01914*
X08016Y01914*
X08016Y01914*
X08017Y01915*
X08017Y01915*
X08017Y01915*
X08018Y01915*
X08018Y01915*
X08018Y01915*
X08018Y01916*
X08019Y01916*
X08019Y01916*
X08019Y01916*
X08019Y01917*
X08019Y01917*
X0802Y01917*
X0802Y01918*
X0802Y01918*
X0802Y01918*
X0802Y01919*
X0802Y01919*
X07505Y02394D02*
D01*
X07505Y02394*
X07505Y02395*
X07505Y02395*
X07505Y02395*
X07505Y02396*
X07504Y02396*
X07504Y02396*
X07504Y02397*
X07504Y02397*
X07504Y02397*
X07503Y02397*
X07503Y02398*
X07503Y02398*
X07503Y02398*
X07502Y02398*
X07502Y02398*
X07502Y02399*
X07501Y02399*
X07501Y02399*
X07501Y02399*
X075Y02399*
X075Y02399*
X075*
X07499Y02399*
X07499Y02399*
X07499Y02399*
X07498Y02399*
X07498Y02399*
X07498Y02398*
X07497Y02398*
X07497Y02398*
X07497Y02398*
X07497Y02398*
X07496Y02397*
X07496Y02397*
X07496Y02397*
X07496Y02397*
X07496Y02396*
X07495Y02396*
X07495Y02396*
X07495Y02395*
X07495Y02395*
X07495Y02395*
X07495Y02394*
X07495Y02394*
X07495Y02394*
X07495Y02393*
X07495Y02393*
X07495Y02393*
X07495Y02392*
X07495Y02392*
X07496Y02392*
X07496Y02391*
X07496Y02391*
X07496Y02391*
X07496Y02391*
X07497Y0239*
X07497Y0239*
X07497Y0239*
X07497Y0239*
X07498Y0239*
X07498Y0239*
X07498Y02389*
X07499Y02389*
X07499Y02389*
X07499Y02389*
X075Y02389*
X075*
X075Y02389*
X07501Y02389*
X07501Y02389*
X07501Y02389*
X07502Y0239*
X07502Y0239*
X07502Y0239*
X07503Y0239*
X07503Y0239*
X07503Y0239*
X07503Y02391*
X07504Y02391*
X07504Y02391*
X07504Y02391*
X07504Y02392*
X07504Y02392*
X07505Y02392*
X07505Y02393*
X07505Y02393*
X07505Y02393*
X07505Y02394*
X07505Y02394*
X06975Y01919D02*
D01*
X06975Y01919*
X06975Y0192*
X06975Y0192*
X06975Y0192*
X06975Y01921*
X06974Y01921*
X06974Y01921*
X06974Y01922*
X06974Y01922*
X06974Y01922*
X06973Y01922*
X06973Y01923*
X06973Y01923*
X06973Y01923*
X06972Y01923*
X06972Y01923*
X06972Y01924*
X06971Y01924*
X06971Y01924*
X06971Y01924*
X0697Y01924*
X0697Y01924*
X0697*
X06969Y01924*
X06969Y01924*
X06969Y01924*
X06968Y01924*
X06968Y01924*
X06968Y01923*
X06967Y01923*
X06967Y01923*
X06967Y01923*
X06967Y01923*
X06966Y01922*
X06966Y01922*
X06966Y01922*
X06966Y01922*
X06966Y01921*
X06965Y01921*
X06965Y01921*
X06965Y0192*
X06965Y0192*
X06965Y0192*
X06965Y01919*
X06965Y01919*
X06965Y01919*
X06965Y01918*
X06965Y01918*
X06965Y01918*
X06965Y01917*
X06965Y01917*
X06966Y01917*
X06966Y01916*
X06966Y01916*
X06966Y01916*
X06966Y01916*
X06967Y01915*
X06967Y01915*
X06967Y01915*
X06967Y01915*
X06968Y01915*
X06968Y01915*
X06968Y01914*
X06969Y01914*
X06969Y01914*
X06969Y01914*
X0697Y01914*
X0697*
X0697Y01914*
X06971Y01914*
X06971Y01914*
X06971Y01914*
X06972Y01915*
X06972Y01915*
X06972Y01915*
X06973Y01915*
X06973Y01915*
X06973Y01915*
X06973Y01916*
X06974Y01916*
X06974Y01916*
X06974Y01916*
X06974Y01917*
X06974Y01917*
X06975Y01917*
X06975Y01918*
X06975Y01918*
X06975Y01918*
X06975Y01919*
X06975Y01919*
X04785Y01915D02*
D01*
X04785Y01915*
X04785Y01915*
X04785Y01916*
X04785Y01916*
X04785Y01916*
X04785Y01917*
X04785Y01917*
X04785Y01917*
X04784Y01917*
X04784Y01918*
X04784Y01918*
X04784Y01918*
X04783Y01918*
X04783Y01919*
X04783Y01919*
X04783Y01919*
X04782Y01919*
X04782Y01919*
X04782Y01919*
X04781Y01919*
X04781Y01919*
X04781Y01919*
X0478*
X0478Y01919*
X0478Y01919*
X04779Y01919*
X04779Y01919*
X04779Y01919*
X04778Y01919*
X04778Y01919*
X04778Y01919*
X04777Y01918*
X04777Y01918*
X04777Y01918*
X04777Y01918*
X04776Y01917*
X04776Y01917*
X04776Y01917*
X04776Y01917*
X04776Y01916*
X04776Y01916*
X04776Y01916*
X04776Y01915*
X04776Y01915*
X04776Y01915*
X04776Y01914*
X04776Y01914*
X04776Y01913*
X04776Y01913*
X04776Y01913*
X04776Y01912*
X04776Y01912*
X04776Y01912*
X04776Y01912*
X04777Y01911*
X04777Y01911*
X04777Y01911*
X04777Y01911*
X04778Y0191*
X04778Y0191*
X04778Y0191*
X04779Y0191*
X04779Y0191*
X04779Y0191*
X0478Y0191*
X0478Y0191*
X0478Y0191*
X04781*
X04781Y0191*
X04781Y0191*
X04782Y0191*
X04782Y0191*
X04782Y0191*
X04783Y0191*
X04783Y0191*
X04783Y0191*
X04783Y01911*
X04784Y01911*
X04784Y01911*
X04784Y01911*
X04784Y01912*
X04785Y01912*
X04785Y01912*
X04785Y01912*
X04785Y01913*
X04785Y01913*
X04785Y01913*
X04785Y01914*
X04785Y01914*
X04785Y01915*
X06441Y02215D02*
D01*
X06441Y02215*
X06441Y02215*
X06441Y02216*
X06441Y02216*
X06441Y02216*
X06441Y02217*
X06441Y02217*
X06441Y02217*
X0644Y02217*
X0644Y02218*
X0644Y02218*
X0644Y02218*
X06439Y02218*
X06439Y02219*
X06439Y02219*
X06439Y02219*
X06438Y02219*
X06438Y02219*
X06438Y02219*
X06437Y02219*
X06437Y02219*
X06437Y02219*
X06436*
X06436Y02219*
X06436Y02219*
X06435Y02219*
X06435Y02219*
X06435Y02219*
X06434Y02219*
X06434Y02219*
X06434Y02219*
X06433Y02218*
X06433Y02218*
X06433Y02218*
X06433Y02218*
X06432Y02217*
X06432Y02217*
X06432Y02217*
X06432Y02217*
X06432Y02216*
X06432Y02216*
X06432Y02216*
X06432Y02215*
X06431Y02215*
X06431Y02215*
X06431Y02214*
X06432Y02214*
X06432Y02213*
X06432Y02213*
X06432Y02213*
X06432Y02212*
X06432Y02212*
X06432Y02212*
X06432Y02212*
X06433Y02211*
X06433Y02211*
X06433Y02211*
X06433Y02211*
X06434Y0221*
X06434Y0221*
X06434Y0221*
X06435Y0221*
X06435Y0221*
X06435Y0221*
X06436Y0221*
X06436Y0221*
X06436Y0221*
X06437*
X06437Y0221*
X06437Y0221*
X06438Y0221*
X06438Y0221*
X06438Y0221*
X06439Y0221*
X06439Y0221*
X06439Y0221*
X06439Y02211*
X0644Y02211*
X0644Y02211*
X0644Y02211*
X0644Y02212*
X06441Y02212*
X06441Y02212*
X06441Y02212*
X06441Y02213*
X06441Y02213*
X06441Y02213*
X06441Y02214*
X06441Y02214*
X06441Y02215*
X04646D02*
D01*
X04646Y02215*
X04646Y02215*
X04645Y02216*
X04645Y02216*
X04645Y02216*
X04645Y02217*
X04645Y02217*
X04645Y02217*
X04645Y02217*
X04644Y02218*
X04644Y02218*
X04644Y02218*
X04644Y02218*
X04643Y02219*
X04643Y02219*
X04643Y02219*
X04643Y02219*
X04642Y02219*
X04642Y02219*
X04642Y02219*
X04641Y02219*
X04641Y02219*
X04641*
X0464Y02219*
X0464Y02219*
X04639Y02219*
X04639Y02219*
X04639Y02219*
X04639Y02219*
X04638Y02219*
X04638Y02219*
X04638Y02218*
X04637Y02218*
X04637Y02218*
X04637Y02218*
X04637Y02217*
X04637Y02217*
X04636Y02217*
X04636Y02217*
X04636Y02216*
X04636Y02216*
X04636Y02216*
X04636Y02215*
X04636Y02215*
X04636Y02215*
X04636Y02214*
X04636Y02214*
X04636Y02213*
X04636Y02213*
X04636Y02213*
X04636Y02212*
X04636Y02212*
X04637Y02212*
X04637Y02212*
X04637Y02211*
X04637Y02211*
X04637Y02211*
X04638Y02211*
X04638Y0221*
X04638Y0221*
X04639Y0221*
X04639Y0221*
X04639Y0221*
X04639Y0221*
X0464Y0221*
X0464Y0221*
X04641Y0221*
X04641*
X04641Y0221*
X04642Y0221*
X04642Y0221*
X04642Y0221*
X04643Y0221*
X04643Y0221*
X04643Y0221*
X04643Y0221*
X04644Y02211*
X04644Y02211*
X04644Y02211*
X04644Y02211*
X04645Y02212*
X04645Y02212*
X04645Y02212*
X04645Y02212*
X04645Y02213*
X04645Y02213*
X04645Y02213*
X04646Y02214*
X04646Y02214*
X04646Y02215*
X05151Y04395D02*
D01*
X05151Y04395*
X05151Y04396*
X0515Y04396*
X0515Y04396*
X0515Y04397*
X0515Y04397*
X0515Y04397*
X0515Y04398*
X0515Y04398*
X05149Y04398*
X05149Y04398*
X05149Y04399*
X05149Y04399*
X05148Y04399*
X05148Y04399*
X05148Y04399*
X05148Y044*
X05147Y044*
X05147Y044*
X05147Y044*
X05146Y044*
X05146Y044*
X05146*
X05145Y044*
X05145Y044*
X05144Y044*
X05144Y044*
X05144Y044*
X05144Y04399*
X05143Y04399*
X05143Y04399*
X05143Y04399*
X05142Y04399*
X05142Y04398*
X05142Y04398*
X05142Y04398*
X05142Y04398*
X05141Y04397*
X05141Y04397*
X05141Y04397*
X05141Y04396*
X05141Y04396*
X05141Y04396*
X05141Y04395*
X05141Y04395*
X05141Y04395*
X05141Y04394*
X05141Y04394*
X05141Y04394*
X05141Y04393*
X05141Y04393*
X05141Y04393*
X05142Y04392*
X05142Y04392*
X05142Y04392*
X05142Y04392*
X05142Y04391*
X05143Y04391*
X05143Y04391*
X05143Y04391*
X05144Y04391*
X05144Y0439*
X05144Y0439*
X05144Y0439*
X05145Y0439*
X05145Y0439*
X05146Y0439*
X05146*
X05146Y0439*
X05147Y0439*
X05147Y0439*
X05147Y0439*
X05148Y0439*
X05148Y04391*
X05148Y04391*
X05148Y04391*
X05149Y04391*
X05149Y04391*
X05149Y04392*
X05149Y04392*
X0515Y04392*
X0515Y04392*
X0515Y04393*
X0515Y04393*
X0515Y04393*
X0515Y04394*
X0515Y04394*
X05151Y04394*
X05151Y04395*
X05151Y04395*
X01838Y02843D02*
D01*
X01838Y02843*
X01838Y02844*
X01838Y02844*
X01838Y02844*
X01838Y02845*
X01838Y02845*
X01838Y02845*
X01837Y02845*
X01837Y02846*
X01837Y02846*
X01837Y02846*
X01837Y02847*
X01836Y02847*
X01836Y02847*
X01836Y02847*
X01835Y02847*
X01835Y02847*
X01835Y02848*
X01835Y02848*
X01834Y02848*
X01834Y02848*
X01833Y02848*
X01833*
X01833Y02848*
X01832Y02848*
X01832Y02848*
X01832Y02848*
X01831Y02847*
X01831Y02847*
X01831Y02847*
X01831Y02847*
X0183Y02847*
X0183Y02847*
X0183Y02846*
X0183Y02846*
X01829Y02846*
X01829Y02845*
X01829Y02845*
X01829Y02845*
X01829Y02845*
X01829Y02844*
X01829Y02844*
X01828Y02844*
X01828Y02843*
X01828Y02843*
X01828Y02843*
X01828Y02842*
X01829Y02842*
X01829Y02842*
X01829Y02841*
X01829Y02841*
X01829Y02841*
X01829Y0284*
X01829Y0284*
X0183Y0284*
X0183Y02839*
X0183Y02839*
X0183Y02839*
X01831Y02839*
X01831Y02839*
X01831Y02838*
X01831Y02838*
X01832Y02838*
X01832Y02838*
X01832Y02838*
X01833Y02838*
X01833Y02838*
X01833*
X01834Y02838*
X01834Y02838*
X01835Y02838*
X01835Y02838*
X01835Y02838*
X01835Y02838*
X01836Y02839*
X01836Y02839*
X01836Y02839*
X01837Y02839*
X01837Y02839*
X01837Y0284*
X01837Y0284*
X01837Y0284*
X01838Y02841*
X01838Y02841*
X01838Y02841*
X01838Y02842*
X01838Y02842*
X01838Y02842*
X01838Y02843*
X01838Y02843*
X04153Y02853D02*
D01*
X04153Y02853*
X04153Y02854*
X04153Y02854*
X04153Y02854*
X04153Y02855*
X04153Y02855*
X04153Y02855*
X04152Y02855*
X04152Y02856*
X04152Y02856*
X04152Y02856*
X04152Y02857*
X04151Y02857*
X04151Y02857*
X04151Y02857*
X0415Y02857*
X0415Y02857*
X0415Y02858*
X0415Y02858*
X04149Y02858*
X04149Y02858*
X04148Y02858*
X04148*
X04148Y02858*
X04147Y02858*
X04147Y02858*
X04147Y02858*
X04146Y02857*
X04146Y02857*
X04146Y02857*
X04146Y02857*
X04145Y02857*
X04145Y02857*
X04145Y02856*
X04145Y02856*
X04144Y02856*
X04144Y02855*
X04144Y02855*
X04144Y02855*
X04144Y02855*
X04144Y02854*
X04144Y02854*
X04143Y02854*
X04143Y02853*
X04143Y02853*
X04143Y02853*
X04143Y02852*
X04144Y02852*
X04144Y02852*
X04144Y02851*
X04144Y02851*
X04144Y02851*
X04144Y0285*
X04144Y0285*
X04145Y0285*
X04145Y02849*
X04145Y02849*
X04145Y02849*
X04146Y02849*
X04146Y02849*
X04146Y02848*
X04146Y02848*
X04147Y02848*
X04147Y02848*
X04147Y02848*
X04148Y02848*
X04148Y02848*
X04148*
X04149Y02848*
X04149Y02848*
X0415Y02848*
X0415Y02848*
X0415Y02848*
X0415Y02848*
X04151Y02849*
X04151Y02849*
X04151Y02849*
X04152Y02849*
X04152Y02849*
X04152Y0285*
X04152Y0285*
X04152Y0285*
X04153Y02851*
X04153Y02851*
X04153Y02851*
X04153Y02852*
X04153Y02852*
X04153Y02852*
X04153Y02853*
X04153Y02853*
X05698Y0128D02*
D01*
X05698Y0128*
X05698Y0128*
X05698Y01281*
X05698Y01281*
X05698Y01281*
X05698Y01282*
X05698Y01282*
X05697Y01282*
X05697Y01282*
X05697Y01283*
X05697Y01283*
X05697Y01283*
X05696Y01283*
X05696Y01284*
X05696Y01284*
X05695Y01284*
X05695Y01284*
X05695Y01284*
X05695Y01284*
X05694Y01284*
X05694Y01284*
X05693Y01284*
X05693*
X05693Y01284*
X05692Y01284*
X05692Y01284*
X05692Y01284*
X05691Y01284*
X05691Y01284*
X05691Y01284*
X05691Y01284*
X0569Y01283*
X0569Y01283*
X0569Y01283*
X0569Y01283*
X05689Y01282*
X05689Y01282*
X05689Y01282*
X05689Y01282*
X05689Y01281*
X05689Y01281*
X05689Y01281*
X05688Y0128*
X05688Y0128*
X05688Y0128*
X05688Y01279*
X05688Y01279*
X05689Y01278*
X05689Y01278*
X05689Y01278*
X05689Y01277*
X05689Y01277*
X05689Y01277*
X05689Y01277*
X0569Y01276*
X0569Y01276*
X0569Y01276*
X0569Y01276*
X05691Y01275*
X05691Y01275*
X05691Y01275*
X05691Y01275*
X05692Y01275*
X05692Y01275*
X05692Y01275*
X05693Y01275*
X05693Y01275*
X05693*
X05694Y01275*
X05694Y01275*
X05695Y01275*
X05695Y01275*
X05695Y01275*
X05695Y01275*
X05696Y01275*
X05696Y01275*
X05696Y01276*
X05697Y01276*
X05697Y01276*
X05697Y01276*
X05697Y01277*
X05697Y01277*
X05698Y01277*
X05698Y01277*
X05698Y01278*
X05698Y01278*
X05698Y01278*
X05698Y01279*
X05698Y01279*
X05698Y0128*
X04823D02*
D01*
X04823Y0128*
X04823Y0128*
X04823Y01281*
X04823Y01281*
X04823Y01281*
X04823Y01282*
X04823Y01282*
X04822Y01282*
X04822Y01282*
X04822Y01283*
X04822Y01283*
X04822Y01283*
X04821Y01283*
X04821Y01284*
X04821Y01284*
X0482Y01284*
X0482Y01284*
X0482Y01284*
X0482Y01284*
X04819Y01284*
X04819Y01284*
X04818Y01284*
X04818*
X04818Y01284*
X04817Y01284*
X04817Y01284*
X04817Y01284*
X04816Y01284*
X04816Y01284*
X04816Y01284*
X04816Y01284*
X04815Y01283*
X04815Y01283*
X04815Y01283*
X04815Y01283*
X04814Y01282*
X04814Y01282*
X04814Y01282*
X04814Y01282*
X04814Y01281*
X04814Y01281*
X04814Y01281*
X04813Y0128*
X04813Y0128*
X04813Y0128*
X04813Y01279*
X04813Y01279*
X04814Y01278*
X04814Y01278*
X04814Y01278*
X04814Y01277*
X04814Y01277*
X04814Y01277*
X04814Y01277*
X04815Y01276*
X04815Y01276*
X04815Y01276*
X04815Y01276*
X04816Y01275*
X04816Y01275*
X04816Y01275*
X04816Y01275*
X04817Y01275*
X04817Y01275*
X04817Y01275*
X04818Y01275*
X04818Y01275*
X04818*
X04819Y01275*
X04819Y01275*
X0482Y01275*
X0482Y01275*
X0482Y01275*
X0482Y01275*
X04821Y01275*
X04821Y01275*
X04821Y01276*
X04822Y01276*
X04822Y01276*
X04822Y01276*
X04822Y01277*
X04822Y01277*
X04823Y01277*
X04823Y01277*
X04823Y01278*
X04823Y01278*
X04823Y01278*
X04823Y01279*
X04823Y01279*
X04823Y0128*
X03938Y01285D02*
D01*
X03938Y01285*
X03938Y01285*
X03938Y01286*
X03938Y01286*
X03938Y01286*
X03938Y01287*
X03938Y01287*
X03937Y01287*
X03937Y01287*
X03937Y01288*
X03937Y01288*
X03937Y01288*
X03936Y01288*
X03936Y01289*
X03936Y01289*
X03935Y01289*
X03935Y01289*
X03935Y01289*
X03935Y01289*
X03934Y01289*
X03934Y01289*
X03933Y01289*
X03933*
X03933Y01289*
X03932Y01289*
X03932Y01289*
X03932Y01289*
X03931Y01289*
X03931Y01289*
X03931Y01289*
X03931Y01289*
X0393Y01288*
X0393Y01288*
X0393Y01288*
X0393Y01288*
X03929Y01287*
X03929Y01287*
X03929Y01287*
X03929Y01287*
X03929Y01286*
X03929Y01286*
X03929Y01286*
X03928Y01285*
X03928Y01285*
X03928Y01285*
X03928Y01284*
X03928Y01284*
X03929Y01283*
X03929Y01283*
X03929Y01283*
X03929Y01282*
X03929Y01282*
X03929Y01282*
X03929Y01282*
X0393Y01281*
X0393Y01281*
X0393Y01281*
X0393Y01281*
X03931Y0128*
X03931Y0128*
X03931Y0128*
X03931Y0128*
X03932Y0128*
X03932Y0128*
X03932Y0128*
X03933Y0128*
X03933Y0128*
X03933*
X03934Y0128*
X03934Y0128*
X03935Y0128*
X03935Y0128*
X03935Y0128*
X03935Y0128*
X03936Y0128*
X03936Y0128*
X03936Y01281*
X03937Y01281*
X03937Y01281*
X03937Y01281*
X03937Y01282*
X03937Y01282*
X03938Y01282*
X03938Y01282*
X03938Y01283*
X03938Y01283*
X03938Y01283*
X03938Y01284*
X03938Y01284*
X03938Y01285*
X02479Y01152D02*
D01*
X02479Y01152*
X02479Y01152*
X02478Y01153*
X02478Y01153*
X02478Y01153*
X02478Y01154*
X02478Y01154*
X02478Y01154*
X02478Y01155*
X02477Y01155*
X02477Y01155*
X02477Y01155*
X02477Y01156*
X02476Y01156*
X02476Y01156*
X02476Y01156*
X02475Y01156*
X02475Y01156*
X02475Y01156*
X02474Y01157*
X02474Y01157*
X02474Y01157*
X02473*
X02473Y01157*
X02473Y01157*
X02472Y01156*
X02472Y01156*
X02472Y01156*
X02471Y01156*
X02471Y01156*
X02471Y01156*
X02471Y01156*
X0247Y01155*
X0247Y01155*
X0247Y01155*
X0247Y01155*
X02469Y01154*
X02469Y01154*
X02469Y01154*
X02469Y01153*
X02469Y01153*
X02469Y01153*
X02469Y01152*
X02469Y01152*
X02469Y01152*
X02469Y01151*
X02469Y01151*
X02469Y01151*
X02469Y0115*
X02469Y0115*
X02469Y0115*
X02469Y01149*
X02469Y01149*
X0247Y01149*
X0247Y01149*
X0247Y01148*
X0247Y01148*
X02471Y01148*
X02471Y01148*
X02471Y01147*
X02471Y01147*
X02472Y01147*
X02472Y01147*
X02472Y01147*
X02473Y01147*
X02473Y01147*
X02473Y01147*
X02474*
X02474Y01147*
X02474Y01147*
X02475Y01147*
X02475Y01147*
X02475Y01147*
X02476Y01147*
X02476Y01147*
X02476Y01148*
X02477Y01148*
X02477Y01148*
X02477Y01148*
X02477Y01149*
X02478Y01149*
X02478Y01149*
X02478Y01149*
X02478Y0115*
X02478Y0115*
X02478Y0115*
X02478Y01151*
X02479Y01151*
X02479Y01151*
X02479Y01152*
X02839Y01491D02*
D01*
X02839Y01491*
X02839Y01491*
X02839Y01492*
X02839Y01492*
X02839Y01492*
X02839Y01493*
X02839Y01493*
X02839Y01493*
X02838Y01494*
X02838Y01494*
X02838Y01494*
X02838Y01494*
X02838Y01495*
X02837Y01495*
X02837Y01495*
X02837Y01495*
X02836Y01495*
X02836Y01495*
X02836Y01495*
X02835Y01496*
X02835Y01496*
X02835Y01496*
X02834*
X02834Y01496*
X02834Y01496*
X02833Y01495*
X02833Y01495*
X02833Y01495*
X02832Y01495*
X02832Y01495*
X02832Y01495*
X02831Y01495*
X02831Y01494*
X02831Y01494*
X02831Y01494*
X02831Y01494*
X0283Y01493*
X0283Y01493*
X0283Y01493*
X0283Y01492*
X0283Y01492*
X0283Y01492*
X0283Y01491*
X0283Y01491*
X0283Y01491*
X0283Y0149*
X0283Y0149*
X0283Y0149*
X0283Y01489*
X0283Y01489*
X0283Y01489*
X0283Y01488*
X0283Y01488*
X02831Y01488*
X02831Y01488*
X02831Y01487*
X02831Y01487*
X02831Y01487*
X02832Y01487*
X02832Y01486*
X02832Y01486*
X02833Y01486*
X02833Y01486*
X02833Y01486*
X02834Y01486*
X02834Y01486*
X02834Y01486*
X02835*
X02835Y01486*
X02835Y01486*
X02836Y01486*
X02836Y01486*
X02836Y01486*
X02837Y01486*
X02837Y01486*
X02837Y01487*
X02838Y01487*
X02838Y01487*
X02838Y01487*
X02838Y01488*
X02838Y01488*
X02839Y01488*
X02839Y01488*
X02839Y01489*
X02839Y01489*
X02839Y01489*
X02839Y0149*
X02839Y0149*
X02839Y0149*
X02839Y01491*
X01889Y02026D02*
D01*
X01889Y02026*
X01889Y02026*
X01889Y02027*
X01889Y02027*
X01889Y02027*
X01889Y02028*
X01889Y02028*
X01889Y02028*
X01888Y02029*
X01888Y02029*
X01888Y02029*
X01888Y02029*
X01888Y0203*
X01887Y0203*
X01887Y0203*
X01887Y0203*
X01886Y0203*
X01886Y0203*
X01886Y0203*
X01885Y02031*
X01885Y02031*
X01885Y02031*
X01884*
X01884Y02031*
X01884Y02031*
X01883Y0203*
X01883Y0203*
X01883Y0203*
X01882Y0203*
X01882Y0203*
X01882Y0203*
X01881Y0203*
X01881Y02029*
X01881Y02029*
X01881Y02029*
X01881Y02029*
X0188Y02028*
X0188Y02028*
X0188Y02028*
X0188Y02027*
X0188Y02027*
X0188Y02027*
X0188Y02026*
X0188Y02026*
X0188Y02026*
X0188Y02025*
X0188Y02025*
X0188Y02025*
X0188Y02024*
X0188Y02024*
X0188Y02024*
X0188Y02023*
X0188Y02023*
X01881Y02023*
X01881Y02023*
X01881Y02022*
X01881Y02022*
X01881Y02022*
X01882Y02022*
X01882Y02021*
X01882Y02021*
X01883Y02021*
X01883Y02021*
X01883Y02021*
X01884Y02021*
X01884Y02021*
X01884Y02021*
X01885*
X01885Y02021*
X01885Y02021*
X01886Y02021*
X01886Y02021*
X01886Y02021*
X01887Y02021*
X01887Y02021*
X01887Y02022*
X01888Y02022*
X01888Y02022*
X01888Y02022*
X01888Y02023*
X01888Y02023*
X01889Y02023*
X01889Y02023*
X01889Y02024*
X01889Y02024*
X01889Y02024*
X01889Y02025*
X01889Y02025*
X01889Y02025*
X01889Y02026*
X02834Y02031D02*
D01*
X02834Y02031*
X02834Y02031*
X02834Y02032*
X02834Y02032*
X02834Y02032*
X02834Y02033*
X02834Y02033*
X02834Y02033*
X02833Y02034*
X02833Y02034*
X02833Y02034*
X02833Y02034*
X02833Y02035*
X02832Y02035*
X02832Y02035*
X02832Y02035*
X02831Y02035*
X02831Y02035*
X02831Y02035*
X0283Y02036*
X0283Y02036*
X0283Y02036*
X02829*
X02829Y02036*
X02829Y02036*
X02828Y02035*
X02828Y02035*
X02828Y02035*
X02827Y02035*
X02827Y02035*
X02827Y02035*
X02826Y02035*
X02826Y02034*
X02826Y02034*
X02826Y02034*
X02826Y02034*
X02825Y02033*
X02825Y02033*
X02825Y02033*
X02825Y02032*
X02825Y02032*
X02825Y02032*
X02825Y02031*
X02825Y02031*
X02825Y02031*
X02825Y0203*
X02825Y0203*
X02825Y0203*
X02825Y02029*
X02825Y02029*
X02825Y02029*
X02825Y02028*
X02825Y02028*
X02826Y02028*
X02826Y02028*
X02826Y02027*
X02826Y02027*
X02826Y02027*
X02827Y02027*
X02827Y02026*
X02827Y02026*
X02828Y02026*
X02828Y02026*
X02828Y02026*
X02829Y02026*
X02829Y02026*
X02829Y02026*
X0283*
X0283Y02026*
X0283Y02026*
X02831Y02026*
X02831Y02026*
X02831Y02026*
X02832Y02026*
X02832Y02026*
X02832Y02027*
X02833Y02027*
X02833Y02027*
X02833Y02027*
X02833Y02028*
X02833Y02028*
X02834Y02028*
X02834Y02028*
X02834Y02029*
X02834Y02029*
X02834Y02029*
X02834Y0203*
X02834Y0203*
X02834Y0203*
X02834Y02031*
X03535Y02037D02*
D01*
X03535Y02037*
X03535Y02038*
X03535Y02038*
X03534Y02038*
X03534Y02039*
X03534Y02039*
X03534Y02039*
X03534Y0204*
X03534Y0204*
X03533Y0204*
X03533Y0204*
X03533Y02041*
X03533Y02041*
X03532Y02041*
X03532Y02041*
X03532Y02041*
X03532Y02042*
X03531Y02042*
X03531Y02042*
X03531Y02042*
X0353Y02042*
X0353Y02042*
X0353*
X03529Y02042*
X03529Y02042*
X03529Y02042*
X03528Y02042*
X03528Y02042*
X03528Y02041*
X03527Y02041*
X03527Y02041*
X03527Y02041*
X03526Y02041*
X03526Y0204*
X03526Y0204*
X03526Y0204*
X03526Y0204*
X03525Y02039*
X03525Y02039*
X03525Y02039*
X03525Y02038*
X03525Y02038*
X03525Y02038*
X03525Y02037*
X03525Y02037*
X03525Y02037*
X03525Y02036*
X03525Y02036*
X03525Y02036*
X03525Y02035*
X03525Y02035*
X03525Y02035*
X03526Y02034*
X03526Y02034*
X03526Y02034*
X03526Y02034*
X03526Y02033*
X03527Y02033*
X03527Y02033*
X03527Y02033*
X03528Y02033*
X03528Y02032*
X03528Y02032*
X03529Y02032*
X03529Y02032*
X03529Y02032*
X0353Y02032*
X0353*
X0353Y02032*
X03531Y02032*
X03531Y02032*
X03531Y02032*
X03532Y02032*
X03532Y02033*
X03532Y02033*
X03532Y02033*
X03533Y02033*
X03533Y02033*
X03533Y02034*
X03533Y02034*
X03534Y02034*
X03534Y02034*
X03534Y02035*
X03534Y02035*
X03534Y02035*
X03534Y02036*
X03535Y02036*
X03535Y02036*
X03535Y02037*
X03535Y02037*
X02628Y0221D02*
D01*
X02628Y0221*
X02628Y0221*
X02628Y02211*
X02628Y02211*
X02628Y02211*
X02628Y02212*
X02628Y02212*
X02627Y02212*
X02627Y02212*
X02627Y02213*
X02627Y02213*
X02627Y02213*
X02626Y02213*
X02626Y02214*
X02626Y02214*
X02625Y02214*
X02625Y02214*
X02625Y02214*
X02625Y02214*
X02624Y02214*
X02624Y02214*
X02623Y02214*
X02623*
X02623Y02214*
X02622Y02214*
X02622Y02214*
X02622Y02214*
X02621Y02214*
X02621Y02214*
X02621Y02214*
X02621Y02214*
X0262Y02213*
X0262Y02213*
X0262Y02213*
X0262Y02213*
X02619Y02212*
X02619Y02212*
X02619Y02212*
X02619Y02212*
X02619Y02211*
X02619Y02211*
X02619Y02211*
X02618Y0221*
X02618Y0221*
X02618Y0221*
X02618Y02209*
X02618Y02209*
X02619Y02208*
X02619Y02208*
X02619Y02208*
X02619Y02207*
X02619Y02207*
X02619Y02207*
X02619Y02207*
X0262Y02206*
X0262Y02206*
X0262Y02206*
X0262Y02206*
X02621Y02205*
X02621Y02205*
X02621Y02205*
X02621Y02205*
X02622Y02205*
X02622Y02205*
X02622Y02205*
X02623Y02205*
X02623Y02205*
X02623*
X02624Y02205*
X02624Y02205*
X02625Y02205*
X02625Y02205*
X02625Y02205*
X02625Y02205*
X02626Y02205*
X02626Y02205*
X02626Y02206*
X02627Y02206*
X02627Y02206*
X02627Y02206*
X02627Y02207*
X02627Y02207*
X02628Y02207*
X02628Y02207*
X02628Y02208*
X02628Y02208*
X02628Y02208*
X02628Y02209*
X02628Y02209*
X02628Y0221*
X02105Y02622D02*
D01*
X02105Y02623*
X02105Y02623*
X02105Y02623*
X02105Y02624*
X02105Y02624*
X02105Y02624*
X02105Y02625*
X02105Y02625*
X02104Y02625*
X02104Y02625*
X02104Y02626*
X02104Y02626*
X02103Y02626*
X02103Y02626*
X02103Y02627*
X02103Y02627*
X02102Y02627*
X02102Y02627*
X02102Y02627*
X02101Y02627*
X02101Y02627*
X02101Y02627*
X021*
X021Y02627*
X021Y02627*
X02099Y02627*
X02099Y02627*
X02099Y02627*
X02098Y02627*
X02098Y02627*
X02098Y02626*
X02097Y02626*
X02097Y02626*
X02097Y02626*
X02097Y02625*
X02096Y02625*
X02096Y02625*
X02096Y02625*
X02096Y02624*
X02096Y02624*
X02096Y02624*
X02096Y02623*
X02095Y02623*
X02095Y02623*
X02095Y02622*
X02095Y02622*
X02095Y02622*
X02096Y02621*
X02096Y02621*
X02096Y02621*
X02096Y0262*
X02096Y0262*
X02096Y0262*
X02096Y02619*
X02097Y02619*
X02097Y02619*
X02097Y02619*
X02097Y02618*
X02098Y02618*
X02098Y02618*
X02098Y02618*
X02099Y02618*
X02099Y02618*
X02099Y02618*
X021Y02617*
X021Y02617*
X021Y02617*
X02101*
X02101Y02617*
X02101Y02617*
X02102Y02618*
X02102Y02618*
X02102Y02618*
X02103Y02618*
X02103Y02618*
X02103Y02618*
X02103Y02618*
X02104Y02619*
X02104Y02619*
X02104Y02619*
X02104Y02619*
X02105Y0262*
X02105Y0262*
X02105Y0262*
X02105Y02621*
X02105Y02621*
X02105Y02621*
X02105Y02622*
X02105Y02622*
X02105Y02622*
G54D13*
X04845Y02D02*
D01*
X04845Y02*
X04845Y02001*
X04845Y02002*
X04845Y02003*
X04844Y02004*
X04844Y02004*
X04844Y02005*
X04843Y02006*
X04843Y02006*
X04842Y02007*
X04842Y02008*
X04841Y02008*
X0484Y02009*
X0484Y02009*
X04839Y0201*
X04838Y0201*
X04838Y0201*
X04837Y02011*
X04836Y02011*
X04835Y02011*
X04834Y02011*
X04834Y02011*
X04833*
X04832Y02011*
X04831Y02011*
X0483Y02011*
X0483Y02011*
X04829Y0201*
X04828Y0201*
X04827Y0201*
X04827Y02009*
X04826Y02009*
X04825Y02008*
X04825Y02008*
X04824Y02007*
X04824Y02006*
X04823Y02006*
X04823Y02005*
X04822Y02004*
X04822Y02004*
X04822Y02003*
X04822Y02002*
X04822Y02001*
X04821Y02*
X04821Y02*
X04821Y01999*
X04822Y01998*
X04822Y01997*
X04822Y01996*
X04822Y01996*
X04822Y01995*
X04823Y01994*
X04823Y01993*
X04824Y01993*
X04824Y01992*
X04825Y01991*
X04825Y01991*
X04826Y0199*
X04827Y0199*
X04827Y01989*
X04828Y01989*
X04829Y01989*
X0483Y01988*
X0483Y01988*
X04831Y01988*
X04832Y01988*
X04833Y01988*
X04834*
X04834Y01988*
X04835Y01988*
X04836Y01988*
X04837Y01988*
X04838Y01989*
X04838Y01989*
X04839Y01989*
X0484Y0199*
X0484Y0199*
X04841Y01991*
X04842Y01991*
X04842Y01992*
X04843Y01993*
X04843Y01993*
X04844Y01994*
X04844Y01995*
X04844Y01996*
X04845Y01996*
X04845Y01997*
X04845Y01998*
X04845Y01999*
X04845Y02*
X06395Y02129D02*
D01*
X06395Y0213*
X06395Y02131*
X06395Y02132*
X06395Y02133*
X06395Y02133*
X06394Y02134*
X06394Y02135*
X06394Y02136*
X06393Y02136*
X06393Y02137*
X06392Y02138*
X06392Y02138*
X06391Y02139*
X0639Y02139*
X0639Y0214*
X06389Y0214*
X06388Y0214*
X06387Y02141*
X06386Y02141*
X06386Y02141*
X06385Y02141*
X06384Y02141*
X06383*
X06382Y02141*
X06382Y02141*
X06381Y02141*
X0638Y02141*
X06379Y0214*
X06378Y0214*
X06378Y0214*
X06377Y02139*
X06376Y02139*
X06376Y02138*
X06375Y02138*
X06375Y02137*
X06374Y02136*
X06374Y02136*
X06373Y02135*
X06373Y02134*
X06373Y02133*
X06372Y02133*
X06372Y02132*
X06372Y02131*
X06372Y0213*
X06372Y02129*
X06372Y02129*
X06372Y02128*
X06372Y02127*
X06372Y02126*
X06373Y02125*
X06373Y02125*
X06373Y02124*
X06374Y02123*
X06374Y02123*
X06375Y02122*
X06375Y02121*
X06376Y02121*
X06376Y0212*
X06377Y0212*
X06378Y02119*
X06378Y02119*
X06379Y02119*
X0638Y02118*
X06381Y02118*
X06382Y02118*
X06382Y02118*
X06383Y02118*
X06384*
X06385Y02118*
X06386Y02118*
X06386Y02118*
X06387Y02118*
X06388Y02119*
X06389Y02119*
X0639Y02119*
X0639Y0212*
X06391Y0212*
X06392Y02121*
X06392Y02121*
X06393Y02122*
X06393Y02123*
X06394Y02123*
X06394Y02124*
X06394Y02125*
X06395Y02125*
X06395Y02126*
X06395Y02127*
X06395Y02128*
X06395Y02129*
X06395Y02129*
X0465D02*
D01*
X0465Y0213*
X0465Y02131*
X04649Y02132*
X04649Y02133*
X04649Y02133*
X04649Y02134*
X04648Y02135*
X04648Y02136*
X04647Y02136*
X04647Y02137*
X04646Y02138*
X04646Y02138*
X04645Y02139*
X04645Y02139*
X04644Y0214*
X04643Y0214*
X04642Y0214*
X04642Y02141*
X04641Y02141*
X0464Y02141*
X04639Y02141*
X04638Y02141*
X04638*
X04637Y02141*
X04636Y02141*
X04635Y02141*
X04634Y02141*
X04634Y0214*
X04633Y0214*
X04632Y0214*
X04631Y02139*
X04631Y02139*
X0463Y02138*
X04629Y02138*
X04629Y02137*
X04628Y02136*
X04628Y02136*
X04628Y02135*
X04627Y02134*
X04627Y02133*
X04627Y02133*
X04626Y02132*
X04626Y02131*
X04626Y0213*
X04626Y02129*
X04626Y02129*
X04626Y02128*
X04626Y02127*
X04627Y02126*
X04627Y02125*
X04627Y02125*
X04628Y02124*
X04628Y02123*
X04628Y02123*
X04629Y02122*
X04629Y02121*
X0463Y02121*
X04631Y0212*
X04631Y0212*
X04632Y02119*
X04633Y02119*
X04634Y02119*
X04634Y02118*
X04635Y02118*
X04636Y02118*
X04637Y02118*
X04638Y02118*
X04638*
X04639Y02118*
X0464Y02118*
X04641Y02118*
X04642Y02118*
X04642Y02119*
X04643Y02119*
X04644Y02119*
X04645Y0212*
X04645Y0212*
X04646Y02121*
X04646Y02121*
X04647Y02122*
X04647Y02123*
X04648Y02123*
X04648Y02124*
X04649Y02125*
X04649Y02125*
X04649Y02126*
X04649Y02127*
X0465Y02128*
X0465Y02129*
X0465Y02129*
X0192Y02978D02*
D01*
X0192Y02979*
X0192Y0298*
X0192Y0298*
X0192Y02981*
X01919Y02982*
X01919Y02983*
X01919Y02983*
X01918Y02984*
X01918Y02985*
X01917Y02985*
X01917Y02986*
X01916Y02987*
X01916Y02987*
X01915Y02988*
X01914Y02988*
X01913Y02989*
X01913Y02989*
X01912Y02989*
X01911Y02989*
X0191Y0299*
X0191Y0299*
X01909Y0299*
X01908*
X01907Y0299*
X01906Y0299*
X01905Y02989*
X01905Y02989*
X01904Y02989*
X01903Y02989*
X01902Y02988*
X01902Y02988*
X01901Y02987*
X019Y02987*
X019Y02986*
X01899Y02985*
X01899Y02985*
X01898Y02984*
X01898Y02983*
X01898Y02983*
X01897Y02982*
X01897Y02981*
X01897Y0298*
X01897Y0298*
X01897Y02979*
X01897Y02978*
X01897Y02977*
X01897Y02976*
X01897Y02975*
X01897Y02975*
X01897Y02974*
X01898Y02973*
X01898Y02972*
X01898Y02972*
X01899Y02971*
X01899Y0297*
X019Y0297*
X019Y02969*
X01901Y02969*
X01902Y02968*
X01902Y02968*
X01903Y02967*
X01904Y02967*
X01905Y02967*
X01905Y02966*
X01906Y02966*
X01907Y02966*
X01908Y02966*
X01909*
X0191Y02966*
X0191Y02966*
X01911Y02966*
X01912Y02967*
X01913Y02967*
X01913Y02967*
X01914Y02968*
X01915Y02968*
X01916Y02969*
X01916Y02969*
X01917Y0297*
X01917Y0297*
X01918Y02971*
X01918Y02972*
X01919Y02972*
X01919Y02973*
X01919Y02974*
X0192Y02975*
X0192Y02975*
X0192Y02976*
X0192Y02977*
X0192Y02978*
X04235Y02988D02*
D01*
X04235Y02989*
X04235Y0299*
X04235Y0299*
X04235Y02991*
X04234Y02992*
X04234Y02993*
X04234Y02993*
X04233Y02994*
X04233Y02995*
X04232Y02995*
X04232Y02996*
X04231Y02997*
X04231Y02997*
X0423Y02998*
X04229Y02998*
X04228Y02999*
X04228Y02999*
X04227Y02999*
X04226Y02999*
X04225Y03*
X04225Y03*
X04224Y03*
X04223*
X04222Y03*
X04221Y03*
X0422Y02999*
X0422Y02999*
X04219Y02999*
X04218Y02999*
X04217Y02998*
X04217Y02998*
X04216Y02997*
X04215Y02997*
X04215Y02996*
X04214Y02995*
X04214Y02995*
X04213Y02994*
X04213Y02993*
X04213Y02993*
X04212Y02992*
X04212Y02991*
X04212Y0299*
X04212Y0299*
X04212Y02989*
X04212Y02988*
X04212Y02987*
X04212Y02986*
X04212Y02985*
X04212Y02985*
X04212Y02984*
X04213Y02983*
X04213Y02982*
X04213Y02982*
X04214Y02981*
X04214Y0298*
X04215Y0298*
X04215Y02979*
X04216Y02979*
X04217Y02978*
X04217Y02978*
X04218Y02977*
X04219Y02977*
X0422Y02977*
X0422Y02976*
X04221Y02976*
X04222Y02976*
X04223Y02976*
X04224*
X04225Y02976*
X04225Y02976*
X04226Y02976*
X04227Y02977*
X04228Y02977*
X04228Y02977*
X04229Y02978*
X0423Y02978*
X04231Y02979*
X04231Y02979*
X04232Y0298*
X04232Y0298*
X04233Y02981*
X04233Y02982*
X04234Y02982*
X04234Y02983*
X04234Y02984*
X04235Y02985*
X04235Y02985*
X04235Y02986*
X04235Y02987*
X04235Y02988*
X05708Y01365D02*
D01*
X05708Y01365*
X05708Y01366*
X05708Y01367*
X05707Y01368*
X05707Y01369*
X05707Y01369*
X05707Y0137*
X05706Y01371*
X05706Y01371*
X05705Y01372*
X05705Y01373*
X05704Y01373*
X05703Y01374*
X05703Y01374*
X05702Y01375*
X05701Y01375*
X05701Y01375*
X057Y01376*
X05699Y01376*
X05698Y01376*
X05697Y01376*
X05696Y01376*
X05696*
X05695Y01376*
X05694Y01376*
X05693Y01376*
X05692Y01376*
X05692Y01375*
X05691Y01375*
X0569Y01375*
X05689Y01374*
X05689Y01374*
X05688Y01373*
X05688Y01373*
X05687Y01372*
X05687Y01371*
X05686Y01371*
X05686Y0137*
X05685Y01369*
X05685Y01369*
X05685Y01368*
X05685Y01367*
X05684Y01366*
X05684Y01365*
X05684Y01365*
X05684Y01364*
X05684Y01363*
X05685Y01362*
X05685Y01361*
X05685Y01361*
X05685Y0136*
X05686Y01359*
X05686Y01358*
X05687Y01358*
X05687Y01357*
X05688Y01356*
X05688Y01356*
X05689Y01355*
X05689Y01355*
X0569Y01354*
X05691Y01354*
X05692Y01354*
X05692Y01353*
X05693Y01353*
X05694Y01353*
X05695Y01353*
X05696Y01353*
X05696*
X05697Y01353*
X05698Y01353*
X05699Y01353*
X057Y01353*
X05701Y01354*
X05701Y01354*
X05702Y01354*
X05703Y01355*
X05703Y01355*
X05704Y01356*
X05705Y01356*
X05705Y01357*
X05706Y01358*
X05706Y01358*
X05707Y01359*
X05707Y0136*
X05707Y01361*
X05707Y01361*
X05708Y01362*
X05708Y01363*
X05708Y01364*
X05708Y01365*
X04833D02*
D01*
X04833Y01365*
X04833Y01366*
X04833Y01367*
X04832Y01368*
X04832Y01369*
X04832Y01369*
X04832Y0137*
X04831Y01371*
X04831Y01371*
X0483Y01372*
X0483Y01373*
X04829Y01373*
X04828Y01374*
X04828Y01374*
X04827Y01375*
X04826Y01375*
X04826Y01375*
X04825Y01376*
X04824Y01376*
X04823Y01376*
X04822Y01376*
X04821Y01376*
X04821*
X0482Y01376*
X04819Y01376*
X04818Y01376*
X04817Y01376*
X04817Y01375*
X04816Y01375*
X04815Y01375*
X04814Y01374*
X04814Y01374*
X04813Y01373*
X04813Y01373*
X04812Y01372*
X04812Y01371*
X04811Y01371*
X04811Y0137*
X0481Y01369*
X0481Y01369*
X0481Y01368*
X0481Y01367*
X04809Y01366*
X04809Y01365*
X04809Y01365*
X04809Y01364*
X04809Y01363*
X0481Y01362*
X0481Y01361*
X0481Y01361*
X0481Y0136*
X04811Y01359*
X04811Y01358*
X04812Y01358*
X04812Y01357*
X04813Y01356*
X04813Y01356*
X04814Y01355*
X04814Y01355*
X04815Y01354*
X04816Y01354*
X04817Y01354*
X04817Y01353*
X04818Y01353*
X04819Y01353*
X0482Y01353*
X04821Y01353*
X04821*
X04822Y01353*
X04823Y01353*
X04824Y01353*
X04825Y01353*
X04826Y01354*
X04826Y01354*
X04827Y01354*
X04828Y01355*
X04828Y01355*
X04829Y01356*
X0483Y01356*
X0483Y01357*
X04831Y01358*
X04831Y01358*
X04832Y01359*
X04832Y0136*
X04832Y01361*
X04832Y01361*
X04833Y01362*
X04833Y01363*
X04833Y01364*
X04833Y01365*
X03948Y0137D02*
D01*
X03948Y0137*
X03948Y01371*
X03948Y01372*
X03947Y01373*
X03947Y01374*
X03947Y01374*
X03947Y01375*
X03946Y01376*
X03946Y01376*
X03945Y01377*
X03945Y01378*
X03944Y01378*
X03943Y01379*
X03943Y01379*
X03942Y0138*
X03941Y0138*
X03941Y0138*
X0394Y01381*
X03939Y01381*
X03938Y01381*
X03937Y01381*
X03936Y01381*
X03936*
X03935Y01381*
X03934Y01381*
X03933Y01381*
X03932Y01381*
X03932Y0138*
X03931Y0138*
X0393Y0138*
X03929Y01379*
X03929Y01379*
X03928Y01378*
X03928Y01378*
X03927Y01377*
X03927Y01376*
X03926Y01376*
X03926Y01375*
X03925Y01374*
X03925Y01374*
X03925Y01373*
X03925Y01372*
X03924Y01371*
X03924Y0137*
X03924Y0137*
X03924Y01369*
X03924Y01368*
X03925Y01367*
X03925Y01366*
X03925Y01366*
X03925Y01365*
X03926Y01364*
X03926Y01363*
X03927Y01363*
X03927Y01362*
X03928Y01361*
X03928Y01361*
X03929Y0136*
X03929Y0136*
X0393Y01359*
X03931Y01359*
X03932Y01359*
X03932Y01358*
X03933Y01358*
X03934Y01358*
X03935Y01358*
X03936Y01358*
X03936*
X03937Y01358*
X03938Y01358*
X03939Y01358*
X0394Y01358*
X03941Y01359*
X03941Y01359*
X03942Y01359*
X03943Y0136*
X03943Y0136*
X03944Y01361*
X03945Y01361*
X03945Y01362*
X03946Y01363*
X03946Y01363*
X03947Y01364*
X03947Y01365*
X03947Y01366*
X03947Y01366*
X03948Y01367*
X03948Y01368*
X03948Y01369*
X03948Y0137*
X02931Y01453D02*
D01*
X02931Y01454*
X02931Y01455*
X02931Y01455*
X02931Y01456*
X02931Y01457*
X0293Y01458*
X0293Y01458*
X0293Y01459*
X02929Y0146*
X02929Y0146*
X02928Y01461*
X02927Y01462*
X02927Y01462*
X02926Y01463*
X02925Y01463*
X02925Y01464*
X02924Y01464*
X02923Y01464*
X02922Y01464*
X02922Y01465*
X02921Y01465*
X0292Y01465*
X02919*
X02918Y01465*
X02917Y01465*
X02917Y01464*
X02916Y01464*
X02915Y01464*
X02914Y01464*
X02914Y01463*
X02913Y01463*
X02912Y01462*
X02912Y01462*
X02911Y01461*
X0291Y0146*
X0291Y0146*
X0291Y01459*
X02909Y01458*
X02909Y01458*
X02908Y01457*
X02908Y01456*
X02908Y01455*
X02908Y01455*
X02908Y01454*
X02908Y01453*
X02908Y01452*
X02908Y01451*
X02908Y0145*
X02908Y0145*
X02908Y01449*
X02909Y01448*
X02909Y01447*
X0291Y01447*
X0291Y01446*
X0291Y01445*
X02911Y01445*
X02912Y01444*
X02912Y01444*
X02913Y01443*
X02914Y01443*
X02914Y01442*
X02915Y01442*
X02916Y01442*
X02917Y01441*
X02917Y01441*
X02918Y01441*
X02919Y01441*
X0292*
X02921Y01441*
X02922Y01441*
X02922Y01441*
X02923Y01442*
X02924Y01442*
X02925Y01442*
X02925Y01443*
X02926Y01443*
X02927Y01444*
X02927Y01444*
X02928Y01445*
X02929Y01445*
X02929Y01446*
X0293Y01447*
X0293Y01447*
X0293Y01448*
X02931Y01449*
X02931Y0145*
X02931Y0145*
X02931Y01451*
X02931Y01452*
X02931Y01453*
X01981Y01988D02*
D01*
X01981Y01989*
X01981Y0199*
X01981Y0199*
X01981Y01991*
X01981Y01992*
X0198Y01993*
X0198Y01993*
X0198Y01994*
X01979Y01995*
X01979Y01995*
X01978Y01996*
X01977Y01997*
X01977Y01997*
X01976Y01998*
X01975Y01998*
X01975Y01999*
X01974Y01999*
X01973Y01999*
X01972Y01999*
X01972Y02*
X01971Y02*
X0197Y02*
X01969*
X01968Y02*
X01967Y02*
X01967Y01999*
X01966Y01999*
X01965Y01999*
X01964Y01999*
X01964Y01998*
X01963Y01998*
X01962Y01997*
X01962Y01997*
X01961Y01996*
X0196Y01995*
X0196Y01995*
X0196Y01994*
X01959Y01993*
X01959Y01993*
X01958Y01992*
X01958Y01991*
X01958Y0199*
X01958Y0199*
X01958Y01989*
X01958Y01988*
X01958Y01987*
X01958Y01986*
X01958Y01985*
X01958Y01985*
X01958Y01984*
X01959Y01983*
X01959Y01982*
X0196Y01982*
X0196Y01981*
X0196Y0198*
X01961Y0198*
X01962Y01979*
X01962Y01979*
X01963Y01978*
X01964Y01978*
X01964Y01977*
X01965Y01977*
X01966Y01977*
X01967Y01976*
X01967Y01976*
X01968Y01976*
X01969Y01976*
X0197*
X01971Y01976*
X01972Y01976*
X01972Y01976*
X01973Y01977*
X01974Y01977*
X01975Y01977*
X01975Y01978*
X01976Y01978*
X01977Y01979*
X01977Y01979*
X01978Y0198*
X01979Y0198*
X01979Y01981*
X0198Y01982*
X0198Y01982*
X0198Y01983*
X01981Y01984*
X01981Y01985*
X01981Y01985*
X01981Y01986*
X01981Y01987*
X01981Y01988*
X02926Y01993D02*
D01*
X02926Y01994*
X02926Y01995*
X02926Y01995*
X02926Y01996*
X02926Y01997*
X02925Y01998*
X02925Y01998*
X02925Y01999*
X02924Y02*
X02924Y02*
X02923Y02001*
X02922Y02002*
X02922Y02002*
X02921Y02003*
X0292Y02003*
X0292Y02004*
X02919Y02004*
X02918Y02004*
X02917Y02004*
X02917Y02005*
X02916Y02005*
X02915Y02005*
X02914*
X02913Y02005*
X02912Y02005*
X02912Y02004*
X02911Y02004*
X0291Y02004*
X02909Y02004*
X02909Y02003*
X02908Y02003*
X02907Y02002*
X02907Y02002*
X02906Y02001*
X02905Y02*
X02905Y02*
X02905Y01999*
X02904Y01998*
X02904Y01998*
X02903Y01997*
X02903Y01996*
X02903Y01995*
X02903Y01995*
X02903Y01994*
X02903Y01993*
X02903Y01992*
X02903Y01991*
X02903Y0199*
X02903Y0199*
X02903Y01989*
X02904Y01988*
X02904Y01987*
X02905Y01987*
X02905Y01986*
X02905Y01985*
X02906Y01985*
X02907Y01984*
X02907Y01984*
X02908Y01983*
X02909Y01983*
X02909Y01982*
X0291Y01982*
X02911Y01982*
X02912Y01981*
X02912Y01981*
X02913Y01981*
X02914Y01981*
X02915*
X02916Y01981*
X02917Y01981*
X02917Y01981*
X02918Y01982*
X02919Y01982*
X0292Y01982*
X0292Y01983*
X02921Y01983*
X02922Y01984*
X02922Y01984*
X02923Y01985*
X02924Y01985*
X02924Y01986*
X02925Y01987*
X02925Y01987*
X02925Y01988*
X02926Y01989*
X02926Y0199*
X02926Y0199*
X02926Y01991*
X02926Y01992*
X02926Y01993*
X02642Y02295D02*
D01*
X02642Y02295*
X02642Y02296*
X02642Y02297*
X02641Y02298*
X02641Y02299*
X02641Y02299*
X0264Y023*
X0264Y02301*
X0264Y02301*
X02639Y02302*
X02639Y02303*
X02638Y02303*
X02637Y02304*
X02637Y02304*
X02636Y02305*
X02635Y02305*
X02634Y02305*
X02634Y02306*
X02633Y02306*
X02632Y02306*
X02631Y02306*
X0263Y02306*
X0263*
X02629Y02306*
X02628Y02306*
X02627Y02306*
X02626Y02306*
X02626Y02305*
X02625Y02305*
X02624Y02305*
X02623Y02304*
X02623Y02304*
X02622Y02303*
X02622Y02303*
X02621Y02302*
X0262Y02301*
X0262Y02301*
X0262Y023*
X02619Y02299*
X02619Y02299*
X02619Y02298*
X02618Y02297*
X02618Y02296*
X02618Y02295*
X02618Y02295*
X02618Y02294*
X02618Y02293*
X02618Y02292*
X02619Y02291*
X02619Y02291*
X02619Y0229*
X0262Y02289*
X0262Y02288*
X0262Y02288*
X02621Y02287*
X02622Y02286*
X02622Y02286*
X02623Y02285*
X02623Y02285*
X02624Y02284*
X02625Y02284*
X02626Y02284*
X02626Y02283*
X02627Y02283*
X02628Y02283*
X02629Y02283*
X0263Y02283*
X0263*
X02631Y02283*
X02632Y02283*
X02633Y02283*
X02634Y02283*
X02634Y02284*
X02635Y02284*
X02636Y02284*
X02637Y02285*
X02637Y02285*
X02638Y02286*
X02639Y02286*
X02639Y02287*
X0264Y02288*
X0264Y02288*
X0264Y02289*
X02641Y0229*
X02641Y02291*
X02641Y02291*
X02642Y02292*
X02642Y02293*
X02642Y02294*
X02642Y02295*
G54D14*
X04794Y0204D02*
D01*
X04796Y0204*
X04797Y0204*
X04799Y0204*
X04801Y0204*
X04802Y02041*
X04804Y02042*
X04806Y02042*
X04807Y02043*
X04809Y02044*
X0481Y02045*
X04811Y02047*
X04812Y02048*
X04814Y02049*
X04815Y02051*
X04816Y02052*
X04816Y02054*
X04817Y02055*
X04818Y02057*
X04818Y02058*
X04818Y0206*
X04819Y02062*
X04819Y02064*
Y02065*
X04819Y02067*
X04818Y02069*
X04818Y02071*
X04818Y02072*
X04817Y02074*
X04816Y02075*
X04816Y02077*
X04815Y02078*
X04814Y0208*
X04812Y02081*
X04811Y02082*
X0481Y02084*
X04809Y02085*
X04807Y02086*
X04806Y02087*
X04804Y02087*
X04802Y02088*
X04801Y02089*
X04799Y02089*
X04797Y02089*
X04796Y02089*
X04794Y0209*
X06423D02*
D01*
X06421Y02089*
X0642Y02089*
X06418Y02089*
X06416Y02089*
X06414Y02088*
X06413Y02087*
X06411Y02087*
X0641Y02086*
X06408Y02085*
X06407Y02084*
X06406Y02082*
X06404Y02081*
X06403Y0208*
X06402Y02078*
X06401Y02077*
X06401Y02075*
X064Y02074*
X06399Y02072*
X06399Y02071*
X06398Y02069*
X06398Y02067*
X06398Y02065*
Y02064*
X06398Y02062*
X06398Y0206*
X06399Y02058*
X06399Y02057*
X064Y02055*
X06401Y02054*
X06401Y02052*
X06402Y02051*
X06403Y02049*
X06404Y02048*
X06406Y02047*
X06407Y02045*
X06408Y02044*
X0641Y02043*
X06411Y02042*
X06413Y02042*
X06414Y02041*
X06416Y0204*
X06418Y0204*
X0642Y0204*
X06421Y0204*
X06423Y0204*
X04677Y0209D02*
D01*
X04676Y02089*
X04674Y02089*
X04672Y02089*
X0467Y02089*
X04669Y02088*
X04667Y02087*
X04666Y02087*
X04664Y02086*
X04663Y02085*
X04661Y02084*
X0466Y02082*
X04659Y02081*
X04658Y0208*
X04657Y02078*
X04656Y02077*
X04655Y02075*
X04654Y02074*
X04654Y02072*
X04653Y02071*
X04653Y02069*
X04652Y02067*
X04652Y02065*
Y02064*
X04652Y02062*
X04653Y0206*
X04653Y02058*
X04654Y02057*
X04654Y02055*
X04655Y02054*
X04656Y02052*
X04657Y02051*
X04658Y02049*
X04659Y02048*
X0466Y02047*
X04661Y02045*
X04663Y02044*
X04664Y02043*
X04666Y02042*
X04667Y02042*
X04669Y02041*
X0467Y0204*
X04672Y0204*
X04674Y0204*
X04676Y0204*
X04677Y0204*
X05657Y01405D02*
D01*
X05658Y01405*
X0566Y01405*
X05662Y01405*
X05664Y01405*
X05665Y01406*
X05667Y01407*
X05668Y01407*
X0567Y01408*
X05671Y01409*
X05673Y0141*
X05674Y01412*
X05675Y01413*
X05676Y01414*
X05677Y01416*
X05678Y01417*
X05679Y01419*
X0568Y0142*
X0568Y01422*
X05681Y01423*
X05681Y01425*
X05682Y01427*
X05682Y01429*
Y0143*
X05682Y01432*
X05681Y01434*
X05681Y01436*
X0568Y01437*
X0568Y01439*
X05679Y0144*
X05678Y01442*
X05677Y01443*
X05676Y01445*
X05675Y01446*
X05674Y01447*
X05673Y01449*
X05671Y0145*
X0567Y01451*
X05668Y01452*
X05667Y01452*
X05665Y01453*
X05664Y01454*
X05662Y01454*
X0566Y01454*
X05658Y01454*
X05657Y01455*
X04782Y01405D02*
D01*
X04783Y01405*
X04785Y01405*
X04787Y01405*
X04789Y01405*
X0479Y01406*
X04792Y01407*
X04793Y01407*
X04795Y01408*
X04796Y01409*
X04798Y0141*
X04799Y01412*
X048Y01413*
X04801Y01414*
X04802Y01416*
X04803Y01417*
X04804Y01419*
X04805Y0142*
X04805Y01422*
X04806Y01423*
X04806Y01425*
X04807Y01427*
X04807Y01429*
Y0143*
X04807Y01432*
X04806Y01434*
X04806Y01436*
X04805Y01437*
X04805Y01439*
X04804Y0144*
X04803Y01442*
X04802Y01443*
X04801Y01445*
X048Y01446*
X04799Y01447*
X04798Y01449*
X04796Y0145*
X04795Y01451*
X04793Y01452*
X04792Y01452*
X0479Y01453*
X04789Y01454*
X04787Y01454*
X04785Y01454*
X04783Y01454*
X04782Y01455*
X03897Y0141D02*
D01*
X03898Y0141*
X039Y0141*
X03902Y0141*
X03904Y0141*
X03905Y01411*
X03907Y01412*
X03908Y01412*
X0391Y01413*
X03911Y01414*
X03913Y01415*
X03914Y01417*
X03915Y01418*
X03916Y01419*
X03917Y01421*
X03918Y01422*
X03919Y01424*
X0392Y01425*
X0392Y01427*
X03921Y01428*
X03921Y0143*
X03922Y01432*
X03922Y01434*
Y01435*
X03922Y01437*
X03921Y01439*
X03921Y01441*
X0392Y01442*
X0392Y01444*
X03919Y01445*
X03918Y01447*
X03917Y01448*
X03916Y0145*
X03915Y01451*
X03914Y01452*
X03913Y01454*
X03911Y01455*
X0391Y01456*
X03908Y01457*
X03907Y01457*
X03905Y01458*
X03904Y01459*
X03902Y01459*
X039Y01459*
X03898Y01459*
X03897Y0146*
X0296Y01492D02*
D01*
X0296Y01491*
X0296Y01489*
X0296Y01487*
X0296Y01485*
X02961Y01484*
X02962Y01482*
X02962Y01481*
X02963Y01479*
X02964Y01478*
X02965Y01476*
X02967Y01475*
X02968Y01474*
X02969Y01473*
X02971Y01472*
X02972Y01471*
X02974Y0147*
X02975Y01469*
X02977Y01468*
X02978Y01468*
X0298Y01468*
X02982Y01467*
X02984Y01467*
X02985*
X02987Y01467*
X02989Y01468*
X02991Y01468*
X02992Y01468*
X02994Y01469*
X02995Y0147*
X02997Y01471*
X02998Y01472*
X03Y01473*
X03001Y01474*
X03002Y01475*
X03004Y01476*
X03005Y01478*
X03006Y01479*
X03007Y01481*
X03007Y01482*
X03008Y01484*
X03009Y01485*
X03009Y01487*
X03009Y01489*
X03009Y01491*
X0301Y01492*
X0201Y02027D02*
D01*
X0201Y02026*
X0201Y02024*
X0201Y02022*
X0201Y0202*
X02011Y02019*
X02012Y02017*
X02012Y02016*
X02013Y02014*
X02014Y02013*
X02015Y02011*
X02017Y0201*
X02018Y02009*
X02019Y02008*
X02021Y02007*
X02022Y02006*
X02024Y02005*
X02025Y02004*
X02027Y02003*
X02028Y02003*
X0203Y02003*
X02032Y02002*
X02034Y02002*
X02035*
X02037Y02002*
X02039Y02003*
X02041Y02003*
X02042Y02003*
X02044Y02004*
X02045Y02005*
X02047Y02006*
X02048Y02007*
X0205Y02008*
X02051Y02009*
X02052Y0201*
X02054Y02011*
X02055Y02013*
X02056Y02014*
X02057Y02016*
X02057Y02017*
X02058Y02019*
X02059Y0202*
X02059Y02022*
X02059Y02024*
X02059Y02026*
X0206Y02027*
X02955Y02032D02*
D01*
X02955Y02031*
X02955Y02029*
X02955Y02027*
X02955Y02025*
X02956Y02024*
X02957Y02022*
X02957Y02021*
X02958Y02019*
X02959Y02018*
X0296Y02016*
X02962Y02015*
X02963Y02014*
X02964Y02013*
X02966Y02012*
X02967Y02011*
X02969Y0201*
X0297Y02009*
X02972Y02008*
X02973Y02008*
X02975Y02008*
X02977Y02007*
X02979Y02007*
X0298*
X02982Y02007*
X02984Y02008*
X02986Y02008*
X02987Y02008*
X02989Y02009*
X0299Y0201*
X02992Y02011*
X02993Y02012*
X02995Y02013*
X02996Y02014*
X02997Y02015*
X02999Y02016*
X03Y02018*
X03001Y02019*
X03002Y02021*
X03002Y02022*
X03003Y02024*
X03004Y02025*
X03004Y02027*
X03004Y02029*
X03004Y02031*
X03005Y02032*
X02591Y02335D02*
D01*
X02592Y02335*
X02594Y02335*
X02596Y02335*
X02598Y02335*
X02599Y02336*
X02601Y02337*
X02602Y02337*
X02604Y02338*
X02605Y02339*
X02607Y0234*
X02608Y02342*
X02609Y02343*
X0261Y02344*
X02611Y02346*
X02612Y02347*
X02613Y02349*
X02614Y0235*
X02614Y02352*
X02615Y02353*
X02615Y02355*
X02616Y02357*
X02616Y02359*
Y0236*
X02616Y02362*
X02615Y02364*
X02615Y02366*
X02614Y02367*
X02614Y02369*
X02613Y0237*
X02612Y02372*
X02611Y02373*
X0261Y02375*
X02609Y02376*
X02608Y02377*
X02607Y02379*
X02605Y0238*
X02604Y02381*
X02602Y02382*
X02601Y02382*
X02599Y02383*
X02598Y02384*
X02596Y02384*
X02594Y02384*
X02592Y02384*
X02591Y02385*
X01957Y0135D02*
Y01359D01*
X02012Y0135D02*
Y01359D01*
X07561Y01663D02*
Y01899D01*
X07797Y01663D02*
Y01899D01*
X07561Y01663D02*
X07797D01*
X07561Y01899D02*
X07797D01*
X07561Y01213D02*
Y01449D01*
X07797Y01213D02*
Y01449D01*
X07561Y01213D02*
X07797D01*
X07561Y01449D02*
X07797D01*
X08076Y01663D02*
Y01899D01*
X08312Y01663D02*
Y01899D01*
X08076Y01663D02*
X08312D01*
X08076Y01899D02*
X08312D01*
X07561Y02138D02*
Y02374D01*
X07797Y02138D02*
Y02374D01*
X07561Y02138D02*
X07797D01*
X07561Y02374D02*
X07797D01*
X07031Y01663D02*
Y01899D01*
X07267Y01663D02*
Y01899D01*
X07031Y01663D02*
X07267D01*
X07031Y01899D02*
X07267D01*
X08211Y02374D02*
X08218D01*
X08211Y02325D02*
X08218D01*
X08211Y02274D02*
X08218D01*
X08211Y02225D02*
X08218D01*
X07675Y0158D02*
X07683D01*
X07675Y01629D02*
X07683D01*
X07675Y01117D02*
X07683D01*
X07675Y01166D02*
X07683D01*
X08195Y0158D02*
X08203D01*
X08195Y01629D02*
X08203D01*
X07675Y02037D02*
X07683D01*
X07675Y02086D02*
X07683D01*
X07135Y0158D02*
X07143D01*
X07135Y01629D02*
X07143D01*
X06716Y03517D02*
X06726D01*
X06716Y03462D02*
X06726D01*
X06716Y03392D02*
X06726D01*
X06716Y03337D02*
X06726D01*
X06716Y03267D02*
X06726D01*
X06716Y03212D02*
X06726D01*
X06716Y03142D02*
X06726D01*
X06716Y03087D02*
X06726D01*
X06716Y03017D02*
X06726D01*
X06716Y02962D02*
X06726D01*
X06716Y02892D02*
X06726D01*
X06716Y02837D02*
X06726D01*
X06716Y02767D02*
X06726D01*
X06716Y02712D02*
X06726D01*
X06716Y02642D02*
X06726D01*
X06716Y02587D02*
X06726D01*
X07831Y04407D02*
X07841D01*
X07831Y04352D02*
X07841D01*
X07831Y04287D02*
X07841D01*
X07831Y04231D02*
X07841D01*
X07831Y04166D02*
X07841D01*
X07831Y04111D02*
X07841D01*
X07831Y04045D02*
X07841D01*
X07831Y0399D02*
X07841D01*
X07831Y03925D02*
X07841D01*
X07831Y0387D02*
X07841D01*
X07831Y03804D02*
X07841D01*
X07831Y03749D02*
X07841D01*
X07831Y03684D02*
X07841D01*
X07831Y03629D02*
X07841D01*
X07831Y03563D02*
X07841D01*
X07831Y03508D02*
X07841D01*
X07831Y03443D02*
X07841D01*
X07831Y03387D02*
X07841D01*
X07831Y03322D02*
X07841D01*
X07831Y03267D02*
X07841D01*
X07831Y03201D02*
X07841D01*
X07831Y03146D02*
X07841D01*
X07831Y03081D02*
X07841D01*
X07831Y03026D02*
X07841D01*
X07831Y0296D02*
X07841D01*
X07831Y02905D02*
X07841D01*
X07831Y0284D02*
X07841D01*
X07831Y02785D02*
X07841D01*
X07831Y02719D02*
X07841D01*
X07831Y02664D02*
X07841D01*
X07831Y02599D02*
X07841D01*
X07831Y02544D02*
X07841D01*
X04631Y0176D02*
X04638D01*
X04631Y01809D02*
X04638D01*
X07157Y02144D02*
X07362D01*
Y04155*
X07157Y02144D02*
Y04155D01*
X07362*
X05569Y0196D02*
Y02169D01*
X04794Y0209D02*
Y02169D01*
Y0196D02*
Y0204D01*
Y02169D02*
X05569D01*
X04794Y0196D02*
X05569D01*
X05647D02*
Y02169D01*
X06423Y0196D02*
Y0204D01*
Y0209D02*
Y02169D01*
X05647Y0196D02*
X06423D01*
X05647Y02169D02*
X06423D01*
X03902Y0196D02*
Y02169D01*
X04677Y0196D02*
Y0204D01*
Y0209D02*
Y02169D01*
X03902Y0196D02*
X04677D01*
X03902Y02169D02*
X04677D01*
X02682Y03859D02*
X02787D01*
Y0417*
X02682D02*
X02787D01*
X02682Y03859D02*
Y0417D01*
X02377Y04165D02*
X02582D01*
X02377Y03854D02*
Y04165D01*
X02582Y03854D02*
Y04165D01*
X02377Y03854D02*
X02582D01*
X02099Y04165D02*
X02305D01*
X02099Y03854D02*
Y04165D01*
X02305Y03854D02*
Y04165D01*
X02099Y03854D02*
X02305D01*
X01822Y04165D02*
X02027D01*
X01822Y03854D02*
Y04165D01*
X02027Y03854D02*
Y04165D01*
X01822Y03854D02*
X02027D01*
X03627Y02182D02*
Y02567D01*
X03432D02*
X03627D01*
X03432Y02182D02*
Y02567D01*
Y02182D02*
X03627D01*
X01911Y02434D02*
X01918D01*
X01911Y02385D02*
X01918D01*
X06432Y01325D02*
Y01534D01*
X05657Y01455D02*
Y01534D01*
Y01325D02*
Y01405D01*
Y01534D02*
X06432D01*
X05657Y01325D02*
X06432D01*
X05557D02*
Y01534D01*
X04782Y01455D02*
Y01534D01*
Y01325D02*
Y01405D01*
Y01534D02*
X05557D01*
X04782Y01325D02*
X05557D01*
X04672Y0133D02*
Y01539D01*
X03897Y0146D02*
Y01539D01*
Y0133D02*
Y0141D01*
Y01539D02*
X04672D01*
X03897Y0133D02*
X04672D01*
X02413Y01171D02*
Y01408D01*
X02176Y01171D02*
Y01408D01*
X02413*
X02176Y01171D02*
X02413D01*
X02657Y0111D02*
X02665D01*
X02657Y01159D02*
X02665D01*
X02657Y0131D02*
X02665D01*
X02657Y01359D02*
X02665D01*
X02342Y0185D02*
X0235D01*
X02342Y01899D02*
X0235D01*
X03286Y01921D02*
Y01928D01*
X03237Y01921D02*
Y01928D01*
X01986Y01465D02*
X01993D01*
X01986Y01514D02*
X01993D01*
X0288Y01087D02*
Y01492D01*
X03089Y01087D02*
Y01492D01*
X0288D02*
X0296D01*
X0301D02*
X03089D01*
X0288Y01087D02*
X03089D01*
X0193Y01622D02*
Y02027D01*
X02139Y01622D02*
Y02027D01*
X0193D02*
X0201D01*
X0206D02*
X02139D01*
X0193Y01622D02*
X02139D01*
X02875Y01627D02*
Y02032D01*
X03084Y01627D02*
Y02032D01*
X02875D02*
X02955D01*
X03005D02*
X03084D01*
X02875Y01627D02*
X03084D01*
X03432Y01622D02*
X03627D01*
Y02007*
X03432D02*
X03627D01*
X03432Y01622D02*
Y02007D01*
X02106Y0435D02*
X02113D01*
X02106Y04399D02*
X02113D01*
X02591Y02255D02*
X03358D01*
X02591Y02464D02*
X03358D01*
X02591Y02255D02*
Y02335D01*
Y02385D02*
Y02464D01*
X03358Y02255D02*
Y02464D01*
X02161Y02366D02*
Y02603D01*
X02398Y02366D02*
Y02603D01*
X02161Y02366D02*
X02398D01*
X02161Y02603D02*
X02398D01*
G54D15*
X01969Y01246D02*
X02D01*
X06866Y03474D02*
Y03505D01*
Y03349D02*
Y0338D01*
Y03224D02*
Y03256D01*
Y03099D02*
Y03131D01*
Y02975D02*
Y03006D01*
Y0285D02*
Y02881D01*
Y02725D02*
Y02757D01*
Y026D02*
Y02632D01*
X07691Y04369D02*
Y044D01*
Y04248D02*
Y04279D01*
Y04127D02*
Y04158D01*
Y04006D02*
Y04037D01*
Y03885D02*
Y03916D01*
Y03764D02*
Y03795D01*
Y03643D02*
Y03674D01*
Y03522D02*
Y03553D01*
Y03401D02*
Y03432D01*
Y0328D02*
Y03311D01*
Y03159D02*
Y0319D01*
Y03038D02*
Y03069D01*
Y02917D02*
Y02948D01*
Y02796D02*
Y02827D01*
Y02675D02*
Y02706D01*
Y02554D02*
Y02585D01*
G54D16*
X04424Y01785D02*
Y018D01*
X04394Y01785D02*
Y018D01*
X04424Y0177D02*
Y01785D01*
X04394D02*
X04424Y0177D01*
X04394D02*
Y01785D01*
X04424Y018*
X04384Y01785D02*
X04434D01*
G54D17*
X0349Y01185D02*
Y01225D01*
Y01365*
Y01405*
X0355*
Y01365D02*
Y01405D01*
Y01225D02*
Y01365D01*
Y01185D02*
Y01225D01*
X0349Y01185D02*
X0355D01*
X04586Y01665D02*
Y01704D01*
X04606*
X04613Y01698*
Y01685*
X04606Y01678*
X04586*
X046D02*
X04613Y01665D01*
X04646D02*
Y01704D01*
X04626Y01685*
X04653*
X04693Y01665D02*
X04666D01*
X04693Y01691*
Y01698*
X04686Y01704*
X04673*
X04666Y01698*
X04366Y01704D02*
Y01665D01*
X04386*
X04393Y01671*
Y01698*
X04386Y01704*
X04366*
X04406Y01698D02*
X04413Y01704D01*
X04426*
X04433Y01698*
Y01691*
X04426Y01685*
X04433Y01678*
Y01671*
X04426Y01665*
X04413*
X04406Y01671*
Y01678*
X04413Y01685*
X04406Y01691*
Y01698*
X04413Y01685D02*
X04426D01*
X04136Y01698D02*
X0413Y01704D01*
X04116*
X0411Y01698*
Y01671*
X04116Y01665*
X0413*
X04136Y01671*
X0415Y01665D02*
X04163D01*
X04156*
Y01704*
X0415Y01698*
X04209Y01665D02*
X04183D01*
X04209Y01691*
Y01698*
X04203Y01704*
X04189*
X04183Y01698*
X07983Y02335D02*
Y02374D01*
X08003*
X0801Y02368*
Y02355*
X08003Y02348*
X07983*
X07996D02*
X0801Y02335D01*
X08043D02*
Y02374D01*
X08023Y02355*
X08049*
X08063Y02335D02*
X08076D01*
X08069*
Y02374*
X08063Y02368*
X07981Y0223D02*
Y02269D01*
X08001*
X08008Y02263*
Y0225*
X08001Y02243*
X07981*
X07995D02*
X08008Y0223D01*
X08041D02*
Y02269D01*
X08021Y0225*
X08048*
X08061Y02263D02*
X08068Y02269D01*
X08081*
X08088Y02263*
Y02236*
X08081Y0223*
X08068*
X08061Y02236*
Y02263*
X07451Y01588D02*
Y01628D01*
X07471*
X07477Y01621*
Y01608*
X07471Y01601*
X07451*
X07464D02*
X07477Y01588D01*
X07491Y01621D02*
X07497Y01628D01*
X07511*
X07517Y01621*
Y01614*
X07511Y01608*
X07504*
X07511*
X07517Y01601*
Y01594*
X07511Y01588*
X07497*
X07491Y01594*
X07531D02*
X07537Y01588D01*
X07551*
X07557Y01594*
Y01621*
X07551Y01628*
X07537*
X07531Y01621*
Y01614*
X07537Y01608*
X07557*
X07431Y01121D02*
Y01161D01*
X07451*
X07457Y01155*
Y01141*
X07451Y01135*
X07431*
X07444D02*
X07457Y01121D01*
X07471Y01155D02*
X07477Y01161D01*
X07491*
X07497Y01155*
Y01148*
X07491Y01141*
X07484*
X07491*
X07497Y01135*
Y01128*
X07491Y01121*
X07477*
X07471Y01128*
X07511Y01155D02*
X07517Y01161D01*
X07531*
X07537Y01155*
Y01148*
X07531Y01141*
X07537Y01135*
Y01128*
X07531Y01121*
X07517*
X07511Y01128*
Y01135*
X07517Y01141*
X07511Y01148*
Y01155*
X07517Y01141D02*
X07531D01*
X07966Y01585D02*
Y01624D01*
X07986*
X07992Y01618*
Y01605*
X07986Y01598*
X07966*
X07979D02*
X07992Y01585D01*
X08006Y01618D02*
X08012Y01624D01*
X08026*
X08032Y01618*
Y01611*
X08026Y01605*
X08019*
X08026*
X08032Y01598*
Y01591*
X08026Y01585*
X08012*
X08006Y01591*
X08046Y01624D02*
X08072D01*
Y01618*
X08046Y01591*
Y01585*
X07446Y02041D02*
Y02081D01*
X07466*
X07472Y02075*
Y02061*
X07466Y02055*
X07446*
X07459D02*
X07472Y02041D01*
X07486Y02075D02*
X07492Y02081D01*
X07506*
X07512Y02075*
Y02068*
X07506Y02061*
X07499*
X07506*
X07512Y02055*
Y02048*
X07506Y02041*
X07492*
X07486Y02048*
X07552Y02081D02*
X07539Y02075D01*
X07526Y02061*
Y02048*
X07532Y02041*
X07546*
X07552Y02048*
Y02055*
X07546Y02061*
X07526*
X06901Y01585D02*
Y01624D01*
X06921*
X06927Y01618*
Y01605*
X06921Y01598*
X06901*
X06914D02*
X06927Y01585D01*
X06941Y01618D02*
X06947Y01624D01*
X06961*
X06967Y01618*
Y01611*
X06961Y01605*
X06954*
X06961*
X06967Y01598*
Y01591*
X06961Y01585*
X06947*
X06941Y01591*
X07007Y01624D02*
X06981D01*
Y01605*
X06994Y01611*
X07001*
X07007Y01605*
Y01591*
X07001Y01585*
X06987*
X06981Y01591*
X06485Y03465D02*
Y03504D01*
X06505*
X06511Y03498*
Y03485*
X06505Y03478*
X06485*
X06498D02*
X06511Y03465D01*
X06525Y03498D02*
X06531Y03504D01*
X06545*
X06551Y03498*
Y03491*
X06545Y03485*
X06538*
X06545*
X06551Y03478*
Y03471*
X06545Y03465*
X06531*
X06525Y03471*
X06585Y03465D02*
Y03504D01*
X06565Y03485*
X06591*
X06485Y03345D02*
Y03384D01*
X06505*
X06511Y03378*
Y03365*
X06505Y03358*
X06485*
X06498D02*
X06511Y03345D01*
X06525Y03378D02*
X06531Y03384D01*
X06545*
X06551Y03378*
Y03371*
X06545Y03365*
X06538*
X06545*
X06551Y03358*
Y03351*
X06545Y03345*
X06531*
X06525Y03351*
X06565Y03378D02*
X06571Y03384D01*
X06585*
X06591Y03378*
Y03371*
X06585Y03365*
X06578*
X06585*
X06591Y03358*
Y03351*
X06585Y03345*
X06571*
X06565Y03351*
X06485Y0322D02*
Y03259D01*
X06505*
X06511Y03253*
Y0324*
X06505Y03233*
X06485*
X06498D02*
X06511Y0322D01*
X06525Y03253D02*
X06531Y03259D01*
X06545*
X06551Y03253*
Y03246*
X06545Y0324*
X06538*
X06545*
X06551Y03233*
Y03226*
X06545Y0322*
X06531*
X06525Y03226*
X06591Y0322D02*
X06565D01*
X06591Y03246*
Y03253*
X06585Y03259*
X06571*
X06565Y03253*
X06485Y03095D02*
Y03134D01*
X06505*
X06511Y03128*
Y03115*
X06505Y03108*
X06485*
X06498D02*
X06511Y03095D01*
X06525Y03128D02*
X06531Y03134D01*
X06545*
X06551Y03128*
Y03121*
X06545Y03115*
X06538*
X06545*
X06551Y03108*
Y03101*
X06545Y03095*
X06531*
X06525Y03101*
X06565Y03095D02*
X06578D01*
X06571*
Y03134*
X06565Y03128*
X06485Y0297D02*
Y03009D01*
X06505*
X06511Y03003*
Y0299*
X06505Y02983*
X06485*
X06498D02*
X06511Y0297D01*
X06525Y03003D02*
X06531Y03009D01*
X06545*
X06551Y03003*
Y02996*
X06545Y0299*
X06538*
X06545*
X06551Y02983*
Y02976*
X06545Y0297*
X06531*
X06525Y02976*
X06565Y03003D02*
X06571Y03009D01*
X06585*
X06591Y03003*
Y02976*
X06585Y0297*
X06571*
X06565Y02976*
Y03003*
X06485Y02845D02*
Y02884D01*
X06505*
X06511Y02878*
Y02865*
X06505Y02858*
X06485*
X06498D02*
X06511Y02845D01*
X06551D02*
X06525D01*
X06551Y02871*
Y02878*
X06545Y02884*
X06531*
X06525Y02878*
X06565Y02851D02*
X06571Y02845D01*
X06585*
X06591Y02851*
Y02878*
X06585Y02884*
X06571*
X06565Y02878*
Y02871*
X06571Y02865*
X06591*
X06485Y0272D02*
Y02759D01*
X06505*
X06511Y02753*
Y0274*
X06505Y02733*
X06485*
X06498D02*
X06511Y0272D01*
X06551D02*
X06525D01*
X06551Y02746*
Y02753*
X06545Y02759*
X06531*
X06525Y02753*
X06565D02*
X06571Y02759D01*
X06585*
X06591Y02753*
Y02746*
X06585Y0274*
X06591Y02733*
Y02726*
X06585Y0272*
X06571*
X06565Y02726*
Y02733*
X06571Y0274*
X06565Y02746*
Y02753*
X06571Y0274D02*
X06585D01*
X06485Y02595D02*
Y02634D01*
X06505*
X06511Y02628*
Y02615*
X06505Y02608*
X06485*
X06498D02*
X06511Y02595D01*
X06551D02*
X06525D01*
X06551Y02621*
Y02628*
X06545Y02634*
X06531*
X06525Y02628*
X06565Y02634D02*
X06591D01*
Y02628*
X06565Y02601*
Y02595*
X07966Y0436D02*
Y04399D01*
X07986*
X07993Y04393*
Y0438*
X07986Y04373*
X07966*
X07979D02*
X07993Y0436D01*
X08033D02*
X08006D01*
X08033Y04386*
Y04393*
X08026Y04399*
X08013*
X08006Y04393*
X08073Y04399D02*
X08059Y04393D01*
X08046Y0438*
Y04366*
X08053Y0436*
X08066*
X08073Y04366*
Y04373*
X08066Y0438*
X08046*
X07966Y04239D02*
Y04279D01*
X07986*
X07993Y04273*
Y04259*
X07986Y04253*
X07966*
X07979D02*
X07993Y04239D01*
X08033D02*
X08006D01*
X08033Y04266*
Y04273*
X08026Y04279*
X08013*
X08006Y04273*
X08073Y04279D02*
X08046D01*
Y04259*
X08059Y04266*
X08066*
X08073Y04259*
Y04246*
X08066Y04239*
X08053*
X08046Y04246*
X07966Y04119D02*
Y04159D01*
X07986*
X07993Y04152*
Y04139*
X07986Y04132*
X07966*
X07979D02*
X07993Y04119D01*
X08033D02*
X08006D01*
X08033Y04146*
Y04152*
X08026Y04159*
X08013*
X08006Y04152*
X08066Y04119D02*
Y04159D01*
X08046Y04139*
X08073*
X07966Y03999D02*
Y04039D01*
X07986*
X07993Y04032*
Y04019*
X07986Y04012*
X07966*
X07979D02*
X07993Y03999D01*
X08033D02*
X08006D01*
X08033Y04025*
Y04032*
X08026Y04039*
X08013*
X08006Y04032*
X08046D02*
X08053Y04039D01*
X08066*
X08073Y04032*
Y04025*
X08066Y04019*
X08059*
X08066*
X08073Y04012*
Y04005*
X08066Y03999*
X08053*
X08046Y04005*
X07966Y03878D02*
Y03918D01*
X07986*
X07993Y03912*
Y03898*
X07986Y03892*
X07966*
X07979D02*
X07993Y03878D01*
X08033D02*
X08006D01*
X08033Y03905*
Y03912*
X08026Y03918*
X08013*
X08006Y03912*
X08073Y03878D02*
X08046D01*
X08073Y03905*
Y03912*
X08066Y03918*
X08053*
X08046Y03912*
X07966Y03758D02*
Y03798D01*
X07986*
X07993Y03791*
Y03778*
X07986Y03771*
X07966*
X07979D02*
X07993Y03758D01*
X08033D02*
X08006D01*
X08033Y03785*
Y03791*
X08026Y03798*
X08013*
X08006Y03791*
X08046Y03758D02*
X08059D01*
X08053*
Y03798*
X08046Y03791*
X07966Y03638D02*
Y03678D01*
X07986*
X07993Y03671*
Y03658*
X07986Y03651*
X07966*
X07979D02*
X07993Y03638D01*
X08033D02*
X08006D01*
X08033Y03664*
Y03671*
X08026Y03678*
X08013*
X08006Y03671*
X08046D02*
X08053Y03678D01*
X08066*
X08073Y03671*
Y03644*
X08066Y03638*
X08053*
X08046Y03644*
Y03671*
X07966Y03517D02*
Y03557D01*
X07986*
X07993Y03551*
Y03537*
X07986Y03531*
X07966*
X07979D02*
X07993Y03517D01*
X08006D02*
X08019D01*
X08013*
Y03557*
X08006Y03551*
X08039Y03524D02*
X08046Y03517D01*
X08059*
X08066Y03524*
Y03551*
X08059Y03557*
X08046*
X08039Y03551*
Y03544*
X08046Y03537*
X08066*
X07966Y03397D02*
Y03437D01*
X07986*
X07993Y0343*
Y03417*
X07986Y0341*
X07966*
X07979D02*
X07993Y03397D01*
X08006D02*
X08019D01*
X08013*
Y03437*
X08006Y0343*
X08039D02*
X08046Y03437D01*
X08059*
X08066Y0343*
Y03424*
X08059Y03417*
X08066Y0341*
Y03404*
X08059Y03397*
X08046*
X08039Y03404*
Y0341*
X08046Y03417*
X08039Y03424*
Y0343*
X08046Y03417D02*
X08059D01*
X07966Y03277D02*
Y03317D01*
X07986*
X07993Y0331*
Y03297*
X07986Y0329*
X07966*
X07979D02*
X07993Y03277D01*
X08006D02*
X08019D01*
X08013*
Y03317*
X08006Y0331*
X08039Y03317D02*
X08066D01*
Y0331*
X08039Y03283*
Y03277*
X07966Y03156D02*
Y03196D01*
X07986*
X07993Y0319*
Y03176*
X07986Y0317*
X07966*
X07979D02*
X07993Y03156D01*
X08006D02*
X08019D01*
X08013*
Y03196*
X08006Y0319*
X08066Y03196D02*
X08053Y0319D01*
X08039Y03176*
Y03163*
X08046Y03156*
X08059*
X08066Y03163*
Y0317*
X08059Y03176*
X08039*
X07966Y03036D02*
Y03076D01*
X07986*
X07993Y03069*
Y03056*
X07986Y03049*
X07966*
X07979D02*
X07993Y03036D01*
X08006D02*
X08019D01*
X08013*
Y03076*
X08006Y03069*
X08066Y03076D02*
X08039D01*
Y03056*
X08053Y03063*
X08059*
X08066Y03056*
Y03043*
X08059Y03036*
X08046*
X08039Y03043*
X07966Y02916D02*
Y02956D01*
X07986*
X07993Y02949*
Y02936*
X07986Y02929*
X07966*
X07979D02*
X07993Y02916D01*
X08006D02*
X08019D01*
X08013*
Y02956*
X08006Y02949*
X08059Y02916D02*
Y02956D01*
X08039Y02936*
X08066*
X07966Y02795D02*
Y02835D01*
X07986*
X07993Y02829*
Y02815*
X07986Y02809*
X07966*
X07979D02*
X07993Y02795D01*
X08006D02*
X08019D01*
X08013*
Y02835*
X08006Y02829*
X08039D02*
X08046Y02835D01*
X08059*
X08066Y02829*
Y02822*
X08059Y02815*
X08053*
X08059*
X08066Y02809*
Y02802*
X08059Y02795*
X08046*
X08039Y02802*
X07966Y02675D02*
Y02715D01*
X07986*
X07993Y02708*
Y02695*
X07986Y02688*
X07966*
X07979D02*
X07993Y02675D01*
X08006D02*
X08019D01*
X08013*
Y02715*
X08006Y02708*
X08066Y02675D02*
X08039D01*
X08066Y02702*
Y02708*
X08059Y02715*
X08046*
X08039Y02708*
X07966Y02555D02*
Y02595D01*
X07986*
X07993Y02588*
Y02575*
X07986Y02568*
X07966*
X07979D02*
X07993Y02555D01*
X08006D02*
X08019D01*
X08013*
Y02595*
X08006Y02588*
X08039Y02555D02*
X08053D01*
X08046*
Y02595*
X08039Y02588*
X08251Y02455D02*
Y02494D01*
X08271*
X08278Y02488*
Y02475*
X08271Y02468*
X08251*
X08318Y02455D02*
X08291D01*
X08318Y02481*
Y02488*
X08311Y02494*
X08298*
X08291Y02488*
X07042Y03506D02*
Y03466D01*
X07062*
X07069Y03473*
Y03499*
X07062Y03506*
X07042*
X07082D02*
X07109D01*
Y03499*
X07082Y03473*
Y03466*
X07042Y03381D02*
Y03341D01*
X07062*
X07069Y03348*
Y03375*
X07062Y03381*
X07042*
X07109D02*
X07096Y03375D01*
X07082Y03361*
Y03348*
X07089Y03341*
X07102*
X07109Y03348*
Y03355*
X07102Y03361*
X07082*
X07042Y03256D02*
Y03216D01*
X07062*
X07069Y03223*
Y0325*
X07062Y03256*
X07042*
X07109D02*
X07082D01*
Y03236*
X07096Y03243*
X07102*
X07109Y03236*
Y03223*
X07102Y03216*
X07089*
X07082Y03223*
X07042Y03132D02*
Y03092D01*
X07062*
X07069Y03098*
Y03125*
X07062Y03132*
X07042*
X07102Y03092D02*
Y03132D01*
X07082Y03112*
X07109*
X07042Y03007D02*
Y02967D01*
X07062*
X07069Y02974*
Y03*
X07062Y03007*
X07042*
X07082Y03D02*
X07089Y03007D01*
X07102*
X07109Y03*
Y02994*
X07102Y02987*
X07096*
X07102*
X07109Y0298*
Y02974*
X07102Y02967*
X07089*
X07082Y02974*
X07042Y02882D02*
Y02842D01*
X07062*
X07069Y02849*
Y02875*
X07062Y02882*
X07042*
X07109Y02842D02*
X07082D01*
X07109Y02869*
Y02875*
X07102Y02882*
X07089*
X07082Y02875*
X07042Y02757D02*
Y02717D01*
X07062*
X07069Y02724*
Y02751*
X07062Y02757*
X07042*
X07082Y02717D02*
X07096D01*
X07089*
Y02757*
X07082Y02751*
X07042Y02593D02*
Y02633D01*
X07062*
X07069Y02626*
Y02599*
X07062Y02593*
X07042*
X07082Y02599D02*
X07089Y02593D01*
X07102*
X07109Y02599*
Y02626*
X07102Y02633*
X07089*
X07082Y02626*
Y02599*
X07435Y0436D02*
Y04386D01*
X07448Y04399*
X07462Y04386*
Y0436*
Y0438*
X07435*
X07475Y0436D02*
X07488D01*
X07482*
Y04399*
X07475Y04393*
X07535Y04399D02*
X07508D01*
Y0438*
X07522Y04386*
X07528*
X07535Y0438*
Y04366*
X07528Y0436*
X07515*
X07508Y04366*
X07435Y04239D02*
Y04265D01*
X07448Y04279*
X07462Y04265*
Y04239*
Y04259*
X07435*
X07475Y04239D02*
X07488D01*
X07482*
Y04279*
X07475Y04272*
X07528Y04239D02*
Y04279D01*
X07508Y04259*
X07535*
X07435Y04118D02*
Y04144D01*
X07448Y04158*
X07462Y04144*
Y04118*
Y04138*
X07435*
X07475Y04118D02*
X07488D01*
X07482*
Y04158*
X07475Y04151*
X07508D02*
X07515Y04158D01*
X07528*
X07535Y04151*
Y04144*
X07528Y04138*
X07522*
X07528*
X07535Y04131*
Y04124*
X07528Y04118*
X07515*
X07508Y04124*
X07435Y03997D02*
Y04023D01*
X07448Y04037*
X07462Y04023*
Y03997*
Y04017*
X07435*
X07475Y03997D02*
X07488D01*
X07482*
Y04037*
X07475Y0403*
X07535Y03997D02*
X07508D01*
X07535Y04023*
Y0403*
X07528Y04037*
X07515*
X07508Y0403*
X07435Y03876D02*
Y03903D01*
X07448Y03916*
X07462Y03903*
Y03876*
Y03896*
X07435*
X07475Y03876D02*
X07488D01*
X07482*
Y03916*
X07475Y03909*
X07508Y03876D02*
X07522D01*
X07515*
Y03916*
X07508Y03909*
X07435Y03755D02*
Y03782D01*
X07448Y03795*
X07462Y03782*
Y03755*
Y03775*
X07435*
X07475Y03755D02*
X07488D01*
X07482*
Y03795*
X07475Y03788*
X07508D02*
X07515Y03795D01*
X07528*
X07535Y03788*
Y03762*
X07528Y03755*
X07515*
X07508Y03762*
Y03788*
X07435Y03634D02*
Y03661D01*
X07448Y03674*
X07462Y03661*
Y03634*
Y03654*
X07435*
X07475Y03641D02*
X07482Y03634D01*
X07495*
X07502Y03641*
Y03667*
X07495Y03674*
X07482*
X07475Y03667*
Y03661*
X07482Y03654*
X07502*
X07435Y03513D02*
Y0354D01*
X07448Y03553*
X07462Y0354*
Y03513*
Y03533*
X07435*
X07475Y03547D02*
X07482Y03553D01*
X07495*
X07502Y03547*
Y0354*
X07495Y03533*
X07502Y03527*
Y0352*
X07495Y03513*
X07482*
X07475Y0352*
Y03527*
X07482Y03533*
X07475Y0354*
Y03547*
X07482Y03533D02*
X07495D01*
X07435Y03392D02*
Y03419D01*
X07448Y03432*
X07462Y03419*
Y03392*
Y03412*
X07435*
X07475Y03432D02*
X07502D01*
Y03426*
X07475Y03399*
Y03392*
X07435Y03271D02*
Y03298D01*
X07448Y03311*
X07462Y03298*
Y03271*
Y03291*
X07435*
X07502Y03311D02*
X07488Y03305D01*
X07475Y03291*
Y03278*
X07482Y03271*
X07495*
X07502Y03278*
Y03285*
X07495Y03291*
X07475*
X07435Y03151D02*
Y03177D01*
X07448Y03191*
X07462Y03177*
Y03151*
Y03171*
X07435*
X07502Y03191D02*
X07475D01*
Y03171*
X07488Y03177*
X07495*
X07502Y03171*
Y03157*
X07495Y03151*
X07482*
X07475Y03157*
X07435Y0303D02*
Y03056D01*
X07448Y0307*
X07462Y03056*
Y0303*
Y0305*
X07435*
X07495Y0303D02*
Y0307D01*
X07475Y0305*
X07502*
X07435Y02909D02*
Y02935D01*
X07448Y02949*
X07462Y02935*
Y02909*
Y02929*
X07435*
X07475Y02942D02*
X07482Y02949D01*
X07495*
X07502Y02942*
Y02935*
X07495Y02929*
X07488*
X07495*
X07502Y02922*
Y02915*
X07495Y02909*
X07482*
X07475Y02915*
X07435Y02788D02*
Y02814D01*
X07448Y02828*
X07462Y02814*
Y02788*
Y02808*
X07435*
X07502Y02788D02*
X07475D01*
X07502Y02814*
Y02821*
X07495Y02828*
X07482*
X07475Y02821*
X07435Y02667D02*
Y02694D01*
X07448Y02707*
X07462Y02694*
Y02667*
Y02687*
X07435*
X07475Y02667D02*
X07488D01*
X07482*
Y02707*
X07475Y027*
X07435Y02546D02*
Y02573D01*
X07448Y02586*
X07462Y02573*
Y02546*
Y02566*
X07435*
X07475Y02579D02*
X07482Y02586D01*
X07495*
X07502Y02579*
Y02553*
X07495Y02546*
X07482*
X07475Y02553*
Y02579*
X01931Y04355D02*
Y04394D01*
X01951*
X01958Y04388*
Y04375*
X01951Y04368*
X01931*
X01945D02*
X01958Y04355D01*
X01998D02*
X01971D01*
X01998Y04381*
Y04388*
X01991Y04394*
X01978*
X01971Y04388*
X01748Y02395D02*
Y02434D01*
X01768*
X01775Y02428*
Y02415*
X01768Y02408*
X01748*
X01761D02*
X01775Y02395D01*
X01788D02*
X01801D01*
X01794*
Y02434*
X01788Y02428*
X03228Y02035D02*
Y02074D01*
X03248*
X03254Y02068*
Y02055*
X03248Y02048*
X03228*
X03241D02*
X03254Y02035D01*
X03268Y02074D02*
X03294D01*
Y02068*
X03268Y02041*
Y02035*
X02081Y01475D02*
Y01514D01*
X02101*
X02108Y01508*
Y01495*
X02101Y01488*
X02081*
X02095D02*
X02108Y01475D01*
X02121Y01508D02*
X02128Y01514D01*
X02141*
X02148Y01508*
Y01501*
X02141Y01495*
X02148Y01488*
Y01481*
X02141Y01475*
X02128*
X02121Y01481*
Y01488*
X02128Y01495*
X02121Y01501*
Y01508*
X02128Y01495D02*
X02141D01*
X02473Y01855D02*
Y01894D01*
X02493*
X02499Y01888*
Y01875*
X02493Y01868*
X02473*
X02486D02*
X02499Y01855D01*
X02533D02*
Y01894D01*
X02513Y01875*
X02539*
X02626Y01215D02*
Y01254D01*
X02646*
X02653Y01248*
Y01235*
X02646Y01228*
X02626*
X0264D02*
X02653Y01215D01*
X02693Y01254D02*
X02679Y01248D01*
X02666Y01235*
Y01221*
X02673Y01215*
X02686*
X02693Y01221*
Y01228*
X02686Y01235*
X02666*
X0182Y0135D02*
Y01389D01*
X0184*
X01846Y01383*
Y0137*
X0184Y01363*
X0182*
X01833D02*
X01846Y0135D01*
X0186D02*
X01873D01*
X01866*
Y01389*
X0186Y01383*
X01893D02*
X01899Y01389D01*
X01913*
X01919Y01383*
Y01356*
X01913Y0135*
X01899*
X01893Y01356*
Y01383*
X02626Y01415D02*
Y01454D01*
X02646*
X02653Y01448*
Y01435*
X02646Y01428*
X02626*
X0264D02*
X02653Y01415D01*
X02693Y01454D02*
X02666D01*
Y01435*
X02679Y01441*
X02686*
X02693Y01435*
Y01421*
X02686Y01415*
X02673*
X02666Y01421*
X01906Y01168D02*
X019Y01161D01*
Y01148*
X01906Y01141*
X01933*
X01939Y01148*
Y01161*
X01933Y01168*
X019Y01181D02*
X01939D01*
Y01208*
X019Y01221D02*
X01939D01*
X01926*
X019Y01248*
X0192Y01228*
X01939Y01248*
X05987Y02758D02*
X05981Y02765D01*
X05967*
X05961Y02758*
Y02732*
X05967Y02725*
X05981*
X05987Y02732*
X06001Y02758D02*
X06007Y02765D01*
X06021*
X06027Y02758*
Y02752*
X06021Y02745*
X06014*
X06021*
X06027Y02738*
Y02732*
X06021Y02725*
X06007*
X06001Y02732*
X02513Y02758D02*
X02506Y02764D01*
X02493*
X02486Y02758*
Y02731*
X02493Y02725*
X02506*
X02513Y02731*
X02553Y02725D02*
X02526D01*
X02553Y02751*
Y02758*
X02546Y02764*
X02533*
X02526Y02758*
X01775Y02583D02*
X01768Y02589D01*
X01755*
X01748Y02583*
Y02556*
X01755Y0255*
X01768*
X01775Y02556*
X01788Y0255D02*
X01801D01*
X01794*
Y02589*
X01788Y02583*
X06592Y03638D02*
X06586Y03645D01*
X06572*
X06566Y03638*
Y03612*
X06572Y03605*
X06586*
X06592Y03612*
X06626Y03605D02*
Y03645D01*
X06606Y03625*
X06632*
X03264Y01773D02*
X03258Y01779D01*
X03244*
X03238Y01773*
Y01746*
X03244Y0174*
X03258*
X03264Y01746*
X03278D02*
X03284Y0174D01*
X03298*
X03304Y01746*
Y01773*
X03298Y01779*
X03284*
X03278Y01773*
Y01766*
X03284Y0176*
X03304*
X02499Y01663D02*
X02493Y01669D01*
X02479*
X02473Y01663*
Y01636*
X02479Y0163*
X02493*
X02499Y01636*
X02539Y01669D02*
X02513D01*
Y0165*
X02526Y01656*
X02533*
X02539Y0165*
Y01636*
X02533Y0163*
X02519*
X02513Y01636*
X02486Y02018D02*
X0248Y02024D01*
X02466*
X0246Y02018*
Y01991*
X02466Y01985*
X0248*
X02486Y01991*
X025Y01985D02*
X02513D01*
X02506*
Y02024*
X025Y02018*
X02533D02*
X02539Y02024D01*
X02553*
X02559Y02018*
Y01991*
X02553Y01985*
X02539*
X02533Y01991*
Y02018*
X03264Y01353D02*
X03258Y01359D01*
X03244*
X03238Y01353*
Y01326*
X03244Y0132*
X03258*
X03264Y01326*
X03304Y01359D02*
X03291Y01353D01*
X03278Y0134*
Y01326*
X03284Y0132*
X03298*
X03304Y01326*
Y01333*
X03298Y0134*
X03278*
X02499Y01783D02*
X02493Y01789D01*
X02479*
X02473Y01783*
Y01756*
X02479Y0175*
X02493*
X02499Y01756*
X02513Y01789D02*
X02539D01*
Y01783*
X02513Y01756*
Y0175*
X05305Y01778D02*
X05299Y01784D01*
X05285*
X05279Y01778*
Y01751*
X05285Y01745*
X05299*
X05305Y01751*
X05319Y01745D02*
X05332D01*
X05325*
Y01784*
X05319Y01778*
X05352Y01745D02*
X05365D01*
X05359*
Y01784*
X05352Y01778*
X02678Y01813D02*
X02671Y01819D01*
X02658*
X02651Y01813*
Y01786*
X02658Y0178*
X02671*
X02678Y01786*
X02691Y01813D02*
X02698Y01819D01*
X02711*
X02718Y01813*
Y01806*
X02711Y018*
X02718Y01793*
Y01786*
X02711Y0178*
X02698*
X02691Y01786*
Y01793*
X02698Y018*
X02691Y01806*
Y01813*
X02698Y018D02*
X02711D01*
G54D18*
X07224Y04188D02*
X07184D01*
X07204Y04168*
Y04194*
X07191Y04208D02*
X07184Y04214D01*
Y04228*
X07191Y04234*
X07217*
X07224Y04228*
Y04214*
X07217Y04208*
X07191*
X07297Y04168D02*
X0729Y04174D01*
Y04188*
X07297Y04194*
X07304*
X0731Y04188*
Y04181*
Y04188*
X07317Y04194*
X07324*
X0733Y04188*
Y04174*
X07324Y04168*
Y04208D02*
X0733Y04214D01*
Y04228*
X07324Y04234*
X07297*
X0729Y04228*
Y04214*
X07297Y04208*
X07304*
X0731Y04214*
Y04234*
X0733Y02116D02*
Y02129D01*
Y02122*
X0729*
X07297Y02116*
X07224Y0213D02*
Y02104D01*
X07197Y0213*
X07191*
X07184Y02124*
Y02111*
X07191Y02104*
X02404Y04204D02*
X02411Y04191D01*
X02424Y04178*
X02437*
X02444Y04184*
Y04198*
X02437Y04204*
X02431*
X02424Y04198*
Y04178*
X0251Y04204D02*
Y04178D01*
X0253*
X02524Y04191*
Y04198*
X0253Y04204*
X02544*
X0255Y04198*
Y04184*
X02544Y04178*
X02444Y0384D02*
Y03814D01*
X02417Y0384*
X02411*
X02404Y03834*
Y03821*
X02411Y03814*
X0255Y03826D02*
Y03839D01*
Y03832*
X0251*
X02517Y03826*
X02127Y04204D02*
X02133Y04191D01*
X02147Y04178*
X0216*
X02167Y04184*
Y04198*
X0216Y04204*
X02153*
X02147Y04198*
Y04178*
X02233Y04204D02*
Y04178D01*
X02253*
X02246Y04191*
Y04198*
X02253Y04204*
X02266*
X02273Y04198*
Y04184*
X02266Y04178*
X02167Y0384D02*
Y03814D01*
X0214Y0384*
X02133*
X02127Y03834*
Y03821*
X02133Y03814*
X02273Y03826D02*
Y03839D01*
Y03832*
X02233*
X0224Y03826*
X01849Y04204D02*
X01856Y04191D01*
X01869Y04178*
X01882*
X01889Y04184*
Y04198*
X01882Y04204*
X01876*
X01869Y04198*
Y04178*
X01955Y04204D02*
Y04178D01*
X01975*
X01969Y04191*
Y04198*
X01975Y04204*
X01989*
X01995Y04198*
Y04184*
X01989Y04178*
X01889Y0384D02*
Y03814D01*
X01862Y0384*
X01856*
X01849Y03834*
Y03821*
X01856Y03814*
X01995Y03826D02*
Y03839D01*
Y03832*
X01955*
X01962Y03826*
G54D19*
X06814Y04405D02*
D01*
X06814Y04405*
X06814Y04405*
X06814Y04405*
X06814Y04405*
X06814Y04405*
X06814Y04405*
X06814Y04405*
X06814Y04406*
X06814Y04406*
X06814Y04406*
X06814Y04406*
X06814Y04406*
X06814Y04406*
X06814Y04406*
X06813Y04406*
X06813Y04406*
X06813Y04406*
X06813Y04406*
X06813Y04406*
X06813Y04406*
X06813Y04406*
X06813Y04406*
X06813*
X06813Y04406*
X06813Y04406*
X06813Y04406*
X06812Y04406*
X06812Y04406*
X06812Y04406*
X06812Y04406*
X06812Y04406*
X06812Y04406*
X06812Y04406*
X06812Y04406*
X06812Y04406*
X06812Y04406*
X06812Y04406*
X06812Y04405*
X06812Y04405*
X06812Y04405*
X06812Y04405*
X06812Y04405*
X06812Y04405*
X06812Y04405*
X06812Y04405*
X06812Y04405*
X06812Y04405*
X06812Y04405*
X06812Y04405*
X06812Y04405*
X06812Y04404*
X06812Y04404*
X06812Y04404*
X06812Y04404*
X06812Y04404*
X06812Y04404*
X06812Y04404*
X06812Y04404*
X06812Y04404*
X06812Y04404*
X06812Y04404*
X06812Y04404*
X06812Y04404*
X06813Y04404*
X06813Y04404*
X06813Y04404*
X06813Y04404*
X06813*
X06813Y04404*
X06813Y04404*
X06813Y04404*
X06813Y04404*
X06813Y04404*
X06813Y04404*
X06813Y04404*
X06814Y04404*
X06814Y04404*
X06814Y04404*
X06814Y04404*
X06814Y04404*
X06814Y04404*
X06814Y04404*
X06814Y04404*
X06814Y04404*
X06814Y04405*
X06814Y04405*
X06814Y04405*
X06814Y04405*
X06814Y04405*
X06814Y04405*
X0815Y03507D02*
D01*
X0815Y03507*
X0815Y03507*
X0815Y03507*
X0815Y03507*
X08149Y03507*
X08149Y03507*
X08149Y03507*
X08149Y03507*
X08149Y03507*
X08149Y03507*
X08149Y03508*
X08149Y03508*
X08149Y03508*
X08149Y03508*
X08149Y03508*
X08149Y03508*
X08149Y03508*
X08149Y03508*
X08149Y03508*
X08149Y03508*
X08149Y03508*
X08148Y03508*
X08148*
X08148Y03508*
X08148Y03508*
X08148Y03508*
X08148Y03508*
X08148Y03508*
X08148Y03508*
X08148Y03508*
X08148Y03508*
X08148Y03508*
X08148Y03508*
X08148Y03508*
X08147Y03507*
X08147Y03507*
X08147Y03507*
X08147Y03507*
X08147Y03507*
X08147Y03507*
X08147Y03507*
X08147Y03507*
X08147Y03507*
X08147Y03507*
X08147Y03507*
X08147Y03507*
X08147Y03507*
X08147Y03506*
X08147Y03506*
X08147Y03506*
X08147Y03506*
X08147Y03506*
X08147Y03506*
X08147Y03506*
X08147Y03506*
X08148Y03506*
X08148Y03506*
X08148Y03506*
X08148Y03506*
X08148Y03506*
X08148Y03506*
X08148Y03506*
X08148Y03506*
X08148Y03506*
X08148Y03506*
X08148Y03506*
X08148Y03506*
X08148*
X08149Y03506*
X08149Y03506*
X08149Y03506*
X08149Y03506*
X08149Y03506*
X08149Y03506*
X08149Y03506*
X08149Y03506*
X08149Y03506*
X08149Y03506*
X08149Y03506*
X08149Y03506*
X08149Y03506*
X08149Y03506*
X08149Y03506*
X08149Y03506*
X08149Y03506*
X0815Y03506*
X0815Y03506*
X0815Y03507*
X0815Y03507*
X0815Y03507*
X05169Y04404D02*
D01*
X05169Y04404*
X05169Y04404*
X05169Y04404*
X05169Y04404*
X05169Y04404*
X05169Y04404*
X05169Y04404*
X05169Y04405*
X05169Y04405*
X05169Y04405*
X05169Y04405*
X05169Y04405*
X05169Y04405*
X05169Y04405*
X05168Y04405*
X05168Y04405*
X05168Y04405*
X05168Y04405*
X05168Y04405*
X05168Y04405*
X05168Y04405*
X05168Y04405*
X05168*
X05168Y04405*
X05168Y04405*
X05168Y04405*
X05167Y04405*
X05167Y04405*
X05167Y04405*
X05167Y04405*
X05167Y04405*
X05167Y04405*
X05167Y04405*
X05167Y04405*
X05167Y04405*
X05167Y04405*
X05167Y04405*
X05167Y04404*
X05167Y04404*
X05167Y04404*
X05167Y04404*
X05167Y04404*
X05167Y04404*
X05167Y04404*
X05167Y04404*
X05167Y04404*
X05167Y04404*
X05167Y04404*
X05167Y04404*
X05167Y04404*
X05167Y04403*
X05167Y04403*
X05167Y04403*
X05167Y04403*
X05167Y04403*
X05167Y04403*
X05167Y04403*
X05167Y04403*
X05167Y04403*
X05167Y04403*
X05167Y04403*
X05167Y04403*
X05167Y04403*
X05168Y04403*
X05168Y04403*
X05168Y04403*
X05168Y04403*
X05168*
X05168Y04403*
X05168Y04403*
X05168Y04403*
X05168Y04403*
X05168Y04403*
X05168Y04403*
X05168Y04403*
X05169Y04403*
X05169Y04403*
X05169Y04403*
X05169Y04403*
X05169Y04403*
X05169Y04403*
X05169Y04403*
X05169Y04403*
X05169Y04403*
X05169Y04404*
X05169Y04404*
X05169Y04404*
X05169Y04404*
X05169Y04404*
X05169Y04404*
X01856Y02834D02*
D01*
X01856Y02834*
X01856Y02834*
X01856Y02834*
X01856Y02834*
X01856Y02834*
X01856Y02835*
X01856Y02835*
X01856Y02835*
X01855Y02835*
X01855Y02835*
X01855Y02835*
X01855Y02835*
X01855Y02835*
X01855Y02835*
X01855Y02835*
X01855Y02835*
X01855Y02835*
X01855Y02835*
X01855Y02835*
X01855Y02835*
X01855Y02835*
X01855Y02835*
X01854*
X01854Y02835*
X01854Y02835*
X01854Y02835*
X01854Y02835*
X01854Y02835*
X01854Y02835*
X01854Y02835*
X01854Y02835*
X01854Y02835*
X01854Y02835*
X01854Y02835*
X01854Y02835*
X01854Y02835*
X01853Y02835*
X01853Y02835*
X01853Y02835*
X01853Y02834*
X01853Y02834*
X01853Y02834*
X01853Y02834*
X01853Y02834*
X01853Y02834*
X01853Y02834*
X01853Y02834*
X01853Y02834*
X01853Y02834*
X01853Y02834*
X01853Y02834*
X01853Y02834*
X01853Y02833*
X01854Y02833*
X01854Y02833*
X01854Y02833*
X01854Y02833*
X01854Y02833*
X01854Y02833*
X01854Y02833*
X01854Y02833*
X01854Y02833*
X01854Y02833*
X01854Y02833*
X01854Y02833*
X01854Y02833*
X01854Y02833*
X01855*
X01855Y02833*
X01855Y02833*
X01855Y02833*
X01855Y02833*
X01855Y02833*
X01855Y02833*
X01855Y02833*
X01855Y02833*
X01855Y02833*
X01855Y02833*
X01855Y02833*
X01855Y02833*
X01855Y02833*
X01856Y02833*
X01856Y02834*
X01856Y02834*
X01856Y02834*
X01856Y02834*
X01856Y02834*
X01856Y02834*
X01856Y02834*
X01856Y02834*
X04171Y02844D02*
D01*
X04171Y02844*
X04171Y02844*
X04171Y02844*
X04171Y02844*
X04171Y02844*
X04171Y02845*
X04171Y02845*
X04171Y02845*
X0417Y02845*
X0417Y02845*
X0417Y02845*
X0417Y02845*
X0417Y02845*
X0417Y02845*
X0417Y02845*
X0417Y02845*
X0417Y02845*
X0417Y02845*
X0417Y02845*
X0417Y02845*
X0417Y02845*
X0417Y02845*
X04169*
X04169Y02845*
X04169Y02845*
X04169Y02845*
X04169Y02845*
X04169Y02845*
X04169Y02845*
X04169Y02845*
X04169Y02845*
X04169Y02845*
X04169Y02845*
X04169Y02845*
X04169Y02845*
X04169Y02845*
X04168Y02845*
X04168Y02845*
X04168Y02845*
X04168Y02844*
X04168Y02844*
X04168Y02844*
X04168Y02844*
X04168Y02844*
X04168Y02844*
X04168Y02844*
X04168Y02844*
X04168Y02844*
X04168Y02844*
X04168Y02844*
X04168Y02844*
X04168Y02844*
X04168Y02843*
X04169Y02843*
X04169Y02843*
X04169Y02843*
X04169Y02843*
X04169Y02843*
X04169Y02843*
X04169Y02843*
X04169Y02843*
X04169Y02843*
X04169Y02843*
X04169Y02843*
X04169Y02843*
X04169Y02843*
X04169Y02843*
X0417*
X0417Y02843*
X0417Y02843*
X0417Y02843*
X0417Y02843*
X0417Y02843*
X0417Y02843*
X0417Y02843*
X0417Y02843*
X0417Y02843*
X0417Y02843*
X0417Y02843*
X0417Y02843*
X0417Y02843*
X04171Y02843*
X04171Y02844*
X04171Y02844*
X04171Y02844*
X04171Y02844*
X04171Y02844*
X04171Y02844*
X04171Y02844*
X04171Y02844*
X03426Y01495D02*
D01*
X03426Y01495*
X03426Y01495*
X03426Y01495*
X03426Y01495*
X03426Y01495*
X03426Y01496*
X03426Y01496*
X03426Y01496*
X03425Y01496*
X03425Y01496*
X03425Y01496*
X03425Y01496*
X03425Y01496*
X03425Y01496*
X03425Y01496*
X03425Y01496*
X03425Y01496*
X03425Y01496*
X03425Y01496*
X03425Y01496*
X03425Y01496*
X03425Y01496*
X03424*
X03424Y01496*
X03424Y01496*
X03424Y01496*
X03424Y01496*
X03424Y01496*
X03424Y01496*
X03424Y01496*
X03424Y01496*
X03424Y01496*
X03424Y01496*
X03424Y01496*
X03424Y01496*
X03424Y01496*
X03423Y01496*
X03423Y01496*
X03423Y01496*
X03423Y01495*
X03423Y01495*
X03423Y01495*
X03423Y01495*
X03423Y01495*
X03423Y01495*
X03423Y01495*
X03423Y01495*
X03423Y01495*
X03423Y01495*
X03423Y01495*
X03423Y01495*
X03423Y01494*
X03423Y01494*
X03424Y01494*
X03424Y01494*
X03424Y01494*
X03424Y01494*
X03424Y01494*
X03424Y01494*
X03424Y01494*
X03424Y01494*
X03424Y01494*
X03424Y01494*
X03424Y01494*
X03424Y01494*
X03424Y01494*
X03424Y01494*
X03425*
X03425Y01494*
X03425Y01494*
X03425Y01494*
X03425Y01494*
X03425Y01494*
X03425Y01494*
X03425Y01494*
X03425Y01494*
X03425Y01494*
X03425Y01494*
X03425Y01494*
X03425Y01494*
X03425Y01494*
X03426Y01494*
X03426Y01494*
X03426Y01495*
X03426Y01495*
X03426Y01495*
X03426Y01495*
X03426Y01495*
X03426Y01495*
X03426Y01495*
G54D20*
X0433Y01832D02*
D01*
X0433Y01832*
X0433Y01833*
X0433Y01833*
X04329Y01833*
X04329Y01833*
X04329Y01833*
X04329Y01833*
X04329Y01833*
X04329Y01834*
X04329Y01834*
X04329Y01834*
X04329Y01834*
X04329Y01834*
X04329Y01834*
X04328Y01834*
X04328Y01834*
X04328Y01834*
X04328Y01834*
X04328Y01834*
X04328Y01835*
X04327Y01835*
X04327Y01835*
X04327*
X04327Y01835*
X04327Y01835*
X04327Y01834*
X04326Y01834*
X04326Y01834*
X04326Y01834*
X04326Y01834*
X04326Y01834*
X04326Y01834*
X04326Y01834*
X04326Y01834*
X04325Y01834*
X04325Y01834*
X04325Y01833*
X04325Y01833*
X04325Y01833*
X04325Y01833*
X04325Y01833*
X04325Y01833*
X04325Y01833*
X04325Y01832*
X04325Y01832*
X04325Y01832*
X04325Y01832*
X04325Y01832*
X04325Y01832*
X04325Y01831*
X04325Y01831*
X04325Y01831*
X04325Y01831*
X04325Y01831*
X04325Y01831*
X04326Y01831*
X04326Y0183*
X04326Y0183*
X04326Y0183*
X04326Y0183*
X04326Y0183*
X04326Y0183*
X04326Y0183*
X04327Y0183*
X04327Y0183*
X04327Y0183*
X04327Y0183*
X04327*
X04327Y0183*
X04328Y0183*
X04328Y0183*
X04328Y0183*
X04328Y0183*
X04328Y0183*
X04328Y0183*
X04329Y0183*
X04329Y0183*
X04329Y0183*
X04329Y01831*
X04329Y01831*
X04329Y01831*
X04329Y01831*
X04329Y01831*
X04329Y01831*
X04329Y01831*
X04329Y01832*
X0433Y01832*
X0433Y01832*
X0433Y01832*
X0433Y01832*
G54D21*
X0867Y0107D02*
Y04555D01*
X0171D02*
X0867D01*
X0171Y0107D02*
Y04555D01*
Y0107D02*
X0867D01*
M02*