%FSTAX23Y23*%
%MOIN*%
%SFA1B1*%

%IPPOS*%
%ADD15C,0.015750*%
%ADD19C,0.002360*%
%ADD20C,0.004720*%
%ADD21C,0.002700*%
%ADD94C,0.019680*%
%ADD95C,0.017720*%
%ADD96C,0.055120*%
%ADD97C,0.021650*%
%ADD98C,0.013780*%
%LN6502_carrier-1*%
%LPD*%
G36*
X08615Y02445D02*
X08529D01*
Y02484*
X08615*
Y02445*
G37*
G36*
X0845D02*
X08379D01*
Y02484*
X0845*
Y02445*
G37*
G36*
X08415Y02421D02*
Y02409D01*
X08369*
Y02421*
Y02432*
X08415*
Y02421*
G37*
G36*
Y02389D02*
Y02377D01*
X08369*
Y02389*
Y02401*
X08415*
Y02389*
G37*
G36*
Y02358D02*
X08369D01*
Y0237*
X08415*
Y02358*
G37*
G36*
Y02338D02*
X08369D01*
Y0235*
X08415*
Y02338*
G37*
G36*
Y02318D02*
X08369D01*
Y0233*
X08415*
Y02318*
G37*
G36*
Y02299D02*
X08369D01*
Y0231*
X08415*
Y02299*
G37*
G36*
Y02279D02*
X08369D01*
Y02291*
X08415*
Y02279*
G37*
G36*
Y02259D02*
X08369D01*
Y02271*
X08415*
Y02259*
G37*
G36*
Y0224D02*
X08369D01*
Y02251*
X08415*
Y0224*
G37*
G36*
Y0222D02*
X08369D01*
Y02232*
X08415*
Y0222*
G37*
G36*
Y022D02*
Y02188D01*
X08369*
Y022*
Y02212*
X08415*
Y022*
G37*
G36*
Y02169D02*
Y02157D01*
X08369*
Y02169*
Y02181*
X08415*
Y02169*
G37*
G36*
X08615Y02104D02*
X08529D01*
Y02144*
X08615*
Y02104*
G37*
G36*
X0845D02*
X08379D01*
Y02144*
X0845*
Y02104*
G37*
G36*
X04494Y01762D02*
X04464D01*
Y01807*
X04494*
Y01762*
G37*
G36*
X04354D02*
X04325D01*
Y01807*
X04354*
Y01762*
G37*
G54D15*
X01917Y0347D02*
D01*
X01917Y0347*
X01917Y03471*
X01917Y03471*
X01917Y03472*
X01917Y03472*
X01917Y03473*
X01916Y03473*
X01916Y03474*
X01916Y03474*
X01916Y03475*
X01915Y03475*
X01915Y03475*
X01914Y03476*
X01914Y03476*
X01913Y03476*
X01913Y03477*
X01912Y03477*
X01912Y03477*
X01911Y03477*
X01911Y03477*
X0191Y03477*
X0191Y03477*
X01909*
X01909Y03477*
X01908Y03477*
X01908Y03477*
X01907Y03477*
X01907Y03477*
X01906Y03477*
X01906Y03476*
X01905Y03476*
X01905Y03476*
X01904Y03475*
X01904Y03475*
X01903Y03475*
X01903Y03474*
X01903Y03474*
X01903Y03473*
X01902Y03473*
X01902Y03472*
X01902Y03472*
X01902Y03471*
X01902Y03471*
X01902Y0347*
X01902Y0347*
X01902Y03469*
X01902Y03468*
X01902Y03468*
X01902Y03467*
X01902Y03467*
X01902Y03466*
X01903Y03466*
X01903Y03465*
X01903Y03465*
X01903Y03464*
X01904Y03464*
X01904Y03464*
X01905Y03463*
X01905Y03463*
X01906Y03463*
X01906Y03462*
X01907Y03462*
X01907Y03462*
X01908Y03462*
X01908Y03462*
X01909Y03462*
X01909Y03462*
X0191*
X0191Y03462*
X01911Y03462*
X01911Y03462*
X01912Y03462*
X01912Y03462*
X01913Y03462*
X01913Y03463*
X01914Y03463*
X01914Y03463*
X01915Y03464*
X01915Y03464*
X01916Y03464*
X01916Y03465*
X01916Y03465*
X01916Y03466*
X01917Y03466*
X01917Y03467*
X01917Y03467*
X01917Y03468*
X01917Y03468*
X01917Y03469*
X01917Y0347*
X02017D02*
D01*
X02017Y0347*
X02017Y03471*
X02017Y03471*
X02017Y03472*
X02017Y03472*
X02017Y03473*
X02016Y03473*
X02016Y03474*
X02016Y03474*
X02016Y03475*
X02015Y03475*
X02015Y03475*
X02014Y03476*
X02014Y03476*
X02013Y03476*
X02013Y03477*
X02012Y03477*
X02012Y03477*
X02011Y03477*
X02011Y03477*
X0201Y03477*
X0201Y03477*
X02009*
X02009Y03477*
X02008Y03477*
X02008Y03477*
X02007Y03477*
X02007Y03477*
X02006Y03477*
X02006Y03476*
X02005Y03476*
X02005Y03476*
X02004Y03475*
X02004Y03475*
X02003Y03475*
X02003Y03474*
X02003Y03474*
X02003Y03473*
X02002Y03473*
X02002Y03472*
X02002Y03472*
X02002Y03471*
X02002Y03471*
X02002Y0347*
X02002Y0347*
X02002Y03469*
X02002Y03468*
X02002Y03468*
X02002Y03467*
X02002Y03467*
X02002Y03466*
X02003Y03466*
X02003Y03465*
X02003Y03465*
X02003Y03464*
X02004Y03464*
X02004Y03464*
X02005Y03463*
X02005Y03463*
X02006Y03463*
X02006Y03462*
X02007Y03462*
X02007Y03462*
X02008Y03462*
X02008Y03462*
X02009Y03462*
X02009Y03462*
X0201*
X0201Y03462*
X02011Y03462*
X02011Y03462*
X02012Y03462*
X02012Y03462*
X02013Y03462*
X02013Y03463*
X02014Y03463*
X02014Y03463*
X02015Y03464*
X02015Y03464*
X02016Y03464*
X02016Y03465*
X02016Y03465*
X02016Y03466*
X02017Y03466*
X02017Y03467*
X02017Y03467*
X02017Y03468*
X02017Y03468*
X02017Y03469*
X02017Y0347*
X02117D02*
D01*
X02117Y0347*
X02117Y03471*
X02117Y03471*
X02117Y03472*
X02117Y03472*
X02117Y03473*
X02116Y03473*
X02116Y03474*
X02116Y03474*
X02116Y03475*
X02115Y03475*
X02115Y03475*
X02114Y03476*
X02114Y03476*
X02113Y03476*
X02113Y03477*
X02112Y03477*
X02112Y03477*
X02111Y03477*
X02111Y03477*
X0211Y03477*
X0211Y03477*
X02109*
X02109Y03477*
X02108Y03477*
X02108Y03477*
X02107Y03477*
X02107Y03477*
X02106Y03477*
X02106Y03476*
X02105Y03476*
X02105Y03476*
X02104Y03475*
X02104Y03475*
X02103Y03475*
X02103Y03474*
X02103Y03474*
X02103Y03473*
X02102Y03473*
X02102Y03472*
X02102Y03472*
X02102Y03471*
X02102Y03471*
X02102Y0347*
X02102Y0347*
X02102Y03469*
X02102Y03468*
X02102Y03468*
X02102Y03467*
X02102Y03467*
X02102Y03466*
X02103Y03466*
X02103Y03465*
X02103Y03465*
X02103Y03464*
X02104Y03464*
X02104Y03464*
X02105Y03463*
X02105Y03463*
X02106Y03463*
X02106Y03462*
X02107Y03462*
X02107Y03462*
X02108Y03462*
X02108Y03462*
X02109Y03462*
X02109Y03462*
X0211*
X0211Y03462*
X02111Y03462*
X02111Y03462*
X02112Y03462*
X02112Y03462*
X02113Y03462*
X02113Y03463*
X02114Y03463*
X02114Y03463*
X02115Y03464*
X02115Y03464*
X02116Y03464*
X02116Y03465*
X02116Y03465*
X02116Y03466*
X02117Y03466*
X02117Y03467*
X02117Y03467*
X02117Y03468*
X02117Y03468*
X02117Y03469*
X02117Y0347*
X02217D02*
D01*
X02217Y0347*
X02217Y03471*
X02217Y03471*
X02217Y03472*
X02217Y03472*
X02217Y03473*
X02216Y03473*
X02216Y03474*
X02216Y03474*
X02216Y03475*
X02215Y03475*
X02215Y03475*
X02214Y03476*
X02214Y03476*
X02213Y03476*
X02213Y03477*
X02212Y03477*
X02212Y03477*
X02211Y03477*
X02211Y03477*
X0221Y03477*
X0221Y03477*
X02209*
X02209Y03477*
X02208Y03477*
X02208Y03477*
X02207Y03477*
X02207Y03477*
X02206Y03477*
X02206Y03476*
X02205Y03476*
X02205Y03476*
X02204Y03475*
X02204Y03475*
X02203Y03475*
X02203Y03474*
X02203Y03474*
X02203Y03473*
X02202Y03473*
X02202Y03472*
X02202Y03472*
X02202Y03471*
X02202Y03471*
X02202Y0347*
X02202Y0347*
X02202Y03469*
X02202Y03468*
X02202Y03468*
X02202Y03467*
X02202Y03467*
X02202Y03466*
X02203Y03466*
X02203Y03465*
X02203Y03465*
X02203Y03464*
X02204Y03464*
X02204Y03464*
X02205Y03463*
X02205Y03463*
X02206Y03463*
X02206Y03462*
X02207Y03462*
X02207Y03462*
X02208Y03462*
X02208Y03462*
X02209Y03462*
X02209Y03462*
X0221*
X0221Y03462*
X02211Y03462*
X02211Y03462*
X02212Y03462*
X02212Y03462*
X02213Y03462*
X02213Y03463*
X02214Y03463*
X02214Y03463*
X02215Y03464*
X02215Y03464*
X02216Y03464*
X02216Y03465*
X02216Y03465*
X02216Y03466*
X02217Y03466*
X02217Y03467*
X02217Y03467*
X02217Y03468*
X02217Y03468*
X02217Y03469*
X02217Y0347*
X02317D02*
D01*
X02317Y0347*
X02317Y03471*
X02317Y03471*
X02317Y03472*
X02317Y03472*
X02317Y03473*
X02316Y03473*
X02316Y03474*
X02316Y03474*
X02316Y03475*
X02315Y03475*
X02315Y03475*
X02314Y03476*
X02314Y03476*
X02313Y03476*
X02313Y03477*
X02312Y03477*
X02312Y03477*
X02311Y03477*
X02311Y03477*
X0231Y03477*
X0231Y03477*
X02309*
X02309Y03477*
X02308Y03477*
X02308Y03477*
X02307Y03477*
X02307Y03477*
X02306Y03477*
X02306Y03476*
X02305Y03476*
X02305Y03476*
X02304Y03475*
X02304Y03475*
X02303Y03475*
X02303Y03474*
X02303Y03474*
X02303Y03473*
X02302Y03473*
X02302Y03472*
X02302Y03472*
X02302Y03471*
X02302Y03471*
X02302Y0347*
X02302Y0347*
X02302Y03469*
X02302Y03468*
X02302Y03468*
X02302Y03467*
X02302Y03467*
X02302Y03466*
X02303Y03466*
X02303Y03465*
X02303Y03465*
X02303Y03464*
X02304Y03464*
X02304Y03464*
X02305Y03463*
X02305Y03463*
X02306Y03463*
X02306Y03462*
X02307Y03462*
X02307Y03462*
X02308Y03462*
X02308Y03462*
X02309Y03462*
X02309Y03462*
X0231*
X0231Y03462*
X02311Y03462*
X02311Y03462*
X02312Y03462*
X02312Y03462*
X02313Y03462*
X02313Y03463*
X02314Y03463*
X02314Y03463*
X02315Y03464*
X02315Y03464*
X02316Y03464*
X02316Y03465*
X02316Y03465*
X02316Y03466*
X02317Y03466*
X02317Y03467*
X02317Y03467*
X02317Y03468*
X02317Y03468*
X02317Y03469*
X02317Y0347*
X02417D02*
D01*
X02417Y0347*
X02417Y03471*
X02417Y03471*
X02417Y03472*
X02417Y03472*
X02417Y03473*
X02416Y03473*
X02416Y03474*
X02416Y03474*
X02416Y03475*
X02415Y03475*
X02415Y03475*
X02414Y03476*
X02414Y03476*
X02413Y03476*
X02413Y03477*
X02412Y03477*
X02412Y03477*
X02411Y03477*
X02411Y03477*
X0241Y03477*
X0241Y03477*
X02409*
X02409Y03477*
X02408Y03477*
X02408Y03477*
X02407Y03477*
X02407Y03477*
X02406Y03477*
X02406Y03476*
X02405Y03476*
X02405Y03476*
X02404Y03475*
X02404Y03475*
X02403Y03475*
X02403Y03474*
X02403Y03474*
X02403Y03473*
X02402Y03473*
X02402Y03472*
X02402Y03472*
X02402Y03471*
X02402Y03471*
X02402Y0347*
X02402Y0347*
X02402Y03469*
X02402Y03468*
X02402Y03468*
X02402Y03467*
X02402Y03467*
X02402Y03466*
X02403Y03466*
X02403Y03465*
X02403Y03465*
X02403Y03464*
X02404Y03464*
X02404Y03464*
X02405Y03463*
X02405Y03463*
X02406Y03463*
X02406Y03462*
X02407Y03462*
X02407Y03462*
X02408Y03462*
X02408Y03462*
X02409Y03462*
X02409Y03462*
X0241*
X0241Y03462*
X02411Y03462*
X02411Y03462*
X02412Y03462*
X02412Y03462*
X02413Y03462*
X02413Y03463*
X02414Y03463*
X02414Y03463*
X02415Y03464*
X02415Y03464*
X02416Y03464*
X02416Y03465*
X02416Y03465*
X02416Y03466*
X02417Y03466*
X02417Y03467*
X02417Y03467*
X02417Y03468*
X02417Y03468*
X02417Y03469*
X02417Y0347*
X02517D02*
D01*
X02517Y0347*
X02517Y03471*
X02517Y03471*
X02517Y03472*
X02517Y03472*
X02517Y03473*
X02516Y03473*
X02516Y03474*
X02516Y03474*
X02516Y03475*
X02515Y03475*
X02515Y03475*
X02514Y03476*
X02514Y03476*
X02513Y03476*
X02513Y03477*
X02512Y03477*
X02512Y03477*
X02511Y03477*
X02511Y03477*
X0251Y03477*
X0251Y03477*
X02509*
X02509Y03477*
X02508Y03477*
X02508Y03477*
X02507Y03477*
X02507Y03477*
X02506Y03477*
X02506Y03476*
X02505Y03476*
X02505Y03476*
X02504Y03475*
X02504Y03475*
X02503Y03475*
X02503Y03474*
X02503Y03474*
X02503Y03473*
X02502Y03473*
X02502Y03472*
X02502Y03472*
X02502Y03471*
X02502Y03471*
X02502Y0347*
X02502Y0347*
X02502Y03469*
X02502Y03468*
X02502Y03468*
X02502Y03467*
X02502Y03467*
X02502Y03466*
X02503Y03466*
X02503Y03465*
X02503Y03465*
X02503Y03464*
X02504Y03464*
X02504Y03464*
X02505Y03463*
X02505Y03463*
X02506Y03463*
X02506Y03462*
X02507Y03462*
X02507Y03462*
X02508Y03462*
X02508Y03462*
X02509Y03462*
X02509Y03462*
X0251*
X0251Y03462*
X02511Y03462*
X02511Y03462*
X02512Y03462*
X02512Y03462*
X02513Y03462*
X02513Y03463*
X02514Y03463*
X02514Y03463*
X02515Y03464*
X02515Y03464*
X02516Y03464*
X02516Y03465*
X02516Y03465*
X02516Y03466*
X02517Y03466*
X02517Y03467*
X02517Y03467*
X02517Y03468*
X02517Y03468*
X02517Y03469*
X02517Y0347*
X02617D02*
D01*
X02617Y0347*
X02617Y03471*
X02617Y03471*
X02617Y03472*
X02617Y03472*
X02617Y03473*
X02616Y03473*
X02616Y03474*
X02616Y03474*
X02616Y03475*
X02615Y03475*
X02615Y03475*
X02614Y03476*
X02614Y03476*
X02613Y03476*
X02613Y03477*
X02612Y03477*
X02612Y03477*
X02611Y03477*
X02611Y03477*
X0261Y03477*
X0261Y03477*
X02609*
X02609Y03477*
X02608Y03477*
X02608Y03477*
X02607Y03477*
X02607Y03477*
X02606Y03477*
X02606Y03476*
X02605Y03476*
X02605Y03476*
X02604Y03475*
X02604Y03475*
X02603Y03475*
X02603Y03474*
X02603Y03474*
X02603Y03473*
X02602Y03473*
X02602Y03472*
X02602Y03472*
X02602Y03471*
X02602Y03471*
X02602Y0347*
X02602Y0347*
X02602Y03469*
X02602Y03468*
X02602Y03468*
X02602Y03467*
X02602Y03467*
X02602Y03466*
X02603Y03466*
X02603Y03465*
X02603Y03465*
X02603Y03464*
X02604Y03464*
X02604Y03464*
X02605Y03463*
X02605Y03463*
X02606Y03463*
X02606Y03462*
X02607Y03462*
X02607Y03462*
X02608Y03462*
X02608Y03462*
X02609Y03462*
X02609Y03462*
X0261*
X0261Y03462*
X02611Y03462*
X02611Y03462*
X02612Y03462*
X02612Y03462*
X02613Y03462*
X02613Y03463*
X02614Y03463*
X02614Y03463*
X02615Y03464*
X02615Y03464*
X02616Y03464*
X02616Y03465*
X02616Y03465*
X02616Y03466*
X02617Y03466*
X02617Y03467*
X02617Y03467*
X02617Y03468*
X02617Y03468*
X02617Y03469*
X02617Y0347*
X02717D02*
D01*
X02717Y0347*
X02717Y03471*
X02717Y03471*
X02717Y03472*
X02717Y03472*
X02717Y03473*
X02716Y03473*
X02716Y03474*
X02716Y03474*
X02716Y03475*
X02715Y03475*
X02715Y03475*
X02714Y03476*
X02714Y03476*
X02713Y03476*
X02713Y03477*
X02712Y03477*
X02712Y03477*
X02711Y03477*
X02711Y03477*
X0271Y03477*
X0271Y03477*
X02709*
X02709Y03477*
X02708Y03477*
X02708Y03477*
X02707Y03477*
X02707Y03477*
X02706Y03477*
X02706Y03476*
X02705Y03476*
X02705Y03476*
X02704Y03475*
X02704Y03475*
X02703Y03475*
X02703Y03474*
X02703Y03474*
X02703Y03473*
X02702Y03473*
X02702Y03472*
X02702Y03472*
X02702Y03471*
X02702Y03471*
X02702Y0347*
X02702Y0347*
X02702Y03469*
X02702Y03468*
X02702Y03468*
X02702Y03467*
X02702Y03467*
X02702Y03466*
X02703Y03466*
X02703Y03465*
X02703Y03465*
X02703Y03464*
X02704Y03464*
X02704Y03464*
X02705Y03463*
X02705Y03463*
X02706Y03463*
X02706Y03462*
X02707Y03462*
X02707Y03462*
X02708Y03462*
X02708Y03462*
X02709Y03462*
X02709Y03462*
X0271*
X0271Y03462*
X02711Y03462*
X02711Y03462*
X02712Y03462*
X02712Y03462*
X02713Y03462*
X02713Y03463*
X02714Y03463*
X02714Y03463*
X02715Y03464*
X02715Y03464*
X02716Y03464*
X02716Y03465*
X02716Y03465*
X02716Y03466*
X02717Y03466*
X02717Y03467*
X02717Y03467*
X02717Y03468*
X02717Y03468*
X02717Y03469*
X02717Y0347*
X02817D02*
D01*
X02817Y0347*
X02817Y03471*
X02817Y03471*
X02817Y03472*
X02817Y03472*
X02817Y03473*
X02816Y03473*
X02816Y03474*
X02816Y03474*
X02816Y03475*
X02815Y03475*
X02815Y03475*
X02814Y03476*
X02814Y03476*
X02813Y03476*
X02813Y03477*
X02812Y03477*
X02812Y03477*
X02811Y03477*
X02811Y03477*
X0281Y03477*
X0281Y03477*
X02809*
X02809Y03477*
X02808Y03477*
X02808Y03477*
X02807Y03477*
X02807Y03477*
X02806Y03477*
X02806Y03476*
X02805Y03476*
X02805Y03476*
X02804Y03475*
X02804Y03475*
X02803Y03475*
X02803Y03474*
X02803Y03474*
X02803Y03473*
X02802Y03473*
X02802Y03472*
X02802Y03472*
X02802Y03471*
X02802Y03471*
X02802Y0347*
X02802Y0347*
X02802Y03469*
X02802Y03468*
X02802Y03468*
X02802Y03467*
X02802Y03467*
X02802Y03466*
X02803Y03466*
X02803Y03465*
X02803Y03465*
X02803Y03464*
X02804Y03464*
X02804Y03464*
X02805Y03463*
X02805Y03463*
X02806Y03463*
X02806Y03462*
X02807Y03462*
X02807Y03462*
X02808Y03462*
X02808Y03462*
X02809Y03462*
X02809Y03462*
X0281*
X0281Y03462*
X02811Y03462*
X02811Y03462*
X02812Y03462*
X02812Y03462*
X02813Y03462*
X02813Y03463*
X02814Y03463*
X02814Y03463*
X02815Y03464*
X02815Y03464*
X02816Y03464*
X02816Y03465*
X02816Y03465*
X02816Y03466*
X02817Y03466*
X02817Y03467*
X02817Y03467*
X02817Y03468*
X02817Y03468*
X02817Y03469*
X02817Y0347*
X02917D02*
D01*
X02917Y0347*
X02917Y03471*
X02917Y03471*
X02917Y03472*
X02917Y03472*
X02917Y03473*
X02916Y03473*
X02916Y03474*
X02916Y03474*
X02916Y03475*
X02915Y03475*
X02915Y03475*
X02914Y03476*
X02914Y03476*
X02913Y03476*
X02913Y03477*
X02912Y03477*
X02912Y03477*
X02911Y03477*
X02911Y03477*
X0291Y03477*
X0291Y03477*
X02909*
X02909Y03477*
X02908Y03477*
X02908Y03477*
X02907Y03477*
X02907Y03477*
X02906Y03477*
X02906Y03476*
X02905Y03476*
X02905Y03476*
X02904Y03475*
X02904Y03475*
X02903Y03475*
X02903Y03474*
X02903Y03474*
X02903Y03473*
X02902Y03473*
X02902Y03472*
X02902Y03472*
X02902Y03471*
X02902Y03471*
X02902Y0347*
X02902Y0347*
X02902Y03469*
X02902Y03468*
X02902Y03468*
X02902Y03467*
X02902Y03467*
X02902Y03466*
X02903Y03466*
X02903Y03465*
X02903Y03465*
X02903Y03464*
X02904Y03464*
X02904Y03464*
X02905Y03463*
X02905Y03463*
X02906Y03463*
X02906Y03462*
X02907Y03462*
X02907Y03462*
X02908Y03462*
X02908Y03462*
X02909Y03462*
X02909Y03462*
X0291*
X0291Y03462*
X02911Y03462*
X02911Y03462*
X02912Y03462*
X02912Y03462*
X02913Y03462*
X02913Y03463*
X02914Y03463*
X02914Y03463*
X02915Y03464*
X02915Y03464*
X02916Y03464*
X02916Y03465*
X02916Y03465*
X02916Y03466*
X02917Y03466*
X02917Y03467*
X02917Y03467*
X02917Y03468*
X02917Y03468*
X02917Y03469*
X02917Y0347*
X03017D02*
D01*
X03017Y0347*
X03017Y03471*
X03017Y03471*
X03017Y03472*
X03017Y03472*
X03017Y03473*
X03016Y03473*
X03016Y03474*
X03016Y03474*
X03016Y03475*
X03015Y03475*
X03015Y03475*
X03014Y03476*
X03014Y03476*
X03013Y03476*
X03013Y03477*
X03012Y03477*
X03012Y03477*
X03011Y03477*
X03011Y03477*
X0301Y03477*
X0301Y03477*
X03009*
X03009Y03477*
X03008Y03477*
X03008Y03477*
X03007Y03477*
X03007Y03477*
X03006Y03477*
X03006Y03476*
X03005Y03476*
X03005Y03476*
X03004Y03475*
X03004Y03475*
X03003Y03475*
X03003Y03474*
X03003Y03474*
X03003Y03473*
X03002Y03473*
X03002Y03472*
X03002Y03472*
X03002Y03471*
X03002Y03471*
X03002Y0347*
X03002Y0347*
X03002Y03469*
X03002Y03468*
X03002Y03468*
X03002Y03467*
X03002Y03467*
X03002Y03466*
X03003Y03466*
X03003Y03465*
X03003Y03465*
X03003Y03464*
X03004Y03464*
X03004Y03464*
X03005Y03463*
X03005Y03463*
X03006Y03463*
X03006Y03462*
X03007Y03462*
X03007Y03462*
X03008Y03462*
X03008Y03462*
X03009Y03462*
X03009Y03462*
X0301*
X0301Y03462*
X03011Y03462*
X03011Y03462*
X03012Y03462*
X03012Y03462*
X03013Y03462*
X03013Y03463*
X03014Y03463*
X03014Y03463*
X03015Y03464*
X03015Y03464*
X03016Y03464*
X03016Y03465*
X03016Y03465*
X03016Y03466*
X03017Y03466*
X03017Y03467*
X03017Y03467*
X03017Y03468*
X03017Y03468*
X03017Y03469*
X03017Y0347*
X03117D02*
D01*
X03117Y0347*
X03117Y03471*
X03117Y03471*
X03117Y03472*
X03117Y03472*
X03117Y03473*
X03116Y03473*
X03116Y03474*
X03116Y03474*
X03116Y03475*
X03115Y03475*
X03115Y03475*
X03114Y03476*
X03114Y03476*
X03113Y03476*
X03113Y03477*
X03112Y03477*
X03112Y03477*
X03111Y03477*
X03111Y03477*
X0311Y03477*
X0311Y03477*
X03109*
X03109Y03477*
X03108Y03477*
X03108Y03477*
X03107Y03477*
X03107Y03477*
X03106Y03477*
X03106Y03476*
X03105Y03476*
X03105Y03476*
X03104Y03475*
X03104Y03475*
X03103Y03475*
X03103Y03474*
X03103Y03474*
X03103Y03473*
X03102Y03473*
X03102Y03472*
X03102Y03472*
X03102Y03471*
X03102Y03471*
X03102Y0347*
X03102Y0347*
X03102Y03469*
X03102Y03468*
X03102Y03468*
X03102Y03467*
X03102Y03467*
X03102Y03466*
X03103Y03466*
X03103Y03465*
X03103Y03465*
X03103Y03464*
X03104Y03464*
X03104Y03464*
X03105Y03463*
X03105Y03463*
X03106Y03463*
X03106Y03462*
X03107Y03462*
X03107Y03462*
X03108Y03462*
X03108Y03462*
X03109Y03462*
X03109Y03462*
X0311*
X0311Y03462*
X03111Y03462*
X03111Y03462*
X03112Y03462*
X03112Y03462*
X03113Y03462*
X03113Y03463*
X03114Y03463*
X03114Y03463*
X03115Y03464*
X03115Y03464*
X03116Y03464*
X03116Y03465*
X03116Y03465*
X03116Y03466*
X03117Y03466*
X03117Y03467*
X03117Y03467*
X03117Y03468*
X03117Y03468*
X03117Y03469*
X03117Y0347*
X03217D02*
D01*
X03217Y0347*
X03217Y03471*
X03217Y03471*
X03217Y03472*
X03217Y03472*
X03217Y03473*
X03216Y03473*
X03216Y03474*
X03216Y03474*
X03216Y03475*
X03215Y03475*
X03215Y03475*
X03214Y03476*
X03214Y03476*
X03213Y03476*
X03213Y03477*
X03212Y03477*
X03212Y03477*
X03211Y03477*
X03211Y03477*
X0321Y03477*
X0321Y03477*
X03209*
X03209Y03477*
X03208Y03477*
X03208Y03477*
X03207Y03477*
X03207Y03477*
X03206Y03477*
X03206Y03476*
X03205Y03476*
X03205Y03476*
X03204Y03475*
X03204Y03475*
X03203Y03475*
X03203Y03474*
X03203Y03474*
X03203Y03473*
X03202Y03473*
X03202Y03472*
X03202Y03472*
X03202Y03471*
X03202Y03471*
X03202Y0347*
X03202Y0347*
X03202Y03469*
X03202Y03468*
X03202Y03468*
X03202Y03467*
X03202Y03467*
X03202Y03466*
X03203Y03466*
X03203Y03465*
X03203Y03465*
X03203Y03464*
X03204Y03464*
X03204Y03464*
X03205Y03463*
X03205Y03463*
X03206Y03463*
X03206Y03462*
X03207Y03462*
X03207Y03462*
X03208Y03462*
X03208Y03462*
X03209Y03462*
X03209Y03462*
X0321*
X0321Y03462*
X03211Y03462*
X03211Y03462*
X03212Y03462*
X03212Y03462*
X03213Y03462*
X03213Y03463*
X03214Y03463*
X03214Y03463*
X03215Y03464*
X03215Y03464*
X03216Y03464*
X03216Y03465*
X03216Y03465*
X03216Y03466*
X03217Y03466*
X03217Y03467*
X03217Y03467*
X03217Y03468*
X03217Y03468*
X03217Y03469*
X03217Y0347*
X03317D02*
D01*
X03317Y0347*
X03317Y03471*
X03317Y03471*
X03317Y03472*
X03317Y03472*
X03317Y03473*
X03316Y03473*
X03316Y03474*
X03316Y03474*
X03316Y03475*
X03315Y03475*
X03315Y03475*
X03314Y03476*
X03314Y03476*
X03313Y03476*
X03313Y03477*
X03312Y03477*
X03312Y03477*
X03311Y03477*
X03311Y03477*
X0331Y03477*
X0331Y03477*
X03309*
X03309Y03477*
X03308Y03477*
X03308Y03477*
X03307Y03477*
X03307Y03477*
X03306Y03477*
X03306Y03476*
X03305Y03476*
X03305Y03476*
X03304Y03475*
X03304Y03475*
X03303Y03475*
X03303Y03474*
X03303Y03474*
X03303Y03473*
X03302Y03473*
X03302Y03472*
X03302Y03472*
X03302Y03471*
X03302Y03471*
X03302Y0347*
X03302Y0347*
X03302Y03469*
X03302Y03468*
X03302Y03468*
X03302Y03467*
X03302Y03467*
X03302Y03466*
X03303Y03466*
X03303Y03465*
X03303Y03465*
X03303Y03464*
X03304Y03464*
X03304Y03464*
X03305Y03463*
X03305Y03463*
X03306Y03463*
X03306Y03462*
X03307Y03462*
X03307Y03462*
X03308Y03462*
X03308Y03462*
X03309Y03462*
X03309Y03462*
X0331*
X0331Y03462*
X03311Y03462*
X03311Y03462*
X03312Y03462*
X03312Y03462*
X03313Y03462*
X03313Y03463*
X03314Y03463*
X03314Y03463*
X03315Y03464*
X03315Y03464*
X03316Y03464*
X03316Y03465*
X03316Y03465*
X03316Y03466*
X03317Y03466*
X03317Y03467*
X03317Y03467*
X03317Y03468*
X03317Y03468*
X03317Y03469*
X03317Y0347*
X03417D02*
D01*
X03417Y0347*
X03417Y03471*
X03417Y03471*
X03417Y03472*
X03417Y03472*
X03417Y03473*
X03416Y03473*
X03416Y03474*
X03416Y03474*
X03416Y03475*
X03415Y03475*
X03415Y03475*
X03414Y03476*
X03414Y03476*
X03413Y03476*
X03413Y03477*
X03412Y03477*
X03412Y03477*
X03411Y03477*
X03411Y03477*
X0341Y03477*
X0341Y03477*
X03409*
X03409Y03477*
X03408Y03477*
X03408Y03477*
X03407Y03477*
X03407Y03477*
X03406Y03477*
X03406Y03476*
X03405Y03476*
X03405Y03476*
X03404Y03475*
X03404Y03475*
X03403Y03475*
X03403Y03474*
X03403Y03474*
X03403Y03473*
X03402Y03473*
X03402Y03472*
X03402Y03472*
X03402Y03471*
X03402Y03471*
X03402Y0347*
X03402Y0347*
X03402Y03469*
X03402Y03468*
X03402Y03468*
X03402Y03467*
X03402Y03467*
X03402Y03466*
X03403Y03466*
X03403Y03465*
X03403Y03465*
X03403Y03464*
X03404Y03464*
X03404Y03464*
X03405Y03463*
X03405Y03463*
X03406Y03463*
X03406Y03462*
X03407Y03462*
X03407Y03462*
X03408Y03462*
X03408Y03462*
X03409Y03462*
X03409Y03462*
X0341*
X0341Y03462*
X03411Y03462*
X03411Y03462*
X03412Y03462*
X03412Y03462*
X03413Y03462*
X03413Y03463*
X03414Y03463*
X03414Y03463*
X03415Y03464*
X03415Y03464*
X03416Y03464*
X03416Y03465*
X03416Y03465*
X03416Y03466*
X03417Y03466*
X03417Y03467*
X03417Y03467*
X03417Y03468*
X03417Y03468*
X03417Y03469*
X03417Y0347*
X03517D02*
D01*
X03517Y0347*
X03517Y03471*
X03517Y03471*
X03517Y03472*
X03517Y03472*
X03517Y03473*
X03516Y03473*
X03516Y03474*
X03516Y03474*
X03516Y03475*
X03515Y03475*
X03515Y03475*
X03514Y03476*
X03514Y03476*
X03513Y03476*
X03513Y03477*
X03512Y03477*
X03512Y03477*
X03511Y03477*
X03511Y03477*
X0351Y03477*
X0351Y03477*
X03509*
X03509Y03477*
X03508Y03477*
X03508Y03477*
X03507Y03477*
X03507Y03477*
X03506Y03477*
X03506Y03476*
X03505Y03476*
X03505Y03476*
X03504Y03475*
X03504Y03475*
X03503Y03475*
X03503Y03474*
X03503Y03474*
X03503Y03473*
X03502Y03473*
X03502Y03472*
X03502Y03472*
X03502Y03471*
X03502Y03471*
X03502Y0347*
X03502Y0347*
X03502Y03469*
X03502Y03468*
X03502Y03468*
X03502Y03467*
X03502Y03467*
X03502Y03466*
X03503Y03466*
X03503Y03465*
X03503Y03465*
X03503Y03464*
X03504Y03464*
X03504Y03464*
X03505Y03463*
X03505Y03463*
X03506Y03463*
X03506Y03462*
X03507Y03462*
X03507Y03462*
X03508Y03462*
X03508Y03462*
X03509Y03462*
X03509Y03462*
X0351*
X0351Y03462*
X03511Y03462*
X03511Y03462*
X03512Y03462*
X03512Y03462*
X03513Y03462*
X03513Y03463*
X03514Y03463*
X03514Y03463*
X03515Y03464*
X03515Y03464*
X03516Y03464*
X03516Y03465*
X03516Y03465*
X03516Y03466*
X03517Y03466*
X03517Y03467*
X03517Y03467*
X03517Y03468*
X03517Y03468*
X03517Y03469*
X03517Y0347*
X03617D02*
D01*
X03617Y0347*
X03617Y03471*
X03617Y03471*
X03617Y03472*
X03617Y03472*
X03617Y03473*
X03616Y03473*
X03616Y03474*
X03616Y03474*
X03616Y03475*
X03615Y03475*
X03615Y03475*
X03614Y03476*
X03614Y03476*
X03613Y03476*
X03613Y03477*
X03612Y03477*
X03612Y03477*
X03611Y03477*
X03611Y03477*
X0361Y03477*
X0361Y03477*
X03609*
X03609Y03477*
X03608Y03477*
X03608Y03477*
X03607Y03477*
X03607Y03477*
X03606Y03477*
X03606Y03476*
X03605Y03476*
X03605Y03476*
X03604Y03475*
X03604Y03475*
X03603Y03475*
X03603Y03474*
X03603Y03474*
X03603Y03473*
X03602Y03473*
X03602Y03472*
X03602Y03472*
X03602Y03471*
X03602Y03471*
X03602Y0347*
X03602Y0347*
X03602Y03469*
X03602Y03468*
X03602Y03468*
X03602Y03467*
X03602Y03467*
X03602Y03466*
X03603Y03466*
X03603Y03465*
X03603Y03465*
X03603Y03464*
X03604Y03464*
X03604Y03464*
X03605Y03463*
X03605Y03463*
X03606Y03463*
X03606Y03462*
X03607Y03462*
X03607Y03462*
X03608Y03462*
X03608Y03462*
X03609Y03462*
X03609Y03462*
X0361*
X0361Y03462*
X03611Y03462*
X03611Y03462*
X03612Y03462*
X03612Y03462*
X03613Y03462*
X03613Y03463*
X03614Y03463*
X03614Y03463*
X03615Y03464*
X03615Y03464*
X03616Y03464*
X03616Y03465*
X03616Y03465*
X03616Y03466*
X03617Y03466*
X03617Y03467*
X03617Y03467*
X03617Y03468*
X03617Y03468*
X03617Y03469*
X03617Y0347*
X03717D02*
D01*
X03717Y0347*
X03717Y03471*
X03717Y03471*
X03717Y03472*
X03717Y03472*
X03717Y03473*
X03716Y03473*
X03716Y03474*
X03716Y03474*
X03716Y03475*
X03715Y03475*
X03715Y03475*
X03714Y03476*
X03714Y03476*
X03713Y03476*
X03713Y03477*
X03712Y03477*
X03712Y03477*
X03711Y03477*
X03711Y03477*
X0371Y03477*
X0371Y03477*
X03709*
X03709Y03477*
X03708Y03477*
X03708Y03477*
X03707Y03477*
X03707Y03477*
X03706Y03477*
X03706Y03476*
X03705Y03476*
X03705Y03476*
X03704Y03475*
X03704Y03475*
X03703Y03475*
X03703Y03474*
X03703Y03474*
X03703Y03473*
X03702Y03473*
X03702Y03472*
X03702Y03472*
X03702Y03471*
X03702Y03471*
X03702Y0347*
X03702Y0347*
X03702Y03469*
X03702Y03468*
X03702Y03468*
X03702Y03467*
X03702Y03467*
X03702Y03466*
X03703Y03466*
X03703Y03465*
X03703Y03465*
X03703Y03464*
X03704Y03464*
X03704Y03464*
X03705Y03463*
X03705Y03463*
X03706Y03463*
X03706Y03462*
X03707Y03462*
X03707Y03462*
X03708Y03462*
X03708Y03462*
X03709Y03462*
X03709Y03462*
X0371*
X0371Y03462*
X03711Y03462*
X03711Y03462*
X03712Y03462*
X03712Y03462*
X03713Y03462*
X03713Y03463*
X03714Y03463*
X03714Y03463*
X03715Y03464*
X03715Y03464*
X03716Y03464*
X03716Y03465*
X03716Y03465*
X03716Y03466*
X03717Y03466*
X03717Y03467*
X03717Y03467*
X03717Y03468*
X03717Y03468*
X03717Y03469*
X03717Y0347*
X03817D02*
D01*
X03817Y0347*
X03817Y03471*
X03817Y03471*
X03817Y03472*
X03817Y03472*
X03817Y03473*
X03816Y03473*
X03816Y03474*
X03816Y03474*
X03816Y03475*
X03815Y03475*
X03815Y03475*
X03814Y03476*
X03814Y03476*
X03813Y03476*
X03813Y03477*
X03812Y03477*
X03812Y03477*
X03811Y03477*
X03811Y03477*
X0381Y03477*
X0381Y03477*
X03809*
X03809Y03477*
X03808Y03477*
X03808Y03477*
X03807Y03477*
X03807Y03477*
X03806Y03477*
X03806Y03476*
X03805Y03476*
X03805Y03476*
X03804Y03475*
X03804Y03475*
X03803Y03475*
X03803Y03474*
X03803Y03474*
X03803Y03473*
X03802Y03473*
X03802Y03472*
X03802Y03472*
X03802Y03471*
X03802Y03471*
X03802Y0347*
X03802Y0347*
X03802Y03469*
X03802Y03468*
X03802Y03468*
X03802Y03467*
X03802Y03467*
X03802Y03466*
X03803Y03466*
X03803Y03465*
X03803Y03465*
X03803Y03464*
X03804Y03464*
X03804Y03464*
X03805Y03463*
X03805Y03463*
X03806Y03463*
X03806Y03462*
X03807Y03462*
X03807Y03462*
X03808Y03462*
X03808Y03462*
X03809Y03462*
X03809Y03462*
X0381*
X0381Y03462*
X03811Y03462*
X03811Y03462*
X03812Y03462*
X03812Y03462*
X03813Y03462*
X03813Y03463*
X03814Y03463*
X03814Y03463*
X03815Y03464*
X03815Y03464*
X03816Y03464*
X03816Y03465*
X03816Y03465*
X03816Y03466*
X03817Y03466*
X03817Y03467*
X03817Y03467*
X03817Y03468*
X03817Y03468*
X03817Y03469*
X03817Y0347*
Y0287D02*
D01*
X03817Y0287*
X03817Y02871*
X03817Y02871*
X03817Y02872*
X03817Y02872*
X03817Y02873*
X03816Y02873*
X03816Y02874*
X03816Y02874*
X03816Y02875*
X03815Y02875*
X03815Y02875*
X03814Y02876*
X03814Y02876*
X03813Y02876*
X03813Y02877*
X03812Y02877*
X03812Y02877*
X03811Y02877*
X03811Y02877*
X0381Y02877*
X0381Y02877*
X03809*
X03809Y02877*
X03808Y02877*
X03808Y02877*
X03807Y02877*
X03807Y02877*
X03806Y02877*
X03806Y02876*
X03805Y02876*
X03805Y02876*
X03804Y02875*
X03804Y02875*
X03803Y02875*
X03803Y02874*
X03803Y02874*
X03803Y02873*
X03802Y02873*
X03802Y02872*
X03802Y02872*
X03802Y02871*
X03802Y02871*
X03802Y0287*
X03802Y0287*
X03802Y02869*
X03802Y02868*
X03802Y02868*
X03802Y02867*
X03802Y02867*
X03802Y02866*
X03803Y02866*
X03803Y02865*
X03803Y02865*
X03803Y02864*
X03804Y02864*
X03804Y02864*
X03805Y02863*
X03805Y02863*
X03806Y02863*
X03806Y02862*
X03807Y02862*
X03807Y02862*
X03808Y02862*
X03808Y02862*
X03809Y02862*
X03809Y02862*
X0381*
X0381Y02862*
X03811Y02862*
X03811Y02862*
X03812Y02862*
X03812Y02862*
X03813Y02862*
X03813Y02863*
X03814Y02863*
X03814Y02863*
X03815Y02864*
X03815Y02864*
X03816Y02864*
X03816Y02865*
X03816Y02865*
X03816Y02866*
X03817Y02866*
X03817Y02867*
X03817Y02867*
X03817Y02868*
X03817Y02868*
X03817Y02869*
X03817Y0287*
X03717D02*
D01*
X03717Y0287*
X03717Y02871*
X03717Y02871*
X03717Y02872*
X03717Y02872*
X03717Y02873*
X03716Y02873*
X03716Y02874*
X03716Y02874*
X03716Y02875*
X03715Y02875*
X03715Y02875*
X03714Y02876*
X03714Y02876*
X03713Y02876*
X03713Y02877*
X03712Y02877*
X03712Y02877*
X03711Y02877*
X03711Y02877*
X0371Y02877*
X0371Y02877*
X03709*
X03709Y02877*
X03708Y02877*
X03708Y02877*
X03707Y02877*
X03707Y02877*
X03706Y02877*
X03706Y02876*
X03705Y02876*
X03705Y02876*
X03704Y02875*
X03704Y02875*
X03703Y02875*
X03703Y02874*
X03703Y02874*
X03703Y02873*
X03702Y02873*
X03702Y02872*
X03702Y02872*
X03702Y02871*
X03702Y02871*
X03702Y0287*
X03702Y0287*
X03702Y02869*
X03702Y02868*
X03702Y02868*
X03702Y02867*
X03702Y02867*
X03702Y02866*
X03703Y02866*
X03703Y02865*
X03703Y02865*
X03703Y02864*
X03704Y02864*
X03704Y02864*
X03705Y02863*
X03705Y02863*
X03706Y02863*
X03706Y02862*
X03707Y02862*
X03707Y02862*
X03708Y02862*
X03708Y02862*
X03709Y02862*
X03709Y02862*
X0371*
X0371Y02862*
X03711Y02862*
X03711Y02862*
X03712Y02862*
X03712Y02862*
X03713Y02862*
X03713Y02863*
X03714Y02863*
X03714Y02863*
X03715Y02864*
X03715Y02864*
X03716Y02864*
X03716Y02865*
X03716Y02865*
X03716Y02866*
X03717Y02866*
X03717Y02867*
X03717Y02867*
X03717Y02868*
X03717Y02868*
X03717Y02869*
X03717Y0287*
X03617D02*
D01*
X03617Y0287*
X03617Y02871*
X03617Y02871*
X03617Y02872*
X03617Y02872*
X03617Y02873*
X03616Y02873*
X03616Y02874*
X03616Y02874*
X03616Y02875*
X03615Y02875*
X03615Y02875*
X03614Y02876*
X03614Y02876*
X03613Y02876*
X03613Y02877*
X03612Y02877*
X03612Y02877*
X03611Y02877*
X03611Y02877*
X0361Y02877*
X0361Y02877*
X03609*
X03609Y02877*
X03608Y02877*
X03608Y02877*
X03607Y02877*
X03607Y02877*
X03606Y02877*
X03606Y02876*
X03605Y02876*
X03605Y02876*
X03604Y02875*
X03604Y02875*
X03603Y02875*
X03603Y02874*
X03603Y02874*
X03603Y02873*
X03602Y02873*
X03602Y02872*
X03602Y02872*
X03602Y02871*
X03602Y02871*
X03602Y0287*
X03602Y0287*
X03602Y02869*
X03602Y02868*
X03602Y02868*
X03602Y02867*
X03602Y02867*
X03602Y02866*
X03603Y02866*
X03603Y02865*
X03603Y02865*
X03603Y02864*
X03604Y02864*
X03604Y02864*
X03605Y02863*
X03605Y02863*
X03606Y02863*
X03606Y02862*
X03607Y02862*
X03607Y02862*
X03608Y02862*
X03608Y02862*
X03609Y02862*
X03609Y02862*
X0361*
X0361Y02862*
X03611Y02862*
X03611Y02862*
X03612Y02862*
X03612Y02862*
X03613Y02862*
X03613Y02863*
X03614Y02863*
X03614Y02863*
X03615Y02864*
X03615Y02864*
X03616Y02864*
X03616Y02865*
X03616Y02865*
X03616Y02866*
X03617Y02866*
X03617Y02867*
X03617Y02867*
X03617Y02868*
X03617Y02868*
X03617Y02869*
X03617Y0287*
X03517D02*
D01*
X03517Y0287*
X03517Y02871*
X03517Y02871*
X03517Y02872*
X03517Y02872*
X03517Y02873*
X03516Y02873*
X03516Y02874*
X03516Y02874*
X03516Y02875*
X03515Y02875*
X03515Y02875*
X03514Y02876*
X03514Y02876*
X03513Y02876*
X03513Y02877*
X03512Y02877*
X03512Y02877*
X03511Y02877*
X03511Y02877*
X0351Y02877*
X0351Y02877*
X03509*
X03509Y02877*
X03508Y02877*
X03508Y02877*
X03507Y02877*
X03507Y02877*
X03506Y02877*
X03506Y02876*
X03505Y02876*
X03505Y02876*
X03504Y02875*
X03504Y02875*
X03503Y02875*
X03503Y02874*
X03503Y02874*
X03503Y02873*
X03502Y02873*
X03502Y02872*
X03502Y02872*
X03502Y02871*
X03502Y02871*
X03502Y0287*
X03502Y0287*
X03502Y02869*
X03502Y02868*
X03502Y02868*
X03502Y02867*
X03502Y02867*
X03502Y02866*
X03503Y02866*
X03503Y02865*
X03503Y02865*
X03503Y02864*
X03504Y02864*
X03504Y02864*
X03505Y02863*
X03505Y02863*
X03506Y02863*
X03506Y02862*
X03507Y02862*
X03507Y02862*
X03508Y02862*
X03508Y02862*
X03509Y02862*
X03509Y02862*
X0351*
X0351Y02862*
X03511Y02862*
X03511Y02862*
X03512Y02862*
X03512Y02862*
X03513Y02862*
X03513Y02863*
X03514Y02863*
X03514Y02863*
X03515Y02864*
X03515Y02864*
X03516Y02864*
X03516Y02865*
X03516Y02865*
X03516Y02866*
X03517Y02866*
X03517Y02867*
X03517Y02867*
X03517Y02868*
X03517Y02868*
X03517Y02869*
X03517Y0287*
X03417D02*
D01*
X03417Y0287*
X03417Y02871*
X03417Y02871*
X03417Y02872*
X03417Y02872*
X03417Y02873*
X03416Y02873*
X03416Y02874*
X03416Y02874*
X03416Y02875*
X03415Y02875*
X03415Y02875*
X03414Y02876*
X03414Y02876*
X03413Y02876*
X03413Y02877*
X03412Y02877*
X03412Y02877*
X03411Y02877*
X03411Y02877*
X0341Y02877*
X0341Y02877*
X03409*
X03409Y02877*
X03408Y02877*
X03408Y02877*
X03407Y02877*
X03407Y02877*
X03406Y02877*
X03406Y02876*
X03405Y02876*
X03405Y02876*
X03404Y02875*
X03404Y02875*
X03403Y02875*
X03403Y02874*
X03403Y02874*
X03403Y02873*
X03402Y02873*
X03402Y02872*
X03402Y02872*
X03402Y02871*
X03402Y02871*
X03402Y0287*
X03402Y0287*
X03402Y02869*
X03402Y02868*
X03402Y02868*
X03402Y02867*
X03402Y02867*
X03402Y02866*
X03403Y02866*
X03403Y02865*
X03403Y02865*
X03403Y02864*
X03404Y02864*
X03404Y02864*
X03405Y02863*
X03405Y02863*
X03406Y02863*
X03406Y02862*
X03407Y02862*
X03407Y02862*
X03408Y02862*
X03408Y02862*
X03409Y02862*
X03409Y02862*
X0341*
X0341Y02862*
X03411Y02862*
X03411Y02862*
X03412Y02862*
X03412Y02862*
X03413Y02862*
X03413Y02863*
X03414Y02863*
X03414Y02863*
X03415Y02864*
X03415Y02864*
X03416Y02864*
X03416Y02865*
X03416Y02865*
X03416Y02866*
X03417Y02866*
X03417Y02867*
X03417Y02867*
X03417Y02868*
X03417Y02868*
X03417Y02869*
X03417Y0287*
X03317D02*
D01*
X03317Y0287*
X03317Y02871*
X03317Y02871*
X03317Y02872*
X03317Y02872*
X03317Y02873*
X03316Y02873*
X03316Y02874*
X03316Y02874*
X03316Y02875*
X03315Y02875*
X03315Y02875*
X03314Y02876*
X03314Y02876*
X03313Y02876*
X03313Y02877*
X03312Y02877*
X03312Y02877*
X03311Y02877*
X03311Y02877*
X0331Y02877*
X0331Y02877*
X03309*
X03309Y02877*
X03308Y02877*
X03308Y02877*
X03307Y02877*
X03307Y02877*
X03306Y02877*
X03306Y02876*
X03305Y02876*
X03305Y02876*
X03304Y02875*
X03304Y02875*
X03303Y02875*
X03303Y02874*
X03303Y02874*
X03303Y02873*
X03302Y02873*
X03302Y02872*
X03302Y02872*
X03302Y02871*
X03302Y02871*
X03302Y0287*
X03302Y0287*
X03302Y02869*
X03302Y02868*
X03302Y02868*
X03302Y02867*
X03302Y02867*
X03302Y02866*
X03303Y02866*
X03303Y02865*
X03303Y02865*
X03303Y02864*
X03304Y02864*
X03304Y02864*
X03305Y02863*
X03305Y02863*
X03306Y02863*
X03306Y02862*
X03307Y02862*
X03307Y02862*
X03308Y02862*
X03308Y02862*
X03309Y02862*
X03309Y02862*
X0331*
X0331Y02862*
X03311Y02862*
X03311Y02862*
X03312Y02862*
X03312Y02862*
X03313Y02862*
X03313Y02863*
X03314Y02863*
X03314Y02863*
X03315Y02864*
X03315Y02864*
X03316Y02864*
X03316Y02865*
X03316Y02865*
X03316Y02866*
X03317Y02866*
X03317Y02867*
X03317Y02867*
X03317Y02868*
X03317Y02868*
X03317Y02869*
X03317Y0287*
X03217D02*
D01*
X03217Y0287*
X03217Y02871*
X03217Y02871*
X03217Y02872*
X03217Y02872*
X03217Y02873*
X03216Y02873*
X03216Y02874*
X03216Y02874*
X03216Y02875*
X03215Y02875*
X03215Y02875*
X03214Y02876*
X03214Y02876*
X03213Y02876*
X03213Y02877*
X03212Y02877*
X03212Y02877*
X03211Y02877*
X03211Y02877*
X0321Y02877*
X0321Y02877*
X03209*
X03209Y02877*
X03208Y02877*
X03208Y02877*
X03207Y02877*
X03207Y02877*
X03206Y02877*
X03206Y02876*
X03205Y02876*
X03205Y02876*
X03204Y02875*
X03204Y02875*
X03203Y02875*
X03203Y02874*
X03203Y02874*
X03203Y02873*
X03202Y02873*
X03202Y02872*
X03202Y02872*
X03202Y02871*
X03202Y02871*
X03202Y0287*
X03202Y0287*
X03202Y02869*
X03202Y02868*
X03202Y02868*
X03202Y02867*
X03202Y02867*
X03202Y02866*
X03203Y02866*
X03203Y02865*
X03203Y02865*
X03203Y02864*
X03204Y02864*
X03204Y02864*
X03205Y02863*
X03205Y02863*
X03206Y02863*
X03206Y02862*
X03207Y02862*
X03207Y02862*
X03208Y02862*
X03208Y02862*
X03209Y02862*
X03209Y02862*
X0321*
X0321Y02862*
X03211Y02862*
X03211Y02862*
X03212Y02862*
X03212Y02862*
X03213Y02862*
X03213Y02863*
X03214Y02863*
X03214Y02863*
X03215Y02864*
X03215Y02864*
X03216Y02864*
X03216Y02865*
X03216Y02865*
X03216Y02866*
X03217Y02866*
X03217Y02867*
X03217Y02867*
X03217Y02868*
X03217Y02868*
X03217Y02869*
X03217Y0287*
X03117D02*
D01*
X03117Y0287*
X03117Y02871*
X03117Y02871*
X03117Y02872*
X03117Y02872*
X03117Y02873*
X03116Y02873*
X03116Y02874*
X03116Y02874*
X03116Y02875*
X03115Y02875*
X03115Y02875*
X03114Y02876*
X03114Y02876*
X03113Y02876*
X03113Y02877*
X03112Y02877*
X03112Y02877*
X03111Y02877*
X03111Y02877*
X0311Y02877*
X0311Y02877*
X03109*
X03109Y02877*
X03108Y02877*
X03108Y02877*
X03107Y02877*
X03107Y02877*
X03106Y02877*
X03106Y02876*
X03105Y02876*
X03105Y02876*
X03104Y02875*
X03104Y02875*
X03103Y02875*
X03103Y02874*
X03103Y02874*
X03103Y02873*
X03102Y02873*
X03102Y02872*
X03102Y02872*
X03102Y02871*
X03102Y02871*
X03102Y0287*
X03102Y0287*
X03102Y02869*
X03102Y02868*
X03102Y02868*
X03102Y02867*
X03102Y02867*
X03102Y02866*
X03103Y02866*
X03103Y02865*
X03103Y02865*
X03103Y02864*
X03104Y02864*
X03104Y02864*
X03105Y02863*
X03105Y02863*
X03106Y02863*
X03106Y02862*
X03107Y02862*
X03107Y02862*
X03108Y02862*
X03108Y02862*
X03109Y02862*
X03109Y02862*
X0311*
X0311Y02862*
X03111Y02862*
X03111Y02862*
X03112Y02862*
X03112Y02862*
X03113Y02862*
X03113Y02863*
X03114Y02863*
X03114Y02863*
X03115Y02864*
X03115Y02864*
X03116Y02864*
X03116Y02865*
X03116Y02865*
X03116Y02866*
X03117Y02866*
X03117Y02867*
X03117Y02867*
X03117Y02868*
X03117Y02868*
X03117Y02869*
X03117Y0287*
X03017D02*
D01*
X03017Y0287*
X03017Y02871*
X03017Y02871*
X03017Y02872*
X03017Y02872*
X03017Y02873*
X03016Y02873*
X03016Y02874*
X03016Y02874*
X03016Y02875*
X03015Y02875*
X03015Y02875*
X03014Y02876*
X03014Y02876*
X03013Y02876*
X03013Y02877*
X03012Y02877*
X03012Y02877*
X03011Y02877*
X03011Y02877*
X0301Y02877*
X0301Y02877*
X03009*
X03009Y02877*
X03008Y02877*
X03008Y02877*
X03007Y02877*
X03007Y02877*
X03006Y02877*
X03006Y02876*
X03005Y02876*
X03005Y02876*
X03004Y02875*
X03004Y02875*
X03003Y02875*
X03003Y02874*
X03003Y02874*
X03003Y02873*
X03002Y02873*
X03002Y02872*
X03002Y02872*
X03002Y02871*
X03002Y02871*
X03002Y0287*
X03002Y0287*
X03002Y02869*
X03002Y02868*
X03002Y02868*
X03002Y02867*
X03002Y02867*
X03002Y02866*
X03003Y02866*
X03003Y02865*
X03003Y02865*
X03003Y02864*
X03004Y02864*
X03004Y02864*
X03005Y02863*
X03005Y02863*
X03006Y02863*
X03006Y02862*
X03007Y02862*
X03007Y02862*
X03008Y02862*
X03008Y02862*
X03009Y02862*
X03009Y02862*
X0301*
X0301Y02862*
X03011Y02862*
X03011Y02862*
X03012Y02862*
X03012Y02862*
X03013Y02862*
X03013Y02863*
X03014Y02863*
X03014Y02863*
X03015Y02864*
X03015Y02864*
X03016Y02864*
X03016Y02865*
X03016Y02865*
X03016Y02866*
X03017Y02866*
X03017Y02867*
X03017Y02867*
X03017Y02868*
X03017Y02868*
X03017Y02869*
X03017Y0287*
X02917D02*
D01*
X02917Y0287*
X02917Y02871*
X02917Y02871*
X02917Y02872*
X02917Y02872*
X02917Y02873*
X02916Y02873*
X02916Y02874*
X02916Y02874*
X02916Y02875*
X02915Y02875*
X02915Y02875*
X02914Y02876*
X02914Y02876*
X02913Y02876*
X02913Y02877*
X02912Y02877*
X02912Y02877*
X02911Y02877*
X02911Y02877*
X0291Y02877*
X0291Y02877*
X02909*
X02909Y02877*
X02908Y02877*
X02908Y02877*
X02907Y02877*
X02907Y02877*
X02906Y02877*
X02906Y02876*
X02905Y02876*
X02905Y02876*
X02904Y02875*
X02904Y02875*
X02903Y02875*
X02903Y02874*
X02903Y02874*
X02903Y02873*
X02902Y02873*
X02902Y02872*
X02902Y02872*
X02902Y02871*
X02902Y02871*
X02902Y0287*
X02902Y0287*
X02902Y02869*
X02902Y02868*
X02902Y02868*
X02902Y02867*
X02902Y02867*
X02902Y02866*
X02903Y02866*
X02903Y02865*
X02903Y02865*
X02903Y02864*
X02904Y02864*
X02904Y02864*
X02905Y02863*
X02905Y02863*
X02906Y02863*
X02906Y02862*
X02907Y02862*
X02907Y02862*
X02908Y02862*
X02908Y02862*
X02909Y02862*
X02909Y02862*
X0291*
X0291Y02862*
X02911Y02862*
X02911Y02862*
X02912Y02862*
X02912Y02862*
X02913Y02862*
X02913Y02863*
X02914Y02863*
X02914Y02863*
X02915Y02864*
X02915Y02864*
X02916Y02864*
X02916Y02865*
X02916Y02865*
X02916Y02866*
X02917Y02866*
X02917Y02867*
X02917Y02867*
X02917Y02868*
X02917Y02868*
X02917Y02869*
X02917Y0287*
X02817D02*
D01*
X02817Y0287*
X02817Y02871*
X02817Y02871*
X02817Y02872*
X02817Y02872*
X02817Y02873*
X02816Y02873*
X02816Y02874*
X02816Y02874*
X02816Y02875*
X02815Y02875*
X02815Y02875*
X02814Y02876*
X02814Y02876*
X02813Y02876*
X02813Y02877*
X02812Y02877*
X02812Y02877*
X02811Y02877*
X02811Y02877*
X0281Y02877*
X0281Y02877*
X02809*
X02809Y02877*
X02808Y02877*
X02808Y02877*
X02807Y02877*
X02807Y02877*
X02806Y02877*
X02806Y02876*
X02805Y02876*
X02805Y02876*
X02804Y02875*
X02804Y02875*
X02803Y02875*
X02803Y02874*
X02803Y02874*
X02803Y02873*
X02802Y02873*
X02802Y02872*
X02802Y02872*
X02802Y02871*
X02802Y02871*
X02802Y0287*
X02802Y0287*
X02802Y02869*
X02802Y02868*
X02802Y02868*
X02802Y02867*
X02802Y02867*
X02802Y02866*
X02803Y02866*
X02803Y02865*
X02803Y02865*
X02803Y02864*
X02804Y02864*
X02804Y02864*
X02805Y02863*
X02805Y02863*
X02806Y02863*
X02806Y02862*
X02807Y02862*
X02807Y02862*
X02808Y02862*
X02808Y02862*
X02809Y02862*
X02809Y02862*
X0281*
X0281Y02862*
X02811Y02862*
X02811Y02862*
X02812Y02862*
X02812Y02862*
X02813Y02862*
X02813Y02863*
X02814Y02863*
X02814Y02863*
X02815Y02864*
X02815Y02864*
X02816Y02864*
X02816Y02865*
X02816Y02865*
X02816Y02866*
X02817Y02866*
X02817Y02867*
X02817Y02867*
X02817Y02868*
X02817Y02868*
X02817Y02869*
X02817Y0287*
X02717D02*
D01*
X02717Y0287*
X02717Y02871*
X02717Y02871*
X02717Y02872*
X02717Y02872*
X02717Y02873*
X02716Y02873*
X02716Y02874*
X02716Y02874*
X02716Y02875*
X02715Y02875*
X02715Y02875*
X02714Y02876*
X02714Y02876*
X02713Y02876*
X02713Y02877*
X02712Y02877*
X02712Y02877*
X02711Y02877*
X02711Y02877*
X0271Y02877*
X0271Y02877*
X02709*
X02709Y02877*
X02708Y02877*
X02708Y02877*
X02707Y02877*
X02707Y02877*
X02706Y02877*
X02706Y02876*
X02705Y02876*
X02705Y02876*
X02704Y02875*
X02704Y02875*
X02703Y02875*
X02703Y02874*
X02703Y02874*
X02703Y02873*
X02702Y02873*
X02702Y02872*
X02702Y02872*
X02702Y02871*
X02702Y02871*
X02702Y0287*
X02702Y0287*
X02702Y02869*
X02702Y02868*
X02702Y02868*
X02702Y02867*
X02702Y02867*
X02702Y02866*
X02703Y02866*
X02703Y02865*
X02703Y02865*
X02703Y02864*
X02704Y02864*
X02704Y02864*
X02705Y02863*
X02705Y02863*
X02706Y02863*
X02706Y02862*
X02707Y02862*
X02707Y02862*
X02708Y02862*
X02708Y02862*
X02709Y02862*
X02709Y02862*
X0271*
X0271Y02862*
X02711Y02862*
X02711Y02862*
X02712Y02862*
X02712Y02862*
X02713Y02862*
X02713Y02863*
X02714Y02863*
X02714Y02863*
X02715Y02864*
X02715Y02864*
X02716Y02864*
X02716Y02865*
X02716Y02865*
X02716Y02866*
X02717Y02866*
X02717Y02867*
X02717Y02867*
X02717Y02868*
X02717Y02868*
X02717Y02869*
X02717Y0287*
X02617D02*
D01*
X02617Y0287*
X02617Y02871*
X02617Y02871*
X02617Y02872*
X02617Y02872*
X02617Y02873*
X02616Y02873*
X02616Y02874*
X02616Y02874*
X02616Y02875*
X02615Y02875*
X02615Y02875*
X02614Y02876*
X02614Y02876*
X02613Y02876*
X02613Y02877*
X02612Y02877*
X02612Y02877*
X02611Y02877*
X02611Y02877*
X0261Y02877*
X0261Y02877*
X02609*
X02609Y02877*
X02608Y02877*
X02608Y02877*
X02607Y02877*
X02607Y02877*
X02606Y02877*
X02606Y02876*
X02605Y02876*
X02605Y02876*
X02604Y02875*
X02604Y02875*
X02603Y02875*
X02603Y02874*
X02603Y02874*
X02603Y02873*
X02602Y02873*
X02602Y02872*
X02602Y02872*
X02602Y02871*
X02602Y02871*
X02602Y0287*
X02602Y0287*
X02602Y02869*
X02602Y02868*
X02602Y02868*
X02602Y02867*
X02602Y02867*
X02602Y02866*
X02603Y02866*
X02603Y02865*
X02603Y02865*
X02603Y02864*
X02604Y02864*
X02604Y02864*
X02605Y02863*
X02605Y02863*
X02606Y02863*
X02606Y02862*
X02607Y02862*
X02607Y02862*
X02608Y02862*
X02608Y02862*
X02609Y02862*
X02609Y02862*
X0261*
X0261Y02862*
X02611Y02862*
X02611Y02862*
X02612Y02862*
X02612Y02862*
X02613Y02862*
X02613Y02863*
X02614Y02863*
X02614Y02863*
X02615Y02864*
X02615Y02864*
X02616Y02864*
X02616Y02865*
X02616Y02865*
X02616Y02866*
X02617Y02866*
X02617Y02867*
X02617Y02867*
X02617Y02868*
X02617Y02868*
X02617Y02869*
X02617Y0287*
X02517D02*
D01*
X02517Y0287*
X02517Y02871*
X02517Y02871*
X02517Y02872*
X02517Y02872*
X02517Y02873*
X02516Y02873*
X02516Y02874*
X02516Y02874*
X02516Y02875*
X02515Y02875*
X02515Y02875*
X02514Y02876*
X02514Y02876*
X02513Y02876*
X02513Y02877*
X02512Y02877*
X02512Y02877*
X02511Y02877*
X02511Y02877*
X0251Y02877*
X0251Y02877*
X02509*
X02509Y02877*
X02508Y02877*
X02508Y02877*
X02507Y02877*
X02507Y02877*
X02506Y02877*
X02506Y02876*
X02505Y02876*
X02505Y02876*
X02504Y02875*
X02504Y02875*
X02503Y02875*
X02503Y02874*
X02503Y02874*
X02503Y02873*
X02502Y02873*
X02502Y02872*
X02502Y02872*
X02502Y02871*
X02502Y02871*
X02502Y0287*
X02502Y0287*
X02502Y02869*
X02502Y02868*
X02502Y02868*
X02502Y02867*
X02502Y02867*
X02502Y02866*
X02503Y02866*
X02503Y02865*
X02503Y02865*
X02503Y02864*
X02504Y02864*
X02504Y02864*
X02505Y02863*
X02505Y02863*
X02506Y02863*
X02506Y02862*
X02507Y02862*
X02507Y02862*
X02508Y02862*
X02508Y02862*
X02509Y02862*
X02509Y02862*
X0251*
X0251Y02862*
X02511Y02862*
X02511Y02862*
X02512Y02862*
X02512Y02862*
X02513Y02862*
X02513Y02863*
X02514Y02863*
X02514Y02863*
X02515Y02864*
X02515Y02864*
X02516Y02864*
X02516Y02865*
X02516Y02865*
X02516Y02866*
X02517Y02866*
X02517Y02867*
X02517Y02867*
X02517Y02868*
X02517Y02868*
X02517Y02869*
X02517Y0287*
X02417D02*
D01*
X02417Y0287*
X02417Y02871*
X02417Y02871*
X02417Y02872*
X02417Y02872*
X02417Y02873*
X02416Y02873*
X02416Y02874*
X02416Y02874*
X02416Y02875*
X02415Y02875*
X02415Y02875*
X02414Y02876*
X02414Y02876*
X02413Y02876*
X02413Y02877*
X02412Y02877*
X02412Y02877*
X02411Y02877*
X02411Y02877*
X0241Y02877*
X0241Y02877*
X02409*
X02409Y02877*
X02408Y02877*
X02408Y02877*
X02407Y02877*
X02407Y02877*
X02406Y02877*
X02406Y02876*
X02405Y02876*
X02405Y02876*
X02404Y02875*
X02404Y02875*
X02403Y02875*
X02403Y02874*
X02403Y02874*
X02403Y02873*
X02402Y02873*
X02402Y02872*
X02402Y02872*
X02402Y02871*
X02402Y02871*
X02402Y0287*
X02402Y0287*
X02402Y02869*
X02402Y02868*
X02402Y02868*
X02402Y02867*
X02402Y02867*
X02402Y02866*
X02403Y02866*
X02403Y02865*
X02403Y02865*
X02403Y02864*
X02404Y02864*
X02404Y02864*
X02405Y02863*
X02405Y02863*
X02406Y02863*
X02406Y02862*
X02407Y02862*
X02407Y02862*
X02408Y02862*
X02408Y02862*
X02409Y02862*
X02409Y02862*
X0241*
X0241Y02862*
X02411Y02862*
X02411Y02862*
X02412Y02862*
X02412Y02862*
X02413Y02862*
X02413Y02863*
X02414Y02863*
X02414Y02863*
X02415Y02864*
X02415Y02864*
X02416Y02864*
X02416Y02865*
X02416Y02865*
X02416Y02866*
X02417Y02866*
X02417Y02867*
X02417Y02867*
X02417Y02868*
X02417Y02868*
X02417Y02869*
X02417Y0287*
X02317D02*
D01*
X02317Y0287*
X02317Y02871*
X02317Y02871*
X02317Y02872*
X02317Y02872*
X02317Y02873*
X02316Y02873*
X02316Y02874*
X02316Y02874*
X02316Y02875*
X02315Y02875*
X02315Y02875*
X02314Y02876*
X02314Y02876*
X02313Y02876*
X02313Y02877*
X02312Y02877*
X02312Y02877*
X02311Y02877*
X02311Y02877*
X0231Y02877*
X0231Y02877*
X02309*
X02309Y02877*
X02308Y02877*
X02308Y02877*
X02307Y02877*
X02307Y02877*
X02306Y02877*
X02306Y02876*
X02305Y02876*
X02305Y02876*
X02304Y02875*
X02304Y02875*
X02303Y02875*
X02303Y02874*
X02303Y02874*
X02303Y02873*
X02302Y02873*
X02302Y02872*
X02302Y02872*
X02302Y02871*
X02302Y02871*
X02302Y0287*
X02302Y0287*
X02302Y02869*
X02302Y02868*
X02302Y02868*
X02302Y02867*
X02302Y02867*
X02302Y02866*
X02303Y02866*
X02303Y02865*
X02303Y02865*
X02303Y02864*
X02304Y02864*
X02304Y02864*
X02305Y02863*
X02305Y02863*
X02306Y02863*
X02306Y02862*
X02307Y02862*
X02307Y02862*
X02308Y02862*
X02308Y02862*
X02309Y02862*
X02309Y02862*
X0231*
X0231Y02862*
X02311Y02862*
X02311Y02862*
X02312Y02862*
X02312Y02862*
X02313Y02862*
X02313Y02863*
X02314Y02863*
X02314Y02863*
X02315Y02864*
X02315Y02864*
X02316Y02864*
X02316Y02865*
X02316Y02865*
X02316Y02866*
X02317Y02866*
X02317Y02867*
X02317Y02867*
X02317Y02868*
X02317Y02868*
X02317Y02869*
X02317Y0287*
X02217D02*
D01*
X02217Y0287*
X02217Y02871*
X02217Y02871*
X02217Y02872*
X02217Y02872*
X02217Y02873*
X02216Y02873*
X02216Y02874*
X02216Y02874*
X02216Y02875*
X02215Y02875*
X02215Y02875*
X02214Y02876*
X02214Y02876*
X02213Y02876*
X02213Y02877*
X02212Y02877*
X02212Y02877*
X02211Y02877*
X02211Y02877*
X0221Y02877*
X0221Y02877*
X02209*
X02209Y02877*
X02208Y02877*
X02208Y02877*
X02207Y02877*
X02207Y02877*
X02206Y02877*
X02206Y02876*
X02205Y02876*
X02205Y02876*
X02204Y02875*
X02204Y02875*
X02203Y02875*
X02203Y02874*
X02203Y02874*
X02203Y02873*
X02202Y02873*
X02202Y02872*
X02202Y02872*
X02202Y02871*
X02202Y02871*
X02202Y0287*
X02202Y0287*
X02202Y02869*
X02202Y02868*
X02202Y02868*
X02202Y02867*
X02202Y02867*
X02202Y02866*
X02203Y02866*
X02203Y02865*
X02203Y02865*
X02203Y02864*
X02204Y02864*
X02204Y02864*
X02205Y02863*
X02205Y02863*
X02206Y02863*
X02206Y02862*
X02207Y02862*
X02207Y02862*
X02208Y02862*
X02208Y02862*
X02209Y02862*
X02209Y02862*
X0221*
X0221Y02862*
X02211Y02862*
X02211Y02862*
X02212Y02862*
X02212Y02862*
X02213Y02862*
X02213Y02863*
X02214Y02863*
X02214Y02863*
X02215Y02864*
X02215Y02864*
X02216Y02864*
X02216Y02865*
X02216Y02865*
X02216Y02866*
X02217Y02866*
X02217Y02867*
X02217Y02867*
X02217Y02868*
X02217Y02868*
X02217Y02869*
X02217Y0287*
X02117D02*
D01*
X02117Y0287*
X02117Y02871*
X02117Y02871*
X02117Y02872*
X02117Y02872*
X02117Y02873*
X02116Y02873*
X02116Y02874*
X02116Y02874*
X02116Y02875*
X02115Y02875*
X02115Y02875*
X02114Y02876*
X02114Y02876*
X02113Y02876*
X02113Y02877*
X02112Y02877*
X02112Y02877*
X02111Y02877*
X02111Y02877*
X0211Y02877*
X0211Y02877*
X02109*
X02109Y02877*
X02108Y02877*
X02108Y02877*
X02107Y02877*
X02107Y02877*
X02106Y02877*
X02106Y02876*
X02105Y02876*
X02105Y02876*
X02104Y02875*
X02104Y02875*
X02103Y02875*
X02103Y02874*
X02103Y02874*
X02103Y02873*
X02102Y02873*
X02102Y02872*
X02102Y02872*
X02102Y02871*
X02102Y02871*
X02102Y0287*
X02102Y0287*
X02102Y02869*
X02102Y02868*
X02102Y02868*
X02102Y02867*
X02102Y02867*
X02102Y02866*
X02103Y02866*
X02103Y02865*
X02103Y02865*
X02103Y02864*
X02104Y02864*
X02104Y02864*
X02105Y02863*
X02105Y02863*
X02106Y02863*
X02106Y02862*
X02107Y02862*
X02107Y02862*
X02108Y02862*
X02108Y02862*
X02109Y02862*
X02109Y02862*
X0211*
X0211Y02862*
X02111Y02862*
X02111Y02862*
X02112Y02862*
X02112Y02862*
X02113Y02862*
X02113Y02863*
X02114Y02863*
X02114Y02863*
X02115Y02864*
X02115Y02864*
X02116Y02864*
X02116Y02865*
X02116Y02865*
X02116Y02866*
X02117Y02866*
X02117Y02867*
X02117Y02867*
X02117Y02868*
X02117Y02868*
X02117Y02869*
X02117Y0287*
X02017D02*
D01*
X02017Y0287*
X02017Y02871*
X02017Y02871*
X02017Y02872*
X02017Y02872*
X02017Y02873*
X02016Y02873*
X02016Y02874*
X02016Y02874*
X02016Y02875*
X02015Y02875*
X02015Y02875*
X02014Y02876*
X02014Y02876*
X02013Y02876*
X02013Y02877*
X02012Y02877*
X02012Y02877*
X02011Y02877*
X02011Y02877*
X0201Y02877*
X0201Y02877*
X02009*
X02009Y02877*
X02008Y02877*
X02008Y02877*
X02007Y02877*
X02007Y02877*
X02006Y02877*
X02006Y02876*
X02005Y02876*
X02005Y02876*
X02004Y02875*
X02004Y02875*
X02003Y02875*
X02003Y02874*
X02003Y02874*
X02003Y02873*
X02002Y02873*
X02002Y02872*
X02002Y02872*
X02002Y02871*
X02002Y02871*
X02002Y0287*
X02002Y0287*
X02002Y02869*
X02002Y02868*
X02002Y02868*
X02002Y02867*
X02002Y02867*
X02002Y02866*
X02003Y02866*
X02003Y02865*
X02003Y02865*
X02003Y02864*
X02004Y02864*
X02004Y02864*
X02005Y02863*
X02005Y02863*
X02006Y02863*
X02006Y02862*
X02007Y02862*
X02007Y02862*
X02008Y02862*
X02008Y02862*
X02009Y02862*
X02009Y02862*
X0201*
X0201Y02862*
X02011Y02862*
X02011Y02862*
X02012Y02862*
X02012Y02862*
X02013Y02862*
X02013Y02863*
X02014Y02863*
X02014Y02863*
X02015Y02864*
X02015Y02864*
X02016Y02864*
X02016Y02865*
X02016Y02865*
X02016Y02866*
X02017Y02866*
X02017Y02867*
X02017Y02867*
X02017Y02868*
X02017Y02868*
X02017Y02869*
X02017Y0287*
X01917D02*
D01*
X01917Y0287*
X01917Y02871*
X01917Y02871*
X01917Y02872*
X01917Y02872*
X01917Y02873*
X01916Y02873*
X01916Y02874*
X01916Y02874*
X01916Y02875*
X01915Y02875*
X01915Y02875*
X01914Y02876*
X01914Y02876*
X01913Y02876*
X01913Y02877*
X01912Y02877*
X01912Y02877*
X01911Y02877*
X01911Y02877*
X0191Y02877*
X0191Y02877*
X01909*
X01909Y02877*
X01908Y02877*
X01908Y02877*
X01907Y02877*
X01907Y02877*
X01906Y02877*
X01906Y02876*
X01905Y02876*
X01905Y02876*
X01904Y02875*
X01904Y02875*
X01903Y02875*
X01903Y02874*
X01903Y02874*
X01903Y02873*
X01902Y02873*
X01902Y02872*
X01902Y02872*
X01902Y02871*
X01902Y02871*
X01902Y0287*
X01902Y0287*
X01902Y02869*
X01902Y02868*
X01902Y02868*
X01902Y02867*
X01902Y02867*
X01902Y02866*
X01903Y02866*
X01903Y02865*
X01903Y02865*
X01903Y02864*
X01904Y02864*
X01904Y02864*
X01905Y02863*
X01905Y02863*
X01906Y02863*
X01906Y02862*
X01907Y02862*
X01907Y02862*
X01908Y02862*
X01908Y02862*
X01909Y02862*
X01909Y02862*
X0191*
X0191Y02862*
X01911Y02862*
X01911Y02862*
X01912Y02862*
X01912Y02862*
X01913Y02862*
X01913Y02863*
X01914Y02863*
X01914Y02863*
X01915Y02864*
X01915Y02864*
X01916Y02864*
X01916Y02865*
X01916Y02865*
X01916Y02866*
X01917Y02866*
X01917Y02867*
X01917Y02867*
X01917Y02868*
X01917Y02868*
X01917Y02869*
X01917Y0287*
X04232Y0348D02*
D01*
X04232Y0348*
X04232Y03481*
X04232Y03481*
X04232Y03482*
X04232Y03482*
X04232Y03483*
X04231Y03483*
X04231Y03484*
X04231Y03484*
X04231Y03485*
X0423Y03485*
X0423Y03485*
X04229Y03486*
X04229Y03486*
X04228Y03486*
X04228Y03487*
X04227Y03487*
X04227Y03487*
X04226Y03487*
X04226Y03487*
X04225Y03487*
X04225Y03487*
X04224*
X04224Y03487*
X04223Y03487*
X04223Y03487*
X04222Y03487*
X04222Y03487*
X04221Y03487*
X04221Y03486*
X0422Y03486*
X0422Y03486*
X04219Y03485*
X04219Y03485*
X04218Y03485*
X04218Y03484*
X04218Y03484*
X04218Y03483*
X04217Y03483*
X04217Y03482*
X04217Y03482*
X04217Y03481*
X04217Y03481*
X04217Y0348*
X04217Y0348*
X04217Y03479*
X04217Y03478*
X04217Y03478*
X04217Y03477*
X04217Y03477*
X04217Y03476*
X04218Y03476*
X04218Y03475*
X04218Y03475*
X04218Y03474*
X04219Y03474*
X04219Y03474*
X0422Y03473*
X0422Y03473*
X04221Y03473*
X04221Y03472*
X04222Y03472*
X04222Y03472*
X04223Y03472*
X04223Y03472*
X04224Y03472*
X04224Y03472*
X04225*
X04225Y03472*
X04226Y03472*
X04226Y03472*
X04227Y03472*
X04227Y03472*
X04228Y03472*
X04228Y03473*
X04229Y03473*
X04229Y03473*
X0423Y03474*
X0423Y03474*
X04231Y03474*
X04231Y03475*
X04231Y03475*
X04231Y03476*
X04232Y03476*
X04232Y03477*
X04232Y03477*
X04232Y03478*
X04232Y03478*
X04232Y03479*
X04232Y0348*
X04332D02*
D01*
X04332Y0348*
X04332Y03481*
X04332Y03481*
X04332Y03482*
X04332Y03482*
X04332Y03483*
X04331Y03483*
X04331Y03484*
X04331Y03484*
X04331Y03485*
X0433Y03485*
X0433Y03485*
X04329Y03486*
X04329Y03486*
X04328Y03486*
X04328Y03487*
X04327Y03487*
X04327Y03487*
X04326Y03487*
X04326Y03487*
X04325Y03487*
X04325Y03487*
X04324*
X04324Y03487*
X04323Y03487*
X04323Y03487*
X04322Y03487*
X04322Y03487*
X04321Y03487*
X04321Y03486*
X0432Y03486*
X0432Y03486*
X04319Y03485*
X04319Y03485*
X04318Y03485*
X04318Y03484*
X04318Y03484*
X04318Y03483*
X04317Y03483*
X04317Y03482*
X04317Y03482*
X04317Y03481*
X04317Y03481*
X04317Y0348*
X04317Y0348*
X04317Y03479*
X04317Y03478*
X04317Y03478*
X04317Y03477*
X04317Y03477*
X04317Y03476*
X04318Y03476*
X04318Y03475*
X04318Y03475*
X04318Y03474*
X04319Y03474*
X04319Y03474*
X0432Y03473*
X0432Y03473*
X04321Y03473*
X04321Y03472*
X04322Y03472*
X04322Y03472*
X04323Y03472*
X04323Y03472*
X04324Y03472*
X04324Y03472*
X04325*
X04325Y03472*
X04326Y03472*
X04326Y03472*
X04327Y03472*
X04327Y03472*
X04328Y03472*
X04328Y03473*
X04329Y03473*
X04329Y03473*
X0433Y03474*
X0433Y03474*
X04331Y03474*
X04331Y03475*
X04331Y03475*
X04331Y03476*
X04332Y03476*
X04332Y03477*
X04332Y03477*
X04332Y03478*
X04332Y03478*
X04332Y03479*
X04332Y0348*
X04432D02*
D01*
X04432Y0348*
X04432Y03481*
X04432Y03481*
X04432Y03482*
X04432Y03482*
X04432Y03483*
X04431Y03483*
X04431Y03484*
X04431Y03484*
X04431Y03485*
X0443Y03485*
X0443Y03485*
X04429Y03486*
X04429Y03486*
X04428Y03486*
X04428Y03487*
X04427Y03487*
X04427Y03487*
X04426Y03487*
X04426Y03487*
X04425Y03487*
X04425Y03487*
X04424*
X04424Y03487*
X04423Y03487*
X04423Y03487*
X04422Y03487*
X04422Y03487*
X04421Y03487*
X04421Y03486*
X0442Y03486*
X0442Y03486*
X04419Y03485*
X04419Y03485*
X04418Y03485*
X04418Y03484*
X04418Y03484*
X04418Y03483*
X04417Y03483*
X04417Y03482*
X04417Y03482*
X04417Y03481*
X04417Y03481*
X04417Y0348*
X04417Y0348*
X04417Y03479*
X04417Y03478*
X04417Y03478*
X04417Y03477*
X04417Y03477*
X04417Y03476*
X04418Y03476*
X04418Y03475*
X04418Y03475*
X04418Y03474*
X04419Y03474*
X04419Y03474*
X0442Y03473*
X0442Y03473*
X04421Y03473*
X04421Y03472*
X04422Y03472*
X04422Y03472*
X04423Y03472*
X04423Y03472*
X04424Y03472*
X04424Y03472*
X04425*
X04425Y03472*
X04426Y03472*
X04426Y03472*
X04427Y03472*
X04427Y03472*
X04428Y03472*
X04428Y03473*
X04429Y03473*
X04429Y03473*
X0443Y03474*
X0443Y03474*
X04431Y03474*
X04431Y03475*
X04431Y03475*
X04431Y03476*
X04432Y03476*
X04432Y03477*
X04432Y03477*
X04432Y03478*
X04432Y03478*
X04432Y03479*
X04432Y0348*
X04532D02*
D01*
X04532Y0348*
X04532Y03481*
X04532Y03481*
X04532Y03482*
X04532Y03482*
X04532Y03483*
X04531Y03483*
X04531Y03484*
X04531Y03484*
X04531Y03485*
X0453Y03485*
X0453Y03485*
X04529Y03486*
X04529Y03486*
X04528Y03486*
X04528Y03487*
X04527Y03487*
X04527Y03487*
X04526Y03487*
X04526Y03487*
X04525Y03487*
X04525Y03487*
X04524*
X04524Y03487*
X04523Y03487*
X04523Y03487*
X04522Y03487*
X04522Y03487*
X04521Y03487*
X04521Y03486*
X0452Y03486*
X0452Y03486*
X04519Y03485*
X04519Y03485*
X04518Y03485*
X04518Y03484*
X04518Y03484*
X04518Y03483*
X04517Y03483*
X04517Y03482*
X04517Y03482*
X04517Y03481*
X04517Y03481*
X04517Y0348*
X04517Y0348*
X04517Y03479*
X04517Y03478*
X04517Y03478*
X04517Y03477*
X04517Y03477*
X04517Y03476*
X04518Y03476*
X04518Y03475*
X04518Y03475*
X04518Y03474*
X04519Y03474*
X04519Y03474*
X0452Y03473*
X0452Y03473*
X04521Y03473*
X04521Y03472*
X04522Y03472*
X04522Y03472*
X04523Y03472*
X04523Y03472*
X04524Y03472*
X04524Y03472*
X04525*
X04525Y03472*
X04526Y03472*
X04526Y03472*
X04527Y03472*
X04527Y03472*
X04528Y03472*
X04528Y03473*
X04529Y03473*
X04529Y03473*
X0453Y03474*
X0453Y03474*
X04531Y03474*
X04531Y03475*
X04531Y03475*
X04531Y03476*
X04532Y03476*
X04532Y03477*
X04532Y03477*
X04532Y03478*
X04532Y03478*
X04532Y03479*
X04532Y0348*
X04632D02*
D01*
X04632Y0348*
X04632Y03481*
X04632Y03481*
X04632Y03482*
X04632Y03482*
X04632Y03483*
X04631Y03483*
X04631Y03484*
X04631Y03484*
X04631Y03485*
X0463Y03485*
X0463Y03485*
X04629Y03486*
X04629Y03486*
X04628Y03486*
X04628Y03487*
X04627Y03487*
X04627Y03487*
X04626Y03487*
X04626Y03487*
X04625Y03487*
X04625Y03487*
X04624*
X04624Y03487*
X04623Y03487*
X04623Y03487*
X04622Y03487*
X04622Y03487*
X04621Y03487*
X04621Y03486*
X0462Y03486*
X0462Y03486*
X04619Y03485*
X04619Y03485*
X04618Y03485*
X04618Y03484*
X04618Y03484*
X04618Y03483*
X04617Y03483*
X04617Y03482*
X04617Y03482*
X04617Y03481*
X04617Y03481*
X04617Y0348*
X04617Y0348*
X04617Y03479*
X04617Y03478*
X04617Y03478*
X04617Y03477*
X04617Y03477*
X04617Y03476*
X04618Y03476*
X04618Y03475*
X04618Y03475*
X04618Y03474*
X04619Y03474*
X04619Y03474*
X0462Y03473*
X0462Y03473*
X04621Y03473*
X04621Y03472*
X04622Y03472*
X04622Y03472*
X04623Y03472*
X04623Y03472*
X04624Y03472*
X04624Y03472*
X04625*
X04625Y03472*
X04626Y03472*
X04626Y03472*
X04627Y03472*
X04627Y03472*
X04628Y03472*
X04628Y03473*
X04629Y03473*
X04629Y03473*
X0463Y03474*
X0463Y03474*
X04631Y03474*
X04631Y03475*
X04631Y03475*
X04631Y03476*
X04632Y03476*
X04632Y03477*
X04632Y03477*
X04632Y03478*
X04632Y03478*
X04632Y03479*
X04632Y0348*
X04732D02*
D01*
X04732Y0348*
X04732Y03481*
X04732Y03481*
X04732Y03482*
X04732Y03482*
X04732Y03483*
X04731Y03483*
X04731Y03484*
X04731Y03484*
X04731Y03485*
X0473Y03485*
X0473Y03485*
X04729Y03486*
X04729Y03486*
X04728Y03486*
X04728Y03487*
X04727Y03487*
X04727Y03487*
X04726Y03487*
X04726Y03487*
X04725Y03487*
X04725Y03487*
X04724*
X04724Y03487*
X04723Y03487*
X04723Y03487*
X04722Y03487*
X04722Y03487*
X04721Y03487*
X04721Y03486*
X0472Y03486*
X0472Y03486*
X04719Y03485*
X04719Y03485*
X04718Y03485*
X04718Y03484*
X04718Y03484*
X04718Y03483*
X04717Y03483*
X04717Y03482*
X04717Y03482*
X04717Y03481*
X04717Y03481*
X04717Y0348*
X04717Y0348*
X04717Y03479*
X04717Y03478*
X04717Y03478*
X04717Y03477*
X04717Y03477*
X04717Y03476*
X04718Y03476*
X04718Y03475*
X04718Y03475*
X04718Y03474*
X04719Y03474*
X04719Y03474*
X0472Y03473*
X0472Y03473*
X04721Y03473*
X04721Y03472*
X04722Y03472*
X04722Y03472*
X04723Y03472*
X04723Y03472*
X04724Y03472*
X04724Y03472*
X04725*
X04725Y03472*
X04726Y03472*
X04726Y03472*
X04727Y03472*
X04727Y03472*
X04728Y03472*
X04728Y03473*
X04729Y03473*
X04729Y03473*
X0473Y03474*
X0473Y03474*
X04731Y03474*
X04731Y03475*
X04731Y03475*
X04731Y03476*
X04732Y03476*
X04732Y03477*
X04732Y03477*
X04732Y03478*
X04732Y03478*
X04732Y03479*
X04732Y0348*
X04832D02*
D01*
X04832Y0348*
X04832Y03481*
X04832Y03481*
X04832Y03482*
X04832Y03482*
X04832Y03483*
X04831Y03483*
X04831Y03484*
X04831Y03484*
X04831Y03485*
X0483Y03485*
X0483Y03485*
X04829Y03486*
X04829Y03486*
X04828Y03486*
X04828Y03487*
X04827Y03487*
X04827Y03487*
X04826Y03487*
X04826Y03487*
X04825Y03487*
X04825Y03487*
X04824*
X04824Y03487*
X04823Y03487*
X04823Y03487*
X04822Y03487*
X04822Y03487*
X04821Y03487*
X04821Y03486*
X0482Y03486*
X0482Y03486*
X04819Y03485*
X04819Y03485*
X04818Y03485*
X04818Y03484*
X04818Y03484*
X04818Y03483*
X04817Y03483*
X04817Y03482*
X04817Y03482*
X04817Y03481*
X04817Y03481*
X04817Y0348*
X04817Y0348*
X04817Y03479*
X04817Y03478*
X04817Y03478*
X04817Y03477*
X04817Y03477*
X04817Y03476*
X04818Y03476*
X04818Y03475*
X04818Y03475*
X04818Y03474*
X04819Y03474*
X04819Y03474*
X0482Y03473*
X0482Y03473*
X04821Y03473*
X04821Y03472*
X04822Y03472*
X04822Y03472*
X04823Y03472*
X04823Y03472*
X04824Y03472*
X04824Y03472*
X04825*
X04825Y03472*
X04826Y03472*
X04826Y03472*
X04827Y03472*
X04827Y03472*
X04828Y03472*
X04828Y03473*
X04829Y03473*
X04829Y03473*
X0483Y03474*
X0483Y03474*
X04831Y03474*
X04831Y03475*
X04831Y03475*
X04831Y03476*
X04832Y03476*
X04832Y03477*
X04832Y03477*
X04832Y03478*
X04832Y03478*
X04832Y03479*
X04832Y0348*
X04932D02*
D01*
X04932Y0348*
X04932Y03481*
X04932Y03481*
X04932Y03482*
X04932Y03482*
X04932Y03483*
X04931Y03483*
X04931Y03484*
X04931Y03484*
X04931Y03485*
X0493Y03485*
X0493Y03485*
X04929Y03486*
X04929Y03486*
X04928Y03486*
X04928Y03487*
X04927Y03487*
X04927Y03487*
X04926Y03487*
X04926Y03487*
X04925Y03487*
X04925Y03487*
X04924*
X04924Y03487*
X04923Y03487*
X04923Y03487*
X04922Y03487*
X04922Y03487*
X04921Y03487*
X04921Y03486*
X0492Y03486*
X0492Y03486*
X04919Y03485*
X04919Y03485*
X04918Y03485*
X04918Y03484*
X04918Y03484*
X04918Y03483*
X04917Y03483*
X04917Y03482*
X04917Y03482*
X04917Y03481*
X04917Y03481*
X04917Y0348*
X04917Y0348*
X04917Y03479*
X04917Y03478*
X04917Y03478*
X04917Y03477*
X04917Y03477*
X04917Y03476*
X04918Y03476*
X04918Y03475*
X04918Y03475*
X04918Y03474*
X04919Y03474*
X04919Y03474*
X0492Y03473*
X0492Y03473*
X04921Y03473*
X04921Y03472*
X04922Y03472*
X04922Y03472*
X04923Y03472*
X04923Y03472*
X04924Y03472*
X04924Y03472*
X04925*
X04925Y03472*
X04926Y03472*
X04926Y03472*
X04927Y03472*
X04927Y03472*
X04928Y03472*
X04928Y03473*
X04929Y03473*
X04929Y03473*
X0493Y03474*
X0493Y03474*
X04931Y03474*
X04931Y03475*
X04931Y03475*
X04931Y03476*
X04932Y03476*
X04932Y03477*
X04932Y03477*
X04932Y03478*
X04932Y03478*
X04932Y03479*
X04932Y0348*
X05032D02*
D01*
X05032Y0348*
X05032Y03481*
X05032Y03481*
X05032Y03482*
X05032Y03482*
X05032Y03483*
X05031Y03483*
X05031Y03484*
X05031Y03484*
X05031Y03485*
X0503Y03485*
X0503Y03485*
X05029Y03486*
X05029Y03486*
X05028Y03486*
X05028Y03487*
X05027Y03487*
X05027Y03487*
X05026Y03487*
X05026Y03487*
X05025Y03487*
X05025Y03487*
X05024*
X05024Y03487*
X05023Y03487*
X05023Y03487*
X05022Y03487*
X05022Y03487*
X05021Y03487*
X05021Y03486*
X0502Y03486*
X0502Y03486*
X05019Y03485*
X05019Y03485*
X05018Y03485*
X05018Y03484*
X05018Y03484*
X05018Y03483*
X05017Y03483*
X05017Y03482*
X05017Y03482*
X05017Y03481*
X05017Y03481*
X05017Y0348*
X05017Y0348*
X05017Y03479*
X05017Y03478*
X05017Y03478*
X05017Y03477*
X05017Y03477*
X05017Y03476*
X05018Y03476*
X05018Y03475*
X05018Y03475*
X05018Y03474*
X05019Y03474*
X05019Y03474*
X0502Y03473*
X0502Y03473*
X05021Y03473*
X05021Y03472*
X05022Y03472*
X05022Y03472*
X05023Y03472*
X05023Y03472*
X05024Y03472*
X05024Y03472*
X05025*
X05025Y03472*
X05026Y03472*
X05026Y03472*
X05027Y03472*
X05027Y03472*
X05028Y03472*
X05028Y03473*
X05029Y03473*
X05029Y03473*
X0503Y03474*
X0503Y03474*
X05031Y03474*
X05031Y03475*
X05031Y03475*
X05031Y03476*
X05032Y03476*
X05032Y03477*
X05032Y03477*
X05032Y03478*
X05032Y03478*
X05032Y03479*
X05032Y0348*
X05132D02*
D01*
X05132Y0348*
X05132Y03481*
X05132Y03481*
X05132Y03482*
X05132Y03482*
X05132Y03483*
X05131Y03483*
X05131Y03484*
X05131Y03484*
X05131Y03485*
X0513Y03485*
X0513Y03485*
X05129Y03486*
X05129Y03486*
X05128Y03486*
X05128Y03487*
X05127Y03487*
X05127Y03487*
X05126Y03487*
X05126Y03487*
X05125Y03487*
X05125Y03487*
X05124*
X05124Y03487*
X05123Y03487*
X05123Y03487*
X05122Y03487*
X05122Y03487*
X05121Y03487*
X05121Y03486*
X0512Y03486*
X0512Y03486*
X05119Y03485*
X05119Y03485*
X05118Y03485*
X05118Y03484*
X05118Y03484*
X05118Y03483*
X05117Y03483*
X05117Y03482*
X05117Y03482*
X05117Y03481*
X05117Y03481*
X05117Y0348*
X05117Y0348*
X05117Y03479*
X05117Y03478*
X05117Y03478*
X05117Y03477*
X05117Y03477*
X05117Y03476*
X05118Y03476*
X05118Y03475*
X05118Y03475*
X05118Y03474*
X05119Y03474*
X05119Y03474*
X0512Y03473*
X0512Y03473*
X05121Y03473*
X05121Y03472*
X05122Y03472*
X05122Y03472*
X05123Y03472*
X05123Y03472*
X05124Y03472*
X05124Y03472*
X05125*
X05125Y03472*
X05126Y03472*
X05126Y03472*
X05127Y03472*
X05127Y03472*
X05128Y03472*
X05128Y03473*
X05129Y03473*
X05129Y03473*
X0513Y03474*
X0513Y03474*
X05131Y03474*
X05131Y03475*
X05131Y03475*
X05131Y03476*
X05132Y03476*
X05132Y03477*
X05132Y03477*
X05132Y03478*
X05132Y03478*
X05132Y03479*
X05132Y0348*
X05232D02*
D01*
X05232Y0348*
X05232Y03481*
X05232Y03481*
X05232Y03482*
X05232Y03482*
X05232Y03483*
X05231Y03483*
X05231Y03484*
X05231Y03484*
X05231Y03485*
X0523Y03485*
X0523Y03485*
X05229Y03486*
X05229Y03486*
X05228Y03486*
X05228Y03487*
X05227Y03487*
X05227Y03487*
X05226Y03487*
X05226Y03487*
X05225Y03487*
X05225Y03487*
X05224*
X05224Y03487*
X05223Y03487*
X05223Y03487*
X05222Y03487*
X05222Y03487*
X05221Y03487*
X05221Y03486*
X0522Y03486*
X0522Y03486*
X05219Y03485*
X05219Y03485*
X05218Y03485*
X05218Y03484*
X05218Y03484*
X05218Y03483*
X05217Y03483*
X05217Y03482*
X05217Y03482*
X05217Y03481*
X05217Y03481*
X05217Y0348*
X05217Y0348*
X05217Y03479*
X05217Y03478*
X05217Y03478*
X05217Y03477*
X05217Y03477*
X05217Y03476*
X05218Y03476*
X05218Y03475*
X05218Y03475*
X05218Y03474*
X05219Y03474*
X05219Y03474*
X0522Y03473*
X0522Y03473*
X05221Y03473*
X05221Y03472*
X05222Y03472*
X05222Y03472*
X05223Y03472*
X05223Y03472*
X05224Y03472*
X05224Y03472*
X05225*
X05225Y03472*
X05226Y03472*
X05226Y03472*
X05227Y03472*
X05227Y03472*
X05228Y03472*
X05228Y03473*
X05229Y03473*
X05229Y03473*
X0523Y03474*
X0523Y03474*
X05231Y03474*
X05231Y03475*
X05231Y03475*
X05231Y03476*
X05232Y03476*
X05232Y03477*
X05232Y03477*
X05232Y03478*
X05232Y03478*
X05232Y03479*
X05232Y0348*
X05332D02*
D01*
X05332Y0348*
X05332Y03481*
X05332Y03481*
X05332Y03482*
X05332Y03482*
X05332Y03483*
X05331Y03483*
X05331Y03484*
X05331Y03484*
X05331Y03485*
X0533Y03485*
X0533Y03485*
X05329Y03486*
X05329Y03486*
X05328Y03486*
X05328Y03487*
X05327Y03487*
X05327Y03487*
X05326Y03487*
X05326Y03487*
X05325Y03487*
X05325Y03487*
X05324*
X05324Y03487*
X05323Y03487*
X05323Y03487*
X05322Y03487*
X05322Y03487*
X05321Y03487*
X05321Y03486*
X0532Y03486*
X0532Y03486*
X05319Y03485*
X05319Y03485*
X05318Y03485*
X05318Y03484*
X05318Y03484*
X05318Y03483*
X05317Y03483*
X05317Y03482*
X05317Y03482*
X05317Y03481*
X05317Y03481*
X05317Y0348*
X05317Y0348*
X05317Y03479*
X05317Y03478*
X05317Y03478*
X05317Y03477*
X05317Y03477*
X05317Y03476*
X05318Y03476*
X05318Y03475*
X05318Y03475*
X05318Y03474*
X05319Y03474*
X05319Y03474*
X0532Y03473*
X0532Y03473*
X05321Y03473*
X05321Y03472*
X05322Y03472*
X05322Y03472*
X05323Y03472*
X05323Y03472*
X05324Y03472*
X05324Y03472*
X05325*
X05325Y03472*
X05326Y03472*
X05326Y03472*
X05327Y03472*
X05327Y03472*
X05328Y03472*
X05328Y03473*
X05329Y03473*
X05329Y03473*
X0533Y03474*
X0533Y03474*
X05331Y03474*
X05331Y03475*
X05331Y03475*
X05331Y03476*
X05332Y03476*
X05332Y03477*
X05332Y03477*
X05332Y03478*
X05332Y03478*
X05332Y03479*
X05332Y0348*
X05432D02*
D01*
X05432Y0348*
X05432Y03481*
X05432Y03481*
X05432Y03482*
X05432Y03482*
X05432Y03483*
X05431Y03483*
X05431Y03484*
X05431Y03484*
X05431Y03485*
X0543Y03485*
X0543Y03485*
X05429Y03486*
X05429Y03486*
X05428Y03486*
X05428Y03487*
X05427Y03487*
X05427Y03487*
X05426Y03487*
X05426Y03487*
X05425Y03487*
X05425Y03487*
X05424*
X05424Y03487*
X05423Y03487*
X05423Y03487*
X05422Y03487*
X05422Y03487*
X05421Y03487*
X05421Y03486*
X0542Y03486*
X0542Y03486*
X05419Y03485*
X05419Y03485*
X05418Y03485*
X05418Y03484*
X05418Y03484*
X05418Y03483*
X05417Y03483*
X05417Y03482*
X05417Y03482*
X05417Y03481*
X05417Y03481*
X05417Y0348*
X05417Y0348*
X05417Y03479*
X05417Y03478*
X05417Y03478*
X05417Y03477*
X05417Y03477*
X05417Y03476*
X05418Y03476*
X05418Y03475*
X05418Y03475*
X05418Y03474*
X05419Y03474*
X05419Y03474*
X0542Y03473*
X0542Y03473*
X05421Y03473*
X05421Y03472*
X05422Y03472*
X05422Y03472*
X05423Y03472*
X05423Y03472*
X05424Y03472*
X05424Y03472*
X05425*
X05425Y03472*
X05426Y03472*
X05426Y03472*
X05427Y03472*
X05427Y03472*
X05428Y03472*
X05428Y03473*
X05429Y03473*
X05429Y03473*
X0543Y03474*
X0543Y03474*
X05431Y03474*
X05431Y03475*
X05431Y03475*
X05431Y03476*
X05432Y03476*
X05432Y03477*
X05432Y03477*
X05432Y03478*
X05432Y03478*
X05432Y03479*
X05432Y0348*
X05532D02*
D01*
X05532Y0348*
X05532Y03481*
X05532Y03481*
X05532Y03482*
X05532Y03482*
X05532Y03483*
X05531Y03483*
X05531Y03484*
X05531Y03484*
X05531Y03485*
X0553Y03485*
X0553Y03485*
X05529Y03486*
X05529Y03486*
X05528Y03486*
X05528Y03487*
X05527Y03487*
X05527Y03487*
X05526Y03487*
X05526Y03487*
X05525Y03487*
X05525Y03487*
X05524*
X05524Y03487*
X05523Y03487*
X05523Y03487*
X05522Y03487*
X05522Y03487*
X05521Y03487*
X05521Y03486*
X0552Y03486*
X0552Y03486*
X05519Y03485*
X05519Y03485*
X05518Y03485*
X05518Y03484*
X05518Y03484*
X05518Y03483*
X05517Y03483*
X05517Y03482*
X05517Y03482*
X05517Y03481*
X05517Y03481*
X05517Y0348*
X05517Y0348*
X05517Y03479*
X05517Y03478*
X05517Y03478*
X05517Y03477*
X05517Y03477*
X05517Y03476*
X05518Y03476*
X05518Y03475*
X05518Y03475*
X05518Y03474*
X05519Y03474*
X05519Y03474*
X0552Y03473*
X0552Y03473*
X05521Y03473*
X05521Y03472*
X05522Y03472*
X05522Y03472*
X05523Y03472*
X05523Y03472*
X05524Y03472*
X05524Y03472*
X05525*
X05525Y03472*
X05526Y03472*
X05526Y03472*
X05527Y03472*
X05527Y03472*
X05528Y03472*
X05528Y03473*
X05529Y03473*
X05529Y03473*
X0553Y03474*
X0553Y03474*
X05531Y03474*
X05531Y03475*
X05531Y03475*
X05531Y03476*
X05532Y03476*
X05532Y03477*
X05532Y03477*
X05532Y03478*
X05532Y03478*
X05532Y03479*
X05532Y0348*
X05632D02*
D01*
X05632Y0348*
X05632Y03481*
X05632Y03481*
X05632Y03482*
X05632Y03482*
X05632Y03483*
X05631Y03483*
X05631Y03484*
X05631Y03484*
X05631Y03485*
X0563Y03485*
X0563Y03485*
X05629Y03486*
X05629Y03486*
X05628Y03486*
X05628Y03487*
X05627Y03487*
X05627Y03487*
X05626Y03487*
X05626Y03487*
X05625Y03487*
X05625Y03487*
X05624*
X05624Y03487*
X05623Y03487*
X05623Y03487*
X05622Y03487*
X05622Y03487*
X05621Y03487*
X05621Y03486*
X0562Y03486*
X0562Y03486*
X05619Y03485*
X05619Y03485*
X05618Y03485*
X05618Y03484*
X05618Y03484*
X05618Y03483*
X05617Y03483*
X05617Y03482*
X05617Y03482*
X05617Y03481*
X05617Y03481*
X05617Y0348*
X05617Y0348*
X05617Y03479*
X05617Y03478*
X05617Y03478*
X05617Y03477*
X05617Y03477*
X05617Y03476*
X05618Y03476*
X05618Y03475*
X05618Y03475*
X05618Y03474*
X05619Y03474*
X05619Y03474*
X0562Y03473*
X0562Y03473*
X05621Y03473*
X05621Y03472*
X05622Y03472*
X05622Y03472*
X05623Y03472*
X05623Y03472*
X05624Y03472*
X05624Y03472*
X05625*
X05625Y03472*
X05626Y03472*
X05626Y03472*
X05627Y03472*
X05627Y03472*
X05628Y03472*
X05628Y03473*
X05629Y03473*
X05629Y03473*
X0563Y03474*
X0563Y03474*
X05631Y03474*
X05631Y03475*
X05631Y03475*
X05631Y03476*
X05632Y03476*
X05632Y03477*
X05632Y03477*
X05632Y03478*
X05632Y03478*
X05632Y03479*
X05632Y0348*
X05732D02*
D01*
X05732Y0348*
X05732Y03481*
X05732Y03481*
X05732Y03482*
X05732Y03482*
X05732Y03483*
X05731Y03483*
X05731Y03484*
X05731Y03484*
X05731Y03485*
X0573Y03485*
X0573Y03485*
X05729Y03486*
X05729Y03486*
X05728Y03486*
X05728Y03487*
X05727Y03487*
X05727Y03487*
X05726Y03487*
X05726Y03487*
X05725Y03487*
X05725Y03487*
X05724*
X05724Y03487*
X05723Y03487*
X05723Y03487*
X05722Y03487*
X05722Y03487*
X05721Y03487*
X05721Y03486*
X0572Y03486*
X0572Y03486*
X05719Y03485*
X05719Y03485*
X05718Y03485*
X05718Y03484*
X05718Y03484*
X05718Y03483*
X05717Y03483*
X05717Y03482*
X05717Y03482*
X05717Y03481*
X05717Y03481*
X05717Y0348*
X05717Y0348*
X05717Y03479*
X05717Y03478*
X05717Y03478*
X05717Y03477*
X05717Y03477*
X05717Y03476*
X05718Y03476*
X05718Y03475*
X05718Y03475*
X05718Y03474*
X05719Y03474*
X05719Y03474*
X0572Y03473*
X0572Y03473*
X05721Y03473*
X05721Y03472*
X05722Y03472*
X05722Y03472*
X05723Y03472*
X05723Y03472*
X05724Y03472*
X05724Y03472*
X05725*
X05725Y03472*
X05726Y03472*
X05726Y03472*
X05727Y03472*
X05727Y03472*
X05728Y03472*
X05728Y03473*
X05729Y03473*
X05729Y03473*
X0573Y03474*
X0573Y03474*
X05731Y03474*
X05731Y03475*
X05731Y03475*
X05731Y03476*
X05732Y03476*
X05732Y03477*
X05732Y03477*
X05732Y03478*
X05732Y03478*
X05732Y03479*
X05732Y0348*
X05832D02*
D01*
X05832Y0348*
X05832Y03481*
X05832Y03481*
X05832Y03482*
X05832Y03482*
X05832Y03483*
X05831Y03483*
X05831Y03484*
X05831Y03484*
X05831Y03485*
X0583Y03485*
X0583Y03485*
X05829Y03486*
X05829Y03486*
X05828Y03486*
X05828Y03487*
X05827Y03487*
X05827Y03487*
X05826Y03487*
X05826Y03487*
X05825Y03487*
X05825Y03487*
X05824*
X05824Y03487*
X05823Y03487*
X05823Y03487*
X05822Y03487*
X05822Y03487*
X05821Y03487*
X05821Y03486*
X0582Y03486*
X0582Y03486*
X05819Y03485*
X05819Y03485*
X05818Y03485*
X05818Y03484*
X05818Y03484*
X05818Y03483*
X05817Y03483*
X05817Y03482*
X05817Y03482*
X05817Y03481*
X05817Y03481*
X05817Y0348*
X05817Y0348*
X05817Y03479*
X05817Y03478*
X05817Y03478*
X05817Y03477*
X05817Y03477*
X05817Y03476*
X05818Y03476*
X05818Y03475*
X05818Y03475*
X05818Y03474*
X05819Y03474*
X05819Y03474*
X0582Y03473*
X0582Y03473*
X05821Y03473*
X05821Y03472*
X05822Y03472*
X05822Y03472*
X05823Y03472*
X05823Y03472*
X05824Y03472*
X05824Y03472*
X05825*
X05825Y03472*
X05826Y03472*
X05826Y03472*
X05827Y03472*
X05827Y03472*
X05828Y03472*
X05828Y03473*
X05829Y03473*
X05829Y03473*
X0583Y03474*
X0583Y03474*
X05831Y03474*
X05831Y03475*
X05831Y03475*
X05831Y03476*
X05832Y03476*
X05832Y03477*
X05832Y03477*
X05832Y03478*
X05832Y03478*
X05832Y03479*
X05832Y0348*
X05932D02*
D01*
X05932Y0348*
X05932Y03481*
X05932Y03481*
X05932Y03482*
X05932Y03482*
X05932Y03483*
X05931Y03483*
X05931Y03484*
X05931Y03484*
X05931Y03485*
X0593Y03485*
X0593Y03485*
X05929Y03486*
X05929Y03486*
X05928Y03486*
X05928Y03487*
X05927Y03487*
X05927Y03487*
X05926Y03487*
X05926Y03487*
X05925Y03487*
X05925Y03487*
X05924*
X05924Y03487*
X05923Y03487*
X05923Y03487*
X05922Y03487*
X05922Y03487*
X05921Y03487*
X05921Y03486*
X0592Y03486*
X0592Y03486*
X05919Y03485*
X05919Y03485*
X05918Y03485*
X05918Y03484*
X05918Y03484*
X05918Y03483*
X05917Y03483*
X05917Y03482*
X05917Y03482*
X05917Y03481*
X05917Y03481*
X05917Y0348*
X05917Y0348*
X05917Y03479*
X05917Y03478*
X05917Y03478*
X05917Y03477*
X05917Y03477*
X05917Y03476*
X05918Y03476*
X05918Y03475*
X05918Y03475*
X05918Y03474*
X05919Y03474*
X05919Y03474*
X0592Y03473*
X0592Y03473*
X05921Y03473*
X05921Y03472*
X05922Y03472*
X05922Y03472*
X05923Y03472*
X05923Y03472*
X05924Y03472*
X05924Y03472*
X05925*
X05925Y03472*
X05926Y03472*
X05926Y03472*
X05927Y03472*
X05927Y03472*
X05928Y03472*
X05928Y03473*
X05929Y03473*
X05929Y03473*
X0593Y03474*
X0593Y03474*
X05931Y03474*
X05931Y03475*
X05931Y03475*
X05931Y03476*
X05932Y03476*
X05932Y03477*
X05932Y03477*
X05932Y03478*
X05932Y03478*
X05932Y03479*
X05932Y0348*
X06032D02*
D01*
X06032Y0348*
X06032Y03481*
X06032Y03481*
X06032Y03482*
X06032Y03482*
X06032Y03483*
X06031Y03483*
X06031Y03484*
X06031Y03484*
X06031Y03485*
X0603Y03485*
X0603Y03485*
X06029Y03486*
X06029Y03486*
X06028Y03486*
X06028Y03487*
X06027Y03487*
X06027Y03487*
X06026Y03487*
X06026Y03487*
X06025Y03487*
X06025Y03487*
X06024*
X06024Y03487*
X06023Y03487*
X06023Y03487*
X06022Y03487*
X06022Y03487*
X06021Y03487*
X06021Y03486*
X0602Y03486*
X0602Y03486*
X06019Y03485*
X06019Y03485*
X06018Y03485*
X06018Y03484*
X06018Y03484*
X06018Y03483*
X06017Y03483*
X06017Y03482*
X06017Y03482*
X06017Y03481*
X06017Y03481*
X06017Y0348*
X06017Y0348*
X06017Y03479*
X06017Y03478*
X06017Y03478*
X06017Y03477*
X06017Y03477*
X06017Y03476*
X06018Y03476*
X06018Y03475*
X06018Y03475*
X06018Y03474*
X06019Y03474*
X06019Y03474*
X0602Y03473*
X0602Y03473*
X06021Y03473*
X06021Y03472*
X06022Y03472*
X06022Y03472*
X06023Y03472*
X06023Y03472*
X06024Y03472*
X06024Y03472*
X06025*
X06025Y03472*
X06026Y03472*
X06026Y03472*
X06027Y03472*
X06027Y03472*
X06028Y03472*
X06028Y03473*
X06029Y03473*
X06029Y03473*
X0603Y03474*
X0603Y03474*
X06031Y03474*
X06031Y03475*
X06031Y03475*
X06031Y03476*
X06032Y03476*
X06032Y03477*
X06032Y03477*
X06032Y03478*
X06032Y03478*
X06032Y03479*
X06032Y0348*
X06132D02*
D01*
X06132Y0348*
X06132Y03481*
X06132Y03481*
X06132Y03482*
X06132Y03482*
X06132Y03483*
X06131Y03483*
X06131Y03484*
X06131Y03484*
X06131Y03485*
X0613Y03485*
X0613Y03485*
X06129Y03486*
X06129Y03486*
X06128Y03486*
X06128Y03487*
X06127Y03487*
X06127Y03487*
X06126Y03487*
X06126Y03487*
X06125Y03487*
X06125Y03487*
X06124*
X06124Y03487*
X06123Y03487*
X06123Y03487*
X06122Y03487*
X06122Y03487*
X06121Y03487*
X06121Y03486*
X0612Y03486*
X0612Y03486*
X06119Y03485*
X06119Y03485*
X06118Y03485*
X06118Y03484*
X06118Y03484*
X06118Y03483*
X06117Y03483*
X06117Y03482*
X06117Y03482*
X06117Y03481*
X06117Y03481*
X06117Y0348*
X06117Y0348*
X06117Y03479*
X06117Y03478*
X06117Y03478*
X06117Y03477*
X06117Y03477*
X06117Y03476*
X06118Y03476*
X06118Y03475*
X06118Y03475*
X06118Y03474*
X06119Y03474*
X06119Y03474*
X0612Y03473*
X0612Y03473*
X06121Y03473*
X06121Y03472*
X06122Y03472*
X06122Y03472*
X06123Y03472*
X06123Y03472*
X06124Y03472*
X06124Y03472*
X06125*
X06125Y03472*
X06126Y03472*
X06126Y03472*
X06127Y03472*
X06127Y03472*
X06128Y03472*
X06128Y03473*
X06129Y03473*
X06129Y03473*
X0613Y03474*
X0613Y03474*
X06131Y03474*
X06131Y03475*
X06131Y03475*
X06131Y03476*
X06132Y03476*
X06132Y03477*
X06132Y03477*
X06132Y03478*
X06132Y03478*
X06132Y03479*
X06132Y0348*
Y0288D02*
D01*
X06132Y0288*
X06132Y02881*
X06132Y02881*
X06132Y02882*
X06132Y02882*
X06132Y02883*
X06131Y02883*
X06131Y02884*
X06131Y02884*
X06131Y02885*
X0613Y02885*
X0613Y02885*
X06129Y02886*
X06129Y02886*
X06128Y02886*
X06128Y02887*
X06127Y02887*
X06127Y02887*
X06126Y02887*
X06126Y02887*
X06125Y02887*
X06125Y02887*
X06124*
X06124Y02887*
X06123Y02887*
X06123Y02887*
X06122Y02887*
X06122Y02887*
X06121Y02887*
X06121Y02886*
X0612Y02886*
X0612Y02886*
X06119Y02885*
X06119Y02885*
X06118Y02885*
X06118Y02884*
X06118Y02884*
X06118Y02883*
X06117Y02883*
X06117Y02882*
X06117Y02882*
X06117Y02881*
X06117Y02881*
X06117Y0288*
X06117Y0288*
X06117Y02879*
X06117Y02878*
X06117Y02878*
X06117Y02877*
X06117Y02877*
X06117Y02876*
X06118Y02876*
X06118Y02875*
X06118Y02875*
X06118Y02874*
X06119Y02874*
X06119Y02874*
X0612Y02873*
X0612Y02873*
X06121Y02873*
X06121Y02872*
X06122Y02872*
X06122Y02872*
X06123Y02872*
X06123Y02872*
X06124Y02872*
X06124Y02872*
X06125*
X06125Y02872*
X06126Y02872*
X06126Y02872*
X06127Y02872*
X06127Y02872*
X06128Y02872*
X06128Y02873*
X06129Y02873*
X06129Y02873*
X0613Y02874*
X0613Y02874*
X06131Y02874*
X06131Y02875*
X06131Y02875*
X06131Y02876*
X06132Y02876*
X06132Y02877*
X06132Y02877*
X06132Y02878*
X06132Y02878*
X06132Y02879*
X06132Y0288*
X06032D02*
D01*
X06032Y0288*
X06032Y02881*
X06032Y02881*
X06032Y02882*
X06032Y02882*
X06032Y02883*
X06031Y02883*
X06031Y02884*
X06031Y02884*
X06031Y02885*
X0603Y02885*
X0603Y02885*
X06029Y02886*
X06029Y02886*
X06028Y02886*
X06028Y02887*
X06027Y02887*
X06027Y02887*
X06026Y02887*
X06026Y02887*
X06025Y02887*
X06025Y02887*
X06024*
X06024Y02887*
X06023Y02887*
X06023Y02887*
X06022Y02887*
X06022Y02887*
X06021Y02887*
X06021Y02886*
X0602Y02886*
X0602Y02886*
X06019Y02885*
X06019Y02885*
X06018Y02885*
X06018Y02884*
X06018Y02884*
X06018Y02883*
X06017Y02883*
X06017Y02882*
X06017Y02882*
X06017Y02881*
X06017Y02881*
X06017Y0288*
X06017Y0288*
X06017Y02879*
X06017Y02878*
X06017Y02878*
X06017Y02877*
X06017Y02877*
X06017Y02876*
X06018Y02876*
X06018Y02875*
X06018Y02875*
X06018Y02874*
X06019Y02874*
X06019Y02874*
X0602Y02873*
X0602Y02873*
X06021Y02873*
X06021Y02872*
X06022Y02872*
X06022Y02872*
X06023Y02872*
X06023Y02872*
X06024Y02872*
X06024Y02872*
X06025*
X06025Y02872*
X06026Y02872*
X06026Y02872*
X06027Y02872*
X06027Y02872*
X06028Y02872*
X06028Y02873*
X06029Y02873*
X06029Y02873*
X0603Y02874*
X0603Y02874*
X06031Y02874*
X06031Y02875*
X06031Y02875*
X06031Y02876*
X06032Y02876*
X06032Y02877*
X06032Y02877*
X06032Y02878*
X06032Y02878*
X06032Y02879*
X06032Y0288*
X05932D02*
D01*
X05932Y0288*
X05932Y02881*
X05932Y02881*
X05932Y02882*
X05932Y02882*
X05932Y02883*
X05931Y02883*
X05931Y02884*
X05931Y02884*
X05931Y02885*
X0593Y02885*
X0593Y02885*
X05929Y02886*
X05929Y02886*
X05928Y02886*
X05928Y02887*
X05927Y02887*
X05927Y02887*
X05926Y02887*
X05926Y02887*
X05925Y02887*
X05925Y02887*
X05924*
X05924Y02887*
X05923Y02887*
X05923Y02887*
X05922Y02887*
X05922Y02887*
X05921Y02887*
X05921Y02886*
X0592Y02886*
X0592Y02886*
X05919Y02885*
X05919Y02885*
X05918Y02885*
X05918Y02884*
X05918Y02884*
X05918Y02883*
X05917Y02883*
X05917Y02882*
X05917Y02882*
X05917Y02881*
X05917Y02881*
X05917Y0288*
X05917Y0288*
X05917Y02879*
X05917Y02878*
X05917Y02878*
X05917Y02877*
X05917Y02877*
X05917Y02876*
X05918Y02876*
X05918Y02875*
X05918Y02875*
X05918Y02874*
X05919Y02874*
X05919Y02874*
X0592Y02873*
X0592Y02873*
X05921Y02873*
X05921Y02872*
X05922Y02872*
X05922Y02872*
X05923Y02872*
X05923Y02872*
X05924Y02872*
X05924Y02872*
X05925*
X05925Y02872*
X05926Y02872*
X05926Y02872*
X05927Y02872*
X05927Y02872*
X05928Y02872*
X05928Y02873*
X05929Y02873*
X05929Y02873*
X0593Y02874*
X0593Y02874*
X05931Y02874*
X05931Y02875*
X05931Y02875*
X05931Y02876*
X05932Y02876*
X05932Y02877*
X05932Y02877*
X05932Y02878*
X05932Y02878*
X05932Y02879*
X05932Y0288*
X05832D02*
D01*
X05832Y0288*
X05832Y02881*
X05832Y02881*
X05832Y02882*
X05832Y02882*
X05832Y02883*
X05831Y02883*
X05831Y02884*
X05831Y02884*
X05831Y02885*
X0583Y02885*
X0583Y02885*
X05829Y02886*
X05829Y02886*
X05828Y02886*
X05828Y02887*
X05827Y02887*
X05827Y02887*
X05826Y02887*
X05826Y02887*
X05825Y02887*
X05825Y02887*
X05824*
X05824Y02887*
X05823Y02887*
X05823Y02887*
X05822Y02887*
X05822Y02887*
X05821Y02887*
X05821Y02886*
X0582Y02886*
X0582Y02886*
X05819Y02885*
X05819Y02885*
X05818Y02885*
X05818Y02884*
X05818Y02884*
X05818Y02883*
X05817Y02883*
X05817Y02882*
X05817Y02882*
X05817Y02881*
X05817Y02881*
X05817Y0288*
X05817Y0288*
X05817Y02879*
X05817Y02878*
X05817Y02878*
X05817Y02877*
X05817Y02877*
X05817Y02876*
X05818Y02876*
X05818Y02875*
X05818Y02875*
X05818Y02874*
X05819Y02874*
X05819Y02874*
X0582Y02873*
X0582Y02873*
X05821Y02873*
X05821Y02872*
X05822Y02872*
X05822Y02872*
X05823Y02872*
X05823Y02872*
X05824Y02872*
X05824Y02872*
X05825*
X05825Y02872*
X05826Y02872*
X05826Y02872*
X05827Y02872*
X05827Y02872*
X05828Y02872*
X05828Y02873*
X05829Y02873*
X05829Y02873*
X0583Y02874*
X0583Y02874*
X05831Y02874*
X05831Y02875*
X05831Y02875*
X05831Y02876*
X05832Y02876*
X05832Y02877*
X05832Y02877*
X05832Y02878*
X05832Y02878*
X05832Y02879*
X05832Y0288*
X05732D02*
D01*
X05732Y0288*
X05732Y02881*
X05732Y02881*
X05732Y02882*
X05732Y02882*
X05732Y02883*
X05731Y02883*
X05731Y02884*
X05731Y02884*
X05731Y02885*
X0573Y02885*
X0573Y02885*
X05729Y02886*
X05729Y02886*
X05728Y02886*
X05728Y02887*
X05727Y02887*
X05727Y02887*
X05726Y02887*
X05726Y02887*
X05725Y02887*
X05725Y02887*
X05724*
X05724Y02887*
X05723Y02887*
X05723Y02887*
X05722Y02887*
X05722Y02887*
X05721Y02887*
X05721Y02886*
X0572Y02886*
X0572Y02886*
X05719Y02885*
X05719Y02885*
X05718Y02885*
X05718Y02884*
X05718Y02884*
X05718Y02883*
X05717Y02883*
X05717Y02882*
X05717Y02882*
X05717Y02881*
X05717Y02881*
X05717Y0288*
X05717Y0288*
X05717Y02879*
X05717Y02878*
X05717Y02878*
X05717Y02877*
X05717Y02877*
X05717Y02876*
X05718Y02876*
X05718Y02875*
X05718Y02875*
X05718Y02874*
X05719Y02874*
X05719Y02874*
X0572Y02873*
X0572Y02873*
X05721Y02873*
X05721Y02872*
X05722Y02872*
X05722Y02872*
X05723Y02872*
X05723Y02872*
X05724Y02872*
X05724Y02872*
X05725*
X05725Y02872*
X05726Y02872*
X05726Y02872*
X05727Y02872*
X05727Y02872*
X05728Y02872*
X05728Y02873*
X05729Y02873*
X05729Y02873*
X0573Y02874*
X0573Y02874*
X05731Y02874*
X05731Y02875*
X05731Y02875*
X05731Y02876*
X05732Y02876*
X05732Y02877*
X05732Y02877*
X05732Y02878*
X05732Y02878*
X05732Y02879*
X05732Y0288*
X05632D02*
D01*
X05632Y0288*
X05632Y02881*
X05632Y02881*
X05632Y02882*
X05632Y02882*
X05632Y02883*
X05631Y02883*
X05631Y02884*
X05631Y02884*
X05631Y02885*
X0563Y02885*
X0563Y02885*
X05629Y02886*
X05629Y02886*
X05628Y02886*
X05628Y02887*
X05627Y02887*
X05627Y02887*
X05626Y02887*
X05626Y02887*
X05625Y02887*
X05625Y02887*
X05624*
X05624Y02887*
X05623Y02887*
X05623Y02887*
X05622Y02887*
X05622Y02887*
X05621Y02887*
X05621Y02886*
X0562Y02886*
X0562Y02886*
X05619Y02885*
X05619Y02885*
X05618Y02885*
X05618Y02884*
X05618Y02884*
X05618Y02883*
X05617Y02883*
X05617Y02882*
X05617Y02882*
X05617Y02881*
X05617Y02881*
X05617Y0288*
X05617Y0288*
X05617Y02879*
X05617Y02878*
X05617Y02878*
X05617Y02877*
X05617Y02877*
X05617Y02876*
X05618Y02876*
X05618Y02875*
X05618Y02875*
X05618Y02874*
X05619Y02874*
X05619Y02874*
X0562Y02873*
X0562Y02873*
X05621Y02873*
X05621Y02872*
X05622Y02872*
X05622Y02872*
X05623Y02872*
X05623Y02872*
X05624Y02872*
X05624Y02872*
X05625*
X05625Y02872*
X05626Y02872*
X05626Y02872*
X05627Y02872*
X05627Y02872*
X05628Y02872*
X05628Y02873*
X05629Y02873*
X05629Y02873*
X0563Y02874*
X0563Y02874*
X05631Y02874*
X05631Y02875*
X05631Y02875*
X05631Y02876*
X05632Y02876*
X05632Y02877*
X05632Y02877*
X05632Y02878*
X05632Y02878*
X05632Y02879*
X05632Y0288*
X05532D02*
D01*
X05532Y0288*
X05532Y02881*
X05532Y02881*
X05532Y02882*
X05532Y02882*
X05532Y02883*
X05531Y02883*
X05531Y02884*
X05531Y02884*
X05531Y02885*
X0553Y02885*
X0553Y02885*
X05529Y02886*
X05529Y02886*
X05528Y02886*
X05528Y02887*
X05527Y02887*
X05527Y02887*
X05526Y02887*
X05526Y02887*
X05525Y02887*
X05525Y02887*
X05524*
X05524Y02887*
X05523Y02887*
X05523Y02887*
X05522Y02887*
X05522Y02887*
X05521Y02887*
X05521Y02886*
X0552Y02886*
X0552Y02886*
X05519Y02885*
X05519Y02885*
X05518Y02885*
X05518Y02884*
X05518Y02884*
X05518Y02883*
X05517Y02883*
X05517Y02882*
X05517Y02882*
X05517Y02881*
X05517Y02881*
X05517Y0288*
X05517Y0288*
X05517Y02879*
X05517Y02878*
X05517Y02878*
X05517Y02877*
X05517Y02877*
X05517Y02876*
X05518Y02876*
X05518Y02875*
X05518Y02875*
X05518Y02874*
X05519Y02874*
X05519Y02874*
X0552Y02873*
X0552Y02873*
X05521Y02873*
X05521Y02872*
X05522Y02872*
X05522Y02872*
X05523Y02872*
X05523Y02872*
X05524Y02872*
X05524Y02872*
X05525*
X05525Y02872*
X05526Y02872*
X05526Y02872*
X05527Y02872*
X05527Y02872*
X05528Y02872*
X05528Y02873*
X05529Y02873*
X05529Y02873*
X0553Y02874*
X0553Y02874*
X05531Y02874*
X05531Y02875*
X05531Y02875*
X05531Y02876*
X05532Y02876*
X05532Y02877*
X05532Y02877*
X05532Y02878*
X05532Y02878*
X05532Y02879*
X05532Y0288*
X05432D02*
D01*
X05432Y0288*
X05432Y02881*
X05432Y02881*
X05432Y02882*
X05432Y02882*
X05432Y02883*
X05431Y02883*
X05431Y02884*
X05431Y02884*
X05431Y02885*
X0543Y02885*
X0543Y02885*
X05429Y02886*
X05429Y02886*
X05428Y02886*
X05428Y02887*
X05427Y02887*
X05427Y02887*
X05426Y02887*
X05426Y02887*
X05425Y02887*
X05425Y02887*
X05424*
X05424Y02887*
X05423Y02887*
X05423Y02887*
X05422Y02887*
X05422Y02887*
X05421Y02887*
X05421Y02886*
X0542Y02886*
X0542Y02886*
X05419Y02885*
X05419Y02885*
X05418Y02885*
X05418Y02884*
X05418Y02884*
X05418Y02883*
X05417Y02883*
X05417Y02882*
X05417Y02882*
X05417Y02881*
X05417Y02881*
X05417Y0288*
X05417Y0288*
X05417Y02879*
X05417Y02878*
X05417Y02878*
X05417Y02877*
X05417Y02877*
X05417Y02876*
X05418Y02876*
X05418Y02875*
X05418Y02875*
X05418Y02874*
X05419Y02874*
X05419Y02874*
X0542Y02873*
X0542Y02873*
X05421Y02873*
X05421Y02872*
X05422Y02872*
X05422Y02872*
X05423Y02872*
X05423Y02872*
X05424Y02872*
X05424Y02872*
X05425*
X05425Y02872*
X05426Y02872*
X05426Y02872*
X05427Y02872*
X05427Y02872*
X05428Y02872*
X05428Y02873*
X05429Y02873*
X05429Y02873*
X0543Y02874*
X0543Y02874*
X05431Y02874*
X05431Y02875*
X05431Y02875*
X05431Y02876*
X05432Y02876*
X05432Y02877*
X05432Y02877*
X05432Y02878*
X05432Y02878*
X05432Y02879*
X05432Y0288*
X05332D02*
D01*
X05332Y0288*
X05332Y02881*
X05332Y02881*
X05332Y02882*
X05332Y02882*
X05332Y02883*
X05331Y02883*
X05331Y02884*
X05331Y02884*
X05331Y02885*
X0533Y02885*
X0533Y02885*
X05329Y02886*
X05329Y02886*
X05328Y02886*
X05328Y02887*
X05327Y02887*
X05327Y02887*
X05326Y02887*
X05326Y02887*
X05325Y02887*
X05325Y02887*
X05324*
X05324Y02887*
X05323Y02887*
X05323Y02887*
X05322Y02887*
X05322Y02887*
X05321Y02887*
X05321Y02886*
X0532Y02886*
X0532Y02886*
X05319Y02885*
X05319Y02885*
X05318Y02885*
X05318Y02884*
X05318Y02884*
X05318Y02883*
X05317Y02883*
X05317Y02882*
X05317Y02882*
X05317Y02881*
X05317Y02881*
X05317Y0288*
X05317Y0288*
X05317Y02879*
X05317Y02878*
X05317Y02878*
X05317Y02877*
X05317Y02877*
X05317Y02876*
X05318Y02876*
X05318Y02875*
X05318Y02875*
X05318Y02874*
X05319Y02874*
X05319Y02874*
X0532Y02873*
X0532Y02873*
X05321Y02873*
X05321Y02872*
X05322Y02872*
X05322Y02872*
X05323Y02872*
X05323Y02872*
X05324Y02872*
X05324Y02872*
X05325*
X05325Y02872*
X05326Y02872*
X05326Y02872*
X05327Y02872*
X05327Y02872*
X05328Y02872*
X05328Y02873*
X05329Y02873*
X05329Y02873*
X0533Y02874*
X0533Y02874*
X05331Y02874*
X05331Y02875*
X05331Y02875*
X05331Y02876*
X05332Y02876*
X05332Y02877*
X05332Y02877*
X05332Y02878*
X05332Y02878*
X05332Y02879*
X05332Y0288*
X05232D02*
D01*
X05232Y0288*
X05232Y02881*
X05232Y02881*
X05232Y02882*
X05232Y02882*
X05232Y02883*
X05231Y02883*
X05231Y02884*
X05231Y02884*
X05231Y02885*
X0523Y02885*
X0523Y02885*
X05229Y02886*
X05229Y02886*
X05228Y02886*
X05228Y02887*
X05227Y02887*
X05227Y02887*
X05226Y02887*
X05226Y02887*
X05225Y02887*
X05225Y02887*
X05224*
X05224Y02887*
X05223Y02887*
X05223Y02887*
X05222Y02887*
X05222Y02887*
X05221Y02887*
X05221Y02886*
X0522Y02886*
X0522Y02886*
X05219Y02885*
X05219Y02885*
X05218Y02885*
X05218Y02884*
X05218Y02884*
X05218Y02883*
X05217Y02883*
X05217Y02882*
X05217Y02882*
X05217Y02881*
X05217Y02881*
X05217Y0288*
X05217Y0288*
X05217Y02879*
X05217Y02878*
X05217Y02878*
X05217Y02877*
X05217Y02877*
X05217Y02876*
X05218Y02876*
X05218Y02875*
X05218Y02875*
X05218Y02874*
X05219Y02874*
X05219Y02874*
X0522Y02873*
X0522Y02873*
X05221Y02873*
X05221Y02872*
X05222Y02872*
X05222Y02872*
X05223Y02872*
X05223Y02872*
X05224Y02872*
X05224Y02872*
X05225*
X05225Y02872*
X05226Y02872*
X05226Y02872*
X05227Y02872*
X05227Y02872*
X05228Y02872*
X05228Y02873*
X05229Y02873*
X05229Y02873*
X0523Y02874*
X0523Y02874*
X05231Y02874*
X05231Y02875*
X05231Y02875*
X05231Y02876*
X05232Y02876*
X05232Y02877*
X05232Y02877*
X05232Y02878*
X05232Y02878*
X05232Y02879*
X05232Y0288*
X05132D02*
D01*
X05132Y0288*
X05132Y02881*
X05132Y02881*
X05132Y02882*
X05132Y02882*
X05132Y02883*
X05131Y02883*
X05131Y02884*
X05131Y02884*
X05131Y02885*
X0513Y02885*
X0513Y02885*
X05129Y02886*
X05129Y02886*
X05128Y02886*
X05128Y02887*
X05127Y02887*
X05127Y02887*
X05126Y02887*
X05126Y02887*
X05125Y02887*
X05125Y02887*
X05124*
X05124Y02887*
X05123Y02887*
X05123Y02887*
X05122Y02887*
X05122Y02887*
X05121Y02887*
X05121Y02886*
X0512Y02886*
X0512Y02886*
X05119Y02885*
X05119Y02885*
X05118Y02885*
X05118Y02884*
X05118Y02884*
X05118Y02883*
X05117Y02883*
X05117Y02882*
X05117Y02882*
X05117Y02881*
X05117Y02881*
X05117Y0288*
X05117Y0288*
X05117Y02879*
X05117Y02878*
X05117Y02878*
X05117Y02877*
X05117Y02877*
X05117Y02876*
X05118Y02876*
X05118Y02875*
X05118Y02875*
X05118Y02874*
X05119Y02874*
X05119Y02874*
X0512Y02873*
X0512Y02873*
X05121Y02873*
X05121Y02872*
X05122Y02872*
X05122Y02872*
X05123Y02872*
X05123Y02872*
X05124Y02872*
X05124Y02872*
X05125*
X05125Y02872*
X05126Y02872*
X05126Y02872*
X05127Y02872*
X05127Y02872*
X05128Y02872*
X05128Y02873*
X05129Y02873*
X05129Y02873*
X0513Y02874*
X0513Y02874*
X05131Y02874*
X05131Y02875*
X05131Y02875*
X05131Y02876*
X05132Y02876*
X05132Y02877*
X05132Y02877*
X05132Y02878*
X05132Y02878*
X05132Y02879*
X05132Y0288*
X05032D02*
D01*
X05032Y0288*
X05032Y02881*
X05032Y02881*
X05032Y02882*
X05032Y02882*
X05032Y02883*
X05031Y02883*
X05031Y02884*
X05031Y02884*
X05031Y02885*
X0503Y02885*
X0503Y02885*
X05029Y02886*
X05029Y02886*
X05028Y02886*
X05028Y02887*
X05027Y02887*
X05027Y02887*
X05026Y02887*
X05026Y02887*
X05025Y02887*
X05025Y02887*
X05024*
X05024Y02887*
X05023Y02887*
X05023Y02887*
X05022Y02887*
X05022Y02887*
X05021Y02887*
X05021Y02886*
X0502Y02886*
X0502Y02886*
X05019Y02885*
X05019Y02885*
X05018Y02885*
X05018Y02884*
X05018Y02884*
X05018Y02883*
X05017Y02883*
X05017Y02882*
X05017Y02882*
X05017Y02881*
X05017Y02881*
X05017Y0288*
X05017Y0288*
X05017Y02879*
X05017Y02878*
X05017Y02878*
X05017Y02877*
X05017Y02877*
X05017Y02876*
X05018Y02876*
X05018Y02875*
X05018Y02875*
X05018Y02874*
X05019Y02874*
X05019Y02874*
X0502Y02873*
X0502Y02873*
X05021Y02873*
X05021Y02872*
X05022Y02872*
X05022Y02872*
X05023Y02872*
X05023Y02872*
X05024Y02872*
X05024Y02872*
X05025*
X05025Y02872*
X05026Y02872*
X05026Y02872*
X05027Y02872*
X05027Y02872*
X05028Y02872*
X05028Y02873*
X05029Y02873*
X05029Y02873*
X0503Y02874*
X0503Y02874*
X05031Y02874*
X05031Y02875*
X05031Y02875*
X05031Y02876*
X05032Y02876*
X05032Y02877*
X05032Y02877*
X05032Y02878*
X05032Y02878*
X05032Y02879*
X05032Y0288*
X04932D02*
D01*
X04932Y0288*
X04932Y02881*
X04932Y02881*
X04932Y02882*
X04932Y02882*
X04932Y02883*
X04931Y02883*
X04931Y02884*
X04931Y02884*
X04931Y02885*
X0493Y02885*
X0493Y02885*
X04929Y02886*
X04929Y02886*
X04928Y02886*
X04928Y02887*
X04927Y02887*
X04927Y02887*
X04926Y02887*
X04926Y02887*
X04925Y02887*
X04925Y02887*
X04924*
X04924Y02887*
X04923Y02887*
X04923Y02887*
X04922Y02887*
X04922Y02887*
X04921Y02887*
X04921Y02886*
X0492Y02886*
X0492Y02886*
X04919Y02885*
X04919Y02885*
X04918Y02885*
X04918Y02884*
X04918Y02884*
X04918Y02883*
X04917Y02883*
X04917Y02882*
X04917Y02882*
X04917Y02881*
X04917Y02881*
X04917Y0288*
X04917Y0288*
X04917Y02879*
X04917Y02878*
X04917Y02878*
X04917Y02877*
X04917Y02877*
X04917Y02876*
X04918Y02876*
X04918Y02875*
X04918Y02875*
X04918Y02874*
X04919Y02874*
X04919Y02874*
X0492Y02873*
X0492Y02873*
X04921Y02873*
X04921Y02872*
X04922Y02872*
X04922Y02872*
X04923Y02872*
X04923Y02872*
X04924Y02872*
X04924Y02872*
X04925*
X04925Y02872*
X04926Y02872*
X04926Y02872*
X04927Y02872*
X04927Y02872*
X04928Y02872*
X04928Y02873*
X04929Y02873*
X04929Y02873*
X0493Y02874*
X0493Y02874*
X04931Y02874*
X04931Y02875*
X04931Y02875*
X04931Y02876*
X04932Y02876*
X04932Y02877*
X04932Y02877*
X04932Y02878*
X04932Y02878*
X04932Y02879*
X04932Y0288*
X04832D02*
D01*
X04832Y0288*
X04832Y02881*
X04832Y02881*
X04832Y02882*
X04832Y02882*
X04832Y02883*
X04831Y02883*
X04831Y02884*
X04831Y02884*
X04831Y02885*
X0483Y02885*
X0483Y02885*
X04829Y02886*
X04829Y02886*
X04828Y02886*
X04828Y02887*
X04827Y02887*
X04827Y02887*
X04826Y02887*
X04826Y02887*
X04825Y02887*
X04825Y02887*
X04824*
X04824Y02887*
X04823Y02887*
X04823Y02887*
X04822Y02887*
X04822Y02887*
X04821Y02887*
X04821Y02886*
X0482Y02886*
X0482Y02886*
X04819Y02885*
X04819Y02885*
X04818Y02885*
X04818Y02884*
X04818Y02884*
X04818Y02883*
X04817Y02883*
X04817Y02882*
X04817Y02882*
X04817Y02881*
X04817Y02881*
X04817Y0288*
X04817Y0288*
X04817Y02879*
X04817Y02878*
X04817Y02878*
X04817Y02877*
X04817Y02877*
X04817Y02876*
X04818Y02876*
X04818Y02875*
X04818Y02875*
X04818Y02874*
X04819Y02874*
X04819Y02874*
X0482Y02873*
X0482Y02873*
X04821Y02873*
X04821Y02872*
X04822Y02872*
X04822Y02872*
X04823Y02872*
X04823Y02872*
X04824Y02872*
X04824Y02872*
X04825*
X04825Y02872*
X04826Y02872*
X04826Y02872*
X04827Y02872*
X04827Y02872*
X04828Y02872*
X04828Y02873*
X04829Y02873*
X04829Y02873*
X0483Y02874*
X0483Y02874*
X04831Y02874*
X04831Y02875*
X04831Y02875*
X04831Y02876*
X04832Y02876*
X04832Y02877*
X04832Y02877*
X04832Y02878*
X04832Y02878*
X04832Y02879*
X04832Y0288*
X04732D02*
D01*
X04732Y0288*
X04732Y02881*
X04732Y02881*
X04732Y02882*
X04732Y02882*
X04732Y02883*
X04731Y02883*
X04731Y02884*
X04731Y02884*
X04731Y02885*
X0473Y02885*
X0473Y02885*
X04729Y02886*
X04729Y02886*
X04728Y02886*
X04728Y02887*
X04727Y02887*
X04727Y02887*
X04726Y02887*
X04726Y02887*
X04725Y02887*
X04725Y02887*
X04724*
X04724Y02887*
X04723Y02887*
X04723Y02887*
X04722Y02887*
X04722Y02887*
X04721Y02887*
X04721Y02886*
X0472Y02886*
X0472Y02886*
X04719Y02885*
X04719Y02885*
X04718Y02885*
X04718Y02884*
X04718Y02884*
X04718Y02883*
X04717Y02883*
X04717Y02882*
X04717Y02882*
X04717Y02881*
X04717Y02881*
X04717Y0288*
X04717Y0288*
X04717Y02879*
X04717Y02878*
X04717Y02878*
X04717Y02877*
X04717Y02877*
X04717Y02876*
X04718Y02876*
X04718Y02875*
X04718Y02875*
X04718Y02874*
X04719Y02874*
X04719Y02874*
X0472Y02873*
X0472Y02873*
X04721Y02873*
X04721Y02872*
X04722Y02872*
X04722Y02872*
X04723Y02872*
X04723Y02872*
X04724Y02872*
X04724Y02872*
X04725*
X04725Y02872*
X04726Y02872*
X04726Y02872*
X04727Y02872*
X04727Y02872*
X04728Y02872*
X04728Y02873*
X04729Y02873*
X04729Y02873*
X0473Y02874*
X0473Y02874*
X04731Y02874*
X04731Y02875*
X04731Y02875*
X04731Y02876*
X04732Y02876*
X04732Y02877*
X04732Y02877*
X04732Y02878*
X04732Y02878*
X04732Y02879*
X04732Y0288*
X04632D02*
D01*
X04632Y0288*
X04632Y02881*
X04632Y02881*
X04632Y02882*
X04632Y02882*
X04632Y02883*
X04631Y02883*
X04631Y02884*
X04631Y02884*
X04631Y02885*
X0463Y02885*
X0463Y02885*
X04629Y02886*
X04629Y02886*
X04628Y02886*
X04628Y02887*
X04627Y02887*
X04627Y02887*
X04626Y02887*
X04626Y02887*
X04625Y02887*
X04625Y02887*
X04624*
X04624Y02887*
X04623Y02887*
X04623Y02887*
X04622Y02887*
X04622Y02887*
X04621Y02887*
X04621Y02886*
X0462Y02886*
X0462Y02886*
X04619Y02885*
X04619Y02885*
X04618Y02885*
X04618Y02884*
X04618Y02884*
X04618Y02883*
X04617Y02883*
X04617Y02882*
X04617Y02882*
X04617Y02881*
X04617Y02881*
X04617Y0288*
X04617Y0288*
X04617Y02879*
X04617Y02878*
X04617Y02878*
X04617Y02877*
X04617Y02877*
X04617Y02876*
X04618Y02876*
X04618Y02875*
X04618Y02875*
X04618Y02874*
X04619Y02874*
X04619Y02874*
X0462Y02873*
X0462Y02873*
X04621Y02873*
X04621Y02872*
X04622Y02872*
X04622Y02872*
X04623Y02872*
X04623Y02872*
X04624Y02872*
X04624Y02872*
X04625*
X04625Y02872*
X04626Y02872*
X04626Y02872*
X04627Y02872*
X04627Y02872*
X04628Y02872*
X04628Y02873*
X04629Y02873*
X04629Y02873*
X0463Y02874*
X0463Y02874*
X04631Y02874*
X04631Y02875*
X04631Y02875*
X04631Y02876*
X04632Y02876*
X04632Y02877*
X04632Y02877*
X04632Y02878*
X04632Y02878*
X04632Y02879*
X04632Y0288*
X04532D02*
D01*
X04532Y0288*
X04532Y02881*
X04532Y02881*
X04532Y02882*
X04532Y02882*
X04532Y02883*
X04531Y02883*
X04531Y02884*
X04531Y02884*
X04531Y02885*
X0453Y02885*
X0453Y02885*
X04529Y02886*
X04529Y02886*
X04528Y02886*
X04528Y02887*
X04527Y02887*
X04527Y02887*
X04526Y02887*
X04526Y02887*
X04525Y02887*
X04525Y02887*
X04524*
X04524Y02887*
X04523Y02887*
X04523Y02887*
X04522Y02887*
X04522Y02887*
X04521Y02887*
X04521Y02886*
X0452Y02886*
X0452Y02886*
X04519Y02885*
X04519Y02885*
X04518Y02885*
X04518Y02884*
X04518Y02884*
X04518Y02883*
X04517Y02883*
X04517Y02882*
X04517Y02882*
X04517Y02881*
X04517Y02881*
X04517Y0288*
X04517Y0288*
X04517Y02879*
X04517Y02878*
X04517Y02878*
X04517Y02877*
X04517Y02877*
X04517Y02876*
X04518Y02876*
X04518Y02875*
X04518Y02875*
X04518Y02874*
X04519Y02874*
X04519Y02874*
X0452Y02873*
X0452Y02873*
X04521Y02873*
X04521Y02872*
X04522Y02872*
X04522Y02872*
X04523Y02872*
X04523Y02872*
X04524Y02872*
X04524Y02872*
X04525*
X04525Y02872*
X04526Y02872*
X04526Y02872*
X04527Y02872*
X04527Y02872*
X04528Y02872*
X04528Y02873*
X04529Y02873*
X04529Y02873*
X0453Y02874*
X0453Y02874*
X04531Y02874*
X04531Y02875*
X04531Y02875*
X04531Y02876*
X04532Y02876*
X04532Y02877*
X04532Y02877*
X04532Y02878*
X04532Y02878*
X04532Y02879*
X04532Y0288*
X04432D02*
D01*
X04432Y0288*
X04432Y02881*
X04432Y02881*
X04432Y02882*
X04432Y02882*
X04432Y02883*
X04431Y02883*
X04431Y02884*
X04431Y02884*
X04431Y02885*
X0443Y02885*
X0443Y02885*
X04429Y02886*
X04429Y02886*
X04428Y02886*
X04428Y02887*
X04427Y02887*
X04427Y02887*
X04426Y02887*
X04426Y02887*
X04425Y02887*
X04425Y02887*
X04424*
X04424Y02887*
X04423Y02887*
X04423Y02887*
X04422Y02887*
X04422Y02887*
X04421Y02887*
X04421Y02886*
X0442Y02886*
X0442Y02886*
X04419Y02885*
X04419Y02885*
X04418Y02885*
X04418Y02884*
X04418Y02884*
X04418Y02883*
X04417Y02883*
X04417Y02882*
X04417Y02882*
X04417Y02881*
X04417Y02881*
X04417Y0288*
X04417Y0288*
X04417Y02879*
X04417Y02878*
X04417Y02878*
X04417Y02877*
X04417Y02877*
X04417Y02876*
X04418Y02876*
X04418Y02875*
X04418Y02875*
X04418Y02874*
X04419Y02874*
X04419Y02874*
X0442Y02873*
X0442Y02873*
X04421Y02873*
X04421Y02872*
X04422Y02872*
X04422Y02872*
X04423Y02872*
X04423Y02872*
X04424Y02872*
X04424Y02872*
X04425*
X04425Y02872*
X04426Y02872*
X04426Y02872*
X04427Y02872*
X04427Y02872*
X04428Y02872*
X04428Y02873*
X04429Y02873*
X04429Y02873*
X0443Y02874*
X0443Y02874*
X04431Y02874*
X04431Y02875*
X04431Y02875*
X04431Y02876*
X04432Y02876*
X04432Y02877*
X04432Y02877*
X04432Y02878*
X04432Y02878*
X04432Y02879*
X04432Y0288*
X04332D02*
D01*
X04332Y0288*
X04332Y02881*
X04332Y02881*
X04332Y02882*
X04332Y02882*
X04332Y02883*
X04331Y02883*
X04331Y02884*
X04331Y02884*
X04331Y02885*
X0433Y02885*
X0433Y02885*
X04329Y02886*
X04329Y02886*
X04328Y02886*
X04328Y02887*
X04327Y02887*
X04327Y02887*
X04326Y02887*
X04326Y02887*
X04325Y02887*
X04325Y02887*
X04324*
X04324Y02887*
X04323Y02887*
X04323Y02887*
X04322Y02887*
X04322Y02887*
X04321Y02887*
X04321Y02886*
X0432Y02886*
X0432Y02886*
X04319Y02885*
X04319Y02885*
X04318Y02885*
X04318Y02884*
X04318Y02884*
X04318Y02883*
X04317Y02883*
X04317Y02882*
X04317Y02882*
X04317Y02881*
X04317Y02881*
X04317Y0288*
X04317Y0288*
X04317Y02879*
X04317Y02878*
X04317Y02878*
X04317Y02877*
X04317Y02877*
X04317Y02876*
X04318Y02876*
X04318Y02875*
X04318Y02875*
X04318Y02874*
X04319Y02874*
X04319Y02874*
X0432Y02873*
X0432Y02873*
X04321Y02873*
X04321Y02872*
X04322Y02872*
X04322Y02872*
X04323Y02872*
X04323Y02872*
X04324Y02872*
X04324Y02872*
X04325*
X04325Y02872*
X04326Y02872*
X04326Y02872*
X04327Y02872*
X04327Y02872*
X04328Y02872*
X04328Y02873*
X04329Y02873*
X04329Y02873*
X0433Y02874*
X0433Y02874*
X04331Y02874*
X04331Y02875*
X04331Y02875*
X04331Y02876*
X04332Y02876*
X04332Y02877*
X04332Y02877*
X04332Y02878*
X04332Y02878*
X04332Y02879*
X04332Y0288*
X04232D02*
D01*
X04232Y0288*
X04232Y02881*
X04232Y02881*
X04232Y02882*
X04232Y02882*
X04232Y02883*
X04231Y02883*
X04231Y02884*
X04231Y02884*
X04231Y02885*
X0423Y02885*
X0423Y02885*
X04229Y02886*
X04229Y02886*
X04228Y02886*
X04228Y02887*
X04227Y02887*
X04227Y02887*
X04226Y02887*
X04226Y02887*
X04225Y02887*
X04225Y02887*
X04224*
X04224Y02887*
X04223Y02887*
X04223Y02887*
X04222Y02887*
X04222Y02887*
X04221Y02887*
X04221Y02886*
X0422Y02886*
X0422Y02886*
X04219Y02885*
X04219Y02885*
X04218Y02885*
X04218Y02884*
X04218Y02884*
X04218Y02883*
X04217Y02883*
X04217Y02882*
X04217Y02882*
X04217Y02881*
X04217Y02881*
X04217Y0288*
X04217Y0288*
X04217Y02879*
X04217Y02878*
X04217Y02878*
X04217Y02877*
X04217Y02877*
X04217Y02876*
X04218Y02876*
X04218Y02875*
X04218Y02875*
X04218Y02874*
X04219Y02874*
X04219Y02874*
X0422Y02873*
X0422Y02873*
X04221Y02873*
X04221Y02872*
X04222Y02872*
X04222Y02872*
X04223Y02872*
X04223Y02872*
X04224Y02872*
X04224Y02872*
X04225*
X04225Y02872*
X04226Y02872*
X04226Y02872*
X04227Y02872*
X04227Y02872*
X04228Y02872*
X04228Y02873*
X04229Y02873*
X04229Y02873*
X0423Y02874*
X0423Y02874*
X04231Y02874*
X04231Y02875*
X04231Y02875*
X04231Y02876*
X04232Y02876*
X04232Y02877*
X04232Y02877*
X04232Y02878*
X04232Y02878*
X04232Y02879*
X04232Y0288*
G54D19*
X06814Y04405D02*
D01*
X06814Y04405*
X06814Y04405*
X06814Y04405*
X06814Y04405*
X06814Y04405*
X06814Y04405*
X06814Y04405*
X06814Y04406*
X06814Y04406*
X06814Y04406*
X06814Y04406*
X06814Y04406*
X06814Y04406*
X06814Y04406*
X06813Y04406*
X06813Y04406*
X06813Y04406*
X06813Y04406*
X06813Y04406*
X06813Y04406*
X06813Y04406*
X06813Y04406*
X06813*
X06813Y04406*
X06813Y04406*
X06813Y04406*
X06812Y04406*
X06812Y04406*
X06812Y04406*
X06812Y04406*
X06812Y04406*
X06812Y04406*
X06812Y04406*
X06812Y04406*
X06812Y04406*
X06812Y04406*
X06812Y04406*
X06812Y04405*
X06812Y04405*
X06812Y04405*
X06812Y04405*
X06812Y04405*
X06812Y04405*
X06812Y04405*
X06812Y04405*
X06812Y04405*
X06812Y04405*
X06812Y04405*
X06812Y04405*
X06812Y04405*
X06812Y04404*
X06812Y04404*
X06812Y04404*
X06812Y04404*
X06812Y04404*
X06812Y04404*
X06812Y04404*
X06812Y04404*
X06812Y04404*
X06812Y04404*
X06812Y04404*
X06812Y04404*
X06812Y04404*
X06813Y04404*
X06813Y04404*
X06813Y04404*
X06813Y04404*
X06813*
X06813Y04404*
X06813Y04404*
X06813Y04404*
X06813Y04404*
X06813Y04404*
X06813Y04404*
X06813Y04404*
X06814Y04404*
X06814Y04404*
X06814Y04404*
X06814Y04404*
X06814Y04404*
X06814Y04404*
X06814Y04404*
X06814Y04404*
X06814Y04404*
X06814Y04405*
X06814Y04405*
X06814Y04405*
X06814Y04405*
X06814Y04405*
X06814Y04405*
X0815Y03507D02*
D01*
X0815Y03507*
X0815Y03507*
X0815Y03507*
X0815Y03507*
X08149Y03507*
X08149Y03507*
X08149Y03507*
X08149Y03507*
X08149Y03507*
X08149Y03507*
X08149Y03508*
X08149Y03508*
X08149Y03508*
X08149Y03508*
X08149Y03508*
X08149Y03508*
X08149Y03508*
X08149Y03508*
X08149Y03508*
X08149Y03508*
X08149Y03508*
X08148Y03508*
X08148*
X08148Y03508*
X08148Y03508*
X08148Y03508*
X08148Y03508*
X08148Y03508*
X08148Y03508*
X08148Y03508*
X08148Y03508*
X08148Y03508*
X08148Y03508*
X08148Y03508*
X08147Y03507*
X08147Y03507*
X08147Y03507*
X08147Y03507*
X08147Y03507*
X08147Y03507*
X08147Y03507*
X08147Y03507*
X08147Y03507*
X08147Y03507*
X08147Y03507*
X08147Y03507*
X08147Y03507*
X08147Y03506*
X08147Y03506*
X08147Y03506*
X08147Y03506*
X08147Y03506*
X08147Y03506*
X08147Y03506*
X08147Y03506*
X08148Y03506*
X08148Y03506*
X08148Y03506*
X08148Y03506*
X08148Y03506*
X08148Y03506*
X08148Y03506*
X08148Y03506*
X08148Y03506*
X08148Y03506*
X08148Y03506*
X08148Y03506*
X08148*
X08149Y03506*
X08149Y03506*
X08149Y03506*
X08149Y03506*
X08149Y03506*
X08149Y03506*
X08149Y03506*
X08149Y03506*
X08149Y03506*
X08149Y03506*
X08149Y03506*
X08149Y03506*
X08149Y03506*
X08149Y03506*
X08149Y03506*
X08149Y03506*
X08149Y03506*
X0815Y03506*
X0815Y03506*
X0815Y03507*
X0815Y03507*
X0815Y03507*
X05169Y04404D02*
D01*
X05169Y04404*
X05169Y04404*
X05169Y04404*
X05169Y04404*
X05169Y04404*
X05169Y04404*
X05169Y04404*
X05169Y04405*
X05169Y04405*
X05169Y04405*
X05169Y04405*
X05169Y04405*
X05169Y04405*
X05169Y04405*
X05168Y04405*
X05168Y04405*
X05168Y04405*
X05168Y04405*
X05168Y04405*
X05168Y04405*
X05168Y04405*
X05168Y04405*
X05168*
X05168Y04405*
X05168Y04405*
X05168Y04405*
X05167Y04405*
X05167Y04405*
X05167Y04405*
X05167Y04405*
X05167Y04405*
X05167Y04405*
X05167Y04405*
X05167Y04405*
X05167Y04405*
X05167Y04405*
X05167Y04405*
X05167Y04404*
X05167Y04404*
X05167Y04404*
X05167Y04404*
X05167Y04404*
X05167Y04404*
X05167Y04404*
X05167Y04404*
X05167Y04404*
X05167Y04404*
X05167Y04404*
X05167Y04404*
X05167Y04404*
X05167Y04403*
X05167Y04403*
X05167Y04403*
X05167Y04403*
X05167Y04403*
X05167Y04403*
X05167Y04403*
X05167Y04403*
X05167Y04403*
X05167Y04403*
X05167Y04403*
X05167Y04403*
X05167Y04403*
X05168Y04403*
X05168Y04403*
X05168Y04403*
X05168Y04403*
X05168*
X05168Y04403*
X05168Y04403*
X05168Y04403*
X05168Y04403*
X05168Y04403*
X05168Y04403*
X05168Y04403*
X05169Y04403*
X05169Y04403*
X05169Y04403*
X05169Y04403*
X05169Y04403*
X05169Y04403*
X05169Y04403*
X05169Y04403*
X05169Y04403*
X05169Y04404*
X05169Y04404*
X05169Y04404*
X05169Y04404*
X05169Y04404*
X05169Y04404*
X01856Y02834D02*
D01*
X01856Y02834*
X01856Y02834*
X01856Y02834*
X01856Y02834*
X01856Y02834*
X01856Y02835*
X01856Y02835*
X01856Y02835*
X01855Y02835*
X01855Y02835*
X01855Y02835*
X01855Y02835*
X01855Y02835*
X01855Y02835*
X01855Y02835*
X01855Y02835*
X01855Y02835*
X01855Y02835*
X01855Y02835*
X01855Y02835*
X01855Y02835*
X01855Y02835*
X01854*
X01854Y02835*
X01854Y02835*
X01854Y02835*
X01854Y02835*
X01854Y02835*
X01854Y02835*
X01854Y02835*
X01854Y02835*
X01854Y02835*
X01854Y02835*
X01854Y02835*
X01854Y02835*
X01854Y02835*
X01853Y02835*
X01853Y02835*
X01853Y02835*
X01853Y02834*
X01853Y02834*
X01853Y02834*
X01853Y02834*
X01853Y02834*
X01853Y02834*
X01853Y02834*
X01853Y02834*
X01853Y02834*
X01853Y02834*
X01853Y02834*
X01853Y02834*
X01853Y02834*
X01853Y02833*
X01854Y02833*
X01854Y02833*
X01854Y02833*
X01854Y02833*
X01854Y02833*
X01854Y02833*
X01854Y02833*
X01854Y02833*
X01854Y02833*
X01854Y02833*
X01854Y02833*
X01854Y02833*
X01854Y02833*
X01854Y02833*
X01855*
X01855Y02833*
X01855Y02833*
X01855Y02833*
X01855Y02833*
X01855Y02833*
X01855Y02833*
X01855Y02833*
X01855Y02833*
X01855Y02833*
X01855Y02833*
X01855Y02833*
X01855Y02833*
X01855Y02833*
X01856Y02833*
X01856Y02834*
X01856Y02834*
X01856Y02834*
X01856Y02834*
X01856Y02834*
X01856Y02834*
X01856Y02834*
X01856Y02834*
X04171Y02844D02*
D01*
X04171Y02844*
X04171Y02844*
X04171Y02844*
X04171Y02844*
X04171Y02844*
X04171Y02845*
X04171Y02845*
X04171Y02845*
X0417Y02845*
X0417Y02845*
X0417Y02845*
X0417Y02845*
X0417Y02845*
X0417Y02845*
X0417Y02845*
X0417Y02845*
X0417Y02845*
X0417Y02845*
X0417Y02845*
X0417Y02845*
X0417Y02845*
X0417Y02845*
X04169*
X04169Y02845*
X04169Y02845*
X04169Y02845*
X04169Y02845*
X04169Y02845*
X04169Y02845*
X04169Y02845*
X04169Y02845*
X04169Y02845*
X04169Y02845*
X04169Y02845*
X04169Y02845*
X04169Y02845*
X04168Y02845*
X04168Y02845*
X04168Y02845*
X04168Y02844*
X04168Y02844*
X04168Y02844*
X04168Y02844*
X04168Y02844*
X04168Y02844*
X04168Y02844*
X04168Y02844*
X04168Y02844*
X04168Y02844*
X04168Y02844*
X04168Y02844*
X04168Y02844*
X04168Y02843*
X04169Y02843*
X04169Y02843*
X04169Y02843*
X04169Y02843*
X04169Y02843*
X04169Y02843*
X04169Y02843*
X04169Y02843*
X04169Y02843*
X04169Y02843*
X04169Y02843*
X04169Y02843*
X04169Y02843*
X04169Y02843*
X0417*
X0417Y02843*
X0417Y02843*
X0417Y02843*
X0417Y02843*
X0417Y02843*
X0417Y02843*
X0417Y02843*
X0417Y02843*
X0417Y02843*
X0417Y02843*
X0417Y02843*
X0417Y02843*
X0417Y02843*
X04171Y02843*
X04171Y02844*
X04171Y02844*
X04171Y02844*
X04171Y02844*
X04171Y02844*
X04171Y02844*
X04171Y02844*
X04171Y02844*
X03426Y01495D02*
D01*
X03426Y01495*
X03426Y01495*
X03426Y01495*
X03426Y01495*
X03426Y01495*
X03426Y01496*
X03426Y01496*
X03426Y01496*
X03425Y01496*
X03425Y01496*
X03425Y01496*
X03425Y01496*
X03425Y01496*
X03425Y01496*
X03425Y01496*
X03425Y01496*
X03425Y01496*
X03425Y01496*
X03425Y01496*
X03425Y01496*
X03425Y01496*
X03425Y01496*
X03424*
X03424Y01496*
X03424Y01496*
X03424Y01496*
X03424Y01496*
X03424Y01496*
X03424Y01496*
X03424Y01496*
X03424Y01496*
X03424Y01496*
X03424Y01496*
X03424Y01496*
X03424Y01496*
X03424Y01496*
X03423Y01496*
X03423Y01496*
X03423Y01496*
X03423Y01495*
X03423Y01495*
X03423Y01495*
X03423Y01495*
X03423Y01495*
X03423Y01495*
X03423Y01495*
X03423Y01495*
X03423Y01495*
X03423Y01495*
X03423Y01495*
X03423Y01495*
X03423Y01494*
X03423Y01494*
X03424Y01494*
X03424Y01494*
X03424Y01494*
X03424Y01494*
X03424Y01494*
X03424Y01494*
X03424Y01494*
X03424Y01494*
X03424Y01494*
X03424Y01494*
X03424Y01494*
X03424Y01494*
X03424Y01494*
X03424Y01494*
X03425*
X03425Y01494*
X03425Y01494*
X03425Y01494*
X03425Y01494*
X03425Y01494*
X03425Y01494*
X03425Y01494*
X03425Y01494*
X03425Y01494*
X03425Y01494*
X03425Y01494*
X03425Y01494*
X03425Y01494*
X03426Y01494*
X03426Y01494*
X03426Y01495*
X03426Y01495*
X03426Y01495*
X03426Y01495*
X03426Y01495*
X03426Y01495*
X03426Y01495*
G54D20*
X0433Y01832D02*
D01*
X0433Y01832*
X0433Y01833*
X0433Y01833*
X04329Y01833*
X04329Y01833*
X04329Y01833*
X04329Y01833*
X04329Y01833*
X04329Y01834*
X04329Y01834*
X04329Y01834*
X04329Y01834*
X04329Y01834*
X04329Y01834*
X04328Y01834*
X04328Y01834*
X04328Y01834*
X04328Y01834*
X04328Y01834*
X04328Y01835*
X04327Y01835*
X04327Y01835*
X04327*
X04327Y01835*
X04327Y01835*
X04327Y01834*
X04326Y01834*
X04326Y01834*
X04326Y01834*
X04326Y01834*
X04326Y01834*
X04326Y01834*
X04326Y01834*
X04326Y01834*
X04325Y01834*
X04325Y01834*
X04325Y01833*
X04325Y01833*
X04325Y01833*
X04325Y01833*
X04325Y01833*
X04325Y01833*
X04325Y01833*
X04325Y01832*
X04325Y01832*
X04325Y01832*
X04325Y01832*
X04325Y01832*
X04325Y01832*
X04325Y01831*
X04325Y01831*
X04325Y01831*
X04325Y01831*
X04325Y01831*
X04325Y01831*
X04326Y01831*
X04326Y0183*
X04326Y0183*
X04326Y0183*
X04326Y0183*
X04326Y0183*
X04326Y0183*
X04326Y0183*
X04327Y0183*
X04327Y0183*
X04327Y0183*
X04327Y0183*
X04327*
X04327Y0183*
X04328Y0183*
X04328Y0183*
X04328Y0183*
X04328Y0183*
X04328Y0183*
X04328Y0183*
X04329Y0183*
X04329Y0183*
X04329Y0183*
X04329Y01831*
X04329Y01831*
X04329Y01831*
X04329Y01831*
X04329Y01831*
X04329Y01831*
X04329Y01831*
X04329Y01832*
X0433Y01832*
X0433Y01832*
X0433Y01832*
X0433Y01832*
G54D21*
X0867Y0107D02*
Y04555D01*
X0171D02*
X0867D01*
X0171Y0107D02*
Y04555D01*
Y0107D02*
X0867D01*
G54D94*
X06739Y0437D02*
D01*
X06739Y0437*
X06739Y04371*
X06739Y04372*
X06739Y04372*
X06739Y04373*
X06738Y04374*
X06738Y04374*
X06738Y04375*
X06737Y04375*
X06737Y04376*
X06737Y04376*
X06736Y04377*
X06736Y04377*
X06735Y04378*
X06734Y04378*
X06734Y04378*
X06733Y04379*
X06733Y04379*
X06732Y04379*
X06731Y04379*
X06731Y04379*
X0673Y04379*
X06729*
X06728Y04379*
X06728Y04379*
X06727Y04379*
X06726Y04379*
X06726Y04379*
X06725Y04378*
X06725Y04378*
X06724Y04378*
X06723Y04377*
X06723Y04377*
X06722Y04376*
X06722Y04376*
X06722Y04375*
X06721Y04375*
X06721Y04374*
X06721Y04374*
X0672Y04373*
X0672Y04372*
X0672Y04372*
X0672Y04371*
X0672Y0437*
X0672Y0437*
X0672Y04369*
X0672Y04368*
X0672Y04367*
X0672Y04367*
X0672Y04366*
X06721Y04366*
X06721Y04365*
X06721Y04364*
X06722Y04364*
X06722Y04363*
X06722Y04363*
X06723Y04362*
X06723Y04362*
X06724Y04361*
X06725Y04361*
X06725Y04361*
X06726Y0436*
X06726Y0436*
X06727Y0436*
X06728Y0436*
X06728Y0436*
X06729Y0436*
X0673*
X06731Y0436*
X06731Y0436*
X06732Y0436*
X06733Y0436*
X06733Y0436*
X06734Y04361*
X06734Y04361*
X06735Y04361*
X06736Y04362*
X06736Y04362*
X06737Y04363*
X06737Y04363*
X06737Y04364*
X06738Y04364*
X06738Y04365*
X06738Y04366*
X06739Y04366*
X06739Y04367*
X06739Y04367*
X06739Y04368*
X06739Y04369*
X06739Y0437*
X06139Y0437D02*
D01*
X06139Y0437*
X06139Y04371*
X06139Y04372*
X06139Y04372*
X06139Y04373*
X06138Y04374*
X06138Y04374*
X06138Y04375*
X06137Y04375*
X06137Y04376*
X06137Y04376*
X06136Y04377*
X06136Y04377*
X06135Y04378*
X06134Y04378*
X06134Y04378*
X06133Y04379*
X06133Y04379*
X06132Y04379*
X06131Y04379*
X06131Y04379*
X0613Y04379*
X06129*
X06128Y04379*
X06128Y04379*
X06127Y04379*
X06126Y04379*
X06126Y04379*
X06125Y04378*
X06125Y04378*
X06124Y04378*
X06123Y04377*
X06123Y04377*
X06122Y04376*
X06122Y04376*
X06122Y04375*
X06121Y04375*
X06121Y04374*
X06121Y04374*
X0612Y04373*
X0612Y04372*
X0612Y04372*
X0612Y04371*
X0612Y0437*
X0612Y0437*
X0612Y04369*
X0612Y04368*
X0612Y04367*
X0612Y04367*
X0612Y04366*
X06121Y04365*
X06121Y04365*
X06121Y04364*
X06122Y04364*
X06122Y04363*
X06122Y04363*
X06123Y04362*
X06123Y04362*
X06124Y04361*
X06125Y04361*
X06125Y04361*
X06126Y0436*
X06126Y0436*
X06127Y0436*
X06128Y0436*
X06128Y0436*
X06129Y0436*
X0613*
X06131Y0436*
X06131Y0436*
X06132Y0436*
X06133Y0436*
X06133Y0436*
X06134Y04361*
X06134Y04361*
X06135Y04361*
X06136Y04362*
X06136Y04362*
X06137Y04363*
X06137Y04363*
X06137Y04364*
X06138Y04364*
X06138Y04365*
X06138Y04365*
X06139Y04366*
X06139Y04367*
X06139Y04367*
X06139Y04368*
X06139Y04369*
X06139Y0437*
X06639D02*
D01*
X06639Y0437*
X06639Y04371*
X06639Y04372*
X06639Y04372*
X06639Y04373*
X06638Y04374*
X06638Y04374*
X06638Y04375*
X06637Y04375*
X06637Y04376*
X06637Y04376*
X06636Y04377*
X06636Y04377*
X06635Y04378*
X06634Y04378*
X06634Y04378*
X06633Y04379*
X06633Y04379*
X06632Y04379*
X06631Y04379*
X06631Y04379*
X0663Y04379*
X06629*
X06628Y04379*
X06628Y04379*
X06627Y04379*
X06626Y04379*
X06626Y04379*
X06625Y04378*
X06625Y04378*
X06624Y04378*
X06623Y04377*
X06623Y04377*
X06622Y04376*
X06622Y04376*
X06622Y04375*
X06621Y04375*
X06621Y04374*
X06621Y04374*
X0662Y04373*
X0662Y04372*
X0662Y04372*
X0662Y04371*
X0662Y0437*
X0662Y0437*
X0662Y04369*
X0662Y04368*
X0662Y04367*
X0662Y04367*
X0662Y04366*
X06621Y04365*
X06621Y04365*
X06621Y04364*
X06622Y04364*
X06622Y04363*
X06622Y04363*
X06623Y04362*
X06623Y04362*
X06624Y04361*
X06625Y04361*
X06625Y04361*
X06626Y0436*
X06626Y0436*
X06627Y0436*
X06628Y0436*
X06628Y0436*
X06629Y0436*
X0663*
X06631Y0436*
X06631Y0436*
X06632Y0436*
X06633Y0436*
X06633Y0436*
X06634Y04361*
X06634Y04361*
X06635Y04361*
X06636Y04362*
X06636Y04362*
X06637Y04363*
X06637Y04363*
X06637Y04364*
X06638Y04364*
X06638Y04365*
X06638Y04365*
X06639Y04366*
X06639Y04367*
X06639Y04367*
X06639Y04368*
X06639Y04369*
X06639Y0437*
X06539D02*
D01*
X06539Y0437*
X06539Y04371*
X06539Y04372*
X06539Y04372*
X06539Y04373*
X06538Y04374*
X06538Y04374*
X06538Y04375*
X06537Y04375*
X06537Y04376*
X06537Y04376*
X06536Y04377*
X06536Y04377*
X06535Y04378*
X06534Y04378*
X06534Y04378*
X06533Y04379*
X06533Y04379*
X06532Y04379*
X06531Y04379*
X06531Y04379*
X0653Y04379*
X06529*
X06528Y04379*
X06528Y04379*
X06527Y04379*
X06526Y04379*
X06526Y04379*
X06525Y04378*
X06525Y04378*
X06524Y04378*
X06523Y04377*
X06523Y04377*
X06522Y04376*
X06522Y04376*
X06522Y04375*
X06521Y04375*
X06521Y04374*
X06521Y04374*
X0652Y04373*
X0652Y04372*
X0652Y04372*
X0652Y04371*
X0652Y0437*
X0652Y0437*
X0652Y04369*
X0652Y04368*
X0652Y04367*
X0652Y04367*
X0652Y04366*
X06521Y04365*
X06521Y04365*
X06521Y04364*
X06522Y04364*
X06522Y04363*
X06522Y04363*
X06523Y04362*
X06523Y04362*
X06524Y04361*
X06525Y04361*
X06525Y04361*
X06526Y0436*
X06526Y0436*
X06527Y0436*
X06528Y0436*
X06528Y0436*
X06529Y0436*
X0653*
X06531Y0436*
X06531Y0436*
X06532Y0436*
X06533Y0436*
X06533Y0436*
X06534Y04361*
X06534Y04361*
X06535Y04361*
X06536Y04362*
X06536Y04362*
X06537Y04363*
X06537Y04363*
X06537Y04364*
X06538Y04364*
X06538Y04365*
X06538Y04365*
X06539Y04366*
X06539Y04367*
X06539Y04367*
X06539Y04368*
X06539Y04369*
X06539Y0437*
X06439D02*
D01*
X06439Y0437*
X06439Y04371*
X06439Y04372*
X06439Y04372*
X06439Y04373*
X06438Y04374*
X06438Y04374*
X06438Y04375*
X06437Y04375*
X06437Y04376*
X06437Y04376*
X06436Y04377*
X06436Y04377*
X06435Y04378*
X06434Y04378*
X06434Y04378*
X06433Y04379*
X06433Y04379*
X06432Y04379*
X06431Y04379*
X06431Y04379*
X0643Y04379*
X06429*
X06428Y04379*
X06428Y04379*
X06427Y04379*
X06426Y04379*
X06426Y04379*
X06425Y04378*
X06425Y04378*
X06424Y04378*
X06423Y04377*
X06423Y04377*
X06422Y04376*
X06422Y04376*
X06422Y04375*
X06421Y04375*
X06421Y04374*
X06421Y04374*
X0642Y04373*
X0642Y04372*
X0642Y04372*
X0642Y04371*
X0642Y0437*
X0642Y0437*
X0642Y04369*
X0642Y04368*
X0642Y04367*
X0642Y04367*
X0642Y04366*
X06421Y04365*
X06421Y04365*
X06421Y04364*
X06422Y04364*
X06422Y04363*
X06422Y04363*
X06423Y04362*
X06423Y04362*
X06424Y04361*
X06425Y04361*
X06425Y04361*
X06426Y0436*
X06426Y0436*
X06427Y0436*
X06428Y0436*
X06428Y0436*
X06429Y0436*
X0643*
X06431Y0436*
X06431Y0436*
X06432Y0436*
X06433Y0436*
X06433Y0436*
X06434Y04361*
X06434Y04361*
X06435Y04361*
X06436Y04362*
X06436Y04362*
X06437Y04363*
X06437Y04363*
X06437Y04364*
X06438Y04364*
X06438Y04365*
X06438Y04365*
X06439Y04366*
X06439Y04367*
X06439Y04367*
X06439Y04368*
X06439Y04369*
X06439Y0437*
X06339D02*
D01*
X06339Y0437*
X06339Y04371*
X06339Y04372*
X06339Y04372*
X06339Y04373*
X06338Y04374*
X06338Y04374*
X06338Y04375*
X06337Y04375*
X06337Y04376*
X06337Y04376*
X06336Y04377*
X06336Y04377*
X06335Y04378*
X06334Y04378*
X06334Y04378*
X06333Y04379*
X06333Y04379*
X06332Y04379*
X06331Y04379*
X06331Y04379*
X0633Y04379*
X06329*
X06328Y04379*
X06328Y04379*
X06327Y04379*
X06326Y04379*
X06326Y04379*
X06325Y04378*
X06325Y04378*
X06324Y04378*
X06323Y04377*
X06323Y04377*
X06322Y04376*
X06322Y04376*
X06322Y04375*
X06321Y04375*
X06321Y04374*
X06321Y04374*
X0632Y04373*
X0632Y04372*
X0632Y04372*
X0632Y04371*
X0632Y0437*
X0632Y0437*
X0632Y04369*
X0632Y04368*
X0632Y04367*
X0632Y04367*
X0632Y04366*
X06321Y04365*
X06321Y04365*
X06321Y04364*
X06322Y04364*
X06322Y04363*
X06322Y04363*
X06323Y04362*
X06323Y04362*
X06324Y04361*
X06325Y04361*
X06325Y04361*
X06326Y0436*
X06326Y0436*
X06327Y0436*
X06328Y0436*
X06328Y0436*
X06329Y0436*
X0633*
X06331Y0436*
X06331Y0436*
X06332Y0436*
X06333Y0436*
X06333Y0436*
X06334Y04361*
X06334Y04361*
X06335Y04361*
X06336Y04362*
X06336Y04362*
X06337Y04363*
X06337Y04363*
X06337Y04364*
X06338Y04364*
X06338Y04365*
X06338Y04365*
X06339Y04366*
X06339Y04367*
X06339Y04367*
X06339Y04368*
X06339Y04369*
X06339Y0437*
X06239D02*
D01*
X06239Y0437*
X06239Y04371*
X06239Y04372*
X06239Y04372*
X06239Y04373*
X06238Y04374*
X06238Y04374*
X06238Y04375*
X06237Y04375*
X06237Y04376*
X06237Y04376*
X06236Y04377*
X06236Y04377*
X06235Y04378*
X06234Y04378*
X06234Y04378*
X06233Y04379*
X06233Y04379*
X06232Y04379*
X06231Y04379*
X06231Y04379*
X0623Y04379*
X06229*
X06228Y04379*
X06228Y04379*
X06227Y04379*
X06226Y04379*
X06226Y04379*
X06225Y04378*
X06225Y04378*
X06224Y04378*
X06223Y04377*
X06223Y04377*
X06222Y04376*
X06222Y04376*
X06222Y04375*
X06221Y04375*
X06221Y04374*
X06221Y04374*
X0622Y04373*
X0622Y04372*
X0622Y04372*
X0622Y04371*
X0622Y0437*
X0622Y0437*
X0622Y04369*
X0622Y04368*
X0622Y04367*
X0622Y04367*
X0622Y04366*
X06221Y04365*
X06221Y04365*
X06221Y04364*
X06222Y04364*
X06222Y04363*
X06222Y04363*
X06223Y04362*
X06223Y04362*
X06224Y04361*
X06225Y04361*
X06225Y04361*
X06226Y0436*
X06226Y0436*
X06227Y0436*
X06228Y0436*
X06228Y0436*
X06229Y0436*
X0623*
X06231Y0436*
X06231Y0436*
X06232Y0436*
X06233Y0436*
X06233Y0436*
X06234Y04361*
X06234Y04361*
X06235Y04361*
X06236Y04362*
X06236Y04362*
X06237Y04363*
X06237Y04363*
X06237Y04364*
X06238Y04364*
X06238Y04365*
X06238Y04365*
X06239Y04366*
X06239Y04367*
X06239Y04367*
X06239Y04368*
X06239Y04369*
X06239Y0437*
X06039D02*
D01*
X06039Y0437*
X06039Y04371*
X06039Y04372*
X06039Y04372*
X06039Y04373*
X06038Y04374*
X06038Y04374*
X06038Y04375*
X06037Y04375*
X06037Y04376*
X06037Y04376*
X06036Y04377*
X06036Y04377*
X06035Y04378*
X06034Y04378*
X06034Y04378*
X06033Y04379*
X06033Y04379*
X06032Y04379*
X06031Y04379*
X06031Y04379*
X0603Y04379*
X06029*
X06028Y04379*
X06028Y04379*
X06027Y04379*
X06026Y04379*
X06026Y04379*
X06025Y04378*
X06025Y04378*
X06024Y04378*
X06023Y04377*
X06023Y04377*
X06022Y04376*
X06022Y04376*
X06022Y04375*
X06021Y04375*
X06021Y04374*
X06021Y04374*
X0602Y04373*
X0602Y04372*
X0602Y04372*
X0602Y04371*
X0602Y0437*
X0602Y0437*
X0602Y04369*
X0602Y04368*
X0602Y04367*
X0602Y04367*
X0602Y04366*
X06021Y04365*
X06021Y04365*
X06021Y04364*
X06022Y04364*
X06022Y04363*
X06022Y04363*
X06023Y04362*
X06023Y04362*
X06024Y04361*
X06025Y04361*
X06025Y04361*
X06026Y0436*
X06026Y0436*
X06027Y0436*
X06028Y0436*
X06028Y0436*
X06029Y0436*
X0603*
X06031Y0436*
X06031Y0436*
X06032Y0436*
X06033Y0436*
X06033Y0436*
X06034Y04361*
X06034Y04361*
X06035Y04361*
X06036Y04362*
X06036Y04362*
X06037Y04363*
X06037Y04363*
X06037Y04364*
X06038Y04364*
X06038Y04365*
X06038Y04365*
X06039Y04366*
X06039Y04367*
X06039Y04367*
X06039Y04368*
X06039Y04369*
X06039Y0437*
X05939D02*
D01*
X05939Y0437*
X05939Y04371*
X05939Y04372*
X05939Y04372*
X05939Y04373*
X05938Y04374*
X05938Y04374*
X05938Y04375*
X05937Y04375*
X05937Y04376*
X05937Y04376*
X05936Y04377*
X05936Y04377*
X05935Y04378*
X05934Y04378*
X05934Y04378*
X05933Y04379*
X05933Y04379*
X05932Y04379*
X05931Y04379*
X05931Y04379*
X0593Y04379*
X05929*
X05928Y04379*
X05928Y04379*
X05927Y04379*
X05926Y04379*
X05926Y04379*
X05925Y04378*
X05925Y04378*
X05924Y04378*
X05923Y04377*
X05923Y04377*
X05922Y04376*
X05922Y04376*
X05922Y04375*
X05921Y04375*
X05921Y04374*
X05921Y04374*
X0592Y04373*
X0592Y04372*
X0592Y04372*
X0592Y04371*
X0592Y0437*
X0592Y0437*
X0592Y04369*
X0592Y04368*
X0592Y04367*
X0592Y04367*
X0592Y04366*
X05921Y04365*
X05921Y04365*
X05921Y04364*
X05922Y04364*
X05922Y04363*
X05922Y04363*
X05923Y04362*
X05923Y04362*
X05924Y04361*
X05925Y04361*
X05925Y04361*
X05926Y0436*
X05926Y0436*
X05927Y0436*
X05928Y0436*
X05928Y0436*
X05929Y0436*
X0593*
X05931Y0436*
X05931Y0436*
X05932Y0436*
X05933Y0436*
X05933Y0436*
X05934Y04361*
X05934Y04361*
X05935Y04361*
X05936Y04362*
X05936Y04362*
X05937Y04363*
X05937Y04363*
X05937Y04364*
X05938Y04364*
X05938Y04365*
X05938Y04365*
X05939Y04366*
X05939Y04367*
X05939Y04367*
X05939Y04368*
X05939Y04369*
X05939Y0437*
X05839D02*
D01*
X05839Y0437*
X05839Y04371*
X05839Y04372*
X05839Y04372*
X05839Y04373*
X05838Y04374*
X05838Y04374*
X05838Y04375*
X05837Y04375*
X05837Y04376*
X05837Y04376*
X05836Y04377*
X05836Y04377*
X05835Y04378*
X05834Y04378*
X05834Y04378*
X05833Y04379*
X05833Y04379*
X05832Y04379*
X05831Y04379*
X05831Y04379*
X0583Y04379*
X05829*
X05828Y04379*
X05828Y04379*
X05827Y04379*
X05826Y04379*
X05826Y04379*
X05825Y04378*
X05825Y04378*
X05824Y04378*
X05823Y04377*
X05823Y04377*
X05822Y04376*
X05822Y04376*
X05822Y04375*
X05821Y04375*
X05821Y04374*
X05821Y04374*
X0582Y04373*
X0582Y04372*
X0582Y04372*
X0582Y04371*
X0582Y0437*
X0582Y0437*
X0582Y04369*
X0582Y04368*
X0582Y04367*
X0582Y04367*
X0582Y04366*
X05821Y04365*
X05821Y04365*
X05821Y04364*
X05822Y04364*
X05822Y04363*
X05822Y04363*
X05823Y04362*
X05823Y04362*
X05824Y04361*
X05825Y04361*
X05825Y04361*
X05826Y0436*
X05826Y0436*
X05827Y0436*
X05828Y0436*
X05828Y0436*
X05829Y0436*
X0583*
X05831Y0436*
X05831Y0436*
X05832Y0436*
X05833Y0436*
X05833Y0436*
X05834Y04361*
X05834Y04361*
X05835Y04361*
X05836Y04362*
X05836Y04362*
X05837Y04363*
X05837Y04363*
X05837Y04364*
X05838Y04364*
X05838Y04365*
X05838Y04365*
X05839Y04366*
X05839Y04367*
X05839Y04367*
X05839Y04368*
X05839Y04369*
X05839Y0437*
X05739D02*
D01*
X05739Y0437*
X05739Y04371*
X05739Y04372*
X05739Y04372*
X05739Y04373*
X05738Y04374*
X05738Y04374*
X05738Y04375*
X05737Y04375*
X05737Y04376*
X05737Y04376*
X05736Y04377*
X05736Y04377*
X05735Y04378*
X05734Y04378*
X05734Y04378*
X05733Y04379*
X05733Y04379*
X05732Y04379*
X05731Y04379*
X05731Y04379*
X0573Y04379*
X05729*
X05728Y04379*
X05728Y04379*
X05727Y04379*
X05726Y04379*
X05726Y04379*
X05725Y04378*
X05725Y04378*
X05724Y04378*
X05723Y04377*
X05723Y04377*
X05722Y04376*
X05722Y04376*
X05722Y04375*
X05721Y04375*
X05721Y04374*
X05721Y04374*
X0572Y04373*
X0572Y04372*
X0572Y04372*
X0572Y04371*
X0572Y0437*
X0572Y0437*
X0572Y04369*
X0572Y04368*
X0572Y04367*
X0572Y04367*
X0572Y04366*
X05721Y04365*
X05721Y04365*
X05721Y04364*
X05722Y04364*
X05722Y04363*
X05722Y04363*
X05723Y04362*
X05723Y04362*
X05724Y04361*
X05725Y04361*
X05725Y04361*
X05726Y0436*
X05726Y0436*
X05727Y0436*
X05728Y0436*
X05728Y0436*
X05729Y0436*
X0573*
X05731Y0436*
X05731Y0436*
X05732Y0436*
X05733Y0436*
X05733Y0436*
X05734Y04361*
X05734Y04361*
X05735Y04361*
X05736Y04362*
X05736Y04362*
X05737Y04363*
X05737Y04363*
X05737Y04364*
X05738Y04364*
X05738Y04365*
X05738Y04365*
X05739Y04366*
X05739Y04367*
X05739Y04367*
X05739Y04368*
X05739Y04369*
X05739Y0437*
X05639D02*
D01*
X05639Y0437*
X05639Y04371*
X05639Y04372*
X05639Y04372*
X05639Y04373*
X05638Y04374*
X05638Y04374*
X05638Y04375*
X05637Y04375*
X05637Y04376*
X05637Y04376*
X05636Y04377*
X05636Y04377*
X05635Y04378*
X05634Y04378*
X05634Y04378*
X05633Y04379*
X05633Y04379*
X05632Y04379*
X05631Y04379*
X05631Y04379*
X0563Y04379*
X05629*
X05628Y04379*
X05628Y04379*
X05627Y04379*
X05626Y04379*
X05626Y04379*
X05625Y04378*
X05625Y04378*
X05624Y04378*
X05623Y04377*
X05623Y04377*
X05622Y04376*
X05622Y04376*
X05622Y04375*
X05621Y04375*
X05621Y04374*
X05621Y04374*
X0562Y04373*
X0562Y04372*
X0562Y04372*
X0562Y04371*
X0562Y0437*
X0562Y0437*
X0562Y04369*
X0562Y04368*
X0562Y04367*
X0562Y04367*
X0562Y04366*
X05621Y04365*
X05621Y04365*
X05621Y04364*
X05622Y04364*
X05622Y04363*
X05622Y04363*
X05623Y04362*
X05623Y04362*
X05624Y04361*
X05625Y04361*
X05625Y04361*
X05626Y0436*
X05626Y0436*
X05627Y0436*
X05628Y0436*
X05628Y0436*
X05629Y0436*
X0563*
X05631Y0436*
X05631Y0436*
X05632Y0436*
X05633Y0436*
X05633Y0436*
X05634Y04361*
X05634Y04361*
X05635Y04361*
X05636Y04362*
X05636Y04362*
X05637Y04363*
X05637Y04363*
X05637Y04364*
X05638Y04364*
X05638Y04365*
X05638Y04365*
X05639Y04366*
X05639Y04367*
X05639Y04367*
X05639Y04368*
X05639Y04369*
X05639Y0437*
X05539D02*
D01*
X05539Y0437*
X05539Y04371*
X05539Y04372*
X05539Y04372*
X05539Y04373*
X05538Y04374*
X05538Y04374*
X05538Y04375*
X05537Y04375*
X05537Y04376*
X05537Y04376*
X05536Y04377*
X05536Y04377*
X05535Y04378*
X05534Y04378*
X05534Y04378*
X05533Y04379*
X05533Y04379*
X05532Y04379*
X05531Y04379*
X05531Y04379*
X0553Y04379*
X05529*
X05528Y04379*
X05528Y04379*
X05527Y04379*
X05526Y04379*
X05526Y04379*
X05525Y04378*
X05525Y04378*
X05524Y04378*
X05523Y04377*
X05523Y04377*
X05522Y04376*
X05522Y04376*
X05522Y04375*
X05521Y04375*
X05521Y04374*
X05521Y04374*
X0552Y04373*
X0552Y04372*
X0552Y04372*
X0552Y04371*
X0552Y0437*
X0552Y0437*
X0552Y04369*
X0552Y04368*
X0552Y04367*
X0552Y04367*
X0552Y04366*
X05521Y04365*
X05521Y04365*
X05521Y04364*
X05522Y04364*
X05522Y04363*
X05522Y04363*
X05523Y04362*
X05523Y04362*
X05524Y04361*
X05525Y04361*
X05525Y04361*
X05526Y0436*
X05526Y0436*
X05527Y0436*
X05528Y0436*
X05528Y0436*
X05529Y0436*
X0553*
X05531Y0436*
X05531Y0436*
X05532Y0436*
X05533Y0436*
X05533Y0436*
X05534Y04361*
X05534Y04361*
X05535Y04361*
X05536Y04362*
X05536Y04362*
X05537Y04363*
X05537Y04363*
X05537Y04364*
X05538Y04364*
X05538Y04365*
X05538Y04365*
X05539Y04366*
X05539Y04367*
X05539Y04367*
X05539Y04368*
X05539Y04369*
X05539Y0437*
X05439D02*
D01*
X05439Y0437*
X05439Y04371*
X05439Y04372*
X05439Y04372*
X05439Y04373*
X05438Y04374*
X05438Y04374*
X05438Y04375*
X05437Y04375*
X05437Y04376*
X05437Y04376*
X05436Y04377*
X05436Y04377*
X05435Y04378*
X05434Y04378*
X05434Y04378*
X05433Y04379*
X05433Y04379*
X05432Y04379*
X05431Y04379*
X05431Y04379*
X0543Y04379*
X05429*
X05428Y04379*
X05428Y04379*
X05427Y04379*
X05426Y04379*
X05426Y04379*
X05425Y04378*
X05425Y04378*
X05424Y04378*
X05423Y04377*
X05423Y04377*
X05422Y04376*
X05422Y04376*
X05422Y04375*
X05421Y04375*
X05421Y04374*
X05421Y04374*
X0542Y04373*
X0542Y04372*
X0542Y04372*
X0542Y04371*
X0542Y0437*
X0542Y0437*
X0542Y04369*
X0542Y04368*
X0542Y04367*
X0542Y04367*
X0542Y04366*
X05421Y04365*
X05421Y04365*
X05421Y04364*
X05422Y04364*
X05422Y04363*
X05422Y04363*
X05423Y04362*
X05423Y04362*
X05424Y04361*
X05425Y04361*
X05425Y04361*
X05426Y0436*
X05426Y0436*
X05427Y0436*
X05428Y0436*
X05428Y0436*
X05429Y0436*
X0543*
X05431Y0436*
X05431Y0436*
X05432Y0436*
X05433Y0436*
X05433Y0436*
X05434Y04361*
X05434Y04361*
X05435Y04361*
X05436Y04362*
X05436Y04362*
X05437Y04363*
X05437Y04363*
X05437Y04364*
X05438Y04364*
X05438Y04365*
X05438Y04365*
X05439Y04366*
X05439Y04367*
X05439Y04367*
X05439Y04368*
X05439Y04369*
X05439Y0437*
Y03746D02*
D01*
X05439Y03746*
X05439Y03747*
X05439Y03748*
X05439Y03748*
X05439Y03749*
X05438Y0375*
X05438Y0375*
X05438Y03751*
X05437Y03751*
X05437Y03752*
X05437Y03752*
X05436Y03753*
X05436Y03753*
X05435Y03754*
X05434Y03754*
X05434Y03754*
X05433Y03755*
X05433Y03755*
X05432Y03755*
X05431Y03755*
X05431Y03755*
X0543Y03755*
X05429*
X05428Y03755*
X05428Y03755*
X05427Y03755*
X05426Y03755*
X05426Y03755*
X05425Y03754*
X05425Y03754*
X05424Y03754*
X05423Y03753*
X05423Y03753*
X05422Y03752*
X05422Y03752*
X05422Y03751*
X05421Y03751*
X05421Y0375*
X05421Y0375*
X0542Y03749*
X0542Y03748*
X0542Y03748*
X0542Y03747*
X0542Y03746*
X0542Y03746*
X0542Y03745*
X0542Y03744*
X0542Y03743*
X0542Y03743*
X0542Y03742*
X05421Y03742*
X05421Y03741*
X05421Y0374*
X05422Y0374*
X05422Y03739*
X05422Y03739*
X05423Y03738*
X05423Y03738*
X05424Y03737*
X05425Y03737*
X05425Y03737*
X05426Y03736*
X05426Y03736*
X05427Y03736*
X05428Y03736*
X05428Y03736*
X05429Y03736*
X0543*
X05431Y03736*
X05431Y03736*
X05432Y03736*
X05433Y03736*
X05433Y03736*
X05434Y03737*
X05434Y03737*
X05435Y03737*
X05436Y03738*
X05436Y03738*
X05437Y03739*
X05437Y03739*
X05437Y0374*
X05438Y0374*
X05438Y03741*
X05438Y03742*
X05439Y03742*
X05439Y03743*
X05439Y03743*
X05439Y03744*
X05439Y03745*
X05439Y03746*
X05539D02*
D01*
X05539Y03746*
X05539Y03747*
X05539Y03748*
X05539Y03748*
X05539Y03749*
X05538Y0375*
X05538Y0375*
X05538Y03751*
X05537Y03751*
X05537Y03752*
X05537Y03752*
X05536Y03753*
X05536Y03753*
X05535Y03754*
X05534Y03754*
X05534Y03754*
X05533Y03755*
X05533Y03755*
X05532Y03755*
X05531Y03755*
X05531Y03755*
X0553Y03755*
X05529*
X05528Y03755*
X05528Y03755*
X05527Y03755*
X05526Y03755*
X05526Y03755*
X05525Y03754*
X05525Y03754*
X05524Y03754*
X05523Y03753*
X05523Y03753*
X05522Y03752*
X05522Y03752*
X05522Y03751*
X05521Y03751*
X05521Y0375*
X05521Y0375*
X0552Y03749*
X0552Y03748*
X0552Y03748*
X0552Y03747*
X0552Y03746*
X0552Y03746*
X0552Y03745*
X0552Y03744*
X0552Y03743*
X0552Y03743*
X0552Y03742*
X05521Y03742*
X05521Y03741*
X05521Y0374*
X05522Y0374*
X05522Y03739*
X05522Y03739*
X05523Y03738*
X05523Y03738*
X05524Y03737*
X05525Y03737*
X05525Y03737*
X05526Y03736*
X05526Y03736*
X05527Y03736*
X05528Y03736*
X05528Y03736*
X05529Y03736*
X0553*
X05531Y03736*
X05531Y03736*
X05532Y03736*
X05533Y03736*
X05533Y03736*
X05534Y03737*
X05534Y03737*
X05535Y03737*
X05536Y03738*
X05536Y03738*
X05537Y03739*
X05537Y03739*
X05537Y0374*
X05538Y0374*
X05538Y03741*
X05538Y03742*
X05539Y03742*
X05539Y03743*
X05539Y03743*
X05539Y03744*
X05539Y03745*
X05539Y03746*
X05639D02*
D01*
X05639Y03746*
X05639Y03747*
X05639Y03748*
X05639Y03748*
X05639Y03749*
X05638Y0375*
X05638Y0375*
X05638Y03751*
X05637Y03751*
X05637Y03752*
X05637Y03752*
X05636Y03753*
X05636Y03753*
X05635Y03754*
X05634Y03754*
X05634Y03754*
X05633Y03755*
X05633Y03755*
X05632Y03755*
X05631Y03755*
X05631Y03755*
X0563Y03755*
X05629*
X05628Y03755*
X05628Y03755*
X05627Y03755*
X05626Y03755*
X05626Y03755*
X05625Y03754*
X05625Y03754*
X05624Y03754*
X05623Y03753*
X05623Y03753*
X05622Y03752*
X05622Y03752*
X05622Y03751*
X05621Y03751*
X05621Y0375*
X05621Y0375*
X0562Y03749*
X0562Y03748*
X0562Y03748*
X0562Y03747*
X0562Y03746*
X0562Y03746*
X0562Y03745*
X0562Y03744*
X0562Y03743*
X0562Y03743*
X0562Y03742*
X05621Y03742*
X05621Y03741*
X05621Y0374*
X05622Y0374*
X05622Y03739*
X05622Y03739*
X05623Y03738*
X05623Y03738*
X05624Y03737*
X05625Y03737*
X05625Y03737*
X05626Y03736*
X05626Y03736*
X05627Y03736*
X05628Y03736*
X05628Y03736*
X05629Y03736*
X0563*
X05631Y03736*
X05631Y03736*
X05632Y03736*
X05633Y03736*
X05633Y03736*
X05634Y03737*
X05634Y03737*
X05635Y03737*
X05636Y03738*
X05636Y03738*
X05637Y03739*
X05637Y03739*
X05637Y0374*
X05638Y0374*
X05638Y03741*
X05638Y03742*
X05639Y03742*
X05639Y03743*
X05639Y03743*
X05639Y03744*
X05639Y03745*
X05639Y03746*
X05739D02*
D01*
X05739Y03746*
X05739Y03747*
X05739Y03748*
X05739Y03748*
X05739Y03749*
X05738Y0375*
X05738Y0375*
X05738Y03751*
X05737Y03751*
X05737Y03752*
X05737Y03752*
X05736Y03753*
X05736Y03753*
X05735Y03754*
X05734Y03754*
X05734Y03754*
X05733Y03755*
X05733Y03755*
X05732Y03755*
X05731Y03755*
X05731Y03755*
X0573Y03755*
X05729*
X05728Y03755*
X05728Y03755*
X05727Y03755*
X05726Y03755*
X05726Y03755*
X05725Y03754*
X05725Y03754*
X05724Y03754*
X05723Y03753*
X05723Y03753*
X05722Y03752*
X05722Y03752*
X05722Y03751*
X05721Y03751*
X05721Y0375*
X05721Y0375*
X0572Y03749*
X0572Y03748*
X0572Y03748*
X0572Y03747*
X0572Y03746*
X0572Y03746*
X0572Y03745*
X0572Y03744*
X0572Y03743*
X0572Y03743*
X0572Y03742*
X05721Y03742*
X05721Y03741*
X05721Y0374*
X05722Y0374*
X05722Y03739*
X05722Y03739*
X05723Y03738*
X05723Y03738*
X05724Y03737*
X05725Y03737*
X05725Y03737*
X05726Y03736*
X05726Y03736*
X05727Y03736*
X05728Y03736*
X05728Y03736*
X05729Y03736*
X0573*
X05731Y03736*
X05731Y03736*
X05732Y03736*
X05733Y03736*
X05733Y03736*
X05734Y03737*
X05734Y03737*
X05735Y03737*
X05736Y03738*
X05736Y03738*
X05737Y03739*
X05737Y03739*
X05737Y0374*
X05738Y0374*
X05738Y03741*
X05738Y03742*
X05739Y03742*
X05739Y03743*
X05739Y03743*
X05739Y03744*
X05739Y03745*
X05739Y03746*
X05839D02*
D01*
X05839Y03746*
X05839Y03747*
X05839Y03748*
X05839Y03748*
X05839Y03749*
X05838Y0375*
X05838Y0375*
X05838Y03751*
X05837Y03751*
X05837Y03752*
X05837Y03752*
X05836Y03753*
X05836Y03753*
X05835Y03754*
X05834Y03754*
X05834Y03754*
X05833Y03755*
X05833Y03755*
X05832Y03755*
X05831Y03755*
X05831Y03755*
X0583Y03755*
X05829*
X05828Y03755*
X05828Y03755*
X05827Y03755*
X05826Y03755*
X05826Y03755*
X05825Y03754*
X05825Y03754*
X05824Y03754*
X05823Y03753*
X05823Y03753*
X05822Y03752*
X05822Y03752*
X05822Y03751*
X05821Y03751*
X05821Y0375*
X05821Y0375*
X0582Y03749*
X0582Y03748*
X0582Y03748*
X0582Y03747*
X0582Y03746*
X0582Y03746*
X0582Y03745*
X0582Y03744*
X0582Y03743*
X0582Y03743*
X0582Y03742*
X05821Y03742*
X05821Y03741*
X05821Y0374*
X05822Y0374*
X05822Y03739*
X05822Y03739*
X05823Y03738*
X05823Y03738*
X05824Y03737*
X05825Y03737*
X05825Y03737*
X05826Y03736*
X05826Y03736*
X05827Y03736*
X05828Y03736*
X05828Y03736*
X05829Y03736*
X0583*
X05831Y03736*
X05831Y03736*
X05832Y03736*
X05833Y03736*
X05833Y03736*
X05834Y03737*
X05834Y03737*
X05835Y03737*
X05836Y03738*
X05836Y03738*
X05837Y03739*
X05837Y03739*
X05837Y0374*
X05838Y0374*
X05838Y03741*
X05838Y03742*
X05839Y03742*
X05839Y03743*
X05839Y03743*
X05839Y03744*
X05839Y03745*
X05839Y03746*
X05939D02*
D01*
X05939Y03746*
X05939Y03747*
X05939Y03748*
X05939Y03748*
X05939Y03749*
X05938Y0375*
X05938Y0375*
X05938Y03751*
X05937Y03751*
X05937Y03752*
X05937Y03752*
X05936Y03753*
X05936Y03753*
X05935Y03754*
X05934Y03754*
X05934Y03754*
X05933Y03755*
X05933Y03755*
X05932Y03755*
X05931Y03755*
X05931Y03755*
X0593Y03755*
X05929*
X05928Y03755*
X05928Y03755*
X05927Y03755*
X05926Y03755*
X05926Y03755*
X05925Y03754*
X05925Y03754*
X05924Y03754*
X05923Y03753*
X05923Y03753*
X05922Y03752*
X05922Y03752*
X05922Y03751*
X05921Y03751*
X05921Y0375*
X05921Y0375*
X0592Y03749*
X0592Y03748*
X0592Y03748*
X0592Y03747*
X0592Y03746*
X0592Y03746*
X0592Y03745*
X0592Y03744*
X0592Y03743*
X0592Y03743*
X0592Y03742*
X05921Y03742*
X05921Y03741*
X05921Y0374*
X05922Y0374*
X05922Y03739*
X05922Y03739*
X05923Y03738*
X05923Y03738*
X05924Y03737*
X05925Y03737*
X05925Y03737*
X05926Y03736*
X05926Y03736*
X05927Y03736*
X05928Y03736*
X05928Y03736*
X05929Y03736*
X0593*
X05931Y03736*
X05931Y03736*
X05932Y03736*
X05933Y03736*
X05933Y03736*
X05934Y03737*
X05934Y03737*
X05935Y03737*
X05936Y03738*
X05936Y03738*
X05937Y03739*
X05937Y03739*
X05937Y0374*
X05938Y0374*
X05938Y03741*
X05938Y03742*
X05939Y03742*
X05939Y03743*
X05939Y03743*
X05939Y03744*
X05939Y03745*
X05939Y03746*
X06039D02*
D01*
X06039Y03746*
X06039Y03747*
X06039Y03748*
X06039Y03748*
X06039Y03749*
X06038Y0375*
X06038Y0375*
X06038Y03751*
X06037Y03751*
X06037Y03752*
X06037Y03752*
X06036Y03753*
X06036Y03753*
X06035Y03754*
X06034Y03754*
X06034Y03754*
X06033Y03755*
X06033Y03755*
X06032Y03755*
X06031Y03755*
X06031Y03755*
X0603Y03755*
X06029*
X06028Y03755*
X06028Y03755*
X06027Y03755*
X06026Y03755*
X06026Y03755*
X06025Y03754*
X06025Y03754*
X06024Y03754*
X06023Y03753*
X06023Y03753*
X06022Y03752*
X06022Y03752*
X06022Y03751*
X06021Y03751*
X06021Y0375*
X06021Y0375*
X0602Y03749*
X0602Y03748*
X0602Y03748*
X0602Y03747*
X0602Y03746*
X0602Y03746*
X0602Y03745*
X0602Y03744*
X0602Y03743*
X0602Y03743*
X0602Y03742*
X06021Y03742*
X06021Y03741*
X06021Y0374*
X06022Y0374*
X06022Y03739*
X06022Y03739*
X06023Y03738*
X06023Y03738*
X06024Y03737*
X06025Y03737*
X06025Y03737*
X06026Y03736*
X06026Y03736*
X06027Y03736*
X06028Y03736*
X06028Y03736*
X06029Y03736*
X0603*
X06031Y03736*
X06031Y03736*
X06032Y03736*
X06033Y03736*
X06033Y03736*
X06034Y03737*
X06034Y03737*
X06035Y03737*
X06036Y03738*
X06036Y03738*
X06037Y03739*
X06037Y03739*
X06037Y0374*
X06038Y0374*
X06038Y03741*
X06038Y03742*
X06039Y03742*
X06039Y03743*
X06039Y03743*
X06039Y03744*
X06039Y03745*
X06039Y03746*
X06139D02*
D01*
X06139Y03746*
X06139Y03747*
X06139Y03748*
X06139Y03748*
X06139Y03749*
X06138Y0375*
X06138Y0375*
X06138Y03751*
X06137Y03751*
X06137Y03752*
X06137Y03752*
X06136Y03753*
X06136Y03753*
X06135Y03754*
X06134Y03754*
X06134Y03754*
X06133Y03755*
X06133Y03755*
X06132Y03755*
X06131Y03755*
X06131Y03755*
X0613Y03755*
X06129*
X06128Y03755*
X06128Y03755*
X06127Y03755*
X06126Y03755*
X06126Y03755*
X06125Y03754*
X06125Y03754*
X06124Y03754*
X06123Y03753*
X06123Y03753*
X06122Y03752*
X06122Y03752*
X06122Y03751*
X06121Y03751*
X06121Y0375*
X06121Y0375*
X0612Y03749*
X0612Y03748*
X0612Y03748*
X0612Y03747*
X0612Y03746*
X0612Y03746*
X0612Y03745*
X0612Y03744*
X0612Y03743*
X0612Y03743*
X0612Y03742*
X06121Y03742*
X06121Y03741*
X06121Y0374*
X06122Y0374*
X06122Y03739*
X06122Y03739*
X06123Y03738*
X06123Y03738*
X06124Y03737*
X06125Y03737*
X06125Y03737*
X06126Y03736*
X06126Y03736*
X06127Y03736*
X06128Y03736*
X06128Y03736*
X06129Y03736*
X0613*
X06131Y03736*
X06131Y03736*
X06132Y03736*
X06133Y03736*
X06133Y03736*
X06134Y03737*
X06134Y03737*
X06135Y03737*
X06136Y03738*
X06136Y03738*
X06137Y03739*
X06137Y03739*
X06137Y0374*
X06138Y0374*
X06138Y03741*
X06138Y03742*
X06139Y03742*
X06139Y03743*
X06139Y03743*
X06139Y03744*
X06139Y03745*
X06139Y03746*
X06239D02*
D01*
X06239Y03746*
X06239Y03747*
X06239Y03748*
X06239Y03748*
X06239Y03749*
X06238Y0375*
X06238Y0375*
X06238Y03751*
X06237Y03751*
X06237Y03752*
X06237Y03752*
X06236Y03753*
X06236Y03753*
X06235Y03754*
X06234Y03754*
X06234Y03754*
X06233Y03755*
X06233Y03755*
X06232Y03755*
X06231Y03755*
X06231Y03755*
X0623Y03755*
X06229*
X06228Y03755*
X06228Y03755*
X06227Y03755*
X06226Y03755*
X06226Y03755*
X06225Y03754*
X06225Y03754*
X06224Y03754*
X06223Y03753*
X06223Y03753*
X06222Y03752*
X06222Y03752*
X06222Y03751*
X06221Y03751*
X06221Y0375*
X06221Y0375*
X0622Y03749*
X0622Y03748*
X0622Y03748*
X0622Y03747*
X0622Y03746*
X0622Y03746*
X0622Y03745*
X0622Y03744*
X0622Y03743*
X0622Y03743*
X0622Y03742*
X06221Y03742*
X06221Y03741*
X06221Y0374*
X06222Y0374*
X06222Y03739*
X06222Y03739*
X06223Y03738*
X06223Y03738*
X06224Y03737*
X06225Y03737*
X06225Y03737*
X06226Y03736*
X06226Y03736*
X06227Y03736*
X06228Y03736*
X06228Y03736*
X06229Y03736*
X0623*
X06231Y03736*
X06231Y03736*
X06232Y03736*
X06233Y03736*
X06233Y03736*
X06234Y03737*
X06234Y03737*
X06235Y03737*
X06236Y03738*
X06236Y03738*
X06237Y03739*
X06237Y03739*
X06237Y0374*
X06238Y0374*
X06238Y03741*
X06238Y03742*
X06239Y03742*
X06239Y03743*
X06239Y03743*
X06239Y03744*
X06239Y03745*
X06239Y03746*
X06339D02*
D01*
X06339Y03746*
X06339Y03747*
X06339Y03748*
X06339Y03748*
X06339Y03749*
X06338Y0375*
X06338Y0375*
X06338Y03751*
X06337Y03751*
X06337Y03752*
X06337Y03752*
X06336Y03753*
X06336Y03753*
X06335Y03754*
X06334Y03754*
X06334Y03754*
X06333Y03755*
X06333Y03755*
X06332Y03755*
X06331Y03755*
X06331Y03755*
X0633Y03755*
X06329*
X06328Y03755*
X06328Y03755*
X06327Y03755*
X06326Y03755*
X06326Y03755*
X06325Y03754*
X06325Y03754*
X06324Y03754*
X06323Y03753*
X06323Y03753*
X06322Y03752*
X06322Y03752*
X06322Y03751*
X06321Y03751*
X06321Y0375*
X06321Y0375*
X0632Y03749*
X0632Y03748*
X0632Y03748*
X0632Y03747*
X0632Y03746*
X0632Y03746*
X0632Y03745*
X0632Y03744*
X0632Y03743*
X0632Y03743*
X0632Y03742*
X06321Y03742*
X06321Y03741*
X06321Y0374*
X06322Y0374*
X06322Y03739*
X06322Y03739*
X06323Y03738*
X06323Y03738*
X06324Y03737*
X06325Y03737*
X06325Y03737*
X06326Y03736*
X06326Y03736*
X06327Y03736*
X06328Y03736*
X06328Y03736*
X06329Y03736*
X0633*
X06331Y03736*
X06331Y03736*
X06332Y03736*
X06333Y03736*
X06333Y03736*
X06334Y03737*
X06334Y03737*
X06335Y03737*
X06336Y03738*
X06336Y03738*
X06337Y03739*
X06337Y03739*
X06337Y0374*
X06338Y0374*
X06338Y03741*
X06338Y03742*
X06339Y03742*
X06339Y03743*
X06339Y03743*
X06339Y03744*
X06339Y03745*
X06339Y03746*
X06439D02*
D01*
X06439Y03746*
X06439Y03747*
X06439Y03748*
X06439Y03748*
X06439Y03749*
X06438Y0375*
X06438Y0375*
X06438Y03751*
X06437Y03751*
X06437Y03752*
X06437Y03752*
X06436Y03753*
X06436Y03753*
X06435Y03754*
X06434Y03754*
X06434Y03754*
X06433Y03755*
X06433Y03755*
X06432Y03755*
X06431Y03755*
X06431Y03755*
X0643Y03755*
X06429*
X06428Y03755*
X06428Y03755*
X06427Y03755*
X06426Y03755*
X06426Y03755*
X06425Y03754*
X06425Y03754*
X06424Y03754*
X06423Y03753*
X06423Y03753*
X06422Y03752*
X06422Y03752*
X06422Y03751*
X06421Y03751*
X06421Y0375*
X06421Y0375*
X0642Y03749*
X0642Y03748*
X0642Y03748*
X0642Y03747*
X0642Y03746*
X0642Y03746*
X0642Y03745*
X0642Y03744*
X0642Y03743*
X0642Y03743*
X0642Y03742*
X06421Y03742*
X06421Y03741*
X06421Y0374*
X06422Y0374*
X06422Y03739*
X06422Y03739*
X06423Y03738*
X06423Y03738*
X06424Y03737*
X06425Y03737*
X06425Y03737*
X06426Y03736*
X06426Y03736*
X06427Y03736*
X06428Y03736*
X06428Y03736*
X06429Y03736*
X0643*
X06431Y03736*
X06431Y03736*
X06432Y03736*
X06433Y03736*
X06433Y03736*
X06434Y03737*
X06434Y03737*
X06435Y03737*
X06436Y03738*
X06436Y03738*
X06437Y03739*
X06437Y03739*
X06437Y0374*
X06438Y0374*
X06438Y03741*
X06438Y03742*
X06439Y03742*
X06439Y03743*
X06439Y03743*
X06439Y03744*
X06439Y03745*
X06439Y03746*
X06539D02*
D01*
X06539Y03746*
X06539Y03747*
X06539Y03748*
X06539Y03748*
X06539Y03749*
X06538Y0375*
X06538Y0375*
X06538Y03751*
X06537Y03751*
X06537Y03752*
X06537Y03752*
X06536Y03753*
X06536Y03753*
X06535Y03754*
X06534Y03754*
X06534Y03754*
X06533Y03755*
X06533Y03755*
X06532Y03755*
X06531Y03755*
X06531Y03755*
X0653Y03755*
X06529*
X06528Y03755*
X06528Y03755*
X06527Y03755*
X06526Y03755*
X06526Y03755*
X06525Y03754*
X06525Y03754*
X06524Y03754*
X06523Y03753*
X06523Y03753*
X06522Y03752*
X06522Y03752*
X06522Y03751*
X06521Y03751*
X06521Y0375*
X06521Y0375*
X0652Y03749*
X0652Y03748*
X0652Y03748*
X0652Y03747*
X0652Y03746*
X0652Y03746*
X0652Y03745*
X0652Y03744*
X0652Y03743*
X0652Y03743*
X0652Y03742*
X06521Y03742*
X06521Y03741*
X06521Y0374*
X06522Y0374*
X06522Y03739*
X06522Y03739*
X06523Y03738*
X06523Y03738*
X06524Y03737*
X06525Y03737*
X06525Y03737*
X06526Y03736*
X06526Y03736*
X06527Y03736*
X06528Y03736*
X06528Y03736*
X06529Y03736*
X0653*
X06531Y03736*
X06531Y03736*
X06532Y03736*
X06533Y03736*
X06533Y03736*
X06534Y03737*
X06534Y03737*
X06535Y03737*
X06536Y03738*
X06536Y03738*
X06537Y03739*
X06537Y03739*
X06537Y0374*
X06538Y0374*
X06538Y03741*
X06538Y03742*
X06539Y03742*
X06539Y03743*
X06539Y03743*
X06539Y03744*
X06539Y03745*
X06539Y03746*
X06639D02*
D01*
X06639Y03746*
X06639Y03747*
X06639Y03748*
X06639Y03748*
X06639Y03749*
X06638Y0375*
X06638Y0375*
X06638Y03751*
X06637Y03751*
X06637Y03752*
X06637Y03752*
X06636Y03753*
X06636Y03753*
X06635Y03754*
X06634Y03754*
X06634Y03754*
X06633Y03755*
X06633Y03755*
X06632Y03755*
X06631Y03755*
X06631Y03755*
X0663Y03755*
X06629*
X06628Y03755*
X06628Y03755*
X06627Y03755*
X06626Y03755*
X06626Y03755*
X06625Y03754*
X06625Y03754*
X06624Y03754*
X06623Y03753*
X06623Y03753*
X06622Y03752*
X06622Y03752*
X06622Y03751*
X06621Y03751*
X06621Y0375*
X06621Y0375*
X0662Y03749*
X0662Y03748*
X0662Y03748*
X0662Y03747*
X0662Y03746*
X0662Y03746*
X0662Y03745*
X0662Y03744*
X0662Y03743*
X0662Y03743*
X0662Y03742*
X06621Y03742*
X06621Y03741*
X06621Y0374*
X06622Y0374*
X06622Y03739*
X06622Y03739*
X06623Y03738*
X06623Y03738*
X06624Y03737*
X06625Y03737*
X06625Y03737*
X06626Y03736*
X06626Y03736*
X06627Y03736*
X06628Y03736*
X06628Y03736*
X06629Y03736*
X0663*
X06631Y03736*
X06631Y03736*
X06632Y03736*
X06633Y03736*
X06633Y03736*
X06634Y03737*
X06634Y03737*
X06635Y03737*
X06636Y03738*
X06636Y03738*
X06637Y03739*
X06637Y03739*
X06637Y0374*
X06638Y0374*
X06638Y03741*
X06638Y03742*
X06639Y03742*
X06639Y03743*
X06639Y03743*
X06639Y03744*
X06639Y03745*
X06639Y03746*
X06739D02*
D01*
X06739Y03746*
X06739Y03747*
X06739Y03748*
X06739Y03748*
X06739Y03749*
X06738Y0375*
X06738Y0375*
X06738Y03751*
X06737Y03751*
X06737Y03752*
X06737Y03752*
X06736Y03753*
X06736Y03753*
X06735Y03754*
X06734Y03754*
X06734Y03754*
X06733Y03755*
X06733Y03755*
X06732Y03755*
X06731Y03755*
X06731Y03755*
X0673Y03755*
X06729*
X06728Y03755*
X06728Y03755*
X06727Y03755*
X06726Y03755*
X06726Y03755*
X06725Y03754*
X06725Y03754*
X06724Y03754*
X06723Y03753*
X06723Y03753*
X06722Y03752*
X06722Y03752*
X06722Y03751*
X06721Y03751*
X06721Y0375*
X06721Y0375*
X0672Y03749*
X0672Y03748*
X0672Y03748*
X0672Y03747*
X0672Y03746*
X0672Y03746*
X0672Y03745*
X0672Y03744*
X0672Y03743*
X0672Y03743*
X0672Y03742*
X06721Y03742*
X06721Y03741*
X06721Y0374*
X06722Y0374*
X06722Y03739*
X06722Y03739*
X06723Y03738*
X06723Y03738*
X06724Y03737*
X06725Y03737*
X06725Y03737*
X06726Y03736*
X06726Y03736*
X06727Y03736*
X06728Y03736*
X06728Y03736*
X06729Y03736*
X0673*
X06731Y03736*
X06731Y03736*
X06732Y03736*
X06733Y03736*
X06733Y03736*
X06734Y03737*
X06734Y03737*
X06735Y03737*
X06736Y03738*
X06736Y03738*
X06737Y03739*
X06737Y03739*
X06737Y0374*
X06738Y0374*
X06738Y03741*
X06738Y03742*
X06739Y03742*
X06739Y03743*
X06739Y03743*
X06739Y03744*
X06739Y03745*
X06739Y03746*
X05094Y03745D02*
D01*
X05094Y03745*
X05094Y03746*
X05094Y03747*
X05094Y03747*
X05094Y03748*
X05093Y03749*
X05093Y03749*
X05093Y0375*
X05092Y0375*
X05092Y03751*
X05092Y03751*
X05091Y03752*
X05091Y03752*
X0509Y03753*
X05089Y03753*
X05089Y03753*
X05088Y03754*
X05088Y03754*
X05087Y03754*
X05086Y03754*
X05086Y03754*
X05085Y03754*
X05084*
X05083Y03754*
X05083Y03754*
X05082Y03754*
X05081Y03754*
X05081Y03754*
X0508Y03753*
X0508Y03753*
X05079Y03753*
X05078Y03752*
X05078Y03752*
X05077Y03751*
X05077Y03751*
X05077Y0375*
X05076Y0375*
X05076Y03749*
X05076Y03749*
X05075Y03748*
X05075Y03747*
X05075Y03747*
X05075Y03746*
X05075Y03745*
X05075Y03745*
X05075Y03744*
X05075Y03743*
X05075Y03742*
X05075Y03742*
X05075Y03741*
X05076Y0374*
X05076Y0374*
X05076Y03739*
X05077Y03739*
X05077Y03738*
X05077Y03738*
X05078Y03737*
X05078Y03737*
X05079Y03736*
X0508Y03736*
X0508Y03736*
X05081Y03735*
X05081Y03735*
X05082Y03735*
X05083Y03735*
X05083Y03735*
X05084Y03735*
X05085*
X05086Y03735*
X05086Y03735*
X05087Y03735*
X05088Y03735*
X05088Y03735*
X05089Y03736*
X05089Y03736*
X0509Y03736*
X05091Y03737*
X05091Y03737*
X05092Y03738*
X05092Y03738*
X05092Y03739*
X05093Y03739*
X05093Y0374*
X05093Y0374*
X05094Y03741*
X05094Y03742*
X05094Y03742*
X05094Y03743*
X05094Y03744*
X05094Y03745*
X04994D02*
D01*
X04994Y03745*
X04994Y03746*
X04994Y03747*
X04994Y03747*
X04994Y03748*
X04993Y03749*
X04993Y03749*
X04993Y0375*
X04992Y0375*
X04992Y03751*
X04992Y03751*
X04991Y03752*
X04991Y03752*
X0499Y03753*
X04989Y03753*
X04989Y03753*
X04988Y03754*
X04988Y03754*
X04987Y03754*
X04986Y03754*
X04986Y03754*
X04985Y03754*
X04984*
X04983Y03754*
X04983Y03754*
X04982Y03754*
X04981Y03754*
X04981Y03754*
X0498Y03753*
X0498Y03753*
X04979Y03753*
X04978Y03752*
X04978Y03752*
X04977Y03751*
X04977Y03751*
X04977Y0375*
X04976Y0375*
X04976Y03749*
X04976Y03749*
X04975Y03748*
X04975Y03747*
X04975Y03747*
X04975Y03746*
X04975Y03745*
X04975Y03745*
X04975Y03744*
X04975Y03743*
X04975Y03742*
X04975Y03742*
X04975Y03741*
X04976Y0374*
X04976Y0374*
X04976Y03739*
X04977Y03739*
X04977Y03738*
X04977Y03738*
X04978Y03737*
X04978Y03737*
X04979Y03736*
X0498Y03736*
X0498Y03736*
X04981Y03735*
X04981Y03735*
X04982Y03735*
X04983Y03735*
X04983Y03735*
X04984Y03735*
X04985*
X04986Y03735*
X04986Y03735*
X04987Y03735*
X04988Y03735*
X04988Y03735*
X04989Y03736*
X04989Y03736*
X0499Y03736*
X04991Y03737*
X04991Y03737*
X04992Y03738*
X04992Y03738*
X04992Y03739*
X04993Y03739*
X04993Y0374*
X04993Y0374*
X04994Y03741*
X04994Y03742*
X04994Y03742*
X04994Y03743*
X04994Y03744*
X04994Y03745*
X04894D02*
D01*
X04894Y03745*
X04894Y03746*
X04894Y03747*
X04894Y03747*
X04894Y03748*
X04893Y03749*
X04893Y03749*
X04893Y0375*
X04892Y0375*
X04892Y03751*
X04892Y03751*
X04891Y03752*
X04891Y03752*
X0489Y03753*
X04889Y03753*
X04889Y03753*
X04888Y03754*
X04888Y03754*
X04887Y03754*
X04886Y03754*
X04886Y03754*
X04885Y03754*
X04884*
X04883Y03754*
X04883Y03754*
X04882Y03754*
X04881Y03754*
X04881Y03754*
X0488Y03753*
X0488Y03753*
X04879Y03753*
X04878Y03752*
X04878Y03752*
X04877Y03751*
X04877Y03751*
X04877Y0375*
X04876Y0375*
X04876Y03749*
X04876Y03749*
X04875Y03748*
X04875Y03747*
X04875Y03747*
X04875Y03746*
X04875Y03745*
X04875Y03745*
X04875Y03744*
X04875Y03743*
X04875Y03742*
X04875Y03742*
X04875Y03741*
X04876Y0374*
X04876Y0374*
X04876Y03739*
X04877Y03739*
X04877Y03738*
X04877Y03738*
X04878Y03737*
X04878Y03737*
X04879Y03736*
X0488Y03736*
X0488Y03736*
X04881Y03735*
X04881Y03735*
X04882Y03735*
X04883Y03735*
X04883Y03735*
X04884Y03735*
X04885*
X04886Y03735*
X04886Y03735*
X04887Y03735*
X04888Y03735*
X04888Y03735*
X04889Y03736*
X04889Y03736*
X0489Y03736*
X04891Y03737*
X04891Y03737*
X04892Y03738*
X04892Y03738*
X04892Y03739*
X04893Y03739*
X04893Y0374*
X04893Y0374*
X04894Y03741*
X04894Y03742*
X04894Y03742*
X04894Y03743*
X04894Y03744*
X04894Y03745*
X04794D02*
D01*
X04794Y03745*
X04794Y03746*
X04794Y03747*
X04794Y03747*
X04794Y03748*
X04793Y03749*
X04793Y03749*
X04793Y0375*
X04792Y0375*
X04792Y03751*
X04792Y03751*
X04791Y03752*
X04791Y03752*
X0479Y03753*
X04789Y03753*
X04789Y03753*
X04788Y03754*
X04788Y03754*
X04787Y03754*
X04786Y03754*
X04786Y03754*
X04785Y03754*
X04784*
X04783Y03754*
X04783Y03754*
X04782Y03754*
X04781Y03754*
X04781Y03754*
X0478Y03753*
X0478Y03753*
X04779Y03753*
X04778Y03752*
X04778Y03752*
X04777Y03751*
X04777Y03751*
X04777Y0375*
X04776Y0375*
X04776Y03749*
X04776Y03749*
X04775Y03748*
X04775Y03747*
X04775Y03747*
X04775Y03746*
X04775Y03745*
X04775Y03745*
X04775Y03744*
X04775Y03743*
X04775Y03742*
X04775Y03742*
X04775Y03741*
X04776Y0374*
X04776Y0374*
X04776Y03739*
X04777Y03739*
X04777Y03738*
X04777Y03738*
X04778Y03737*
X04778Y03737*
X04779Y03736*
X0478Y03736*
X0478Y03736*
X04781Y03735*
X04781Y03735*
X04782Y03735*
X04783Y03735*
X04783Y03735*
X04784Y03735*
X04785*
X04786Y03735*
X04786Y03735*
X04787Y03735*
X04788Y03735*
X04788Y03735*
X04789Y03736*
X04789Y03736*
X0479Y03736*
X04791Y03737*
X04791Y03737*
X04792Y03738*
X04792Y03738*
X04792Y03739*
X04793Y03739*
X04793Y0374*
X04793Y0374*
X04794Y03741*
X04794Y03742*
X04794Y03742*
X04794Y03743*
X04794Y03744*
X04794Y03745*
X04694D02*
D01*
X04694Y03745*
X04694Y03746*
X04694Y03747*
X04694Y03747*
X04694Y03748*
X04693Y03749*
X04693Y03749*
X04693Y0375*
X04692Y0375*
X04692Y03751*
X04692Y03751*
X04691Y03752*
X04691Y03752*
X0469Y03753*
X04689Y03753*
X04689Y03753*
X04688Y03754*
X04688Y03754*
X04687Y03754*
X04686Y03754*
X04686Y03754*
X04685Y03754*
X04684*
X04683Y03754*
X04683Y03754*
X04682Y03754*
X04681Y03754*
X04681Y03754*
X0468Y03753*
X0468Y03753*
X04679Y03753*
X04678Y03752*
X04678Y03752*
X04677Y03751*
X04677Y03751*
X04677Y0375*
X04676Y0375*
X04676Y03749*
X04676Y03749*
X04675Y03748*
X04675Y03747*
X04675Y03747*
X04675Y03746*
X04675Y03745*
X04675Y03745*
X04675Y03744*
X04675Y03743*
X04675Y03742*
X04675Y03742*
X04675Y03741*
X04676Y0374*
X04676Y0374*
X04676Y03739*
X04677Y03739*
X04677Y03738*
X04677Y03738*
X04678Y03737*
X04678Y03737*
X04679Y03736*
X0468Y03736*
X0468Y03736*
X04681Y03735*
X04681Y03735*
X04682Y03735*
X04683Y03735*
X04683Y03735*
X04684Y03735*
X04685*
X04686Y03735*
X04686Y03735*
X04687Y03735*
X04688Y03735*
X04688Y03735*
X04689Y03736*
X04689Y03736*
X0469Y03736*
X04691Y03737*
X04691Y03737*
X04692Y03738*
X04692Y03738*
X04692Y03739*
X04693Y03739*
X04693Y0374*
X04693Y0374*
X04694Y03741*
X04694Y03742*
X04694Y03742*
X04694Y03743*
X04694Y03744*
X04694Y03745*
X04594D02*
D01*
X04594Y03745*
X04594Y03746*
X04594Y03747*
X04594Y03747*
X04594Y03748*
X04593Y03749*
X04593Y03749*
X04593Y0375*
X04592Y0375*
X04592Y03751*
X04592Y03751*
X04591Y03752*
X04591Y03752*
X0459Y03753*
X04589Y03753*
X04589Y03753*
X04588Y03754*
X04588Y03754*
X04587Y03754*
X04586Y03754*
X04586Y03754*
X04585Y03754*
X04584*
X04583Y03754*
X04583Y03754*
X04582Y03754*
X04581Y03754*
X04581Y03754*
X0458Y03753*
X0458Y03753*
X04579Y03753*
X04578Y03752*
X04578Y03752*
X04577Y03751*
X04577Y03751*
X04577Y0375*
X04576Y0375*
X04576Y03749*
X04576Y03749*
X04575Y03748*
X04575Y03747*
X04575Y03747*
X04575Y03746*
X04575Y03745*
X04575Y03745*
X04575Y03744*
X04575Y03743*
X04575Y03742*
X04575Y03742*
X04575Y03741*
X04576Y0374*
X04576Y0374*
X04576Y03739*
X04577Y03739*
X04577Y03738*
X04577Y03738*
X04578Y03737*
X04578Y03737*
X04579Y03736*
X0458Y03736*
X0458Y03736*
X04581Y03735*
X04581Y03735*
X04582Y03735*
X04583Y03735*
X04583Y03735*
X04584Y03735*
X04585*
X04586Y03735*
X04586Y03735*
X04587Y03735*
X04588Y03735*
X04588Y03735*
X04589Y03736*
X04589Y03736*
X0459Y03736*
X04591Y03737*
X04591Y03737*
X04592Y03738*
X04592Y03738*
X04592Y03739*
X04593Y03739*
X04593Y0374*
X04593Y0374*
X04594Y03741*
X04594Y03742*
X04594Y03742*
X04594Y03743*
X04594Y03744*
X04594Y03745*
X04494D02*
D01*
X04494Y03745*
X04494Y03746*
X04494Y03747*
X04494Y03747*
X04494Y03748*
X04493Y03749*
X04493Y03749*
X04493Y0375*
X04492Y0375*
X04492Y03751*
X04492Y03751*
X04491Y03752*
X04491Y03752*
X0449Y03753*
X04489Y03753*
X04489Y03753*
X04488Y03754*
X04488Y03754*
X04487Y03754*
X04486Y03754*
X04486Y03754*
X04485Y03754*
X04484*
X04483Y03754*
X04483Y03754*
X04482Y03754*
X04481Y03754*
X04481Y03754*
X0448Y03753*
X0448Y03753*
X04479Y03753*
X04478Y03752*
X04478Y03752*
X04477Y03751*
X04477Y03751*
X04477Y0375*
X04476Y0375*
X04476Y03749*
X04476Y03749*
X04475Y03748*
X04475Y03747*
X04475Y03747*
X04475Y03746*
X04475Y03745*
X04475Y03745*
X04475Y03744*
X04475Y03743*
X04475Y03742*
X04475Y03742*
X04475Y03741*
X04476Y0374*
X04476Y0374*
X04476Y03739*
X04477Y03739*
X04477Y03738*
X04477Y03738*
X04478Y03737*
X04478Y03737*
X04479Y03736*
X0448Y03736*
X0448Y03736*
X04481Y03735*
X04481Y03735*
X04482Y03735*
X04483Y03735*
X04483Y03735*
X04484Y03735*
X04485*
X04486Y03735*
X04486Y03735*
X04487Y03735*
X04488Y03735*
X04488Y03735*
X04489Y03736*
X04489Y03736*
X0449Y03736*
X04491Y03737*
X04491Y03737*
X04492Y03738*
X04492Y03738*
X04492Y03739*
X04493Y03739*
X04493Y0374*
X04493Y0374*
X04494Y03741*
X04494Y03742*
X04494Y03742*
X04494Y03743*
X04494Y03744*
X04494Y03745*
X04394D02*
D01*
X04394Y03745*
X04394Y03746*
X04394Y03747*
X04394Y03747*
X04394Y03748*
X04393Y03749*
X04393Y03749*
X04393Y0375*
X04392Y0375*
X04392Y03751*
X04392Y03751*
X04391Y03752*
X04391Y03752*
X0439Y03753*
X04389Y03753*
X04389Y03753*
X04388Y03754*
X04388Y03754*
X04387Y03754*
X04386Y03754*
X04386Y03754*
X04385Y03754*
X04384*
X04383Y03754*
X04383Y03754*
X04382Y03754*
X04381Y03754*
X04381Y03754*
X0438Y03753*
X0438Y03753*
X04379Y03753*
X04378Y03752*
X04378Y03752*
X04377Y03751*
X04377Y03751*
X04377Y0375*
X04376Y0375*
X04376Y03749*
X04376Y03749*
X04375Y03748*
X04375Y03747*
X04375Y03747*
X04375Y03746*
X04375Y03745*
X04375Y03745*
X04375Y03744*
X04375Y03743*
X04375Y03742*
X04375Y03742*
X04375Y03741*
X04376Y0374*
X04376Y0374*
X04376Y03739*
X04377Y03739*
X04377Y03738*
X04377Y03738*
X04378Y03737*
X04378Y03737*
X04379Y03736*
X0438Y03736*
X0438Y03736*
X04381Y03735*
X04381Y03735*
X04382Y03735*
X04383Y03735*
X04383Y03735*
X04384Y03735*
X04385*
X04386Y03735*
X04386Y03735*
X04387Y03735*
X04388Y03735*
X04388Y03735*
X04389Y03736*
X04389Y03736*
X0439Y03736*
X04391Y03737*
X04391Y03737*
X04392Y03738*
X04392Y03738*
X04392Y03739*
X04393Y03739*
X04393Y0374*
X04393Y0374*
X04394Y03741*
X04394Y03742*
X04394Y03742*
X04394Y03743*
X04394Y03744*
X04394Y03745*
X04294D02*
D01*
X04294Y03745*
X04294Y03746*
X04294Y03747*
X04294Y03747*
X04294Y03748*
X04293Y03749*
X04293Y03749*
X04293Y0375*
X04292Y0375*
X04292Y03751*
X04292Y03751*
X04291Y03752*
X04291Y03752*
X0429Y03753*
X04289Y03753*
X04289Y03753*
X04288Y03754*
X04288Y03754*
X04287Y03754*
X04286Y03754*
X04286Y03754*
X04285Y03754*
X04284*
X04283Y03754*
X04283Y03754*
X04282Y03754*
X04281Y03754*
X04281Y03754*
X0428Y03753*
X0428Y03753*
X04279Y03753*
X04278Y03752*
X04278Y03752*
X04277Y03751*
X04277Y03751*
X04277Y0375*
X04276Y0375*
X04276Y03749*
X04276Y03749*
X04275Y03748*
X04275Y03747*
X04275Y03747*
X04275Y03746*
X04275Y03745*
X04275Y03745*
X04275Y03744*
X04275Y03743*
X04275Y03742*
X04275Y03742*
X04275Y03741*
X04276Y0374*
X04276Y0374*
X04276Y03739*
X04277Y03739*
X04277Y03738*
X04277Y03738*
X04278Y03737*
X04278Y03737*
X04279Y03736*
X0428Y03736*
X0428Y03736*
X04281Y03735*
X04281Y03735*
X04282Y03735*
X04283Y03735*
X04283Y03735*
X04284Y03735*
X04285*
X04286Y03735*
X04286Y03735*
X04287Y03735*
X04288Y03735*
X04288Y03735*
X04289Y03736*
X04289Y03736*
X0429Y03736*
X04291Y03737*
X04291Y03737*
X04292Y03738*
X04292Y03738*
X04292Y03739*
X04293Y03739*
X04293Y0374*
X04293Y0374*
X04294Y03741*
X04294Y03742*
X04294Y03742*
X04294Y03743*
X04294Y03744*
X04294Y03745*
X04194D02*
D01*
X04194Y03745*
X04194Y03746*
X04194Y03747*
X04194Y03747*
X04194Y03748*
X04193Y03749*
X04193Y03749*
X04193Y0375*
X04192Y0375*
X04192Y03751*
X04192Y03751*
X04191Y03752*
X04191Y03752*
X0419Y03753*
X04189Y03753*
X04189Y03753*
X04188Y03754*
X04188Y03754*
X04187Y03754*
X04186Y03754*
X04186Y03754*
X04185Y03754*
X04184*
X04183Y03754*
X04183Y03754*
X04182Y03754*
X04181Y03754*
X04181Y03754*
X0418Y03753*
X0418Y03753*
X04179Y03753*
X04178Y03752*
X04178Y03752*
X04177Y03751*
X04177Y03751*
X04177Y0375*
X04176Y0375*
X04176Y03749*
X04176Y03749*
X04175Y03748*
X04175Y03747*
X04175Y03747*
X04175Y03746*
X04175Y03745*
X04175Y03745*
X04175Y03744*
X04175Y03743*
X04175Y03742*
X04175Y03742*
X04175Y03741*
X04176Y0374*
X04176Y0374*
X04176Y03739*
X04177Y03739*
X04177Y03738*
X04177Y03738*
X04178Y03737*
X04178Y03737*
X04179Y03736*
X0418Y03736*
X0418Y03736*
X04181Y03735*
X04181Y03735*
X04182Y03735*
X04183Y03735*
X04183Y03735*
X04184Y03735*
X04185*
X04186Y03735*
X04186Y03735*
X04187Y03735*
X04188Y03735*
X04188Y03735*
X04189Y03736*
X04189Y03736*
X0419Y03736*
X04191Y03737*
X04191Y03737*
X04192Y03738*
X04192Y03738*
X04192Y03739*
X04193Y03739*
X04193Y0374*
X04193Y0374*
X04194Y03741*
X04194Y03742*
X04194Y03742*
X04194Y03743*
X04194Y03744*
X04194Y03745*
X04094D02*
D01*
X04094Y03745*
X04094Y03746*
X04094Y03747*
X04094Y03747*
X04094Y03748*
X04093Y03749*
X04093Y03749*
X04093Y0375*
X04092Y0375*
X04092Y03751*
X04092Y03751*
X04091Y03752*
X04091Y03752*
X0409Y03753*
X04089Y03753*
X04089Y03753*
X04088Y03754*
X04088Y03754*
X04087Y03754*
X04086Y03754*
X04086Y03754*
X04085Y03754*
X04084*
X04083Y03754*
X04083Y03754*
X04082Y03754*
X04081Y03754*
X04081Y03754*
X0408Y03753*
X0408Y03753*
X04079Y03753*
X04078Y03752*
X04078Y03752*
X04077Y03751*
X04077Y03751*
X04077Y0375*
X04076Y0375*
X04076Y03749*
X04076Y03749*
X04075Y03748*
X04075Y03747*
X04075Y03747*
X04075Y03746*
X04075Y03745*
X04075Y03745*
X04075Y03744*
X04075Y03743*
X04075Y03742*
X04075Y03742*
X04075Y03741*
X04076Y0374*
X04076Y0374*
X04076Y03739*
X04077Y03739*
X04077Y03738*
X04077Y03738*
X04078Y03737*
X04078Y03737*
X04079Y03736*
X0408Y03736*
X0408Y03736*
X04081Y03735*
X04081Y03735*
X04082Y03735*
X04083Y03735*
X04083Y03735*
X04084Y03735*
X04085*
X04086Y03735*
X04086Y03735*
X04087Y03735*
X04088Y03735*
X04088Y03735*
X04089Y03736*
X04089Y03736*
X0409Y03736*
X04091Y03737*
X04091Y03737*
X04092Y03738*
X04092Y03738*
X04092Y03739*
X04093Y03739*
X04093Y0374*
X04093Y0374*
X04094Y03741*
X04094Y03742*
X04094Y03742*
X04094Y03743*
X04094Y03744*
X04094Y03745*
X03994D02*
D01*
X03994Y03745*
X03994Y03746*
X03994Y03747*
X03994Y03747*
X03994Y03748*
X03993Y03749*
X03993Y03749*
X03993Y0375*
X03992Y0375*
X03992Y03751*
X03992Y03751*
X03991Y03752*
X03991Y03752*
X0399Y03753*
X03989Y03753*
X03989Y03753*
X03988Y03754*
X03988Y03754*
X03987Y03754*
X03986Y03754*
X03986Y03754*
X03985Y03754*
X03984*
X03983Y03754*
X03983Y03754*
X03982Y03754*
X03981Y03754*
X03981Y03754*
X0398Y03753*
X0398Y03753*
X03979Y03753*
X03978Y03752*
X03978Y03752*
X03977Y03751*
X03977Y03751*
X03977Y0375*
X03976Y0375*
X03976Y03749*
X03976Y03749*
X03975Y03748*
X03975Y03747*
X03975Y03747*
X03975Y03746*
X03975Y03745*
X03975Y03745*
X03975Y03744*
X03975Y03743*
X03975Y03742*
X03975Y03742*
X03975Y03741*
X03976Y0374*
X03976Y0374*
X03976Y03739*
X03977Y03739*
X03977Y03738*
X03977Y03738*
X03978Y03737*
X03978Y03737*
X03979Y03736*
X0398Y03736*
X0398Y03736*
X03981Y03735*
X03981Y03735*
X03982Y03735*
X03983Y03735*
X03983Y03735*
X03984Y03735*
X03985*
X03986Y03735*
X03986Y03735*
X03987Y03735*
X03988Y03735*
X03988Y03735*
X03989Y03736*
X03989Y03736*
X0399Y03736*
X03991Y03737*
X03991Y03737*
X03992Y03738*
X03992Y03738*
X03992Y03739*
X03993Y03739*
X03993Y0374*
X03993Y0374*
X03994Y03741*
X03994Y03742*
X03994Y03742*
X03994Y03743*
X03994Y03744*
X03994Y03745*
X03894D02*
D01*
X03894Y03745*
X03894Y03746*
X03894Y03747*
X03894Y03747*
X03894Y03748*
X03893Y03749*
X03893Y03749*
X03893Y0375*
X03892Y0375*
X03892Y03751*
X03892Y03751*
X03891Y03752*
X03891Y03752*
X0389Y03753*
X03889Y03753*
X03889Y03753*
X03888Y03754*
X03888Y03754*
X03887Y03754*
X03886Y03754*
X03886Y03754*
X03885Y03754*
X03884*
X03883Y03754*
X03883Y03754*
X03882Y03754*
X03881Y03754*
X03881Y03754*
X0388Y03753*
X0388Y03753*
X03879Y03753*
X03878Y03752*
X03878Y03752*
X03877Y03751*
X03877Y03751*
X03877Y0375*
X03876Y0375*
X03876Y03749*
X03876Y03749*
X03875Y03748*
X03875Y03747*
X03875Y03747*
X03875Y03746*
X03875Y03745*
X03875Y03745*
X03875Y03744*
X03875Y03743*
X03875Y03742*
X03875Y03742*
X03875Y03741*
X03876Y0374*
X03876Y0374*
X03876Y03739*
X03877Y03739*
X03877Y03738*
X03877Y03738*
X03878Y03737*
X03878Y03737*
X03879Y03736*
X0388Y03736*
X0388Y03736*
X03881Y03735*
X03881Y03735*
X03882Y03735*
X03883Y03735*
X03883Y03735*
X03884Y03735*
X03885*
X03886Y03735*
X03886Y03735*
X03887Y03735*
X03888Y03735*
X03888Y03735*
X03889Y03736*
X03889Y03736*
X0389Y03736*
X03891Y03737*
X03891Y03737*
X03892Y03738*
X03892Y03738*
X03892Y03739*
X03893Y03739*
X03893Y0374*
X03893Y0374*
X03894Y03741*
X03894Y03742*
X03894Y03742*
X03894Y03743*
X03894Y03744*
X03894Y03745*
X03794D02*
D01*
X03794Y03745*
X03794Y03746*
X03794Y03747*
X03794Y03747*
X03794Y03748*
X03793Y03749*
X03793Y03749*
X03793Y0375*
X03792Y0375*
X03792Y03751*
X03792Y03751*
X03791Y03752*
X03791Y03752*
X0379Y03753*
X03789Y03753*
X03789Y03753*
X03788Y03754*
X03788Y03754*
X03787Y03754*
X03786Y03754*
X03786Y03754*
X03785Y03754*
X03784*
X03783Y03754*
X03783Y03754*
X03782Y03754*
X03781Y03754*
X03781Y03754*
X0378Y03753*
X0378Y03753*
X03779Y03753*
X03778Y03752*
X03778Y03752*
X03777Y03751*
X03777Y03751*
X03777Y0375*
X03776Y0375*
X03776Y03749*
X03776Y03749*
X03775Y03748*
X03775Y03747*
X03775Y03747*
X03775Y03746*
X03775Y03745*
X03775Y03745*
X03775Y03744*
X03775Y03743*
X03775Y03742*
X03775Y03742*
X03775Y03741*
X03776Y0374*
X03776Y0374*
X03776Y03739*
X03777Y03739*
X03777Y03738*
X03777Y03738*
X03778Y03737*
X03778Y03737*
X03779Y03736*
X0378Y03736*
X0378Y03736*
X03781Y03735*
X03781Y03735*
X03782Y03735*
X03783Y03735*
X03783Y03735*
X03784Y03735*
X03785*
X03786Y03735*
X03786Y03735*
X03787Y03735*
X03788Y03735*
X03788Y03735*
X03789Y03736*
X03789Y03736*
X0379Y03736*
X03791Y03737*
X03791Y03737*
X03792Y03738*
X03792Y03738*
X03792Y03739*
X03793Y03739*
X03793Y0374*
X03793Y0374*
X03794Y03741*
X03794Y03742*
X03794Y03742*
X03794Y03743*
X03794Y03744*
X03794Y03745*
Y04368D02*
D01*
X03794Y04369*
X03794Y0437*
X03794Y04371*
X03794Y04371*
X03794Y04372*
X03793Y04372*
X03793Y04373*
X03793Y04374*
X03792Y04374*
X03792Y04375*
X03792Y04375*
X03791Y04376*
X03791Y04376*
X0379Y04377*
X03789Y04377*
X03789Y04377*
X03788Y04378*
X03788Y04378*
X03787Y04378*
X03786Y04378*
X03786Y04378*
X03785Y04378*
X03784*
X03783Y04378*
X03783Y04378*
X03782Y04378*
X03781Y04378*
X03781Y04378*
X0378Y04377*
X0378Y04377*
X03779Y04377*
X03778Y04376*
X03778Y04376*
X03777Y04375*
X03777Y04375*
X03777Y04374*
X03776Y04374*
X03776Y04373*
X03776Y04372*
X03775Y04372*
X03775Y04371*
X03775Y04371*
X03775Y0437*
X03775Y04369*
X03775Y04368*
X03775Y04368*
X03775Y04367*
X03775Y04366*
X03775Y04366*
X03775Y04365*
X03776Y04364*
X03776Y04364*
X03776Y04363*
X03777Y04363*
X03777Y04362*
X03777Y04362*
X03778Y04361*
X03778Y04361*
X03779Y0436*
X0378Y0436*
X0378Y0436*
X03781Y04359*
X03781Y04359*
X03782Y04359*
X03783Y04359*
X03783Y04359*
X03784Y04359*
X03785*
X03786Y04359*
X03786Y04359*
X03787Y04359*
X03788Y04359*
X03788Y04359*
X03789Y0436*
X03789Y0436*
X0379Y0436*
X03791Y04361*
X03791Y04361*
X03792Y04362*
X03792Y04362*
X03792Y04363*
X03793Y04363*
X03793Y04364*
X03793Y04364*
X03794Y04365*
X03794Y04366*
X03794Y04366*
X03794Y04367*
X03794Y04368*
X03794Y04368*
X03894D02*
D01*
X03894Y04369*
X03894Y0437*
X03894Y04371*
X03894Y04371*
X03894Y04372*
X03893Y04372*
X03893Y04373*
X03893Y04374*
X03892Y04374*
X03892Y04375*
X03892Y04375*
X03891Y04376*
X03891Y04376*
X0389Y04377*
X03889Y04377*
X03889Y04377*
X03888Y04378*
X03888Y04378*
X03887Y04378*
X03886Y04378*
X03886Y04378*
X03885Y04378*
X03884*
X03883Y04378*
X03883Y04378*
X03882Y04378*
X03881Y04378*
X03881Y04378*
X0388Y04377*
X0388Y04377*
X03879Y04377*
X03878Y04376*
X03878Y04376*
X03877Y04375*
X03877Y04375*
X03877Y04374*
X03876Y04374*
X03876Y04373*
X03876Y04372*
X03875Y04372*
X03875Y04371*
X03875Y04371*
X03875Y0437*
X03875Y04369*
X03875Y04368*
X03875Y04368*
X03875Y04367*
X03875Y04366*
X03875Y04366*
X03875Y04365*
X03876Y04364*
X03876Y04364*
X03876Y04363*
X03877Y04363*
X03877Y04362*
X03877Y04362*
X03878Y04361*
X03878Y04361*
X03879Y0436*
X0388Y0436*
X0388Y0436*
X03881Y04359*
X03881Y04359*
X03882Y04359*
X03883Y04359*
X03883Y04359*
X03884Y04359*
X03885*
X03886Y04359*
X03886Y04359*
X03887Y04359*
X03888Y04359*
X03888Y04359*
X03889Y0436*
X03889Y0436*
X0389Y0436*
X03891Y04361*
X03891Y04361*
X03892Y04362*
X03892Y04362*
X03892Y04363*
X03893Y04363*
X03893Y04364*
X03893Y04364*
X03894Y04365*
X03894Y04366*
X03894Y04366*
X03894Y04367*
X03894Y04368*
X03894Y04368*
X03994D02*
D01*
X03994Y04369*
X03994Y0437*
X03994Y04371*
X03994Y04371*
X03994Y04372*
X03993Y04372*
X03993Y04373*
X03993Y04374*
X03992Y04374*
X03992Y04375*
X03992Y04375*
X03991Y04376*
X03991Y04376*
X0399Y04377*
X03989Y04377*
X03989Y04377*
X03988Y04378*
X03988Y04378*
X03987Y04378*
X03986Y04378*
X03986Y04378*
X03985Y04378*
X03984*
X03983Y04378*
X03983Y04378*
X03982Y04378*
X03981Y04378*
X03981Y04378*
X0398Y04377*
X0398Y04377*
X03979Y04377*
X03978Y04376*
X03978Y04376*
X03977Y04375*
X03977Y04375*
X03977Y04374*
X03976Y04374*
X03976Y04373*
X03976Y04372*
X03975Y04372*
X03975Y04371*
X03975Y04371*
X03975Y0437*
X03975Y04369*
X03975Y04368*
X03975Y04368*
X03975Y04367*
X03975Y04366*
X03975Y04366*
X03975Y04365*
X03976Y04364*
X03976Y04364*
X03976Y04363*
X03977Y04363*
X03977Y04362*
X03977Y04362*
X03978Y04361*
X03978Y04361*
X03979Y0436*
X0398Y0436*
X0398Y0436*
X03981Y04359*
X03981Y04359*
X03982Y04359*
X03983Y04359*
X03983Y04359*
X03984Y04359*
X03985*
X03986Y04359*
X03986Y04359*
X03987Y04359*
X03988Y04359*
X03988Y04359*
X03989Y0436*
X03989Y0436*
X0399Y0436*
X03991Y04361*
X03991Y04361*
X03992Y04362*
X03992Y04362*
X03992Y04363*
X03993Y04363*
X03993Y04364*
X03993Y04364*
X03994Y04365*
X03994Y04366*
X03994Y04366*
X03994Y04367*
X03994Y04368*
X03994Y04368*
X04094D02*
D01*
X04094Y04369*
X04094Y0437*
X04094Y04371*
X04094Y04371*
X04094Y04372*
X04093Y04372*
X04093Y04373*
X04093Y04374*
X04092Y04374*
X04092Y04375*
X04092Y04375*
X04091Y04376*
X04091Y04376*
X0409Y04377*
X04089Y04377*
X04089Y04377*
X04088Y04378*
X04088Y04378*
X04087Y04378*
X04086Y04378*
X04086Y04378*
X04085Y04378*
X04084*
X04083Y04378*
X04083Y04378*
X04082Y04378*
X04081Y04378*
X04081Y04378*
X0408Y04377*
X0408Y04377*
X04079Y04377*
X04078Y04376*
X04078Y04376*
X04077Y04375*
X04077Y04375*
X04077Y04374*
X04076Y04374*
X04076Y04373*
X04076Y04372*
X04075Y04372*
X04075Y04371*
X04075Y04371*
X04075Y0437*
X04075Y04369*
X04075Y04368*
X04075Y04368*
X04075Y04367*
X04075Y04366*
X04075Y04366*
X04075Y04365*
X04076Y04364*
X04076Y04364*
X04076Y04363*
X04077Y04363*
X04077Y04362*
X04077Y04362*
X04078Y04361*
X04078Y04361*
X04079Y0436*
X0408Y0436*
X0408Y0436*
X04081Y04359*
X04081Y04359*
X04082Y04359*
X04083Y04359*
X04083Y04359*
X04084Y04359*
X04085*
X04086Y04359*
X04086Y04359*
X04087Y04359*
X04088Y04359*
X04088Y04359*
X04089Y0436*
X04089Y0436*
X0409Y0436*
X04091Y04361*
X04091Y04361*
X04092Y04362*
X04092Y04362*
X04092Y04363*
X04093Y04363*
X04093Y04364*
X04093Y04364*
X04094Y04365*
X04094Y04366*
X04094Y04366*
X04094Y04367*
X04094Y04368*
X04094Y04368*
X04194D02*
D01*
X04194Y04369*
X04194Y0437*
X04194Y04371*
X04194Y04371*
X04194Y04372*
X04193Y04372*
X04193Y04373*
X04193Y04374*
X04192Y04374*
X04192Y04375*
X04192Y04375*
X04191Y04376*
X04191Y04376*
X0419Y04377*
X04189Y04377*
X04189Y04377*
X04188Y04378*
X04188Y04378*
X04187Y04378*
X04186Y04378*
X04186Y04378*
X04185Y04378*
X04184*
X04183Y04378*
X04183Y04378*
X04182Y04378*
X04181Y04378*
X04181Y04378*
X0418Y04377*
X0418Y04377*
X04179Y04377*
X04178Y04376*
X04178Y04376*
X04177Y04375*
X04177Y04375*
X04177Y04374*
X04176Y04374*
X04176Y04373*
X04176Y04372*
X04175Y04372*
X04175Y04371*
X04175Y04371*
X04175Y0437*
X04175Y04369*
X04175Y04368*
X04175Y04368*
X04175Y04367*
X04175Y04366*
X04175Y04366*
X04175Y04365*
X04176Y04364*
X04176Y04364*
X04176Y04363*
X04177Y04363*
X04177Y04362*
X04177Y04362*
X04178Y04361*
X04178Y04361*
X04179Y0436*
X0418Y0436*
X0418Y0436*
X04181Y04359*
X04181Y04359*
X04182Y04359*
X04183Y04359*
X04183Y04359*
X04184Y04359*
X04185*
X04186Y04359*
X04186Y04359*
X04187Y04359*
X04188Y04359*
X04188Y04359*
X04189Y0436*
X04189Y0436*
X0419Y0436*
X04191Y04361*
X04191Y04361*
X04192Y04362*
X04192Y04362*
X04192Y04363*
X04193Y04363*
X04193Y04364*
X04193Y04364*
X04194Y04365*
X04194Y04366*
X04194Y04366*
X04194Y04367*
X04194Y04368*
X04194Y04368*
X04294D02*
D01*
X04294Y04369*
X04294Y0437*
X04294Y04371*
X04294Y04371*
X04294Y04372*
X04293Y04372*
X04293Y04373*
X04293Y04374*
X04292Y04374*
X04292Y04375*
X04292Y04375*
X04291Y04376*
X04291Y04376*
X0429Y04377*
X04289Y04377*
X04289Y04377*
X04288Y04378*
X04288Y04378*
X04287Y04378*
X04286Y04378*
X04286Y04378*
X04285Y04378*
X04284*
X04283Y04378*
X04283Y04378*
X04282Y04378*
X04281Y04378*
X04281Y04378*
X0428Y04377*
X0428Y04377*
X04279Y04377*
X04278Y04376*
X04278Y04376*
X04277Y04375*
X04277Y04375*
X04277Y04374*
X04276Y04374*
X04276Y04373*
X04276Y04372*
X04275Y04372*
X04275Y04371*
X04275Y04371*
X04275Y0437*
X04275Y04369*
X04275Y04368*
X04275Y04368*
X04275Y04367*
X04275Y04366*
X04275Y04366*
X04275Y04365*
X04276Y04364*
X04276Y04364*
X04276Y04363*
X04277Y04363*
X04277Y04362*
X04277Y04362*
X04278Y04361*
X04278Y04361*
X04279Y0436*
X0428Y0436*
X0428Y0436*
X04281Y04359*
X04281Y04359*
X04282Y04359*
X04283Y04359*
X04283Y04359*
X04284Y04359*
X04285*
X04286Y04359*
X04286Y04359*
X04287Y04359*
X04288Y04359*
X04288Y04359*
X04289Y0436*
X04289Y0436*
X0429Y0436*
X04291Y04361*
X04291Y04361*
X04292Y04362*
X04292Y04362*
X04292Y04363*
X04293Y04363*
X04293Y04364*
X04293Y04364*
X04294Y04365*
X04294Y04366*
X04294Y04366*
X04294Y04367*
X04294Y04368*
X04294Y04368*
X04394D02*
D01*
X04394Y04369*
X04394Y0437*
X04394Y04371*
X04394Y04371*
X04394Y04372*
X04393Y04372*
X04393Y04373*
X04393Y04374*
X04392Y04374*
X04392Y04375*
X04392Y04375*
X04391Y04376*
X04391Y04376*
X0439Y04377*
X04389Y04377*
X04389Y04377*
X04388Y04378*
X04388Y04378*
X04387Y04378*
X04386Y04378*
X04386Y04378*
X04385Y04378*
X04384*
X04383Y04378*
X04383Y04378*
X04382Y04378*
X04381Y04378*
X04381Y04378*
X0438Y04377*
X0438Y04377*
X04379Y04377*
X04378Y04376*
X04378Y04376*
X04377Y04375*
X04377Y04375*
X04377Y04374*
X04376Y04374*
X04376Y04373*
X04376Y04372*
X04375Y04372*
X04375Y04371*
X04375Y04371*
X04375Y0437*
X04375Y04369*
X04375Y04368*
X04375Y04368*
X04375Y04367*
X04375Y04366*
X04375Y04366*
X04375Y04365*
X04376Y04364*
X04376Y04364*
X04376Y04363*
X04377Y04363*
X04377Y04362*
X04377Y04362*
X04378Y04361*
X04378Y04361*
X04379Y0436*
X0438Y0436*
X0438Y0436*
X04381Y04359*
X04381Y04359*
X04382Y04359*
X04383Y04359*
X04383Y04359*
X04384Y04359*
X04385*
X04386Y04359*
X04386Y04359*
X04387Y04359*
X04388Y04359*
X04388Y04359*
X04389Y0436*
X04389Y0436*
X0439Y0436*
X04391Y04361*
X04391Y04361*
X04392Y04362*
X04392Y04362*
X04392Y04363*
X04393Y04363*
X04393Y04364*
X04393Y04364*
X04394Y04365*
X04394Y04366*
X04394Y04366*
X04394Y04367*
X04394Y04368*
X04394Y04368*
X04594D02*
D01*
X04594Y04369*
X04594Y0437*
X04594Y04371*
X04594Y04371*
X04594Y04372*
X04593Y04372*
X04593Y04373*
X04593Y04374*
X04592Y04374*
X04592Y04375*
X04592Y04375*
X04591Y04376*
X04591Y04376*
X0459Y04377*
X04589Y04377*
X04589Y04377*
X04588Y04378*
X04588Y04378*
X04587Y04378*
X04586Y04378*
X04586Y04378*
X04585Y04378*
X04584*
X04583Y04378*
X04583Y04378*
X04582Y04378*
X04581Y04378*
X04581Y04378*
X0458Y04377*
X0458Y04377*
X04579Y04377*
X04578Y04376*
X04578Y04376*
X04577Y04375*
X04577Y04375*
X04577Y04374*
X04576Y04374*
X04576Y04373*
X04576Y04372*
X04575Y04372*
X04575Y04371*
X04575Y04371*
X04575Y0437*
X04575Y04369*
X04575Y04368*
X04575Y04368*
X04575Y04367*
X04575Y04366*
X04575Y04366*
X04575Y04365*
X04576Y04364*
X04576Y04364*
X04576Y04363*
X04577Y04363*
X04577Y04362*
X04577Y04362*
X04578Y04361*
X04578Y04361*
X04579Y0436*
X0458Y0436*
X0458Y0436*
X04581Y04359*
X04581Y04359*
X04582Y04359*
X04583Y04359*
X04583Y04359*
X04584Y04359*
X04585*
X04586Y04359*
X04586Y04359*
X04587Y04359*
X04588Y04359*
X04588Y04359*
X04589Y0436*
X04589Y0436*
X0459Y0436*
X04591Y04361*
X04591Y04361*
X04592Y04362*
X04592Y04362*
X04592Y04363*
X04593Y04363*
X04593Y04364*
X04593Y04364*
X04594Y04365*
X04594Y04366*
X04594Y04366*
X04594Y04367*
X04594Y04368*
X04594Y04368*
X04694D02*
D01*
X04694Y04369*
X04694Y0437*
X04694Y04371*
X04694Y04371*
X04694Y04372*
X04693Y04372*
X04693Y04373*
X04693Y04374*
X04692Y04374*
X04692Y04375*
X04692Y04375*
X04691Y04376*
X04691Y04376*
X0469Y04377*
X04689Y04377*
X04689Y04377*
X04688Y04378*
X04688Y04378*
X04687Y04378*
X04686Y04378*
X04686Y04378*
X04685Y04378*
X04684*
X04683Y04378*
X04683Y04378*
X04682Y04378*
X04681Y04378*
X04681Y04378*
X0468Y04377*
X0468Y04377*
X04679Y04377*
X04678Y04376*
X04678Y04376*
X04677Y04375*
X04677Y04375*
X04677Y04374*
X04676Y04374*
X04676Y04373*
X04676Y04372*
X04675Y04372*
X04675Y04371*
X04675Y04371*
X04675Y0437*
X04675Y04369*
X04675Y04368*
X04675Y04368*
X04675Y04367*
X04675Y04366*
X04675Y04366*
X04675Y04365*
X04676Y04364*
X04676Y04364*
X04676Y04363*
X04677Y04363*
X04677Y04362*
X04677Y04362*
X04678Y04361*
X04678Y04361*
X04679Y0436*
X0468Y0436*
X0468Y0436*
X04681Y04359*
X04681Y04359*
X04682Y04359*
X04683Y04359*
X04683Y04359*
X04684Y04359*
X04685*
X04686Y04359*
X04686Y04359*
X04687Y04359*
X04688Y04359*
X04688Y04359*
X04689Y0436*
X04689Y0436*
X0469Y0436*
X04691Y04361*
X04691Y04361*
X04692Y04362*
X04692Y04362*
X04692Y04363*
X04693Y04363*
X04693Y04364*
X04693Y04364*
X04694Y04365*
X04694Y04366*
X04694Y04366*
X04694Y04367*
X04694Y04368*
X04694Y04368*
X04794D02*
D01*
X04794Y04369*
X04794Y0437*
X04794Y04371*
X04794Y04371*
X04794Y04372*
X04793Y04372*
X04793Y04373*
X04793Y04374*
X04792Y04374*
X04792Y04375*
X04792Y04375*
X04791Y04376*
X04791Y04376*
X0479Y04377*
X04789Y04377*
X04789Y04377*
X04788Y04378*
X04788Y04378*
X04787Y04378*
X04786Y04378*
X04786Y04378*
X04785Y04378*
X04784*
X04783Y04378*
X04783Y04378*
X04782Y04378*
X04781Y04378*
X04781Y04378*
X0478Y04377*
X0478Y04377*
X04779Y04377*
X04778Y04376*
X04778Y04376*
X04777Y04375*
X04777Y04375*
X04777Y04374*
X04776Y04374*
X04776Y04373*
X04776Y04372*
X04775Y04372*
X04775Y04371*
X04775Y04371*
X04775Y0437*
X04775Y04369*
X04775Y04368*
X04775Y04368*
X04775Y04367*
X04775Y04366*
X04775Y04366*
X04775Y04365*
X04776Y04364*
X04776Y04364*
X04776Y04363*
X04777Y04363*
X04777Y04362*
X04777Y04362*
X04778Y04361*
X04778Y04361*
X04779Y0436*
X0478Y0436*
X0478Y0436*
X04781Y04359*
X04781Y04359*
X04782Y04359*
X04783Y04359*
X04783Y04359*
X04784Y04359*
X04785*
X04786Y04359*
X04786Y04359*
X04787Y04359*
X04788Y04359*
X04788Y04359*
X04789Y0436*
X04789Y0436*
X0479Y0436*
X04791Y04361*
X04791Y04361*
X04792Y04362*
X04792Y04362*
X04792Y04363*
X04793Y04363*
X04793Y04364*
X04793Y04364*
X04794Y04365*
X04794Y04366*
X04794Y04366*
X04794Y04367*
X04794Y04368*
X04794Y04368*
X04894D02*
D01*
X04894Y04369*
X04894Y0437*
X04894Y04371*
X04894Y04371*
X04894Y04372*
X04893Y04372*
X04893Y04373*
X04893Y04374*
X04892Y04374*
X04892Y04375*
X04892Y04375*
X04891Y04376*
X04891Y04376*
X0489Y04377*
X04889Y04377*
X04889Y04377*
X04888Y04378*
X04888Y04378*
X04887Y04378*
X04886Y04378*
X04886Y04378*
X04885Y04378*
X04884*
X04883Y04378*
X04883Y04378*
X04882Y04378*
X04881Y04378*
X04881Y04378*
X0488Y04377*
X0488Y04377*
X04879Y04377*
X04878Y04376*
X04878Y04376*
X04877Y04375*
X04877Y04375*
X04877Y04374*
X04876Y04374*
X04876Y04373*
X04876Y04372*
X04875Y04372*
X04875Y04371*
X04875Y04371*
X04875Y0437*
X04875Y04369*
X04875Y04368*
X04875Y04368*
X04875Y04367*
X04875Y04366*
X04875Y04366*
X04875Y04365*
X04876Y04364*
X04876Y04364*
X04876Y04363*
X04877Y04363*
X04877Y04362*
X04877Y04362*
X04878Y04361*
X04878Y04361*
X04879Y0436*
X0488Y0436*
X0488Y0436*
X04881Y04359*
X04881Y04359*
X04882Y04359*
X04883Y04359*
X04883Y04359*
X04884Y04359*
X04885*
X04886Y04359*
X04886Y04359*
X04887Y04359*
X04888Y04359*
X04888Y04359*
X04889Y0436*
X04889Y0436*
X0489Y0436*
X04891Y04361*
X04891Y04361*
X04892Y04362*
X04892Y04362*
X04892Y04363*
X04893Y04363*
X04893Y04364*
X04893Y04364*
X04894Y04365*
X04894Y04366*
X04894Y04366*
X04894Y04367*
X04894Y04368*
X04894Y04368*
X04994D02*
D01*
X04994Y04369*
X04994Y0437*
X04994Y04371*
X04994Y04371*
X04994Y04372*
X04993Y04372*
X04993Y04373*
X04993Y04374*
X04992Y04374*
X04992Y04375*
X04992Y04375*
X04991Y04376*
X04991Y04376*
X0499Y04377*
X04989Y04377*
X04989Y04377*
X04988Y04378*
X04988Y04378*
X04987Y04378*
X04986Y04378*
X04986Y04378*
X04985Y04378*
X04984*
X04983Y04378*
X04983Y04378*
X04982Y04378*
X04981Y04378*
X04981Y04378*
X0498Y04377*
X0498Y04377*
X04979Y04377*
X04978Y04376*
X04978Y04376*
X04977Y04375*
X04977Y04375*
X04977Y04374*
X04976Y04374*
X04976Y04373*
X04976Y04372*
X04975Y04372*
X04975Y04371*
X04975Y04371*
X04975Y0437*
X04975Y04369*
X04975Y04368*
X04975Y04368*
X04975Y04367*
X04975Y04366*
X04975Y04366*
X04975Y04365*
X04976Y04364*
X04976Y04364*
X04976Y04363*
X04977Y04363*
X04977Y04362*
X04977Y04362*
X04978Y04361*
X04978Y04361*
X04979Y0436*
X0498Y0436*
X0498Y0436*
X04981Y04359*
X04981Y04359*
X04982Y04359*
X04983Y04359*
X04983Y04359*
X04984Y04359*
X04985*
X04986Y04359*
X04986Y04359*
X04987Y04359*
X04988Y04359*
X04988Y04359*
X04989Y0436*
X04989Y0436*
X0499Y0436*
X04991Y04361*
X04991Y04361*
X04992Y04362*
X04992Y04362*
X04992Y04363*
X04993Y04363*
X04993Y04364*
X04993Y04364*
X04994Y04365*
X04994Y04366*
X04994Y04366*
X04994Y04367*
X04994Y04368*
X04994Y04368*
X04494D02*
D01*
X04494Y04369*
X04494Y0437*
X04494Y04371*
X04494Y04371*
X04494Y04372*
X04493Y04372*
X04493Y04373*
X04493Y04374*
X04492Y04374*
X04492Y04375*
X04492Y04375*
X04491Y04376*
X04491Y04376*
X0449Y04377*
X04489Y04377*
X04489Y04377*
X04488Y04378*
X04488Y04378*
X04487Y04378*
X04486Y04378*
X04486Y04378*
X04485Y04378*
X04484*
X04483Y04378*
X04483Y04378*
X04482Y04378*
X04481Y04378*
X04481Y04378*
X0448Y04377*
X0448Y04377*
X04479Y04377*
X04478Y04376*
X04478Y04376*
X04477Y04375*
X04477Y04375*
X04477Y04374*
X04476Y04374*
X04476Y04373*
X04476Y04372*
X04475Y04372*
X04475Y04371*
X04475Y04371*
X04475Y0437*
X04475Y04369*
X04475Y04368*
X04475Y04368*
X04475Y04367*
X04475Y04366*
X04475Y04366*
X04475Y04365*
X04476Y04364*
X04476Y04364*
X04476Y04363*
X04477Y04363*
X04477Y04362*
X04477Y04362*
X04478Y04361*
X04478Y04361*
X04479Y0436*
X0448Y0436*
X0448Y0436*
X04481Y04359*
X04481Y04359*
X04482Y04359*
X04483Y04359*
X04483Y04359*
X04484Y04359*
X04485*
X04486Y04359*
X04486Y04359*
X04487Y04359*
X04488Y04359*
X04488Y04359*
X04489Y0436*
X04489Y0436*
X0449Y0436*
X04491Y04361*
X04491Y04361*
X04492Y04362*
X04492Y04362*
X04492Y04363*
X04493Y04363*
X04493Y04364*
X04493Y04364*
X04494Y04365*
X04494Y04366*
X04494Y04366*
X04494Y04367*
X04494Y04368*
X04494Y04368*
X05094Y04369D02*
D01*
X05094Y04369*
X05094Y0437*
X05094Y04371*
X05094Y04371*
X05094Y04372*
X05093Y04373*
X05093Y04373*
X05093Y04374*
X05092Y04374*
X05092Y04375*
X05092Y04375*
X05091Y04376*
X05091Y04376*
X0509Y04377*
X05089Y04377*
X05089Y04377*
X05088Y04378*
X05088Y04378*
X05087Y04378*
X05086Y04378*
X05086Y04378*
X05085Y04378*
X05084*
X05083Y04378*
X05083Y04378*
X05082Y04378*
X05081Y04378*
X05081Y04378*
X0508Y04377*
X0508Y04377*
X05079Y04377*
X05078Y04376*
X05078Y04376*
X05077Y04375*
X05077Y04375*
X05077Y04374*
X05076Y04374*
X05076Y04373*
X05076Y04373*
X05075Y04372*
X05075Y04371*
X05075Y04371*
X05075Y0437*
X05075Y04369*
X05075Y04369*
X05075Y04368*
X05075Y04367*
X05075Y04366*
X05075Y04366*
X05075Y04365*
X05076Y04364*
X05076Y04364*
X05076Y04363*
X05077Y04363*
X05077Y04362*
X05077Y04362*
X05078Y04361*
X05078Y04361*
X05079Y0436*
X0508Y0436*
X0508Y0436*
X05081Y04359*
X05081Y04359*
X05082Y04359*
X05083Y04359*
X05083Y04359*
X05084Y04359*
X05085*
X05086Y04359*
X05086Y04359*
X05087Y04359*
X05088Y04359*
X05088Y04359*
X05089Y0436*
X05089Y0436*
X0509Y0436*
X05091Y04361*
X05091Y04361*
X05092Y04362*
X05092Y04362*
X05092Y04363*
X05093Y04363*
X05093Y04364*
X05093Y04364*
X05094Y04365*
X05094Y04366*
X05094Y04366*
X05094Y04367*
X05094Y04368*
X05094Y04369*
G54D95*
X08328Y0321D02*
D01*
X08328Y0321*
X08328Y03211*
X08328Y03211*
X08328Y03212*
X08328Y03213*
X08328Y03213*
X08327Y03214*
X08327Y03214*
X08327Y03215*
X08326Y03215*
X08326Y03216*
X08325Y03216*
X08325Y03216*
X08324Y03217*
X08324Y03217*
X08323Y03217*
X08323Y03218*
X08322Y03218*
X08322Y03218*
X08321Y03218*
X0832Y03218*
X0832Y03218*
X08319*
X08319Y03218*
X08318Y03218*
X08317Y03218*
X08317Y03218*
X08316Y03218*
X08316Y03217*
X08315Y03217*
X08315Y03217*
X08314Y03216*
X08314Y03216*
X08313Y03216*
X08313Y03215*
X08312Y03215*
X08312Y03214*
X08312Y03214*
X08311Y03213*
X08311Y03213*
X08311Y03212*
X08311Y03211*
X08311Y03211*
X08311Y0321*
X08311Y0321*
X08311Y03209*
X08311Y03208*
X08311Y03208*
X08311Y03207*
X08311Y03206*
X08311Y03206*
X08312Y03205*
X08312Y03205*
X08312Y03204*
X08313Y03204*
X08313Y03203*
X08314Y03203*
X08314Y03203*
X08315Y03202*
X08315Y03202*
X08316Y03202*
X08316Y03201*
X08317Y03201*
X08317Y03201*
X08318Y03201*
X08319Y03201*
X08319Y03201*
X0832*
X0832Y03201*
X08321Y03201*
X08322Y03201*
X08322Y03201*
X08323Y03201*
X08323Y03202*
X08324Y03202*
X08324Y03202*
X08325Y03203*
X08325Y03203*
X08326Y03203*
X08326Y03204*
X08327Y03204*
X08327Y03205*
X08327Y03205*
X08328Y03206*
X08328Y03206*
X08328Y03207*
X08328Y03208*
X08328Y03208*
X08328Y03209*
X08328Y0321*
Y03107D02*
D01*
X08328Y03108*
X08328Y03108*
X08328Y03109*
X08328Y0311*
X08328Y0311*
X08328Y03111*
X08327Y03111*
X08327Y03112*
X08327Y03112*
X08326Y03113*
X08326Y03113*
X08325Y03114*
X08325Y03114*
X08324Y03114*
X08324Y03115*
X08323Y03115*
X08323Y03115*
X08322Y03116*
X08322Y03116*
X08321Y03116*
X0832Y03116*
X0832Y03116*
X08319*
X08319Y03116*
X08318Y03116*
X08317Y03116*
X08317Y03116*
X08316Y03115*
X08316Y03115*
X08315Y03115*
X08315Y03114*
X08314Y03114*
X08314Y03114*
X08313Y03113*
X08313Y03113*
X08312Y03112*
X08312Y03112*
X08312Y03111*
X08311Y03111*
X08311Y0311*
X08311Y0311*
X08311Y03109*
X08311Y03108*
X08311Y03108*
X08311Y03107*
X08311Y03106*
X08311Y03106*
X08311Y03105*
X08311Y03105*
X08311Y03104*
X08311Y03103*
X08312Y03103*
X08312Y03102*
X08312Y03102*
X08313Y03101*
X08313Y03101*
X08314Y03101*
X08314Y031*
X08315Y031*
X08315Y03099*
X08316Y03099*
X08316Y03099*
X08317Y03099*
X08317Y03099*
X08318Y03098*
X08319Y03098*
X08319Y03098*
X0832*
X0832Y03098*
X08321Y03098*
X08322Y03099*
X08322Y03099*
X08323Y03099*
X08323Y03099*
X08324Y03099*
X08324Y031*
X08325Y031*
X08325Y03101*
X08326Y03101*
X08326Y03101*
X08327Y03102*
X08327Y03102*
X08327Y03103*
X08328Y03103*
X08328Y03104*
X08328Y03105*
X08328Y03105*
X08328Y03106*
X08328Y03106*
X08328Y03107*
X08329Y03292D02*
D01*
X08329Y03293*
X08328Y03293*
X08328Y03294*
X08328Y03295*
X08328Y03295*
X08328Y03296*
X08328Y03296*
X08327Y03297*
X08327Y03297*
X08326Y03298*
X08326Y03298*
X08326Y03299*
X08325Y03299*
X08325Y033*
X08324Y033*
X08324Y033*
X08323Y033*
X08322Y03301*
X08322Y03301*
X08321Y03301*
X08321Y03301*
X0832Y03301*
X08319*
X08319Y03301*
X08318Y03301*
X08318Y03301*
X08317Y03301*
X08316Y033*
X08316Y033*
X08315Y033*
X08315Y033*
X08314Y03299*
X08314Y03299*
X08313Y03298*
X08313Y03298*
X08313Y03297*
X08312Y03297*
X08312Y03296*
X08312Y03296*
X08311Y03295*
X08311Y03295*
X08311Y03294*
X08311Y03293*
X08311Y03293*
X08311Y03292*
X08311Y03292*
X08311Y03291*
X08311Y0329*
X08311Y0329*
X08311Y03289*
X08312Y03289*
X08312Y03288*
X08312Y03288*
X08313Y03287*
X08313Y03287*
X08313Y03286*
X08314Y03286*
X08314Y03285*
X08315Y03285*
X08315Y03285*
X08316Y03284*
X08316Y03284*
X08317Y03284*
X08318Y03284*
X08318Y03283*
X08319Y03283*
X08319Y03283*
X0832*
X08321Y03283*
X08321Y03283*
X08322Y03284*
X08322Y03284*
X08323Y03284*
X08324Y03284*
X08324Y03285*
X08325Y03285*
X08325Y03285*
X08326Y03286*
X08326Y03286*
X08326Y03287*
X08327Y03287*
X08327Y03288*
X08328Y03288*
X08328Y03289*
X08328Y03289*
X08328Y0329*
X08328Y0329*
X08328Y03291*
X08329Y03292*
X08329Y03292*
Y03024D02*
D01*
X08329Y03025*
X08328Y03026*
X08328Y03026*
X08328Y03027*
X08328Y03027*
X08328Y03028*
X08328Y03029*
X08327Y03029*
X08327Y0303*
X08326Y0303*
X08326Y03031*
X08326Y03031*
X08325Y03031*
X08325Y03032*
X08324Y03032*
X08324Y03032*
X08323Y03033*
X08322Y03033*
X08322Y03033*
X08321Y03033*
X08321Y03033*
X0832Y03033*
X08319*
X08319Y03033*
X08318Y03033*
X08318Y03033*
X08317Y03033*
X08316Y03033*
X08316Y03032*
X08315Y03032*
X08315Y03032*
X08314Y03031*
X08314Y03031*
X08313Y03031*
X08313Y0303*
X08313Y0303*
X08312Y03029*
X08312Y03029*
X08312Y03028*
X08311Y03027*
X08311Y03027*
X08311Y03026*
X08311Y03026*
X08311Y03025*
X08311Y03024*
X08311Y03024*
X08311Y03023*
X08311Y03023*
X08311Y03022*
X08311Y03021*
X08312Y03021*
X08312Y0302*
X08312Y0302*
X08313Y03019*
X08313Y03019*
X08313Y03018*
X08314Y03018*
X08314Y03017*
X08315Y03017*
X08315Y03017*
X08316Y03016*
X08316Y03016*
X08317Y03016*
X08318Y03016*
X08318Y03016*
X08319Y03016*
X08319Y03016*
X0832*
X08321Y03016*
X08321Y03016*
X08322Y03016*
X08322Y03016*
X08323Y03016*
X08324Y03016*
X08324Y03017*
X08325Y03017*
X08325Y03017*
X08326Y03018*
X08326Y03018*
X08326Y03019*
X08327Y03019*
X08327Y0302*
X08328Y0302*
X08328Y03021*
X08328Y03021*
X08328Y03022*
X08328Y03023*
X08328Y03023*
X08329Y03024*
X08329Y03024*
X0823Y03292D02*
D01*
X0823Y03293*
X0823Y03293*
X0823Y03294*
X0823Y03295*
X08229Y03295*
X08229Y03296*
X08229Y03296*
X08229Y03297*
X08228Y03297*
X08228Y03298*
X08227Y03298*
X08227Y03299*
X08227Y03299*
X08226Y03299*
X08226Y033*
X08225Y033*
X08224Y033*
X08224Y03301*
X08223Y03301*
X08223Y03301*
X08222Y03301*
X08221Y03301*
X08221*
X0822Y03301*
X0822Y03301*
X08219Y03301*
X08218Y03301*
X08218Y033*
X08217Y033*
X08217Y033*
X08216Y03299*
X08216Y03299*
X08215Y03299*
X08215Y03298*
X08214Y03298*
X08214Y03297*
X08214Y03297*
X08213Y03296*
X08213Y03296*
X08213Y03295*
X08213Y03295*
X08212Y03294*
X08212Y03293*
X08212Y03293*
X08212Y03292*
X08212Y03291*
X08212Y03291*
X08212Y0329*
X08213Y0329*
X08213Y03289*
X08213Y03288*
X08213Y03288*
X08214Y03287*
X08214Y03287*
X08214Y03286*
X08215Y03286*
X08215Y03286*
X08216Y03285*
X08216Y03285*
X08217Y03284*
X08217Y03284*
X08218Y03284*
X08218Y03284*
X08219Y03284*
X0822Y03283*
X0822Y03283*
X08221Y03283*
X08221*
X08222Y03283*
X08223Y03283*
X08223Y03284*
X08224Y03284*
X08224Y03284*
X08225Y03284*
X08226Y03284*
X08226Y03285*
X08227Y03285*
X08227Y03286*
X08227Y03286*
X08228Y03286*
X08228Y03287*
X08229Y03287*
X08229Y03288*
X08229Y03288*
X08229Y03289*
X0823Y0329*
X0823Y0329*
X0823Y03291*
X0823Y03291*
X0823Y03292*
Y03024D02*
D01*
X0823Y03025*
X0823Y03026*
X0823Y03026*
X0823Y03027*
X08229Y03027*
X08229Y03028*
X08229Y03029*
X08229Y03029*
X08228Y0303*
X08228Y0303*
X08227Y03031*
X08227Y03031*
X08227Y03031*
X08226Y03032*
X08226Y03032*
X08225Y03032*
X08224Y03033*
X08224Y03033*
X08223Y03033*
X08223Y03033*
X08222Y03033*
X08221Y03033*
X08221*
X0822Y03033*
X0822Y03033*
X08219Y03033*
X08218Y03033*
X08218Y03033*
X08217Y03032*
X08217Y03032*
X08216Y03032*
X08216Y03031*
X08215Y03031*
X08215Y03031*
X08214Y0303*
X08214Y0303*
X08214Y03029*
X08213Y03029*
X08213Y03028*
X08213Y03027*
X08213Y03027*
X08212Y03026*
X08212Y03026*
X08212Y03025*
X08212Y03024*
X08212Y03024*
X08212Y03023*
X08212Y03023*
X08213Y03022*
X08213Y03021*
X08213Y03021*
X08213Y0302*
X08214Y0302*
X08214Y03019*
X08214Y03019*
X08215Y03018*
X08215Y03018*
X08216Y03017*
X08216Y03017*
X08217Y03017*
X08217Y03016*
X08218Y03016*
X08218Y03016*
X08219Y03016*
X0822Y03016*
X0822Y03016*
X08221Y03016*
X08221*
X08222Y03016*
X08223Y03016*
X08223Y03016*
X08224Y03016*
X08224Y03016*
X08225Y03016*
X08226Y03017*
X08226Y03017*
X08227Y03017*
X08227Y03018*
X08227Y03018*
X08228Y03019*
X08228Y03019*
X08229Y0302*
X08229Y0302*
X08229Y03021*
X08229Y03021*
X0823Y03022*
X0823Y03023*
X0823Y03023*
X0823Y03024*
X0823Y03024*
G54D96*
X08516Y03158D02*
D01*
X08515Y0316*
X08515Y03162*
X08515Y03164*
X08514Y03166*
X08514Y03168*
X08513Y0317*
X08512Y03171*
X08511Y03173*
X0851Y03174*
X08509Y03176*
X08508Y03177*
X08506Y03179*
X08505Y0318*
X08503Y03181*
X08502Y03182*
X085Y03183*
X08498Y03184*
X08497Y03185*
X08495Y03185*
X08493Y03185*
X08491Y03186*
X08489Y03186*
X08487*
X08485Y03186*
X08483Y03185*
X08481Y03185*
X08479Y03185*
X08478Y03184*
X08476Y03183*
X08474Y03182*
X08473Y03181*
X08471Y0318*
X0847Y03179*
X08468Y03177*
X08467Y03176*
X08466Y03174*
X08465Y03173*
X08464Y03171*
X08463Y0317*
X08462Y03168*
X08462Y03166*
X08461Y03164*
X08461Y03162*
X08461Y0316*
X0846Y03158*
X08461Y03156*
X08461Y03154*
X08461Y03153*
X08462Y03151*
X08462Y03149*
X08463Y03147*
X08464Y03145*
X08465Y03144*
X08466Y03142*
X08467Y03141*
X08468Y03139*
X0847Y03138*
X08471Y03137*
X08473Y03135*
X08474Y03134*
X08476Y03134*
X08478Y03133*
X08479Y03132*
X08481Y03132*
X08483Y03131*
X08485Y03131*
X08487Y03131*
X08489*
X08491Y03131*
X08493Y03131*
X08495Y03132*
X08497Y03132*
X08498Y03133*
X085Y03134*
X08502Y03134*
X08503Y03135*
X08505Y03137*
X08506Y03138*
X08508Y03139*
X08509Y03141*
X0851Y03142*
X08511Y03144*
X08512Y03145*
X08513Y03147*
X08514Y03149*
X08514Y03151*
X08515Y03153*
X08515Y03154*
X08515Y03156*
X08516Y03158*
X08476Y02889D02*
D01*
X08476Y02891*
X08476Y02892*
X08476Y02894*
X08475Y02896*
X08475Y02898*
X08474Y029*
X08473Y02902*
X08472Y02903*
X08471Y02905*
X0847Y02906*
X08469Y02908*
X08467Y02909*
X08466Y0291*
X08464Y02911*
X08462Y02912*
X08461Y02913*
X08459Y02914*
X08457Y02915*
X08455Y02915*
X08453Y02916*
X08452Y02916*
X0845Y02916*
X08448*
X08446Y02916*
X08444Y02916*
X08442Y02915*
X0844Y02915*
X08438Y02914*
X08437Y02913*
X08435Y02912*
X08433Y02911*
X08432Y0291*
X0843Y02909*
X08429Y02908*
X08428Y02906*
X08426Y02905*
X08425Y02903*
X08424Y02902*
X08424Y029*
X08423Y02898*
X08422Y02896*
X08422Y02894*
X08421Y02892*
X08421Y02891*
X08421Y02889*
X08421Y02887*
X08421Y02885*
X08422Y02883*
X08422Y02881*
X08423Y02879*
X08424Y02877*
X08424Y02876*
X08425Y02874*
X08426Y02872*
X08428Y02871*
X08429Y02869*
X0843Y02868*
X08432Y02867*
X08433Y02866*
X08435Y02865*
X08437Y02864*
X08438Y02863*
X0844Y02862*
X08442Y02862*
X08444Y02861*
X08446Y02861*
X08448Y02861*
X0845*
X08452Y02861*
X08453Y02861*
X08455Y02862*
X08457Y02862*
X08459Y02863*
X08461Y02864*
X08462Y02865*
X08464Y02866*
X08466Y02867*
X08467Y02868*
X08469Y02869*
X0847Y02871*
X08471Y02872*
X08472Y02874*
X08473Y02876*
X08474Y02877*
X08475Y02879*
X08475Y02881*
X08476Y02883*
X08476Y02885*
X08476Y02887*
X08476Y02889*
Y03428D02*
D01*
X08476Y0343*
X08476Y03432*
X08476Y03434*
X08475Y03436*
X08475Y03437*
X08474Y03439*
X08473Y03441*
X08472Y03443*
X08471Y03444*
X0847Y03446*
X08469Y03447*
X08467Y03448*
X08466Y0345*
X08464Y03451*
X08462Y03452*
X08461Y03453*
X08459Y03454*
X08457Y03454*
X08455Y03455*
X08453Y03455*
X08452Y03455*
X0845Y03456*
X08448*
X08446Y03455*
X08444Y03455*
X08442Y03455*
X0844Y03454*
X08438Y03454*
X08437Y03453*
X08435Y03452*
X08433Y03451*
X08432Y0345*
X0843Y03448*
X08429Y03447*
X08428Y03446*
X08426Y03444*
X08425Y03443*
X08424Y03441*
X08424Y03439*
X08423Y03437*
X08422Y03436*
X08422Y03434*
X08421Y03432*
X08421Y0343*
X08421Y03428*
X08421Y03426*
X08421Y03424*
X08422Y03422*
X08422Y0342*
X08423Y03419*
X08424Y03417*
X08424Y03415*
X08425Y03413*
X08426Y03412*
X08428Y0341*
X08429Y03409*
X0843Y03408*
X08432Y03406*
X08433Y03405*
X08435Y03404*
X08437Y03403*
X08438Y03402*
X0844Y03402*
X08442Y03401*
X08444Y03401*
X08446Y03401*
X08448Y034*
X0845*
X08452Y03401*
X08453Y03401*
X08455Y03401*
X08457Y03402*
X08459Y03402*
X08461Y03403*
X08462Y03404*
X08464Y03405*
X08466Y03406*
X08467Y03408*
X08469Y03409*
X0847Y0341*
X08471Y03412*
X08472Y03413*
X08473Y03415*
X08474Y03417*
X08475Y03419*
X08475Y0342*
X08476Y03422*
X08476Y03424*
X08476Y03426*
X08476Y03428*
G54D97*
X0353Y01456D02*
D01*
X0353Y01456*
X0353Y01457*
X0353Y01458*
X0353Y01459*
X0353Y01459*
X03529Y0146*
X03529Y01461*
X03529Y01461*
X03528Y01462*
X03528Y01463*
X03527Y01463*
X03527Y01464*
X03526Y01464*
X03526Y01465*
X03525Y01465*
X03524Y01465*
X03524Y01466*
X03523Y01466*
X03522Y01466*
X03521Y01466*
X03521Y01466*
X0352Y01466*
X03519*
X03518Y01466*
X03518Y01466*
X03517Y01466*
X03516Y01466*
X03515Y01466*
X03515Y01465*
X03514Y01465*
X03513Y01465*
X03513Y01464*
X03512Y01464*
X03512Y01463*
X03511Y01463*
X03511Y01462*
X0351Y01461*
X0351Y01461*
X0351Y0146*
X03509Y01459*
X03509Y01459*
X03509Y01458*
X03509Y01457*
X03509Y01456*
X03509Y01456*
X03509Y01455*
X03509Y01454*
X03509Y01453*
X03509Y01453*
X03509Y01452*
X0351Y01451*
X0351Y01451*
X0351Y0145*
X03511Y01449*
X03511Y01449*
X03512Y01448*
X03512Y01448*
X03513Y01447*
X03513Y01447*
X03514Y01446*
X03515Y01446*
X03515Y01446*
X03516Y01445*
X03517Y01445*
X03518Y01445*
X03518Y01445*
X03519Y01445*
X0352*
X03521Y01445*
X03521Y01445*
X03522Y01445*
X03523Y01445*
X03524Y01446*
X03524Y01446*
X03525Y01446*
X03526Y01447*
X03526Y01447*
X03527Y01448*
X03527Y01448*
X03528Y01449*
X03528Y01449*
X03529Y0145*
X03529Y01451*
X03529Y01451*
X0353Y01452*
X0353Y01453*
X0353Y01453*
X0353Y01454*
X0353Y01455*
X0353Y01456*
Y01133D02*
D01*
X0353Y01134*
X0353Y01134*
X0353Y01135*
X0353Y01136*
X0353Y01137*
X03529Y01137*
X03529Y01138*
X03529Y01139*
X03528Y01139*
X03528Y0114*
X03527Y0114*
X03527Y01141*
X03526Y01141*
X03526Y01142*
X03525Y01142*
X03524Y01143*
X03524Y01143*
X03523Y01143*
X03522Y01143*
X03521Y01143*
X03521Y01144*
X0352Y01144*
X03519*
X03518Y01144*
X03518Y01143*
X03517Y01143*
X03516Y01143*
X03515Y01143*
X03515Y01143*
X03514Y01142*
X03513Y01142*
X03513Y01141*
X03512Y01141*
X03512Y0114*
X03511Y0114*
X03511Y01139*
X0351Y01139*
X0351Y01138*
X0351Y01137*
X03509Y01137*
X03509Y01136*
X03509Y01135*
X03509Y01134*
X03509Y01134*
X03509Y01133*
X03509Y01132*
X03509Y01131*
X03509Y01131*
X03509Y0113*
X03509Y01129*
X0351Y01128*
X0351Y01128*
X0351Y01127*
X03511Y01126*
X03511Y01126*
X03512Y01125*
X03512Y01125*
X03513Y01124*
X03513Y01124*
X03514Y01123*
X03515Y01123*
X03515Y01123*
X03516Y01123*
X03517Y01122*
X03518Y01122*
X03518Y01122*
X03519Y01122*
X0352*
X03521Y01122*
X03521Y01122*
X03522Y01122*
X03523Y01123*
X03524Y01123*
X03524Y01123*
X03525Y01123*
X03526Y01124*
X03526Y01124*
X03527Y01125*
X03527Y01125*
X03528Y01126*
X03528Y01126*
X03529Y01127*
X03529Y01128*
X03529Y01128*
X0353Y01129*
X0353Y0113*
X0353Y01131*
X0353Y01131*
X0353Y01132*
X0353Y01133*
G54D98*
X03526Y01295D02*
D01*
X03526Y01295*
X03526Y01295*
X03526Y01296*
X03526Y01296*
X03526Y01297*
X03526Y01297*
X03526Y01298*
X03525Y01298*
X03525Y01299*
X03525Y01299*
X03524Y01299*
X03524Y013*
X03524Y013*
X03523Y013*
X03523Y013*
X03523Y01301*
X03522Y01301*
X03522Y01301*
X03521Y01301*
X03521Y01301*
X0352Y01301*
X0352Y01301*
X03519*
X03519Y01301*
X03518Y01301*
X03518Y01301*
X03517Y01301*
X03517Y01301*
X03516Y01301*
X03516Y013*
X03516Y013*
X03515Y013*
X03515Y013*
X03515Y01299*
X03514Y01299*
X03514Y01299*
X03514Y01298*
X03513Y01298*
X03513Y01297*
X03513Y01297*
X03513Y01296*
X03513Y01296*
X03513Y01295*
X03513Y01295*
X03513Y01295*
X03513Y01294*
X03513Y01294*
X03513Y01293*
X03513Y01293*
X03513Y01292*
X03513Y01292*
X03513Y01291*
X03514Y01291*
X03514Y0129*
X03514Y0129*
X03515Y0129*
X03515Y01289*
X03515Y01289*
X03516Y01289*
X03516Y01289*
X03516Y01288*
X03517Y01288*
X03517Y01288*
X03518Y01288*
X03518Y01288*
X03519Y01288*
X03519Y01288*
X0352*
X0352Y01288*
X03521Y01288*
X03521Y01288*
X03522Y01288*
X03522Y01288*
X03523Y01288*
X03523Y01289*
X03523Y01289*
X03524Y01289*
X03524Y01289*
X03524Y0129*
X03525Y0129*
X03525Y0129*
X03525Y01291*
X03526Y01291*
X03526Y01292*
X03526Y01292*
X03526Y01293*
X03526Y01293*
X03526Y01294*
X03526Y01294*
X03526Y01295*
Y01216D02*
D01*
X03526Y01216*
X03526Y01216*
X03526Y01217*
X03526Y01217*
X03526Y01218*
X03526Y01218*
X03526Y01219*
X03525Y01219*
X03525Y0122*
X03525Y0122*
X03524Y0122*
X03524Y01221*
X03524Y01221*
X03523Y01221*
X03523Y01221*
X03523Y01222*
X03522Y01222*
X03522Y01222*
X03521Y01222*
X03521Y01222*
X0352Y01222*
X0352Y01222*
X03519*
X03519Y01222*
X03518Y01222*
X03518Y01222*
X03517Y01222*
X03517Y01222*
X03516Y01222*
X03516Y01221*
X03516Y01221*
X03515Y01221*
X03515Y01221*
X03515Y0122*
X03514Y0122*
X03514Y0122*
X03514Y01219*
X03513Y01219*
X03513Y01218*
X03513Y01218*
X03513Y01217*
X03513Y01217*
X03513Y01216*
X03513Y01216*
X03513Y01216*
X03513Y01215*
X03513Y01215*
X03513Y01214*
X03513Y01214*
X03513Y01213*
X03513Y01213*
X03513Y01212*
X03514Y01212*
X03514Y01211*
X03514Y01211*
X03515Y01211*
X03515Y0121*
X03515Y0121*
X03516Y0121*
X03516Y0121*
X03516Y01209*
X03517Y01209*
X03517Y01209*
X03518Y01209*
X03518Y01209*
X03519Y01209*
X03519Y01209*
X0352*
X0352Y01209*
X03521Y01209*
X03521Y01209*
X03522Y01209*
X03522Y01209*
X03523Y01209*
X03523Y0121*
X03523Y0121*
X03524Y0121*
X03524Y0121*
X03524Y01211*
X03525Y01211*
X03525Y01211*
X03525Y01212*
X03526Y01212*
X03526Y01213*
X03526Y01213*
X03526Y01214*
X03526Y01214*
X03526Y01215*
X03526Y01215*
X03526Y01216*
Y01373D02*
D01*
X03526Y01373*
X03526Y01374*
X03526Y01374*
X03526Y01375*
X03526Y01375*
X03526Y01376*
X03526Y01376*
X03525Y01377*
X03525Y01377*
X03525Y01377*
X03524Y01378*
X03524Y01378*
X03524Y01378*
X03523Y01379*
X03523Y01379*
X03523Y01379*
X03522Y01379*
X03522Y0138*
X03521Y0138*
X03521Y0138*
X0352Y0138*
X0352Y0138*
X03519*
X03519Y0138*
X03518Y0138*
X03518Y0138*
X03517Y0138*
X03517Y01379*
X03516Y01379*
X03516Y01379*
X03516Y01379*
X03515Y01378*
X03515Y01378*
X03515Y01378*
X03514Y01377*
X03514Y01377*
X03514Y01377*
X03513Y01376*
X03513Y01376*
X03513Y01375*
X03513Y01375*
X03513Y01374*
X03513Y01374*
X03513Y01373*
X03513Y01373*
X03513Y01372*
X03513Y01372*
X03513Y01372*
X03513Y01371*
X03513Y01371*
X03513Y0137*
X03513Y0137*
X03514Y01369*
X03514Y01369*
X03514Y01369*
X03515Y01368*
X03515Y01368*
X03515Y01368*
X03516Y01367*
X03516Y01367*
X03516Y01367*
X03517Y01367*
X03517Y01366*
X03518Y01366*
X03518Y01366*
X03519Y01366*
X03519Y01366*
X0352*
X0352Y01366*
X03521Y01366*
X03521Y01366*
X03522Y01366*
X03522Y01367*
X03523Y01367*
X03523Y01367*
X03523Y01367*
X03524Y01368*
X03524Y01368*
X03524Y01368*
X03525Y01369*
X03525Y01369*
X03525Y01369*
X03526Y0137*
X03526Y0137*
X03526Y01371*
X03526Y01371*
X03526Y01372*
X03526Y01372*
X03526Y01372*
X03526Y01373*
M02*