%FSTAX23Y23*%
%MOIN*%
%SFA1B1*%

%IPPOS*%
%ADD10C,0.010000*%
%ADD19C,0.002360*%
%ADD20C,0.004720*%
%ADD21C,0.002700*%
%ADD65C,0.047240*%
%ADD66R,0.047240X0.047240*%
%ADD68R,0.047240X0.047240*%
%ADD69C,0.015000*%
%ADD70O,0.062000X0.090000*%
%ADD71R,0.062000X0.090000*%
%ADD72C,0.120000*%
%ADD73R,0.074000X0.074000*%
%ADD74C,0.074000*%
%ADD75C,0.060000*%
%ADD76R,0.070870X0.070870*%
%ADD77C,0.070870*%
%ADD78O,0.086610X0.039370*%
%ADD79O,0.070870X0.039370*%
%ADD80C,0.064960*%
%ADD81R,0.064960X0.064960*%
%ADD82C,0.059060*%
%ADD83R,0.059060X0.059060*%
%ADD84C,0.062990*%
%ADD85C,0.157480*%
%ADD86R,0.062990X0.062990*%
%ADD87C,0.062990*%
%ADD88R,0.070870X0.070870*%
%ADD89O,0.118110X0.078740*%
%ADD90O,0.051180X0.062990*%
%ADD91R,0.059060X0.059060*%
%ADD92C,0.024020*%
%LN6502_carrier-1*%
%LPD*%
G36*
X05859Y04412D02*
X05859Y04411D01*
X05859Y04411*
X05853Y04408*
X05847Y04412*
X05835Y04415*
X05824*
X05812Y04412*
X05802Y04406*
X05793Y04397*
X05787Y04387*
X05784Y04375*
Y04364*
X05787Y04352*
X05793Y04342*
X05802Y04333*
X05812Y04327*
X05814Y04327*
Y04125*
X05811Y04122*
X05807Y04114*
Y04105*
X05811Y04097*
X05817Y04091*
X05825Y04087*
X05834*
X05842Y04091*
X05848Y04097*
X05852Y04105*
Y04114*
X05848Y04122*
X05845Y04125*
Y04327*
X05847Y04327*
X05857Y04333*
X0586Y04332*
X05862Y04331*
Y04047*
X05863Y04041*
X05867Y04036*
X05964Y03938*
Y03782*
X0596Y0378*
X05957Y03782*
X05947Y03788*
X05945Y03788*
Y03941*
X05944Y03946*
X0594Y03951*
X05834Y04057*
X05829Y04061*
X05824Y04062*
X05651*
X05649Y04067*
X05652Y04074*
Y04083*
X05648Y04091*
X05645Y04094*
Y04327*
X05647Y04327*
X05657Y04333*
X05666Y04342*
X05672Y04352*
X05675Y04364*
Y04375*
X05672Y04387*
X05666Y04397*
X05657Y04406*
X05647Y04412*
X05635Y04415*
X05624*
X05612Y04412*
X05602Y04406*
X05597Y04402*
X05592Y04403*
X05592Y04405*
X05588Y0441*
X0557Y04428*
X05565Y04432*
X0556Y04433*
X05046*
X0504Y04432*
X05035Y04428*
X05026Y04419*
X05022Y04414*
X05021Y04409*
Y04403*
X05016Y04401*
X05012Y04405*
X05002Y04411*
X0499Y04414*
X04979*
X04967Y04411*
X04965Y0441*
X04918Y04457*
X0492Y04461*
X05809*
X05859Y04412*
G37*
G36*
X05492Y044D02*
X05493Y04397D01*
X05487Y04387*
X05484Y04375*
Y04364*
X05487Y04352*
X05493Y04342*
X05502Y04333*
X05512Y04327*
X05514Y04327*
Y04065*
X05511Y04062*
X05507Y04054*
Y04045*
X05511Y04037*
X05517Y04031*
X05525Y04027*
X05534*
X05542Y04031*
X05548Y04037*
X05552Y04045*
Y04054*
X05548Y04062*
X05545Y04065*
Y04327*
X05547Y04327*
X05557Y04333*
X0556Y04332*
X05562Y04331*
Y04071*
X05563Y04065*
X05567Y0406*
X05591Y04036*
X05596Y04032*
X05602Y04031*
X05817*
X05914Y03934*
Y03788*
X05912Y03788*
X05902Y03782*
X05893Y03773*
X05887Y03763*
X05884Y03752*
Y0374*
X05887Y03728*
X05893Y03718*
X05902Y03709*
X05912Y03703*
X05924Y037*
X05935*
X05947Y03703*
X05957Y03709*
X05961Y03712*
X05966Y03711*
X05969Y03707*
X05989Y03687*
X05994Y03683*
X06Y03682*
X06256*
X06261Y03683*
X06266Y03687*
X06288Y03709*
X06291Y03713*
X06295Y03714*
X06297Y03714*
X06302Y03709*
X06312Y03703*
X06324Y037*
X06335*
X06347Y03703*
X06357Y03709*
X06366Y03718*
X06372Y03728*
X06375Y0374*
Y03752*
X06372Y03763*
X06366Y03773*
X06357Y03782*
X06347Y03788*
X06345Y03788*
Y03874*
X06344Y03879*
X06344Y0388*
Y03886*
X06342Y03889*
X06345Y03894*
X06975*
X07081Y03789*
X07086Y03785*
X07091Y03784*
X0717*
X0717Y03783*
X07176Y03773*
X07183Y03766*
X07185Y03765*
X07183Y0376*
X07088*
X07028Y03819*
X07023Y03823*
X07018Y03824*
X06492*
X06487Y03823*
X06482Y03819*
X06449Y03787*
X06449Y03787*
X06447Y03788*
X06445Y03788*
X06445Y03789*
Y03824*
X06448Y03827*
X06452Y03835*
Y03844*
X06448Y03852*
X06442Y03858*
X06434Y03862*
X06425*
X06417Y03858*
X06411Y03852*
X06407Y03844*
Y03835*
X06411Y03827*
X06414Y03824*
Y03788*
X06412Y03788*
X06402Y03782*
X06393Y03773*
X06387Y03763*
X06384Y03752*
Y0374*
X06387Y03728*
X06393Y03718*
X06402Y03709*
X06412Y03703*
X06424Y037*
X06435*
X06447Y03703*
X06457Y03709*
X06466Y03718*
X06472Y03728*
X06475Y0374*
Y03752*
X06472Y03763*
X06471Y03765*
X06499Y03793*
X06513*
X06513Y03788*
X06512Y03788*
X06502Y03782*
X06493Y03773*
X06487Y03763*
X06484Y03752*
Y0374*
X06487Y03728*
X06493Y03718*
X06502Y03709*
X06512Y03703*
X06524Y037*
X06535*
X06547Y03703*
X06557Y03709*
X06566Y03718*
X06572Y03728*
X06575Y0374*
Y03752*
X06572Y03763*
X06566Y03773*
X06557Y03782*
X06547Y03788*
X06546Y03788*
X06546Y03793*
X06613*
X06613Y03788*
X06612Y03788*
X06602Y03782*
X06593Y03773*
X06587Y03763*
X06584Y03752*
Y0374*
X06587Y03728*
X06588Y03726*
X06475Y03613*
X05238*
X05126Y03725*
X05127Y03727*
X0513Y03739*
Y0375*
X05127Y03762*
X05121Y03772*
X05112Y03781*
X05102Y03787*
X0509Y0379*
X05079*
X05067Y03787*
X05057Y03781*
X05048Y03772*
X05042Y03762*
X05039Y0375*
Y03739*
X05042Y03727*
X05048Y03717*
X05057Y03708*
X05067Y03702*
X05079Y03699*
X0509*
X05102Y03702*
X05104Y03703*
X05221Y03587*
X05226Y03583*
X05232Y03582*
X06481*
X06487Y03583*
X06492Y03587*
X0661Y03704*
X06612Y03703*
X06624Y037*
X06635*
X06647Y03703*
X06657Y03709*
X06666Y03718*
X06672Y03728*
X06675Y0374*
Y03752*
X06672Y03763*
X06666Y03773*
X06657Y03782*
X06647Y03788*
X06646Y03788*
X06646Y03793*
X06713*
X06713Y03788*
X06712Y03788*
X06702Y03782*
X06693Y03773*
X06687Y03763*
X06684Y03752*
Y0374*
X06687Y03728*
X06693Y03718*
X06702Y03709*
X06712Y03703*
X06724Y037*
X06735*
X06747Y03703*
X06757Y03709*
X06766Y03718*
X06772Y03728*
X06775Y0374*
Y03752*
X06772Y03763*
X06766Y03773*
X06757Y03782*
X06747Y03788*
X06746Y03788*
X06746Y03793*
X07011*
X07071Y03734*
X07076Y0373*
X07082Y03729*
X07173*
X07175Y03724*
X0717Y03716*
X07167Y03705*
Y03694*
X0717Y03683*
X0717Y03682*
X06935Y03447*
X06163*
X06162Y03449*
X06161Y03452*
X06167Y03462*
X0617Y03474*
Y03485*
X06167Y03497*
X06161Y03507*
X06152Y03516*
X06142Y03522*
X0613Y03525*
X06119*
X06107Y03522*
X06105Y03521*
X06073Y03553*
X06068Y03556*
X06062Y03557*
X04969*
X04885Y03641*
X0488Y03645*
X04874Y03646*
X04814*
X04812Y0365*
X04865Y03703*
X04867Y03702*
X04879Y03699*
X0489*
X04902Y03702*
X04912Y03708*
X04921Y03717*
X04927Y03727*
X0493Y03739*
Y0375*
X04927Y03762*
X04921Y03772*
X04912Y03781*
X04902Y03787*
X0489Y0379*
X04879*
X04877Y03789*
X04875Y03794*
X04878Y03796*
X0541Y04328*
X05412Y04327*
X05424Y04324*
X05425*
Y04365*
X05384*
Y04364*
X05387Y04352*
X05388Y0435*
X04861Y03822*
X04528*
X04522Y03821*
X04517Y03818*
X04506Y03807*
X04503Y03802*
X04502Y03796*
Y03791*
X04498Y03788*
X0449Y0379*
X0449*
Y03745*
X0448*
Y0379*
X04479*
X04467Y03787*
X04457Y03781*
X04453Y03777*
X04447Y03779*
X04447Y03781*
X04443Y03786*
X04426Y03803*
X04421Y03807*
X04416Y03808*
X04349*
X04343Y03807*
X04338Y03803*
X04321Y03786*
X04318Y03782*
X04313Y0378*
X04312Y03781*
X04302Y03787*
X0429Y0379*
X04279*
X04267Y03787*
X04265Y03786*
X04233Y03818*
X04228Y03821*
X04222Y03822*
X0322*
X03214Y03821*
X03209Y03818*
X02948Y03556*
X02944Y03551*
X02943Y03546*
Y03507*
X02939Y03505*
X02937Y03506*
X02927Y03512*
X02915Y03515*
X02904*
X02892Y03512*
X02882Y03506*
X02873Y03497*
X02867Y03487*
X02864Y03475*
Y03464*
X02867Y03452*
X02873Y03442*
X02882Y03433*
X02892Y03427*
X02904Y03424*
X02915*
X02927Y03427*
X02937Y03433*
X02939Y03434*
X02943Y03432*
Y03333*
X02938Y03331*
X02935Y03334*
X0293Y03338*
X02924Y03339*
X028*
X02773Y03366*
Y03435*
X02778Y03437*
X02782Y03433*
X02792Y03427*
X02804Y03424*
X02815*
X02827Y03427*
X02837Y03433*
X02846Y03442*
X02852Y03452*
X02855Y03464*
Y03475*
X02852Y03487*
X02846Y03497*
X02837Y03506*
X02827Y03512*
X02815Y03515*
X02804*
X02792Y03512*
X02782Y03506*
X02778Y03502*
X02773Y03504*
Y03682*
X02772Y03687*
X02768Y03692*
X02572Y03889*
Y03925*
X02577Y03927*
X02644Y0386*
X02649Y03856*
X02655Y03855*
X02798*
X02803Y03856*
X02808Y0386*
X02888Y03939*
X03019*
Y0384*
X03101*
Y03939*
X03325*
X03328Y03934*
X03324Y03929*
X0332Y03919*
X03318Y03909*
Y039*
X03401*
Y03909*
X03399Y03919*
X03395Y03929*
X03391Y03934*
X03394Y03939*
X04271*
X04276Y0394*
X04281Y03944*
X04665Y04327*
X04667Y04326*
X04679Y04323*
X0469*
X04702Y04326*
X04712Y04332*
X04714Y04333*
X04719Y04332*
X04722Y04329*
X04741Y0431*
X04746Y04306*
X04752Y04305*
X04993*
X04995Y04301*
X04578Y03884*
X03626*
X03623Y03887*
X03615Y03891*
X03606*
X03598Y03887*
X03592Y03881*
X03588Y03873*
Y03864*
X03592Y03856*
X03598Y0385*
X03606Y03846*
X03615*
X03623Y0385*
X03626Y03853*
X04585*
X0459Y03854*
X04595Y03858*
X05061Y04323*
X0513*
Y04402*
X05391*
X05392Y044*
X05393Y04397*
X05387Y04387*
X05384Y04375*
Y04375*
X05475*
Y04375*
X05472Y04387*
X05466Y04397*
X05467Y044*
X05468Y04402*
X05491*
X05492Y044*
G37*
G36*
X04943Y04388D02*
X04942Y04386D01*
X04939Y04374*
Y04363*
X04942Y04351*
X04948Y04341*
X04947Y04338*
X04946Y04336*
X04923*
X04922Y04338*
X04921Y04341*
X04927Y04351*
X0493Y04363*
Y04374*
X04927Y04386*
X04921Y04396*
X04912Y04405*
X04902Y04411*
X0489Y04414*
X04879*
X04867Y04411*
X04857Y04405*
X04848Y04396*
X04842Y04386*
X04839Y04374*
Y04363*
X04842Y04351*
X04848Y04341*
X04847Y04338*
X04846Y04336*
X04823*
X04822Y04338*
X04821Y04341*
X04827Y04351*
X0483Y04363*
Y04374*
X04827Y04386*
X04821Y04396*
X04812Y04405*
X04802Y04411*
X048Y04411*
X04799Y04416*
X04795Y04421*
X04784Y04433*
X04786Y04437*
X04894*
X04943Y04388*
G37*
G36*
X06492Y044D02*
X06493Y04397D01*
X06487Y04387*
X06484Y04375*
Y04364*
X06487Y04352*
X06493Y04342*
X06502Y04333*
X06512Y04327*
X06514Y04327*
Y04265*
X06511Y04262*
X0651Y0426*
X06505Y04259*
X06503Y04261*
X06495Y04265*
X0649*
X06445Y0431*
Y04327*
X06447Y04327*
X06457Y04333*
X06466Y04342*
X06472Y04352*
X06475Y04364*
Y04375*
X06472Y04387*
X06466Y04397*
X06467Y044*
X06468Y04402*
X06491*
X06492Y044*
G37*
G36*
X06292D02*
X06293Y04397D01*
X06287Y04387*
X06284Y04375*
Y04364*
X06287Y04352*
X06293Y04342*
X06302Y04333*
X06312Y04327*
X06314Y04327*
Y04225*
X06311Y04222*
X06307Y04214*
Y04209*
X06282Y04184*
X06253*
X06251Y04188*
X06252Y0419*
Y04199*
X06248Y04207*
X06245Y0421*
Y04327*
X06247Y04327*
X06257Y04333*
X06266Y04342*
X06272Y04352*
X06275Y04364*
Y04375*
X06272Y04387*
X06271Y04389*
X06284Y04402*
X06291*
X06292Y044*
G37*
G36*
X06392D02*
X06393Y04397D01*
X06387Y04387*
X06384Y04375*
Y04364*
X06387Y04352*
X06393Y04342*
X06402Y04333*
X06412Y04327*
X06414Y04327*
Y04304*
Y0425*
X06411Y04247*
X06407Y04239*
Y0423*
X06411Y04222*
X06417Y04216*
X06425Y04212*
X06434*
X06442Y04216*
X06448Y04222*
X06452Y0423*
Y04239*
X06448Y04247*
X06445Y0425*
Y0426*
X06449Y04262*
X06468Y04243*
Y04238*
X06472Y0423*
X06478Y04224*
X06486Y0422*
X06495*
X06503Y04224*
X06509Y0423*
X06509Y0423*
X06514Y04229*
Y04186*
X06457Y04129*
X06134*
X06105Y04157*
X06107Y04162*
X06114*
X06122Y04166*
X06128Y04172*
X06132Y0418*
Y04185*
X0614Y04194*
X06144Y04199*
X06145Y04205*
Y04327*
X06147Y04327*
X06157Y04333*
X06161Y04337*
X06166Y04335*
Y04192*
X06167Y04186*
X06171Y04181*
X06194Y04158*
X06199Y04154*
X06205Y04153*
X06289*
X06294Y04154*
X06299Y04158*
X06329Y04187*
X06334*
X06342Y04191*
X06348Y04197*
X06352Y04205*
Y04214*
X06348Y04222*
X06345Y04225*
Y04327*
X06347Y04327*
X06357Y04333*
X06366Y04342*
X06372Y04352*
X06375Y04364*
Y04375*
X06372Y04387*
X06366Y04397*
X06367Y044*
X06368Y04402*
X06391*
X06392Y044*
G37*
G36*
X07219Y04146D02*
X07217Y04142D01*
X07215Y04142*
X07204*
X07193Y04139*
X07183Y04133*
X07176Y04126*
X07171Y04117*
X07063Y04123*
X07063Y04123*
X07062Y04123*
X06898*
X06861Y04159*
X06863Y04164*
X06869*
X06877Y04168*
X0688Y04171*
X07194*
X07219Y04146*
G37*
G36*
X07311Y04147D02*
X07309Y04142D01*
X07304*
X07293Y04139*
X07283Y04133*
X07279Y0413*
X07274Y04131*
X07274Y04133*
X0727Y04138*
X07211Y04197*
X07206Y04201*
X07201Y04202*
X0688*
X06877Y04205*
X06869Y04209*
X0686*
X06852Y04205*
X06846Y04199*
X06842Y04191*
Y04185*
X06837Y04183*
X06701Y04319*
X06703Y04324*
X06775*
Y04415*
X06684*
Y04343*
X06679Y04341*
X06671Y0435*
X06672Y04352*
X06675Y04364*
Y04375*
X06672Y04387*
X06666Y04397*
X06657Y04406*
X06647Y04412*
X06635Y04415*
X06624*
X06612Y04412*
X06602Y04406*
X06599Y04403*
X06595Y04404*
X06594Y04405*
X06594Y04405*
X0659Y0441*
X06583Y04418*
X06585Y04422*
X07036*
X07311Y04147*
G37*
G36*
X06602Y04333D02*
X06612Y04327D01*
X06617Y04326*
Y04287*
X06614Y04284*
X06611Y04276*
Y04267*
X06614Y04259*
X0662Y04253*
X06628Y04249*
X06637*
X06645Y04253*
X06651Y04259*
X06655Y04267*
Y04276*
X06651Y04284*
X06648Y04287*
Y04322*
X06653Y04324*
X06865Y04113*
X06863Y04108*
X06662*
X06595Y04175*
Y04333*
X06599Y04335*
X06602Y04333*
G37*
G36*
X03006Y04117D02*
X03011Y04113D01*
X03017Y04112*
X043*
X04302Y04108*
X04274Y0408*
X02776*
Y04154*
X02969*
X03006Y04117*
G37*
G36*
X02693Y0408D02*
X02566D01*
X02564Y04085*
X02569Y04093*
X02572Y04104*
Y04115*
X02569Y04126*
X02563Y04136*
X02556Y04143*
X02551Y04146*
X02549Y04153*
X0255Y04154*
X02693*
Y0408*
G37*
G36*
X05602Y04333D02*
X05612Y04327D01*
X05614Y04327*
Y04094*
X05611Y04091*
X05607Y04083*
Y04074*
X05609Y04071*
X05606Y04065*
X05605Y04065*
X05593Y04077*
Y04335*
X05598Y04337*
X05602Y04333*
G37*
G36*
X07369Y0409D02*
Y03933D01*
X07364Y03932*
X0734Y03955*
X07335Y03959*
X07334Y03959*
X07333Y03964*
X07336Y03966*
X07343Y03973*
X07349Y03983*
X07352Y03994*
Y04005*
X07349Y04016*
X07343Y04026*
X07336Y04033*
X07326Y04039*
X07315Y04042*
X07304*
X07293Y04039*
X07292Y04039*
X07275Y04056*
Y04067*
X0728Y04069*
X07283Y04066*
X07293Y0406*
X07304Y04057*
X07305*
Y041*
X07315*
Y04057*
X07315*
X07326Y0406*
X07336Y04066*
X07343Y04073*
X07349Y04083*
X07352Y04094*
Y04099*
X07357Y04101*
X07369Y0409*
G37*
G36*
X04567Y04326D02*
X04579Y04323D01*
X04582*
X04584Y04318*
X04251Y03986*
X02771*
X02769Y03991*
X02773Y03998*
X02776Y04009*
Y0402*
X02773Y04031*
X02768Y0404*
X02763Y04044*
X02766Y04049*
X04281*
X04286Y0405*
X04291Y04054*
X04565Y04327*
X04567Y04326*
G37*
G36*
X02706Y04044D02*
X02701Y0404D01*
X02696Y04031*
X02693Y0402*
Y04009*
X02696Y03998*
X027Y03991*
X02698Y03986*
X02575*
X02569Y03992*
X02569Y03993*
X02572Y04004*
Y04015*
X02569Y04026*
X02563Y04036*
X02556Y04043*
X02554Y04044*
X02556Y04049*
X02703*
X02706Y04044*
G37*
G36*
X02856Y03951D02*
X02791Y03886D01*
X02771*
X02769Y03891*
X02773Y03898*
X02776Y03909*
Y0392*
X02773Y03931*
X02768Y0394*
X0276Y03948*
X02756Y0395*
X02757Y03955*
X02854*
X02856Y03951*
G37*
G36*
X02713Y0395D02*
X02709Y03948D01*
X02701Y0394*
X02696Y03931*
X02693Y0392*
Y03909*
X02696Y03898*
X027Y03891*
X02698Y03886*
X02661*
X02596Y03951*
X02598Y03955*
X02712*
X02713Y0395*
G37*
G36*
X02469Y03883D02*
Y03735D01*
X02433Y03698*
X02429Y03693*
X02428Y03688*
Y03634*
X02429Y03628*
X02433Y03623*
X02446Y03609*
Y03504*
X02441Y03502*
X02437Y03506*
X02427Y03512*
X02415Y03515*
X02404*
X024Y03519*
Y03873*
X02405Y03875*
X02413Y0387*
X02424Y03867*
X02435*
X02446Y0387*
X02456Y03876*
X02463Y03883*
X02464Y03885*
X02469Y03883*
G37*
G36*
X07354Y03879D02*
Y0382D01*
X07353Y03819*
X07346Y03821*
X07343Y03826*
X07336Y03833*
X07326Y03839*
X07315Y03842*
X07304*
X07293Y03839*
X07283Y03833*
X07276Y03826*
X0727Y03816*
X07267Y03805*
Y03794*
X0727Y03783*
X07276Y03773*
X07283Y03766*
X07293Y0376*
X07304Y03757*
X07315*
X07326Y0376*
X07336Y03766*
X07343Y03773*
X07346Y03778*
X07353Y0378*
X07354Y03779*
Y0372*
X07353Y03719*
X07346Y03721*
X07343Y03726*
X07336Y03733*
X07326Y03739*
X07315Y03742*
X07304*
X07293Y03739*
X07292Y03739*
X07275Y03755*
X0727Y03759*
X07265Y0376*
X07236*
X07234Y03765*
X07236Y03766*
X07243Y03773*
X07249Y03783*
X07252Y03794*
Y03805*
X07249Y03816*
X07243Y03826*
X07236Y03833*
X07234Y03834*
X07236Y03839*
X07265*
X0727Y0384*
X07275Y03844*
X07292Y0386*
X07293Y0386*
X07304Y03857*
X07315*
X07326Y0386*
X07336Y03866*
X07343Y03873*
X07346Y03878*
X07353Y0388*
X07354Y03879*
G37*
G36*
X07121Y03855D02*
Y0385D01*
X07125Y03842*
X07131Y03836*
X07139Y03832*
X07148*
X07156Y03836*
X07162Y03842*
X07163Y03845*
X07168Y03846*
X07171Y03844*
X07176Y0384*
X07182Y03839*
X07183*
X07185Y03834*
X07183Y03833*
X07176Y03826*
X0717Y03816*
X0717Y03815*
X07098*
X07006Y03907*
X07008Y03911*
X07065*
X07121Y03855*
G37*
G36*
X05902Y04333D02*
X05912Y04327D01*
X05914Y04327*
Y0417*
X05914Y04169*
X05912Y04168*
X05906Y04162*
X05902Y04154*
Y04145*
X05906Y04137*
X05912Y04131*
X05914Y0413*
Y04096*
X05915Y0409*
X05919Y04085*
X06026Y03978*
X06031Y03974*
X06036Y03973*
X06229*
X06231Y03968*
X06049Y03787*
X06049Y03787*
X06047Y03788*
X06045Y03788*
X06045Y03789*
Y03909*
X06047Y0391*
X06053Y03917*
X06057Y03925*
Y03933*
X06053Y03941*
X06047Y03948*
X06039Y03951*
X0603*
X06022Y03948*
X06016Y03941*
X06013Y03933*
Y03925*
X06014Y03921*
Y03788*
X06012Y03788*
X06002Y03782*
X05999Y0378*
X05995Y03782*
Y03945*
X05994Y0395*
X0599Y03955*
X05893Y04053*
Y04335*
X05898Y04337*
X05902Y04333*
G37*
G36*
X02006Y03748D02*
X0199Y03732D01*
X01985*
X01978Y03728*
X01973Y0373*
Y03827*
X01972Y03832*
X01968Y03837*
X01943Y03862*
X01945Y03867*
X02006*
Y03748*
G37*
G36*
X06207Y03895D02*
Y03894D01*
X06211Y03886*
X06214Y03883*
Y03788*
X06212Y03788*
X06202Y03782*
X06193Y03773*
X06187Y03763*
X06184Y03752*
Y0374*
X06187Y03728*
X06193Y03718*
X06192Y03715*
X06191Y03713*
X06168*
X06167Y03715*
X06166Y03718*
X06172Y03728*
X06175Y0374*
Y03741*
X0613*
X06084*
Y0374*
X06087Y03728*
X06093Y03718*
X06092Y03715*
X06091Y03713*
X06068*
X06067Y03715*
X06066Y03718*
X06072Y03728*
X06075Y0374*
Y03752*
X06072Y03763*
X06071Y03765*
X06203Y03897*
X06207Y03895*
G37*
G36*
X04867Y03787D02*
X04857Y03781D01*
X04848Y03772*
X04842Y03762*
X04839Y0375*
Y03739*
X04842Y03727*
X04843Y03725*
X04786Y03667*
X04536*
X04534Y03672*
X04565Y03703*
X04567Y03702*
X04579Y03699*
X0459*
X04602Y03702*
X04612Y03708*
X04621Y03717*
X04627Y03727*
X0463Y03739*
Y0375*
X04627Y03762*
X04621Y03772*
X04623Y03777*
X04646*
X04648Y03772*
X04642Y03762*
X04639Y0375*
Y03739*
X04642Y03727*
X04648Y03717*
X04657Y03708*
X04667Y03702*
X04679Y03699*
X0469*
X04702Y03702*
X04712Y03708*
X04721Y03717*
X04727Y03727*
X0473Y03739*
Y0375*
X04727Y03762*
X04721Y03772*
X04723Y03777*
X04731*
X04743Y03764*
X04742Y03762*
X04739Y0375*
Y03739*
X04742Y03727*
X04748Y03717*
X04757Y03708*
X04767Y03702*
X04779Y03699*
X0479*
X04802Y03702*
X04812Y03708*
X04821Y03717*
X04827Y03727*
X0483Y03739*
Y0375*
X04827Y03762*
X04821Y03772*
X04812Y03781*
X04802Y03787*
X04802Y03787*
X04805Y03792*
X04866*
X04867Y03787*
G37*
G36*
X0727Y03717D02*
X0727Y03716D01*
X07267Y03705*
Y03694*
X0727Y03683*
X07276Y03673*
X07283Y03666*
X07293Y0366*
X07304Y03657*
X07315*
X07326Y0366*
X07336Y03666*
X07343Y03673*
X07346Y03678*
X07353Y0368*
X07354Y03679*
Y0362*
X07353Y03619*
X07346Y03621*
X07343Y03626*
X07336Y03633*
X07326Y03639*
X07315Y03642*
X07304*
X07293Y03639*
X07283Y03633*
X07276Y03626*
X0727Y03616*
X07267Y03605*
Y03594*
X0727Y03583*
X07276Y03573*
X07283Y03566*
X07293Y0356*
X07304Y03557*
X07315*
X07326Y0356*
X07336Y03566*
X07343Y03573*
X07346Y03578*
X07353Y0358*
X07354Y03579*
Y0352*
X07353Y03519*
X07346Y03521*
X07343Y03526*
X07336Y03533*
X07326Y03539*
X07315Y03542*
X07304*
X07293Y03539*
X07283Y03533*
X07276Y03526*
X0727Y03516*
X07267Y03505*
Y03494*
X0727Y03483*
X07276Y03473*
X07283Y03466*
X07293Y0346*
X07304Y03457*
X07315*
X07326Y0346*
X07336Y03466*
X07343Y03473*
X07346Y03478*
X07353Y0348*
X07354Y03479*
Y0342*
X07353Y03419*
X07346Y03421*
X07343Y03426*
X07336Y03433*
X07326Y03439*
X07315Y03442*
X07315*
Y034*
Y03357*
X07315*
X07326Y0336*
X07336Y03366*
X07343Y03373*
X07346Y03378*
X07353Y0338*
X07354Y03379*
Y0332*
X07353Y03319*
X07346Y03321*
X07343Y03326*
X07336Y03333*
X07326Y03339*
X07315Y03342*
X07304*
X07293Y03339*
X07283Y03333*
X07276Y03326*
X0727Y03316*
X07267Y03305*
Y03294*
X0727Y03283*
X07276Y03273*
X07283Y03266*
X07293Y0326*
X07304Y03257*
X07315*
X07326Y0326*
X07336Y03266*
X07343Y03273*
X07346Y03278*
X07353Y0328*
X07354Y03279*
Y0322*
X07353Y03219*
X07346Y03221*
X07343Y03226*
X07336Y03233*
X07326Y03239*
X07315Y03242*
X07304*
X07293Y03239*
X07283Y03233*
X07276Y03226*
X0727Y03216*
X07267Y03205*
Y03194*
X0727Y03183*
X0727Y03182*
X07252Y03163*
X07248Y03158*
X07247Y03153*
Y03129*
X07242Y03127*
X07236Y03133*
X07226Y03139*
X07215Y03142*
X07215*
Y031*
X07205*
Y03142*
X07204*
X07193Y03139*
X07183Y03133*
X07176Y03126*
X0717Y03116*
X07167Y03105*
Y03099*
X07162Y03097*
X06972Y03287*
X06974Y03291*
X07096*
X0717Y03217*
X0717Y03216*
X07167Y03205*
Y03194*
X0717Y03183*
X07176Y03173*
X07183Y03166*
X07193Y0316*
X07204Y03157*
X07215*
X07226Y0316*
X07236Y03166*
X07243Y03173*
X07249Y03183*
X07252Y03194*
Y03205*
X07249Y03216*
X07243Y03226*
X07236Y03233*
X07226Y03239*
X07215Y03242*
X07204*
X07193Y03239*
X07192Y03239*
X07116Y03314*
X07118Y03319*
X07166*
X07167Y03318*
X0717Y03315*
X07167Y03305*
Y03294*
X0717Y03283*
X07176Y03273*
X07183Y03266*
X07193Y0326*
X07204Y03257*
X07215*
X07226Y0326*
X07236Y03266*
X07243Y03273*
X07249Y03283*
X07252Y03294*
Y03305*
X07249Y03316*
X07243Y03326*
X07236Y03333*
X07226Y03339*
X07215Y03342*
X07204*
X07193Y03339*
X07192Y03339*
X07185Y03345*
X0718Y03349*
X07175Y0335*
X06662*
X06659Y03355*
X06661Y0336*
X06618*
X0662Y03355*
X06617Y0335*
X05547*
X05544Y03355*
X05547Y0336*
Y03369*
X05543Y03377*
X05542Y03378*
Y03433*
X05547Y03435*
X05594Y03389*
X05599Y03385*
X05605Y03384*
X06621*
X06623Y03379*
X06621Y03377*
X06618Y0337*
X06661*
X06658Y03377*
X06656Y03379*
X06658Y03384*
X0717*
X0717Y03383*
X07176Y03373*
X07183Y03366*
X07193Y0336*
X07204Y03357*
X07215*
X07226Y0336*
X07236Y03366*
X07243Y03373*
X07249Y03383*
X07252Y03394*
Y03405*
X07249Y03416*
X07243Y03426*
X07236Y03433*
X07226Y03439*
X07215Y03442*
X07204*
X07193Y03439*
X07183Y03433*
X07176Y03426*
X0717Y03416*
X0717Y03415*
X06953*
X06951Y0342*
X06952Y03421*
X07192Y0366*
X07193Y0366*
X07204Y03657*
X07215*
X07226Y0366*
X07236Y03666*
X07243Y03673*
X07249Y03683*
X07252Y03694*
Y03705*
X07249Y03716*
X07244Y03724*
X07246Y03729*
X07258*
X0727Y03717*
G37*
G36*
X0741Y04072D02*
Y03654D01*
X07407Y03651*
X07404Y03645*
X07399Y03646*
Y04077*
X07404Y04078*
X0741Y04072*
G37*
G36*
X0867Y0107D02*
X0171D01*
Y01501*
X01711Y01502*
X01715Y01503*
X01892Y01325*
Y0132*
X01896Y01312*
X01902Y01306*
X0191Y01302*
X01915*
X02031Y01187*
X02036Y01183*
X02042Y01182*
X02822*
X02823Y01177*
X02819Y01176*
X0281Y01171*
X02803Y01164*
X02798Y01155*
X02795Y01145*
Y01134*
X02798Y01124*
X02803Y01115*
X0281Y01108*
X02819Y01103*
X02829Y011*
X0284*
X0285Y01103*
X02859Y01108*
X02866Y01115*
X02871Y01124*
X02874Y01134*
Y01145*
X02871Y01155*
X02866Y01164*
X02859Y01171*
X0285Y01176*
X02847Y01177*
X02847Y01182*
X03122*
X03123Y01177*
X03119Y01176*
X0311Y01171*
X03103Y01164*
X03098Y01155*
X03095Y01145*
Y01134*
X03098Y01124*
X03103Y01115*
X0311Y01108*
X03119Y01103*
X03129Y011*
X0314*
X0315Y01103*
X03159Y01108*
X03166Y01115*
X03171Y01124*
X03174Y01134*
Y01145*
X03171Y01155*
X03166Y01164*
X03159Y01171*
X0315Y01176*
X03147Y01177*
X03147Y01182*
X0316*
X03165Y01183*
X0317Y01187*
X03446Y01463*
X03451Y0146*
X0345Y01456*
X03452Y01443*
X03457Y01431*
X03465Y0142*
X03475Y01413*
X03487Y01408*
X0349Y01407*
X03492Y01402*
X03488Y01397*
X03485Y01388*
X03484Y01379*
Y01367*
X03485Y01358*
X03488Y01349*
X03494Y01342*
X03501Y01337*
X03501Y01334*
X03501Y01331*
X03494Y01326*
X03488Y01318*
X03485Y0131*
X03484Y013*
Y013*
X0352*
X03555*
Y013*
X03554Y0131*
X03551Y01318*
X03545Y01326*
X03538Y01331*
X03538Y01334*
X03538Y01337*
X03545Y01342*
X03551Y01349*
X03554Y01358*
X03555Y01367*
Y01379*
X03554Y01388*
X03551Y01397*
X03547Y01402*
X03549Y01407*
X03552Y01408*
X03564Y01413*
X03574Y0142*
X03582Y01431*
X03587Y01443*
X03589Y01456*
X03587Y01469*
X03582Y01481*
X03574Y01491*
X03564Y01499*
X03552Y01504*
X03539Y01505*
X035*
X03495Y01505*
X03493Y01509*
X03496Y01513*
X04528*
X04534Y01514*
X04539Y01517*
X04569Y01548*
X04579Y01545*
X0459*
X046Y01548*
X04609Y01553*
X04616Y0156*
X04621Y01569*
X04624Y01579*
Y0159*
X04621Y016*
X04616Y01609*
X04609Y01616*
X046Y01621*
X0459Y01624*
X04579*
X04569Y01621*
X0456Y01616*
X04553Y01609*
X04548Y016*
X04545Y0159*
Y01579*
X04548Y01569*
X04522Y01543*
X04502*
X04501Y01548*
X04509Y01553*
X04516Y0156*
X04521Y01569*
X04524Y01579*
Y0159*
X04521Y016*
X04516Y01609*
X04509Y01616*
X045Y01621*
X0449Y01624*
X04479*
X04469Y01621*
X0446Y01616*
X04453Y01609*
X04448Y016*
X04445Y0159*
Y01579*
X04448Y01569*
X04453Y0156*
X0446Y01553*
X04468Y01548*
X04467Y01543*
X04402*
X04401Y01548*
X04409Y01553*
X04416Y0156*
X04421Y01569*
X04424Y01579*
Y0159*
X04421Y016*
X04416Y01609*
X04409Y01616*
X044Y01621*
X0439Y01624*
X04379*
X04369Y01621*
X0436Y01616*
X04353Y01609*
X04348Y016*
X04345Y0159*
Y01579*
X04348Y01569*
X04353Y0156*
X0436Y01553*
X04368Y01548*
X04367Y01543*
X04302*
X04301Y01548*
X04309Y01553*
X04316Y0156*
X04321Y01569*
X04324Y01579*
Y0159*
X04321Y016*
X04316Y01609*
X04309Y01616*
X043Y01621*
X0429Y01624*
X04279*
X04269Y01621*
X0426Y01616*
X04253Y01609*
X04248Y016*
X04245Y0159*
Y01579*
X04248Y01569*
X04253Y0156*
X0426Y01553*
X04268Y01548*
X04267Y01543*
X04202*
X04201Y01548*
X04209Y01553*
X04216Y0156*
X04221Y01569*
X04224Y01579*
Y0159*
X04221Y016*
X04216Y01609*
X04209Y01616*
X042Y01621*
X0419Y01624*
X04179*
X04169Y01621*
X0416Y01616*
X04153Y01609*
X04148Y016*
X04145Y0159*
Y01579*
X04148Y01569*
X04153Y0156*
X0416Y01553*
X04168Y01548*
X04167Y01543*
X04102*
X04101Y01548*
X04109Y01553*
X04116Y0156*
X04121Y01569*
X04124Y01579*
Y0159*
X04121Y016*
X04116Y01609*
X04109Y01616*
X041Y01621*
X0409Y01624*
X04079*
X04069Y01621*
X0406Y01616*
X04053Y01609*
X04048Y016*
X04048*
X04042Y01599*
X04037Y01595*
X04029Y01587*
X04024Y01589*
Y0159*
X04021Y016*
X04279Y01857*
X04548*
X04553Y01858*
X04558Y01862*
X04574Y01878*
X04584Y01875*
X04595*
X04605Y01878*
X04854Y01628*
Y01616*
X04845Y01611*
X04838Y01604*
X04833Y01595*
X0483Y01585*
Y01574*
X04833Y01564*
X04838Y01555*
X04845Y01548*
X04854Y01543*
X04864Y0154*
X04875*
X04885Y01543*
X04894Y01548*
X04901Y01555*
X04906Y01564*
X04909Y01574*
Y01585*
X04906Y01595*
X04901Y01604*
X04894Y01611*
X04885Y01616*
Y01635*
X04884Y0164*
X0488Y01645*
X04626Y01899*
X04629Y01909*
Y0192*
X04626Y0193*
X04621Y01939*
X04614Y01946*
X04605Y01951*
X04595Y01954*
X04584*
X04574Y01951*
X04535Y0199*
X0453Y01994*
X04525Y01995*
X03166*
X03161Y02004*
X03154Y02011*
X03145Y02016*
X03135Y02019*
X03124*
X03114Y02016*
X03105Y02011*
X03098Y02004*
X03093Y01995*
X0309Y01985*
Y01974*
X03093Y01964*
X03098Y01955*
X03105Y01948*
X03114Y01943*
X03124Y0194*
X03135*
X03145Y01943*
X03154Y01948*
X03161Y01955*
X03166Y01964*
X04518*
X04553Y0193*
X0455Y0192*
Y01909*
X04553Y01899*
X04541Y01888*
X04526*
X04523Y01893*
X04526Y01899*
X04529Y01909*
Y0192*
X04526Y0193*
X04521Y01939*
X04514Y01946*
X04505Y01951*
X04495Y01954*
X04484*
X04474Y01951*
X04465Y01946*
X04458Y01939*
X04453Y0193*
X0445Y0192*
Y01909*
X04453Y01899*
X04456Y01893*
X04454Y01888*
X04426*
X04423Y01893*
X04426Y01899*
X04429Y01909*
Y0192*
X04426Y0193*
X04421Y01939*
X04414Y01946*
X04405Y01951*
X04395Y01954*
X04384*
X04374Y01951*
X04365Y01946*
X04358Y01939*
X04353Y0193*
X0435Y0192*
Y01909*
X04353Y01899*
X04356Y01893*
X04354Y01888*
X04326*
X04323Y01893*
X04326Y01899*
X04329Y01909*
Y0192*
X04326Y0193*
X04321Y01939*
X04314Y01946*
X04305Y01951*
X04295Y01954*
X04284*
X04274Y01951*
X04265Y01946*
X04258Y01939*
X04253Y0193*
X0425Y0192*
Y01909*
X04253Y01899*
X04258Y0189*
X04262Y01886*
X04262Y01883*
X04Y01621*
X0399Y01624*
X03979*
X03969Y01621*
X0396Y01616*
X03953Y01609*
X03948Y016*
X03945Y0159*
Y01579*
X03948Y01569*
X03951Y01563*
X03948Y01558*
X03476*
X03302Y01732*
X03297Y01736*
X03292Y01737*
X03142*
X03142Y01742*
X03145Y01743*
X03154Y01748*
X03161Y01755*
X03166Y01764*
X03169Y01774*
Y01785*
X03166Y01795*
X03161Y01804*
X03154Y01811*
X03145Y01816*
X03135Y01819*
X03124*
X03114Y01816*
X03105Y01811*
X03098Y01804*
X03093Y01795*
X02936*
X02866Y01864*
X02869Y01874*
Y01885*
X02866Y01895*
X02861Y01904*
X02854Y01911*
X02845Y01916*
X02835Y01919*
X02824*
X02814Y01916*
X02805Y01911*
X02798Y01904*
X02793Y01895*
X0279Y01885*
Y01874*
X02793Y01864*
X02798Y01855*
X02805Y01848*
X02814Y01843*
X02824Y0184*
X02835*
X02845Y01843*
X02919Y01769*
X02924Y01765*
X0293Y01764*
X03093*
X03098Y01755*
X03105Y01748*
X03114Y01743*
X03118Y01742*
X03117Y01737*
X02842*
X02842Y01742*
X02845Y01743*
X02854Y01748*
X02861Y01755*
X02866Y01764*
X02869Y01774*
Y01785*
X02866Y01795*
X02861Y01804*
X02854Y01811*
X02845Y01816*
X02835Y01819*
X02824*
X02814Y01816*
X02805Y01811*
X02798Y01804*
X02793Y01795*
X0279Y01785*
Y01774*
X02793Y01764*
X02798Y01755*
X02805Y01748*
X02814Y01743*
X02818Y01742*
X02817Y01737*
X02423*
X02332Y01827*
X02327Y01831*
X02322Y01832*
X02197*
X02197Y01837*
X022Y01838*
X02209Y01843*
X02216Y0185*
X02221Y01859*
X02224Y01869*
Y0188*
X02221Y0189*
X02216Y01899*
X02209Y01906*
X022Y01911*
X0219Y01914*
X02179*
X02169Y01911*
X0216Y01906*
X02153Y01899*
X02148Y0189*
X02145Y0188*
Y01869*
X02148Y01859*
X02153Y0185*
X0216Y01843*
X02169Y01838*
X02173Y01837*
X02172Y01832*
X02153*
X01973Y02012*
Y02835*
X01978Y02837*
X01982Y02833*
X01992Y02827*
X02004Y02824*
X02015*
X02027Y02827*
X02037Y02833*
X02043Y02839*
X0205Y02838*
X02051Y02837*
X02092Y02796*
X02097Y02792*
X02103Y02791*
X02762*
X02787Y02766*
X02785Y02762*
X02785*
X02777Y02758*
X02771Y02752*
X02768Y02745*
X0279*
Y0274*
X02795*
Y02718*
X02802Y02721*
X02808Y02727*
X02812Y02735*
Y02735*
X02816Y02737*
X02965Y02589*
X0297Y02585*
X02976Y02584*
X03011*
X03016Y02585*
X0302Y02588*
X03025Y02586*
Y02585*
X03028Y02577*
X03035Y02571*
X03043Y02567*
X03051*
X0306Y02571*
X03066Y02577*
X03067Y0258*
X03072*
X03074Y02577*
X0308Y02571*
X03088Y02567*
X03097*
X03105Y02571*
X03111Y02577*
X03112Y0258*
X03117Y02579*
Y02522*
X03112Y02522*
X03111Y02525*
X03106Y02534*
X03099Y02541*
X0309Y02546*
X0308Y02549*
X03069*
X03059Y02546*
X0305Y02541*
X03043Y02534*
X03039Y02527*
X0301*
X03006Y02534*
X02999Y02541*
X0299Y02546*
X0298Y02549*
X02969*
X02959Y02546*
X0295Y02541*
X02943Y02534*
X02938Y02525*
X02935Y02515*
Y02504*
X02938Y02494*
X02943Y02485*
X0295Y02478*
X02959Y02473*
X02969Y0247*
X0298*
X0299Y02473*
X02999Y02478*
X03006Y02485*
X0301Y02492*
X03039*
X03043Y02485*
X0305Y02478*
X03057Y02474*
Y02378*
X03056Y02377*
X03052Y02369*
Y0236*
X03056Y02352*
X03062Y02346*
X0307Y02342*
X03079*
X03087Y02346*
X0309Y02349*
X03212*
X03217Y0235*
X03222Y02354*
X03327Y02459*
X03331Y02464*
X03332Y0247*
Y02773*
X03335Y02776*
X03339Y02784*
Y02793*
X03335Y02801*
X03329Y02807*
X03321Y02811*
X03312*
X03304Y02807*
X03298Y02801*
X03294Y02793*
Y02784*
X03298Y02776*
X03301Y02773*
Y02546*
X03296Y02543*
X0329Y02546*
X0328Y02549*
X03269*
X03259Y02546*
X0325Y02541*
X03243Y02534*
X03238Y02525*
X03235Y02515*
Y02504*
X03238Y02494*
X03226Y02483*
X03211*
X03208Y02488*
X03211Y02494*
X03214Y02504*
Y02515*
X03211Y02525*
X03269Y02583*
X03273Y02588*
X03274Y02594*
Y02834*
X03278Y02836*
X03282Y02833*
X03292Y02827*
X03304Y02824*
X03315*
X03327Y02827*
X03337Y02833*
X03341Y02837*
X03346Y02835*
Y0241*
X03347Y02404*
X03351Y02399*
X03431Y02318*
Y02313*
X03435Y02305*
X03441Y02299*
X03441Y02299*
X0344Y02294*
X02944*
X02938Y02293*
X02933Y02289*
X0289Y02246*
X0288Y02249*
X02869*
X02859Y02246*
X0285Y02241*
X02843Y02234*
X02838Y02225*
X02835Y02215*
Y02204*
X02838Y02194*
X02843Y02185*
X0285Y02178*
X02859Y02173*
X02869Y0217*
X0288*
X0289Y02173*
X02899Y02178*
X02906Y02185*
X02911Y02194*
X02914Y02204*
Y02215*
X02911Y02225*
X0295Y02263*
X03478*
X03483Y02264*
X03488Y02268*
X03491Y02271*
X03496Y02269*
X03498Y02262*
X03503Y02254*
X03509Y02248*
X03517Y02243*
X03525Y02241*
X03534*
X03542Y02243*
X0355Y02248*
X03556Y02254*
X03561Y02262*
X03563Y0227*
Y02279*
X03561Y02287*
X03559Y0229*
X03562Y02295*
X04567*
X04604Y02259*
X04602Y02254*
X0455*
Y02175*
X04629*
Y02227*
X04634Y02229*
X04701Y02162*
X04706Y02158*
X04712Y02157*
X05056*
X05061Y02158*
X05066Y02162*
X05095Y02191*
X051Y0219*
X05107Y02183*
X05116Y02178*
Y02134*
X05118Y02129*
X05121Y02124*
X05201Y02043*
X05203Y0204*
X05217Y02026*
X05222Y02023*
X05228Y02022*
X05248*
X05254Y02023*
X05259Y02026*
X05273Y0204*
X05276Y02045*
X05276Y02047*
X05353Y02123*
X05364*
X05366Y02119*
X05366Y02118*
X05362Y0211*
Y02102*
X05366Y02094*
X05369Y0209*
Y01939*
X05364Y01937*
X05363Y01939*
X05356Y01946*
X05347Y01951*
X05337Y01954*
X05326*
X05316Y01951*
X05307Y01946*
X053Y01939*
X05295Y0193*
X05292Y0192*
Y01909*
X05295Y01899*
X053Y0189*
X05307Y01883*
X05316Y01878*
X05326Y01875*
X05337*
X05347Y01878*
X05356Y01883*
X05363Y0189*
X05364Y01892*
X05369Y01891*
Y01804*
X05366Y018*
X05362Y01792*
Y01783*
X05366Y01775*
X05372Y01769*
X0538Y01766*
X05389*
X05397Y01769*
X05399Y01771*
X05405Y01766*
X05413Y01762*
X05422*
X0543Y01766*
X05436Y01772*
X0544Y0178*
Y01781*
X05444Y01786*
X05608*
X0561Y01781*
X05606Y01777*
X05603Y0177*
X05646*
X05643Y01777*
X05639Y01781*
X05641Y01786*
X05672*
X05678Y01787*
X05683Y01791*
X05765Y01873*
X0577Y01871*
Y01636*
X05767Y01633*
X05763Y01625*
Y0162*
X05762Y01619*
X05758Y01617*
X0575Y01619*
X05739*
X05729Y01616*
X0572Y01611*
X05713Y01604*
X05708Y01595*
X05705Y01585*
Y01574*
X05708Y01564*
X05713Y01555*
X0572Y01548*
X05729Y01543*
X05739Y0154*
X0575*
X0576Y01543*
X05769Y01548*
X05776Y01555*
X05781Y01564*
X05784Y01574*
Y01585*
X05782Y01593*
X05784Y01597*
X05785Y01598*
X0579*
X05798Y01602*
X05804Y01608*
X05807Y01616*
Y01625*
X05804Y01633*
X05801Y01636*
Y01871*
X05805Y01873*
X05816Y01862*
X05821Y01858*
X05827Y01857*
X06343*
X06349Y01858*
X06354Y01862*
X0637Y01878*
X0638Y01875*
X0639*
X064Y01878*
X06409Y01883*
X06417Y0189*
X06422Y01899*
X06425Y01909*
Y0192*
X06422Y0193*
X06677Y02184*
X0717*
X0717Y02183*
X07176Y02173*
X07183Y02166*
X07193Y0216*
X07204Y02157*
X07215*
X07226Y0216*
X07227Y0216*
X07244Y02144*
X07249Y0214*
X07255Y02139*
X07353*
X07355Y0214*
X07358Y02132*
X07365Y02126*
X07373Y02122*
X07381*
X0739Y02126*
X07393Y02129*
X07654*
X07657Y02126*
X07665Y02122*
X07674*
X07682Y02126*
X07688Y02132*
X07692Y0214*
Y02149*
X07688Y02157*
X07682Y02163*
X07674Y02167*
X07665*
X07657Y02163*
X07654Y0216*
X07393*
X0739Y02163*
X07389Y02163*
X07388Y02168*
X07401Y02181*
X07721*
X07724Y02177*
X07723Y02175*
X07766*
X07765Y02177*
X07768Y02181*
X08155*
X08157Y02177*
X08156Y02175*
X082*
X08199Y02177*
X08202Y02181*
X08449*
X08452Y02178*
X0846Y02174*
X08469*
X08477Y02178*
X08483Y02184*
X08487Y02192*
Y02201*
X08483Y02209*
X08477Y02215*
X08469Y02219*
X0846*
X08452Y02215*
X08449Y02212*
X0744*
X07438Y02216*
X07955Y02729*
X07955Y02729*
X07955Y02729*
X07957Y02731*
X07959Y02734*
X07959Y02734*
X07959Y02734*
X07959Y02737*
X0796Y02739*
Y02739*
Y0274*
Y02869*
X08279Y03189*
X08284Y03188*
X08286Y03184*
X08294Y03176*
X08303Y03171*
X08314Y03168*
X08325*
X08336Y03171*
X08345Y03176*
X08353Y03184*
X08358Y03193*
X08361Y03204*
Y03215*
X08358Y03226*
X08353Y03235*
X08345Y03243*
X08341Y03245*
X08341Y0325*
X08358Y03267*
X08515*
X0852Y03268*
X08525Y03271*
X08529Y03276*
X0853Y03282*
X08529Y03288*
X08525Y03293*
X0852Y03296*
X08515Y03298*
X08361*
Y03298*
X08358Y03308*
X08353Y03318*
X08345Y03325*
X08336Y03331*
X08325Y03334*
X08325*
Y03292*
X0832*
Y03287*
X08278*
Y03287*
X08281Y03276*
X08286Y03267*
X08294Y03259*
X08298Y03257*
X08299Y03252*
X07934Y02886*
X07909Y02862*
X07339*
X07337Y02867*
X07343Y02873*
X07349Y02883*
X07352Y02894*
Y02905*
X07349Y02916*
X07343Y02926*
X07336Y02933*
X07326Y02939*
X07315Y02942*
X07304*
X07293Y02939*
X07292Y02939*
X07275Y02956*
Y02967*
X0728Y02969*
X07283Y02966*
X07293Y0296*
X07304Y02957*
X07315*
X07326Y0296*
X07336Y02966*
X07343Y02973*
X07349Y02983*
X07352Y02994*
Y03005*
X07349Y03016*
X07343Y03026*
X07336Y03033*
X07336Y03034*
X07336Y03039*
X07338Y03041*
X07395Y03097*
X07398Y03102*
X07399Y03108*
Y03631*
X07404Y03632*
X07407Y03626*
X07413Y0362*
X07421Y03616*
X0743*
X07438Y0362*
X07444Y03626*
X07448Y03634*
Y03643*
X07444Y03651*
X07441Y03654*
Y04079*
X0744Y04084*
X07436Y04089*
X07055Y0447*
X0705Y04474*
X07045Y04475*
X06115*
X06109Y04474*
X06104Y0447*
X06071Y04437*
X06067Y04432*
X06066Y04426*
Y04404*
X06061Y04402*
X06057Y04406*
X06047Y04412*
X06035Y04415*
X06024*
X06012Y04412*
X06002Y04406*
X05993Y04397*
X05987Y04387*
X05984Y04375*
Y04364*
X05987Y04352*
X05993Y04342*
X06002Y04333*
X06012Y04327*
X06014Y04327*
Y04165*
X06011Y04162*
X06007Y04154*
Y04145*
X06011Y04137*
X06017Y04131*
X06025Y04127*
X06034*
X06042Y04131*
X06048Y04137*
X06052Y04145*
Y04154*
X06048Y04162*
X06045Y04165*
Y04327*
X06047Y04327*
X06057Y04333*
X06061Y04337*
X06066Y04335*
Y0416*
X06067Y04154*
X06071Y04149*
X06117Y04103*
X06122Y04099*
X06128Y04098*
X06464*
X06469Y04099*
X06474Y04103*
X0654Y04169*
X06544Y04174*
X06545Y0418*
Y04234*
X06548Y04237*
X06552Y04245*
Y04254*
X06548Y04262*
X06545Y04265*
Y04327*
X06547Y04327*
X06557Y04333*
X0656Y04335*
X06564Y04333*
Y04169*
X06565Y04163*
X06569Y04158*
X06644Y04082*
X06649Y04079*
X06655Y04077*
X06932*
X06935Y04073*
X06934Y04073*
Y04064*
X06938Y04056*
X06944Y0405*
X06952Y04046*
X06961*
X06969Y0405*
X06972Y04053*
X0704*
X07085Y04008*
X07083Y04004*
X06043*
X05945Y04102*
Y04141*
X05947Y04145*
Y04154*
X05945Y04158*
Y04165*
Y04327*
X05947Y04327*
X05957Y04333*
X05966Y04342*
X05972Y04352*
X05975Y04364*
Y04375*
X05972Y04387*
X05966Y04397*
X05957Y04406*
X05947Y04412*
X05935Y04415*
X05924*
X05912Y04412*
X05902Y04406*
X05898Y04402*
X05893Y04404*
Y04415*
X05892Y0442*
X05888Y04425*
X05826Y04487*
X05821Y04491*
X05816Y04492*
X03544*
X03541Y04495*
X03533Y04499*
X03524*
X03516Y04495*
X0351Y04489*
X03506Y04481*
Y04472*
X0351Y04464*
X03516Y04458*
X03504Y04447*
X03499*
X03491Y04443*
X03485Y04437*
X03481Y04429*
Y0442*
X03485Y04412*
X03491Y04406*
X03499Y04402*
X03508*
X03516Y04406*
X03522Y04412*
X03526Y0442*
Y04425*
X03538Y04437*
X04553*
X04555Y04433*
X04526Y04403*
X04524Y04401*
X04518Y04399*
X04518Y044*
X04512Y04405*
X04502Y04411*
X0449Y04414*
X04479*
X04467Y04411*
X04457Y04405*
X04448Y04396*
X04442Y04386*
X04439Y04374*
Y04363*
X04442Y04351*
X04448Y04341*
X04457Y04332*
X04467Y04326*
X04479Y04323*
X04489*
X04492Y04319*
X04316Y04143*
X03386*
X03384Y04148*
X03389Y04151*
X03395Y0416*
X03399Y0417*
X03401Y04181*
Y04209*
X03399Y04219*
X03395Y04229*
X03389Y04238*
X0338Y04244*
X0337Y04248*
X0336Y0425*
X03349Y04248*
X03339Y04244*
X0333Y04238*
X03324Y04229*
X0332Y04219*
X03318Y04209*
Y04181*
X0332Y0417*
X03324Y0416*
X0333Y04151*
X03335Y04148*
X03333Y04143*
X03086*
X03084Y04148*
X03089Y04151*
X03095Y0416*
X03099Y0417*
X03101Y04181*
Y04209*
X03099Y04219*
X03095Y04229*
X03089Y04238*
X0308Y04244*
X0307Y04248*
X0306Y0425*
X03049Y04248*
X03039Y04244*
X0303Y04238*
X03024Y04229*
X0302Y04219*
X03018Y04209*
Y04181*
X0302Y0417*
X03024Y0416*
X0303Y04151*
X03035Y04148*
X03033Y04143*
X03023*
X02986Y0418*
X02981Y04183*
X02975Y04184*
X02378*
X02372Y04183*
X02367Y0418*
X02308Y0412*
X02304Y04115*
X02303Y0411*
Y03834*
X02051Y03581*
X02047Y03576*
X02046Y03571*
Y03504*
X02041Y03502*
X02037Y03506*
X02027Y03512*
X02015Y03515*
X02004*
X01992Y03512*
X01982Y03506*
X01978Y03502*
X01973Y03504*
Y03689*
X01978Y03691*
X01985Y03687*
X01994*
X02002Y03691*
X02008Y03697*
X02012Y03705*
Y0371*
X02026Y03724*
X0203Y03723*
X02031Y03722*
X02037Y03716*
X02045Y03712*
X02054*
X02062Y03716*
X02065Y03719*
X02173*
X02178Y0372*
X02183Y03724*
X02263Y03803*
X02266Y03808*
X02267Y03814*
Y03867*
X02294*
Y03952*
X02215*
Y0398*
X0222Y03982*
X02226Y03976*
X02236Y0397*
X02246Y03967*
X02258*
X02268Y0397*
X02278Y03976*
X02286Y03983*
X02292Y03993*
X02294Y04004*
Y04015*
X02292Y04026*
X02286Y04036*
X02278Y04043*
X02268Y04049*
X02258Y04052*
X02246*
X02236Y04049*
X02226Y04043*
X0222Y04037*
X02215Y04039*
Y04051*
X02235Y0407*
X02236Y0407*
X02246Y04067*
X02258*
X02268Y0407*
X02278Y04076*
X02286Y04083*
X02292Y04093*
X02294Y04104*
Y04115*
X02292Y04126*
X02286Y04136*
X02278Y04143*
X02268Y04149*
X02258Y04152*
X02246*
X02236Y04149*
X02226Y04143*
X02218Y04136*
X02212Y04126*
X0221Y04115*
Y04104*
X02212Y04093*
X02213Y04092*
X02189Y04068*
X02185Y04063*
X02184Y04057*
Y04044*
X0218Y04042*
X02178Y04043*
X02168Y04049*
X02158Y04052*
X02146*
X02136Y04049*
X02126Y04043*
X02118Y04036*
X02112Y04026*
X0211Y04015*
Y04004*
X02112Y03993*
X02118Y03983*
X02126Y03976*
X02136Y0397*
X02146Y03967*
X02158*
X02168Y0397*
X02178Y03976*
X0218Y03977*
X02184Y03975*
Y03944*
X0218Y03942*
X02178Y03943*
X02168Y03949*
X02158Y03952*
X02146*
X02136Y03949*
X02126Y03943*
X02118Y03936*
X02112Y03926*
X0211Y03915*
Y03904*
X02112Y03893*
X02118Y03883*
X02126Y03876*
X02136Y0387*
X02146Y03867*
X02148*
X0215Y03862*
X02099Y03812*
X02065*
X02062Y03815*
X02054Y03819*
X02045*
X02042Y03817*
X02037Y0382*
Y03963*
X02036Y03968*
X02032Y03973*
X02014Y03992*
X02014Y03993*
X02017Y04004*
Y04015*
X02014Y04026*
X02008Y04036*
X02001Y04043*
X01991Y04049*
X0198Y04052*
X01969*
X01958Y04049*
X01948Y04043*
X01941Y04036*
X01935Y04026*
X01932Y04015*
Y04004*
X01935Y03993*
X01941Y03983*
X01948Y03976*
X01958Y0397*
X01969Y03967*
X0198*
X01991Y0397*
X01992Y0397*
X02005Y03957*
X02004Y03952*
X01932*
Y0388*
X01927Y03878*
X01914Y03892*
X01914Y03893*
X01917Y03904*
Y03915*
X01914Y03926*
X01908Y03936*
X01901Y03943*
X01891Y03949*
X0188Y03952*
X01869*
X01858Y03949*
X01848Y03943*
X01841Y03936*
X01835Y03926*
X01832Y03915*
Y03904*
X01835Y03893*
X01841Y03883*
X01848Y03876*
X01858Y0387*
X01869Y03867*
X0188*
X01891Y0387*
X01892Y0387*
X01942Y0382*
Y03508*
X0194Y03507*
X01937Y03506*
X01927Y03512*
X01915Y03515*
X01904*
X01892Y03512*
X01882Y03506*
X01873Y03497*
X01867Y03487*
X01864Y03475*
Y03464*
X01867Y03452*
X01868Y0345*
X01754Y03336*
X01749*
X01745Y03334*
X0174Y03337*
Y03951*
X01829Y0404*
X01834*
X01842Y04044*
X01845Y0404*
X01841Y04036*
X01835Y04026*
X01832Y04015*
Y04004*
X01835Y03993*
X01841Y03983*
X01848Y03976*
X01858Y0397*
X01869Y03967*
X0188*
X01891Y0397*
X01901Y03976*
X01908Y03983*
X01914Y03993*
X01917Y04004*
Y04015*
X01914Y04026*
X01908Y04036*
X01901Y04043*
X01891Y04049*
X0188Y04052*
X01869*
X01858Y04049*
X01849Y04044*
X01846Y04048*
X01848Y0405*
X01852Y04058*
Y04067*
X01851Y04068*
X01855Y04072*
X01858Y0407*
X01869Y04067*
X0188*
X01891Y0407*
X01901Y04076*
X01908Y04083*
X01913Y04092*
X01936*
X01941Y04083*
X01948Y04076*
X01958Y0407*
X01969Y04067*
X0198*
X01991Y0407*
X02001Y04076*
X02008Y04083*
X02014Y04093*
X02017Y04104*
Y04115*
X02014Y04126*
X02008Y04136*
X02001Y04143*
X01991Y04149*
X0198Y04152*
X01969*
X01958Y04149*
X01948Y04143*
X01941Y04136*
X01936Y04127*
X01913*
X01908Y04136*
X01901Y04143*
X01891Y04149*
X0188Y04152*
X01869*
X01858Y04149*
X01848Y04143*
X01841Y04136*
X01835Y04126*
X01832Y04115*
Y04104*
X01835Y04093*
X01838Y04088*
X01834Y04084*
X01834Y04085*
X01825*
X01817Y04081*
X01811Y04075*
X01807Y04067*
Y04062*
X01715Y03969*
X01711Y0397*
X0171Y03971*
Y04555*
X0867*
Y0107*
G37*
G36*
X04237Y03611D02*
X04236Y03609D01*
Y036*
X0424Y03592*
X04246Y03586*
X04254Y03582*
X04263*
X04267Y03584*
X04271Y03586*
X04273Y03582*
X04273Y03581*
X0427Y03576*
X04223*
X04217Y03575*
X04212Y03572*
X04174Y03534*
X0417Y03536*
Y03593*
X04192Y03615*
X04234*
X04237Y03611*
G37*
G36*
X04936Y03547D02*
X04934Y03542D01*
X04772*
X04766Y03541*
X04761Y03538*
X04744Y03521*
X04742Y03522*
X0473Y03525*
X04719*
X04707Y03522*
X04705Y03521*
X04682Y03544*
X04677Y03547*
X04671Y03548*
X0466*
X04657Y03553*
X0466Y03559*
Y03568*
X04656Y03576*
X0465Y03582*
X04642Y03586*
X04633*
X04625Y03582*
X04619Y03576*
X04553*
X0455Y0358*
X0455Y03581*
Y03589*
X04547Y03597*
X04541Y03604*
X04532Y03607*
X04524*
X04516Y03604*
X04509Y03597*
X04508Y03595*
X04424*
X04421Y03599*
X04422Y036*
Y03609*
X04421Y03611*
X04423Y03615*
X04868*
X04936Y03547*
G37*
G36*
X02742Y03675D02*
Y03508D01*
X0274Y03507*
X02737Y03506*
X02727Y03512*
X02715Y03515*
X02704*
X02692Y03512*
X02682Y03506*
X02673Y03497*
X02667Y03487*
X02664Y03475*
Y03464*
X02667Y03452*
X02673Y03442*
X02682Y03433*
X02692Y03427*
X02704Y03424*
X02715*
X02727Y03427*
X02737Y03433*
X0274Y03432*
X02742Y03431*
Y0336*
X02743Y03354*
X02747Y03349*
X02776Y03319*
X02774Y03315*
X02695*
X02692Y03318*
X02684Y03322*
X02675*
X02667Y03318*
X02661Y03312*
X02657Y03304*
Y03295*
X02661Y03287*
X02667Y03281*
X02675Y03277*
X02684*
X02692Y03281*
X02695Y03284*
X02895*
X03099Y0308*
Y03075*
X031Y03075*
X03097Y03071*
X02878*
X02705Y03244*
Y03249*
X02701Y03257*
X02695Y03263*
X02687Y03267*
X02678*
X0267Y03263*
X02664Y03257*
X0266Y03249*
Y0324*
X02664Y03232*
X0267Y03226*
X02678Y03222*
X02683*
X02845Y0306*
X02843Y03056*
X02742*
X02477Y03321*
Y03431*
X02479Y03432*
X02482Y03433*
X02492Y03427*
X02504Y03424*
X02515*
X02527Y03427*
X02537Y03433*
X02546Y03442*
X02552Y03452*
X02555Y03464*
Y03475*
X02552Y03487*
X02546Y03497*
X02537Y03506*
X02527Y03512*
X02515Y03515*
X02504*
X02492Y03512*
X02482Y03506*
X02479Y03507*
X02477Y03508*
Y03616*
X02476Y03618*
X02481Y03621*
X0258Y03521*
X02585Y03518*
X02591Y03517*
X02592Y03512*
X02582Y03506*
X02573Y03497*
X02567Y03487*
X02564Y03475*
Y03464*
X02567Y03452*
X02573Y03442*
X02582Y03433*
X02592Y03427*
X02604Y03424*
X02615*
X02627Y03427*
X02637Y03433*
X02646Y03442*
X02652Y03452*
X02655Y03464*
Y03475*
X02652Y03487*
X02646Y03497*
X02637Y03506*
X02627Y03512*
X02628Y03517*
X02644*
X02647Y03513*
X02655Y0351*
X02664*
X02672Y03513*
X02678Y0352*
X02682Y03528*
Y03536*
X02678Y03544*
X02672Y03551*
X02664Y03554*
X02655*
X02654Y03553*
X02649Y03557*
Y0356*
X02645Y03568*
X02639Y03575*
X02633Y03577*
X02634Y03582*
X02639*
X02647Y03585*
X02654Y03592*
X02657Y036*
Y03609*
X02654Y03617*
X02647Y03623*
X02639Y03626*
X02634*
X02552Y03709*
Y03714*
X02548Y03722*
X02542Y03728*
X02534Y03732*
X02525*
X02517Y03728*
X02511Y03722*
X02507Y03714*
Y03708*
X02506Y03705*
X02503Y03703*
X02497*
X02489Y037*
X02483Y03694*
X02479Y03686*
Y03678*
X02477Y03675*
X02475Y03674*
X02467*
X02464Y03672*
X02459Y03676*
Y03681*
X02495Y03718*
X02499Y03723*
X025Y03729*
Y03867*
X0255*
X02742Y03675*
G37*
G36*
X02198Y03612D02*
Y03562D01*
X02199Y03556*
X02203Y03551*
X02241Y03512*
X02241Y03509*
X02236Y03507*
X02227Y03512*
X02215Y03515*
X02204*
X02192Y03512*
X02182Y03506*
X02179Y03507*
X02177Y03508*
Y03597*
X02194Y03614*
X02198Y03612*
G37*
G36*
X03602Y03662D02*
X03599Y03658D01*
X03595Y03653*
X03594Y03648*
Y03615*
X03594Y03615*
Y03512*
X03592Y03512*
X03582Y03506*
X03579Y03504*
X03575Y03506*
Y03573*
X03574Y03578*
X0357Y03583*
X03526Y03628*
Y03633*
X03527Y03634*
X03533*
X03541Y03638*
X03547Y03644*
X03551Y03652*
Y03661*
X0355Y03662*
X03553Y03666*
X036*
X03602Y03662*
G37*
G36*
X03439Y03677D02*
X03351Y03588D01*
X03347Y03583*
X03346Y03577*
Y03504*
X03341Y03502*
X03337Y03506*
X03327Y03512*
X03315Y03515*
X03304*
X03292Y03512*
X03282Y03506*
X03279Y03507*
X03277Y03508*
Y0361*
X03348Y03681*
X03437*
X03439Y03677*
G37*
G36*
X03748Y03772D02*
X03742Y03762D01*
X03739Y0375*
Y03739*
X03742Y03727*
X03748Y03717*
X03747Y03714*
X03746Y03712*
X03342*
X03336Y03711*
X03331Y03707*
X03251Y03627*
X03247Y03622*
X03246Y03617*
Y03504*
X03241Y03502*
X03237Y03506*
X03227Y03512*
X03215Y03515*
X03204*
X03192Y03512*
X03182Y03506*
X03179Y03507*
X03177Y03508*
Y03588*
X03365Y03777*
X03746*
X03748Y03772*
G37*
G36*
X03332Y03787D02*
X03151Y03605D01*
X03147Y036*
X03146Y03595*
Y03504*
X03141Y03502*
X03137Y03506*
X03127Y03512*
X03115Y03515*
X03104*
X03092Y03512*
X03082Y03506*
X03073Y03497*
X03067Y03487*
X03064Y03475*
Y03464*
X03067Y03452*
X03073Y03442*
X03082Y03433*
X03092Y03427*
X03104Y03424*
X03115*
X03127Y03427*
X03137Y03433*
X03141Y03437*
X03146Y03435*
Y03167*
X03141Y03165*
X02974Y03333*
Y03434*
X02978Y03436*
X02982Y03433*
X02992Y03427*
X03004Y03424*
X03015*
X03027Y03427*
X03037Y03433*
X03046Y03442*
X03052Y03452*
X03055Y03464*
Y03475*
X03052Y03487*
X03046Y03497*
X03037Y03506*
X03027Y03512*
X03015Y03515*
X03004*
X02992Y03512*
X02982Y03506*
X02978Y03503*
X02974Y03505*
Y03539*
X03226Y03792*
X0333*
X03332Y03787*
G37*
G36*
X02329Y0381D02*
Y03793D01*
X02151Y03614*
X02147Y03609*
X02146Y03604*
Y03504*
X02141Y03502*
X02137Y03506*
X02127Y03512*
X02115Y03515*
X02104*
X02092Y03512*
X02082Y03506*
X02079Y03507*
X02077Y03508*
Y03564*
X02325Y03812*
X02329Y0381*
G37*
G36*
X02369Y03759D02*
Y03521D01*
X02351Y03502*
X0235Y03501*
X02343Y035*
X02337Y03506*
X02327Y03512*
X02325Y03512*
Y03524*
X02324Y03529*
X0232Y03534*
X02276Y03579*
Y03584*
X02272Y03592*
X02266Y03598*
X02258Y03602*
X02249*
X02241Y03598*
X02235Y03592*
X02234Y03589*
X02229Y0359*
Y03625*
X02365Y03761*
X02369Y03759*
G37*
G36*
X03482Y03622D02*
X03485Y03616D01*
X03491Y0361*
X03499Y03606*
X03504*
X03544Y03566*
Y03506*
X0354Y03504*
X03537Y03506*
X03527Y03512*
X03515Y03515*
X03504*
X03492Y03512*
X03482Y03506*
X03473Y03497*
X03467Y03487*
X03464Y03475*
Y03464*
X03467Y03452*
X03473Y03442*
X03482Y03433*
X03492Y03427*
X03494Y03427*
Y03423*
Y03054*
X03491Y0305*
X03487Y03042*
Y03034*
X03491Y03026*
X03497Y03019*
X03505Y03016*
X03514*
X03522Y03019*
X03528Y03026*
X03532Y03034*
Y03042*
X03528Y0305*
X03525Y03054*
Y0338*
X03529Y03382*
X0353Y03382*
X03536Y03381*
X03712*
X03717Y03382*
X03722Y03386*
X0377Y03434*
X03772Y03436*
X03778Y03437*
X03782Y03433*
X03792Y03427*
X03804Y03424*
X03805*
Y0347*
Y03515*
X03804*
X03792Y03512*
X03782Y03506*
X03775Y035*
X03771Y03499*
X03769Y035*
X03735Y03533*
X0373Y03537*
X03725Y03538*
X03725Y03543*
X03833*
X03857Y03519*
Y03486*
X03852Y03486*
X03852Y03487*
X03846Y03497*
X03837Y03506*
X03827Y03512*
X03815Y03515*
X03815*
Y0347*
Y03424*
X03815*
X03827Y03427*
X03837Y03433*
X03846Y03442*
X03852Y03452*
X03852Y03453*
X03857Y03453*
Y03136*
X03858Y0313*
X03862Y03125*
X0403Y02957*
Y02953*
X04033Y02944*
X04039Y02938*
X04047Y02935*
X04056*
X04064Y02938*
X04071Y02944*
X04074Y02953*
Y02961*
X04071Y02969*
X04064Y02976*
X04056Y02979*
X04051*
X04045Y02986*
X04047Y0299*
X04123*
X04126Y02987*
X04134Y02983*
X04138*
X0414Y02978*
X03984Y02822*
X0383*
X03827Y02827*
X03827Y02827*
X03837Y02833*
X03846Y02842*
X03852Y02852*
X03855Y02864*
Y02875*
X03852Y02887*
X03846Y02897*
X03837Y02906*
X03827Y02912*
X03815Y02915*
X03804*
X03792Y02912*
X0379Y02911*
X0373Y0297*
X03725Y02974*
X0372Y02975*
X03463*
X03418Y0302*
X03419Y03025*
X03422Y03026*
X03428Y03032*
X03432Y0304*
Y03049*
X03428Y03057*
X03425Y0306*
Y03427*
X03427Y03427*
X03437Y03433*
X03446Y03442*
X03452Y03452*
X03455Y03464*
Y03475*
X03452Y03487*
X03446Y03497*
X03437Y03506*
X03427Y03512*
X03425Y03512*
Y03572*
X03477Y03624*
X03482Y03622*
G37*
G36*
X04023Y0351D02*
Y0348D01*
X04018Y03479*
X04018Y0348*
X04014Y03485*
X03901Y03598*
X03896Y03602*
X0389Y03603*
X038*
X03797Y03607*
X03798Y03607*
Y03616*
X03797Y03616*
X038Y0362*
X03912Y0362*
X04023Y0351*
G37*
G36*
X03633Y03613D02*
X03635Y03608D01*
X03634Y03605*
X03632Y036*
Y03552*
X03634Y03546*
X03637Y03541*
X03666Y03512*
X03671Y03508*
X03676Y03507*
X03677Y03506*
X03678Y03502*
X03673Y03497*
X03667Y03487*
X03664Y03475*
Y03464*
X03667Y03452*
X03668Y0345*
X03655Y03437*
X03648*
X03647Y03439*
X03646Y03442*
X03652Y03452*
X03655Y03464*
Y03475*
X03652Y03487*
X03646Y03497*
X03637Y03506*
X03627Y03512*
X03625Y03512*
Y03611*
X03629Y03613*
X03633Y03613*
G37*
G36*
X03346Y03435D02*
Y03072D01*
X03342Y0307*
X03277Y03135*
Y03431*
X03279Y03432*
X03282Y03433*
X03292Y03427*
X03304Y03424*
X03315*
X03327Y03427*
X03337Y03433*
X03341Y03437*
X03346Y03435*
G37*
G36*
X03246D02*
Y03128D01*
X03247Y03123*
X03251Y03118*
X03429Y02939*
X03427Y02935*
X03412*
X03177Y0317*
Y03431*
X03179Y03432*
X03182Y03433*
X03192Y03427*
X03204Y03424*
X03215*
X03227Y03427*
X03237Y03433*
X03241Y03437*
X03246Y03435*
G37*
G36*
X02446D02*
Y03315D01*
X02447Y03309*
X02451Y03304*
X02725Y0303*
X0273Y03026*
X02736Y03025*
X03105*
X03194Y02936*
Y02912*
X03192Y02912*
X03182Y02906*
X03179Y02907*
X03177Y02908*
Y02931*
X03176Y02936*
X03172Y02941*
X03124Y02989*
X03119Y02993*
X03114Y02994*
X02728*
X02377Y03345*
Y03431*
X02379Y03432*
X02382Y03433*
X02392Y03427*
X02404Y03424*
X02415*
X02427Y03427*
X02437Y03433*
X02441Y03437*
X02446Y03435*
G37*
G36*
X02146D02*
Y032D01*
X02143Y03197*
X02139Y03189*
Y0318*
X02143Y03172*
X02149Y03166*
X02157Y03162*
X02166*
X02174Y03166*
X0218Y03172*
X02184Y0318*
Y03189*
X0218Y03197*
X02177Y032*
Y03431*
X02179Y03432*
X02182Y03433*
X02192Y03427*
X02204Y03424*
X02215*
X02227Y03427*
X02237Y03433*
X0224Y03432*
X02242Y03431*
Y03267*
X02243Y03261*
X02247Y03256*
X02342Y0316*
Y02908*
X0234Y02907*
X02337Y02906*
X02327Y02912*
X02315Y02915*
X02304*
X02292Y02912*
X02282Y02906*
X02273Y02897*
X02267Y02887*
X02264Y02875*
Y02864*
X02267Y02852*
X02273Y02842*
X02282Y02833*
X02292Y02827*
X02293Y02827*
X02293Y02822*
X02226*
X02226Y02827*
X02227Y02827*
X02237Y02833*
X02246Y02842*
X02252Y02852*
X02255Y02864*
Y02875*
X02252Y02887*
X02246Y02897*
X02237Y02906*
X02227Y02912*
X02215Y02915*
X02204*
X02192Y02912*
X02182Y02906*
X02173Y02897*
X02167Y02887*
X02164Y02875*
Y02864*
X02167Y02852*
X02173Y02842*
X02182Y02833*
X02192Y02827*
X02193Y02827*
X02193Y02822*
X02126*
X02126Y02827*
X02127Y02827*
X02137Y02833*
X02146Y02842*
X02152Y02852*
X02155Y02864*
Y02875*
X02152Y02887*
X02146Y02897*
X02137Y02906*
X02127Y02912*
X02115Y02915*
X02104*
X02092Y02912*
X02082Y02906*
X02079Y02907*
X02077Y02908*
Y03431*
X02079Y03432*
X02082Y03433*
X02092Y03427*
X02104Y03424*
X02115*
X02127Y03427*
X02137Y03433*
X02141Y03437*
X02146Y03435*
G37*
G36*
X0194Y03432D02*
X01942Y03431D01*
Y02915*
X01864*
Y02824*
X01942*
Y02006*
X01943Y02*
X01947Y01995*
X02136Y01806*
X02141Y01802*
X02147Y01801*
X02149*
X02151Y01796*
X02148Y0179*
X02145Y0178*
Y01769*
X02148Y01759*
X02153Y0175*
X0216Y01743*
X02169Y01738*
X02179Y01735*
X0219*
X022Y01738*
X02209Y01743*
X02216Y0175*
X02221Y01759*
X02224Y01769*
Y0178*
X02221Y0179*
X02218Y01796*
X02221Y01801*
X02315*
X02406Y01711*
X02411Y01707*
X02417Y01706*
X02794*
X02796Y01701*
X02793Y01695*
X0279Y01685*
Y01674*
X02793Y01664*
X02798Y01655*
X02805Y01648*
X02814Y01643*
X02824Y0164*
X02835*
X02845Y01643*
X02854Y01648*
X02861Y01655*
X02866Y01664*
X02869Y01674*
Y01685*
X02866Y01695*
X02863Y01701*
X02866Y01706*
X03094*
X03096Y01701*
X03093Y01695*
X0309Y01685*
Y01674*
X03093Y01664*
X03098Y01655*
X03105Y01648*
X03114Y01643*
X03124Y0164*
X03135*
X03145Y01643*
X03154Y01648*
X03161Y01655*
X03166Y01664*
X03169Y01674*
Y01685*
X03166Y01695*
X03163Y01701*
X03166Y01706*
X03285*
X03459Y01532*
X03463Y0153*
X03464Y01524*
X03179Y01239*
X03174Y01241*
Y01245*
X03171Y01255*
X03166Y01264*
X03159Y01271*
X0315Y01276*
X0314Y01279*
X0314*
Y0124*
X03135*
Y01235*
X03095*
Y01234*
X03098Y01224*
X03101Y01218*
X03099Y01213*
X02871*
X02868Y01218*
X02871Y01224*
X02874Y01234*
Y01245*
X02871Y01255*
X02866Y01264*
X02859Y01271*
X0285Y01276*
X0284Y01279*
X02829*
X02819Y01276*
X0281Y01271*
X02803Y01264*
X02798Y01255*
X02795Y01245*
Y01234*
X02798Y01224*
X02801Y01218*
X02799Y01213*
X02048*
X01937Y01324*
Y01329*
X01933Y01337*
X01927Y01343*
X01919Y01347*
X01914*
X0174Y01521*
Y0329*
X01745Y03293*
X01749Y03291*
X01758*
X01766Y03295*
X01772Y03301*
X01776Y03309*
Y03314*
X0189Y03428*
X01892Y03427*
X01904Y03424*
X01915*
X01927Y03427*
X01937Y03433*
X0194Y03432*
G37*
G36*
X05607Y03522D02*
X05607Y03522D01*
X05597Y03516*
X05588Y03507*
X05582Y03497*
X05579Y03485*
Y03474*
X05582Y03462*
X05588Y03452*
X05597Y03443*
X05607Y03437*
X05619Y03434*
X0563*
X05642Y03437*
X05644Y03438*
X05662Y03421*
X05663Y0342*
X05662Y03415*
X05611*
X05566Y0346*
X05567Y03462*
X0557Y03474*
Y03485*
X05567Y03497*
X05561Y03507*
X05552Y03516*
X05542Y03522*
X05542Y03522*
X05545Y03527*
X05604*
X05607Y03522*
G37*
G36*
X05507D02*
X05507Y03522D01*
X05497Y03516*
X05488Y03507*
X05482Y03497*
X05479Y03485*
Y03474*
X05482Y03462*
X05488Y03452*
X05497Y03443*
X05507Y03437*
Y03378*
X05506Y03377*
X05502Y03369*
Y03364*
X05497Y03362*
X0544Y0342*
Y03437*
X05442Y03437*
X05452Y03443*
X05461Y03452*
X05467Y03462*
X0547Y03474*
Y03485*
X05467Y03497*
X05461Y03507*
X05452Y03516*
X05442Y03522*
X05442Y03522*
X05445Y03527*
X05504*
X05507Y03522*
G37*
G36*
X05407D02*
X05407Y03522D01*
X05397Y03516*
X05388Y03507*
X05382Y03497*
X05379Y03485*
Y03474*
X05382Y03462*
X05388Y03452*
X05397Y03443*
X05407Y03437*
X05409Y03437*
Y03414*
Y03375*
X05406Y03372*
X05402Y03364*
Y03355*
X05406Y03347*
X05412Y03341*
X0542Y03337*
X05429*
X05437Y03341*
X05443Y03347*
X05447Y03355*
Y03363*
X0545Y03365*
X05451Y03365*
X0549Y03327*
X05488Y03322*
X05414*
X0534Y03396*
Y03437*
X05342Y03437*
X05352Y03443*
X05361Y03452*
X05367Y03462*
X0537Y03474*
Y03485*
X05367Y03497*
X05361Y03507*
X05352Y03516*
X05342Y03522*
X05342Y03522*
X05345Y03527*
X05404*
X05407Y03522*
G37*
G36*
X05297Y03443D02*
X05307Y03437D01*
X05309Y03437*
Y0339*
Y0336*
X05306Y03357*
X05302Y03349*
Y0334*
X05306Y03332*
X05312Y03326*
X0532Y03322*
X05329*
X05337Y03326*
X05343Y03332*
X05346Y03339*
X05351Y03341*
X05383Y03309*
X05381Y03305*
X05316*
X05288Y03333*
Y03445*
X05293Y03447*
X05297Y03443*
G37*
G36*
X05255Y03442D02*
X05257Y03441D01*
Y03327*
X05258Y03321*
X05262Y03316*
X05299Y03279*
X05304Y03275*
X0531Y03274*
X06941*
X07051Y03164*
X07049Y0316*
X05406*
X05247Y03319*
Y03324*
X05243Y03332*
X0524Y03335*
Y03437*
X05242Y03437*
X05252Y03443*
X05255Y03442*
G37*
G36*
X04593Y03513D02*
X04588Y03507D01*
X04582Y03497*
X04579Y03485*
Y03474*
X04582Y03462*
X04588Y03452*
X04597Y03443*
X04607Y03437*
X04609Y03437*
Y03151*
X04606Y03148*
X04602Y0314*
Y03131*
X04606Y03123*
X04612Y03117*
X0462Y03113*
X04625*
X04769Y0297*
X04774Y02966*
X0478Y02965*
X0606*
Y02915*
X06056Y02913*
X06052Y02916*
X06042Y02922*
X0603Y02925*
X06019*
X06007Y02922*
X05997Y02916*
X05994Y02914*
X0599Y02916*
Y02928*
X05989Y02933*
X05985Y02938*
X05974Y02949*
X05969Y02953*
X05964Y02954*
X04639*
X0444Y03153*
Y03175*
X04443Y03179*
X04447Y03187*
Y03195*
X04443Y03203*
X0444Y03207*
Y03437*
X04442Y03437*
X04452Y03443*
X04461Y03452*
X04467Y03462*
X0447Y03474*
Y03485*
X04467Y03497*
X04461Y03507*
X04456Y03513*
X04458Y03518*
X04491*
X04493Y03513*
X04488Y03507*
X04482Y03497*
X04479Y03485*
Y03474*
X04482Y03462*
X04488Y03452*
X04497Y03443*
X04507Y03437*
X04509Y03437*
Y03187*
X04506*
X04498Y03183*
X04492Y03177*
X04489Y03169*
Y0316*
X04492Y03152*
X04498Y03146*
X04506Y03142*
X04515*
X04523Y03146*
X04529Y03152*
X04533Y0316*
Y03165*
X04535Y03168*
X04539Y03173*
X0454Y03178*
Y03437*
X04542Y03437*
X04552Y03443*
X04561Y03452*
X04567Y03462*
X0457Y03474*
Y03485*
X04567Y03497*
X04561Y03507*
X04556Y03513*
X04558Y03518*
X04591*
X04593Y03513*
G37*
G36*
X04166Y03632D02*
X04144Y0361D01*
X0414Y03605*
X04139Y036*
Y03257*
X0414Y03251*
X04144Y03246*
X04153Y03236*
Y03084*
X04149Y03081*
X04149Y03082*
X0414*
X04136Y0308*
X04078*
X04075Y03083*
X04066Y03087*
X04058*
X04058Y03086*
X04053Y03089*
Y03516*
X04052Y03522*
X04049Y03527*
X03943Y03632*
X03945Y03637*
X04164*
X04166Y03632*
G37*
G36*
X03392Y03427D02*
X03394Y03427D01*
Y0306*
X03391Y03057*
X0339Y03054*
X03385Y03053*
X03377Y03061*
Y03431*
X03379Y03432*
X03382Y03433*
X03392Y03427*
G37*
G36*
X03988Y03468D02*
Y03049D01*
X03984Y03047*
X03888Y03143*
Y03525*
X03887Y03531*
X03883Y03536*
X03852Y03567*
X03854Y03572*
X03884*
X03988Y03468*
G37*
G36*
X04988Y03507D02*
X04982Y03497D01*
X04979Y03485*
Y03474*
X04982Y03462*
X04988Y03452*
X04997Y03443*
X05007Y03437*
X05009Y03437*
Y03285*
X05006Y03282*
X05002Y03274*
Y03265*
X05006Y03257*
X05009Y03254*
Y03147*
X0501Y03141*
X05014Y03136*
X05119Y0303*
X05117Y03026*
X0509*
X0494Y03176*
Y03225*
X04943Y03229*
X04947Y03237*
Y03245*
X04943Y03253*
X0494Y03257*
Y03437*
X04942Y03437*
X04952Y03443*
X04961Y03452*
X04967Y03462*
X0497Y03474*
Y03485*
X04967Y03497*
X04961Y03507*
X04963Y03512*
X04986*
X04988Y03507*
G37*
G36*
X04683Y03499D02*
X04682Y03497D01*
X04679Y03485*
Y03474*
X04682Y03462*
X04688Y03452*
X04697Y03443*
X04707Y03437*
X04709Y03437*
Y0314*
X04706Y03137*
X04702Y03129*
Y0312*
X04706Y03112*
X04712Y03106*
X0472Y03102*
X04729*
X04737Y03106*
X04743Y03112*
X04747Y0312*
Y03129*
X04743Y03137*
X0474Y0314*
Y03437*
X04742Y03437*
X04752Y03443*
X04761Y03452*
X04767Y03462*
X0477Y03474*
Y03485*
X04767Y03497*
X04766Y03499*
X04778Y03512*
X04786*
X04788Y03507*
X04782Y03497*
X04779Y03485*
Y03474*
X04782Y03462*
X04788Y03452*
X04797Y03443*
X04807Y03437*
X04809Y03437*
Y0323*
X04806Y03227*
X04802Y03219*
Y0321*
X04806Y03202*
X04812Y03196*
X0482Y03192*
X04829*
X04837Y03196*
X04843Y03202*
X04847Y0321*
Y03219*
X04843Y03227*
X0484Y0323*
Y03437*
X04842Y03437*
X04852Y03443*
X04861Y03452*
X04867Y03462*
X0487Y03474*
Y03485*
X04867Y03497*
X04861Y03507*
X04863Y03512*
X04886*
X04888Y03507*
X04882Y03497*
X04879Y03485*
Y03474*
X04882Y03462*
X04888Y03452*
X04897Y03443*
X04907Y03437*
X04909Y03437*
Y03257*
X04906Y03253*
X04902Y03245*
Y03237*
X04906Y03229*
X04909Y03225*
Y0317*
X0491Y03164*
X04914Y03159*
X05072Y03001*
X0507Y02996*
X0507Y02996*
X04786*
X04647Y03135*
Y0314*
X04643Y03148*
X0464Y03151*
Y03437*
X04642Y03437*
X04652Y03443*
X04661Y03452*
X04667Y03462*
X0467Y03474*
Y03485*
X04667Y03497*
X04661Y03507*
X04656Y03513*
X04658Y03518*
X04665*
X04683Y03499*
G37*
G36*
X02282Y03433D02*
X02292Y03427D01*
X02304Y03424*
X02315*
X02327Y03427*
X02337Y03433*
X02341Y03437*
X02346Y03435*
Y03339*
X02347Y03333*
X02351Y03328*
X0271Y02969*
X02708Y02964*
X02708Y02964*
X02413*
X0241Y02967*
X02402Y02971*
X02393*
X02385Y02967*
X02379Y02961*
X02378Y02958*
X02373Y02959*
Y03167*
X02372Y03172*
X02368Y03177*
X02273Y03273*
Y03435*
X02278Y03437*
X02282Y03433*
G37*
G36*
X01982D02*
X01992Y03427D01*
X02004Y03424*
X02015*
X02027Y03427*
X02037Y03433*
X02041Y03437*
X02046Y03435*
Y02904*
X02041Y02902*
X02037Y02906*
X02027Y02912*
X02015Y02915*
X02004*
X01992Y02912*
X01982Y02906*
X01978Y02902*
X01973Y02904*
Y03435*
X01978Y03437*
X01982Y03433*
G37*
G36*
X03146Y02924D02*
Y02904D01*
X03141Y02902*
X03137Y02906*
X03127Y02912*
X03115Y02915*
X03104*
X03092Y02912*
X0309Y02911*
X03042Y02958*
X03044Y02963*
X03044Y02963*
X03107*
X03146Y02924*
G37*
G36*
X06932Y02831D02*
Y02826D01*
X06933Y02826*
X0693Y02822*
X06204*
X06166Y0286*
X06167Y02862*
X0617Y02874*
Y02885*
X06167Y02897*
X06161Y02907*
X06152Y02916*
X06142Y02922*
X0613Y02925*
X06119*
X06107Y02922*
X06097Y02916*
X06095Y02915*
X06091Y02917*
Y02979*
X0609Y02984*
X06086Y02989*
X06085Y0299*
X06087Y02995*
X06087Y02995*
X067*
X06788Y02907*
Y02902*
X06792Y02894*
X06798Y02888*
X06806Y02884*
X06815*
X06823Y02888*
X06829Y02894*
X06833Y02902*
Y02911*
X06829Y02919*
X06823Y02925*
X06815Y02929*
X0681*
X06726Y03013*
X06728Y03017*
X06746*
X06932Y02831*
G37*
G36*
X05188Y03507D02*
X05182Y03497D01*
X05179Y03485*
Y03474*
X05182Y03462*
X05188Y03452*
X05197Y03443*
X05207Y03437*
X05209Y03437*
Y03335*
X05206Y03332*
X05202Y03324*
Y03315*
X05206Y03307*
X05212Y03301*
X0522Y03297*
X05225*
X05389Y03134*
X05394Y0313*
X054Y03129*
X07058*
X0717Y03017*
X0717Y03016*
X07167Y03005*
Y02994*
X0717Y02983*
X07176Y02973*
X07183Y02966*
X07193Y0296*
X07204Y02957*
X07215*
X07226Y0296*
X07236Y02966*
X07239Y02969*
X07244Y02967*
Y0295*
X07245Y02944*
X07249Y02939*
X0727Y02917*
X0727Y02916*
X07267Y02905*
Y02894*
X0727Y02883*
X07276Y02873*
X07282Y02867*
X0728Y02862*
X07239*
X07237Y02867*
X07243Y02873*
X07249Y02883*
X07252Y02894*
Y02905*
X07249Y02916*
X07243Y02926*
X07236Y02933*
X07226Y02939*
X07215Y02942*
X07204*
X07193Y02939*
X07192Y02939*
X0704Y0309*
X07035Y03094*
X0703Y03095*
X05376*
X0514Y03331*
Y03437*
X05142Y03437*
X05152Y03443*
X05161Y03452*
X05167Y03462*
X0517Y03474*
Y03485*
X05167Y03497*
X05161Y03507*
X05163Y03512*
X05186*
X05188Y03507*
G37*
G36*
X0606Y02844D02*
Y02821D01*
X06061Y02815*
X06065Y0281*
X06131Y02744*
X06136Y0274*
X06142Y02739*
X07183*
X07185Y02734*
X07183Y02733*
X07176Y02726*
X0717Y02716*
X07167Y02705*
Y02694*
X0717Y02683*
X07176Y02673*
X07183Y02666*
X07193Y0266*
X07204Y02657*
X07215*
X07226Y0266*
X07236Y02666*
X07243Y02673*
X07249Y02683*
X07252Y02694*
Y02705*
X07249Y02716*
X07243Y02726*
X07236Y02733*
X07234Y02734*
X07236Y02739*
X07265*
X0727Y0274*
X07275Y02744*
X07292Y0276*
X07293Y0276*
X07304Y02757*
X07315*
X07326Y0276*
X07336Y02766*
X07343Y02773*
X07349Y02783*
X07352Y02794*
Y02805*
X07349Y02816*
X07343Y02826*
X07342Y02827*
X07344Y02831*
X07916*
X07921Y02832*
X07924Y02834*
X07929Y02832*
Y02812*
X07924Y02809*
X0792Y02811*
Y0279*
Y02768*
X07924Y0277*
X07929Y02767*
Y02746*
X07642Y02462*
X07638Y02464*
Y02739*
X07641Y02742*
X07645Y0275*
Y02759*
X07641Y02767*
X07635Y02773*
X07627Y02777*
X07618*
X0761Y02773*
X07604Y02767*
X076Y02759*
Y0275*
X07604Y02742*
X07607Y02739*
Y0245*
X07527Y0237*
X07346*
X07344Y02375*
X07349Y02383*
X07352Y02394*
Y02405*
X07349Y02416*
X07343Y02426*
X0734Y02429*
X07342Y02434*
X07497*
X075Y02431*
X07508Y02428*
Y0245*
Y02471*
X075Y02468*
X07497Y02465*
X07342*
X0734Y0247*
X07343Y02473*
X07349Y02483*
X07352Y02494*
Y02505*
X07349Y02516*
X07343Y02526*
X07336Y02533*
X07326Y02539*
X07315Y02542*
X07304*
X07293Y02539*
X07292Y02539*
X07271Y02559*
X07266Y02563*
X07261Y02564*
X07241*
X07239Y02569*
X07243Y02573*
X07249Y02583*
X07252Y02594*
Y02605*
X07249Y02616*
X07243Y02626*
X07236Y02633*
X07226Y02639*
X07215Y02642*
X07204*
X07193Y02639*
X07183Y02633*
X07176Y02626*
X0717Y02616*
X07167Y02605*
Y02594*
X0717Y02583*
X07176Y02573*
X0718Y02569*
X07178Y02564*
X06825*
X06679Y02709*
X06674Y02713*
X06669Y02714*
X06022*
X0599Y02746*
Y02843*
X05994Y02845*
X05997Y02843*
X06007Y02837*
X06019Y02834*
X0603*
X06042Y02837*
X06052Y02843*
X06056Y02846*
X0606Y02844*
G37*
G36*
X05088Y03507D02*
X05082Y03497D01*
X05079Y03485*
Y03474*
X05082Y03462*
X05088Y03452*
X05097Y03443*
X05107Y03437*
X05109Y03437*
Y03325*
Y0331*
X05106Y03307*
X05102Y03299*
Y0329*
X05106Y03282*
X05112Y03276*
X0512Y03272*
X05129*
X05137Y03276*
X05141Y0328*
X05147Y0328*
X05359Y03069*
X05364Y03065*
X0537Y03064*
X07023*
X0717Y02917*
X0717Y02916*
X07167Y02905*
Y02894*
X0717Y02883*
X07176Y02873*
X07182Y02867*
X0718Y02862*
X07019*
X07013Y02861*
X07008Y02857*
X06982Y02831*
X06977Y02833*
Y02835*
X06973Y02843*
X06967Y02849*
X06959Y02853*
X06954*
X06763Y03043*
X06758Y03047*
X06753Y03048*
X05145*
X0504Y03153*
Y03254*
X05043Y03257*
X05047Y03265*
Y03274*
X05043Y03282*
X0504Y03285*
Y03437*
X05042Y03437*
X05052Y03443*
X05061Y03452*
X05067Y03462*
X0507Y03474*
Y03485*
X05067Y03497*
X05061Y03507*
X05063Y03512*
X05086*
X05088Y03507*
G37*
G36*
X03243Y02832D02*
Y026D01*
X0319Y02546*
X0318Y02549*
X03169*
X03159Y02546*
X03153Y02543*
X03148Y02546*
Y02744*
X03171*
X03177Y02745*
X03182Y02749*
X0319Y02757*
X03194Y02762*
X03195Y02768*
Y02807*
X03194Y02813*
X0319Y02818*
X03181Y02828*
X03184Y02832*
X03192Y02827*
X03204Y02824*
X03215*
X03227Y02827*
X03237Y02833*
X03239Y02834*
X03243Y02832*
G37*
G36*
X03768Y02889D02*
X03767Y02887D01*
X03764Y02875*
Y02864*
X03767Y02852*
X03773Y02842*
X03782Y02833*
X03792Y02827*
X03792Y02827*
X03789Y02822*
X0373*
X03727Y02827*
X03727Y02827*
X03737Y02833*
X03746Y02842*
X03752Y02852*
X03755Y02864*
Y02875*
X03752Y02887*
X03746Y02897*
X03737Y02906*
X03727Y02912*
X03715Y02915*
X03704*
X03692Y02912*
X0369Y02911*
X03661Y0294*
X03663Y02944*
X03713*
X03768Y02889*
G37*
G36*
X03668D02*
X03667Y02887D01*
X03664Y02875*
Y02864*
X03667Y02852*
X03673Y02842*
X03682Y02833*
X03692Y02827*
X03692Y02827*
X03689Y02822*
X0363*
X03627Y02827*
X03627Y02827*
X03637Y02833*
X03646Y02842*
X03652Y02852*
X03655Y02864*
Y02875*
X03652Y02887*
X03646Y02897*
X03637Y02906*
X03627Y02912*
X03615Y02915*
X03604*
X03592Y02912*
X03582Y02906*
X03573Y02897*
X03567Y02887*
X03564Y02875*
Y02864*
X03567Y02852*
X03573Y02842*
X03582Y02833*
X03592Y02827*
X03592Y02827*
X03589Y02822*
X03549*
X03543Y02821*
X03538Y02818*
X03489Y02769*
X03484*
X03476Y02765*
X0347Y02759*
X03466Y02751*
Y02742*
X0347Y02734*
X03476Y02728*
X03484Y02724*
X03493*
X03501Y02728*
X03507Y02734*
X03511Y02742*
Y02747*
X03555Y02792*
X03675*
X03678Y02788*
X03676Y02785*
Y02776*
X0368Y02768*
X03686Y02762*
X03694Y02758*
X03703*
X03711Y02762*
X03714Y02765*
X03906*
X03907Y0276*
X03902Y02758*
X03896Y02752*
X03893Y02745*
X03936*
X03933Y02752*
X03927Y02758*
X03922Y0276*
X03923Y02765*
X04007*
X04012Y02766*
X04017Y0277*
X04157Y02909*
X04161Y02907*
Y02806*
X04162Y028*
X04166Y02795*
X04197Y02763*
Y02713*
X04193Y0271*
X04192Y02711*
X04187*
X04178Y0272*
X04175Y02722*
X04173Y02723*
X0417Y02724*
X04167Y02724*
X0406*
X04057Y02728*
X04049Y02731*
X0404*
X04032Y02728*
X04026Y02722*
X04022Y02714*
Y02705*
X04026Y02697*
X04032Y02691*
X04032Y0269*
Y02685*
X04032Y02685*
X04026Y02679*
X04022Y02671*
Y02662*
X04026Y02654*
X04032Y02648*
X04026Y02642*
X04022Y02634*
Y02625*
X04026Y02617*
X04032Y02611*
X0404Y02607*
X04049*
X04057Y02611*
X0406Y02614*
X04109*
X04112Y02611*
X0412Y02607*
X04129*
X04137Y02611*
X04143Y02617*
X04147Y02625*
Y02632*
X04148Y02633*
X04151Y02635*
X04151Y02635*
X04158Y02632*
X04161*
X04163Y02627*
X04039Y02503*
X04037Y02502*
X04005*
Y02455*
X04*
Y0245*
X03953*
Y02408*
X03964*
Y02375*
X03965Y02369*
X03969Y02364*
X03972Y0236*
X0397Y02356*
X03782*
X0375Y02388*
X03753Y02392*
X03764Y02387*
X03778Y02385*
X03791*
X03805Y02387*
X03818Y02392*
X03829Y024*
X03839Y0241*
X03847Y02421*
X03852Y02434*
X03855Y02448*
Y02461*
X03852Y02475*
X03847Y02488*
X03839Y02499*
X03829Y02509*
X03818Y02517*
X03805Y02522*
X03791Y02525*
X03778*
X03764Y02522*
X03751Y02517*
X0374Y02509*
X0373Y02499*
X03722Y02488*
X03717Y02475*
X03715Y02461*
Y02448*
X03717Y02434*
X03722Y02423*
X03718Y0242*
X03702Y02435*
X03697Y02439*
X03692Y0244*
X03568*
X03563Y02441*
Y02445*
Y0247*
X0353*
X03496*
Y02441*
X03491Y0244*
X03481*
X03425Y02496*
Y02827*
X03427Y02827*
X03437Y02833*
X03446Y02842*
X03452Y02852*
X03455Y02864*
Y02875*
X03452Y02887*
X03446Y02897*
X03444Y029*
X03446Y02904*
X03453*
X03468Y02889*
X03467Y02887*
X03464Y02875*
Y02864*
X03467Y02852*
X03473Y02842*
X03482Y02833*
X03492Y02827*
X03504Y02824*
X03515*
X03527Y02827*
X03537Y02833*
X03546Y02842*
X03552Y02852*
X03555Y02864*
Y02875*
X03552Y02887*
X03546Y02897*
X03537Y02906*
X03527Y02912*
X03515Y02915*
X03504*
X03492Y02912*
X0349Y02911*
X0348Y02921*
X03482Y02925*
X03632*
X03668Y02889*
G37*
G36*
X05001Y02918D02*
X04997Y02916D01*
X04988Y02907*
X04982Y02897*
X04979Y02885*
Y02874*
X04982Y02862*
X04988Y02852*
X04997Y02843*
X05007Y02837*
X05019Y02834*
X0503*
X05042Y02837*
X05064Y02814*
X05062Y0281*
X05016*
X04966Y0286*
X04967Y02862*
X0497Y02874*
Y02885*
X04967Y02897*
X04961Y02907*
X04952Y02916*
X04948Y02918*
X0495Y02923*
X04999*
X05001Y02918*
G37*
G36*
X02379Y02936D02*
X02385Y0293D01*
X02393Y02926*
X02402*
X0241Y0293*
X02413Y02933*
X03024*
X03068Y02889*
X03067Y02887*
X03064Y02875*
Y02864*
X03067Y02852*
X03073Y02842*
X03082Y02833*
X03092Y02827*
X03104Y02824*
X03115*
X03127Y02827*
X03137Y02833*
X03141Y02837*
X03146Y02835*
Y02825*
X03147Y0282*
X03151Y02815*
X03153Y02812*
X03153Y02811*
X0315Y02808*
X03146Y02809*
X03056*
X0305Y02808*
X03045Y02804*
X03024Y02783*
X0302Y02778*
X03019Y02773*
Y02635*
X03014Y02634*
X03013Y02637*
X03007Y02643*
X02999Y02647*
X02994*
X0282Y02821*
X02821Y02826*
X02827Y02827*
X02837Y02833*
X02846Y02842*
X02852Y02852*
X02855Y02864*
Y02875*
X02852Y02887*
X02846Y02897*
X02837Y02906*
X02827Y02912*
X02815Y02915*
X02804*
X02792Y02912*
X02782Y02906*
X02773Y02897*
X02767Y02887*
X02764Y02875*
Y02864*
X02767Y02852*
X02773Y02842*
X02772Y02839*
X02771Y02837*
X02748*
X02747Y02839*
X02746Y02842*
X02752Y02852*
X02755Y02864*
Y02875*
X02752Y02887*
X02746Y02897*
X02737Y02906*
X02727Y02912*
X02715Y02915*
X02704*
X02692Y02912*
X02682Y02906*
X02673Y02897*
X02667Y02887*
X02664Y02875*
Y02864*
X02667Y02852*
X02673Y02842*
X02672Y02839*
X02671Y02837*
X02648*
X02647Y02839*
X02646Y02842*
X02652Y02852*
X02655Y02864*
Y02875*
X02652Y02887*
X02646Y02897*
X02637Y02906*
X02627Y02912*
X02615Y02915*
X02604*
X02592Y02912*
X02582Y02906*
X02573Y02897*
X02567Y02887*
X02564Y02875*
Y02864*
X02567Y02852*
X02573Y02842*
X02572Y02839*
X02571Y02837*
X02548*
X02547Y02839*
X02546Y02842*
X02552Y02852*
X02555Y02864*
Y02875*
X02552Y02887*
X02546Y02897*
X02537Y02906*
X02527Y02912*
X02515Y02915*
X02504*
X02492Y02912*
X02482Y02906*
X02473Y02897*
X02467Y02887*
X02464Y02875*
Y02864*
X02467Y02852*
X02473Y02842*
X02472Y02839*
X02471Y02837*
X02448*
X02447Y02839*
X02446Y02842*
X02452Y02852*
X02455Y02864*
Y02875*
X02452Y02887*
X02446Y02897*
X02437Y02906*
X02427Y02912*
X02415Y02915*
X02404*
X02392Y02912*
X02382Y02906*
X02378Y02902*
X02373Y02904*
Y02938*
X02378Y02939*
X02379Y02936*
G37*
G36*
X04901Y02918D02*
X04897Y02916D01*
X04888Y02907*
X04882Y02897*
X04879Y02885*
Y02874*
X04882Y02862*
X04888Y02852*
X04897Y02843*
X04907Y02837*
X04919Y02834*
X0493*
X04942Y02837*
X04944Y02838*
X04985Y02797*
X04983Y02792*
X04937*
X04867Y02862*
X0487Y02874*
Y02885*
X04867Y02897*
X04861Y02907*
X04852Y02916*
X04848Y02918*
X0485Y02923*
X04899*
X04901Y02918*
G37*
G36*
X06097Y02843D02*
X06107Y02837D01*
X06119Y02834*
X0613*
X06142Y02837*
X06144Y02838*
X06187Y02796*
X06192Y02792*
X06198Y02791*
X06979*
X06984Y02792*
X06989Y02796*
X07025Y02831*
X07175*
X07177Y02827*
X07176Y02826*
X0717Y02816*
X07167Y02805*
Y02805*
X0721*
Y02795*
X07167*
Y02794*
X0717Y02783*
X07175Y02775*
X07173Y0277*
X06148*
X06091Y02827*
Y02842*
X06095Y02844*
X06097Y02843*
G37*
G36*
X04801Y02918D02*
X04797Y02916D01*
X04788Y02907*
X04782Y02897*
X04779Y02885*
Y02874*
X04782Y02862*
X04788Y02852*
X04797Y02843*
X04807Y02837*
X04819Y02834*
X0483*
X04842Y02837*
X04907Y02772*
X04905Y02767*
X04862*
X04767Y02862*
X0477Y02874*
Y02885*
X04767Y02897*
X04761Y02907*
X04752Y02916*
X04748Y02918*
X0475Y02923*
X04799*
X04801Y02918*
G37*
G36*
X04701D02*
X04697Y02916D01*
X04688Y02907*
X04682Y02897*
X04679Y02885*
Y02874*
X04682Y02862*
X04688Y02852*
X04697Y02843*
X04707Y02837*
X04719Y02834*
X0473*
X04742Y02837*
X04827Y02752*
X04825Y02747*
X04782*
X04667Y02862*
X0467Y02874*
Y02885*
X04667Y02897*
X04661Y02907*
X04652Y02916*
X04648Y02918*
X0465Y02923*
X04699*
X04701Y02918*
G37*
G36*
X04303Y03542D02*
X04302Y03541D01*
Y03533*
X04306Y03524*
X04303Y0352*
X04297Y03516*
X04288Y03507*
X04282Y03497*
X04279Y03485*
Y03474*
X04282Y03462*
X04288Y03452*
X04297Y03443*
X04307Y03437*
X04319Y03434*
X0433*
X04342Y03437*
X04352Y03443*
X04361Y03452*
X04367Y03462*
X0437Y03474*
Y03485*
X04367Y03497*
X04361Y03507*
X04356Y03513*
X04358Y03518*
X04391*
X04393Y03513*
X04388Y03507*
X04382Y03497*
X04379Y03485*
Y03474*
X04382Y03462*
X04388Y03452*
X04397Y03443*
X04407Y03437*
X04409Y03437*
Y03207*
X04406Y03203*
X04402Y03195*
Y03187*
X04406Y03179*
X04409Y03175*
Y03147*
X0441Y03141*
X04414Y03136*
X04619Y0293*
X04619Y02927*
X04618Y02925*
X04607Y02922*
X04597Y02916*
X04588Y02907*
X04582Y02897*
X04579Y02885*
Y02874*
X04582Y02862*
X04588Y02852*
X04597Y02843*
X04607Y02837*
X04619Y02834*
X0463*
X04642Y02837*
X04754Y02724*
X04752Y0272*
X04706*
X04566Y0286*
X04567Y02862*
X0457Y02874*
Y02885*
X04567Y02897*
X04561Y02907*
X04552Y02916*
X04542Y02922*
X0453Y02925*
X04519*
X04507Y02922*
X04497Y02916*
X04488Y02907*
X04482Y02897*
X04479Y02885*
Y02874*
X04482Y02862*
X04488Y02852*
X04497Y02843*
X04507Y02837*
X04519Y02834*
X0453*
X04542Y02837*
X04544Y02838*
X04683Y02699*
X04681Y02695*
X04631*
X04466Y0286*
X04467Y02862*
X0447Y02874*
Y02885*
X04467Y02897*
X04461Y02907*
X04452Y02916*
X04442Y02922*
X0443Y02925*
X04419*
X04407Y02922*
X04397Y02916*
X04388Y02907*
X04382Y02897*
X04379Y02885*
Y02874*
X04382Y02862*
X04388Y02852*
X04397Y02843*
X04407Y02837*
X04419Y02834*
X0443*
X04442Y02837*
X04444Y02838*
X04613Y0267*
X04611Y02665*
X04611Y02665*
X04561*
X04366Y0286*
X04367Y02862*
X0437Y02874*
Y02885*
X04367Y02897*
X04361Y02907*
X04352Y02916*
X04342Y02922*
X0433Y02925*
X04319*
X04307Y02922*
X04297Y02916*
X04288Y02907*
X04282Y02897*
X04279Y02885*
Y02874*
X04282Y02862*
X04288Y02852*
X04297Y02843*
X04307Y02837*
X04319Y02834*
X0433*
X04342Y02837*
X04344Y02838*
X04544Y02639*
X04549Y02635*
X04555Y02634*
X05474*
X05477Y02631*
X05485Y02627*
X05494*
X05502Y02631*
X05508Y02637*
X05512Y02645*
Y02654*
X05509Y02659*
X05512Y02664*
X05611*
X05614Y02657*
X0562Y02651*
X05628Y02647*
X05637*
X05645Y02651*
X05648Y02654*
X06059*
X06062Y02651*
X0607Y02647*
X06079*
X06087Y02651*
X06093Y02657*
X06097Y02665*
Y02674*
X06095Y02678*
X06098Y02683*
X06662*
X06808Y02538*
X06813Y02534*
X06819Y02533*
X07177*
X07179Y02529*
X07176Y02526*
X0717Y02516*
X07167Y02505*
Y02494*
X0717Y02483*
X07176Y02473*
X07183Y02466*
X07193Y0246*
X07204Y02457*
X07215*
X07226Y0246*
X07236Y02466*
X07243Y02473*
X07249Y02483*
X07252Y02494*
Y02505*
X07249Y02516*
X07243Y02526*
X0724Y02529*
X07242Y02533*
X07254*
X0727Y02517*
X0727Y02516*
X07267Y02505*
Y02494*
X0727Y02483*
X07276Y02473*
X07279Y0247*
X07277Y02465*
X0726*
X07254Y02464*
X07249Y0246*
X07227Y02439*
X07226Y02439*
X07215Y02442*
X07215*
Y024*
X0721*
Y02395*
X07167*
Y02394*
X0717Y02383*
X07175Y02375*
X07173Y0237*
X0651*
X06356Y02523*
X06351Y02527*
X06346Y02528*
X04668*
X04662Y02527*
X04657Y02523*
X0464Y02506*
X04636Y02501*
X04635Y02496*
Y02492*
X04631Y0249*
X04628Y02492*
X04618Y02498*
X04606Y02502*
X04593*
X04581Y02498*
X04571Y02492*
X04562Y02483*
X04556Y02473*
X04553Y02461*
Y02448*
X04556Y02436*
X04562Y02426*
X04571Y02417*
X04581Y02411*
X04593Y02408*
X04606*
X04618Y02411*
X04628Y02417*
X04634Y02415*
X04634Y02413*
X04577Y02356*
X04102*
X041Y0236*
X0416Y02421*
X04161Y02421*
X04166Y02422*
X04171Y02417*
X04181Y02411*
X04193Y02408*
X04206*
X04218Y02411*
X04228Y02417*
X04237Y02426*
X04243Y02436*
X04247Y02448*
Y02461*
X04243Y02473*
X04237Y02483*
X04228Y02492*
X04218Y02498*
X04206Y02502*
X04193*
X04181Y02498*
X04171Y02492*
X04169Y02491*
X04165Y02493*
Y02539*
X0425Y02625*
X04254Y0263*
X04255Y02636*
Y02834*
X0427*
Y02875*
X04225*
Y0288*
X0422*
Y02925*
X0421*
X04208Y0293*
X04235Y02957*
X04239Y02962*
X0424Y02968*
Y03437*
X04242Y03437*
X04252Y03443*
X04261Y03452*
X04267Y03462*
X0427Y03474*
Y03485*
X04267Y03497*
X04261Y03507*
X04252Y03516*
X04242Y03522*
X0423Y03525*
X04219*
X04215Y03524*
X04212Y03528*
X04229Y03546*
X043*
X04303Y03542*
G37*
G36*
X05901Y02918D02*
X05897Y02916D01*
X05888Y02907*
X05882Y02897*
X05879Y02885*
Y02874*
X05882Y02862*
X05888Y02852*
X05897Y02843*
X05907Y02837*
X05919Y02834*
X0593*
X05942Y02837*
X05952Y02843*
X05955Y02845*
X05959Y02843*
Y0274*
X0596Y02734*
X05964Y02729*
X06003Y0269*
X06001Y02685*
X05828*
X05826Y0269*
X05828Y02692*
X0583Y02696*
X05836Y02697*
X05837Y02696*
X05845Y02692*
X05854*
X05862Y02696*
X05868Y02702*
X05872Y0271*
Y02719*
X05868Y02727*
X05869Y02733*
X05873Y02737*
X05877Y02745*
Y02754*
X05873Y02762*
X05867Y02768*
X05864Y02769*
X05864Y02769*
X05864Y02775*
X05868Y0278*
X05872Y02788*
Y02796*
X05871Y02798*
X05877Y02801*
X05883Y02807*
X05887Y02815*
Y02824*
X05883Y02832*
X05877Y02838*
X05869Y02842*
X0586*
X05856Y0284*
X05853Y02844*
X05861Y02852*
X05867Y02862*
X0587Y02874*
Y02885*
X05867Y02897*
X05861Y02907*
X05852Y02916*
X05848Y02918*
X0585Y02923*
X05899*
X05901Y02918*
G37*
G36*
X06493Y02344D02*
X06498Y0234D01*
X06504Y02339*
X07183*
X07185Y02334*
X07183Y02333*
X07176Y02326*
X0717Y02316*
X07167Y02305*
Y02294*
X0717Y02283*
X07176Y02273*
X07179Y0227*
X07177Y02265*
X06837*
X06819Y02282*
X06814Y02286*
X06809Y02287*
X05506*
X055Y02286*
X05495Y02282*
X05463Y0225*
X05461Y02248*
X05456Y02246*
X05455Y02247*
X05447Y02251*
X05437Y02254*
X05426*
X05419Y02252*
X05415Y02256*
Y0241*
X05418Y02411*
X05428Y02417*
X05437Y02426*
X05443Y02436*
X05447Y02448*
Y02461*
X05443Y02473*
X05437Y02483*
X05428Y02492*
X05428Y02492*
X05429Y02497*
X0547*
X05471Y02492*
X05471Y02492*
X05462Y02483*
X05456Y02473*
X05453Y02461*
Y0246*
X05547*
Y02461*
X05543Y02473*
X05537Y02483*
X05528Y02492*
X05528Y02492*
X05529Y02497*
X06339*
X06493Y02344*
G37*
G36*
X05371Y02492D02*
X05371Y02492D01*
X05362Y02483*
X05356Y02473*
X05353Y02461*
Y02448*
X05356Y02436*
X05362Y02426*
X05371Y02417*
X05381Y02411*
X05384Y0241*
Y02289*
X05379Y02286*
X05375Y02286*
X04888*
X04882Y02285*
X04877Y02282*
X04847Y02251*
X04837Y02254*
X04826*
X04816Y02251*
X04807Y02246*
X048Y02239*
X04795Y0223*
X04792Y0222*
Y02209*
X04795Y02199*
X04799Y02193*
X04796Y02188*
X04718*
X04585Y0232*
X04586Y02324*
X04587Y02326*
X04589Y02326*
X04594Y0233*
X04661Y02397*
X04665Y02402*
X04666Y02408*
Y02415*
X0467Y02417*
X04671Y02417*
X04681Y02411*
X04693Y02408*
X04706*
X04718Y02411*
X04728Y02417*
X04737Y02426*
X04743Y02436*
X04747Y02448*
Y02461*
X04743Y02473*
X04737Y02483*
X04728Y02492*
X04728Y02492*
X04729Y02497*
X0477*
X04771Y02492*
X04771Y02492*
X04762Y02483*
X04756Y02473*
X04753Y02461*
Y02448*
X04756Y02436*
X04762Y02426*
X04771Y02417*
X04781Y02411*
X04793Y02408*
X04806*
X04818Y02411*
X04828Y02417*
X04837Y02426*
X04843Y02436*
X04847Y02448*
Y02461*
X04843Y02473*
X04837Y02483*
X04828Y02492*
X04828Y02492*
X04829Y02497*
X0487*
X04871Y02492*
X04871Y02492*
X04862Y02483*
X04856Y02473*
X04853Y02461*
Y02448*
X04856Y02436*
X04862Y02426*
X04871Y02417*
X04881Y02411*
X04893Y02408*
X04906*
X04918Y02411*
X04928Y02417*
X04937Y02426*
X04943Y02436*
X04947Y02448*
Y02461*
X04943Y02473*
X04937Y02483*
X04928Y02492*
X04928Y02492*
X04929Y02497*
X0497*
X04971Y02492*
X04971Y02492*
X04962Y02483*
X04956Y02473*
X04953Y02461*
Y02448*
X04956Y02436*
X04962Y02426*
X04971Y02417*
X04981Y02411*
X04993Y02408*
X05006*
X05018Y02411*
X05028Y02417*
X05037Y02426*
X05043Y02436*
X05047Y02448*
Y02461*
X05043Y02473*
X05037Y02483*
X05028Y02492*
X05028Y02492*
X05029Y02497*
X0507*
X05071Y02492*
X05071Y02492*
X05062Y02483*
X05056Y02473*
X05053Y02461*
Y02448*
X05056Y02436*
X05062Y02426*
X05071Y02417*
X05081Y02411*
X05093Y02408*
X05106*
X05118Y02411*
X05128Y02417*
X05137Y02426*
X05143Y02436*
X05147Y02448*
Y02461*
X05143Y02473*
X05137Y02483*
X05128Y02492*
X05128Y02492*
X05129Y02497*
X0517*
X05171Y02492*
X05171Y02492*
X05162Y02483*
X05156Y02473*
X05153Y02461*
Y02448*
X05156Y02436*
X05162Y02426*
X05171Y02417*
X05181Y02411*
X05193Y02408*
X05206*
X05218Y02411*
X05228Y02417*
X05237Y02426*
X05243Y02436*
X05247Y02448*
Y02461*
X05243Y02473*
X05237Y02483*
X05228Y02492*
X05228Y02492*
X05229Y02497*
X0527*
X05271Y02492*
X05271Y02492*
X05262Y02483*
X05256Y02473*
X05253Y02461*
Y02448*
X05256Y02436*
X05262Y02426*
X05271Y02417*
X05281Y02411*
X05293Y02408*
X05306*
X05318Y02411*
X05328Y02417*
X05337Y02426*
X05343Y02436*
X05347Y02448*
Y02461*
X05343Y02473*
X05337Y02483*
X05328Y02492*
X05328Y02492*
X05329Y02497*
X0537*
X05371Y02492*
G37*
G36*
X03117Y02497D02*
Y02487D01*
X03118Y02481*
X03122Y02476*
X03141Y02457*
X03146Y02453*
X03152Y02452*
X03233*
X03238Y02453*
X03243Y02457*
X03259Y02473*
X03269Y0247*
X0328*
X0329Y02473*
X03293Y02474*
X03296Y0247*
X03205Y0238*
X03092*
Y02474*
X03099Y02478*
X03106Y02485*
X03111Y02494*
X03112Y02498*
X03117Y02497*
G37*
G36*
X03392Y02827D02*
X03394Y02827D01*
Y0249*
X03395Y02484*
X03399Y02479*
X03464Y02414*
X03469Y0241*
X03475Y02409*
X03512*
X03514Y02404*
X03509Y02401*
X03503Y02395*
X03498Y02387*
X03496Y02379*
Y0237*
X03498Y02362*
X03503Y02354*
X03509Y02348*
X03517Y02343*
X03525Y02341*
X03534*
X03542Y02343*
X0355Y02348*
X03556Y02354*
X03561Y02362*
X03563Y0237*
Y02379*
X03561Y02387*
X03556Y02395*
X0355Y02401*
X03545Y02404*
X03547Y02409*
X03685*
X03764Y02331*
X03762Y02326*
X03762Y02326*
X0351*
X03504Y02325*
X03499Y02321*
X03472Y02294*
X03468Y02295*
X03468Y02295*
X03467Y023*
X03472Y02305*
X03476Y02313*
Y02322*
X03472Y0233*
X03466Y02336*
X03458Y0234*
X03453*
X03377Y02416*
Y02831*
X03379Y02832*
X03382Y02833*
X03392Y02827*
G37*
G36*
X07514Y02335D02*
X07389Y0221D01*
X07384Y02207*
X07357Y0218*
X07352Y02182*
Y02242*
X0728*
X07278Y02247*
X07292Y0226*
X07293Y0226*
X07304Y02257*
X07315*
X07326Y0226*
X07336Y02266*
X07343Y02273*
X07349Y02283*
X07352Y02294*
Y02305*
X07349Y02316*
X07343Y02326*
X07336Y02333*
X07334Y02334*
X07336Y02339*
X07512*
X07514Y02335*
G37*
G36*
X0682Y02239D02*
X06825Y02235D01*
X06831Y02234*
X07177*
X07179Y02229*
X07176Y02226*
X0717Y02216*
X0717Y02215*
X0667*
X06664Y02214*
X06659Y0221*
X064Y01951*
X0639Y01954*
X0638*
X0637Y01951*
X06361Y01946*
X06354Y01939*
X06348Y0193*
X06346Y0192*
Y01909*
X06348Y01899*
X06337Y01888*
X06321*
X06318Y01893*
X06322Y01899*
X06325Y01909*
Y0192*
X06322Y0193*
X06317Y01939*
X06309Y01946*
X063Y01951*
X0629Y01954*
X0628*
X0627Y01951*
X06261Y01946*
X06254Y01939*
X06248Y0193*
X06246Y0192*
Y01909*
X06248Y01899*
X06252Y01893*
X06249Y01888*
X06221*
X06218Y01893*
X06222Y01899*
X06225Y01909*
Y0192*
X06222Y0193*
X06217Y01939*
X06209Y01946*
X062Y01951*
X0619Y01954*
X0618*
X0617Y01951*
X06161Y01946*
X06154Y01939*
X06148Y0193*
X06146Y0192*
Y01909*
X06148Y01899*
X06152Y01893*
X06149Y01888*
X06121*
X06118Y01893*
X06122Y01899*
X06125Y01909*
Y0191*
X06085*
Y01915*
X0608*
Y01954*
X0608*
X0607Y01951*
X06054Y01967*
X06049Y01971*
X06043Y01972*
X05826*
X05824Y01977*
X05826Y0198*
X0583Y01988*
Y01996*
X05826Y02004*
X0582Y02011*
X05812Y02014*
X05811*
X05752Y02074*
X05742Y02083*
Y02088*
X05739Y02096*
X05733Y02102*
X05725Y02106*
X05716*
X05708Y02102*
X05702Y02096*
X05698Y02088*
Y02079*
X05702Y02071*
X05708Y02065*
X05716Y02062*
X05721*
X0573Y02052*
X05786Y01996*
Y01996*
Y01988*
X05789Y0198*
X05792Y01977*
X0579Y01972*
X05574*
X05568Y01971*
X05563Y01967*
X05552Y01956*
X05547Y01958*
Y0208*
X05546Y02085*
X05542Y0209*
X05495Y02138*
X05497Y02143*
X05629*
X05635Y02144*
X05639Y02147*
X0567Y02178*
X0568Y02175*
X0568*
Y0221*
X05646*
Y02209*
X05648Y02199*
X05622Y02173*
X05549*
X05548Y02178*
X05556Y02183*
X05563Y0219*
X05568Y02199*
X05571Y02209*
Y0222*
X05568Y0223*
X05563Y02239*
X05556Y02246*
X05547Y02251*
X05548Y02256*
X05669*
X0567Y02251*
X05661Y02246*
X05654Y02239*
X05648Y0223*
X05646Y0222*
Y0222*
X05685*
X05725*
Y0222*
X05722Y0223*
X05717Y02239*
X05709Y02246*
X057Y02251*
X05702Y02256*
X05769*
X0577Y02251*
X05761Y02246*
X05754Y02239*
X05748Y0223*
X05746Y0222*
Y02209*
X05748Y02199*
X05754Y0219*
X05761Y02183*
X0577Y02178*
X0578Y02175*
X0579*
X058Y02178*
X05809Y02183*
X05817Y0219*
X05822Y02199*
X05825Y02209*
Y0222*
X05822Y0223*
X05817Y02239*
X05809Y02246*
X058Y02251*
X05802Y02256*
X05869*
X0587Y02251*
X05861Y02246*
X05854Y02239*
X05848Y0223*
X05846Y0222*
Y02209*
X05848Y02199*
X05854Y0219*
X05861Y02183*
X0587Y02178*
X0588Y02175*
X0589*
X059Y02178*
X05909Y02183*
X05917Y0219*
X05922Y02199*
X05925Y02209*
Y0222*
X05922Y0223*
X05917Y02239*
X05909Y02246*
X059Y02251*
X05902Y02256*
X05969*
X0597Y02251*
X05961Y02246*
X05954Y02239*
X05948Y0223*
X05946Y0222*
Y02209*
X05948Y02199*
X05954Y0219*
X05961Y02183*
X0597Y02178*
X0598Y02175*
X0599*
X06Y02178*
X06009Y02183*
X06017Y0219*
X06022Y02199*
X06025Y02209*
Y0222*
X06022Y0223*
X06017Y02239*
X06009Y02246*
X06Y02251*
X06002Y02256*
X06069*
X0607Y02251*
X06061Y02246*
X06054Y02239*
X06048Y0223*
X06046Y0222*
Y02209*
X06048Y02199*
X06054Y0219*
X06061Y02183*
X0607Y02178*
X0608Y02175*
X0609*
X061Y02178*
X06109Y02183*
X06117Y0219*
X06122Y02199*
X06125Y02209*
Y0222*
X06122Y0223*
X06117Y02239*
X06109Y02246*
X061Y02251*
X06102Y02256*
X06169*
X0617Y02251*
X06161Y02246*
X06154Y02239*
X06148Y0223*
X06146Y0222*
Y02209*
X06148Y02199*
X06154Y0219*
X06161Y02183*
X0617Y02178*
X0618Y02175*
X0619*
X062Y02178*
X06209Y02183*
X06217Y0219*
X06222Y02199*
X06225Y02209*
Y0222*
X06222Y0223*
X06217Y02239*
X06209Y02246*
X062Y02251*
X06202Y02256*
X06269*
X0627Y02251*
X06261Y02246*
X06254Y02239*
X06248Y0223*
X06246Y0222*
Y02209*
X06248Y02199*
X06254Y0219*
X06261Y02183*
X0627Y02178*
X0628Y02175*
X0629*
X063Y02178*
X06309Y02183*
X06317Y0219*
X06322Y02199*
X06325Y02209*
Y0222*
X06322Y0223*
X06317Y02239*
X06309Y02246*
X063Y02251*
X06302Y02256*
X06342*
X06346Y02254*
Y02251*
Y02175*
X06425*
Y02251*
X06425Y02254*
X06429Y02256*
X06802*
X0682Y02239*
G37*
G36*
X05298Y02236D02*
X05295Y0223D01*
X05292Y0222*
Y02209*
X05295Y02199*
X053Y0219*
X05307Y02183*
X05316Y02178*
X05326Y02175*
X05337*
X05347Y02178*
X05356Y02183*
X05363Y0219*
X05368Y02191*
X05381Y02178*
X05379Y02173*
X05366*
X0536Y02172*
X05355Y02169*
X05336Y02149*
Y02149*
X05261Y02075*
X05255Y02075*
X05253Y02077*
Y02181*
X05256Y02183*
X05263Y0219*
X05268Y02199*
X05271Y02209*
Y0222*
X05268Y0223*
X05265Y02236*
X05268Y02241*
X05295*
X05298Y02236*
G37*
G36*
X05198D02*
X05195Y0223D01*
X05192Y0222*
Y02209*
X05195Y02199*
X052Y0219*
X05207Y02183*
X05216Y02178*
X05222Y02176*
Y02077*
X0522Y02075*
X05214Y02073*
X05147Y02141*
Y02178*
X05156Y02183*
X05163Y0219*
X05168Y02199*
X05171Y02209*
Y0221*
X05132*
Y0222*
X05171*
Y0222*
X05168Y0223*
X05165Y02236*
X05168Y02241*
X05195*
X05198Y02236*
G37*
G36*
X05516Y02073D02*
Y01951D01*
X05507Y01946*
X055Y01939*
X05495Y0193*
X05492Y0192*
Y0192*
X05532*
X05571*
Y0192*
X05568Y0193*
X0558Y01941*
X05649*
X05652Y01936*
X05648Y0193*
X05646Y0192*
Y01909*
X05648Y01899*
X05654Y0189*
X05661Y01883*
X0567Y01878*
X0568Y01875*
X0569*
X057Y01878*
X05709Y01883*
X05717Y0189*
X05722Y01899*
X05725Y01909*
Y0192*
X05722Y0193*
X05718Y01936*
X05721Y01941*
X05749*
X05752Y01936*
X05748Y0193*
X05746Y0192*
Y01909*
X05748Y01899*
X05666Y01817*
X05589*
X05587Y01821*
X05588Y01822*
X05592Y0183*
Y01834*
X05595Y01837*
X05596*
X05604*
X05612Y01841*
X05618Y01847*
X05622Y01855*
Y01864*
X05618Y01872*
X05612Y01878*
X05604Y01882*
X05595*
X05589Y01879*
X05558*
X05557Y01884*
X05563Y0189*
X05568Y01899*
X05571Y01909*
Y0191*
X05532*
X05492*
Y01909*
X05495Y01899*
X055Y0189*
X05503Y01887*
X05502Y01881*
X05501Y01881*
X055Y01881*
X05493Y01884*
X05484*
X05476Y01881*
X05469Y01875*
X05466Y01867*
Y01858*
X05469Y0185*
X05476Y01844*
X05481Y01841*
X0548Y01839*
Y0183*
X05483Y01822*
X05484Y01821*
X05482Y01817*
X05438*
X05432Y01815*
X05427Y01812*
X05422Y01807*
X05413*
X05405Y01803*
X05404Y01802*
X054Y01805*
Y01883*
X05405Y01885*
X05407Y01883*
X05416Y01878*
X05426Y01875*
X05437*
X05447Y01878*
X05456Y01883*
X05463Y0189*
X05468Y01899*
X05471Y01909*
Y0192*
X05468Y0193*
X05463Y01939*
X05456Y01946*
X05447Y01951*
X05437Y01954*
X05426*
X05416Y01951*
X05407Y01946*
X05405Y01944*
X054Y01946*
Y0209*
X05403Y02094*
X05407Y02102*
Y0211*
X05403Y02118*
X05403Y02119*
X05405Y02123*
X05466*
X05516Y02073*
G37*
%LN6502_carrier-2*%
%LPC*%
G36*
X05735Y04415D02*
X05724D01*
X05712Y04412*
X05702Y04406*
X05693Y04397*
X05687Y04387*
X05684Y04375*
Y04364*
X05687Y04352*
X05693Y04342*
X05702Y04333*
X05712Y04327*
X05714Y04327*
Y04122*
X05711Y04119*
X05707Y04111*
Y04102*
X05711Y04094*
X05717Y04088*
X05725Y04084*
X05734*
X05742Y04088*
X05748Y04094*
X05752Y04102*
Y04111*
X05748Y04119*
X05745Y04122*
Y04327*
X05747Y04327*
X05757Y04333*
X05766Y04342*
X05772Y04352*
X05775Y04364*
Y04375*
X05772Y04387*
X05766Y04397*
X05757Y04406*
X05747Y04412*
X05735Y04415*
G37*
G36*
X05475Y04365D02*
X05435D01*
Y04324*
X05435*
X05447Y04327*
X05457Y04333*
X05466Y04342*
X05472Y04352*
X05475Y04364*
Y04365*
G37*
G36*
X03401Y0389D02*
X03365D01*
Y0384*
X0337Y03841*
X0338Y03845*
X03389Y03851*
X03395Y0386*
X03399Y0387*
X03401Y03881*
Y0389*
G37*
G36*
X03355D02*
X03318D01*
Y03881*
X0332Y0387*
X03324Y0386*
X0333Y03851*
X03339Y03845*
X03349Y03841*
X03355Y0384*
Y0389*
G37*
G36*
X05842Y03985D02*
X05833D01*
X05825Y03981*
X05819Y03975*
X05816Y03967*
Y03958*
X05819Y0395*
X0582Y0395*
Y0379*
X05812Y03788*
X05802Y03782*
X05793Y03773*
X05787Y03763*
X05784Y03752*
Y0374*
X05787Y03728*
X05793Y03718*
X05802Y03709*
X05812Y03703*
X05824Y037*
X05835*
X05847Y03703*
X05857Y03709*
X05866Y03718*
X05872Y03728*
X05875Y0374*
Y03752*
X05872Y03763*
X05866Y03773*
X05857Y03782*
X05856Y03783*
Y0395*
X05856Y0395*
X0586Y03958*
Y03967*
X05856Y03975*
X0585Y03981*
X05842Y03985*
G37*
G36*
X05734Y04002D02*
X05725D01*
X05717Y03998*
X05711Y03992*
X05707Y03984*
Y03975*
X05711Y03967*
X05712Y03966*
Y03788*
X05702Y03782*
X05693Y03773*
X05687Y03763*
X05684Y03752*
Y0374*
X05687Y03728*
X05693Y03718*
X05702Y03709*
X05712Y03703*
X05724Y037*
X05735*
X05747Y03703*
X05757Y03709*
X05766Y03718*
X05772Y03728*
X05775Y0374*
Y03752*
X05772Y03763*
X05766Y03773*
X05757Y03782*
X05747Y03788*
Y03966*
X05748Y03967*
X05752Y03975*
Y03984*
X05748Y03992*
X05742Y03998*
X05734Y04002*
G37*
G36*
X05634D02*
X05625D01*
X05617Y03998*
X05611Y03992*
X05607Y03984*
Y03975*
X05611Y03967*
X05612Y03966*
Y03788*
X05602Y03782*
X05593Y03773*
X05587Y03763*
X05584Y03752*
Y0374*
X05587Y03728*
X05593Y03718*
X05602Y03709*
X05612Y03703*
X05624Y037*
X05635*
X05647Y03703*
X05657Y03709*
X05666Y03718*
X05672Y03728*
X05675Y0374*
Y03752*
X05672Y03763*
X05666Y03773*
X05657Y03782*
X05647Y03788*
Y03966*
X05648Y03967*
X05652Y03975*
Y03984*
X05648Y03992*
X05642Y03998*
X05634Y04002*
G37*
G36*
X05542Y0402D02*
X05533D01*
X05525Y04016*
X05519Y0401*
X05516Y04002*
Y03993*
X05519Y03985*
X0552Y03984*
Y0379*
X05512Y03788*
X05502Y03782*
X05493Y03773*
X05487Y03763*
X05484Y03752*
Y0374*
X05487Y03728*
X05493Y03718*
X05502Y03709*
X05512Y03703*
X05524Y037*
X05535*
X05547Y03703*
X05557Y03709*
X05566Y03718*
X05572Y03728*
X05575Y0374*
Y03752*
X05572Y03763*
X05566Y03773*
X05557Y03782*
X05556Y03783*
Y03984*
X05556Y03985*
X0556Y03993*
Y04002*
X05556Y0401*
X0555Y04016*
X05542Y0402*
G37*
G36*
X05434Y04032D02*
X05425D01*
X05417Y04029*
X05411Y04023*
X05407Y04014*
Y04006*
X05411Y03998*
X05414Y03994*
Y03788*
X05412Y03788*
X05402Y03782*
X05393Y03773*
X05387Y03763*
X05384Y03752*
Y0374*
X05387Y03728*
X05393Y03718*
X05402Y03709*
X05412Y03703*
X05424Y037*
X05435*
X05447Y03703*
X05457Y03709*
X05466Y03718*
X05472Y03728*
X05475Y0374*
Y03752*
X05472Y03763*
X05466Y03773*
X05457Y03782*
X05447Y03788*
X05445Y03788*
Y03994*
X05448Y03998*
X05452Y04006*
Y04014*
X05448Y04023*
X05442Y04029*
X05434Y04032*
G37*
G36*
X0499Y0379D02*
X04979D01*
X04967Y03787*
X04957Y03781*
X04948Y03772*
X04942Y03762*
X04939Y0375*
Y03739*
X04942Y03727*
X04948Y03717*
X04957Y03708*
X04967Y03702*
X04979Y03699*
X0499*
X05002Y03702*
X05012Y03708*
X05021Y03717*
X05027Y03727*
X0503Y03739*
Y0375*
X05027Y03762*
X05021Y03772*
X05012Y03781*
X05002Y03787*
X0499Y0379*
G37*
G36*
X05234Y04128D02*
X05225D01*
X05217Y04125*
X05211Y04119*
X05207Y04111*
Y04102*
X05211Y04094*
X05214Y0409*
Y038*
X05211Y03797*
X05207Y03789*
Y0378*
X05211Y03772*
X05217Y03766*
X05225Y03762*
X05234*
X05242Y03766*
X05244Y03768*
X05249Y03766*
Y03735*
X05246Y03732*
X05242Y03724*
Y03715*
X05246Y03707*
X05252Y03701*
X0526Y03697*
X05269*
X05277Y03701*
X05283Y03707*
X05287Y03715*
Y03724*
X05283Y03732*
X0528Y03735*
Y04062*
X05284Y04066*
X05287Y04074*
Y04083*
X05284Y04091*
X05278Y04097*
X0527Y041*
X05261*
X05255Y04098*
X05251Y04102*
X05252Y04102*
Y04111*
X05248Y04119*
X05242Y04125*
X05234Y04128*
G37*
G36*
X05334Y04072D02*
X05325D01*
X05317Y04068*
X05311Y04062*
X05307Y04054*
Y04045*
X05311Y04037*
X05314Y04034*
Y03703*
X05311Y037*
X05307Y03691*
Y03683*
X05311Y03675*
X05317Y03668*
X05325Y03665*
X05334*
X05342Y03668*
X05348Y03675*
X05352Y03683*
Y03691*
X05348Y037*
X05345Y03703*
Y04034*
X05348Y04037*
X05352Y04045*
Y04054*
X05348Y04062*
X05342Y04068*
X05334Y04072*
G37*
G36*
X06645Y03511D02*
Y03495D01*
X06661*
X06658Y03502*
X06652Y03508*
X06645Y03511*
G37*
G36*
X06635D02*
X06627Y03508D01*
X06621Y03502*
X06618Y03495*
X06635*
Y03511*
G37*
G36*
X06661Y03485D02*
X06645D01*
Y03468*
X06652Y03471*
X06658Y03477*
X06661Y03485*
G37*
G36*
X06635D02*
X06618D01*
X06621Y03477*
X06627Y03471*
X06635Y03468*
Y03485*
G37*
G36*
X06135Y03791D02*
X06135D01*
Y03751*
X06175*
Y03752*
X06172Y03763*
X06166Y03773*
X06157Y03782*
X06147Y03788*
X06135Y03791*
G37*
G36*
X06125D02*
X06124D01*
X06112Y03788*
X06102Y03782*
X06093Y03773*
X06087Y03763*
X06084Y03752*
Y03751*
X06125*
Y03791*
G37*
G36*
X07215Y03642D02*
X07215D01*
Y03605*
X07252*
Y03605*
X07249Y03616*
X07243Y03626*
X07236Y03633*
X07226Y03639*
X07215Y03642*
G37*
G36*
X07205D02*
X07204D01*
X07193Y03639*
X07183Y03633*
X07176Y03626*
X0717Y03616*
X07167Y03605*
Y03605*
X07205*
Y03642*
G37*
G36*
X07252Y03595D02*
X07215D01*
Y03557*
X07215*
X07226Y0356*
X07236Y03566*
X07243Y03573*
X07249Y03583*
X07252Y03594*
Y03595*
G37*
G36*
X07205D02*
X07167D01*
Y03594*
X0717Y03583*
X07176Y03573*
X07183Y03566*
X07193Y0356*
X07204Y03557*
X07205*
Y03595*
G37*
G36*
X07215Y03542D02*
X07204D01*
X07193Y03539*
X07183Y03533*
X07176Y03526*
X0717Y03516*
X07167Y03505*
Y03494*
X0717Y03483*
X07176Y03473*
X07183Y03466*
X07193Y0346*
X07204Y03457*
X07215*
X07226Y0346*
X07236Y03466*
X07243Y03473*
X07249Y03483*
X07252Y03494*
Y03505*
X07249Y03516*
X07243Y03526*
X07236Y03533*
X07226Y03539*
X07215Y03542*
G37*
G36*
X07305Y03442D02*
X07304D01*
X07293Y03439*
X07283Y03433*
X07276Y03426*
X0727Y03416*
X07267Y03405*
Y03405*
X07305*
Y03442*
G37*
G36*
Y03395D02*
X07267D01*
Y03394*
X0727Y03383*
X07276Y03373*
X07283Y03366*
X07293Y0336*
X07304Y03357*
X07305*
Y03395*
G37*
G36*
X07965Y04399D02*
Y04382D01*
X07981*
X07978Y0439*
X07972Y04396*
X07965Y04399*
G37*
G36*
X07955D02*
X07947Y04396D01*
X07941Y0439*
X07938Y04382*
X07955*
Y04399*
G37*
G36*
X0379Y04414D02*
X0379D01*
Y04373*
X0383*
Y04374*
X03827Y04386*
X03821Y04396*
X03812Y04405*
X03802Y04411*
X0379Y04414*
G37*
G36*
X08551Y04499D02*
X08538D01*
X08524Y04496*
X08512Y04491*
X085Y04483*
X08491Y04474*
X08483Y04462*
X08478Y0445*
X08475Y04436*
Y04423*
X08478Y04409*
X08483Y04397*
X08491Y04385*
X085Y04376*
X08512Y04368*
X08524Y04363*
X08538Y0436*
X08551*
X08565Y04363*
X08577Y04368*
X08589Y04376*
X08598Y04385*
X08606Y04397*
X08611Y04409*
X08614Y04423*
Y04436*
X08611Y0445*
X08606Y04462*
X08598Y04474*
X08589Y04483*
X08577Y04491*
X08565Y04496*
X08551Y04499*
G37*
G36*
X01826D02*
X01813D01*
X01799Y04496*
X01787Y04491*
X01775Y04483*
X01766Y04474*
X01758Y04462*
X01753Y0445*
X0175Y04436*
Y04423*
X01753Y04409*
X01758Y04397*
X01766Y04385*
X01775Y04376*
X01787Y04368*
X01799Y04363*
X01813Y0436*
X01826*
X0184Y04363*
X01852Y04368*
X01864Y04376*
X01873Y04385*
X01881Y04397*
X01886Y04409*
X01889Y04423*
Y04436*
X01886Y0445*
X01881Y04462*
X01873Y04474*
X01864Y04483*
X01852Y04491*
X0184Y04496*
X01826Y04499*
G37*
G36*
X07251Y04499D02*
X07238D01*
X07224Y04496*
X07212Y04491*
X072Y04483*
X07191Y04474*
X07183Y04462*
X07178Y0445*
X07175Y04436*
Y04423*
X07178Y04409*
X07183Y04397*
X07191Y04385*
X072Y04376*
X07212Y04368*
X07224Y04363*
X07238Y0436*
X07251*
X07265Y04363*
X07277Y04368*
X07289Y04376*
X07298Y04385*
X07306Y04397*
X07311Y04409*
X07314Y04423*
Y04436*
X07311Y0445*
X07306Y04462*
X07298Y04474*
X07289Y04483*
X07277Y04491*
X07265Y04496*
X07251Y04499*
G37*
G36*
X07981Y04372D02*
X07965D01*
Y04356*
X07972Y04359*
X07978Y04365*
X07981Y04372*
G37*
G36*
X07955D02*
X07938D01*
X07941Y04365*
X07947Y04359*
X07955Y04356*
Y04372*
G37*
G36*
X0439Y04414D02*
X04379D01*
X04367Y04411*
X04357Y04405*
X04348Y04396*
X04342Y04386*
X04339Y04374*
Y04363*
X04342Y04351*
X04348Y04341*
X04357Y04332*
X04367Y04326*
X04379Y04323*
X0439*
X04402Y04326*
X04412Y04332*
X04421Y04341*
X04427Y04351*
X0443Y04363*
Y04374*
X04427Y04386*
X04421Y04396*
X04412Y04405*
X04402Y04411*
X0439Y04414*
G37*
G36*
X0429D02*
X04279D01*
X04267Y04411*
X04257Y04405*
X04248Y04396*
X04242Y04386*
X04239Y04374*
Y04363*
X04242Y04351*
X04248Y04341*
X04257Y04332*
X04267Y04326*
X04279Y04323*
X0429*
X04302Y04326*
X04312Y04332*
X04321Y04341*
X04327Y04351*
X0433Y04363*
Y04374*
X04327Y04386*
X04321Y04396*
X04312Y04405*
X04302Y04411*
X0429Y04414*
G37*
G36*
X0419D02*
X04179D01*
X04167Y04411*
X04157Y04405*
X04148Y04396*
X04142Y04386*
X04139Y04374*
Y04363*
X04142Y04351*
X04148Y04341*
X04157Y04332*
X04167Y04326*
X04179Y04323*
X0419*
X04202Y04326*
X04212Y04332*
X04221Y04341*
X04227Y04351*
X0423Y04363*
Y04374*
X04227Y04386*
X04221Y04396*
X04212Y04405*
X04202Y04411*
X0419Y04414*
G37*
G36*
X0409D02*
X04079D01*
X04067Y04411*
X04057Y04405*
X04048Y04396*
X04042Y04386*
X04039Y04374*
Y04363*
X04042Y04351*
X04048Y04341*
X04057Y04332*
X04067Y04326*
X04079Y04323*
X0409*
X04102Y04326*
X04112Y04332*
X04121Y04341*
X04127Y04351*
X0413Y04363*
Y04374*
X04127Y04386*
X04121Y04396*
X04112Y04405*
X04102Y04411*
X0409Y04414*
G37*
G36*
X0399D02*
X03979D01*
X03967Y04411*
X03957Y04405*
X03948Y04396*
X03942Y04386*
X03939Y04374*
Y04363*
X03942Y04351*
X03948Y04341*
X03957Y04332*
X03967Y04326*
X03979Y04323*
X0399*
X04002Y04326*
X04012Y04332*
X04021Y04341*
X04027Y04351*
X0403Y04363*
Y04374*
X04027Y04386*
X04021Y04396*
X04012Y04405*
X04002Y04411*
X0399Y04414*
G37*
G36*
X0389D02*
X03879D01*
X03867Y04411*
X03857Y04405*
X03848Y04396*
X03842Y04386*
X03839Y04374*
Y04363*
X03842Y04351*
X03848Y04341*
X03857Y04332*
X03867Y04326*
X03879Y04323*
X0389*
X03902Y04326*
X03912Y04332*
X03921Y04341*
X03927Y04351*
X0393Y04363*
Y04374*
X03927Y04386*
X03921Y04396*
X03912Y04405*
X03902Y04411*
X0389Y04414*
G37*
G36*
X0383Y04363D02*
X0379D01*
Y04323*
X0379*
X03802Y04326*
X03812Y04332*
X03821Y04341*
X03827Y04351*
X0383Y04363*
Y04363*
G37*
G36*
X0378Y04414D02*
X03779D01*
X03767Y04411*
X03757Y04405*
X03748Y04396*
X03742Y04386*
X03742Y04384*
X03376*
X03371Y04383*
X03366Y04379*
X03317Y04331*
X03312*
X03304Y04327*
X03298Y04321*
X03295Y04314*
X03317*
Y04309*
X03322*
Y04287*
X03329Y0429*
X03335Y04296*
X03339Y04304*
Y04309*
X03383Y04353*
X03742*
X03742Y04351*
X03748Y04341*
X03757Y04332*
X03767Y04326*
X03779Y04323*
X0378*
Y04368*
Y04414*
G37*
G36*
X03312Y04304D02*
X03295D01*
X03298Y04296*
X03304Y0429*
X03312Y04287*
Y04304*
G37*
G36*
X07945Y04281D02*
Y04264D01*
X07961*
X07958Y04271*
X07952Y04278*
X07945Y04281*
G37*
G36*
X07935D02*
X07927Y04278D01*
X07921Y04271*
X07918Y04264*
X07935*
Y04281*
G37*
G36*
X07545Y04452D02*
X07536D01*
X07528Y04448*
X07522Y04442*
X07518Y04434*
Y04425*
X07522Y04417*
X07525Y04414*
Y04281*
X07517Y04278*
X07511Y04272*
X07507Y04264*
Y04255*
X07511Y04247*
X07517Y04241*
X07525Y04237*
X07534*
X07542Y04241*
X07548Y04247*
X07552Y04255*
Y04264*
X07551Y04264*
X07554Y04268*
X07555Y04274*
Y04414*
X07559Y04417*
X07562Y04425*
Y04434*
X07559Y04442*
X07553Y04448*
X07545Y04452*
G37*
G36*
X07961Y04254D02*
X07945D01*
Y04237*
X07952Y0424*
X07958Y04246*
X07961Y04254*
G37*
G36*
X07935D02*
X07918D01*
X07921Y04246*
X07927Y0424*
X07935Y04237*
Y04254*
G37*
G36*
X07945Y0416D02*
Y04143D01*
X07961*
X07958Y04151*
X07952Y04157*
X07945Y0416*
G37*
G36*
X07935D02*
X07927Y04157D01*
X07921Y04151*
X07918Y04143*
X07935*
Y0416*
G37*
G36*
X07961Y04133D02*
X07945D01*
Y04117*
X07952Y0412*
X07958Y04126*
X07961Y04133*
G37*
G36*
X07935D02*
X07918D01*
X07921Y04126*
X07927Y0412*
X07935Y04117*
Y04133*
G37*
G36*
X02158Y04152D02*
X02146D01*
X02136Y04149*
X02126Y04143*
X02118Y04136*
X02112Y04126*
X0211Y04115*
Y04104*
X02112Y04093*
X02118Y04083*
X02126Y04076*
X02136Y0407*
X02146Y04067*
X02158*
X02168Y0407*
X02178Y04076*
X02186Y04083*
X02192Y04093*
X02194Y04104*
Y04115*
X02192Y04126*
X02186Y04136*
X02178Y04143*
X02168Y04149*
X02158Y04152*
G37*
G36*
X07945Y0404D02*
Y04023D01*
X07961*
X07958Y0403*
X07952Y04036*
X07945Y0404*
G37*
G36*
X07935D02*
X07927Y04036D01*
X07921Y0403*
X07918Y04023*
X07935*
Y0404*
G37*
G36*
X07961Y04013D02*
X07945D01*
Y03996*
X07952Y03999*
X07958Y04005*
X07961Y04013*
G37*
G36*
X07935D02*
X07918D01*
X07921Y04005*
X07927Y03999*
X07935Y03996*
Y04013*
G37*
G36*
X07945Y03919D02*
Y03902D01*
X07961*
X07958Y0391*
X07952Y03916*
X07945Y03919*
G37*
G36*
X07935D02*
X07927Y03916D01*
X07921Y0391*
X07918Y03902*
X07935*
Y03919*
G37*
G36*
X07961Y03892D02*
X07945D01*
Y03876*
X07952Y03879*
X07958Y03885*
X07961Y03892*
G37*
G36*
X07935D02*
X07918D01*
X07921Y03885*
X07927Y03879*
X07935Y03876*
Y03892*
G37*
G36*
X07945Y03798D02*
Y03782D01*
X07961*
X07958Y03789*
X07952Y03795*
X07945Y03798*
G37*
G36*
X07935D02*
X07927Y03795D01*
X07921Y03789*
X07918Y03782*
X07935*
Y03798*
G37*
G36*
X07961Y03772D02*
X07945D01*
Y03755*
X07952Y03758*
X07958Y03764*
X07961Y03772*
G37*
G36*
X07935D02*
X07918D01*
X07921Y03764*
X07927Y03758*
X07935Y03755*
Y03772*
G37*
G36*
X07945Y03678D02*
Y03661D01*
X07961*
X07958Y03669*
X07952Y03675*
X07945Y03678*
G37*
G36*
X07935D02*
X07927Y03675D01*
X07921Y03669*
X07918Y03661*
X07935*
Y03678*
G37*
G36*
X07961Y03651D02*
X07945D01*
Y03634*
X07952Y03637*
X07958Y03644*
X07961Y03651*
G37*
G36*
X07935D02*
X07918D01*
X07921Y03644*
X07927Y03637*
X07935Y03634*
Y03651*
G37*
G36*
X07945Y03557D02*
Y03541D01*
X07961*
X07958Y03548*
X07952Y03554*
X07945Y03557*
G37*
G36*
X07935D02*
X07927Y03554D01*
X07921Y03548*
X07918Y03541*
X07935*
Y03557*
G37*
G36*
X07961Y03531D02*
X07945D01*
Y03514*
X07952Y03517*
X07958Y03523*
X07961Y03531*
G37*
G36*
X07935D02*
X07918D01*
X07921Y03523*
X07927Y03517*
X07935Y03514*
Y03531*
G37*
G36*
X08457Y03517D02*
X08454D01*
Y03433*
X08537*
Y03437*
X08534Y03454*
X08527Y0347*
X08518Y03485*
X08505Y03497*
X08491Y03507*
X08475Y03513*
X08457Y03517*
G37*
G36*
X08444D02*
X0844D01*
X08423Y03513*
X08407Y03507*
X08392Y03497*
X0838Y03485*
X0837Y0347*
X08363Y03454*
X0836Y03437*
Y03433*
X08444*
Y03517*
G37*
G36*
X07945Y03437D02*
Y0342D01*
X07961*
X07958Y03427*
X07952Y03434*
X07945Y03437*
G37*
G36*
X07935D02*
X07927Y03434D01*
X07921Y03427*
X07918Y0342*
X07935*
Y03437*
G37*
G36*
X07961Y0341D02*
X07945D01*
Y03393*
X07952Y03396*
X07958Y03403*
X07961Y0341*
G37*
G36*
X07935D02*
X07918D01*
X07921Y03403*
X07927Y03396*
X07935Y03393*
Y0341*
G37*
G36*
X08537Y03423D02*
X08454D01*
Y03339*
X08457*
X08475Y03343*
X08491Y03349*
X08505Y03359*
X08518Y03371*
X08527Y03386*
X08534Y03402*
X08537Y03419*
Y03423*
G37*
G36*
X08444D02*
X0836D01*
Y03419*
X08363Y03402*
X0837Y03386*
X0838Y03371*
X08392Y03359*
X08407Y03349*
X08423Y03343*
X0844Y03339*
X08444*
Y03423*
G37*
G36*
X07945Y03316D02*
Y03299D01*
X07961*
X07958Y03307*
X07952Y03313*
X07945Y03316*
G37*
G36*
X07935D02*
X07927Y03313D01*
X07921Y03307*
X07918Y03299*
X07935*
Y03316*
G37*
G36*
X08315Y03334D02*
X08314D01*
X08304Y03331*
X08294Y03325*
X08286Y03318*
X08281Y03308*
X08278Y03298*
Y03297*
X08315*
Y03334*
G37*
G36*
X07961Y03289D02*
X07945D01*
Y03273*
X07952Y03276*
X07958Y03282*
X07961Y03289*
G37*
G36*
X07935D02*
X07918D01*
X07921Y03282*
X07927Y03276*
X07935Y03273*
Y03289*
G37*
G36*
X08227Y03334D02*
X08216D01*
X08205Y03331*
X08196Y03325*
X08188Y03318*
X08182Y03308*
X0818Y03298*
Y03287*
X08182Y03276*
X08188Y03267*
X08196Y03259*
X08205Y03253*
X08216Y03251*
X08227*
X08237Y03253*
X08247Y03259*
X08254Y03267*
X0826Y03276*
X08263Y03287*
Y03298*
X0826Y03308*
X08254Y03318*
X08247Y03325*
X08237Y03331*
X08227Y03334*
G37*
G36*
X08497Y03247D02*
X08493D01*
Y03163*
X08577*
Y03167*
X08573Y03184*
X08567Y032*
X08557Y03215*
X08545Y03227*
X0853Y03237*
X08514Y03244*
X08497Y03247*
G37*
G36*
X08483D02*
X08479D01*
X08462Y03244*
X08446Y03237*
X08431Y03227*
X08419Y03215*
X08409Y032*
X08403Y03184*
X08399Y03167*
Y03158*
X08395Y03156*
X08391Y03159*
X08386Y03163*
X08381Y03164*
X08346*
X0834Y03163*
X08335Y03159*
X08332Y03154*
X08332Y03152*
X08326Y03148*
X08325Y03149*
X08314*
X08303Y03146*
X08294Y0314*
X08286Y03133*
X08281Y03123*
X08278Y03113*
Y03102*
X08281Y03091*
X08286Y03082*
X08294Y03074*
X08303Y03068*
X08304Y03068*
Y03063*
X08304Y03063*
X08294Y03058*
X08286Y0305*
X08281Y0304*
X08278Y0303*
Y03019*
X08281Y03008*
X08286Y02999*
X08294Y02991*
X08304Y02986*
X08314Y02983*
X08325*
X08336Y02986*
X08345Y02991*
X08353Y02999*
X08358Y03008*
X08361Y03019*
Y0303*
X08358Y0304*
X08353Y0305*
X08345Y03058*
X08336Y03063*
X08335Y03063*
Y03068*
X08336Y03068*
X08345Y03074*
X08353Y03082*
X08358Y03091*
X08361Y03102*
Y03113*
X08358Y03123*
X08355Y03128*
X08358Y03133*
X08374*
X08499Y03008*
Y02967*
X08495Y02965*
X08491Y02967*
X08475Y02974*
X08457Y02977*
X08454*
Y02894*
X08537*
Y02897*
X08534Y02914*
X08529Y02926*
X0853Y02929*
Y03015*
X08529Y0302*
X08525Y03025*
X08486Y03065*
X08488Y0307*
X08497*
X08514Y03073*
X0853Y0308*
X08545Y03089*
X08557Y03102*
X08567Y03116*
X08573Y03132*
X08577Y0315*
Y03153*
X08488*
Y03158*
X08483*
Y03247*
G37*
G36*
X07945Y03075D02*
Y03058D01*
X07961*
X07958Y03066*
X07952Y03072*
X07945Y03075*
G37*
G36*
X07935D02*
X07927Y03072D01*
X07921Y03066*
X07918Y03058*
X07935*
Y03075*
G37*
G36*
X07961Y03048D02*
X07945D01*
Y03032*
X07952Y03035*
X07958Y03041*
X07961Y03048*
G37*
G36*
X07935D02*
X07918D01*
X07921Y03041*
X07927Y03035*
X07935Y03032*
Y03048*
G37*
G36*
X08227Y03066D02*
X08216D01*
X08205Y03063*
X08196Y03058*
X08188Y0305*
X08182Y0304*
X0818Y0303*
Y03019*
X08182Y03008*
X08188Y02999*
X08196Y02991*
X08205Y02986*
X08216Y02983*
X08227*
X08237Y02986*
X08247Y02991*
X08254Y02999*
X0826Y03008*
X08263Y03019*
Y0303*
X0826Y0304*
X08254Y0305*
X08247Y03058*
X08237Y03063*
X08227Y03066*
G37*
G36*
X07945Y02955D02*
Y02938D01*
X07961*
X07958Y02945*
X07952Y02951*
X07945Y02955*
G37*
G36*
X07935D02*
X07927Y02951D01*
X07921Y02945*
X07918Y02938*
X07935*
Y02955*
G37*
G36*
X07961Y02928D02*
X07945D01*
Y02911*
X07952Y02914*
X07958Y0292*
X07961Y02928*
G37*
G36*
X07935D02*
X07918D01*
X07921Y0292*
X07927Y02914*
X07935Y02911*
Y02928*
G37*
G36*
X08444Y02977D02*
X0844D01*
X08423Y02974*
X08407Y02967*
X08392Y02958*
X0838Y02945*
X0837Y02931*
X08363Y02914*
X0836Y02897*
Y02894*
X08444*
Y02977*
G37*
G36*
X08537Y02884D02*
X08454D01*
Y028*
X08457*
X08475Y02803*
X08491Y0281*
X08505Y0282*
X08518Y02832*
X08527Y02847*
X08534Y02863*
X08537Y0288*
Y02884*
G37*
G36*
X08444D02*
X0836D01*
Y0288*
X08363Y02863*
X0837Y02847*
X0838Y02832*
X08392Y0282*
X08407Y0281*
X08423Y02803*
X0844Y028*
X08444*
Y02884*
G37*
G36*
X02785Y02735D02*
X02768D01*
X02771Y02727*
X02777Y02721*
X02785Y02718*
Y02735*
G37*
G36*
X07965Y02711D02*
Y02695D01*
X07981*
X07978Y02702*
X07972Y02708*
X07965Y02711*
G37*
G36*
X07955D02*
X07947Y02708D01*
X07941Y02702*
X07938Y02695*
X07955*
Y02711*
G37*
G36*
X07981Y02685D02*
X07965D01*
Y02668*
X07972Y02671*
X07978Y02677*
X07981Y02685*
G37*
G36*
X07955D02*
X07938D01*
X07941Y02677*
X07947Y02671*
X07955Y02668*
Y02685*
G37*
G36*
X0795Y02591D02*
Y02575D01*
X07966*
X07963Y02582*
X07957Y02588*
X0795Y02591*
G37*
G36*
X0794D02*
X07932Y02588D01*
X07926Y02582*
X07923Y02575*
X0794*
Y02591*
G37*
G36*
X08214Y02697D02*
X08205D01*
X08197Y02693*
X08191Y02687*
X08187Y02679*
Y0267*
X08191Y02662*
X08194Y02659*
Y02625*
X08195Y02619*
X08199Y02614*
X08222Y0259*
Y02585*
X08226Y02577*
X08232Y02571*
X0824Y02567*
X08249*
X08257Y02571*
X08263Y02577*
X08267Y02585*
Y02594*
X08263Y02602*
X08257Y02608*
X08249Y02612*
X08244*
X08225Y02631*
Y02659*
X08228Y02662*
X08232Y0267*
Y02679*
X08228Y02687*
X08222Y02693*
X08214Y02697*
G37*
G36*
X07966Y02565D02*
X0795D01*
Y02548*
X07957Y02551*
X07963Y02557*
X07966Y02565*
G37*
G36*
X0794D02*
X07923D01*
X07926Y02557*
X07932Y02551*
X0794Y02548*
Y02565*
G37*
G36*
X0288Y02549D02*
X02869D01*
X02859Y02546*
X0285Y02541*
X02843Y02534*
X02838Y02525*
X02835Y02515*
Y02504*
X02838Y02494*
X02843Y02485*
X0285Y02478*
X02859Y02473*
X02869Y0247*
X0288*
X0289Y02473*
X02899Y02478*
X02906Y02485*
X02911Y02494*
X02914Y02504*
Y02515*
X02911Y02525*
X02906Y02534*
X02899Y02541*
X0289Y02546*
X0288Y02549*
G37*
G36*
X0278D02*
X02769D01*
X02759Y02546*
X0275Y02541*
X02743Y02534*
X02738Y02525*
X02735Y02515*
Y02504*
X02738Y02494*
X02743Y02485*
X0275Y02478*
X02759Y02473*
X02769Y0247*
X0278*
X0279Y02473*
X02799Y02478*
X02806Y02485*
X02811Y02494*
X02814Y02504*
Y02515*
X02811Y02525*
X02806Y02534*
X02799Y02541*
X0279Y02546*
X0278Y02549*
G37*
G36*
X08596Y02494D02*
X08548D01*
X08541Y02493*
X08533Y0249*
X08527Y02485*
X08522Y02479*
X08519Y02472*
X08518Y02464*
X08519Y02456*
X08522Y02449*
X08527Y02443*
X08533Y02438*
X08541Y02435*
X08548Y02434*
X08596*
X08603Y02435*
X08611Y02438*
X08617Y02443*
X08622Y02449*
X08625Y02456*
X08626Y02464*
X08625Y02472*
X08622Y02479*
X08617Y02485*
X08611Y0249*
X08603Y02493*
X08596Y02494*
G37*
G36*
X0843D02*
X08399D01*
X08391Y02493*
X08384Y0249*
X08378Y02485*
X08373Y02479*
X0837Y02472*
X08369Y02464*
X0837Y02456*
X08373Y02449*
X08378Y02443*
X08384Y02438*
X08391Y02435*
X08399Y02434*
X0843*
X08438Y02435*
X08445Y02438*
X08451Y02443*
X08456Y02449*
X08459Y02456*
X0846Y02464*
X08459Y02472*
X08456Y02479*
X08451Y02485*
X08445Y0249*
X08438Y02493*
X0843Y02494*
G37*
G36*
X02985Y0241D02*
X02976D01*
X02968Y02407*
X02962Y02401*
X02959Y02393*
Y02384*
X02962Y02376*
X02964Y02374*
Y02345*
X02959Y0234*
X02956Y02332*
Y02323*
X02959Y02315*
X02965Y02309*
X02973Y02306*
X02982*
X0299Y02309*
X02996Y02315*
X03Y02323*
Y02332*
X02996Y0234*
X02995Y02342*
Y02371*
X03Y02376*
X03003Y02384*
Y02393*
X03Y02401*
X02993Y02407*
X02985Y0241*
G37*
G36*
X03995Y02254D02*
X03995D01*
Y0222*
X04029*
Y0222*
X04026Y0223*
X04021Y02239*
X04014Y02246*
X04005Y02251*
X03995Y02254*
G37*
G36*
X03985D02*
X03984D01*
X03974Y02251*
X03965Y02246*
X03958Y02239*
X03953Y0223*
X0395Y0222*
Y0222*
X03985*
Y02254*
G37*
G36*
X0328Y02249D02*
X0328D01*
Y02215*
X03314*
Y02215*
X03311Y02225*
X03306Y02234*
X03299Y02241*
X0329Y02246*
X0328Y02249*
G37*
G36*
X0327D02*
X03269D01*
X03259Y02246*
X0325Y02241*
X03243Y02234*
X03238Y02225*
X03235Y02215*
Y02215*
X0327*
Y02249*
G37*
G36*
X04495Y02254D02*
X04484D01*
X04474Y02251*
X04465Y02246*
X04458Y02239*
X04453Y0223*
X0445Y0222*
Y02209*
X04453Y02199*
X04458Y0219*
X04465Y02183*
X04474Y02178*
X04484Y02175*
X04495*
X04505Y02178*
X04514Y02183*
X04521Y0219*
X04526Y02199*
X04529Y02209*
Y0222*
X04526Y0223*
X04521Y02239*
X04514Y02246*
X04505Y02251*
X04495Y02254*
G37*
G36*
X04395D02*
X04384D01*
X04374Y02251*
X04365Y02246*
X04358Y02239*
X04353Y0223*
X0435Y0222*
Y02209*
X04353Y02199*
X04358Y0219*
X04365Y02183*
X04374Y02178*
X04384Y02175*
X04395*
X04405Y02178*
X04414Y02183*
X04421Y0219*
X04426Y02199*
X04429Y02209*
Y0222*
X04426Y0223*
X04421Y02239*
X04414Y02246*
X04405Y02251*
X04395Y02254*
G37*
G36*
X04295D02*
X04284D01*
X04274Y02251*
X04265Y02246*
X04258Y02239*
X04253Y0223*
X0425Y0222*
Y02209*
X04253Y02199*
X04258Y0219*
X04265Y02183*
X04274Y02178*
X04284Y02175*
X04295*
X04305Y02178*
X04314Y02183*
X04321Y0219*
X04326Y02199*
X04329Y02209*
Y0222*
X04326Y0223*
X04321Y02239*
X04314Y02246*
X04305Y02251*
X04295Y02254*
G37*
G36*
X04195D02*
X04184D01*
X04174Y02251*
X04165Y02246*
X04158Y02239*
X04153Y0223*
X0415Y0222*
Y02209*
X04153Y02199*
X04158Y0219*
X04165Y02183*
X04174Y02178*
X04184Y02175*
X04195*
X04205Y02178*
X04214Y02183*
X04221Y0219*
X04226Y02199*
X04229Y02209*
Y0222*
X04226Y0223*
X04221Y02239*
X04214Y02246*
X04205Y02251*
X04195Y02254*
G37*
G36*
X04095D02*
X04084D01*
X04074Y02251*
X04065Y02246*
X04058Y02239*
X04053Y0223*
X0405Y0222*
Y02209*
X04053Y02199*
X04058Y0219*
X04065Y02183*
X04074Y02178*
X04084Y02175*
X04095*
X04105Y02178*
X04114Y02183*
X04121Y0219*
X04126Y02199*
X04129Y02209*
Y0222*
X04126Y0223*
X04121Y02239*
X04114Y02246*
X04105Y02251*
X04095Y02254*
G37*
G36*
X04029Y0221D02*
X03995D01*
Y02175*
X03995*
X04005Y02178*
X04014Y02183*
X04021Y0219*
X04026Y02199*
X04029Y02209*
Y0221*
G37*
G36*
X03985D02*
X0395D01*
Y02209*
X03953Y02199*
X03958Y0219*
X03965Y02183*
X03974Y02178*
X03984Y02175*
X03985*
Y0221*
G37*
G36*
X03314Y02205D02*
X0328D01*
Y0217*
X0328*
X0329Y02173*
X03299Y02178*
X03306Y02185*
X03311Y02194*
X03314Y02204*
Y02205*
G37*
G36*
X0327D02*
X03235D01*
Y02204*
X03238Y02194*
X03243Y02185*
X0325Y02178*
X03259Y02173*
X03269Y0217*
X0327*
Y02205*
G37*
G36*
X0318Y02249D02*
X03169D01*
X03159Y02246*
X0315Y02241*
X03143Y02234*
X03138Y02225*
X03135Y02215*
Y02204*
X03138Y02194*
X03143Y02185*
X0315Y02178*
X03159Y02173*
X03169Y0217*
X0318*
X0319Y02173*
X03199Y02178*
X03206Y02185*
X03211Y02194*
X03214Y02204*
Y02215*
X03211Y02225*
X03206Y02234*
X03199Y02241*
X0319Y02246*
X0318Y02249*
G37*
G36*
X0308D02*
X03069D01*
X03059Y02246*
X0305Y02241*
X03043Y02234*
X03038Y02225*
X03035Y02215*
Y02204*
X03038Y02194*
X03043Y02185*
X0305Y02178*
X03059Y02173*
X03069Y0217*
X0308*
X0309Y02173*
X03099Y02178*
X03106Y02185*
X03111Y02194*
X03114Y02204*
Y02215*
X03111Y02225*
X03106Y02234*
X03099Y02241*
X0309Y02246*
X0308Y02249*
G37*
G36*
X0298D02*
X02969D01*
X02959Y02246*
X0295Y02241*
X02943Y02234*
X02938Y02225*
X02935Y02215*
Y02204*
X02938Y02194*
X02943Y02185*
X0295Y02178*
X02959Y02173*
X02969Y0217*
X0298*
X0299Y02173*
X02999Y02178*
X03006Y02185*
X03011Y02194*
X03014Y02204*
Y02215*
X03011Y02225*
X03006Y02234*
X02999Y02241*
X0299Y02246*
X0298Y02249*
G37*
G36*
X0278D02*
X02769D01*
X02759Y02246*
X0275Y02241*
X02743Y02234*
X02738Y02225*
X02735Y02215*
Y02204*
X02738Y02194*
X02743Y02185*
X0275Y02178*
X02759Y02173*
X02769Y0217*
X0278*
X0279Y02173*
X02799Y02178*
X02806Y02185*
X02811Y02194*
X02814Y02204*
Y02215*
X02811Y02225*
X02806Y02234*
X02799Y02241*
X0279Y02246*
X0278Y02249*
G37*
G36*
X02714D02*
X02635D01*
Y0217*
X02714*
Y02249*
G37*
G36*
X082Y02165D02*
X08183D01*
Y02148*
X08191Y02151*
X08197Y02157*
X082Y02165*
G37*
G36*
X08173D02*
X08156D01*
X08159Y02157*
X08166Y02151*
X08173Y02148*
Y02165*
G37*
G36*
X07766D02*
X0775D01*
Y02148*
X07757Y02151*
X07763Y02157*
X07766Y02165*
G37*
G36*
X0774D02*
X07723D01*
X07726Y02157*
X07732Y02151*
X0774Y02148*
Y02165*
G37*
G36*
X05079Y02142D02*
X0507D01*
X05062Y02138*
X05059Y02135*
X0421*
X04207Y02138*
X04199Y02142*
X0419*
X04182Y02138*
X04176Y02132*
X04172Y02124*
Y02115*
X04176Y02107*
X04182Y02101*
X0419Y02097*
X04199*
X04207Y02101*
X0421Y02104*
X05008*
X0501Y021*
X0501Y02098*
Y02089*
X05013Y02081*
X05019Y02075*
X05027Y02072*
X05032*
X05079Y02025*
Y0202*
X05082Y02012*
X05089Y02006*
X05097Y02002*
X05105*
X05113Y02006*
X0512Y02012*
X05123Y0202*
Y02029*
X0512Y02037*
X05113Y02043*
X05105Y02047*
X05101*
X05054Y02093*
Y02098*
X05057Y02103*
X0506Y02103*
X05062Y02101*
X0507Y02097*
X05079*
X05087Y02101*
X05093Y02107*
X05097Y02115*
Y02124*
X05093Y02132*
X05087Y02138*
X05079Y02142*
G37*
G36*
X0843Y02154D02*
X08399D01*
X08391Y02153*
X08384Y0215*
X08378Y02145*
X08373Y02139*
X0837Y02132*
X08369Y02124*
X0837Y02116*
X08373Y02109*
X08378Y02103*
X08384Y02098*
X08391Y02095*
X08399Y02094*
X0843*
X08438Y02095*
X08445Y02098*
X08451Y02103*
X08456Y02109*
X08459Y02116*
X0846Y02124*
X08459Y02132*
X08456Y02139*
X08451Y02145*
X08445Y0215*
X08438Y02153*
X0843Y02154*
G37*
G36*
X08596D02*
X08548D01*
X08541Y02153*
X08533Y0215*
X08527Y02145*
X08522Y02139*
X08519Y02132*
X08518Y02124*
X08519Y02116*
X08522Y02109*
X08527Y02103*
X08533Y02098*
X08541Y02095*
X08548Y02094*
X08596*
X08603Y02095*
X08611Y02098*
X08617Y02103*
X08622Y02109*
X08625Y02116*
X08626Y02124*
X08625Y02132*
X08622Y02139*
X08617Y02145*
X08611Y0215*
X08603Y02153*
X08596Y02154*
G37*
G36*
X04937Y02087D02*
X04928D01*
X0492Y02083*
X04917Y0208*
X04355*
X04352Y02083*
X04344Y02087*
X04335*
X04327Y02083*
X04321Y02077*
X04317Y02069*
Y0206*
X04321Y02052*
X04327Y02046*
X04335Y02042*
X04344*
X04352Y02046*
X04355Y02049*
X04917*
X0492Y02046*
X04928Y02042*
X04937*
X04945Y02046*
X04951Y02052*
X04955Y0206*
Y02069*
X04951Y02077*
X04945Y02083*
X04937Y02087*
G37*
G36*
X0259Y02784D02*
X02581D01*
X02573Y0278*
X02567Y02774*
X02563Y02766*
Y02757*
X02567Y02749*
X0257Y02746*
Y02599*
X02571Y02593*
X02575Y02588*
X02638Y02525*
X02635Y02515*
Y02504*
X02638Y02494*
X02643Y02485*
X0265Y02478*
X02656Y02475*
X02657Y02468*
X022Y02011*
X0219Y02014*
X02179*
X02169Y02011*
X0216Y02006*
X02153Y01999*
X02148Y0199*
X02145Y0198*
Y01969*
X02148Y01959*
X02153Y0195*
X0216Y01943*
X02169Y01938*
X02179Y01935*
X0219*
X022Y01938*
X02209Y01943*
X02216Y0195*
X02221Y01959*
X02224Y01969*
Y0198*
X02221Y0199*
X02685Y02454*
X02689Y02459*
X0269Y02465*
Y02473*
X02699Y02478*
X02706Y02485*
X02711Y02494*
X02714Y02504*
Y02515*
X02711Y02525*
X02706Y02534*
X02699Y02541*
X0269Y02546*
X0268Y02549*
X02669*
X02659Y02546*
X02601Y02605*
Y02746*
X02604Y02749*
X02608Y02757*
Y02766*
X02604Y02774*
X02598Y0278*
X0259Y02784*
G37*
G36*
X02869Y02019D02*
X02835D01*
Y01985*
X02869*
Y02019*
G37*
G36*
X02825D02*
X0279D01*
Y01985*
X02825*
Y02019*
G37*
G36*
X02869Y01975D02*
X02835D01*
Y0194*
X02869*
Y01975*
G37*
G36*
X02825D02*
X0279D01*
Y0194*
X02825*
Y01975*
G37*
G36*
X07264Y02092D02*
X07255D01*
X07247Y02088*
X07241Y02082*
X07237Y02074*
Y02065*
X07241Y02057*
X07247Y02051*
X07255Y02047*
X0726*
X07387Y0192*
Y01915*
X07391Y01907*
X07397Y01901*
X07405Y01897*
X07414*
X07422Y01901*
X07428Y01907*
X07432Y01915*
Y01924*
X07428Y01932*
X07422Y01938*
X07414Y01942*
X07409*
X07282Y02069*
Y02074*
X07278Y02082*
X07272Y02088*
X07264Y02092*
G37*
G36*
X03563Y01948D02*
X03496D01*
Y01881*
X03563*
Y01948*
G37*
G36*
X05237Y01954D02*
X05226D01*
X05216Y01951*
X05207Y01946*
X052Y01939*
X05195Y0193*
X05192Y0192*
Y01909*
X05195Y01899*
X052Y0189*
X05207Y01883*
X05216Y01878*
X05226Y01875*
X05237*
X05247Y01878*
X05256Y01883*
X05263Y0189*
X05268Y01899*
X05271Y01909*
Y0192*
X05268Y0193*
X05263Y01939*
X05256Y01946*
X05247Y01951*
X05237Y01954*
G37*
G36*
X05137D02*
X05126D01*
X05116Y01951*
X05107Y01946*
X051Y01939*
X05095Y0193*
X05092Y0192*
Y01909*
X05095Y01899*
X051Y0189*
X05107Y01883*
X05116Y01878*
X05126Y01875*
X05137*
X05147Y01878*
X05156Y01883*
X05163Y0189*
X05168Y01899*
X05171Y01909*
Y0192*
X05168Y0193*
X05163Y01939*
X05156Y01946*
X05147Y01951*
X05137Y01954*
G37*
G36*
X05037D02*
X05026D01*
X05016Y01951*
X05007Y01946*
X05Y01939*
X04995Y0193*
X04992Y0192*
Y01909*
X04995Y01899*
X05Y0189*
X05007Y01883*
X05016Y01878*
X05026Y01875*
X05037*
X05047Y01878*
X05056Y01883*
X05063Y0189*
X05068Y01899*
X05071Y01909*
Y0192*
X05068Y0193*
X05063Y01939*
X05056Y01946*
X05047Y01951*
X05037Y01954*
G37*
G36*
X04937D02*
X04926D01*
X04916Y01951*
X04907Y01946*
X049Y01939*
X04895Y0193*
X04892Y0192*
Y01909*
X04895Y01899*
X049Y0189*
X04907Y01883*
X04916Y01878*
X04926Y01875*
X04937*
X04947Y01878*
X04956Y01883*
X04963Y0189*
X04968Y01899*
X04971Y01909*
Y0192*
X04968Y0193*
X04963Y01939*
X04956Y01946*
X04947Y01951*
X04937Y01954*
G37*
G36*
X04871D02*
X04792D01*
Y01875*
X04871*
Y01954*
G37*
G36*
X04195D02*
X04184D01*
X04174Y01951*
X04165Y01946*
X04158Y01939*
X04153Y0193*
X0415Y0192*
Y01909*
X04153Y01899*
X04158Y0189*
X04165Y01883*
X04174Y01878*
X04184Y01875*
X04195*
X04205Y01878*
X04214Y01883*
X04221Y0189*
X04226Y01899*
X04229Y01909*
Y0192*
X04226Y0193*
X04221Y01939*
X04214Y01946*
X04205Y01951*
X04195Y01954*
G37*
G36*
X04095D02*
X04084D01*
X04074Y01951*
X04065Y01946*
X04058Y01939*
X04053Y0193*
X0405Y0192*
Y01909*
X04053Y01899*
X04058Y0189*
X04065Y01883*
X04074Y01878*
X04084Y01875*
X04095*
X04105Y01878*
X04114Y01883*
X04121Y0189*
X04126Y01899*
X04129Y01909*
Y0192*
X04126Y0193*
X04121Y01939*
X04114Y01946*
X04105Y01951*
X04095Y01954*
G37*
G36*
X03995D02*
X03984D01*
X03974Y01951*
X03965Y01946*
X03958Y01939*
X03953Y0193*
X0395Y0192*
Y01909*
X03953Y01899*
X03958Y0189*
X03965Y01883*
X03974Y01878*
X03984Y01875*
X03995*
X04005Y01878*
X04014Y01883*
X04021Y0189*
X04026Y01899*
X04029Y01909*
Y0192*
X04026Y0193*
X04021Y01939*
X04014Y01946*
X04005Y01951*
X03995Y01954*
G37*
G36*
X03135Y01919D02*
X03124D01*
X03114Y01916*
X03105Y01911*
X03098Y01904*
X03093Y01895*
X0309Y01885*
Y01874*
X03093Y01864*
X03098Y01855*
X03105Y01848*
X03114Y01843*
X03124Y0184*
X03135*
X03145Y01843*
X03154Y01848*
X03161Y01855*
X03166Y01864*
X03169Y01874*
Y01885*
X03166Y01895*
X03161Y01904*
X03154Y01911*
X03145Y01916*
X03135Y01919*
G37*
G36*
X07169Y02117D02*
X0716D01*
X07152Y02113*
X07146Y02107*
X07142Y02099*
Y0209*
X07146Y02082*
X07152Y02076*
X0716Y02072*
X07165*
X07407Y0183*
Y01825*
X07411Y01817*
X07417Y01811*
X07425Y01807*
X07434*
X07442Y01811*
X07448Y01817*
X07452Y01825*
Y01834*
X07448Y01842*
X07442Y01848*
X07434Y01852*
X07429*
X07187Y02094*
Y02099*
X07183Y02107*
X07177Y02113*
X07169Y02117*
G37*
G36*
X06479Y01927D02*
X0647D01*
X06462Y01923*
X06456Y01917*
X06452Y01909*
Y019*
X06456Y01892*
X06462Y01886*
X0647Y01882*
X06479*
X06487Y01886*
X06488Y01887*
X06502*
X06572Y01816*
Y01815*
X06576Y01807*
X06582Y01801*
X0659Y01797*
X06599*
X06607Y01801*
X06613Y01807*
X06617Y01815*
Y01824*
X06613Y01832*
X06607Y01838*
X06599Y01842*
X06598*
X06522Y01917*
X06516Y01921*
X0651Y01922*
X06488*
X06487Y01923*
X06479Y01927*
G37*
G36*
X03534Y01848D02*
X03525D01*
X03517Y01846*
X03509Y01841*
X03503Y01835*
X03498Y01827*
X03496Y01819*
Y0181*
X03498Y01802*
X03503Y01794*
X03509Y01788*
X03517Y01783*
X03525Y01781*
X03534*
X03542Y01783*
X0355Y01788*
X03556Y01794*
X03561Y01802*
X03563Y0181*
Y01819*
X03561Y01827*
X03556Y01835*
X0355Y01841*
X03542Y01846*
X03534Y01848*
G37*
G36*
X07152Y01782D02*
X07143D01*
X07135Y01778*
X07134Y01777*
X07058*
X07057Y01778*
X07049Y01782*
X0704*
X07032Y01778*
X07026Y01772*
X07022Y01764*
Y01755*
X07026Y01747*
X07032Y01741*
X0704Y01737*
X07049*
X07057Y01741*
X07058Y01742*
X07134*
X07135Y01741*
X07143Y01737*
X07152*
X0716Y01741*
X07166Y01747*
X07169Y01755*
Y01764*
X07166Y01772*
X0716Y01778*
X07152Y01782*
G37*
G36*
X02449Y01786D02*
Y0177D01*
X02465*
X02462Y01777*
X02456Y01783*
X02449Y01786*
G37*
G36*
X02439D02*
X02431Y01783D01*
X02425Y01777*
X02422Y0177*
X02439*
Y01786*
G37*
G36*
X05646Y0176D02*
X0563D01*
Y01743*
X05637Y01746*
X05643Y01752*
X05646Y0176*
G37*
G36*
X0562D02*
X05603D01*
X05606Y01752*
X05612Y01746*
X0562Y01743*
Y0176*
G37*
G36*
X02465D02*
X02449D01*
Y01743*
X02456Y01746*
X02462Y01752*
X02465Y0176*
G37*
G36*
X02439D02*
X02422D01*
X02425Y01752*
X02431Y01746*
X02439Y01743*
Y0176*
G37*
G36*
X07342Y02132D02*
X07334D01*
X07326Y02128*
X07319Y02122*
X07316Y02114*
Y02105*
X07319Y02097*
X07326Y02091*
X07334Y02087*
X07338*
X07693Y01732*
Y01728*
X07697Y0172*
X07703Y01713*
X07711Y0171*
X0772*
X07728Y01713*
X07734Y0172*
X07737Y01728*
Y01736*
X07734Y01745*
X07728Y01751*
X0772Y01754*
X07715*
X0736Y02109*
Y02114*
X07357Y02122*
X0735Y02128*
X07342Y02132*
G37*
G36*
X08285Y01716D02*
Y017D01*
X08301*
X08298Y01707*
X08292Y01713*
X08285Y01716*
G37*
G36*
X08275D02*
X08267Y01713D01*
X08261Y01707*
X08258Y017*
X08275*
Y01716*
G37*
G36*
X0777D02*
Y017D01*
X07786*
X07783Y01707*
X07777Y01713*
X0777Y01716*
G37*
G36*
X0776D02*
X07752Y01713D01*
X07746Y01707*
X07743Y017*
X0776*
Y01716*
G37*
G36*
X0724D02*
Y017D01*
X07256*
X07253Y01707*
X07247Y01713*
X0724Y01716*
G37*
G36*
X0723D02*
X07222Y01713D01*
X07216Y01707*
X07213Y017*
X0723*
Y01716*
G37*
G36*
X06894Y02027D02*
X06885D01*
X06877Y02023*
X06871Y02017*
X06867Y02009*
Y02004*
X0659Y01727*
X06585*
X06577Y01723*
X06571Y01717*
X06567Y01709*
Y017*
X06571Y01692*
X06577Y01686*
X06585Y01682*
X06594*
X06602Y01686*
X06608Y01692*
X06612Y017*
Y01705*
X06889Y01982*
X06894*
X06902Y01986*
X06908Y01992*
X06912Y02*
Y02009*
X06908Y02017*
X06902Y02023*
X06894Y02027*
G37*
G36*
X03534Y01748D02*
X03525D01*
X03517Y01746*
X03509Y01741*
X03503Y01735*
X03498Y01727*
X03496Y01719*
Y0171*
X03498Y01702*
X03503Y01694*
X03509Y01688*
X03517Y01683*
X03525Y01681*
X03534*
X03542Y01683*
X0355Y01688*
X03556Y01694*
X03561Y01702*
X03563Y0171*
Y01719*
X03561Y01727*
X03556Y01735*
X0355Y01741*
X03542Y01746*
X03534Y01748*
G37*
G36*
X08301Y0169D02*
X08285D01*
Y01673*
X08292Y01676*
X08298Y01682*
X08301Y0169*
G37*
G36*
X08275D02*
X08258D01*
X08261Y01682*
X08267Y01676*
X08275Y01673*
Y0169*
G37*
G36*
X07786D02*
X0777D01*
Y01673*
X07777Y01676*
X07783Y01682*
X07786Y0169*
G37*
G36*
X0776D02*
X07743D01*
X07746Y01682*
X07752Y01676*
X0776Y01673*
Y0169*
G37*
G36*
X07256D02*
X0724D01*
Y01673*
X07247Y01676*
X07253Y01682*
X07256Y0169*
G37*
G36*
X0723D02*
X07213D01*
X07216Y01682*
X07222Y01676*
X0723Y01673*
Y0169*
G37*
G36*
X0635Y01619D02*
X06339D01*
X06329Y01616*
X0632Y01611*
X06313Y01604*
X06308Y01595*
X06305Y01585*
Y01574*
X06308Y01564*
X06313Y01555*
X0632Y01548*
X06329Y01543*
X06339Y0154*
X0635*
X0636Y01543*
X06369Y01548*
X06376Y01555*
X06381Y01564*
X06384Y01574*
Y01585*
X06381Y01595*
X06376Y01604*
X06369Y01611*
X0636Y01616*
X0635Y01619*
G37*
G36*
X0625D02*
X06239D01*
X06229Y01616*
X0622Y01611*
X06213Y01604*
X06208Y01595*
X06205Y01585*
Y01574*
X06208Y01564*
X06213Y01555*
X0622Y01548*
X06229Y01543*
X06239Y0154*
X0625*
X0626Y01543*
X06269Y01548*
X06276Y01555*
X06281Y01564*
X06284Y01574*
Y01585*
X06281Y01595*
X06276Y01604*
X06269Y01611*
X0626Y01616*
X0625Y01619*
G37*
G36*
X0615D02*
X06139D01*
X06129Y01616*
X0612Y01611*
X06113Y01604*
X06108Y01595*
X06105Y01585*
Y01574*
X06108Y01564*
X06113Y01555*
X0612Y01548*
X06129Y01543*
X06139Y0154*
X0615*
X0616Y01543*
X06169Y01548*
X06176Y01555*
X06181Y01564*
X06184Y01574*
Y01585*
X06181Y01595*
X06176Y01604*
X06169Y01611*
X0616Y01616*
X0615Y01619*
G37*
G36*
X0605D02*
X06039D01*
X06029Y01616*
X0602Y01611*
X06013Y01604*
X06008Y01595*
X06005Y01585*
Y01574*
X06008Y01564*
X06013Y01555*
X0602Y01548*
X06029Y01543*
X06039Y0154*
X0605*
X0606Y01543*
X06069Y01548*
X06076Y01555*
X06081Y01564*
X06084Y01574*
Y01585*
X06081Y01595*
X06076Y01604*
X06069Y01611*
X0606Y01616*
X0605Y01619*
G37*
G36*
X0595D02*
X05939D01*
X05929Y01616*
X0592Y01611*
X05913Y01604*
X05908Y01595*
X05905Y01585*
Y01574*
X05908Y01564*
X05913Y01555*
X0592Y01548*
X05929Y01543*
X05939Y0154*
X0595*
X0596Y01543*
X05969Y01548*
X05976Y01555*
X05981Y01564*
X05984Y01574*
Y01585*
X05981Y01595*
X05976Y01604*
X05969Y01611*
X0596Y01616*
X0595Y01619*
G37*
G36*
X0585D02*
X05839D01*
X05829Y01616*
X0582Y01611*
X05813Y01604*
X05808Y01595*
X05805Y01585*
Y01574*
X05808Y01564*
X05813Y01555*
X0582Y01548*
X05829Y01543*
X05839Y0154*
X0585*
X0586Y01543*
X05869Y01548*
X05876Y01555*
X05881Y01564*
X05884Y01574*
Y01585*
X05881Y01595*
X05876Y01604*
X05869Y01611*
X0586Y01616*
X0585Y01619*
G37*
G36*
X05475D02*
X05464D01*
X05454Y01616*
X05445Y01611*
X05438Y01604*
X05433Y01595*
X0543Y01585*
Y01574*
X05433Y01564*
X05438Y01555*
X05445Y01548*
X05454Y01543*
X05464Y0154*
X05475*
X05485Y01543*
X05494Y01548*
X05501Y01555*
X05506Y01564*
X05509Y01574*
Y01585*
X05506Y01595*
X05501Y01604*
X05494Y01611*
X05485Y01616*
X05475Y01619*
G37*
G36*
X05375D02*
X05364D01*
X05354Y01616*
X05345Y01611*
X05338Y01604*
X05333Y01595*
X0533Y01585*
Y01574*
X05333Y01564*
X05263Y01495*
X04395*
X04392Y01498*
X04384Y01502*
X04375*
X04367Y01498*
X04361Y01492*
X04357Y01484*
Y01475*
X04361Y01467*
X04367Y01461*
X04375Y01457*
X04384*
X04392Y01461*
X04395Y01464*
X0527*
X05275Y01465*
X0528Y01469*
X05354Y01543*
X05364Y0154*
X05375*
X05385Y01543*
X05394Y01548*
X05401Y01555*
X05406Y01564*
X05409Y01574*
Y01585*
X05406Y01595*
X05401Y01604*
X05394Y01611*
X05385Y01616*
X05375Y01619*
G37*
G36*
X05275D02*
X05264D01*
X05254Y01616*
X05245Y01611*
X05238Y01604*
X05233Y01595*
X0523Y01585*
Y01574*
X05233Y01564*
X05238Y01555*
X05245Y01548*
X05254Y01543*
X05264Y0154*
X05275*
X05285Y01543*
X05294Y01548*
X05301Y01555*
X05306Y01564*
X05309Y01574*
Y01585*
X05306Y01595*
X05301Y01604*
X05294Y01611*
X05285Y01616*
X05275Y01619*
G37*
G36*
X05175D02*
X05164D01*
X05154Y01616*
X05145Y01611*
X05138Y01604*
X05133Y01595*
X0513Y01585*
Y01574*
X05133Y01564*
X05138Y01555*
X05145Y01548*
X05154Y01543*
X05164Y0154*
X05175*
X05185Y01543*
X05194Y01548*
X05201Y01555*
X05206Y01564*
X05209Y01574*
Y01585*
X05206Y01595*
X05201Y01604*
X05194Y01611*
X05185Y01616*
X05175Y01619*
G37*
G36*
X05075D02*
X05064D01*
X05054Y01616*
X05045Y01611*
X05038Y01604*
X05033Y01595*
X0503Y01585*
Y01574*
X05033Y01564*
X05038Y01555*
X05045Y01548*
X05054Y01543*
X05064Y0154*
X05075*
X05085Y01543*
X05094Y01548*
X05101Y01555*
X05106Y01564*
X05109Y01574*
Y01585*
X05106Y01595*
X05101Y01604*
X05094Y01611*
X05085Y01616*
X05075Y01619*
G37*
G36*
X04975D02*
X04964D01*
X04954Y01616*
X04945Y01611*
X04938Y01604*
X04933Y01595*
X0493Y01585*
Y01574*
X04933Y01564*
X04938Y01555*
X04945Y01548*
X04954Y01543*
X04964Y0154*
X04975*
X04985Y01543*
X04994Y01548*
X05001Y01555*
X05006Y01564*
X05009Y01574*
Y01585*
X05006Y01595*
X05001Y01604*
X04994Y01611*
X04985Y01616*
X04975Y01619*
G37*
G36*
X05279Y01457D02*
X0527D01*
X05262Y01453*
X05259Y0145*
X0475*
X04747Y01453*
X04739Y01457*
X0473*
X04722Y01453*
X04716Y01447*
X04712Y01439*
Y0143*
X04716Y01422*
X04722Y01416*
X0473Y01412*
X04739*
X04747Y01416*
X0475Y01419*
X05259*
X05262Y01416*
X0527Y01412*
X05279*
X05287Y01416*
X05293Y01422*
X05297Y0143*
Y01439*
X05293Y01447*
X05287Y01453*
X05279Y01457*
G37*
G36*
X0459Y01324D02*
X0459D01*
Y0129*
X04624*
Y0129*
X04621Y013*
X04616Y01309*
X04609Y01316*
X046Y01321*
X0459Y01324*
G37*
G36*
X0458D02*
X04579D01*
X04569Y01321*
X0456Y01316*
X04553Y01309*
X04548Y013*
X04545Y0129*
Y0129*
X0458*
Y01324*
G37*
G36*
X0635Y01319D02*
X0635D01*
Y01285*
X06384*
Y01285*
X06381Y01295*
X06376Y01304*
X06369Y01311*
X0636Y01316*
X0635Y01319*
G37*
G36*
X05475D02*
X05475D01*
Y01285*
X05509*
Y01285*
X05506Y01295*
X05501Y01304*
X05494Y01311*
X05485Y01316*
X05475Y01319*
G37*
G36*
X0634D02*
X06339D01*
X06329Y01316*
X0632Y01311*
X06313Y01304*
X06308Y01295*
X06305Y01285*
Y01285*
X0634*
Y01319*
G37*
G36*
X05465D02*
X05464D01*
X05454Y01316*
X05445Y01311*
X05438Y01304*
X05433Y01295*
X0543Y01285*
Y01285*
X05465*
Y01319*
G37*
G36*
X04624Y0128D02*
X0459D01*
Y01245*
X0459*
X046Y01248*
X04609Y01253*
X04616Y0126*
X04621Y01269*
X04624Y01279*
Y0128*
G37*
G36*
X0458D02*
X04545D01*
Y01279*
X04548Y01269*
X04553Y0126*
X0456Y01253*
X04569Y01248*
X04579Y01245*
X0458*
Y0128*
G37*
G36*
X0449Y01324D02*
X04479D01*
X04469Y01321*
X0446Y01316*
X04453Y01309*
X04448Y013*
X04445Y0129*
Y01279*
X04448Y01269*
X04453Y0126*
X0446Y01253*
X04469Y01248*
X04479Y01245*
X0449*
X045Y01248*
X04509Y01253*
X04516Y0126*
X04521Y01269*
X04524Y01279*
Y0129*
X04521Y013*
X04516Y01309*
X04509Y01316*
X045Y01321*
X0449Y01324*
G37*
G36*
X0439D02*
X04379D01*
X04369Y01321*
X0436Y01316*
X04353Y01309*
X04348Y013*
X04345Y0129*
Y01279*
X04348Y01269*
X0423Y01152*
X04225*
X04217Y01148*
X04211Y01142*
X04207Y01134*
Y01125*
X04211Y01117*
X04217Y01111*
X04225Y01107*
X04234*
X04242Y01111*
X04248Y01117*
X04252Y01125*
Y0113*
X04369Y01248*
X04379Y01245*
X0439*
X044Y01248*
X04409Y01253*
X04416Y0126*
X04421Y01269*
X04424Y01279*
Y0129*
X04421Y013*
X04416Y01309*
X04409Y01316*
X044Y01321*
X0439Y01324*
G37*
G36*
X0429D02*
X04279D01*
X04269Y01321*
X0426Y01316*
X04253Y01309*
X04248Y013*
X04245Y0129*
Y01279*
X04248Y01269*
X04253Y0126*
X0426Y01253*
X04269Y01248*
X04279Y01245*
X0429*
X043Y01248*
X04309Y01253*
X04316Y0126*
X04321Y01269*
X04324Y01279*
Y0129*
X04321Y013*
X04316Y01309*
X04309Y01316*
X043Y01321*
X0429Y01324*
G37*
G36*
X0419D02*
X04179D01*
X04169Y01321*
X0416Y01316*
X04153Y01309*
X04148Y013*
X04145Y0129*
Y01279*
X04148Y01269*
X04153Y0126*
X0416Y01253*
X04169Y01248*
X04179Y01245*
X0419*
X042Y01248*
X04209Y01253*
X04216Y0126*
X04221Y01269*
X04224Y01279*
Y0129*
X04221Y013*
X04216Y01309*
X04209Y01316*
X042Y01321*
X0419Y01324*
G37*
G36*
X0409D02*
X04079D01*
X04069Y01321*
X0406Y01316*
X04053Y01309*
X04048Y013*
X04045Y0129*
Y01279*
X04048Y01269*
X04053Y0126*
X0406Y01253*
X04069Y01248*
X04079Y01245*
X0409*
X041Y01248*
X04109Y01253*
X04116Y0126*
X04121Y01269*
X04124Y01279*
Y0129*
X04121Y013*
X04116Y01309*
X04109Y01316*
X041Y01321*
X0409Y01324*
G37*
G36*
X04024D02*
X03945D01*
Y01245*
X04024*
Y01324*
G37*
G36*
X06384Y01275D02*
X0635D01*
Y0124*
X0635*
X0636Y01243*
X06369Y01248*
X06376Y01255*
X06381Y01264*
X06384Y01274*
Y01275*
G37*
G36*
X0634D02*
X06305D01*
Y01274*
X06308Y01264*
X06313Y01255*
X0632Y01248*
X06329Y01243*
X06339Y0124*
X0634*
Y01275*
G37*
G36*
X0625Y01319D02*
X06239D01*
X06229Y01316*
X0622Y01311*
X06213Y01304*
X06208Y01295*
X06205Y01285*
Y01274*
X06208Y01264*
X06213Y01255*
X0622Y01248*
X06229Y01243*
X06239Y0124*
X0625*
X0626Y01243*
X06269Y01248*
X06276Y01255*
X06281Y01264*
X06284Y01274*
Y01285*
X06281Y01295*
X06276Y01304*
X06269Y01311*
X0626Y01316*
X0625Y01319*
G37*
G36*
X0615D02*
X06139D01*
X06129Y01316*
X0612Y01311*
X06113Y01304*
X06108Y01295*
X06105Y01285*
Y01274*
X06108Y01264*
X06113Y01255*
X0612Y01248*
X06129Y01243*
X06139Y0124*
X0615*
X0616Y01243*
X06169Y01248*
X06176Y01255*
X06181Y01264*
X06184Y01274*
Y01285*
X06181Y01295*
X06176Y01304*
X06169Y01311*
X0616Y01316*
X0615Y01319*
G37*
G36*
X0605D02*
X06039D01*
X06029Y01316*
X0602Y01311*
X06013Y01304*
X06008Y01295*
X06005Y01285*
Y01274*
X06008Y01264*
X06013Y01255*
X0602Y01248*
X06029Y01243*
X06039Y0124*
X0605*
X0606Y01243*
X06069Y01248*
X06076Y01255*
X06081Y01264*
X06084Y01274*
Y01285*
X06081Y01295*
X06076Y01304*
X06069Y01311*
X0606Y01316*
X0605Y01319*
G37*
G36*
X0595D02*
X05939D01*
X05929Y01316*
X0592Y01311*
X05913Y01304*
X05908Y01295*
X05905Y01285*
Y01274*
X05908Y01264*
X05913Y01255*
X0592Y01248*
X05929Y01243*
X05939Y0124*
X0595*
X0596Y01243*
X05969Y01248*
X05976Y01255*
X05981Y01264*
X05984Y01274*
Y01285*
X05981Y01295*
X05976Y01304*
X05969Y01311*
X0596Y01316*
X0595Y01319*
G37*
G36*
X0585D02*
X05839D01*
X05829Y01316*
X0582Y01311*
X05813Y01304*
X05808Y01295*
X05805Y01285*
Y01274*
X05808Y01264*
X05813Y01255*
X0582Y01248*
X05829Y01243*
X05839Y0124*
X0585*
X0586Y01243*
X05869Y01248*
X05876Y01255*
X05881Y01264*
X05884Y01274*
Y01285*
X05881Y01295*
X05876Y01304*
X05869Y01311*
X0586Y01316*
X0585Y01319*
G37*
G36*
X05784D02*
X05705D01*
Y0124*
X05784*
Y01319*
G37*
G36*
X05509Y01275D02*
X05475D01*
Y0124*
X05475*
X05485Y01243*
X05494Y01248*
X05501Y01255*
X05506Y01264*
X05509Y01274*
Y01275*
G37*
G36*
X05465D02*
X0543D01*
Y01274*
X05433Y01264*
X05438Y01255*
X05445Y01248*
X05454Y01243*
X05464Y0124*
X05465*
Y01275*
G37*
G36*
X05375Y01319D02*
X05364D01*
X05354Y01316*
X05345Y01311*
X05338Y01304*
X05333Y01295*
X0533Y01285*
Y01274*
X05333Y01264*
X05338Y01255*
X05345Y01248*
X05354Y01243*
X05364Y0124*
X05375*
X05385Y01243*
X05394Y01248*
X05401Y01255*
X05406Y01264*
X05409Y01274*
Y01285*
X05406Y01295*
X05401Y01304*
X05394Y01311*
X05385Y01316*
X05375Y01319*
G37*
G36*
X05275D02*
X05264D01*
X05254Y01316*
X05245Y01311*
X05238Y01304*
X05233Y01295*
X0523Y01285*
Y01274*
X05233Y01264*
X05238Y01255*
X05245Y01248*
X05254Y01243*
X05264Y0124*
X05275*
X05285Y01243*
X05294Y01248*
X05301Y01255*
X05306Y01264*
X05309Y01274*
Y01285*
X05306Y01295*
X05301Y01304*
X05294Y01311*
X05285Y01316*
X05275Y01319*
G37*
G36*
X05175D02*
X05164D01*
X05154Y01316*
X05145Y01311*
X05138Y01304*
X05133Y01295*
X0513Y01285*
Y01274*
X05133Y01264*
X05138Y01255*
X05145Y01248*
X05154Y01243*
X05164Y0124*
X05175*
X05185Y01243*
X05194Y01248*
X05201Y01255*
X05206Y01264*
X05209Y01274*
Y01285*
X05206Y01295*
X05201Y01304*
X05194Y01311*
X05185Y01316*
X05175Y01319*
G37*
G36*
X05075D02*
X05064D01*
X05054Y01316*
X05045Y01311*
X05038Y01304*
X05033Y01295*
X0503Y01285*
Y01274*
X05033Y01264*
X05038Y01255*
X05045Y01248*
X05054Y01243*
X05064Y0124*
X05075*
X05085Y01243*
X05094Y01248*
X05101Y01255*
X05106Y01264*
X05109Y01274*
Y01285*
X05106Y01295*
X05101Y01304*
X05094Y01311*
X05085Y01316*
X05075Y01319*
G37*
G36*
X04975D02*
X04964D01*
X04954Y01316*
X04945Y01311*
X04938Y01304*
X04933Y01295*
X0493Y01285*
Y01274*
X04933Y01264*
X04938Y01255*
X04945Y01248*
X04954Y01243*
X04964Y0124*
X04975*
X04985Y01243*
X04994Y01248*
X05001Y01255*
X05006Y01264*
X05009Y01274*
Y01285*
X05006Y01295*
X05001Y01304*
X04994Y01311*
X04985Y01316*
X04975Y01319*
G37*
G36*
X04909D02*
X0483D01*
Y0124*
X04909*
Y01319*
G37*
G36*
X06751Y01305D02*
X06738D01*
X06724Y01302*
X06711Y01297*
X067Y01289*
X0669Y01279*
X06682Y01268*
X06677Y01255*
X06675Y01241*
Y01228*
X06677Y01214*
X06682Y01201*
X0669Y0119*
X067Y0118*
X06711Y01172*
X06724Y01167*
X06738Y01165*
X06751*
X06765Y01167*
X06778Y01172*
X06789Y0118*
X06799Y0119*
X06807Y01201*
X06812Y01214*
X06815Y01228*
Y01241*
X06812Y01255*
X06807Y01268*
X06799Y01279*
X06789Y01289*
X06778Y01297*
X06765Y01302*
X06751Y01305*
G37*
G36*
X03791D02*
X03778D01*
X03764Y01302*
X03751Y01297*
X0374Y01289*
X0373Y01279*
X03722Y01268*
X03717Y01255*
X03715Y01241*
Y01228*
X03717Y01214*
X03722Y01201*
X0373Y0119*
X0374Y0118*
X03751Y01172*
X03764Y01167*
X03778Y01165*
X03791*
X03805Y01167*
X03818Y01172*
X03829Y0118*
X03839Y0119*
X03847Y01201*
X03852Y01214*
X03855Y01228*
Y01241*
X03852Y01255*
X03847Y01268*
X03839Y01279*
X03829Y01289*
X03818Y01297*
X03805Y01302*
X03791Y01305*
G37*
G36*
X08551Y01249D02*
X08538D01*
X08524Y01246*
X08512Y01241*
X085Y01233*
X08491Y01224*
X08483Y01212*
X08478Y012*
X08475Y01186*
Y01173*
X08478Y01159*
X08483Y01147*
X08491Y01135*
X085Y01126*
X08512Y01118*
X08524Y01113*
X08538Y0111*
X08551*
X08565Y01113*
X08577Y01118*
X08589Y01126*
X08598Y01135*
X08606Y01147*
X08611Y01159*
X08614Y01173*
Y01186*
X08611Y012*
X08606Y01212*
X08598Y01224*
X08589Y01233*
X08577Y01241*
X08565Y01246*
X08551Y01249*
G37*
G36*
X01826D02*
X01813D01*
X01799Y01246*
X01787Y01241*
X01775Y01233*
X01766Y01224*
X01758Y01212*
X01753Y012*
X0175Y01186*
Y01173*
X01753Y01159*
X01758Y01147*
X01766Y01135*
X01775Y01126*
X01787Y01118*
X01799Y01113*
X01813Y0111*
X01826*
X0184Y01113*
X01852Y01118*
X01864Y01126*
X01873Y01135*
X01881Y01147*
X01886Y01159*
X01889Y01173*
Y01186*
X01886Y012*
X01881Y01212*
X01873Y01224*
X01864Y01233*
X01852Y01241*
X0184Y01246*
X01826Y01249*
G37*
G36*
X07251Y01249D02*
X07238D01*
X07224Y01246*
X07212Y01241*
X072Y01233*
X07191Y01224*
X07183Y01212*
X07178Y012*
X07175Y01186*
Y01173*
X07178Y01159*
X07183Y01147*
X07191Y01135*
X072Y01126*
X07212Y01118*
X07224Y01113*
X07238Y0111*
X07251*
X07265Y01113*
X07277Y01118*
X07289Y01126*
X07298Y01135*
X07306Y01147*
X07311Y01159*
X07314Y01173*
Y01186*
X07311Y012*
X07306Y01212*
X07298Y01224*
X07289Y01233*
X07277Y01241*
X07265Y01246*
X07251Y01249*
G37*
G36*
X03555Y0129D02*
X0352D01*
X03484*
Y01289*
X03485Y01279*
X03488Y01271*
X03494Y01263*
X03501Y01258*
X03502Y01255*
Y01255*
X03501Y01252*
X03494Y01247*
X03488Y01239*
X03485Y01231*
X03484Y01221*
Y0121*
X03485Y012*
X03488Y01192*
X03492Y01187*
X0349Y01181*
X03487Y01181*
X03475Y01176*
X03465Y01168*
X03457Y01158*
X03452Y01146*
X0345Y01133*
X03452Y0112*
X03457Y01108*
X03465Y01098*
X03475Y0109*
X03487Y01085*
X035Y01083*
X03539*
X03552Y01085*
X03564Y0109*
X03574Y01098*
X03582Y01108*
X03587Y0112*
X03589Y01133*
X03587Y01146*
X03582Y01158*
X03574Y01168*
X03564Y01176*
X03552Y01181*
X03549Y01181*
X03547Y01187*
X03551Y01192*
X03554Y012*
X03555Y0121*
Y01221*
X03554Y01231*
X03551Y01239*
X03545Y01247*
X03538Y01252*
X03537Y01255*
Y01255*
X03538Y01258*
X03545Y01263*
X03551Y01271*
X03554Y01279*
X03555Y01289*
Y0129*
G37*
G36*
X0392Y02901D02*
Y02885D01*
X03936*
X03933Y02892*
X03927Y02898*
X0392Y02901*
G37*
G36*
X0391D02*
X03902Y02898D01*
X03896Y02892*
X03893Y02885*
X0391*
Y02901*
G37*
G36*
X03936Y02875D02*
X0392D01*
Y02858*
X03927Y02861*
X03933Y02867*
X03936Y02875*
G37*
G36*
X0391D02*
X03893D01*
X03896Y02867*
X03902Y02861*
X0391Y02858*
Y02875*
G37*
G36*
X01924Y02014D02*
X0189D01*
Y0198*
X01924*
Y02014*
G37*
G36*
X0188D02*
X01845D01*
Y0198*
X0188*
Y02014*
G37*
G36*
X01924Y0197D02*
X0189D01*
Y01935*
X01924*
Y0197*
G37*
G36*
X0188D02*
X01845D01*
Y01935*
X0188*
Y0197*
G37*
G36*
X0189Y01914D02*
X01879D01*
X01869Y01911*
X0186Y01906*
X01853Y01899*
X01848Y0189*
X01845Y0188*
Y01869*
X01848Y01859*
X01853Y0185*
X0186Y01843*
X01869Y01838*
X01879Y01835*
X0189*
X019Y01838*
X01909Y01843*
X01916Y0185*
X01921Y01859*
X01924Y01869*
Y0188*
X01921Y0189*
X01916Y01899*
X01909Y01906*
X019Y01911*
X0189Y01914*
G37*
G36*
X0219Y01714D02*
X02179D01*
X02169Y01711*
X0216Y01706*
X02153Y01699*
X02148Y0169*
X02145Y0168*
Y01669*
X02148Y01659*
X02153Y0165*
X0216Y01643*
X02169Y01638*
X02179Y01635*
X0219*
X022Y01638*
X02209Y01643*
X02216Y0165*
X02221Y01659*
X02224Y01669*
Y0168*
X02221Y0169*
X02216Y01699*
X02209Y01706*
X022Y01711*
X0219Y01714*
G37*
G36*
X0189D02*
X01879D01*
X01869Y01711*
X0186Y01706*
X01853Y01699*
X01848Y0169*
X01845Y0168*
Y01669*
X01848Y01659*
X01853Y0165*
X0186Y01643*
X01869Y01638*
X01879Y01635*
X0189*
X019Y01638*
X01909Y01643*
X01916Y0165*
X01921Y01659*
X01924Y01669*
Y0168*
X01921Y0169*
X01916Y01699*
X01909Y01706*
X019Y01711*
X0189Y01714*
G37*
G36*
X03191Y01604D02*
Y01587D01*
X03207*
X03204Y01595*
X03198Y01601*
X03191Y01604*
G37*
G36*
X03181D02*
X03173Y01601D01*
X03167Y01595*
X03164Y01587*
X03181*
Y01604*
G37*
G36*
X0283Y01479D02*
X02795D01*
Y01445*
X0283*
Y01479*
G37*
G36*
X01955Y01446D02*
Y0143D01*
X01971*
X01968Y01437*
X01962Y01443*
X01955Y01446*
G37*
G36*
X01945D02*
X01937Y01443D01*
X01931Y01437*
X01928Y0143*
X01945*
Y01446*
G37*
G36*
X01971Y0142D02*
X01955D01*
Y01403*
X01962Y01406*
X01968Y01412*
X01971Y0142*
G37*
G36*
X01945D02*
X01928D01*
X01931Y01412*
X01937Y01406*
X01945Y01403*
Y0142*
G37*
G36*
X0189Y01814D02*
X01879D01*
X01869Y01811*
X0186Y01806*
X01853Y01799*
X01848Y0179*
X01845Y0178*
Y01769*
X01848Y01759*
X01853Y0175*
X0186Y01743*
X01869Y01738*
X01879Y01735*
X0189*
X019Y01738*
X02139Y01499*
X02144Y01495*
X0215Y01494*
X02861*
X02863Y0149*
X02852Y01479*
X0284*
Y01445*
X02874*
Y01457*
X02887Y0147*
X03103*
X03105Y01466*
X03103Y01464*
X03098Y01455*
X03095Y01445*
Y01434*
X03098Y01424*
X03103Y01415*
X0311Y01408*
X03119Y01403*
X03129Y014*
X0314*
X0315Y01403*
X03159Y01408*
X03166Y01415*
X03171Y01424*
X03174Y01434*
Y01445*
X03171Y01455*
X03166Y01464*
X03164Y01466*
X03166Y0147*
X03172*
X03178Y01471*
X03183Y01475*
X03197Y01489*
X032Y01494*
X03201Y015*
Y01567*
X03204Y0157*
X03207Y01577*
X03164*
X03167Y0157*
X03171Y01566*
Y01534*
X03167Y01531*
X03166Y01532*
X03158*
X0315Y01528*
X03146Y01525*
X02156*
X01921Y01759*
X01924Y01769*
Y0178*
X01921Y0179*
X01916Y01799*
X01909Y01806*
X019Y01811*
X0189Y01814*
G37*
G36*
X02874Y01435D02*
X0284D01*
Y014*
X02874*
Y01435*
G37*
G36*
X0283D02*
X02795D01*
Y014*
X0283*
Y01435*
G37*
G36*
X0314Y01379D02*
X03129D01*
X03119Y01376*
X0311Y01371*
X03103Y01364*
X03098Y01355*
X03095Y01345*
Y01334*
X03098Y01324*
X03103Y01315*
X0311Y01308*
X03119Y01303*
X03129Y013*
X0314*
X0315Y01303*
X03159Y01308*
X03166Y01315*
X03171Y01324*
X03174Y01334*
Y01345*
X03171Y01355*
X03166Y01364*
X03159Y01371*
X0315Y01376*
X0314Y01379*
G37*
G36*
X0284D02*
X02829D01*
X02819Y01376*
X0281Y01371*
X02803Y01364*
X02798Y01355*
X02795Y01345*
Y01334*
X02798Y01324*
X02803Y01315*
X0281Y01308*
X02819Y01303*
X02829Y013*
X0284*
X0285Y01303*
X02859Y01308*
X02866Y01315*
X0287Y01322*
X0293*
X02938Y01313*
X02941Y01307*
X02947Y01301*
X02955Y01297*
X02964*
X02972Y01301*
X02978Y01307*
X02982Y01315*
Y01324*
X02978Y01332*
X02972Y01338*
X02964Y01342*
X0296*
X0295Y01352*
X02944Y01356*
X02937Y01357*
X0287*
X02866Y01364*
X02859Y01371*
X0285Y01376*
X0284Y01379*
G37*
G36*
X0313Y01279D02*
X03129D01*
X03119Y01276*
X0311Y01271*
X03103Y01264*
X03098Y01255*
X03095Y01245*
Y01245*
X0313*
Y01279*
G37*
G36*
X06635Y03251D02*
Y03235D01*
X06651*
X06648Y03242*
X06642Y03248*
X06635Y03251*
G37*
G36*
X06625D02*
X06617Y03248D01*
X06611Y03242*
X06608Y03235*
X06625*
Y03251*
G37*
G36*
X06651Y03225D02*
X06635D01*
Y03208*
X06642Y03211*
X06648Y03217*
X06651Y03225*
G37*
G36*
X06625D02*
X06608D01*
X06611Y03217*
X06617Y03211*
X06625Y03208*
Y03225*
G37*
G36*
Y02931D02*
Y02915D01*
X06641*
X06638Y02922*
X06632Y02928*
X06625Y02931*
G37*
G36*
X06615D02*
X06607Y02928D01*
X06601Y02922*
X06598Y02915*
X06615*
Y02931*
G37*
G36*
X06641Y02905D02*
X06625D01*
Y02888*
X06632Y02891*
X06638Y02897*
X06641Y02905*
G37*
G36*
X06615D02*
X06598D01*
X06601Y02897*
X06607Y02891*
X06615Y02888*
Y02905*
G37*
G36*
X0791Y02811D02*
X07902Y02808D01*
X07896Y02802*
X07893Y02795*
X0791*
Y02811*
G37*
G36*
Y02785D02*
X07893D01*
X07896Y02777*
X07902Y02771*
X0791Y02768*
Y02785*
G37*
G36*
X07315Y02742D02*
X07304D01*
X07293Y02739*
X07283Y02733*
X07276Y02726*
X0727Y02716*
X07267Y02705*
Y02694*
X0727Y02683*
X07276Y02673*
X07283Y02666*
X07293Y0266*
X07304Y02657*
X07315*
X07326Y0266*
X07336Y02666*
X07343Y02673*
X07349Y02683*
X07352Y02694*
Y02705*
X07349Y02716*
X07343Y02726*
X07336Y02733*
X07326Y02739*
X07315Y02742*
G37*
G36*
Y02642D02*
X07315D01*
Y02605*
X07352*
Y02605*
X07349Y02616*
X07343Y02626*
X07336Y02633*
X07326Y02639*
X07315Y02642*
G37*
G36*
X07305D02*
X07304D01*
X07293Y02639*
X07283Y02633*
X07276Y02626*
X0727Y02616*
X07267Y02605*
Y02605*
X07305*
Y02642*
G37*
G36*
X07352Y02595D02*
X07315D01*
Y02557*
X07315*
X07326Y0256*
X07336Y02566*
X07343Y02573*
X07349Y02583*
X07352Y02594*
Y02595*
G37*
G36*
X07305D02*
X07267D01*
Y02594*
X0727Y02583*
X07276Y02573*
X07283Y02566*
X07293Y0256*
X07304Y02557*
X07305*
Y02595*
G37*
G36*
X07518Y02471D02*
Y02455D01*
X07534*
X07531Y02462*
X07525Y02468*
X07518Y02471*
G37*
G36*
X07534Y02445D02*
X07518D01*
Y02428*
X07525Y02431*
X07531Y02437*
X07534Y02445*
G37*
G36*
X03936Y02735D02*
X0392D01*
Y02718*
X03927Y02721*
X03933Y02727*
X03936Y02735*
G37*
G36*
X0391D02*
X03893D01*
X03896Y02727*
X03902Y02721*
X0391Y02718*
Y02735*
G37*
G36*
X03563Y02508D02*
X03535D01*
Y0248*
X03563*
Y02508*
G37*
G36*
X03525D02*
X03496D01*
Y0248*
X03525*
Y02508*
G37*
G36*
X03995Y02502D02*
X03953D01*
Y0246*
X03995*
Y02502*
G37*
G36*
X03015Y02915D02*
X03004D01*
X02992Y02912*
X02982Y02906*
X02973Y02897*
X02967Y02887*
X02964Y02875*
Y02864*
X02967Y02852*
X02973Y02842*
X02982Y02833*
X02992Y02827*
X03004Y02824*
X03015*
X03027Y02827*
X03037Y02833*
X03046Y02842*
X03052Y02852*
X03055Y02864*
Y02875*
X03052Y02887*
X03046Y02897*
X03037Y02906*
X03027Y02912*
X03015Y02915*
G37*
G36*
X02915D02*
X02904D01*
X02892Y02912*
X02882Y02906*
X02873Y02897*
X02867Y02887*
X02864Y02875*
Y02864*
X02867Y02852*
X02873Y02842*
X02882Y02833*
X02892Y02827*
X02904Y02824*
X02915*
X02927Y02827*
X02937Y02833*
X02946Y02842*
X02952Y02852*
X02955Y02864*
Y02875*
X02952Y02887*
X02946Y02897*
X02937Y02906*
X02927Y02912*
X02915Y02915*
G37*
G36*
X0427Y02925D02*
X0423D01*
Y02885*
X0427*
Y02925*
G37*
G36*
X04506Y02502D02*
X04493D01*
X04481Y02498*
X04471Y02492*
X04462Y02483*
X04456Y02473*
X04453Y02461*
Y02448*
X04456Y02436*
X04462Y02426*
X04471Y02417*
X04481Y02411*
X04493Y02408*
X04506*
X04518Y02411*
X04528Y02417*
X04537Y02426*
X04543Y02436*
X04547Y02448*
Y02461*
X04543Y02473*
X04537Y02483*
X04528Y02492*
X04518Y02498*
X04506Y02502*
G37*
G36*
X04406D02*
X04393D01*
X04381Y02498*
X04371Y02492*
X04362Y02483*
X04356Y02473*
X04353Y02461*
Y02448*
X04356Y02436*
X04362Y02426*
X04371Y02417*
X04381Y02411*
X04393Y02408*
X04406*
X04418Y02411*
X04428Y02417*
X04437Y02426*
X04443Y02436*
X04447Y02448*
Y02461*
X04443Y02473*
X04437Y02483*
X04428Y02492*
X04418Y02498*
X04406Y02502*
G37*
G36*
X04306D02*
X04293D01*
X04281Y02498*
X04271Y02492*
X04262Y02483*
X04256Y02473*
X04253Y02461*
Y02448*
X04256Y02436*
X04262Y02426*
X04271Y02417*
X04281Y02411*
X04293Y02408*
X04306*
X04318Y02411*
X04328Y02417*
X04337Y02426*
X04343Y02436*
X04347Y02448*
Y02461*
X04343Y02473*
X04337Y02483*
X04328Y02492*
X04318Y02498*
X04306Y02502*
G37*
G36*
X07205Y02442D02*
X07204D01*
X07193Y02439*
X07183Y02433*
X07176Y02426*
X0717Y02416*
X07167Y02405*
Y02405*
X07205*
Y02442*
G37*
G36*
X06751Y02525D02*
X06738D01*
X06724Y02522*
X06711Y02517*
X067Y02509*
X0669Y02499*
X06682Y02488*
X06677Y02475*
X06675Y02461*
Y02448*
X06677Y02434*
X06682Y02421*
X0669Y0241*
X067Y024*
X06711Y02392*
X06724Y02387*
X06738Y02385*
X06751*
X06765Y02387*
X06778Y02392*
X06789Y024*
X06799Y0241*
X06807Y02421*
X06812Y02434*
X06815Y02448*
Y02461*
X06812Y02475*
X06807Y02488*
X06799Y02499*
X06789Y02509*
X06778Y02517*
X06765Y02522*
X06751Y02525*
G37*
G36*
X05547Y0245D02*
X05505D01*
Y02408*
X05506*
X05518Y02411*
X05528Y02417*
X05537Y02426*
X05543Y02436*
X05547Y02448*
Y0245*
G37*
G36*
X05495D02*
X05453D01*
Y02448*
X05456Y02436*
X05462Y02426*
X05471Y02417*
X05481Y02411*
X05493Y02408*
X05495*
Y0245*
G37*
G36*
X05725Y0221D02*
X0569D01*
Y02175*
X0569*
X057Y02178*
X05709Y02183*
X05717Y0219*
X05722Y02199*
X05725Y02209*
Y0221*
G37*
G36*
X0609Y01954D02*
X0609D01*
Y0192*
X06125*
Y0192*
X06122Y0193*
X06117Y01939*
X06109Y01946*
X061Y01951*
X0609Y01954*
G37*
%LN6502_carrier-3*%
%LPD*%
G54D10*
X02798Y03871D02*
X02882Y03955D01*
X04271*
X02655Y03871D02*
X02798D01*
X03017Y04128D02*
X04322D01*
X02378Y04169D02*
X02975D01*
X03017Y04128*
X03699Y02781D02*
X04007D01*
X04198Y02972*
X03489Y02747D02*
X03549Y02807D01*
X0399*
X04169Y02986*
X04271Y03955D02*
X04685Y04368D01*
X0821Y02625D02*
Y02675D01*
Y02625D02*
X08245Y0259D01*
X06082Y04426D02*
X06115Y0446D01*
X06082Y0416D02*
Y04426D01*
X06115Y0446D02*
X07045D01*
X07426Y04079*
X01915Y01325D02*
X02042Y01198D01*
X01725Y01515D02*
X01915Y01325D01*
X02042Y01198D02*
X0316D01*
X01725Y01515D02*
Y03958D01*
X07945Y0274D02*
Y02876D01*
X07397Y02197D02*
X07945Y0274D01*
X07255Y02155D02*
X07353D01*
X07395Y02197D02*
X07397D01*
X07353Y02155D02*
X07395Y02197D01*
X0501Y02795D02*
X05847D01*
X0585Y02792*
X05502Y01835D02*
X0557D01*
X05418Y01785D02*
X05421D01*
X05438Y01801*
X05672D02*
X05785Y01915D01*
X05438Y01801D02*
X05672D01*
X05927Y04152D02*
Y04162D01*
X05925Y0415D02*
X05927Y04152D01*
X0593Y04096D02*
Y0415D01*
X05927Y04162D02*
X0593Y04165D01*
Y0416D02*
Y04165D01*
Y0415D02*
Y0416D01*
X04519Y0358D02*
X04524Y03585D01*
X0438Y03591D02*
X04391Y0358D01*
X04519*
X0417Y03508D02*
X04223Y03561D01*
X04635*
X04389Y03615D02*
X044Y03605D01*
X04155Y036D02*
X04186Y03631D01*
X04524Y03585D02*
X04528D01*
X04874Y03631D02*
X04963Y03542D01*
X04186Y03631D02*
X04874D01*
X04268Y03615D02*
X04389D01*
X04635Y03561D02*
X04638Y03564D01*
X04293Y03591D02*
X0438D01*
X04155Y03257D02*
X04169Y03243D01*
X0417Y03365D02*
X04198Y03337D01*
X0417Y03365D02*
Y03508D01*
X04155Y03257D02*
Y036D01*
X04169Y02986D02*
Y03243D01*
X04198Y02972D02*
Y03337D01*
X04225Y02968D02*
Y0348D01*
X04177Y0292D02*
X04225Y02968D01*
X0424Y02636D02*
Y02865D01*
X04225Y0288D02*
X0424Y02865D01*
X0415Y02546D02*
X0424Y02636D01*
X04045Y02709D02*
X04167D01*
X04177Y02806D02*
X04213Y0277D01*
X04167Y02709D02*
X04188Y02689D01*
X0405Y02493D02*
X04213Y02656D01*
Y0277*
X0288Y01485D02*
X03172D01*
X03186Y015D02*
Y01582D01*
X03186Y01582D02*
X03186Y01582D01*
X03172Y01485D02*
X03186Y015D01*
X02835Y0144D02*
X0288Y01485D01*
X0753Y04263D02*
X0754Y04274D01*
Y0443*
X0753Y0426D02*
Y04263D01*
X05801Y02003D02*
X05808Y01996D01*
Y01992D02*
Y01996D01*
X05741Y02063D02*
D01*
X05801Y02003D01*
Y02003D02*
Y02003D01*
X0572Y02084D02*
X05741Y02063D01*
X05248Y02037D02*
X05262Y02051D01*
X05228Y02037D02*
X05248D01*
X05262Y02051D02*
Y02054D01*
X05238Y02061D02*
Y02208D01*
X05214Y02051D02*
X05228Y02037D01*
X05214Y02051D02*
Y02052D01*
X05132Y02134D02*
X05214Y02052D01*
X05262Y02054D02*
X05347Y02139D01*
X03092Y02593D02*
X031Y02601D01*
X03092Y0259D02*
Y02593D01*
X031Y02601D02*
Y02747D01*
X03075Y02767D02*
X03076Y02768D01*
X03047Y0259D02*
X03075Y02618D01*
Y02767*
X02978Y02328D02*
X02979Y02329D01*
Y02387D02*
X02981Y02388D01*
X02979Y02329D02*
Y02387D01*
X04625Y03136D02*
Y0348D01*
X04057Y03036D02*
X04103D01*
X04038Y03055D02*
X04057Y03036D01*
X03918Y03636D02*
X04038Y03516D01*
Y03055D02*
Y03516D01*
X07945Y02876D02*
X08351Y03282D01*
X07916Y02847D02*
X07945Y02876D01*
X054Y02247D02*
X05432Y02215D01*
X05375Y02271D02*
X054Y02247D01*
X04425Y03191D02*
Y0348D01*
Y03147D02*
Y03191D01*
X0643Y04304D02*
Y0437D01*
Y04235D02*
Y04304D01*
X0653Y0418D02*
Y0425D01*
X0351Y03038D02*
Y03423D01*
X04925Y0317D02*
Y03241D01*
X05025Y03147D02*
Y0327D01*
X05125Y03325D02*
Y0348D01*
Y03295D02*
Y03325D01*
X05325Y0339D02*
Y0348D01*
Y03345D02*
Y0339D01*
X05425Y03414D02*
Y0348D01*
Y0336D02*
Y03414D01*
X05347Y02139D02*
X05366Y02158D01*
X05385Y01788D02*
Y02106D01*
X054Y02247D02*
Y02455D01*
X0721Y022D02*
X07255Y02155D01*
X05785Y0162D02*
Y01915D01*
X0459D02*
X0487Y01635D01*
Y0158D02*
Y01635D01*
X0583Y0411D02*
Y0437D01*
X04258Y03605D02*
X04268Y03615D01*
X0593Y04165D02*
Y0437D01*
Y04096D02*
X06036Y03989D01*
X07095*
X07135Y0395*
X07244*
X0613Y04205D02*
Y0437D01*
X0611Y04185D02*
X0613Y04205D01*
X04725Y0348D02*
X04772Y03527D01*
X05249*
X05273Y03504*
Y03327D02*
Y03504D01*
Y03327D02*
X0531Y0329D01*
X06948*
X07183Y03055*
X07232*
X0726Y03027*
Y0295D02*
Y03027D01*
Y0295D02*
X0731Y029D01*
X03031Y02949D02*
X0311Y0287D01*
X02398Y02949D02*
X03031D01*
X02162Y03185D02*
Y03604D01*
X02345Y03787*
Y04105*
X02394Y04154*
X02448*
X02475Y04128*
Y04086D02*
Y04128D01*
Y04086D02*
X02496Y04065D01*
X04281*
X04585Y04368*
X02571Y03955D02*
X02655Y03871D01*
X02485Y03955D02*
X02571D01*
X02485Y03729D02*
Y03955D01*
X02444Y03688D02*
X02485Y03729D01*
X02444Y03634D02*
Y03688D01*
Y03634D02*
X02462Y03616D01*
Y03315D02*
Y03616D01*
Y03315D02*
X02736Y0304D01*
X03112*
X0321Y02943*
Y0287D02*
Y02943D01*
X07263Y03153D02*
X0731Y032D01*
X07263Y03069D02*
Y03153D01*
Y03069D02*
X0728Y03052D01*
X07328*
X07384Y03108*
Y04096*
X07043Y04438D02*
X07384Y04096D01*
X06204Y04438D02*
X07043D01*
X06182Y04416D02*
X06204Y04438D01*
X06182Y04192D02*
Y04416D01*
Y04192D02*
X06205Y04169D01*
X06289*
X0633Y0421*
Y0437*
X03146Y02794D02*
X03156Y02784D01*
X03056Y02794D02*
X03146D01*
X03035Y02773D02*
X03056Y02794D01*
X03035Y02624D02*
Y02773D01*
X03011Y026D02*
X03035Y02624D01*
X02976Y026D02*
X03011D01*
X02769Y02807D02*
X02976Y026D01*
X02103Y02807D02*
X02769D01*
X02062Y02848D02*
X02103Y02807D01*
X02062Y02848D02*
Y03571D01*
X02319Y03828*
Y0411*
X02378Y04169*
X04322Y04128D02*
X04537Y04342D01*
Y04393*
X04576Y04432*
X04764*
X04785Y04411*
Y04368D02*
Y04411D01*
X0341Y0249D02*
Y0287D01*
Y0249D02*
X03475Y02425D01*
X03692*
X03776Y02341*
X04584*
X04651Y02408*
Y02496*
X04668Y02513*
X06346*
X06504Y02355*
X07534*
X07623Y02444*
Y02755*
X06322Y03882D02*
X0633Y03874D01*
X06256Y03882D02*
X06301Y03927D01*
X07072*
X07144Y03855*
X0633Y03746D02*
Y03874D01*
X04347Y03707D02*
X04385Y03745D01*
X04347Y03694D02*
Y03707D01*
X04336Y03682D02*
X04347Y03694D01*
X03832Y03682D02*
X04336D01*
X03817Y03697D02*
X03832Y03682D01*
X03342Y03697D02*
X03817D01*
X03262Y03617D02*
X03342Y03697D01*
X03262Y03128D02*
Y03617D01*
Y03128D02*
X03449Y02941D01*
X03639*
X0371Y0287*
X0603Y03924D02*
X06035Y03929D01*
X0603Y03746D02*
Y03924D01*
Y03746D02*
X06245Y03962D01*
X07075*
X07182Y03855*
X07265*
X0731Y039*
X049Y04453D02*
X04985Y04368D01*
X03532Y04453D02*
X049D01*
X03504Y04425D02*
X03532Y04453D01*
X03504Y03629D02*
X0356Y03573D01*
Y0344D02*
Y03573D01*
Y0344D02*
X03578Y03422D01*
X03662*
X0371Y0347*
X06633Y04366D02*
X06891Y04108D01*
X07062*
X0721Y041*
X06633Y04271D02*
X06633Y04271D01*
Y04366*
X0663Y0437D02*
X06633Y04366D01*
X07116Y04D02*
X0721D01*
X07047Y04069D02*
X07116Y04D01*
X06957Y04069D02*
X07047D01*
X04585Y03869D02*
X05085Y04369D01*
X03611Y03869D02*
X04585D01*
X03775Y03612D02*
X03776Y03612D01*
X0366Y03612D02*
X03775D01*
X03648Y036D02*
X0366Y03612D01*
X03648Y03552D02*
Y036D01*
Y03552D02*
X03677Y03523D01*
X03725*
X0376Y03488*
Y03445D02*
Y03488D01*
X03712Y03397D02*
X0376Y03445D01*
X03536Y03397D02*
X03712D01*
X0351Y03423D02*
X03536Y03397D01*
X0351Y03423D02*
Y0347D01*
X03175Y0251D02*
X03259Y02594D01*
Y02954*
X03157Y03055D02*
X03259Y02954D01*
X02872Y03055D02*
X03157D01*
X02683Y03245D02*
X02872Y03055D01*
X04925Y03241D02*
Y0348D01*
X0523Y03785D02*
Y04106D01*
X0573D02*
Y0437D01*
X0703Y0308D02*
X0721Y029D01*
X0537Y0308D02*
X0703D01*
X05125Y03325D02*
X0537Y0308D01*
X0533Y03687D02*
Y0405D01*
X0553D02*
Y0437D01*
X07065Y03145D02*
X0721Y03D01*
X054Y03145D02*
X07065D01*
X05225Y0332D02*
X054Y03145D01*
X05225Y0332D02*
Y0348D01*
X0543Y03746D02*
Y0401D01*
X05325Y0339D02*
X05408Y03307D01*
X07103*
X0721Y032*
X07175Y03335D02*
X0721Y033D01*
X05504Y03335D02*
X07175D01*
X05425Y03414D02*
X05504Y03335D01*
X0415Y02432D02*
Y02546D01*
X04076Y02358D02*
X0415Y02432D01*
X03996Y02358D02*
X04076D01*
X0398Y02375D02*
X03996Y02358D01*
X0398Y02375D02*
Y02435D01*
X04Y02455*
X05347Y02139D02*
X05473D01*
X05532Y0208*
Y01915D02*
Y0208D01*
X05629Y02158D02*
X05685Y02215D01*
X05366Y02158D02*
X05629D01*
X05132Y02134D02*
Y02215D01*
X04963Y03542D02*
X06062D01*
X06125Y0348*
X0268Y033D02*
X02902D01*
X03122Y0308*
X04062Y03065D02*
X0414D01*
X04145Y0306*
X01754Y03314D02*
X0191Y0347D01*
X0293Y0178D02*
X0313D01*
X0283Y0188D02*
X0293Y0178D01*
X04222Y03807D02*
X04285Y03745D01*
X0322Y03807D02*
X04222D01*
X02959Y03546D02*
X0322Y03807D01*
X02959Y03327D02*
Y03546D01*
Y03327D02*
X03338Y02948D01*
X03317Y0247D02*
Y02789D01*
X03212Y02365D02*
X03317Y0247D01*
X03075Y02365D02*
X03212D01*
X0438Y0148D02*
X0527D01*
X0537Y0158*
X04735Y01435D02*
X05275D01*
X01725Y03958D02*
X0183Y04063D01*
X0316Y01198D02*
X0349Y01528D01*
X04528*
X04585Y01585*
X02254Y0358D02*
X0231Y03524D01*
Y0347D02*
Y03524D01*
X0253Y0401D02*
X02569Y03971D01*
X04258*
X04633Y04346*
Y04396*
X04653Y04416*
X04716*
X04733Y044*
Y0434D02*
Y044D01*
Y0434D02*
X04752Y04321D01*
X05008*
X05037Y0435*
Y04409*
X05046Y04418*
X0556*
X05578Y044*
Y04071D02*
Y044D01*
Y04071D02*
X05602Y04047D01*
X05824*
X0593Y03941*
Y03746D02*
Y03941D01*
X02252Y03814D02*
Y0391D01*
X02173Y03735D02*
X02252Y03814D01*
X0205Y03735D02*
X02173D01*
X02146Y03766D02*
X02225Y03845D01*
X0205Y03766D02*
X02146D01*
X04045Y02667D02*
X0415D01*
X04163Y02654*
X04195Y0212D02*
X05075D01*
X05032Y02094D02*
X05101Y02025D01*
X04177Y02806D02*
Y0292D01*
X0405Y02401D02*
Y02493D01*
X04032Y02383D02*
X0405Y02401D01*
X04016Y02383D02*
X04032D01*
X05232Y02215D02*
X05238Y02208D01*
X0434Y02065D02*
X04933D01*
X04555Y0265D02*
X0549D01*
X04325Y0288D02*
X04555Y0265D01*
X07377Y02145D02*
X0767D01*
X05633Y0267D02*
X06075D01*
X05766Y02705D02*
X05776Y02694D01*
X047Y02705D02*
X05766D01*
X04525Y0288D02*
X047Y02705D01*
X0726Y0207D02*
X0741Y0192D01*
X07165Y02095D02*
X0743Y0183D01*
X07338Y0211D02*
X07715Y01732D01*
X02472Y03652D02*
X02591Y03532D01*
X0266*
X03704Y03558D02*
X0384D01*
X03873Y03525*
Y03136D02*
Y03525D01*
Y03136D02*
X04052Y02957D01*
X04038Y03006D02*
X04139D01*
X04004Y0304D02*
X04038Y03006D01*
X04004Y0304D02*
Y03474D01*
X0389Y03587D02*
X04004Y03474D01*
X03675Y03587D02*
X0389D01*
X03675Y03588D02*
X03675Y03587D01*
X02501Y03681D02*
X02627Y03556D01*
X0253Y0371D02*
X02635Y03604D01*
X03634Y03636D02*
X03649D01*
X03918Y03636*
X0199Y0371D02*
X02021Y03741D01*
Y03963*
X01975Y0401D02*
X02021Y03963D01*
X03362Y0241D02*
X03454Y02318D01*
X03362Y0241D02*
Y02886D01*
X02924Y03324D02*
X03362Y02886D01*
X02794Y03324D02*
X02924D01*
X02758Y0336D02*
X02794Y03324D01*
X02758Y0336D02*
Y03682D01*
X0253Y0391D02*
X02758Y03682D01*
X0243Y0391D02*
Y03935D01*
X02475Y0398*
Y04032*
X02452Y04055D02*
X02475Y04032D01*
X02409Y04055D02*
X02452D01*
X0237Y04016D02*
X02409Y04055D01*
X0237Y03788D02*
Y04016D01*
X02214Y03632D02*
X0237Y03788D01*
X02214Y03562D02*
Y03632D01*
Y03562D02*
X02258Y03518D01*
Y03267D02*
Y03518D01*
Y03267D02*
X02358Y03167D01*
Y02848D02*
Y03167D01*
Y02848D02*
X02384Y02822D01*
X02798*
X02995Y02625*
X04048Y01585D02*
X04085D01*
X04006Y01543D02*
X04048Y01585D01*
X0347Y01543D02*
X04006D01*
X03292Y01722D02*
X0347Y01543D01*
X02417Y01722D02*
X03292D01*
X02322Y01817D02*
X02417Y01722D01*
X02147Y01817D02*
X02322D01*
X01958Y02006D02*
X02147Y01817D01*
X01958Y02006D02*
Y03827D01*
X01875Y0391D02*
X01958Y03827D01*
X0659Y01705D02*
X0689Y02005D01*
X0341Y03045D02*
Y0347D01*
X04925Y0288D02*
X0501Y02795D01*
X04045Y0263D02*
X04125D01*
X0205Y03797D02*
X02105D01*
X022Y03891*
Y04057*
X02252Y0411*
X0623Y03746D02*
Y03899D01*
X07265Y03745D02*
X0731Y037D01*
X07082Y03745D02*
X07265D01*
X07018Y03809D02*
X07082Y03745D01*
X06492Y03809D02*
X07018D01*
X0643Y03746D02*
X06492Y03809D01*
X04737Y03792D02*
X04785Y03745D01*
X04549Y03792D02*
X04737D01*
X04533Y03776D02*
X04549Y03792D01*
X04533Y03718D02*
Y03776D01*
X04512Y03697D02*
X04533Y03718D01*
X04464Y03697D02*
X04512D01*
X04433Y03728D02*
X04464Y03697D01*
X04433Y03728D02*
Y03776D01*
X04416Y03793D02*
X04433Y03776D01*
X04349Y03793D02*
X04416D01*
X04332Y03776D02*
X04349Y03793D01*
X04332Y0371D02*
Y03776D01*
X0432Y03697D02*
X04332Y0371D01*
X04057Y03697D02*
X0432D01*
X04035Y0372D02*
X04057Y03697D01*
X04035Y0372D02*
Y03776D01*
X04018Y03792D02*
X04035Y03776D01*
X03359Y03792D02*
X04018D01*
X03162Y03595D02*
X03359Y03792D01*
X03162Y03164D02*
Y03595D01*
Y03164D02*
X03406Y0292D01*
X0346*
X0351Y0287*
X02385Y03965D02*
X0243Y0401D01*
X02385Y03515D02*
Y03965D01*
X02362Y03492D02*
X02385Y03515D01*
X02362Y03339D02*
Y03492D01*
Y03339D02*
X02722Y02979D01*
X03114*
X03162Y02931*
Y02825D02*
Y02931D01*
Y02825D02*
X0318Y02807D01*
Y02768D02*
Y02807D01*
X03171Y02759D02*
X0318Y02768D01*
X03136Y02759D02*
X03171D01*
X03133Y02756D02*
X03136Y02759D01*
X03133Y02487D02*
Y02756D01*
Y02487D02*
X03152Y02468D01*
X03233*
X03275Y0251*
X0423Y0113D02*
X04385Y01285D01*
X0215Y0151D02*
X03162D01*
X01885Y01775D02*
X0215Y0151D01*
X0313Y0198D02*
X04525D01*
X0459Y01915*
X04825Y03215D02*
Y0348D01*
X0726Y0225D02*
X0731Y023D01*
X06831Y0225D02*
X0726D01*
X06809Y02272D02*
X06831Y0225D01*
X05506Y02272D02*
X06809D01*
X05474Y0224D02*
X05506Y02272D01*
X05474Y02189D02*
Y0224D01*
X05458Y02173D02*
X05474Y02189D01*
X05408Y02173D02*
X05458D01*
X05373Y02207D02*
X05408Y02173D01*
X05373Y02207D02*
Y0224D01*
X05357Y02256D02*
X05373Y0224D01*
X05107Y02256D02*
X05357D01*
X0509Y0224D02*
X05107Y02256D01*
X0509Y02207D02*
Y0224D01*
X05056Y02173D02*
X0509Y02207D01*
X04712Y02173D02*
X05056D01*
X04574Y02311D02*
X04712Y02173D01*
X0351Y02311D02*
X04574D01*
X03478Y02279D02*
X0351Y02311D01*
X02944Y02279D02*
X03478D01*
X02875Y0221D02*
X02944Y02279D01*
X08386Y02879D02*
X08465D01*
X08515Y02929*
Y03015*
X02586Y02599D02*
X02675Y0251D01*
X02586Y02599D02*
Y02762D01*
X02185Y01975D02*
X02675Y02465D01*
Y0251*
X04548Y01873D02*
X0459Y01915D01*
X04273Y01873D02*
X04548D01*
X03985Y01585D02*
X04273Y01873D01*
X0726Y0405D02*
X0731Y04D01*
X0726Y0405D02*
Y04128D01*
X07201Y04187D02*
X0726Y04128D01*
X06865Y04187D02*
X07201D01*
X0341Y0347D02*
Y03579D01*
X03488Y03657*
X03529*
Y04477D02*
X05816D01*
X05878Y04415*
Y04047D02*
Y04415D01*
Y04047D02*
X0598Y03945D01*
Y03718D02*
Y03945D01*
Y03718D02*
X06Y03698D01*
X06256*
X06278Y0372*
Y03872*
X06316Y0391*
X06981*
X07091Y038*
X0721*
X0643Y03746D02*
Y0384D01*
X0731Y031D02*
X07369Y03159D01*
Y03905*
X0733Y03945D02*
X07369Y03905D01*
X07302Y03945D02*
X0733D01*
X07265Y03981D02*
X07302Y03945D01*
X07265Y03981D02*
Y04016D01*
X07232Y0405D02*
X07265Y04016D01*
X07099Y0405D02*
X07232D01*
X07056Y04093D02*
X07099Y0405D01*
X06655Y04093D02*
X07056D01*
X0658Y04169D02*
X06655Y04093D01*
X0658Y04169D02*
Y044D01*
X06562Y04418D02*
X0658Y044D01*
X06278Y04418D02*
X06562D01*
X0623Y0437D02*
X06278Y04418D01*
X0721Y024D02*
X0726Y0245D01*
X07513*
X05265Y0372D02*
Y04077D01*
X0563Y04078D02*
Y0437D01*
X0643Y04304D02*
X06491Y04243D01*
X0653Y0425D02*
Y0437D01*
X07426Y03639D02*
Y04079D01*
X06082Y0416D02*
X06128Y04114D01*
X06464*
X0653Y0418*
X05085Y03745D02*
X05232Y03598D01*
X06481*
X0663Y03746*
X0623Y04195D02*
Y0437D01*
X04507Y03667D02*
X04585Y03745D01*
X03807Y03667D02*
X04507D01*
X03793Y03681D02*
X03807Y03667D01*
X03466Y03681D02*
X03793D01*
X03362Y03577D02*
X03466Y03681D01*
X03362Y03055D02*
Y03577D01*
Y03055D02*
X03457Y0296D01*
X0372*
X0381Y0287*
X07265Y02755D02*
X0731Y028D01*
X06142Y02755D02*
X07265D01*
X06076Y02821D02*
X06142Y02755D01*
X06076Y02821D02*
Y02979D01*
X06074Y02981D02*
X06076Y02979D01*
X0478Y02981D02*
X06074D01*
X04625Y03136D02*
X0478Y02981D01*
X07261Y02549D02*
X0731Y025D01*
X06819Y02549D02*
X07261D01*
X06669Y02699D02*
X06819Y02549D01*
X06016Y02699D02*
X06669D01*
X05975Y0274D02*
X06016Y02699D01*
X05975Y0274D02*
Y02928D01*
X05964Y02939D02*
X05975Y02928D01*
X04633Y02939D02*
X05964D01*
X04425Y03147D02*
X04633Y02939D01*
X0603Y0415D02*
Y0437D01*
X06707Y03011D02*
X06811Y02907D01*
X05084Y03011D02*
X06707D01*
X04925Y0317D02*
X05084Y03011D01*
X05623Y0268D02*
X05633Y0267D01*
X04625Y0268D02*
X05623D01*
X04425Y0288D02*
X04625Y0268D01*
X05025Y03147D02*
X05139Y03033D01*
X06753*
X06955Y02831*
X0361Y0347D02*
Y03615D01*
X03609Y03615D02*
X0361Y03615D01*
X03609Y03615D02*
Y03648D01*
X03622Y0366*
X03785*
X03792Y03652*
X04792*
X04885Y03745*
X04325Y03537D02*
X04328Y03533D01*
X04671*
X04725Y0348*
X03317Y04309D02*
X03376Y04368D01*
X03785*
X06125Y0288D02*
X06198Y02806D01*
X06979*
X07019Y02847*
X07916*
X08351Y03282D02*
X08515D01*
X04485Y03745D02*
X04517Y03777D01*
Y03796*
X04528Y03807*
X04867*
X0543Y0437*
X05025Y0327D02*
Y0348D01*
X04725Y03125D02*
Y0348D01*
X04525Y03178D02*
Y0348D01*
X04511Y03165D02*
X04525Y03178D01*
X05625Y0348D02*
X05673Y03432D01*
X06942*
X0721Y037*
X05525Y0348D02*
X05605Y034D01*
X0721*
X07397Y02197D02*
X08465D01*
X08346Y03148D02*
X08381D01*
X08515Y03015*
X06385Y01915D02*
X0667Y022D01*
X0721*
X04888Y02271D02*
X05375D01*
X04832Y02215D02*
X04888Y02271D01*
X05785Y01915D02*
X05827Y01873D01*
X06343*
X06385Y01915*
X05532D02*
X05574Y01957D01*
X06043*
X06085Y01915*
G54D19*
X06814Y04405D02*
D01*
X06814Y04405*
X06814Y04405*
X06814Y04405*
X06814Y04405*
X06814Y04405*
X06814Y04405*
X06814Y04405*
X06814Y04406*
X06814Y04406*
X06814Y04406*
X06814Y04406*
X06814Y04406*
X06814Y04406*
X06814Y04406*
X06813Y04406*
X06813Y04406*
X06813Y04406*
X06813Y04406*
X06813Y04406*
X06813Y04406*
X06813Y04406*
X06813Y04406*
X06813*
X06813Y04406*
X06813Y04406*
X06813Y04406*
X06812Y04406*
X06812Y04406*
X06812Y04406*
X06812Y04406*
X06812Y04406*
X06812Y04406*
X06812Y04406*
X06812Y04406*
X06812Y04406*
X06812Y04406*
X06812Y04406*
X06812Y04405*
X06812Y04405*
X06812Y04405*
X06812Y04405*
X06812Y04405*
X06812Y04405*
X06812Y04405*
X06812Y04405*
X06812Y04405*
X06812Y04405*
X06812Y04405*
X06812Y04405*
X06812Y04405*
X06812Y04404*
X06812Y04404*
X06812Y04404*
X06812Y04404*
X06812Y04404*
X06812Y04404*
X06812Y04404*
X06812Y04404*
X06812Y04404*
X06812Y04404*
X06812Y04404*
X06812Y04404*
X06812Y04404*
X06813Y04404*
X06813Y04404*
X06813Y04404*
X06813Y04404*
X06813*
X06813Y04404*
X06813Y04404*
X06813Y04404*
X06813Y04404*
X06813Y04404*
X06813Y04404*
X06813Y04404*
X06814Y04404*
X06814Y04404*
X06814Y04404*
X06814Y04404*
X06814Y04404*
X06814Y04404*
X06814Y04404*
X06814Y04404*
X06814Y04404*
X06814Y04405*
X06814Y04405*
X06814Y04405*
X06814Y04405*
X06814Y04405*
X06814Y04405*
X0815Y03507D02*
D01*
X0815Y03507*
X0815Y03507*
X0815Y03507*
X0815Y03507*
X08149Y03507*
X08149Y03507*
X08149Y03507*
X08149Y03507*
X08149Y03507*
X08149Y03507*
X08149Y03508*
X08149Y03508*
X08149Y03508*
X08149Y03508*
X08149Y03508*
X08149Y03508*
X08149Y03508*
X08149Y03508*
X08149Y03508*
X08149Y03508*
X08149Y03508*
X08148Y03508*
X08148*
X08148Y03508*
X08148Y03508*
X08148Y03508*
X08148Y03508*
X08148Y03508*
X08148Y03508*
X08148Y03508*
X08148Y03508*
X08148Y03508*
X08148Y03508*
X08148Y03508*
X08147Y03507*
X08147Y03507*
X08147Y03507*
X08147Y03507*
X08147Y03507*
X08147Y03507*
X08147Y03507*
X08147Y03507*
X08147Y03507*
X08147Y03507*
X08147Y03507*
X08147Y03507*
X08147Y03507*
X08147Y03506*
X08147Y03506*
X08147Y03506*
X08147Y03506*
X08147Y03506*
X08147Y03506*
X08147Y03506*
X08147Y03506*
X08148Y03506*
X08148Y03506*
X08148Y03506*
X08148Y03506*
X08148Y03506*
X08148Y03506*
X08148Y03506*
X08148Y03506*
X08148Y03506*
X08148Y03506*
X08148Y03506*
X08148Y03506*
X08148*
X08149Y03506*
X08149Y03506*
X08149Y03506*
X08149Y03506*
X08149Y03506*
X08149Y03506*
X08149Y03506*
X08149Y03506*
X08149Y03506*
X08149Y03506*
X08149Y03506*
X08149Y03506*
X08149Y03506*
X08149Y03506*
X08149Y03506*
X08149Y03506*
X08149Y03506*
X0815Y03506*
X0815Y03506*
X0815Y03507*
X0815Y03507*
X0815Y03507*
X05169Y04404D02*
D01*
X05169Y04404*
X05169Y04404*
X05169Y04404*
X05169Y04404*
X05169Y04404*
X05169Y04404*
X05169Y04404*
X05169Y04405*
X05169Y04405*
X05169Y04405*
X05169Y04405*
X05169Y04405*
X05169Y04405*
X05169Y04405*
X05168Y04405*
X05168Y04405*
X05168Y04405*
X05168Y04405*
X05168Y04405*
X05168Y04405*
X05168Y04405*
X05168Y04405*
X05168*
X05168Y04405*
X05168Y04405*
X05168Y04405*
X05167Y04405*
X05167Y04405*
X05167Y04405*
X05167Y04405*
X05167Y04405*
X05167Y04405*
X05167Y04405*
X05167Y04405*
X05167Y04405*
X05167Y04405*
X05167Y04405*
X05167Y04404*
X05167Y04404*
X05167Y04404*
X05167Y04404*
X05167Y04404*
X05167Y04404*
X05167Y04404*
X05167Y04404*
X05167Y04404*
X05167Y04404*
X05167Y04404*
X05167Y04404*
X05167Y04404*
X05167Y04403*
X05167Y04403*
X05167Y04403*
X05167Y04403*
X05167Y04403*
X05167Y04403*
X05167Y04403*
X05167Y04403*
X05167Y04403*
X05167Y04403*
X05167Y04403*
X05167Y04403*
X05167Y04403*
X05168Y04403*
X05168Y04403*
X05168Y04403*
X05168Y04403*
X05168*
X05168Y04403*
X05168Y04403*
X05168Y04403*
X05168Y04403*
X05168Y04403*
X05168Y04403*
X05168Y04403*
X05169Y04403*
X05169Y04403*
X05169Y04403*
X05169Y04403*
X05169Y04403*
X05169Y04403*
X05169Y04403*
X05169Y04403*
X05169Y04403*
X05169Y04404*
X05169Y04404*
X05169Y04404*
X05169Y04404*
X05169Y04404*
X05169Y04404*
X01856Y02834D02*
D01*
X01856Y02834*
X01856Y02834*
X01856Y02834*
X01856Y02834*
X01856Y02834*
X01856Y02835*
X01856Y02835*
X01856Y02835*
X01855Y02835*
X01855Y02835*
X01855Y02835*
X01855Y02835*
X01855Y02835*
X01855Y02835*
X01855Y02835*
X01855Y02835*
X01855Y02835*
X01855Y02835*
X01855Y02835*
X01855Y02835*
X01855Y02835*
X01855Y02835*
X01854*
X01854Y02835*
X01854Y02835*
X01854Y02835*
X01854Y02835*
X01854Y02835*
X01854Y02835*
X01854Y02835*
X01854Y02835*
X01854Y02835*
X01854Y02835*
X01854Y02835*
X01854Y02835*
X01854Y02835*
X01853Y02835*
X01853Y02835*
X01853Y02835*
X01853Y02834*
X01853Y02834*
X01853Y02834*
X01853Y02834*
X01853Y02834*
X01853Y02834*
X01853Y02834*
X01853Y02834*
X01853Y02834*
X01853Y02834*
X01853Y02834*
X01853Y02834*
X01853Y02834*
X01853Y02833*
X01854Y02833*
X01854Y02833*
X01854Y02833*
X01854Y02833*
X01854Y02833*
X01854Y02833*
X01854Y02833*
X01854Y02833*
X01854Y02833*
X01854Y02833*
X01854Y02833*
X01854Y02833*
X01854Y02833*
X01854Y02833*
X01855*
X01855Y02833*
X01855Y02833*
X01855Y02833*
X01855Y02833*
X01855Y02833*
X01855Y02833*
X01855Y02833*
X01855Y02833*
X01855Y02833*
X01855Y02833*
X01855Y02833*
X01855Y02833*
X01855Y02833*
X01856Y02833*
X01856Y02834*
X01856Y02834*
X01856Y02834*
X01856Y02834*
X01856Y02834*
X01856Y02834*
X01856Y02834*
X01856Y02834*
X04171Y02844D02*
D01*
X04171Y02844*
X04171Y02844*
X04171Y02844*
X04171Y02844*
X04171Y02844*
X04171Y02845*
X04171Y02845*
X04171Y02845*
X0417Y02845*
X0417Y02845*
X0417Y02845*
X0417Y02845*
X0417Y02845*
X0417Y02845*
X0417Y02845*
X0417Y02845*
X0417Y02845*
X0417Y02845*
X0417Y02845*
X0417Y02845*
X0417Y02845*
X0417Y02845*
X04169*
X04169Y02845*
X04169Y02845*
X04169Y02845*
X04169Y02845*
X04169Y02845*
X04169Y02845*
X04169Y02845*
X04169Y02845*
X04169Y02845*
X04169Y02845*
X04169Y02845*
X04169Y02845*
X04169Y02845*
X04168Y02845*
X04168Y02845*
X04168Y02845*
X04168Y02844*
X04168Y02844*
X04168Y02844*
X04168Y02844*
X04168Y02844*
X04168Y02844*
X04168Y02844*
X04168Y02844*
X04168Y02844*
X04168Y02844*
X04168Y02844*
X04168Y02844*
X04168Y02844*
X04168Y02843*
X04169Y02843*
X04169Y02843*
X04169Y02843*
X04169Y02843*
X04169Y02843*
X04169Y02843*
X04169Y02843*
X04169Y02843*
X04169Y02843*
X04169Y02843*
X04169Y02843*
X04169Y02843*
X04169Y02843*
X04169Y02843*
X0417*
X0417Y02843*
X0417Y02843*
X0417Y02843*
X0417Y02843*
X0417Y02843*
X0417Y02843*
X0417Y02843*
X0417Y02843*
X0417Y02843*
X0417Y02843*
X0417Y02843*
X0417Y02843*
X0417Y02843*
X04171Y02843*
X04171Y02844*
X04171Y02844*
X04171Y02844*
X04171Y02844*
X04171Y02844*
X04171Y02844*
X04171Y02844*
X04171Y02844*
X03426Y01495D02*
D01*
X03426Y01495*
X03426Y01495*
X03426Y01495*
X03426Y01495*
X03426Y01495*
X03426Y01496*
X03426Y01496*
X03426Y01496*
X03425Y01496*
X03425Y01496*
X03425Y01496*
X03425Y01496*
X03425Y01496*
X03425Y01496*
X03425Y01496*
X03425Y01496*
X03425Y01496*
X03425Y01496*
X03425Y01496*
X03425Y01496*
X03425Y01496*
X03425Y01496*
X03424*
X03424Y01496*
X03424Y01496*
X03424Y01496*
X03424Y01496*
X03424Y01496*
X03424Y01496*
X03424Y01496*
X03424Y01496*
X03424Y01496*
X03424Y01496*
X03424Y01496*
X03424Y01496*
X03424Y01496*
X03423Y01496*
X03423Y01496*
X03423Y01496*
X03423Y01495*
X03423Y01495*
X03423Y01495*
X03423Y01495*
X03423Y01495*
X03423Y01495*
X03423Y01495*
X03423Y01495*
X03423Y01495*
X03423Y01495*
X03423Y01495*
X03423Y01495*
X03423Y01494*
X03423Y01494*
X03424Y01494*
X03424Y01494*
X03424Y01494*
X03424Y01494*
X03424Y01494*
X03424Y01494*
X03424Y01494*
X03424Y01494*
X03424Y01494*
X03424Y01494*
X03424Y01494*
X03424Y01494*
X03424Y01494*
X03424Y01494*
X03425*
X03425Y01494*
X03425Y01494*
X03425Y01494*
X03425Y01494*
X03425Y01494*
X03425Y01494*
X03425Y01494*
X03425Y01494*
X03425Y01494*
X03425Y01494*
X03425Y01494*
X03425Y01494*
X03425Y01494*
X03426Y01494*
X03426Y01494*
X03426Y01495*
X03426Y01495*
X03426Y01495*
X03426Y01495*
X03426Y01495*
X03426Y01495*
X03426Y01495*
G54D20*
X0433Y01832D02*
D01*
X0433Y01832*
X0433Y01833*
X0433Y01833*
X04329Y01833*
X04329Y01833*
X04329Y01833*
X04329Y01833*
X04329Y01833*
X04329Y01834*
X04329Y01834*
X04329Y01834*
X04329Y01834*
X04329Y01834*
X04329Y01834*
X04328Y01834*
X04328Y01834*
X04328Y01834*
X04328Y01834*
X04328Y01834*
X04328Y01835*
X04327Y01835*
X04327Y01835*
X04327*
X04327Y01835*
X04327Y01835*
X04327Y01834*
X04326Y01834*
X04326Y01834*
X04326Y01834*
X04326Y01834*
X04326Y01834*
X04326Y01834*
X04326Y01834*
X04326Y01834*
X04325Y01834*
X04325Y01834*
X04325Y01833*
X04325Y01833*
X04325Y01833*
X04325Y01833*
X04325Y01833*
X04325Y01833*
X04325Y01833*
X04325Y01832*
X04325Y01832*
X04325Y01832*
X04325Y01832*
X04325Y01832*
X04325Y01832*
X04325Y01831*
X04325Y01831*
X04325Y01831*
X04325Y01831*
X04325Y01831*
X04325Y01831*
X04326Y01831*
X04326Y0183*
X04326Y0183*
X04326Y0183*
X04326Y0183*
X04326Y0183*
X04326Y0183*
X04326Y0183*
X04327Y0183*
X04327Y0183*
X04327Y0183*
X04327Y0183*
X04327*
X04327Y0183*
X04328Y0183*
X04328Y0183*
X04328Y0183*
X04328Y0183*
X04328Y0183*
X04328Y0183*
X04329Y0183*
X04329Y0183*
X04329Y0183*
X04329Y01831*
X04329Y01831*
X04329Y01831*
X04329Y01831*
X04329Y01831*
X04329Y01831*
X04329Y01831*
X04329Y01832*
X0433Y01832*
X0433Y01832*
X0433Y01832*
X0433Y01832*
G54D21*
X0867Y0107D02*
Y04555D01*
X0171D02*
X0867D01*
X0171Y0107D02*
Y04555D01*
Y0107D02*
X0867D01*
G54D65*
X0353Y02275D03*
Y02375D03*
Y01715D03*
Y01815D03*
G54D66*
X0353Y02475D03*
G54D68*
X0353Y01915D03*
G54D69*
X0583Y02775D02*
X05855Y0275D01*
X0493Y02775D02*
X0583D01*
X05855Y0275D02*
D01*
X05488Y01862D02*
X05489Y01861D01*
X05598*
X056Y0186*
X02835Y0134D02*
X02937D01*
X02957Y0132*
X0296*
X0553Y03746D02*
X05538Y03754D01*
Y03998*
X0563Y03746D02*
Y0398D01*
X05525Y03365D02*
Y0348D01*
X0573Y03746D02*
Y0398D01*
X0583Y03746D02*
X05838Y03754D01*
Y03963*
X02975Y0251D02*
X03075D01*
Y02365D02*
Y0251D01*
X01875Y0411D02*
X01975D01*
X06475Y01905D02*
X0651D01*
X06595Y0182*
X07045Y0176D02*
X07147D01*
X05785Y0273D02*
X0581Y02705D01*
X04775Y0273D02*
X05785D01*
X04625Y0288D02*
X04775Y0273D01*
X05815Y0275D02*
X0585Y02715D01*
X04855Y0275D02*
X05815D01*
X04725Y0288D02*
X04855Y0275D01*
X04825Y0288D02*
X0493Y02775D01*
X05025Y0288D02*
X05085Y0282D01*
X05865*
G54D70*
X0306Y04195D03*
X0336D03*
Y03895D03*
G54D71*
X0306Y03895D03*
G54D72*
X06745Y01235D03*
Y02455D03*
X03785Y01235D03*
Y02455D03*
G54D73*
X04Y02455D03*
G54D74*
X041Y02455D03*
X042D03*
X043D03*
X044D03*
X045D03*
X046D03*
X047D03*
X048D03*
X049D03*
X05D03*
X051D03*
X052D03*
X053D03*
X054D03*
X055D03*
G54D75*
X07245Y01179D03*
Y04429D03*
X0182Y0118D03*
X08545Y0443D03*
X0182D03*
X08545Y0118D03*
G54D76*
X0673Y0437D03*
X05085Y04369D03*
G54D77*
X0613Y0437D03*
X0663D03*
X0653D03*
X0643D03*
X0633D03*
X0623D03*
X0603D03*
X0593D03*
X0583D03*
X0573D03*
X0563D03*
X0553D03*
X0543D03*
Y03746D03*
X0553D03*
X0563D03*
X0573D03*
X0583D03*
X0593D03*
X0603D03*
X0613D03*
X0623D03*
X0633D03*
X0643D03*
X0653D03*
X0663D03*
X0673D03*
X05085Y03745D03*
X04985D03*
X04885D03*
X04785D03*
X04685D03*
X04585D03*
X04485D03*
X04385D03*
X04285D03*
X04185D03*
X04085D03*
X03985D03*
X03885D03*
X03785D03*
Y04368D03*
X03885D03*
X03985D03*
X04085D03*
X04185D03*
X04285D03*
X04385D03*
X04585D03*
X04685D03*
X04785D03*
X04885D03*
X04985D03*
X04485D03*
X0191Y0347D03*
X0201D03*
X0211D03*
X0221D03*
X0231D03*
X0241D03*
X0251D03*
X0261D03*
X0271D03*
X0281D03*
X0291D03*
X0301D03*
X0311D03*
X0321D03*
X0331D03*
X0341D03*
X0351D03*
X0361D03*
X0371D03*
X0381D03*
Y0287D03*
X0371D03*
X0361D03*
X0351D03*
X0341D03*
X0331D03*
X0321D03*
X0311D03*
X0301D03*
X0291D03*
X0281D03*
X0271D03*
X0261D03*
X0251D03*
X0241D03*
X0231D03*
X0221D03*
X0211D03*
X0201D03*
X04225Y0348D03*
X04325D03*
X04425D03*
X04525D03*
X04625D03*
X04725D03*
X04825D03*
X04925D03*
X05025D03*
X05125D03*
X05225D03*
X05325D03*
X05425D03*
X05525D03*
X05625D03*
X05725D03*
X05825D03*
X05925D03*
X06025D03*
X06125D03*
Y0288D03*
X06025D03*
X05925D03*
X05825D03*
X05725D03*
X05625D03*
X05525D03*
X05425D03*
X05325D03*
X05225D03*
X05125D03*
X05025D03*
X04925D03*
X04825D03*
X04725D03*
X04625D03*
X04525D03*
X04425D03*
X04325D03*
G54D78*
X08572Y02464D03*
Y02124D03*
G54D79*
X08415Y02464D03*
Y02124D03*
G54D80*
X0721Y038D03*
X0731D03*
X0721Y036D03*
X0731D03*
X0721Y034D03*
X0731D03*
X0721Y031D03*
X0731D03*
X0721Y029D03*
X0731D03*
X0721Y027D03*
X0731D03*
X0721Y026D03*
X0731D03*
X0721Y023D03*
X0731D03*
X0721Y022D03*
X0731Y024D03*
X0721D03*
X0731Y025D03*
X0721D03*
X0731Y028D03*
X0721D03*
X0731Y03D03*
X0721D03*
X0731Y032D03*
X0721D03*
X0731Y033D03*
X0721D03*
X0731Y035D03*
X0721D03*
X0731Y037D03*
X0721D03*
X0731Y039D03*
Y04D03*
Y041D03*
X0721Y039D03*
Y04D03*
Y041D03*
X0243Y0391D03*
X0253Y0401D03*
Y0411D03*
X0243Y0401D03*
Y0411D03*
X02152Y0391D03*
X02252Y0401D03*
Y0411D03*
X02152Y0401D03*
Y0411D03*
X01875Y0391D03*
X01975Y0401D03*
Y0411D03*
X01875Y0401D03*
Y0411D03*
G54D81*
X0731Y022D03*
X0253Y0391D03*
X02252D03*
X01975D03*
G54D82*
X05532Y02215D03*
X05432D03*
X05332D03*
X05232D03*
X05132D03*
X05032D03*
X04932D03*
X04832D03*
X05532Y01915D03*
X05432D03*
X05332D03*
X05232D03*
X05132D03*
X05032D03*
X04932D03*
X05685D03*
X05785D03*
X05885D03*
X05985D03*
X06085D03*
X06185D03*
X06285D03*
X06385D03*
X05685Y02215D03*
X05785D03*
X05885D03*
X05985D03*
X06085D03*
X06185D03*
X06285D03*
X0399Y01915D03*
X0409D03*
X0419D03*
X0429D03*
X0439D03*
X0449D03*
X0459D03*
X0399Y02215D03*
X0409D03*
X0419D03*
X0429D03*
X0439D03*
X0449D03*
X06345Y0158D03*
X06245D03*
X06145D03*
X06045D03*
X05945D03*
X05845D03*
X05745D03*
X06345Y0128D03*
X06245D03*
X06145D03*
X06045D03*
X05945D03*
X05845D03*
X0547Y0158D03*
X0537D03*
X0527D03*
X0517D03*
X0507D03*
X0497D03*
X0487D03*
X0547Y0128D03*
X0537D03*
X0527D03*
X0517D03*
X0507D03*
X0497D03*
X04585Y01585D03*
X04485D03*
X04385D03*
X04285D03*
X04185D03*
X04085D03*
X03985D03*
X04585Y01285D03*
X04485D03*
X04385D03*
X04285D03*
X04185D03*
X04085D03*
X02835Y0134D03*
Y0124D03*
Y0114D03*
X03135Y0144D03*
Y0134D03*
Y0124D03*
Y0114D03*
X01885Y01875D03*
Y01775D03*
Y01675D03*
X02185Y01975D03*
Y01875D03*
Y01775D03*
Y01675D03*
X0283Y0188D03*
Y0178D03*
Y0168D03*
X0313Y0198D03*
Y0188D03*
Y0178D03*
Y0168D03*
X02775Y0221D03*
X02875D03*
X02975D03*
X03075D03*
X03175D03*
X03275D03*
X02675Y0251D03*
X02775D03*
X02875D03*
X02975D03*
X03075D03*
X03175D03*
X03275D03*
G54D83*
X04832Y01915D03*
X06385Y02215D03*
X0459D03*
X05745Y0128D03*
X0487D03*
X03985Y01285D03*
X02675Y0221D03*
G54D84*
X0832Y0321D03*
Y03107D03*
X0832Y03292D03*
Y03024D03*
X08221Y03292D03*
Y03024D03*
G54D85*
X08488Y03158D03*
X08449Y02889D03*
Y03428D03*
G54D86*
X02735Y04115D03*
G54D87*
X02735Y04015D03*
Y03915D03*
G54D88*
X0191Y0287D03*
X04225Y0288D03*
G54D89*
X0352Y01456D03*
Y01133D03*
G54D90*
X0352Y01295D03*
Y01216D03*
Y01373D03*
G54D91*
X02835Y0144D03*
X01885Y01975D03*
X0283Y0198D03*
G54D92*
X03915Y0274D03*
Y0288D03*
X0821Y02675D03*
X08245Y0259D03*
X01915Y01325D03*
X0195Y01425D03*
X0664Y0349D03*
Y03365D03*
X0663Y0323D03*
X0662Y0291D03*
X07915Y0279D03*
X0796Y04377D03*
Y0269D03*
X07945Y0257D03*
X0794Y02933D03*
Y03053D03*
Y03294D03*
Y03415D03*
Y03536D03*
Y03656D03*
Y03777D03*
Y03897D03*
Y04018D03*
Y04138D03*
Y04259D03*
X07338Y0211D03*
X07377Y02145D03*
X0585Y02792D03*
X05776Y02694D03*
X0533Y03687D03*
X0557Y01835D03*
X05502D03*
X05488Y01862D03*
X05925Y0415D03*
X044Y03605D03*
X04528Y03585D03*
X04188Y02689D03*
X03162Y0151D03*
X0753Y0426D03*
X0754Y0443D03*
X07147Y0176D03*
X0572Y02084D03*
X05238Y02061D03*
X0296Y0132D03*
X031Y02747D03*
X03076Y02768D03*
X03092Y0259D03*
X02981Y02388D03*
X02978Y02328D03*
X06322Y03882D03*
X05265Y04078D03*
X05538Y03998D03*
X05838Y03963D03*
X04625Y03136D03*
X04511Y03165D03*
X04062Y03065D03*
X04103Y03036D03*
X05385Y02106D03*
Y01788D03*
X05418Y01785D03*
X05785Y0162D03*
X0583Y0411D03*
X04258Y03605D03*
X07244Y0395D03*
X0611Y04185D03*
X02398Y02949D03*
X02162Y03185D03*
X0633Y0421D03*
X03156Y02784D03*
X07623Y02755D03*
X04638Y03564D03*
X03699Y02781D03*
X06256Y03882D03*
X07144Y03855D03*
X06035Y03929D03*
X03504Y04425D03*
Y03629D03*
X06633Y04271D03*
X06957Y04069D03*
X0351Y03038D03*
X03611Y03869D03*
X03776Y03612D03*
X02683Y03245D03*
X04925Y03241D03*
X0523Y03785D03*
Y04106D03*
X0573D03*
X0533Y0405D03*
X0553D03*
X05225Y0332D03*
X0543Y0401D03*
X03186Y01582D03*
X0828Y01695D03*
X07765D03*
X03489Y02747D03*
X0268Y033D03*
X03122Y0308D03*
X04145Y0306D03*
X01754Y03314D03*
X03338Y02948D03*
X03317Y02789D03*
X0438Y0148D03*
X04735Y01435D03*
X05275D03*
X0183Y04063D03*
X02254Y0358D03*
X0205Y03735D03*
X04045Y02709D03*
X02225Y03845D03*
X0205Y03766D03*
X04045Y02667D03*
X04163Y02654D03*
X05808Y01992D03*
X05075Y0212D03*
X04195D03*
X05101Y02025D03*
X05032Y02094D03*
X04016Y02383D03*
X0434Y02065D03*
X04933D03*
X0549Y0265D03*
X0767Y02145D03*
X06075Y0267D03*
X05633D03*
X0726Y0207D03*
X0741Y0192D03*
X07165Y02095D03*
X0743Y0183D03*
X07715Y01732D03*
X02472Y03652D03*
X0266Y03532D03*
X03704Y03558D03*
X04052Y02957D03*
X04139Y03006D03*
X03675Y03588D03*
X02627Y03556D03*
X02501Y03681D03*
X0253Y0371D03*
X02635Y03604D03*
X03634Y03636D03*
X0199Y0371D03*
X03454Y02318D03*
X02995Y02625D03*
X0659Y01705D03*
X0689Y02005D03*
X03047Y0259D03*
X0341Y03045D03*
X04125Y0263D03*
X04045D03*
X0205Y03797D03*
X07235Y01695D03*
X0279Y0274D03*
X0423Y0113D03*
X04825Y03215D03*
X02444Y01765D03*
X05625D03*
X02586Y02762D03*
X06865Y04187D03*
X0623Y03899D03*
X03529Y03657D03*
Y04477D03*
X0643Y0384D03*
X07513Y0245D03*
X0643Y04235D03*
X05265Y0372D03*
X0563Y04078D03*
X06491Y04243D03*
X0653Y0425D03*
X07426Y03639D03*
X0623Y04195D03*
X0603Y0415D03*
X06811Y02907D03*
X06955Y02831D03*
X04325Y03537D03*
X04293Y03591D03*
X03317Y04309D03*
X05325Y03345D03*
X05025Y0327D03*
X04725Y03125D03*
X07745Y0217D03*
X08178D03*
X08465Y02197D03*
X05425Y0336D03*
X05125Y03295D03*
X04425Y03191D03*
X0563Y0398D03*
X05525Y03365D03*
X0573Y0398D03*
X03075Y02365D03*
X056Y0186D03*
X06475Y01905D03*
X06595Y0182D03*
X07045Y0176D03*
X0581Y02705D03*
X0585Y02715D03*
X05855Y0275D03*
X05865Y0282D03*
M02*