%FSTAX23Y23*%
%MOIN*%
%SFA1B1*%

%IPPOS*%
%ADD19C,0.002360*%
%ADD20C,0.004720*%
%ADD21C,0.002700*%
%ADD44O,0.070000X0.098000*%
%ADD45R,0.070000X0.098000*%
%ADD46C,0.128000*%
%ADD47R,0.082000X0.082000*%
%ADD48C,0.082000*%
%ADD49C,0.068000*%
%ADD50R,0.078870X0.078870*%
%ADD51C,0.078870*%
%ADD52O,0.094610X0.047370*%
%ADD53O,0.078870X0.047370*%
%ADD54C,0.072960*%
%ADD55R,0.072960X0.072960*%
%ADD56C,0.067060*%
%ADD57R,0.067060X0.067060*%
%ADD58C,0.070990*%
%ADD59C,0.165480*%
%ADD60R,0.070990X0.070990*%
%ADD61C,0.070990*%
%ADD62R,0.078870X0.078870*%
%ADD63O,0.126110X0.086740*%
%ADD64O,0.059180X0.070990*%
%ADD65C,0.047240*%
%ADD66R,0.047240X0.047240*%
%ADD67R,0.067060X0.067060*%
%ADD68R,0.047240X0.047240*%
%LN6502_carrier-1*%
%LPD*%
G54D19*
X06814Y04405D02*
D01*
X06814Y04405*
X06814Y04405*
X06814Y04405*
X06814Y04405*
X06814Y04405*
X06814Y04405*
X06814Y04405*
X06814Y04406*
X06814Y04406*
X06814Y04406*
X06814Y04406*
X06814Y04406*
X06814Y04406*
X06814Y04406*
X06813Y04406*
X06813Y04406*
X06813Y04406*
X06813Y04406*
X06813Y04406*
X06813Y04406*
X06813Y04406*
X06813Y04406*
X06813*
X06813Y04406*
X06813Y04406*
X06813Y04406*
X06812Y04406*
X06812Y04406*
X06812Y04406*
X06812Y04406*
X06812Y04406*
X06812Y04406*
X06812Y04406*
X06812Y04406*
X06812Y04406*
X06812Y04406*
X06812Y04406*
X06812Y04405*
X06812Y04405*
X06812Y04405*
X06812Y04405*
X06812Y04405*
X06812Y04405*
X06812Y04405*
X06812Y04405*
X06812Y04405*
X06812Y04405*
X06812Y04405*
X06812Y04405*
X06812Y04405*
X06812Y04404*
X06812Y04404*
X06812Y04404*
X06812Y04404*
X06812Y04404*
X06812Y04404*
X06812Y04404*
X06812Y04404*
X06812Y04404*
X06812Y04404*
X06812Y04404*
X06812Y04404*
X06812Y04404*
X06813Y04404*
X06813Y04404*
X06813Y04404*
X06813Y04404*
X06813*
X06813Y04404*
X06813Y04404*
X06813Y04404*
X06813Y04404*
X06813Y04404*
X06813Y04404*
X06813Y04404*
X06814Y04404*
X06814Y04404*
X06814Y04404*
X06814Y04404*
X06814Y04404*
X06814Y04404*
X06814Y04404*
X06814Y04404*
X06814Y04404*
X06814Y04405*
X06814Y04405*
X06814Y04405*
X06814Y04405*
X06814Y04405*
X06814Y04405*
X0815Y03507D02*
D01*
X0815Y03507*
X0815Y03507*
X0815Y03507*
X0815Y03507*
X08149Y03507*
X08149Y03507*
X08149Y03507*
X08149Y03507*
X08149Y03507*
X08149Y03507*
X08149Y03508*
X08149Y03508*
X08149Y03508*
X08149Y03508*
X08149Y03508*
X08149Y03508*
X08149Y03508*
X08149Y03508*
X08149Y03508*
X08149Y03508*
X08149Y03508*
X08148Y03508*
X08148*
X08148Y03508*
X08148Y03508*
X08148Y03508*
X08148Y03508*
X08148Y03508*
X08148Y03508*
X08148Y03508*
X08148Y03508*
X08148Y03508*
X08148Y03508*
X08148Y03508*
X08147Y03507*
X08147Y03507*
X08147Y03507*
X08147Y03507*
X08147Y03507*
X08147Y03507*
X08147Y03507*
X08147Y03507*
X08147Y03507*
X08147Y03507*
X08147Y03507*
X08147Y03507*
X08147Y03507*
X08147Y03506*
X08147Y03506*
X08147Y03506*
X08147Y03506*
X08147Y03506*
X08147Y03506*
X08147Y03506*
X08147Y03506*
X08148Y03506*
X08148Y03506*
X08148Y03506*
X08148Y03506*
X08148Y03506*
X08148Y03506*
X08148Y03506*
X08148Y03506*
X08148Y03506*
X08148Y03506*
X08148Y03506*
X08148Y03506*
X08148*
X08149Y03506*
X08149Y03506*
X08149Y03506*
X08149Y03506*
X08149Y03506*
X08149Y03506*
X08149Y03506*
X08149Y03506*
X08149Y03506*
X08149Y03506*
X08149Y03506*
X08149Y03506*
X08149Y03506*
X08149Y03506*
X08149Y03506*
X08149Y03506*
X08149Y03506*
X0815Y03506*
X0815Y03506*
X0815Y03507*
X0815Y03507*
X0815Y03507*
X05169Y04404D02*
D01*
X05169Y04404*
X05169Y04404*
X05169Y04404*
X05169Y04404*
X05169Y04404*
X05169Y04404*
X05169Y04404*
X05169Y04405*
X05169Y04405*
X05169Y04405*
X05169Y04405*
X05169Y04405*
X05169Y04405*
X05169Y04405*
X05168Y04405*
X05168Y04405*
X05168Y04405*
X05168Y04405*
X05168Y04405*
X05168Y04405*
X05168Y04405*
X05168Y04405*
X05168*
X05168Y04405*
X05168Y04405*
X05168Y04405*
X05167Y04405*
X05167Y04405*
X05167Y04405*
X05167Y04405*
X05167Y04405*
X05167Y04405*
X05167Y04405*
X05167Y04405*
X05167Y04405*
X05167Y04405*
X05167Y04405*
X05167Y04404*
X05167Y04404*
X05167Y04404*
X05167Y04404*
X05167Y04404*
X05167Y04404*
X05167Y04404*
X05167Y04404*
X05167Y04404*
X05167Y04404*
X05167Y04404*
X05167Y04404*
X05167Y04404*
X05167Y04403*
X05167Y04403*
X05167Y04403*
X05167Y04403*
X05167Y04403*
X05167Y04403*
X05167Y04403*
X05167Y04403*
X05167Y04403*
X05167Y04403*
X05167Y04403*
X05167Y04403*
X05167Y04403*
X05168Y04403*
X05168Y04403*
X05168Y04403*
X05168Y04403*
X05168*
X05168Y04403*
X05168Y04403*
X05168Y04403*
X05168Y04403*
X05168Y04403*
X05168Y04403*
X05168Y04403*
X05169Y04403*
X05169Y04403*
X05169Y04403*
X05169Y04403*
X05169Y04403*
X05169Y04403*
X05169Y04403*
X05169Y04403*
X05169Y04403*
X05169Y04404*
X05169Y04404*
X05169Y04404*
X05169Y04404*
X05169Y04404*
X05169Y04404*
X01856Y02834D02*
D01*
X01856Y02834*
X01856Y02834*
X01856Y02834*
X01856Y02834*
X01856Y02834*
X01856Y02835*
X01856Y02835*
X01856Y02835*
X01855Y02835*
X01855Y02835*
X01855Y02835*
X01855Y02835*
X01855Y02835*
X01855Y02835*
X01855Y02835*
X01855Y02835*
X01855Y02835*
X01855Y02835*
X01855Y02835*
X01855Y02835*
X01855Y02835*
X01855Y02835*
X01854*
X01854Y02835*
X01854Y02835*
X01854Y02835*
X01854Y02835*
X01854Y02835*
X01854Y02835*
X01854Y02835*
X01854Y02835*
X01854Y02835*
X01854Y02835*
X01854Y02835*
X01854Y02835*
X01854Y02835*
X01853Y02835*
X01853Y02835*
X01853Y02835*
X01853Y02834*
X01853Y02834*
X01853Y02834*
X01853Y02834*
X01853Y02834*
X01853Y02834*
X01853Y02834*
X01853Y02834*
X01853Y02834*
X01853Y02834*
X01853Y02834*
X01853Y02834*
X01853Y02834*
X01853Y02833*
X01854Y02833*
X01854Y02833*
X01854Y02833*
X01854Y02833*
X01854Y02833*
X01854Y02833*
X01854Y02833*
X01854Y02833*
X01854Y02833*
X01854Y02833*
X01854Y02833*
X01854Y02833*
X01854Y02833*
X01854Y02833*
X01855*
X01855Y02833*
X01855Y02833*
X01855Y02833*
X01855Y02833*
X01855Y02833*
X01855Y02833*
X01855Y02833*
X01855Y02833*
X01855Y02833*
X01855Y02833*
X01855Y02833*
X01855Y02833*
X01855Y02833*
X01856Y02833*
X01856Y02834*
X01856Y02834*
X01856Y02834*
X01856Y02834*
X01856Y02834*
X01856Y02834*
X01856Y02834*
X01856Y02834*
X04171Y02844D02*
D01*
X04171Y02844*
X04171Y02844*
X04171Y02844*
X04171Y02844*
X04171Y02844*
X04171Y02845*
X04171Y02845*
X04171Y02845*
X0417Y02845*
X0417Y02845*
X0417Y02845*
X0417Y02845*
X0417Y02845*
X0417Y02845*
X0417Y02845*
X0417Y02845*
X0417Y02845*
X0417Y02845*
X0417Y02845*
X0417Y02845*
X0417Y02845*
X0417Y02845*
X04169*
X04169Y02845*
X04169Y02845*
X04169Y02845*
X04169Y02845*
X04169Y02845*
X04169Y02845*
X04169Y02845*
X04169Y02845*
X04169Y02845*
X04169Y02845*
X04169Y02845*
X04169Y02845*
X04169Y02845*
X04168Y02845*
X04168Y02845*
X04168Y02845*
X04168Y02844*
X04168Y02844*
X04168Y02844*
X04168Y02844*
X04168Y02844*
X04168Y02844*
X04168Y02844*
X04168Y02844*
X04168Y02844*
X04168Y02844*
X04168Y02844*
X04168Y02844*
X04168Y02844*
X04168Y02843*
X04169Y02843*
X04169Y02843*
X04169Y02843*
X04169Y02843*
X04169Y02843*
X04169Y02843*
X04169Y02843*
X04169Y02843*
X04169Y02843*
X04169Y02843*
X04169Y02843*
X04169Y02843*
X04169Y02843*
X04169Y02843*
X0417*
X0417Y02843*
X0417Y02843*
X0417Y02843*
X0417Y02843*
X0417Y02843*
X0417Y02843*
X0417Y02843*
X0417Y02843*
X0417Y02843*
X0417Y02843*
X0417Y02843*
X0417Y02843*
X0417Y02843*
X04171Y02843*
X04171Y02844*
X04171Y02844*
X04171Y02844*
X04171Y02844*
X04171Y02844*
X04171Y02844*
X04171Y02844*
X04171Y02844*
X03426Y01495D02*
D01*
X03426Y01495*
X03426Y01495*
X03426Y01495*
X03426Y01495*
X03426Y01495*
X03426Y01496*
X03426Y01496*
X03426Y01496*
X03425Y01496*
X03425Y01496*
X03425Y01496*
X03425Y01496*
X03425Y01496*
X03425Y01496*
X03425Y01496*
X03425Y01496*
X03425Y01496*
X03425Y01496*
X03425Y01496*
X03425Y01496*
X03425Y01496*
X03425Y01496*
X03424*
X03424Y01496*
X03424Y01496*
X03424Y01496*
X03424Y01496*
X03424Y01496*
X03424Y01496*
X03424Y01496*
X03424Y01496*
X03424Y01496*
X03424Y01496*
X03424Y01496*
X03424Y01496*
X03424Y01496*
X03423Y01496*
X03423Y01496*
X03423Y01496*
X03423Y01495*
X03423Y01495*
X03423Y01495*
X03423Y01495*
X03423Y01495*
X03423Y01495*
X03423Y01495*
X03423Y01495*
X03423Y01495*
X03423Y01495*
X03423Y01495*
X03423Y01495*
X03423Y01494*
X03423Y01494*
X03424Y01494*
X03424Y01494*
X03424Y01494*
X03424Y01494*
X03424Y01494*
X03424Y01494*
X03424Y01494*
X03424Y01494*
X03424Y01494*
X03424Y01494*
X03424Y01494*
X03424Y01494*
X03424Y01494*
X03424Y01494*
X03425*
X03425Y01494*
X03425Y01494*
X03425Y01494*
X03425Y01494*
X03425Y01494*
X03425Y01494*
X03425Y01494*
X03425Y01494*
X03425Y01494*
X03425Y01494*
X03425Y01494*
X03425Y01494*
X03425Y01494*
X03426Y01494*
X03426Y01494*
X03426Y01495*
X03426Y01495*
X03426Y01495*
X03426Y01495*
X03426Y01495*
X03426Y01495*
X03426Y01495*
G54D20*
X0433Y01832D02*
D01*
X0433Y01832*
X0433Y01833*
X0433Y01833*
X04329Y01833*
X04329Y01833*
X04329Y01833*
X04329Y01833*
X04329Y01833*
X04329Y01834*
X04329Y01834*
X04329Y01834*
X04329Y01834*
X04329Y01834*
X04329Y01834*
X04328Y01834*
X04328Y01834*
X04328Y01834*
X04328Y01834*
X04328Y01834*
X04328Y01835*
X04327Y01835*
X04327Y01835*
X04327*
X04327Y01835*
X04327Y01835*
X04327Y01834*
X04326Y01834*
X04326Y01834*
X04326Y01834*
X04326Y01834*
X04326Y01834*
X04326Y01834*
X04326Y01834*
X04326Y01834*
X04325Y01834*
X04325Y01834*
X04325Y01833*
X04325Y01833*
X04325Y01833*
X04325Y01833*
X04325Y01833*
X04325Y01833*
X04325Y01833*
X04325Y01832*
X04325Y01832*
X04325Y01832*
X04325Y01832*
X04325Y01832*
X04325Y01832*
X04325Y01831*
X04325Y01831*
X04325Y01831*
X04325Y01831*
X04325Y01831*
X04325Y01831*
X04326Y01831*
X04326Y0183*
X04326Y0183*
X04326Y0183*
X04326Y0183*
X04326Y0183*
X04326Y0183*
X04326Y0183*
X04327Y0183*
X04327Y0183*
X04327Y0183*
X04327Y0183*
X04327*
X04327Y0183*
X04328Y0183*
X04328Y0183*
X04328Y0183*
X04328Y0183*
X04328Y0183*
X04328Y0183*
X04329Y0183*
X04329Y0183*
X04329Y0183*
X04329Y01831*
X04329Y01831*
X04329Y01831*
X04329Y01831*
X04329Y01831*
X04329Y01831*
X04329Y01831*
X04329Y01832*
X0433Y01832*
X0433Y01832*
X0433Y01832*
X0433Y01832*
G54D21*
X0867Y0107D02*
Y04555D01*
X0171D02*
X0867D01*
X0171Y0107D02*
Y04555D01*
Y0107D02*
X0867D01*
G54D44*
X0306Y04195D03*
X0336D03*
Y03895D03*
G54D45*
X0306Y03895D03*
G54D46*
X06745Y01235D03*
Y02455D03*
X03785Y01235D03*
Y02455D03*
G54D47*
X04Y02455D03*
G54D48*
X041Y02455D03*
X042D03*
X043D03*
X044D03*
X045D03*
X046D03*
X047D03*
X048D03*
X049D03*
X05D03*
X051D03*
X052D03*
X053D03*
X054D03*
X055D03*
G54D49*
X07245Y01179D03*
Y04429D03*
X0182Y0118D03*
X08545Y0443D03*
X0182D03*
X08545Y0118D03*
G54D50*
X0673Y0437D03*
X05085Y04369D03*
G54D51*
X0613Y0437D03*
X0663D03*
X0653D03*
X0643D03*
X0633D03*
X0623D03*
X0603D03*
X0593D03*
X0583D03*
X0573D03*
X0563D03*
X0553D03*
X0543D03*
Y03746D03*
X0553D03*
X0563D03*
X0573D03*
X0583D03*
X0593D03*
X0603D03*
X0613D03*
X0623D03*
X0633D03*
X0643D03*
X0653D03*
X0663D03*
X0673D03*
X05085Y03745D03*
X04985D03*
X04885D03*
X04785D03*
X04685D03*
X04585D03*
X04485D03*
X04385D03*
X04285D03*
X04185D03*
X04085D03*
X03985D03*
X03885D03*
X03785D03*
Y04368D03*
X03885D03*
X03985D03*
X04085D03*
X04185D03*
X04285D03*
X04385D03*
X04585D03*
X04685D03*
X04785D03*
X04885D03*
X04985D03*
X04485D03*
X0191Y0347D03*
X0201D03*
X0211D03*
X0221D03*
X0231D03*
X0241D03*
X0251D03*
X0261D03*
X0271D03*
X0281D03*
X0291D03*
X0301D03*
X0311D03*
X0321D03*
X0331D03*
X0341D03*
X0351D03*
X0361D03*
X0371D03*
X0381D03*
Y0287D03*
X0371D03*
X0361D03*
X0351D03*
X0341D03*
X0331D03*
X0321D03*
X0311D03*
X0301D03*
X0291D03*
X0281D03*
X0271D03*
X0261D03*
X0251D03*
X0241D03*
X0231D03*
X0221D03*
X0211D03*
X0201D03*
X04225Y0348D03*
X04325D03*
X04425D03*
X04525D03*
X04625D03*
X04725D03*
X04825D03*
X04925D03*
X05025D03*
X05125D03*
X05225D03*
X05325D03*
X05425D03*
X05525D03*
X05625D03*
X05725D03*
X05825D03*
X05925D03*
X06025D03*
X06125D03*
Y0288D03*
X06025D03*
X05925D03*
X05825D03*
X05725D03*
X05625D03*
X05525D03*
X05425D03*
X05325D03*
X05225D03*
X05125D03*
X05025D03*
X04925D03*
X04825D03*
X04725D03*
X04625D03*
X04525D03*
X04425D03*
X04325D03*
G54D52*
X08572Y02464D03*
Y02124D03*
G54D53*
X08415Y02464D03*
Y02124D03*
G54D54*
X0721Y038D03*
X0731D03*
X0721Y036D03*
X0731D03*
X0721Y034D03*
X0731D03*
X0721Y031D03*
X0731D03*
X0721Y029D03*
X0731D03*
X0721Y027D03*
X0731D03*
X0721Y026D03*
X0731D03*
X0721Y023D03*
X0731D03*
X0721Y022D03*
X0731Y024D03*
X0721D03*
X0731Y025D03*
X0721D03*
X0731Y028D03*
X0721D03*
X0731Y03D03*
X0721D03*
X0731Y032D03*
X0721D03*
X0731Y033D03*
X0721D03*
X0731Y035D03*
X0721D03*
X0731Y037D03*
X0721D03*
X0731Y039D03*
Y04D03*
Y041D03*
X0721Y039D03*
Y04D03*
Y041D03*
X0243Y0391D03*
X0253Y0401D03*
Y0411D03*
X0243Y0401D03*
Y0411D03*
X02152Y0391D03*
X02252Y0401D03*
Y0411D03*
X02152Y0401D03*
Y0411D03*
X01875Y0391D03*
X01975Y0401D03*
Y0411D03*
X01875Y0401D03*
Y0411D03*
G54D55*
X0731Y022D03*
X0253Y0391D03*
X02252D03*
X01975D03*
G54D56*
X05532Y02215D03*
X05432D03*
X05332D03*
X05232D03*
X05132D03*
X05032D03*
X04932D03*
X04832D03*
X05532Y01915D03*
X05432D03*
X05332D03*
X05232D03*
X05132D03*
X05032D03*
X04932D03*
X05685D03*
X05785D03*
X05885D03*
X05985D03*
X06085D03*
X06185D03*
X06285D03*
X06385D03*
X05685Y02215D03*
X05785D03*
X05885D03*
X05985D03*
X06085D03*
X06185D03*
X06285D03*
X0399Y01915D03*
X0409D03*
X0419D03*
X0429D03*
X0439D03*
X0449D03*
X0459D03*
X0399Y02215D03*
X0409D03*
X0419D03*
X0429D03*
X0439D03*
X0449D03*
X06345Y0158D03*
X06245D03*
X06145D03*
X06045D03*
X05945D03*
X05845D03*
X05745D03*
X06345Y0128D03*
X06245D03*
X06145D03*
X06045D03*
X05945D03*
X05845D03*
X0547Y0158D03*
X0537D03*
X0527D03*
X0517D03*
X0507D03*
X0497D03*
X0487D03*
X0547Y0128D03*
X0537D03*
X0527D03*
X0517D03*
X0507D03*
X0497D03*
X04585Y01585D03*
X04485D03*
X04385D03*
X04285D03*
X04185D03*
X04085D03*
X03985D03*
X04585Y01285D03*
X04485D03*
X04385D03*
X04285D03*
X04185D03*
X04085D03*
X02835Y0134D03*
Y0124D03*
Y0114D03*
X03135Y0144D03*
Y0134D03*
Y0124D03*
Y0114D03*
X01885Y01875D03*
Y01775D03*
Y01675D03*
X02185Y01975D03*
Y01875D03*
Y01775D03*
Y01675D03*
X0283Y0188D03*
Y0178D03*
Y0168D03*
X0313Y0198D03*
Y0188D03*
Y0178D03*
Y0168D03*
X02775Y0221D03*
X02875D03*
X02975D03*
X03075D03*
X03175D03*
X03275D03*
X02675Y0251D03*
X02775D03*
X02875D03*
X02975D03*
X03075D03*
X03175D03*
X03275D03*
G54D57*
X04832Y01915D03*
X06385Y02215D03*
X0459D03*
X05745Y0128D03*
X0487D03*
X03985Y01285D03*
X02675Y0221D03*
G54D58*
X0832Y0321D03*
Y03107D03*
X0832Y03292D03*
Y03024D03*
X08221Y03292D03*
Y03024D03*
G54D59*
X08488Y03158D03*
X08449Y02889D03*
Y03428D03*
G54D60*
X02735Y04115D03*
G54D61*
X02735Y04015D03*
Y03915D03*
G54D62*
X0191Y0287D03*
X04225Y0288D03*
G54D63*
X0352Y01456D03*
Y01133D03*
G54D64*
X0352Y01295D03*
Y01216D03*
Y01373D03*
G54D65*
X0353Y02275D03*
Y02375D03*
Y01715D03*
Y01815D03*
G54D66*
X0353Y02475D03*
G54D67*
X02835Y0144D03*
X01885Y01975D03*
X0283Y0198D03*
G54D68*
X0353Y01915D03*
M02*