%FSTAX23Y23*%
%MOIN*%
%SFA1B1*%

%IPPOS*%
%ADD10C,0.009840*%
%ADD11C,0.010000*%
%ADD26C,0.023620*%
%ADD27C,0.007870*%
%LNeeprom_programmer-1*%
%LPD*%
G54D10*
X03769Y01678D02*
D01*
D01*
G75*
G03X0376I-00004J0D01*
G74*G01*
D01*
G75*
G03X03769I00004J0D01*
G74*G01*
Y02573D02*
D01*
D01*
G75*
G03X0376I-00004J0D01*
G74*G01*
D01*
G75*
G03X03769I00004J0D01*
G74*G01*
G54D11*
X0384Y0316D02*
Y0312D01*
X0385*
X0389Y0316*
X039*
Y0307D02*
X0384D01*
X0387Y031*
Y0306*
X0384Y0304D02*
X039D01*
X0387*
Y03*
X0384*
X039*
X0385Y0294D02*
X0384Y0295D01*
Y0297*
X0385Y0298*
X0389*
X039Y0297*
Y0295*
X0389Y0294*
X0384Y0288D02*
Y0292D01*
X0387*
X0386Y029*
Y0289*
X0387Y0288*
X0389*
X039Y0289*
Y0291*
X0389Y0292*
Y0286D02*
X039Y0285D01*
Y0283*
X0389Y0282*
X0385*
X0384Y0283*
Y0285*
X0385Y0286*
X0386*
X0387Y0285*
Y0282*
X0384Y0276D02*
Y028D01*
X0387*
X0386Y0278*
Y0277*
X0387Y0276*
X0389*
X039Y0277*
Y0279*
X0389Y028*
X03885Y02255D02*
Y02215D01*
X03895*
X03935Y02255*
X03945*
Y02165D02*
X03885D01*
X03915Y02195*
Y02155*
X03885Y02135D02*
X03945D01*
X03915*
Y02095*
X03885*
X03945*
X03895Y02035D02*
X03885Y02045D01*
Y02065*
X03895Y02075*
X03935*
X03945Y02065*
Y02045*
X03935Y02035*
X03885Y01975D02*
Y02015D01*
X03915*
X03905Y01995*
Y01985*
X03915Y01975*
X03935*
X03945Y01985*
Y02005*
X03935Y02015*
Y01955D02*
X03945Y01945D01*
Y01925*
X03935Y01915*
X03895*
X03885Y01925*
Y01945*
X03895Y01955*
X03905*
X03915Y01945*
Y01915*
X03885Y01855D02*
Y01895D01*
X03915*
X03905Y01875*
Y01865*
X03915Y01855*
X03935*
X03945Y01865*
Y01885*
X03935Y01895*
X03969Y02554D02*
Y02505D01*
X03959Y02495*
X03939*
X0393Y02505*
Y02554*
X0391Y02544D02*
X039Y02554D01*
X0388*
X0387Y02544*
Y02535*
X0388Y02525*
X0389*
X0388*
X0387Y02515*
Y02505*
X0388Y02495*
X039*
X0391Y02505*
X04224Y03354D02*
Y03305D01*
X04214Y03295*
X04194*
X04185Y03305*
Y03354*
X04125Y03295D02*
X04165D01*
X04125Y03335*
Y03344*
X04135Y03354*
X04155*
X04165Y03344*
G54D26*
X03861Y01731D02*
D01*
D01*
G75*
G03X03838I-00011J0D01*
G74*G01*
D01*
G75*
G03X03861I00011J0D01*
G74*G01*
Y02626D02*
D01*
D01*
G75*
G03X03838I-00011J0D01*
G74*G01*
D01*
G75*
G03X03861I00011J0D01*
G74*G01*
G54D27*
X0394Y01692D02*
D01*
D01*
G75*
G03X0389I-00025J0D01*
G74*G01*
X0394Y02587D02*
D01*
D01*
G75*
G03X0389I-00025J0D01*
G74*G01*
X0381Y02467D02*
X04019D01*
X0394Y01692D02*
X04019D01*
X0381D02*
X0389D01*
X04019D02*
Y02467D01*
X0381Y01692D02*
Y02467D01*
Y03362D02*
X04019D01*
X0394Y02587D02*
X04019D01*
X0381D02*
X0389D01*
X04019D02*
Y03362D01*
X0381Y02587D02*
Y03362D01*
M02*