%FSTAX23Y23*%
%MOIN*%
%SFA1B1*%

%IPPOS*%
%ADD11C,0.010000*%
%ADD19C,0.059060*%
%ADD20R,0.059060X0.059060*%
%ADD21C,0.070870*%
%ADD22R,0.070870X0.070870*%
%ADD23C,0.070000*%
%ADD24R,0.070000X0.070000*%
%ADD25C,0.050000*%
%LNeeprom_programmer-1*%
%LPD*%
G36*
X03794Y03292D02*
Y03257D01*
X0379Y03255*
X03789Y03256*
X0378Y03261*
X0377Y03264*
X03759*
X03749Y03261*
X0374Y03256*
X03733Y03249*
X03728Y0324*
X03725Y0323*
Y03219*
X03728Y03209*
X03733Y032*
X0374Y03193*
X03749Y03188*
X03759Y03185*
X0377*
X0378Y03188*
X03789Y03193*
X0379Y03194*
X03794Y03192*
Y03157*
X0379Y03155*
X03789Y03156*
X0378Y03161*
X0377Y03164*
X03759*
X03749Y03161*
X0374Y03156*
X03733Y03149*
X03728Y0314*
X03725Y0313*
Y03119*
X03728Y03109*
X03733Y031*
X0374Y03093*
X03749Y03088*
X03759Y03085*
X0377*
X0378Y03088*
X03789Y03093*
X0379Y03094*
X03794Y03092*
Y03057*
X0379Y03055*
X03789Y03056*
X0378Y03061*
X0377Y03064*
X03759*
X03749Y03061*
X0374Y03056*
X03733Y03049*
X03728Y0304*
X03725Y0303*
Y03019*
X03728Y03009*
X03733Y03*
X0374Y02993*
X03749Y02988*
X03759Y02985*
X0377*
X0378Y02988*
X03789Y02993*
X0379Y02994*
X03794Y02992*
Y02957*
X0379Y02955*
X03789Y02956*
X0378Y02961*
X0377Y02964*
X03759*
X03749Y02961*
X0374Y02956*
X03733Y02949*
X03728Y0294*
X03725Y0293*
Y02919*
X03728Y02909*
X03733Y029*
X0374Y02893*
X03749Y02888*
X03759Y02885*
X0377*
X0378Y02888*
X03789Y02893*
X0379Y02894*
X03794Y02892*
Y02857*
X0379Y02855*
X03789Y02856*
X0378Y02861*
X0377Y02864*
X03759*
X03749Y02861*
X0374Y02856*
X03733Y02849*
X03728Y0284*
X03725Y0283*
Y02819*
X03728Y02809*
X0372Y02802*
X03715Y02803*
Y02829*
X03714Y02835*
X03711Y0284*
X0369Y0286*
X03685Y02864*
X0368Y02865*
X03665*
Y02903*
X0368Y02919*
X03684Y02924*
X03685Y0293*
Y03223*
X03749Y03288*
X03759Y03285*
X0377*
X0378Y03288*
X03789Y03293*
X0379Y03294*
X03794Y03292*
G37*
G36*
X03741Y03356D02*
X0374Y03356D01*
X03733Y03349*
X03728Y0334*
X03725Y0333*
Y03319*
X03728Y03309*
X03659Y0324*
X03655Y03235*
X03654Y0323*
Y03225*
X03575*
Y03208*
X0357Y03206*
X0348Y03295*
X03475Y03299*
X0347Y033*
X03338*
X03332Y03299*
X03331Y03298*
X03328Y03302*
X03387Y03361*
X03739*
X03741Y03356*
G37*
G36*
X04154Y03213D02*
Y03163D01*
X0415Y03161*
X04101Y03209*
X04104Y03219*
Y0323*
X04101Y0324*
X04096Y03249*
X04095Y0325*
X04097Y03254*
X04113*
X04154Y03213*
G37*
G36*
X0435Y01645D02*
X03861D01*
X03861Y0165*
X03865Y0165*
X0387Y01654*
X03946Y0173*
X0395Y01735*
X03951Y01741*
Y01915*
X03955Y01917*
X04028Y01845*
X04025Y01835*
Y01824*
X04028Y01814*
X04033Y01805*
X0404Y01798*
X04049Y01793*
X04059Y0179*
X0407*
X0408Y01793*
X04089Y01798*
X0409Y01799*
X04094Y01797*
Y01781*
X0408Y01766*
X0407Y01769*
X04059*
X04049Y01766*
X0404Y01761*
X04033Y01754*
X04028Y01745*
X04025Y01735*
Y01724*
X04028Y01714*
X04033Y01705*
X0404Y01698*
X04049Y01693*
X04059Y0169*
X0407*
X0408Y01693*
X04089Y01698*
X04096Y01705*
X04101Y01714*
X04104Y01724*
Y01735*
X04101Y01745*
X0412Y01764*
X04124Y01769*
X04125Y01775*
Y02285*
X04124Y0229*
X0412Y02295*
X04101Y02314*
X04104Y02324*
Y02335*
X04101Y02345*
X0412Y02364*
X04124Y02369*
X04125Y02375*
Y0258*
X04124Y02585*
X0412Y0259*
X04101Y02609*
X04104Y02619*
Y0263*
X04101Y0264*
X04145Y02683*
X04148Y02688*
X04149Y02694*
Y02787*
X04196Y02835*
X04265*
Y02925*
X04196*
X04164Y02956*
Y03107*
X04169Y03108*
X04175Y03103*
Y03035*
X04265*
Y03125*
X04196*
X04185Y03136*
Y03144*
X04189Y03146*
X04192Y03143*
X04202Y03138*
X04214Y03135*
X04225*
X04237Y03138*
X04247Y03143*
X04256Y03152*
X04261Y03162*
X04265Y03174*
Y03185*
X04261Y03197*
X04256Y03207*
X04247Y03216*
X04237Y03221*
X04225Y03225*
X04214*
X04202Y03221*
X04192Y03216*
X04189Y03213*
X04185Y03215*
Y0322*
X04184Y03225*
X0418Y0323*
X0413Y0328*
X04125Y03284*
X0412Y03285*
X04085*
X04083Y0329*
X04089Y03293*
X04096Y033*
X04101Y03309*
X04104Y03319*
Y0333*
X04101Y0334*
X04096Y03349*
X04089Y03356*
X0408Y03361*
X0407Y03364*
X04059*
X04049Y03361*
X0404Y03356*
X04033Y03349*
X04028Y0334*
X04025Y0333*
Y03319*
X04028Y03309*
X03969Y03251*
X03966Y03246*
X03965Y0324*
Y02891*
X0396Y02889*
X03956Y02893*
X03948Y02897*
X03939Y029*
X0393*
X03921Y02897*
X03913Y02893*
X03906Y02886*
X03902Y02878*
X039Y02869*
Y0286*
X03902Y02851*
X03906Y02843*
X03913Y02836*
X03921Y02832*
X0393Y0283*
X03939*
X0394Y02829*
Y02318*
X03936Y02316*
X03903Y02348*
X03898Y02352*
X03893Y02353*
X0384*
X03834Y02352*
X03829Y02348*
X03809Y02328*
X03804Y0233*
Y02335*
X03801Y02345*
X03796Y02354*
X03789Y02361*
X03783Y02364*
X03785Y02369*
X038*
X03805Y0237*
X0381Y02374*
X0382Y02384*
X03824Y02389*
X03825Y02395*
Y0258*
X03824Y02585*
X0382Y0259*
X03804Y02607*
Y02664*
X03802*
X03801Y02668*
X03801Y02669*
X0384Y02709*
X03844Y02714*
X03845Y0272*
Y03368*
X03844Y03373*
X0384Y03378*
X0381Y03408*
X03805Y03412*
X038Y03413*
X03362*
X03356Y03412*
X03351Y03408*
X02851Y02909*
X02847Y02911*
Y0298*
X03108Y03241*
X03115Y0324*
X03124*
X03133Y03242*
X03141Y03246*
X03148Y03253*
X03152Y03261*
X03155Y0327*
Y03279*
X03152Y03288*
X03148Y03296*
X03141Y03303*
X03133Y03307*
X03124Y0331*
X03115*
X03106Y03307*
X03098Y03303*
X03091Y03296*
X03087Y03288*
X03085Y03279*
Y0327*
X03086Y03263*
X02829Y03006*
X02824Y03007*
X02823Y03011*
X02817Y03021*
X02809Y0303*
X02799Y03036*
X02787Y03039*
X02775*
X02763Y03036*
X02753Y0303*
X0275Y03027*
X02746Y03029*
Y03037*
X02757Y03048*
X02826*
Y03139*
X02736*
Y0307*
X0272Y03054*
X02716Y03049*
X02715Y03043*
Y01743*
X02716Y01737*
X0272Y01732*
X02798Y01654*
X02803Y0165*
X02807Y0165*
X02807Y01645*
X02695*
Y03425*
X0435*
Y01645*
G37*
G36*
X0404Y03193D02*
X04049Y03188D01*
X04059Y03185*
X0407*
X0408Y03188*
X04134Y03134*
Y03083*
X04129Y03082*
X04101Y03109*
X04104Y03119*
Y0313*
X04101Y0314*
X04096Y03149*
X04089Y03156*
X0408Y03161*
X0407Y03164*
X04059*
X04049Y03161*
X0404Y03156*
X04039Y03155*
X04035Y03157*
Y03192*
X04039Y03194*
X0404Y03193*
G37*
G36*
X04094Y02991D02*
Y02975D01*
X0408Y02961*
X0407Y02964*
X04059*
X04049Y02961*
X0404Y02956*
X04033Y02949*
X04028Y0294*
X04025Y0293*
Y02919*
X04028Y02909*
X04033Y029*
X0404Y02893*
X04049Y02888*
X04059Y02885*
X0407*
X0408Y02888*
X04089Y02893*
X0409Y02894*
X04094Y02892*
Y02857*
X0409Y02855*
X04089Y02856*
X0408Y02861*
X0407Y02864*
X04059*
X04049Y02861*
X0404Y02856*
X04033Y02849*
X04028Y0284*
X04025Y0283*
Y02819*
X04028Y02809*
X04033Y028*
X0404Y02793*
X04049Y02788*
X04059Y02785*
X0407*
X0408Y02788*
X04089Y02793*
X0409Y02794*
X04094Y02792*
Y02757*
X0409Y02755*
X04089Y02756*
X0408Y02761*
X0407Y02764*
X04059*
X04049Y02761*
X0404Y02756*
X04033Y02749*
X04028Y0274*
X04025Y0273*
Y02719*
X04028Y02709*
X04033Y027*
X04038Y02695*
X04036Y0269*
X0403*
X04024Y02689*
X0402Y02686*
X04015Y02689*
Y02954*
X04049Y02988*
X04059Y02985*
X0407*
X0408Y02988*
X04089Y02993*
X04089Y02993*
X04094Y02991*
G37*
G36*
X04004Y03236D02*
Y03089D01*
X04005Y03083*
X04009Y03078*
X04029Y03058*
X04033Y03056*
X04034Y0305*
X04033Y03049*
X04028Y0304*
X04025Y0303*
Y03019*
X04028Y03009*
X04Y02982*
X03995Y02983*
Y03234*
X04Y03238*
X04004Y03236*
G37*
G36*
X03534Y03164D02*
Y02821D01*
X03528Y02818*
X03521Y02811*
X03517Y02803*
X03515Y02794*
Y02785*
X03517Y02776*
X03521Y02768*
X03528Y02761*
X03536Y02757*
X03545Y02755*
X03554*
X03563Y02757*
X03571Y02761*
X03573Y02763*
X03578Y02761*
X03583Y02752*
X03592Y02743*
X03602Y02738*
X03614Y02735*
X03625*
X03637Y02738*
X03647Y02743*
X0365Y02746*
X03654Y02744*
Y02715*
X0365Y02713*
X03647Y02716*
X03637Y02721*
X03625Y02725*
X03614*
X03602Y02721*
X03592Y02716*
X03583Y02707*
X03578Y02697*
X03575Y02685*
Y02674*
X03578Y02662*
X03583Y02652*
X03592Y02643*
X03602Y02638*
X03614Y02635*
X03625*
X03637Y02638*
X03647Y02643*
X0365Y02646*
X03654Y02644*
Y02615*
X0365Y02613*
X03647Y02616*
X03637Y02621*
X03625Y02625*
X03614*
X03602Y02621*
X03592Y02616*
X03583Y02607*
X03578Y02597*
X03575Y02585*
Y02574*
X03578Y02562*
X0358Y02557*
X03576Y02554*
X03507Y02624*
Y02807*
X03506Y02813*
X03502Y02818*
X03446Y02874*
X03447Y02876*
X0345Y02887*
Y02899*
X03447Y02911*
X03441Y02921*
X03433Y0293*
X03422Y02936*
X03411Y02939*
X03399*
X03387Y02936*
X03377Y0293*
X03369Y02921*
X03363Y02911*
X0336Y02899*
Y02887*
X03363Y02876*
X03369Y02865*
X03377Y02857*
X03387Y02851*
X03399Y02848*
X03411*
X03422Y02851*
X03425Y02852*
X03476Y028*
Y02618*
X03477Y02612*
X03481Y02607*
X03569Y02519*
X03574Y02515*
X0358Y02514*
X03584*
X03586Y0251*
X03583Y02507*
X03578Y02497*
X03575Y02485*
Y02474*
X03578Y02462*
X03583Y02452*
X03586Y02449*
X03584Y02445*
X03575*
X03446Y02574*
X03447Y02576*
X0345Y02587*
Y02599*
X03447Y02611*
X03441Y02621*
X03433Y0263*
X03422Y02636*
X03411Y02639*
X03399*
X03387Y02636*
X03377Y0263*
X03369Y02621*
X03363Y02611*
X0336Y02599*
Y02587*
X03363Y02576*
X03369Y02565*
X03377Y02557*
X03387Y02551*
X03399Y02548*
X03411*
X03422Y02551*
X03425Y02552*
X03558Y02419*
X03563Y02415*
X03569Y02414*
X03584*
X03586Y0241*
X03583Y02407*
X03578Y02397*
X03575Y02385*
Y02374*
X03578Y02362*
X03583Y02352*
X03586Y02349*
X03584Y02345*
X0356*
X03554Y02344*
X03549Y0234*
X03506Y02297*
X03502Y02292*
X03501Y02287*
Y02221*
X03496Y02219*
X0349Y02222*
X03481Y02225*
X03472*
X03463Y02222*
X03455Y02218*
X03451Y02214*
X03445Y02215*
X03441Y02221*
X03433Y0223*
X03422Y02236*
X03411Y02239*
X03399*
X03387Y02236*
X03377Y0223*
X03374Y02227*
X0337Y02229*
Y02258*
X03374Y0226*
X03377Y02257*
X03387Y02251*
X03399Y02248*
X03411*
X03422Y02251*
X03433Y02257*
X03441Y02265*
X03447Y02276*
X0345Y02287*
Y02299*
X03447Y02311*
X03441Y02321*
X03433Y0233*
X03422Y02336*
X03411Y02339*
X03399*
X03387Y02336*
X03377Y0233*
X03374Y02327*
X0337Y02329*
Y02337*
X03385Y02352*
X03387Y02351*
X03399Y02348*
X03411*
X03422Y02351*
X03433Y02357*
X03441Y02365*
X03447Y02376*
X0345Y02387*
Y02399*
X03447Y02411*
X03441Y02421*
X03433Y0243*
X03422Y02436*
X03411Y02439*
X03399*
X03387Y02436*
X03377Y0243*
X03369Y02421*
X03363Y02411*
X0336Y02399*
Y02387*
X03363Y02376*
X03364Y02374*
X03354Y02364*
X0335Y02366*
Y02617*
X03385Y02652*
X03387Y02651*
X03399Y02648*
X03411*
X03422Y02651*
X03433Y02657*
X03441Y02665*
X03447Y02676*
X0345Y02687*
Y02699*
X03447Y02711*
X03441Y02721*
X03433Y0273*
X03422Y02736*
X03411Y02739*
X03399*
X03387Y02736*
X03377Y0273*
X03369Y02721*
X03363Y02711*
X0336Y02699*
Y02687*
X03363Y02676*
X03364Y02674*
X03334Y02644*
X0333Y02646*
Y02897*
X03385Y02952*
X03387Y02951*
X03399Y02948*
X03411*
X03422Y02951*
X03433Y02957*
X03441Y02965*
X03447Y02976*
X0345Y02987*
Y02999*
X03447Y03011*
X03441Y03021*
X03433Y0303*
X03422Y03036*
X03411Y03039*
X03399*
X03387Y03036*
X03377Y0303*
X03369Y03021*
X03363Y03011*
X0336Y02999*
Y02987*
X03363Y02976*
X03364Y02974*
X03304Y02914*
X03303Y02912*
X03298Y02914*
Y03183*
X03364Y03249*
X03449*
X03534Y03164*
G37*
G36*
X04138Y02939D02*
X04175Y02903D01*
Y02856*
X04129Y02811*
X04125Y02813*
Y02931*
X04133Y02939*
X04138Y02939*
G37*
G36*
X0404Y02593D02*
X04049Y02588D01*
X04059Y02585*
X0407*
X0408Y02588*
X04094Y02573*
Y02462*
X0409Y0246*
X04089Y02461*
X0408Y02466*
X0407Y02469*
X04059*
X04049Y02466*
X0404Y02461*
X0404Y02461*
X04035Y02463*
Y02591*
X0404Y02593*
X0404Y02593*
G37*
G36*
X03794Y02573D02*
Y02462D01*
X0379Y0246*
X03789Y02461*
X0378Y02466*
Y02527*
X03779Y02533*
X03775Y02538*
X03733Y0258*
X03735Y02585*
X03782*
X03794Y02573*
G37*
G36*
X0288Y02887D02*
Y02514D01*
X02801Y02435*
X02799Y02436*
X02787Y02439*
X02775*
X02763Y02436*
X02753Y0243*
X0275Y02427*
X02746Y02429*
Y02458*
X0275Y0246*
X02753Y02457*
X02763Y02451*
X02775Y02448*
X02787*
X02799Y02451*
X02809Y02457*
X02817Y02465*
X02823Y02476*
X02826Y02487*
Y02499*
X02823Y02511*
X02822Y02513*
X02863Y02554*
X02867Y02559*
X02868Y02565*
Y02882*
X02875Y0289*
X0288Y02887*
G37*
G36*
X03249Y03216D02*
X03248Y03215D01*
X03247Y03209*
Y02781*
X02801Y02335*
X02799Y02336*
X02787Y02339*
X02775*
X02763Y02336*
X02753Y0233*
X0275Y02327*
X02746Y02329*
Y02358*
X0275Y0236*
X02753Y02357*
X02763Y02351*
X02775Y02348*
X02787*
X02799Y02351*
X02809Y02357*
X02817Y02365*
X02823Y02376*
X02826Y02387*
Y02399*
X02823Y02411*
X02822Y02413*
X02906Y02497*
X0291Y02502*
X02911Y02508*
Y02885*
X03245Y03219*
X03249Y03216*
G37*
G36*
X03267Y02751D02*
Y0223D01*
X03267Y0223*
X03258*
X03249Y02227*
X03241Y02223*
X03234Y02216*
X0323Y02208*
X03228Y02199*
Y0219*
X0323Y02181*
X03234Y02173*
X03241Y02166*
X03249Y02162*
X03258Y0216*
X03267*
X03276Y02162*
X03284Y02166*
X03291Y02173*
X03294Y02179*
X03299Y02178*
Y01783*
X03274Y01758*
X03267Y0176*
X03258*
X03249Y01757*
X03241Y01753*
X03234Y01746*
X0323Y01738*
X03228Y01729*
Y0172*
X0323Y01711*
X03233Y01705*
X03231Y017*
X03196*
X02822Y02074*
X02823Y02076*
X02826Y02087*
Y02099*
X02823Y02111*
X02817Y02121*
X02809Y0213*
X02799Y02136*
X02787Y02139*
X02775*
X02763Y02136*
X02753Y0213*
X0275Y02127*
X02746Y02129*
Y02158*
X0275Y0216*
X02753Y02157*
X02763Y02151*
X02775Y02148*
X02787*
X02799Y02151*
X02801Y02152*
X03147Y01805*
X03146Y01798*
Y01789*
X03148Y0178*
X03152Y01772*
X03159Y01765*
X03167Y01761*
X03176Y01759*
X03185*
X03194Y01761*
X03202Y01765*
X03209Y01772*
X03213Y0178*
X03216Y01789*
Y01798*
X03213Y01807*
X03209Y01815*
X03202Y01822*
X03194Y01826*
X03185Y01829*
X03176*
X03169Y01827*
X02822Y02174*
X02823Y02176*
X02826Y02187*
Y02199*
X02823Y02211*
X02817Y02221*
X02809Y0223*
X02799Y02236*
X02787Y02239*
X02775*
X02763Y02236*
X02753Y0223*
X0275Y02227*
X02746Y02229*
Y02258*
X0275Y0226*
X02753Y02257*
X02763Y02251*
X02775Y02248*
X02787*
X02799Y02251*
X02809Y02257*
X02817Y02265*
X02823Y02276*
X02826Y02287*
Y02299*
X02823Y02311*
X02822Y02313*
X03263Y02753*
X03267Y02751*
G37*
G36*
X03654Y02244D02*
Y02236D01*
X03639Y0222*
X03637Y02221*
X03625Y02225*
X03614*
X03602Y02221*
X03592Y02216*
X03583Y02207*
X03578Y02197*
X03575Y02185*
Y02174*
X03578Y02162*
X03583Y02152*
X03592Y02143*
X03602Y02138*
X03614Y02135*
X03625*
X03637Y02138*
X03647Y02143*
X03656Y02152*
X03661Y02162*
X03665Y02174*
Y02185*
X03661Y02197*
X0366Y02199*
X0367Y02208*
X03674Y02206*
Y02005*
X03675Y01999*
X03679Y01994*
X03728Y01945*
X03725Y01935*
Y01924*
X03728Y01914*
X03729Y01912*
X03726Y01908*
X03719Y0191*
X0371*
X03703Y01908*
X0367Y0194*
X03665Y01944*
X0366Y01945*
X03655*
X03653Y01949*
X03656Y01952*
X03661Y01962*
X03665Y01974*
Y01985*
X03661Y01997*
X03656Y02007*
X03647Y02016*
X03637Y02021*
X03625Y02025*
X03614*
X03602Y02021*
X03592Y02016*
X03583Y02007*
X03578Y01997*
X03575Y01985*
Y01974*
X03578Y01962*
X0358Y01957*
X03576Y01954*
X03565Y01966*
Y02203*
X036Y02239*
X03602Y02238*
X03614Y02235*
X03625*
X03637Y02238*
X03647Y02243*
X0365Y02246*
X03654Y02244*
G37*
G36*
X03586Y0231D02*
X03583Y02307D01*
X03578Y02297*
X03575Y02285*
Y02274*
X03578Y02262*
X03579Y0226*
X03539Y0222*
X03537Y02217*
X03532Y02219*
Y0228*
X03566Y02314*
X03584*
X03586Y0231*
G37*
G36*
X03838Y02307D02*
X03836Y02304D01*
X03834Y02295*
Y02286*
X03836Y02277*
X03841Y02269*
X03848Y02262*
X03854Y02259*
Y0221*
X03849Y02208*
X03842Y02212*
X03833Y02215*
X03824*
X03815Y02212*
X03807Y02208*
X038Y02201*
X03796Y02193*
X03794Y02184*
Y02175*
X03796Y02166*
X038Y02158*
X03807Y02151*
X03813Y02148*
Y01806*
X03802Y01795*
X03793*
X03791Y018*
X03796Y01805*
X03801Y01814*
X03804Y01824*
Y01835*
X03801Y01845*
X03796Y01854*
X03789Y01861*
X0378Y01866*
X0377Y01869*
X03759*
X03754Y01868*
X03753Y01868*
X0375Y01872*
Y01879*
X03747Y01888*
X03747Y01888*
X03748Y0189*
X0375Y01892*
X03759Y0189*
X0377*
X0378Y01893*
X03789Y01898*
X03796Y01905*
X03801Y01914*
X03804Y01924*
Y01935*
X03801Y01945*
X03796Y01954*
X03789Y01961*
X0378Y01966*
X0377Y01969*
X03759*
X03749Y01966*
X03705Y02011*
Y02161*
X03705Y02161*
X0371Y02163*
X03728Y02145*
X03725Y02135*
Y02124*
X03728Y02114*
X03733Y02105*
X0374Y02098*
X03749Y02093*
X03759Y0209*
X0377*
X0378Y02093*
X03789Y02098*
X03796Y02105*
X03801Y02114*
X03804Y02124*
Y02135*
X03801Y02145*
X03796Y02154*
X03789Y02161*
X0378Y02166*
X0377Y02169*
X03759*
X03749Y02166*
X03735Y02181*
Y02197*
X03739Y02199*
X0374Y02198*
X03749Y02193*
X03759Y0219*
X0377*
X0378Y02193*
X03789Y02198*
X03796Y02205*
X03801Y02214*
X03804Y02224*
Y02235*
X03801Y02245*
X03796Y02254*
X03789Y02261*
X03788Y02264*
X03834Y0231*
X03838Y02307*
G37*
G36*
X03448Y02169D02*
X03448Y02168D01*
X03455Y02161*
X03461Y02158*
Y01971*
X03425Y01935*
X03422Y01936*
X03411Y01939*
X03399*
X03387Y01936*
X03377Y0193*
X03374Y01927*
X0337Y01929*
Y01958*
X03374Y0196*
X03377Y01957*
X03387Y01951*
X03399Y01948*
X03411*
X03422Y01951*
X03433Y01957*
X03441Y01965*
X03447Y01976*
X0345Y01987*
Y01999*
X03447Y02011*
X03441Y02021*
X03433Y0203*
X03422Y02036*
X03411Y02039*
X03399*
X03387Y02036*
X03377Y0203*
X03374Y02027*
X0337Y02029*
Y02058*
X03374Y0206*
X03377Y02057*
X03387Y02051*
X03399Y02048*
X03411*
X03422Y02051*
X03433Y02057*
X03441Y02065*
X03447Y02076*
X0345Y02087*
Y02099*
X03447Y02111*
X03441Y02121*
X03433Y0213*
X03422Y02136*
X03411Y02139*
X03399*
X03387Y02136*
X03377Y0213*
X03374Y02127*
X0337Y02129*
Y02158*
X03374Y0216*
X03377Y02157*
X03387Y02151*
X03399Y02148*
X03411*
X03422Y02151*
X03433Y02157*
X03441Y02165*
X03443Y02169*
X03448*
G37*
G36*
X04028Y02145D02*
X04025Y02135D01*
Y02124*
X04028Y02114*
X04033Y02105*
X0404Y02098*
X04049Y02093*
X04059Y0209*
X0407*
X0408Y02093*
X04089Y02098*
X0409Y02099*
X04094Y02097*
Y02062*
X0409Y0206*
X04089Y02061*
X0408Y02066*
X0407Y02069*
X04059*
X04049Y02066*
X0404Y02061*
X04033Y02054*
X04028Y02045*
X04025Y02035*
Y02024*
X04028Y02014*
X04033Y02005*
X0404Y01998*
X04049Y01993*
X04059Y0199*
X0407*
X0408Y01993*
X04089Y01998*
X0409Y01999*
X04094Y01997*
Y01962*
X0409Y0196*
X04089Y01961*
X0408Y01966*
X0407Y01969*
X04059*
X04049Y01966*
X03995Y0202*
Y02171*
X04Y02172*
X04028Y02145*
G37*
G36*
X02753Y02057D02*
X02763Y02051D01*
X02775Y02048*
X02787*
X02799Y02051*
X02801Y02052*
X03168Y01684*
X03166Y0168*
X02815*
X02746Y01749*
Y01758*
X0275Y0176*
X02753Y01757*
X02763Y01751*
X02775Y01748*
X02787*
X02799Y01751*
X02809Y01757*
X02817Y01765*
X02823Y01776*
X02826Y01787*
Y01799*
X02823Y01811*
X02817Y01821*
X02809Y0183*
X02799Y01836*
X02787Y01839*
X02775*
X02763Y01836*
X02753Y0183*
X0275Y01827*
X02746Y01829*
Y01858*
X0275Y0186*
X02753Y01857*
X02763Y01851*
X02775Y01848*
X02787*
X02799Y01851*
X02809Y01857*
X02817Y01865*
X02823Y01876*
X02826Y01887*
Y01899*
X02823Y01911*
X02817Y01921*
X02809Y0193*
X02799Y01936*
X02787Y01939*
X02775*
X02763Y01936*
X02753Y0193*
X0275Y01927*
X02746Y01929*
Y01958*
X0275Y0196*
X02753Y01957*
X02763Y01951*
X02775Y01948*
X02787*
X02799Y01951*
X02809Y01957*
X02817Y01965*
X02823Y01976*
X02826Y01987*
Y01999*
X02823Y02011*
X02817Y02021*
X02809Y0203*
X02799Y02036*
X02787Y02039*
X02775*
X02763Y02036*
X02753Y0203*
X0275Y02027*
X02746Y02029*
Y02058*
X0275Y0206*
X02753Y02057*
G37*
G36*
X04028Y01945D02*
X04025Y01935D01*
Y01924*
X04028Y01914*
X04033Y01905*
X0404Y01898*
X04049Y01893*
X04059Y0189*
X0407*
X0408Y01893*
X04089Y01898*
X0409Y01899*
X04094Y01897*
Y01862*
X0409Y0186*
X04089Y01861*
X0408Y01866*
X0407Y01869*
X04059*
X04049Y01866*
X03971Y01945*
Y01995*
X03975Y01997*
X04028Y01945*
G37*
G36*
X03501Y02158D02*
Y01911D01*
X03425Y01835*
X03422Y01836*
X03411Y01839*
X03399*
X03387Y01836*
X03377Y0183*
X03374Y01827*
X0337Y01829*
Y01858*
X03374Y0186*
X03377Y01857*
X03387Y01851*
X03399Y01848*
X03411*
X03422Y01851*
X03433Y01857*
X03441Y01865*
X03447Y01876*
X0345Y01887*
Y01899*
X03447Y01911*
X03446Y01913*
X03487Y01954*
X03491Y01959*
X03492Y01965*
Y02158*
X03496Y0216*
X03501Y02158*
G37*
G36*
X03539Y01949D02*
X03569Y01919D01*
X03574Y01915*
X0358Y01914*
X03584*
X03586Y0191*
X03583Y01907*
X03578Y01897*
X03575Y01885*
Y01874*
X03578Y01862*
X03583Y01852*
X03586Y01849*
X03584Y01845*
X03549*
X03543Y01844*
X03538Y0184*
X03456Y01758*
X03441*
X03439Y01763*
X03441Y01765*
X03447Y01776*
X0345Y01787*
Y01799*
X03447Y01811*
X03446Y01813*
X03527Y01894*
X03531Y01899*
X03532Y01905*
Y0195*
X03537Y01952*
X03539Y01949*
G37*
G36*
X03586Y0181D02*
X03583Y01807D01*
X03578Y01797*
X03575Y01785*
Y01774*
X03578Y01762*
X03583Y01752*
X03586Y01749*
X03584Y01745*
X03492*
X0349Y01749*
X03555Y01814*
X03584*
X03586Y0181*
G37*
G36*
X0392Y02288D02*
Y01747D01*
X03889Y01716*
X03884Y01718*
Y02259*
X03891Y02262*
X03897Y02269*
X03902Y02277*
X03904Y02286*
Y02295*
X03903Y02298*
X03908Y02301*
X0392Y02288*
G37*
G36*
X03854Y02149D02*
Y0172D01*
X03833Y017*
X03804*
Y01764*
X03809*
X03814Y01765*
X03819Y01769*
X03839Y01789*
X03843Y01794*
X03844Y018*
Y02148*
X03849Y02151*
X03854Y02149*
G37*
G36*
X03319Y01753D02*
Y01738D01*
X0332Y01732*
X03324Y01727*
X03339Y01712*
X03344Y01709*
X0335Y01708*
X03471*
X03476Y01709*
X03481Y01712*
X03483Y01714*
X03725*
Y017*
X03294*
X03292Y01705*
X03295Y01711*
X03298Y0172*
Y01729*
X03296Y01736*
X03315Y01755*
X03319Y01753*
G37*
%LNeeprom_programmer-2*%
%LPC*%
G36*
X04225Y03025D02*
X04214D01*
X04202Y03021*
X04192Y03016*
X04183Y03007*
X04178Y02997*
X04175Y02985*
Y02974*
X04178Y02962*
X04183Y02952*
X04192Y02943*
X04202Y02938*
X04214Y02935*
X04225*
X04237Y02938*
X04247Y02943*
X04256Y02952*
X04261Y02962*
X04265Y02974*
Y02985*
X04261Y02997*
X04256Y03007*
X04247Y03016*
X04237Y03021*
X04225Y03025*
G37*
G36*
Y02825D02*
X04214D01*
X04202Y02821*
X04192Y02816*
X04183Y02807*
X04178Y02797*
X04175Y02785*
Y02774*
X04178Y02762*
X04183Y02752*
X04192Y02743*
X04202Y02738*
X04214Y02735*
X04225*
X04237Y02738*
X04247Y02743*
X04256Y02752*
X04261Y02762*
X04265Y02774*
Y02785*
X04261Y02797*
X04256Y02807*
X04247Y02816*
X04237Y02821*
X04225Y02825*
G37*
G36*
Y02725D02*
X04214D01*
X04202Y02721*
X04192Y02716*
X04183Y02707*
X04178Y02697*
X04175Y02685*
Y02674*
X04178Y02662*
X04183Y02652*
X04192Y02643*
X04202Y02638*
X04214Y02635*
X04225*
X04237Y02638*
X04247Y02643*
X04256Y02652*
X04261Y02662*
X04265Y02674*
Y02685*
X04261Y02697*
X04256Y02707*
X04247Y02716*
X04237Y02721*
X04225Y02725*
G37*
G36*
X04265Y02625D02*
X04175D01*
Y02535*
X04265*
Y02625*
G37*
G36*
Y02525D02*
X04175D01*
Y02435*
X04265*
Y02525*
G37*
G36*
X04225Y02425D02*
X04214D01*
X04202Y02421*
X04192Y02416*
X04183Y02407*
X04178Y02397*
X04175Y02385*
Y02374*
X04178Y02362*
X04183Y02352*
X04192Y02343*
X04202Y02338*
X04214Y02335*
X04225*
X04237Y02338*
X04247Y02343*
X04256Y02352*
X04261Y02362*
X04265Y02374*
Y02385*
X04261Y02397*
X04256Y02407*
X04247Y02416*
X04237Y02421*
X04225Y02425*
G37*
G36*
Y02325D02*
X04214D01*
X04202Y02321*
X04192Y02316*
X04183Y02307*
X04178Y02297*
X04175Y02285*
Y02274*
X04178Y02262*
X04183Y02252*
X04192Y02243*
X04202Y02238*
X04214Y02235*
X04225*
X04237Y02238*
X04247Y02243*
X04256Y02252*
X04261Y02262*
X04265Y02274*
Y02285*
X04261Y02297*
X04256Y02307*
X04247Y02316*
X04237Y02321*
X04225Y02325*
G37*
G36*
Y02225D02*
X04214D01*
X04202Y02221*
X04192Y02216*
X04183Y02207*
X04178Y02197*
X04175Y02185*
Y02174*
X04178Y02162*
X04183Y02152*
X04192Y02143*
X04202Y02138*
X04214Y02135*
X04225*
X04237Y02138*
X04247Y02143*
X04256Y02152*
X04261Y02162*
X04265Y02174*
Y02185*
X04261Y02197*
X04256Y02207*
X04247Y02216*
X04237Y02221*
X04225Y02225*
G37*
G36*
X04265Y02125D02*
X04175D01*
Y02035*
X04265*
Y02125*
G37*
G36*
X04225Y02025D02*
X04214D01*
X04202Y02021*
X04192Y02016*
X04183Y02007*
X04178Y01997*
X04175Y01985*
Y01974*
X04178Y01962*
X04183Y01952*
X04192Y01943*
X04202Y01938*
X04214Y01935*
X04225*
X04237Y01938*
X04247Y01943*
X04256Y01952*
X04261Y01962*
X04265Y01974*
Y01985*
X04261Y01997*
X04256Y02007*
X04247Y02016*
X04237Y02021*
X04225Y02025*
G37*
G36*
X04265Y01925D02*
X04175D01*
Y01835*
X04265*
Y01925*
G37*
G36*
X04225Y01825D02*
X04214D01*
X04202Y01821*
X04192Y01816*
X04183Y01807*
X04178Y01797*
X04175Y01785*
Y01774*
X04178Y01762*
X04183Y01752*
X04192Y01743*
X04202Y01738*
X04214Y01735*
X04225*
X04237Y01738*
X04247Y01743*
X04256Y01752*
X04261Y01762*
X04265Y01774*
Y01785*
X04261Y01797*
X04256Y01807*
X04247Y01816*
X04237Y01821*
X04225Y01825*
G37*
G36*
X0344Y0322D02*
X03431D01*
X03422Y03217*
X03414Y03213*
X03407Y03206*
X03403Y03198*
X03401Y03189*
Y0318*
X03402Y03173*
X03394Y03165*
X03391Y0316*
X0339Y03154*
Y03136*
X03387Y03136*
X03377Y0313*
X03369Y03121*
X03363Y03111*
X0336Y03099*
Y03087*
X03363Y03076*
X03369Y03065*
X03377Y03057*
X03387Y03051*
X03399Y03048*
X03411*
X03422Y03051*
X03433Y03057*
X03441Y03065*
X03447Y03076*
X0345Y03087*
Y03099*
X03447Y03111*
X03441Y03121*
X03433Y0313*
X03422Y03136*
X0342Y03136*
Y03148*
X03424Y03151*
X03431Y0315*
X0344*
X03449Y03152*
X03457Y03156*
X03464Y03163*
X03468Y03171*
X03471Y0318*
Y03189*
X03468Y03198*
X03464Y03206*
X03457Y03213*
X03449Y03217*
X0344Y0322*
G37*
G36*
X03411Y02839D02*
X03399D01*
X03387Y02836*
X03377Y0283*
X03369Y02821*
X03363Y02811*
X0336Y02799*
Y02787*
X03363Y02776*
X03369Y02765*
X03377Y02757*
X03387Y02751*
X03399Y02748*
X03411*
X03422Y02751*
X03433Y02757*
X03441Y02765*
X03447Y02776*
X0345Y02787*
Y02799*
X03447Y02811*
X03441Y02821*
X03433Y0283*
X03422Y02836*
X03411Y02839*
G37*
G36*
Y02539D02*
X03399D01*
X03387Y02536*
X03377Y0253*
X03369Y02521*
X03363Y02511*
X0336Y02499*
Y02487*
X03363Y02476*
X03369Y02465*
X03377Y02457*
X03387Y02451*
X03399Y02448*
X03411*
X03422Y02451*
X03433Y02457*
X03441Y02465*
X03447Y02476*
X0345Y02487*
Y02499*
X03447Y02511*
X03441Y02521*
X03433Y0253*
X03422Y02536*
X03411Y02539*
G37*
G36*
X03625Y02125D02*
X03614D01*
X03602Y02121*
X03592Y02116*
X03583Y02107*
X03578Y02097*
X03575Y02085*
Y02074*
X03578Y02062*
X03583Y02052*
X03592Y02043*
X03602Y02038*
X03614Y02035*
X03625*
X03637Y02038*
X03647Y02043*
X03656Y02052*
X03661Y02062*
X03665Y02074*
Y02085*
X03661Y02097*
X03656Y02107*
X03647Y02116*
X03637Y02121*
X03625Y02125*
G37*
G36*
X0377Y02069D02*
X03759D01*
X03749Y02066*
X0374Y02061*
X03733Y02054*
X03728Y02045*
X03725Y02035*
Y02024*
X03728Y02014*
X03733Y02005*
X0374Y01998*
X03749Y01993*
X03759Y0199*
X0377*
X0378Y01993*
X03789Y01998*
X03796Y02005*
X03801Y02014*
X03804Y02024*
Y02035*
X03801Y02045*
X03796Y02054*
X03789Y02061*
X0378Y02066*
X0377Y02069*
G37*
%LNeeprom_programmer-3*%
%LPD*%
G54D11*
X03405Y03093D02*
Y03154D01*
X03436Y03185*
X04065Y0233D02*
X0411Y02375D01*
Y0258*
X04065Y02625D02*
X0411Y0258D01*
X0366Y0193D02*
X03715Y01875D01*
X0358Y0193D02*
X0366D01*
X0355Y0196D02*
X0358Y0193D01*
X0355Y0196D02*
Y0221D01*
X0362Y0228*
X03405Y01893D02*
X03477Y01965D01*
Y0219*
X03829Y018D02*
Y0218D01*
X03809Y0178D02*
X03829Y018D01*
X0362Y0178D02*
X03809D01*
X0417Y0313D02*
X0422Y0308D01*
X0417Y0313D02*
Y0322D01*
X0412Y0327D02*
X0417Y0322D01*
X0404Y0327D02*
X0412D01*
X0402Y0325D02*
X0404Y0327D01*
X0402Y03089D02*
Y0325D01*
Y03089D02*
X0404Y03069D01*
X0409*
X04109Y0305*
Y02969D02*
Y0305D01*
X04065Y02925D02*
X04109Y02969D01*
X02781Y02593D02*
X02832Y02644D01*
Y02987*
X0312Y03275*
X02781Y02193D02*
X03181Y01794D01*
Y01794D02*
Y01794D01*
X03956Y01939D02*
X04065Y0183D01*
X03956Y01939D02*
Y02844D01*
X03935Y02865D02*
X03956Y02844D01*
X04Y02194D02*
X04065Y0213D01*
X04Y02194D02*
Y0296D01*
X04065Y03025*
X03549Y0183D02*
X03765D01*
X03462Y01743D02*
X03549Y0183D01*
X03359Y01743D02*
X03462D01*
X03355Y01747D02*
X03359Y01743D01*
X03355Y01747D02*
Y02343D01*
X03405Y02393*
X0369Y02005D02*
X03765Y0193D01*
X0369Y02005D02*
Y02335D01*
X0368Y02345D02*
X0369Y02335D01*
X0368Y02345D02*
Y02409D01*
X0366Y0243D02*
X0368Y02409D01*
X03569Y0243D02*
X0366D01*
X03405Y02593D02*
X03569Y0243D01*
X03477Y0173D02*
X03765D01*
X03471Y01723D02*
X03477Y0173D01*
X0335Y01723D02*
X03471D01*
X03335Y01738D02*
X0335Y01723D01*
X03335Y01738D02*
Y02623D01*
X03405Y02693*
X03263Y01725D02*
X03315Y01777D01*
Y02903*
X03405Y02993*
Y01793D02*
X03517Y01905D01*
Y02287*
X0356Y0233*
X03665*
X0367Y02325*
Y0223D02*
Y02325D01*
X0362Y0218D02*
X0367Y0223D01*
X02781Y02093D02*
X0319Y01685D01*
X0384*
X03869Y01714*
Y02291*
X03765Y0223D02*
Y02262D01*
X0384Y02338*
X03893*
X03936Y02295*
Y01741D02*
Y02295D01*
X0386Y01665D02*
X03936Y01741D01*
X02809Y01665D02*
X0386D01*
X02731Y01743D02*
X02809Y01665D01*
X02731Y01743D02*
Y03043D01*
X02781Y03093*
X03405Y02893D02*
X03492Y02807D01*
Y02618D02*
Y02807D01*
Y02618D02*
X0358Y0253D01*
X0366*
X037Y02489*
Y0236D02*
Y02489D01*
Y0236D02*
X0372Y0234D01*
Y02175D02*
Y0234D01*
Y02175D02*
X03765Y0213D01*
X02781Y02293D02*
X03263Y02775D01*
Y03209*
X03338Y03285*
X0347*
X0357Y03185*
Y0283D02*
Y03185D01*
Y0283D02*
X0366D01*
X0367Y0282*
Y0257D02*
Y0282D01*
Y0257D02*
X0372Y02519D01*
Y024D02*
Y02519D01*
Y024D02*
X03735Y02385D01*
X038*
X0381Y02395*
Y0258*
X03765Y02625D02*
X0381Y0258D01*
X02781Y02393D02*
X02896Y02508D01*
Y02891*
X03381Y03377*
X0378*
X0381Y03347*
Y0277D02*
Y03347D01*
X03765Y02725D02*
X0381Y0277D01*
X02781Y02493D02*
X02853Y02565D01*
Y02888*
X03362Y03398*
X038*
X0383Y03368*
Y0272D02*
Y03368D01*
X0379Y0268D02*
X0383Y0272D01*
X0374Y0268D02*
X0379D01*
X0372Y027D02*
X0374Y0268D01*
X0372Y027D02*
Y0278D01*
X03765Y02825*
X03263Y02195D02*
X03283Y02215D01*
Y03189*
X03358Y03265*
X03456*
X0355Y03171*
Y0279D02*
Y03171D01*
X0362Y0288D02*
X0365Y0285D01*
X0368*
X037Y02829*
Y02592D02*
Y02829D01*
Y02592D02*
X03765Y02527D01*
Y0243D02*
Y02527D01*
X0398Y02014D02*
X04065Y0193D01*
X0398Y02014D02*
Y0324D01*
X04065Y03325*
X04149Y0295D02*
X0422Y0288D01*
X04149Y0295D02*
Y0314D01*
X04065Y03225D02*
X04149Y0314D01*
X04065Y03125D02*
X04129Y0306D01*
Y02957D02*
Y0306D01*
X0411Y02937D02*
X04129Y02957D01*
X0411Y027D02*
Y02937D01*
X04085Y02675D02*
X0411Y027D01*
X0403Y02675D02*
X04085D01*
X0402Y02665D02*
X0403Y02675D01*
X0402Y02274D02*
Y02665D01*
Y02274D02*
X04065Y0223D01*
X04134Y02794D02*
X0422Y0288D01*
X04134Y02694D02*
Y02794D01*
X04065Y02625D02*
X04134Y02694D01*
X0362Y0288D02*
X0367Y0293D01*
Y0323*
X03765Y03325*
X04065Y0173D02*
X0411Y01775D01*
Y02285*
X04065Y0233D02*
X0411Y02285D01*
G54D19*
X04065Y0243D03*
Y0233D03*
Y0223D03*
Y0213D03*
Y0203D03*
Y0193D03*
Y0183D03*
Y0173D03*
X03765Y0243D03*
Y0233D03*
Y0223D03*
Y0213D03*
Y0203D03*
Y0193D03*
Y0183D03*
X04065Y03325D03*
Y03225D03*
Y03125D03*
Y03025D03*
Y02925D03*
Y02825D03*
Y02725D03*
Y02625D03*
X03765Y03325D03*
Y03225D03*
Y03125D03*
Y03025D03*
Y02925D03*
Y02825D03*
Y02725D03*
G54D20*
X03765Y0173D03*
Y02625D03*
G54D21*
X03405Y03093D03*
Y02993D03*
Y02893D03*
Y02793D03*
Y02693D03*
Y02593D03*
Y02493D03*
Y02393D03*
Y02293D03*
Y02193D03*
Y02093D03*
Y01993D03*
Y01893D03*
Y01793D03*
X02781D03*
Y01893D03*
Y01993D03*
Y02093D03*
Y02193D03*
Y02293D03*
Y02393D03*
Y02593D03*
Y02693D03*
Y02793D03*
Y02893D03*
Y02993D03*
Y02493D03*
G54D22*
X02781Y03093D03*
G54D23*
X0422Y0178D03*
Y0198D03*
Y0218D03*
Y0228D03*
Y0238D03*
Y0268D03*
Y0278D03*
Y0298D03*
Y0318D03*
X0362Y0178D03*
Y0188D03*
Y0198D03*
Y0208D03*
Y0218D03*
Y0228D03*
Y0238D03*
Y0248D03*
Y0258D03*
Y0268D03*
Y0278D03*
Y0298D03*
G54D24*
X0422Y0188D03*
Y0208D03*
Y0248D03*
Y0258D03*
Y0288D03*
Y0308D03*
X0362Y0288D03*
Y0308D03*
Y0318D03*
G54D25*
X03436Y03185D03*
X03715Y01875D03*
X03477Y0219D03*
X03829Y0218D03*
X0312Y03275D03*
X03181Y01794D03*
X03935Y02865D03*
X03263Y01725D03*
X03869Y02291D03*
X03263Y02195D03*
X0355Y0279D03*
M02*