%FSTAX23Y23*%
%MOIN*%
%SFA1B1*%

%IPPOS*%
%ADD9500C,0.028000*%
%ADD9501C,0.035430*%
%ADD9502C,0.036000*%
%ADD9503C,0.047240*%
%LNeeprom_programmer-1*%
%LPD*%
G54D9500*
X03181Y01794D03*
X03263Y01725D03*
Y02195D03*
X03477Y0219D03*
X03829Y0218D03*
X03869Y02291D03*
X03715Y01875D03*
X0355Y0279D03*
X03935Y02865D03*
X0312Y03275D03*
X03436Y03185D03*
G54D9501*
X03765Y0173D03*
Y0183D03*
Y0193D03*
Y0203D03*
Y0213D03*
Y0223D03*
Y0233D03*
Y0243D03*
Y02625D03*
Y02725D03*
Y02825D03*
Y02925D03*
Y03025D03*
X04065D03*
Y02925D03*
Y02825D03*
Y02725D03*
Y02625D03*
Y0243D03*
Y0233D03*
Y0223D03*
Y0213D03*
Y0203D03*
Y0193D03*
Y0183D03*
Y0173D03*
Y03125D03*
Y03225D03*
Y03325D03*
X03765D03*
Y03225D03*
Y03125D03*
G54D9502*
X0362Y0178D03*
Y0188D03*
Y0198D03*
Y0208D03*
Y0218D03*
Y0228D03*
Y0238D03*
Y0248D03*
Y0258D03*
Y0268D03*
Y0278D03*
Y0288D03*
Y0298D03*
Y0308D03*
X0422D03*
Y0298D03*
Y0288D03*
Y0278D03*
Y0268D03*
Y0258D03*
Y0248D03*
Y0238D03*
Y0228D03*
Y0218D03*
Y0208D03*
Y0198D03*
Y0188D03*
Y0178D03*
Y0318D03*
X0362D03*
G54D9503*
X03405Y01793D03*
Y01893D03*
Y01993D03*
Y02093D03*
Y02193D03*
Y02293D03*
Y02393D03*
Y02493D03*
Y02593D03*
Y02693D03*
Y02793D03*
Y02893D03*
Y02993D03*
Y03093D03*
X02781D03*
X02781Y02993D03*
Y02893D03*
Y02793D03*
Y02693D03*
Y02593D03*
Y02493D03*
Y02393D03*
Y02293D03*
Y02193D03*
Y02093D03*
Y01993D03*
Y01893D03*
Y01793D03*
M02*