%FSTAX23Y23*%
%MOIN*%
%SFA1B1*%

%IPPOS*%
%ADD11C,0.010000*%
%ADD19C,0.059060*%
%ADD20R,0.059060X0.059060*%
%ADD21C,0.070870*%
%ADD22R,0.070870X0.070870*%
%ADD23C,0.070000*%
%ADD24R,0.070000X0.070000*%
%ADD25C,0.050000*%
%LNeeprom_programmer-1*%
%LPD*%
G36*
X04036Y03352D02*
X04033Y03349D01*
X04028Y0334*
X04025Y0333*
Y03319*
X04028Y03309*
X04033Y033*
X04038Y03295*
X04036Y0329*
X03793*
X03791Y03295*
X03796Y033*
X03801Y03309*
X03804Y03319*
Y0332*
X03725*
Y03319*
X03728Y03309*
X03733Y033*
X03738Y03295*
X03736Y0329*
X03151*
X03148Y03296*
X03141Y03303*
X03133Y03307*
X03125Y03309*
X03123Y03314*
X03166Y03357*
X03734*
X03736Y03352*
X03733Y03349*
X03728Y0334*
X03725Y0333*
Y0333*
X03804*
Y0333*
X03801Y0334*
X03796Y03349*
X03793Y03352*
X03795Y03357*
X04034*
X04036Y03352*
G37*
G36*
X04094Y03192D02*
Y03157D01*
X0409Y03155*
X04089Y03156*
X0408Y03161*
X0407Y03164*
X04059*
X04049Y03161*
X0404Y03156*
X04033Y03149*
X04028Y0314*
X04025Y0313*
Y03119*
X04028Y03109*
X04033Y031*
X0404Y03093*
X04049Y03088*
X04059Y03085*
X0407*
X0408Y03088*
X04089Y03093*
X0409Y03094*
X04094Y03092*
Y03057*
X0409Y03055*
X04089Y03056*
X0408Y03061*
X0407Y03064*
X04059*
X04049Y03061*
X0404Y03056*
X04033Y03049*
X04028Y0304*
X04025Y0303*
Y03019*
X04028Y03009*
X04033Y03*
X0404Y02993*
X04049Y02988*
X04059Y02985*
X0407*
X0408Y02988*
X04089Y02993*
X0409Y02994*
X04094Y02992*
Y02957*
X0409Y02955*
X04089Y02956*
X0408Y02961*
X0407Y02964*
X0407*
Y02925*
X04065*
Y0292*
X04025*
Y02919*
X04028Y02909*
X04033Y029*
X04034Y02899*
X04032Y02895*
X04006*
X03965Y02935*
X0396Y02939*
X03954Y0294*
X03801*
X03796Y02949*
X03792Y02953*
X03794Y02958*
X04009*
X04028Y0294*
X04025Y0293*
Y0293*
X0406*
Y02964*
X04059*
X04049Y02961*
X04026Y02984*
X04021Y02988*
X04016Y02989*
X03791*
X0379Y02994*
X03796Y03*
X03801Y03009*
X03804Y03019*
Y0303*
X03801Y0304*
X03796Y03049*
X03789Y03056*
X03783Y03059*
X03785Y03064*
X0392*
X03925Y03065*
X0393Y03069*
X04049Y03188*
X04059Y03185*
X0407*
X0408Y03188*
X04089Y03193*
X0409Y03194*
X04094Y03192*
G37*
G36*
X04038Y03254D02*
X04033Y03249D01*
X04028Y0324*
X04025Y0323*
Y03219*
X04028Y03209*
X03913Y03095*
X03797*
X03795Y03099*
X03796Y031*
X03801Y03109*
X03804Y03119*
Y0313*
X03801Y0314*
X03796Y03149*
X03789Y03156*
X0378Y03161*
X0377Y03164*
X03759*
X03749Y03161*
X03685Y03226*
Y0323*
X03685Y0323*
X03688Y03234*
X03722*
X03725Y0323*
X03725Y0323*
Y03219*
X03728Y03209*
X03733Y032*
X0374Y03193*
X03749Y03188*
X03759Y03185*
X0377*
X0378Y03188*
X03789Y03193*
X03796Y032*
X03801Y03209*
X03804Y03219*
Y0323*
X03801Y0324*
X03796Y03249*
X03791Y03254*
X03793Y03259*
X04036*
X04038Y03254*
G37*
G36*
X03575Y03161D02*
X0357Y03159D01*
X03533Y03195*
X03528Y03199*
X03523Y032*
X03467*
X03464Y03206*
X0346Y03209*
X03462Y03214*
X03575*
Y03161*
G37*
G36*
X03728Y0314D02*
X03725Y0313D01*
Y03119*
X03728Y03109*
X03733Y031*
X03734Y03099*
X03732Y03095*
X03726*
X0368Y0314*
X03675Y03144*
X0367Y03145*
X03665*
Y03196*
X03669Y03198*
X03728Y0314*
G37*
G36*
X03567Y03119D02*
X03572Y03115D01*
X03575Y03115*
Y0306*
X0357Y03058*
X03473Y03155*
X03468Y03159*
X03467Y03159*
X03466Y0316*
X03464Y03164*
X03467Y03169*
X03516*
X03567Y03119*
G37*
G36*
X03709Y03069D02*
X03714Y03065D01*
X0372Y03064*
X03744*
X03746Y03059*
X0374Y03056*
X03733Y03049*
X03731Y03045*
X03665*
Y03106*
X03669Y03108*
X03709Y03069*
G37*
G36*
X0435Y01645D02*
X04241D01*
X04241Y0165*
X04245Y0165*
X0425Y01654*
X0428Y01684*
X04284Y01689*
X04285Y01695*
Y0182*
X04284Y01825*
X0428Y0183*
X0427Y0184*
X04265Y01844*
X04265Y01844*
Y01925*
X04175*
Y01845*
X04161*
X0412Y01885*
X04115Y01889*
X0411Y0189*
X04085*
X04083Y01895*
X04089Y01898*
X04096Y01905*
X04101Y01914*
X04104Y01924*
Y01935*
X04101Y01945*
X04096Y01954*
X04089Y01961*
X0408Y01966*
X0407Y01969*
X04059*
X04049Y01966*
X0404Y01961*
X04033Y01954*
X04028Y01945*
X04025Y01935*
Y01924*
X04028Y01914*
X04033Y01905*
X0404Y01898*
X04046Y01895*
X04044Y0189*
X03785*
X03783Y01895*
X03789Y01898*
X03796Y01905*
X03801Y01914*
X03804Y01924*
Y01935*
X03801Y01945*
X03796Y01954*
X03789Y01961*
X0378Y01966*
X0377Y01969*
X03759*
X03749Y01966*
X0374Y01961*
X03733Y01954*
X03728Y01945*
X03725Y01935*
Y01924*
X03728Y01914*
X03729Y01912*
X03726Y01908*
X03719Y0191*
X0371*
X03701Y01907*
X03693Y01903*
X03686Y01896*
X03682Y01888*
X0368Y01879*
Y0187*
X03682Y01861*
X03686Y01853*
X03693Y01846*
X03701Y01842*
X0371Y0184*
X03719*
X03722Y0184*
X03726Y01837*
X03725Y01835*
Y01824*
X03728Y01814*
X03733Y01805*
X0374Y01798*
X03749Y01793*
X03759Y0179*
X0377*
X0378Y01793*
X03789Y01798*
X03796Y01805*
X03801Y01814*
X03804Y01824*
Y01835*
X03801Y01845*
X03796Y01854*
X03795Y01855*
X03797Y01859*
X04032*
X04034Y01855*
X04033Y01854*
X04028Y01845*
X04025Y01835*
Y01824*
X04028Y01814*
X04033Y01805*
X0404Y01798*
X04049Y01793*
X04059Y0179*
X0407*
X0408Y01793*
X04089Y01798*
X04096Y01805*
X04101Y01814*
X04104Y01824*
Y01835*
X04101Y01845*
X04096Y01854*
X04095Y01855*
X04097Y01859*
X04103*
X04144Y01819*
X04149Y01815*
X04155Y01814*
X04184*
X04186Y0181*
X04183Y01807*
X04178Y01797*
X04175Y01785*
Y01774*
X04178Y01762*
X04179Y0176*
X04118Y017*
X04097*
X04095Y01704*
X04096Y01705*
X04101Y01714*
X04104Y01724*
Y01735*
X04101Y01745*
X04096Y01754*
X04089Y01761*
X0408Y01766*
X0407Y01769*
X04059*
X04049Y01766*
X0404Y01761*
X04033Y01754*
X04028Y01745*
X04025Y01735*
Y01724*
X04028Y01714*
X04033Y01705*
X04034Y01704*
X04032Y017*
X03804*
Y01769*
X03725*
Y017*
X03309*
X03296Y01713*
X03298Y0172*
Y01729*
X03295Y01738*
X03295Y01738*
X03299Y01741*
X0333Y01711*
X03335Y01707*
X03341Y01706*
X03462*
X03467Y01707*
X03472Y01711*
X036Y01839*
X03602Y01838*
X03614Y01835*
X03625*
X03637Y01838*
X03647Y01843*
X03656Y01852*
X03661Y01862*
X03665Y01874*
Y01885*
X03661Y01897*
X03656Y01907*
X03653Y0191*
X03655Y01914*
X03688*
X0369Y01915*
X03692Y01915*
X03693Y01915*
X03693Y01915*
X03695Y01917*
X03697Y01918*
X03698Y01918*
X03698Y01919*
X037Y01921*
X03701Y01922*
X03701Y01923*
X03702Y01924*
X03702Y01926*
X03703Y01928*
X03712Y02033*
X03722Y02042*
X03726Y0204*
X03725Y02035*
Y02024*
X03728Y02014*
X03733Y02005*
X0374Y01998*
X03749Y01993*
X03759Y0199*
X0377*
X0378Y01993*
X03789Y01998*
X03796Y02005*
X03801Y02014*
X03975*
X0398Y02015*
X03985Y02019*
X04026Y02059*
X04032*
X04034Y02055*
X04033Y02054*
X04028Y02045*
X04025Y02035*
Y02035*
X04104*
Y02035*
X04101Y02045*
X0417Y02113*
X04175Y02111*
Y02035*
X04265*
Y02125*
X04186*
X04183Y0213*
X04184Y02134*
Y02145*
X04189Y02146*
X04192Y02143*
X04202Y02138*
X04214Y02135*
X04225*
X04237Y02138*
X04247Y02143*
X04256Y02152*
X04261Y02162*
X04265Y02174*
Y02185*
X04261Y02197*
X04256Y02207*
X04247Y02216*
X04237Y02221*
X04225Y02225*
X04214*
X04202Y02221*
X04192Y02216*
X04189Y02213*
X04184Y02214*
Y02245*
X04189Y02246*
X04192Y02243*
X04202Y02238*
X04214Y02235*
X04225*
X04237Y02238*
X04247Y02243*
X04256Y02252*
X04261Y02262*
X04265Y02274*
Y02285*
X04261Y02297*
X04256Y02307*
X04247Y02316*
X04237Y02321*
X04225Y02325*
X04214*
X04202Y02321*
X04192Y02316*
X04189Y02313*
X04184Y02314*
Y02345*
X04189Y02346*
X04192Y02343*
X04202Y02338*
X04214Y02335*
X04225*
X04237Y02338*
X04247Y02343*
X04256Y02352*
X04261Y02362*
X04265Y02374*
Y02385*
X04261Y02397*
X04256Y02407*
X04247Y02416*
X04237Y02421*
X04225Y02425*
X04214*
X04202Y02421*
X04192Y02416*
X04189Y02413*
X04184Y02414*
Y02435*
X04265*
Y02525*
X04184*
Y02535*
X04265*
Y02625*
X04184*
Y02645*
X04189Y02646*
X04192Y02643*
X04202Y02638*
X04214Y02635*
X04225*
X04237Y02638*
X04247Y02643*
X04256Y02652*
X04261Y02662*
X04265Y02674*
Y02685*
X04261Y02697*
X04256Y02707*
X04247Y02716*
X04237Y02721*
X04225Y02725*
X04214*
X04202Y02721*
X04192Y02716*
X04189Y02713*
X04184Y02714*
Y02745*
X04189Y02746*
X04192Y02743*
X04202Y02738*
X04214Y02735*
X04225*
X04237Y02738*
X04247Y02743*
X04256Y02752*
X04261Y02762*
X04265Y02774*
Y02785*
X04261Y02797*
X04256Y02807*
X04247Y02816*
X04237Y02821*
X04225Y02825*
X04214*
X04202Y02821*
X04192Y02816*
X04189Y02813*
X04184Y02814*
Y02835*
X04265*
Y02925*
X04184*
Y02945*
X04189Y02946*
X04192Y02943*
X04202Y02938*
X04214Y02935*
X04225*
X04237Y02938*
X04247Y02943*
X04256Y02952*
X04261Y02962*
X04265Y02974*
Y02985*
X04261Y02997*
X04256Y03007*
X04247Y03016*
X04237Y03021*
X04225Y03025*
X04214*
X04202Y03021*
X04192Y03016*
X04189Y03013*
X04184Y03014*
Y03023*
X04196Y03035*
X04215*
Y03075*
X04175*
Y03056*
X04169Y03051*
X04164Y03052*
Y03303*
X04163Y03309*
X0416Y03314*
X0409Y03383*
X04085Y03387*
X0408Y03388*
X0316*
X03154Y03387*
X03149Y03383*
X02831Y03065*
X02826Y03067*
Y03139*
X02736*
Y03048*
X02807*
X02809Y03043*
X02801Y03035*
X02799Y03036*
X02787Y03039*
X02775*
X02763Y03036*
X02753Y0303*
X02745Y03021*
X02739Y03011*
X02736Y02999*
Y02987*
X02739Y02976*
X02745Y02965*
X02753Y02957*
X02763Y02951*
X02775Y02948*
X02787*
X02799Y02951*
X02809Y02957*
X02817Y02965*
X02823Y02976*
X02826Y02987*
Y02999*
X02823Y03011*
X02822Y03013*
X0308Y03271*
X03085Y03269*
X03087Y03261*
X03091Y03253*
X03098Y03246*
X03106Y03242*
X03115Y0324*
X03124*
X03125Y0324*
X03128Y03235*
X02933Y03041*
X02913*
X02907Y0304*
X02902Y03036*
X02801Y02935*
X02799Y02936*
X02787Y02939*
X02775*
X02763Y02936*
X02753Y0293*
X02745Y02921*
X02739Y02911*
X02736Y02899*
Y02887*
X02739Y02876*
X02745Y02865*
X02753Y02857*
X02763Y02851*
X02775Y02848*
X02787*
X02799Y02851*
X02809Y02857*
X02817Y02865*
X02823Y02876*
X02826Y02887*
Y02899*
X02823Y02911*
X02822Y02913*
X02919Y0301*
X0294*
X02945Y03011*
X0295Y03015*
X0317Y03234*
X03194*
X03196Y0323*
X02801Y02835*
X02799Y02836*
X02787Y02839*
X02775*
X02763Y02836*
X02753Y0283*
X02745Y02821*
X02739Y02811*
X02736Y02799*
Y02787*
X02739Y02776*
X02745Y02765*
X02753Y02757*
X02763Y02751*
X02775Y02748*
X02787*
X02799Y02751*
X02809Y02757*
X02817Y02765*
X02823Y02776*
X02826Y02787*
Y02799*
X02823Y02811*
X02822Y02813*
X03223Y03214*
X03409*
X03411Y03209*
X03407Y03206*
X03403Y03198*
X03401Y03189*
Y0318*
X03403Y03171*
X03406Y03165*
X03404Y0316*
X03232*
X03226Y03159*
X03221Y03155*
X02801Y02735*
X02799Y02736*
X02787Y02739*
X02775*
X02763Y02736*
X02753Y0273*
X02745Y02721*
X02739Y02711*
X02736Y02699*
Y02687*
X02739Y02676*
X02745Y02665*
X02753Y02657*
X02763Y02651*
X02775Y02648*
X02787*
X02799Y02651*
X02809Y02657*
X02817Y02665*
X02823Y02676*
X02826Y02687*
Y02699*
X02823Y02711*
X02822Y02713*
X03238Y03129*
X0337*
X03372Y03125*
X03369Y03121*
X03363Y03111*
X0336Y03099*
Y03087*
X03363Y03076*
X03369Y03065*
X03377Y03057*
X03387Y03051*
X03399Y03048*
X03411*
X03422Y03051*
X03433Y03057*
X03441Y03065*
X03447Y03076*
X0345Y03087*
Y03099*
X03447Y03111*
X03441Y03121*
X03438Y03125*
X0344Y03129*
X03456*
X03566Y03019*
X03571Y03015*
X03577Y03014*
X03584*
X03586Y0301*
X03583Y03007*
X03578Y02997*
X03575Y02985*
Y02974*
X03578Y02962*
X03583Y02952*
X03592Y02943*
X03602Y02938*
X03614Y02935*
X03625*
X03637Y02938*
X03647Y02943*
X03656Y02952*
X03661Y02962*
X03665Y02974*
Y02985*
X03661Y02997*
X03656Y03007*
X03653Y0301*
X03655Y03014*
X03726*
X03728Y03009*
X03733Y03*
X03739Y02994*
X03738Y02989*
X03714*
X03708Y02988*
X03703Y02984*
X03643Y02925*
X03625*
Y02885*
X03665*
Y02903*
X0372Y02958*
X03735*
X03737Y02953*
X03733Y02949*
X03728Y0294*
X03725Y0293*
Y02919*
X03728Y02909*
X03733Y029*
X03733Y029*
X03731Y02895*
X0372*
X03714Y02894*
X03709Y02891*
X03669Y02851*
X03665Y02853*
Y02875*
X0362*
X03575*
Y02845*
X03441*
X03435Y02844*
X0343Y0284*
X03425Y02835*
X03422Y02836*
X03411Y02839*
X03399*
X03387Y02836*
X03377Y0283*
X03369Y02821*
X03363Y02811*
X0336Y02799*
Y02787*
X03363Y02776*
X03369Y02765*
X03377Y02757*
X03387Y02751*
X03399Y02748*
X03411*
X03422Y02751*
X03433Y02757*
X03441Y02765*
X03447Y02776*
X0345Y02787*
Y02799*
X03448Y02809*
X0345Y02813*
X03451Y02814*
X03518*
X0352Y02809*
X03517Y02803*
X03515Y02794*
Y02785*
X03517Y02776*
X03521Y02768*
X03528Y02761*
X03534Y02758*
Y0245*
X03535Y02444*
X03539Y02439*
X03579Y02399*
X03578Y02397*
X03575Y02385*
Y02374*
X03578Y02362*
X03583Y02352*
X03586Y02349*
X03584Y02345*
X03575*
X03446Y02474*
X03447Y02476*
X0345Y02487*
Y02499*
X03447Y02511*
X03441Y02521*
X03433Y0253*
X03422Y02536*
X03411Y02539*
X03399*
X03387Y02536*
X03377Y0253*
X03369Y02521*
X03363Y02511*
X0336Y02499*
Y02487*
X03363Y02476*
X03369Y02465*
X03377Y02457*
X03387Y02451*
X03399Y02448*
X03411*
X03422Y02451*
X03425Y02452*
X03558Y02319*
X03563Y02315*
X03569Y02314*
X03584*
X03586Y0231*
X03583Y02307*
X03578Y02297*
X03575Y02285*
Y02274*
X03578Y02262*
X03583Y02252*
X03586Y02249*
X03584Y02245*
X03475*
X03446Y02274*
X03447Y02276*
X0345Y02287*
Y02288*
X0341*
Y02248*
X03411*
X03422Y02251*
X03425Y02252*
X03454Y02222*
X03454Y02218*
X0345Y02214*
X03445Y02215*
X03441Y02221*
X03433Y0223*
X03422Y02236*
X03411Y02239*
X03399*
X03387Y02236*
X03377Y0223*
X03369Y02221*
X03363Y02211*
X0336Y02199*
Y02187*
X03363Y02176*
X03369Y02165*
X03377Y02157*
X03387Y02151*
X03399Y02148*
X03411*
X03422Y02151*
X03425Y02152*
X03558Y02019*
X03563Y02015*
X03569Y02014*
X03581*
X03584Y02009*
X03582Y02007*
X03577Y02006*
X03575Y02007*
X03569Y02009*
X03448*
X03447Y02011*
X03441Y02021*
X03433Y0203*
X03422Y02036*
X03411Y02039*
X03399*
X03387Y02036*
X03377Y0203*
X03369Y02021*
X03363Y02011*
X0336Y01999*
Y01987*
X03363Y01976*
X03369Y01965*
X03377Y01957*
X03387Y01951*
X03399Y01948*
X03411*
X03422Y01951*
X03433Y01957*
X03441Y01965*
X03447Y01976*
X03448Y01978*
X03563*
X03572Y01969*
X03577Y01966*
X03578Y01962*
X03583Y01952*
X03586Y01949*
X03584Y01945*
X03548*
X03542Y01944*
X03537Y0194*
X03491Y01894*
X03487Y01889*
X03486Y01884*
Y01806*
X03449Y01768*
X03445Y01772*
X03447Y01776*
X0345Y01787*
Y01799*
X03447Y01811*
X03441Y01821*
X03433Y0183*
X03422Y01836*
X03411Y01839*
X03399*
X03387Y01836*
X03377Y0183*
X03369Y01821*
X03363Y01811*
X0336Y01799*
Y01787*
X03363Y01776*
X03369Y01765*
X03372Y01762*
X0337Y01758*
X03361*
X03314Y01804*
X03309Y01808*
X03304Y01809*
X03212*
X03209Y01815*
X03202Y01822*
X03194Y01826*
X03185Y01829*
X03176*
X03167Y01826*
X03166Y01825*
X03163Y01829*
X03385Y02052*
X03387Y02051*
X03399Y02048*
X03411*
X03422Y02051*
X03433Y02057*
X03441Y02065*
X03447Y02076*
X0345Y02087*
Y02099*
X03447Y02111*
X03441Y02121*
X03433Y0213*
X03422Y02136*
X03411Y02139*
X03399*
X03387Y02136*
X03377Y0213*
X03369Y02121*
X03363Y02111*
X0336Y02099*
Y02087*
X03363Y02076*
X03364Y02074*
X0313Y0184*
X03126Y01835*
X03125Y01829*
Y01764*
X03126Y01758*
X0313Y01753*
X03154Y01729*
X03159Y01725*
X03165Y01724*
X03197*
X03202Y01725*
X03207Y01729*
X03227Y01748*
X0323Y01747*
X03233Y01743*
X0323Y01738*
X03228Y01729*
Y0172*
X0323Y01711*
X03234Y01703*
X03241Y01696*
X03249Y01692*
X03258Y0169*
X03267*
X03274Y01691*
X03281Y01684*
X03279Y0168*
X02815*
X02746Y01749*
Y01758*
X0275Y0176*
X02753Y01757*
X02763Y01751*
X02775Y01748*
X02776*
Y01793*
Y01839*
X02775*
X02763Y01836*
X02753Y0183*
X0275Y01827*
X02746Y01829*
Y01837*
X02761Y01852*
X02763Y01851*
X02775Y01848*
X02787*
X02799Y01851*
X02809Y01857*
X02817Y01865*
X02823Y01876*
X02826Y01887*
Y01899*
X02823Y01911*
X02817Y01921*
X02809Y0193*
X02799Y01936*
X02787Y01939*
X02775*
X02763Y01936*
X02753Y0193*
X02745Y01921*
X02739Y01911*
X02736Y01899*
Y01887*
X02739Y01876*
X0274Y01874*
X0272Y01854*
X02716Y01849*
X02715Y01843*
Y01743*
X02716Y01737*
X0272Y01732*
X02798Y01654*
X02803Y0165*
X02807Y0165*
X02807Y01645*
X02695*
Y03425*
X0435*
Y01645*
G37*
G36*
X03988Y02869D02*
X03993Y02865D01*
X03999Y02864*
X04044*
X04046Y02859*
X0404Y02856*
X04033Y02849*
X04028Y0284*
X03966*
X03966Y0284*
X03964Y02843*
X03963Y02845*
X03967Y02851*
X0397Y0286*
Y02869*
X03967Y02878*
X03963Y02886*
X03956Y02893*
X03948Y02897*
X03939Y029*
X0393*
X03921Y02897*
X03918Y02895*
X03798*
X03796Y029*
X03796Y029*
X03801Y02909*
X03948*
X03988Y02869*
G37*
G36*
X039Y0286D02*
X03902Y02851D01*
X03906Y02843*
X03913Y02836*
X03921Y02832*
X0393Y0283*
X03939*
X03941Y0283*
X03944Y02826*
X03913Y02795*
X03797*
X03795Y02799*
X03796Y028*
X03801Y02809*
X03804Y02819*
Y0283*
X03801Y0284*
X03796Y02849*
X03789Y02856*
X03783Y0286*
X03784Y02865*
X039*
Y0286*
G37*
G36*
X03746Y0286D02*
X0374Y02856D01*
X03733Y02849*
X03728Y0284*
X03725Y0283*
Y02819*
X03728Y02809*
X03733Y028*
X03734Y02799*
X03732Y02795*
X03662*
X03661Y02797*
X03656Y02807*
X03653Y0281*
X03655Y02814*
X0367*
X03675Y02815*
X0368Y02819*
X03726Y02865*
X03745*
X03746Y0286*
G37*
G36*
X04134Y03297D02*
Y02763D01*
X04129Y02762*
X0411Y0278*
X04105Y02784*
X041Y02785*
X04085*
X04083Y0279*
X04089Y02793*
X04096Y028*
X04101Y02809*
X04104Y02819*
Y0283*
X04101Y0284*
X04096Y02849*
X04089Y02856*
X04083Y02859*
X04085Y02864*
X0409*
X04095Y02865*
X041Y02869*
X0412Y02889*
X04124Y02894*
X04125Y029*
Y03245*
X04124Y0325*
X0412Y03255*
X0409Y03285*
X04088Y03287*
X04088Y03293*
X04089Y03293*
X04096Y033*
X04101Y03309*
X04104Y03319*
Y0332*
X04109Y03322*
X04134Y03297*
G37*
G36*
X03933Y02764D02*
X03909Y0274D01*
X03905Y02735*
X03904Y0273*
Y02626*
X03873Y02595*
X03804*
Y02664*
X03725*
Y02595*
X03662*
X03661Y02597*
X03656Y02607*
X03647Y02616*
X03637Y02621*
X03625Y02625*
X03614*
X03602Y02621*
X03592Y02616*
X03589Y02613*
X03585Y02615*
Y02623*
X036Y02639*
X03602Y02638*
X03614Y02635*
X03625*
X03637Y02638*
X03647Y02643*
X03656Y02652*
X03661Y02662*
X03665Y02674*
Y02685*
X03661Y02697*
X03656Y02707*
X03647Y02716*
X03637Y02721*
X03625Y02725*
X03614*
X03602Y02721*
X03592Y02716*
X03583Y02707*
X03578Y02697*
X03575Y02685*
Y02674*
X03578Y02662*
X03579Y0266*
X03569Y02651*
X03565Y02653*
Y02758*
X03571Y02761*
X03573Y02763*
X03578Y02761*
X03583Y02752*
X03592Y02743*
X03602Y02738*
X03614Y02735*
X03625*
X03637Y02738*
X03647Y02743*
X03656Y02752*
X03661Y02762*
X03662Y02764*
X03744*
X03746Y02759*
X0374Y02756*
X03733Y02749*
X03728Y0274*
X03725Y0273*
Y02719*
X03728Y02709*
X03733Y027*
X0374Y02693*
X03749Y02688*
X03759Y02685*
X0377*
X0378Y02688*
X03789Y02693*
X03796Y027*
X03801Y02709*
X03804Y02719*
Y0273*
X03801Y0274*
X03796Y02749*
X03789Y02756*
X03783Y02759*
X03785Y02764*
X0392*
X03925Y02765*
X03929Y02768*
X03933Y02764*
G37*
G36*
X04034Y0275D02*
X04033Y02749D01*
X04028Y0274*
X04025Y0273*
Y02719*
X04028Y02709*
X04033Y027*
X0404Y02693*
X04049Y02688*
X04059Y02685*
X0407*
X0408Y02688*
X04094Y02674*
Y02658*
X04089Y02656*
X04089Y02656*
X0408Y02661*
X0407Y02664*
X04059*
X04049Y02661*
X0404Y02656*
X04033Y02649*
X04028Y0264*
X04025Y0263*
Y02619*
X04028Y02609*
X04033Y026*
X0404Y02593*
X04049Y02588*
X04059Y02585*
X0407*
X0408Y02588*
X04089Y02593*
X04089Y02593*
X04094Y02591*
Y02463*
X04089Y02461*
X04089Y02461*
X0408Y02466*
X0407Y02469*
X04059*
X04049Y02466*
X0404Y02461*
X04033Y02454*
X04028Y02445*
X04025Y02435*
Y02424*
X04028Y02414*
X04033Y02405*
X0404Y02398*
X04049Y02393*
X04059Y0239*
X0407*
X0408Y02393*
X04089Y02398*
X04089Y02398*
X04094Y02396*
Y02363*
X04089Y02361*
X04089Y02361*
X0408Y02366*
X0407Y02369*
X04059*
X04049Y02366*
X0404Y02361*
X04033Y02354*
X04028Y02345*
X04025Y02335*
Y02324*
X04028Y02314*
X04033Y02305*
X0404Y02298*
X04049Y02293*
X04059Y0229*
X0407*
X0408Y02293*
X04089Y02298*
X04089Y02298*
X04094Y02296*
Y02263*
X04089Y02261*
X04089Y02261*
X0408Y02266*
X0407Y02269*
X04059*
X04049Y02266*
X04045Y0227*
X0404Y02274*
X04035Y02275*
X04021*
X0401Y02286*
Y02299*
X04009Y02305*
X04006Y0231*
X03775Y0254*
X0377Y02544*
X03765Y02545*
X03655*
X03653Y02549*
X03656Y02552*
X03661Y02562*
X03662Y02564*
X0388*
X03885Y02565*
X0389Y02569*
X0393Y02609*
X03934Y02614*
X03935Y0262*
Y02723*
X03966Y02754*
X04032*
X04034Y0275*
G37*
G36*
X03574Y02515D02*
X0358Y02514D01*
X03584*
X03586Y0251*
X03583Y02507*
X03578Y02497*
X03575Y02485*
Y02474*
X03578Y02462*
X03583Y02452*
X03592Y02443*
X03602Y02438*
X03614Y02435*
X03625*
X03637Y02438*
X03647Y02443*
X03656Y02452*
X03661Y02462*
X03662Y02464*
X03736*
X03738Y02459*
X03733Y02454*
X03728Y02445*
X03725Y02435*
Y02435*
X03765*
Y0243*
X0377*
Y0239*
X0377*
X0378Y02393*
X03794Y02379*
Y02363*
X03789Y02361*
X03789Y02361*
X0378Y02366*
X0377Y02369*
X03759*
X03749Y02366*
X0374Y02361*
X03733Y02354*
X03728Y02345*
X03655*
X03653Y02349*
X03656Y02352*
X03661Y02362*
X03665Y02374*
Y02385*
X03661Y02397*
X03656Y02407*
X03647Y02416*
X03637Y02421*
X03625Y02425*
X03614*
X03602Y02421*
X036Y0242*
X03565Y02456*
Y02516*
X0357Y02518*
X03574Y02515*
G37*
G36*
X03733Y02305D02*
X03734Y02304D01*
X03732Y023*
X03725*
X03719Y02299*
X03714Y02295*
X03663Y02245*
X03655*
X03653Y02249*
X03656Y02252*
X03661Y02262*
X03665Y02274*
Y02285*
X03661Y02297*
X03656Y02307*
X03653Y0231*
X03655Y02314*
X03728*
X03733Y02305*
G37*
G36*
X03746Y02264D02*
X0374Y02261D01*
X03733Y02254*
X03728Y02245*
X03725Y02235*
Y02224*
X03728Y02214*
X03733Y02205*
X03738Y022*
X03736Y02195*
X0368*
X03674Y02194*
X03669Y0219*
X03668Y0219*
X03663Y02191*
X03661Y02197*
X03656Y02207*
X03653Y0221*
X03655Y02214*
X0367*
X03675Y02215*
X0368Y02219*
X03731Y02269*
X03744*
X03746Y02264*
G37*
G36*
X03854Y02386D02*
Y02322D01*
X03848Y02319*
X03841Y02312*
X03836Y02304*
X03834Y02295*
Y02286*
X03836Y02277*
X03841Y02269*
X03848Y02262*
X03856Y02258*
X03864Y02256*
X03874*
X03883Y02258*
X03891Y02262*
X03897Y02269*
X03902Y02277*
X03904Y02286*
Y02295*
X03902Y02304*
X03897Y02312*
X03891Y02319*
X03884Y02322*
Y02382*
X03889Y02383*
X0398Y02293*
Y0228*
X03981Y02274*
X03984Y02269*
X04004Y02249*
X04009Y02245*
X04015Y02244*
X04023*
X04026Y0224*
X04025Y02235*
Y02224*
X04028Y02214*
X04033Y02205*
X04036Y02202*
X04034Y02197*
X04002*
X03996Y02196*
X03991Y02192*
X03893Y02095*
X03793*
X03791Y021*
X03796Y02105*
X03801Y02114*
X03804Y02124*
Y02135*
X03801Y02145*
X03796Y02154*
X03791Y02159*
X03793Y02163*
X03797Y02163*
X038Y02158*
X03807Y02151*
X03815Y02147*
X03824Y02145*
X03833*
X03842Y02147*
X0385Y02151*
X03857Y02158*
X03861Y02166*
X03864Y02175*
Y02184*
X03861Y02193*
X03857Y02201*
X0385Y02208*
X03842Y02212*
X03833Y02215*
X03824*
X03815Y02212*
X03807Y02208*
X038Y02201*
X03797Y02196*
X03793Y02196*
X03791Y022*
X03796Y02205*
X03801Y02214*
X03804Y02224*
Y02235*
X03801Y02245*
X03796Y02254*
X03789Y02261*
X03783Y02264*
X03785Y02269*
X03794*
X038Y0227*
X03805Y02274*
X0382Y02289*
X03823Y02294*
X03824Y023*
Y02385*
X03823Y02391*
X0382Y02396*
X03801Y02414*
X03804Y02424*
Y02428*
X03809Y0243*
X03854Y02386*
G37*
G36*
X03586Y0221D02*
X03583Y02207D01*
X03578Y02197*
X03575Y02185*
Y02174*
X03578Y02162*
X03583Y02152*
X03592Y02143*
X03602Y02138*
X03614Y02135*
X03625*
X03637Y02138*
X03647Y02143*
X0365Y02146*
X03654Y02144*
Y02115*
X0365Y02113*
X03647Y02116*
X03637Y02121*
X03625Y02125*
X03614*
X03602Y02121*
X036Y0212*
X0352Y022*
X03515Y02204*
X0351Y02205*
X03508*
X03506Y02209*
X03508Y02214*
X03584*
X03586Y0221*
G37*
G36*
X03738Y02159D02*
X03733Y02154D01*
X03728Y02145*
X03725Y02135*
Y02124*
X03728Y02114*
X03733Y02105*
X03738Y021*
X03738Y02097*
X03736Y02095*
X03732Y02094*
X03727Y0209*
X0369Y02053*
X03685Y02055*
Y02163*
X03686Y02164*
X03736*
X03738Y02159*
G37*
G36*
X04041Y02161D02*
X0404Y02161D01*
X04033Y02154*
X04028Y02145*
X04025Y02135*
Y02124*
X04028Y02114*
X04033Y02105*
X0404Y02098*
X04046Y02095*
X04044Y0209*
X0402*
X04014Y02089*
X04009Y02085*
X03968Y02045*
X03801*
X03796Y02054*
X03791Y02059*
X03793Y02064*
X039*
X03905Y02065*
X0391Y02069*
X04008Y02166*
X04039*
X04041Y02161*
G37*
G36*
X03579Y02099D02*
X03578Y02097D01*
X03575Y02085*
Y02074*
X03578Y02062*
X03583Y02052*
X03586Y02049*
X03584Y02045*
X03575*
X0347Y0215*
X0347Y02152*
X03472Y02155*
X03481*
X0349Y02157*
X03498Y02161*
X03505Y02168*
X03509Y02169*
X03579Y02099*
G37*
G36*
X03586Y0191D02*
X03583Y01907D01*
X03578Y01897*
X03575Y01885*
Y01874*
X03578Y01862*
X03579Y0186*
X03522Y01803*
X03517Y01805*
Y01877*
X03554Y01914*
X03584*
X03586Y0191*
G37*
G36*
X04254Y01744D02*
Y01701D01*
X04233Y0168*
X04148*
X04146Y01684*
X042Y01739*
X04202Y01738*
X04214Y01735*
X04225*
X04237Y01738*
X04247Y01743*
X0425Y01746*
X04254Y01744*
G37*
%LNeeprom_programmer-2*%
%LPC*%
G36*
X04225Y03225D02*
X04214D01*
X04202Y03221*
X04192Y03216*
X04183Y03207*
X04178Y03197*
X04175Y03185*
Y03174*
X04178Y03162*
X04183Y03152*
X04192Y03143*
X04202Y03138*
X04214Y03135*
X04225*
X04237Y03138*
X04247Y03143*
X04256Y03152*
X04261Y03162*
X04265Y03174*
Y03185*
X04261Y03197*
X04256Y03207*
X04247Y03216*
X04237Y03221*
X04225Y03225*
G37*
G36*
X04265Y03125D02*
X04225D01*
Y03085*
X04265*
Y03125*
G37*
G36*
X04215D02*
X04175D01*
Y03085*
X04215*
Y03125*
G37*
G36*
X04265Y03075D02*
X04225D01*
Y03035*
X04265*
Y03075*
G37*
G36*
X03411Y03039D02*
X03399D01*
X03387Y03036*
X03377Y0303*
X03369Y03021*
X03363Y03011*
X0336Y02999*
Y02987*
X03363Y02976*
X03369Y02965*
X03377Y02957*
X03387Y02951*
X03399Y02948*
X03411*
X03422Y02951*
X03433Y02957*
X03441Y02965*
X03447Y02976*
X0345Y02987*
Y02999*
X03447Y03011*
X03441Y03021*
X03433Y0303*
X03422Y03036*
X03411Y03039*
G37*
G36*
X03615Y02925D02*
X03575D01*
Y02885*
X03615*
Y02925*
G37*
G36*
X03411Y02939D02*
X03399D01*
X03387Y02936*
X03377Y0293*
X03369Y02921*
X03363Y02911*
X0336Y02899*
Y02887*
X03363Y02876*
X03369Y02865*
X03377Y02857*
X03387Y02851*
X03399Y02848*
X03411*
X03422Y02851*
X03433Y02857*
X03441Y02865*
X03447Y02876*
X0345Y02887*
Y02899*
X03447Y02911*
X03441Y02921*
X03433Y0293*
X03422Y02936*
X03411Y02939*
G37*
G36*
Y02739D02*
X03399D01*
X03387Y02736*
X03377Y0273*
X03369Y02721*
X03363Y02711*
X0336Y02699*
Y02687*
X03363Y02676*
X03369Y02665*
X03377Y02657*
X03387Y02651*
X03399Y02648*
X03411*
X03422Y02651*
X03433Y02657*
X03441Y02665*
X03447Y02676*
X0345Y02687*
Y02699*
X03447Y02711*
X03441Y02721*
X03433Y0273*
X03422Y02736*
X03411Y02739*
G37*
G36*
Y02639D02*
X03399D01*
X03387Y02636*
X03377Y0263*
X03369Y02621*
X03363Y02611*
X0336Y02599*
Y02587*
X03363Y02576*
X03369Y02565*
X03377Y02557*
X03387Y02551*
X03399Y02548*
X03411*
X03422Y02551*
X03433Y02557*
X03441Y02565*
X03447Y02576*
X0345Y02587*
Y02599*
X03447Y02611*
X03441Y02621*
X03433Y0263*
X03422Y02636*
X03411Y02639*
G37*
G36*
X02787D02*
X02775D01*
X02763Y02636*
X02753Y0263*
X02745Y02621*
X02739Y02611*
X02736Y02599*
Y02587*
X02739Y02576*
X02745Y02565*
X02753Y02557*
X02763Y02551*
X02775Y02548*
X02787*
X02799Y02551*
X02809Y02557*
X02817Y02565*
X02823Y02576*
X02826Y02587*
Y02599*
X02823Y02611*
X02817Y02621*
X02809Y0263*
X02799Y02636*
X02787Y02639*
G37*
G36*
Y02539D02*
X02775D01*
X02763Y02536*
X02753Y0253*
X02745Y02521*
X02739Y02511*
X02736Y02499*
Y02487*
X02739Y02476*
X02745Y02465*
X02753Y02457*
X02763Y02451*
X02775Y02448*
X02787*
X02799Y02451*
X02809Y02457*
X02817Y02465*
X02823Y02476*
X02826Y02487*
Y02499*
X02823Y02511*
X02817Y02521*
X02809Y0253*
X02799Y02536*
X02787Y02539*
G37*
G36*
X03411Y02439D02*
X03399D01*
X03387Y02436*
X03377Y0243*
X03369Y02421*
X03363Y02411*
X0336Y02399*
Y02387*
X03363Y02376*
X03369Y02365*
X03377Y02357*
X03387Y02351*
X03399Y02348*
X03411*
X03422Y02351*
X03433Y02357*
X03441Y02365*
X03447Y02376*
X0345Y02387*
Y02399*
X03447Y02411*
X03441Y02421*
X03433Y0243*
X03422Y02436*
X03411Y02439*
G37*
G36*
X02787D02*
X02775D01*
X02763Y02436*
X02753Y0243*
X02745Y02421*
X02739Y02411*
X02736Y02399*
Y02387*
X02739Y02376*
X02745Y02365*
X02753Y02357*
X02763Y02351*
X02775Y02348*
X02787*
X02799Y02351*
X02809Y02357*
X02817Y02365*
X02823Y02376*
X02826Y02387*
Y02399*
X02823Y02411*
X02817Y02421*
X02809Y0243*
X02799Y02436*
X02787Y02439*
G37*
G36*
X03411Y02339D02*
X0341D01*
Y02298*
X0345*
Y02299*
X03447Y02311*
X03441Y02321*
X03433Y0233*
X03422Y02336*
X03411Y02339*
G37*
G36*
X034D02*
X03399D01*
X03387Y02336*
X03377Y0233*
X03369Y02321*
X03363Y02311*
X0336Y02299*
Y02298*
X034*
Y02339*
G37*
G36*
Y02288D02*
X0336D01*
Y02287*
X03363Y02276*
X03364Y02274*
X03319Y02229*
X03316Y02224*
X03314Y02218*
Y02174*
X02949Y01809*
X02824*
X02823Y01811*
X02817Y01821*
X02809Y0183*
X02799Y01836*
X02787Y01839*
X02786*
Y01793*
Y01748*
X02787*
X02799Y01751*
X02809Y01757*
X02817Y01765*
X02823Y01776*
X02824Y01778*
X02956*
X02962Y01779*
X02967Y01783*
X03341Y02156*
X03344Y02161*
X03345Y02167*
Y02212*
X03385Y02252*
X03387Y02251*
X03399Y02248*
X034*
Y02288*
G37*
G36*
X02787Y02339D02*
X02775D01*
X02763Y02336*
X02753Y0233*
X02745Y02321*
X02739Y02311*
X02736Y02299*
Y02287*
X02739Y02276*
X02745Y02265*
X02753Y02257*
X02763Y02251*
X02775Y02248*
X02787*
X02799Y02251*
X02809Y02257*
X02817Y02265*
X02823Y02276*
X02826Y02287*
Y02299*
X02823Y02311*
X02817Y02321*
X02809Y0233*
X02799Y02336*
X02787Y02339*
G37*
G36*
X03267Y0223D02*
X03258D01*
X03249Y02227*
X03241Y02223*
X03234Y02216*
X0323Y02208*
X03228Y02199*
Y0219*
X03229Y02183*
X03055Y02009*
X02824*
X02823Y02011*
X02817Y02021*
X02809Y0203*
X02799Y02036*
X02787Y02039*
X02775*
X02763Y02036*
X02753Y0203*
X02745Y02021*
X02739Y02011*
X02736Y01999*
Y01987*
X02739Y01976*
X02745Y01965*
X02753Y01957*
X02763Y01951*
X02775Y01948*
X02787*
X02799Y01951*
X02809Y01957*
X02817Y01965*
X02823Y01976*
X02824Y01978*
X03061*
X03067Y01979*
X03072Y01983*
X03251Y02161*
X03258Y0216*
X03267*
X03276Y02162*
X03284Y02166*
X03291Y02173*
X03295Y02181*
X03298Y0219*
Y02199*
X03295Y02208*
X03291Y02216*
X03284Y02223*
X03276Y02227*
X03267Y0223*
G37*
G36*
X02787Y02239D02*
X02775D01*
X02763Y02236*
X02753Y0223*
X02745Y02221*
X02739Y02211*
X02736Y02199*
Y02187*
X02739Y02176*
X02745Y02165*
X02753Y02157*
X02763Y02151*
X02775Y02148*
X02787*
X02799Y02151*
X02809Y02157*
X02817Y02165*
X02823Y02176*
X02826Y02187*
Y02199*
X02823Y02211*
X02817Y02221*
X02809Y0223*
X02799Y02236*
X02787Y02239*
G37*
G36*
Y02139D02*
X02775D01*
X02763Y02136*
X02753Y0213*
X02745Y02121*
X02739Y02111*
X02736Y02099*
Y02087*
X02739Y02076*
X02745Y02065*
X02753Y02057*
X02763Y02051*
X02775Y02048*
X02787*
X02799Y02051*
X02809Y02057*
X02817Y02065*
X02823Y02076*
X02826Y02087*
Y02099*
X02823Y02111*
X02817Y02121*
X02809Y0213*
X02799Y02136*
X02787Y02139*
G37*
G36*
X04104Y02025D02*
X0407D01*
Y0199*
X0407*
X0408Y01993*
X04089Y01998*
X04096Y02005*
X04101Y02014*
X04104Y02024*
Y02025*
G37*
G36*
X0406D02*
X04025D01*
Y02024*
X04028Y02014*
X04033Y02005*
X0404Y01998*
X04049Y01993*
X04059Y0199*
X0406*
Y02025*
G37*
G36*
X04225D02*
X04214D01*
X04202Y02021*
X04192Y02016*
X04183Y02007*
X04178Y01997*
X04175Y01985*
Y01974*
X04178Y01962*
X04183Y01952*
X04192Y01943*
X04202Y01938*
X04214Y01935*
X04225*
X04237Y01938*
X04247Y01943*
X04256Y01952*
X04261Y01962*
X04265Y01974*
Y01985*
X04261Y01997*
X04256Y02007*
X04247Y02016*
X04237Y02021*
X04225Y02025*
G37*
G36*
X03411Y01939D02*
X03399D01*
X03387Y01936*
X03377Y0193*
X03369Y01921*
X03363Y01911*
X0336Y01899*
Y01887*
X03363Y01876*
X03369Y01865*
X03377Y01857*
X03387Y01851*
X03399Y01848*
X03411*
X03422Y01851*
X03433Y01857*
X03441Y01865*
X03447Y01876*
X0345Y01887*
Y01899*
X03447Y01911*
X03441Y01921*
X03433Y0193*
X03422Y01936*
X03411Y01939*
G37*
G36*
X03625Y01825D02*
X03614D01*
X03602Y01821*
X03592Y01816*
X03583Y01807*
X03578Y01797*
X03575Y01785*
Y01774*
X03578Y01762*
X03583Y01752*
X03592Y01743*
X03602Y01738*
X03614Y01735*
X03625*
X03637Y01738*
X03647Y01743*
X03656Y01752*
X03661Y01762*
X03665Y01774*
Y01785*
X03661Y01797*
X03656Y01807*
X03647Y01816*
X03637Y01821*
X03625Y01825*
G37*
G36*
X0376Y02425D02*
X03725D01*
Y02424*
X03728Y02414*
X03733Y02405*
X0374Y02398*
X03749Y02393*
X03759Y0239*
X0376*
Y02425*
G37*
%LNeeprom_programmer-3*%
%LPD*%
G54D11*
X03577Y0303D02*
X03765D01*
X03436Y03185D02*
X03523D01*
X03578Y0313*
X0367*
X0372Y0308*
X0392*
X04065Y03225*
X02731Y01843D02*
X02781Y01893D01*
X02731Y01743D02*
Y01843D01*
Y01743D02*
X02809Y01665D01*
X0424*
X0427Y01695*
Y0182*
X0426Y0183D02*
X0427Y0182D01*
X04155Y0183D02*
X0426D01*
X0411Y01875D02*
X04155Y0183D01*
X03715Y01875D02*
X0411D01*
X03477Y0219D02*
X0351D01*
X0362Y0208*
X03141Y01829D02*
X03405Y02093D01*
X03141Y01764D02*
Y01829D01*
Y01764D02*
X03165Y0174D01*
X03197*
X03222Y01765*
X03298*
X03341Y01722*
X03462*
X0362Y0188*
X03405Y02193D02*
X03569Y0203D01*
X0366*
X0367Y0204*
Y0217*
X0368Y0218*
X03829*
X0312Y03275D02*
X0408D01*
X0411Y03245*
Y029D02*
Y03245D01*
X0409Y0288D02*
X0411Y029D01*
X03999Y0288D02*
X0409D01*
X03954Y02925D02*
X03999Y0288D01*
X03765Y02925D02*
X03954D01*
X03765Y03025D02*
Y0303D01*
X03462Y03145D02*
X03577Y0303D01*
X03232Y03145D02*
X03462D01*
X02781Y02693D02*
X03232Y03145D01*
X03569Y0233D02*
X03765D01*
X03405Y02493D02*
X03569Y0233D01*
X03181Y01794D02*
X03304D01*
X03355Y01743*
X03445*
X03502Y018*
Y01884*
X03548Y0193*
X03688*
X03698Y0204*
X03738Y0208*
X039*
X04002Y02182*
X04095*
X04109Y02196*
Y0268*
X04065Y02725D02*
X04109Y0268D01*
X03919Y0288D02*
X03935Y02865D01*
X0372Y0288D02*
X03919D01*
X0367Y0283D02*
X0372Y0288D01*
X03441Y0283D02*
X0367D01*
X03405Y02793D02*
X03441Y0283D01*
X0362Y0258D02*
X0388D01*
X0392Y0262*
Y0273*
X0396Y0277*
X041*
X04129Y0274*
Y0218D02*
Y0274D01*
X04111Y02162D02*
X04129Y0218D01*
X04065Y0213D02*
X04111Y02162D01*
X03965Y02825D02*
X04065D01*
X0392Y0278D02*
X03965Y02825D01*
X0362Y0278D02*
X0392D01*
X0367Y0322D02*
X03765Y03125D01*
X0367Y0322D02*
Y0323D01*
X03217D02*
X0367D01*
X02781Y02793D02*
X03217Y0323D01*
X04125Y01685D02*
X0422Y0178D01*
X03303Y01685D02*
X04125D01*
X03263Y01725D02*
X03303Y01685D01*
X03765Y0243D02*
X03809Y02385D01*
Y023D02*
Y02385D01*
X03794Y02285D02*
X03809Y023D01*
X03725Y02285D02*
X03794D01*
X0367Y0223D02*
X03725Y02285D01*
X03469Y0223D02*
X0367D01*
X03405Y02293D02*
X03469Y0223D01*
X03869Y02291D02*
Y02392D01*
X03782Y0248D02*
X03869Y02392D01*
X0362Y0248D02*
X03782D01*
X03765Y0203D02*
X03975D01*
X0402Y02075*
X04079*
X04149Y02145*
Y03303*
X0408Y03373D02*
X04149Y03303D01*
X0316Y03373D02*
X0408D01*
X02781Y02993D02*
X0316Y03373D01*
X04065Y0203D02*
X04169Y02134D01*
Y03029*
X0422Y0308*
X04035Y0226D02*
X04065Y0223D01*
X04015Y0226D02*
X04035D01*
X03995Y0228D02*
X04015Y0226D01*
X03995Y0228D02*
Y02299D01*
X03765Y0253D02*
X03995Y02299D01*
X0358Y0253D02*
X03765D01*
X0357Y0254D02*
X0358Y0253D01*
X0357Y0254D02*
Y0263D01*
X0362Y0268*
X03583Y0198D02*
X0362D01*
X03569Y01993D02*
X03583Y0198D01*
X03405Y01993D02*
X03569D01*
X02781Y01793D02*
X02956D01*
X0333Y02167*
Y02218*
X03405Y02293*
X02781Y02893D02*
X02913Y03025D01*
X0294*
X03164Y0325*
X0374*
X03765Y03225*
X02781Y01993D02*
X03061D01*
X03263Y02195*
X0355Y0245D02*
Y0279D01*
Y0245D02*
X0362Y0238D01*
Y0288D02*
X03714Y02974D01*
X04016*
X04065Y02925*
G54D19*
X04065Y0243D03*
Y0233D03*
Y0223D03*
Y0213D03*
Y0203D03*
Y0193D03*
Y0183D03*
Y0173D03*
X03765Y0243D03*
Y0233D03*
Y0223D03*
Y0213D03*
Y0203D03*
Y0193D03*
Y0183D03*
X04065Y03325D03*
Y03225D03*
Y03125D03*
Y03025D03*
Y02925D03*
Y02825D03*
Y02725D03*
Y02625D03*
X03765Y03325D03*
Y03225D03*
Y03125D03*
Y03025D03*
Y02925D03*
Y02825D03*
Y02725D03*
G54D20*
X03765Y0173D03*
Y02625D03*
G54D21*
X03405Y03093D03*
Y02993D03*
Y02893D03*
Y02793D03*
Y02693D03*
Y02593D03*
Y02493D03*
Y02393D03*
Y02293D03*
Y02193D03*
Y02093D03*
Y01993D03*
Y01893D03*
Y01793D03*
X02781D03*
Y01893D03*
Y01993D03*
Y02093D03*
Y02193D03*
Y02293D03*
Y02393D03*
Y02593D03*
Y02693D03*
Y02793D03*
Y02893D03*
Y02993D03*
Y02493D03*
G54D22*
X02781Y03093D03*
G54D23*
X0422Y0178D03*
Y0198D03*
Y0218D03*
Y0228D03*
Y0238D03*
Y0268D03*
Y0278D03*
Y0298D03*
Y0318D03*
X0362Y0178D03*
Y0188D03*
Y0198D03*
Y0208D03*
Y0218D03*
Y0228D03*
Y0238D03*
Y0248D03*
Y0258D03*
Y0268D03*
Y0278D03*
Y0298D03*
G54D24*
X0422Y0188D03*
Y0208D03*
Y0248D03*
Y0258D03*
Y0288D03*
Y0308D03*
X0362Y0288D03*
Y0308D03*
Y0318D03*
G54D25*
X03436Y03185D03*
X03715Y01875D03*
X03477Y0219D03*
X03829Y0218D03*
X0312Y03275D03*
X03181Y01794D03*
X03935Y02865D03*
X03263Y01725D03*
X03869Y02291D03*
X03263Y02195D03*
X0355Y0279D03*
M02*